<svg width="108" height="133" viewBox="0 0 108 133" fill="none" xmlns="http://www.w3.org/2000/svg">
<path d="M63.5709 132.717C63.347 132.541 62.614 131.936 61.9421 131.373C61.2703 130.809 60.2808 130.144 59.7433 129.896C59.2058 129.647 58.5094 129.247 58.1959 129.007C57.8824 128.766 57.296 128.411 56.8929 128.217C56.4897 128.023 55.8516 127.627 55.4747 127.336C54.3409 126.46 53.5238 125.913 53.3504 125.913C53.2603 125.913 53.0859 125.81 52.963 125.685C52.84 125.559 52.3828 125.317 51.9468 125.146C51.5109 124.976 51.0712 124.698 50.9696 124.529C50.868 124.36 50.6383 124.156 50.4591 124.076C50.28 123.996 49.9348 123.82 49.692 123.684C49.4493 123.549 49.1288 123.438 48.9798 123.438C48.8307 123.438 48.2466 123.16 47.6817 122.82C47.1167 122.479 46.5944 122.198 46.5208 122.195C46.4473 122.193 46.1334 122.007 45.8232 121.783C45.513 121.559 45.1777 121.376 45.0779 121.376C44.9782 121.376 44.7244 121.221 44.514 121.032C44.0399 120.606 43.4968 120.595 42.8323 120.998C42.2687 121.339 41.7918 121.589 41.4193 121.738C41.2849 121.791 40.9324 122.011 40.6359 122.227C39.8129 122.826 38.1641 123.449 37.817 123.292C37.6601 123.221 37.2379 123.163 36.879 123.163C36.5201 123.163 36.1846 123.106 36.1335 123.036C36.0824 122.967 35.8032 122.866 35.5131 122.814C34.9341 122.709 33.5176 121.894 33.2873 121.534C33.2074 121.41 32.8324 121.227 32.4541 121.129C32.0334 121.02 31.4222 120.673 30.8806 120.235C30.3934 119.842 29.916 119.496 29.8195 119.467C29.7231 119.439 29.4338 119.213 29.1766 118.965C28.8614 118.662 28.6083 118.538 28.4001 118.584C28.1991 118.628 28.0283 118.553 27.9115 118.369C27.8127 118.213 27.4496 118.022 27.1045 117.943C26.5443 117.816 26.4678 117.745 26.3904 117.285C26.3427 117.002 26.2639 116.677 26.2153 116.564C26.1559 116.425 26.3967 116.211 26.9506 115.911C27.4036 115.665 27.8656 115.464 27.9772 115.464C28.0889 115.464 28.5096 115.709 28.9122 116.008C29.3148 116.307 30.3214 116.844 31.1491 117.201C32.1591 117.637 32.7012 117.955 32.7977 118.17C32.8768 118.345 33.0098 118.489 33.0933 118.489C33.2355 118.489 33.8495 118.926 35.1504 119.954C35.6771 120.371 35.7432 120.386 36.7273 120.312C37.4211 120.26 37.9386 120.13 38.3217 119.912C38.6336 119.734 39.01 119.589 39.1581 119.589C39.611 119.589 41.1554 119.143 41.5007 118.912C41.9846 118.59 42.5262 118.351 42.7763 118.351C42.898 118.351 43.1203 118.237 43.2702 118.097C43.4201 117.957 44.0492 117.675 44.6681 117.47C45.287 117.265 45.8809 117.008 45.988 116.9C46.0951 116.791 46.2653 116.7 46.3664 116.698C46.4674 116.696 46.8379 116.51 47.1898 116.285C47.5417 116.06 47.9233 115.877 48.0378 115.877C48.1523 115.877 48.6188 115.691 49.0746 115.464C49.5305 115.237 49.9624 115.052 50.0347 115.052C50.1068 115.052 50.4701 114.866 50.8419 114.638C51.3811 114.309 51.5178 114.14 51.5178 113.804V113.382L52.373 113.472C53.1064 113.549 53.3092 113.515 53.7982 113.237C55.3734 112.342 59.835 110.377 60.2922 110.377C60.458 110.377 60.8637 110.223 61.1937 110.034C61.5237 109.844 61.8454 109.69 61.9086 109.689C61.9719 109.689 62.4267 109.488 62.9194 109.241C63.4121 108.995 64.1084 108.71 64.4668 108.607C65.5031 108.31 66.8119 107.635 67.1918 107.202C67.4229 106.938 67.6859 106.803 67.9682 106.803C68.203 106.803 68.5373 106.712 68.7112 106.601C68.8851 106.49 69.1791 106.397 69.3645 106.395C69.55 106.392 69.9898 106.182 70.3418 105.929C70.6939 105.675 71.1624 105.419 71.3829 105.36C71.6034 105.301 72.0643 105.014 72.4072 104.722C72.8898 104.31 73.1567 104.19 73.5893 104.19C73.8967 104.19 74.4092 104.067 74.7282 103.915C75.0472 103.764 75.4161 103.64 75.548 103.64C75.6798 103.64 76.0526 103.393 76.3763 103.09C76.8472 102.651 77.0777 102.541 77.5286 102.541C77.926 102.541 78.3606 102.378 79.0021 101.991C79.5025 101.688 80.0481 101.441 80.2146 101.441C80.3811 101.441 80.6009 101.286 80.7029 101.097C80.8636 100.799 80.994 100.753 81.6755 100.753C82.4379 100.753 82.6999 100.642 83.5337 99.9627C83.6498 99.8682 83.8246 99.7909 83.9222 99.7909C84.0198 99.7909 84.4465 99.639 84.8704 99.4533C85.2943 99.2677 86.3374 98.8789 87.1885 98.5893C88.0395 98.2998 88.9191 97.9675 89.143 97.851C90.4289 97.182 91.5673 96.6287 91.6579 96.6287C91.7152 96.6287 92.1429 96.4121 92.6085 96.1475C93.074 95.8828 93.6477 95.6663 93.8833 95.6663C94.3918 95.6663 95.9839 95.1314 95.9839 94.9605C95.9839 94.895 96.0698 94.8414 96.1747 94.8414C96.2797 94.8414 96.4812 94.7595 96.6226 94.6596C96.924 94.4465 98.1131 94.1124 98.3471 94.175C98.4359 94.1988 98.7285 94.0447 98.9972 93.8327C99.266 93.6206 99.6325 93.3356 99.8116 93.1994C99.9908 93.0632 100.421 92.9156 100.768 92.8713C101.471 92.7817 102.011 92.444 102.011 92.0933C102.011 91.7397 102.135 91.7012 102.845 91.8358C103.425 91.9458 103.535 91.9244 103.808 91.6478C104.588 90.8583 104.799 89.112 104.311 87.4859C104.174 87.0322 104.062 86.1014 104.06 85.4175L104.057 84.1739L103.563 84.2302C103.291 84.2612 102.839 84.4708 102.557 84.6961C102.251 84.9406 101.923 85.0825 101.743 85.0481C101.412 84.9851 99.8395 85.4216 99.3273 85.7186C99.1506 85.821 98.8335 85.9049 98.6227 85.9049C98.2712 85.9049 97.0249 86.6177 95.6931 87.5804C95.3989 87.7931 95.0214 87.9671 94.8544 87.9671C94.6873 87.9671 94.1694 88.1837 93.7035 88.4483C93.2376 88.713 92.6943 88.9295 92.4963 88.9295C92.2982 88.9295 91.9788 89.0533 91.7865 89.2045C91.5942 89.3557 91.316 89.4795 91.1683 89.4795C91.0205 89.4795 90.4494 89.6593 89.8991 89.8791C89.3488 90.0988 88.6237 90.3741 88.2878 90.4907C87.9518 90.6074 87.677 90.7678 87.677 90.8473C87.677 90.9268 87.5887 90.9918 87.4809 90.9918C87.373 90.9918 86.3171 91.394 85.1343 91.8855C83.9515 92.377 82.8805 92.7791 82.7543 92.7791C82.628 92.7791 82.2903 93.0027 82.0038 93.2758C81.6199 93.6418 81.3928 93.7527 81.1407 93.697C80.7129 93.6026 80.3507 93.7716 79.1531 94.6243C78.5531 95.0515 77.9827 95.3333 77.6056 95.389C77.2771 95.4374 77.026 95.5489 77.0475 95.6365C77.0865 95.7952 75.4613 96.7376 74.2611 97.2523C73.9147 97.4008 73.5215 97.6616 73.3873 97.8317C73.253 98.0018 73.0051 98.1411 72.8362 98.1411C72.6673 98.1411 72.5287 98.1874 72.5281 98.2442C72.5261 98.4774 71.3823 98.9965 71.0383 98.9206C70.8216 98.8728 70.5097 98.9466 70.2374 99.1103C69.9921 99.2578 69.7287 99.3784 69.6521 99.3784C69.5755 99.3784 69.4241 99.4984 69.3156 99.645C68.9926 100.082 67.598 100.543 66.736 100.499C66.3336 100.478 66.1378 100.577 65.7303 101.005C65.4519 101.297 64.9804 101.62 64.6825 101.723C64.3846 101.825 64.0447 102.005 63.9271 102.122C63.7661 102.282 63.6923 102.292 63.6284 102.163C63.5818 102.068 63.4435 101.991 63.321 101.991C63.1985 101.991 63.0397 102.068 62.9681 102.163C62.7827 102.407 61.5707 102.93 61.349 102.861C61.2469 102.829 61.0164 102.96 60.837 103.153C60.6328 103.372 60.3478 103.503 60.0757 103.503C59.7923 103.503 59.4973 103.647 59.2295 103.915C59.0034 104.142 58.6966 104.329 58.5478 104.331C58.107 104.335 56.8913 104.85 56.32 105.274C56.0277 105.49 55.3957 105.825 54.9155 106.017C54.4353 106.209 53.5659 106.555 52.9836 106.785C52.4013 107.015 51.4851 107.508 50.9476 107.88C50.0572 108.497 49.8817 108.562 48.973 108.615C48.1896 108.661 47.8636 108.753 47.4538 109.044C47.1669 109.248 46.7728 109.415 46.5781 109.416C46.3834 109.416 46.0042 109.54 45.7355 109.69C45.4667 109.84 45.0616 109.963 44.8352 109.964C44.6087 109.964 44.2632 110.06 44.0673 110.175C43.8714 110.291 43.4008 110.478 43.0215 110.591C42.1675 110.846 36.8751 113.082 35.2584 113.871C34.6023 114.191 33.8694 114.619 33.6297 114.82C33.3899 115.022 32.9575 115.346 32.6688 115.541C32.2508 115.823 32.1554 115.978 32.2002 116.303C32.273 116.831 31.851 117.055 31.3458 116.756C31.1528 116.642 30.9949 116.484 30.9949 116.404C30.9949 116.325 30.8217 116.145 30.6099 116.004C29.6188 115.346 30.2479 113.182 31.3774 113.364C31.6532 113.409 31.901 113.281 32.3482 112.863C32.6784 112.554 33.0929 112.302 33.2693 112.302C33.4457 112.302 33.9518 112.039 34.3939 111.718C36.1283 110.457 36.5885 110.196 37.3098 110.067C37.7186 109.993 38.1885 109.826 38.3539 109.696C38.8475 109.308 42.683 107.742 43.0237 107.79C43.1969 107.814 43.4831 107.724 43.6596 107.589C43.8362 107.454 44.129 107.32 44.3102 107.29C44.4915 107.261 44.8131 107.155 45.0248 107.054C45.542 106.809 46.5147 106.115 46.3419 106.115C46.2661 106.115 46.0371 105.984 45.8329 105.823C45.5015 105.563 45.3215 105.538 44.1527 105.595L42.8437 105.659L42.533 105.215C42.2812 104.854 42.0855 104.753 41.5021 104.679C40.661 104.572 39.8026 104.24 39.6814 103.973C39.6347 103.87 39.3469 103.71 39.0419 103.617C38.7369 103.524 38.4873 103.379 38.4873 103.295C38.4873 103.055 37.606 102.403 37.2826 102.403C36.9412 102.403 36.2718 101.99 35.4436 101.269C35.118 100.985 34.7649 100.753 34.6588 100.753C34.5527 100.753 34.3262 100.622 34.1556 100.461C33.9849 100.3 33.3253 99.9676 32.6898 99.7222C32.0543 99.4769 31.4886 99.1754 31.4326 99.0523C31.3767 98.9292 31.1922 98.8285 31.0228 98.8285C30.8533 98.8285 30.4489 98.6169 30.1241 98.3583C29.7993 98.0998 29.126 97.7199 28.6278 97.5141C28.0886 97.2915 27.6304 96.9905 27.4957 96.7706C27.3712 96.5674 26.9532 96.182 26.5668 95.914C26.1803 95.6461 25.5035 95.1346 25.0627 94.7773C24.6218 94.4201 23.9797 93.9778 23.6358 93.7945C23.2918 93.6112 22.214 92.7819 21.2406 91.9516C20.2673 91.1212 19.4043 90.4419 19.3229 90.4419C19.2415 90.4419 19.0361 90.2408 18.8663 89.9951C18.6966 89.7493 18.406 89.4356 18.2204 89.2979C18.0349 89.1602 17.17 88.5202 16.2985 87.8758C14.8103 86.7753 12.4266 84.6771 12.4266 84.4677C12.4266 84.2484 10.8723 82.558 10.3584 82.2184C10.051 82.0153 9.58134 81.4819 9.31476 81.0332C9.04819 80.5844 8.69615 80.1381 8.53244 80.0414C8.36874 79.9446 8.19051 79.6784 8.13636 79.4499C8.08222 79.2214 7.88044 78.9253 7.68795 78.7919C7.3039 78.5258 6.67237 77.4353 6.48719 76.7184C6.42238 76.4676 6.26632 76.2289 6.1404 76.1882C6.01447 76.1474 5.91143 76.0605 5.91143 75.9952C5.91143 75.9298 5.57381 75.3951 5.16115 74.8069C4.0507 73.2241 3.30577 71.9291 3.30222 71.5755C3.30042 71.4034 2.89736 70.8113 2.40638 70.2596C1.9154 69.7079 1.51369 69.1723 1.51369 69.0694C1.51369 68.9665 1.28155 68.459 0.997826 67.9415C0.506567 67.0455 0.408553 66.6464 0.0745781 64.1822C-0.0522575 63.2464 -0.0347529 63.1225 0.264008 62.8417C0.445061 62.6716 0.766576 62.5324 0.978489 62.5324C1.1904 62.5324 1.6644 62.4029 2.03182 62.2447C2.89344 61.8737 3.67727 61.9663 5.08948 62.6061C5.66761 62.868 6.30175 63.0823 6.49868 63.0823C6.80133 63.0823 8.90991 63.7723 10.9255 64.5308C11.2197 64.6416 11.5688 64.7321 11.7014 64.7321C11.8339 64.7321 12.0697 64.7893 12.2252 64.8593C13.5521 65.4556 15.9026 66.3632 16.4986 66.5094C17.7529 66.817 18.9208 67.226 19.1182 67.4269C19.2223 67.5327 19.4727 67.6193 19.6748 67.6193C19.8768 67.6193 20.1425 67.7215 20.2653 67.8464C20.3881 67.9713 21.5148 68.4951 22.7692 69.0105C24.0235 69.5259 25.233 70.0378 25.457 70.1482C25.6809 70.2585 26.927 70.7624 28.2259 71.2681C29.5249 71.7737 30.6976 72.2605 30.832 72.3497C30.9664 72.4389 31.2596 72.5792 31.4835 72.6614C31.7075 72.7437 32.4424 73.0349 33.1167 73.3086C33.791 73.5822 34.473 73.8062 34.6323 73.8062C34.7916 73.8062 35.3393 74.0447 35.8495 74.3362C37.0023 74.995 37.7394 75.3185 38.0876 75.3185C38.235 75.3185 38.5502 75.4338 38.788 75.5748C39.0257 75.7158 39.5135 75.9169 39.8718 76.0216C40.2302 76.1264 40.6333 76.3012 40.7677 76.4101C40.9823 76.5839 41.0185 76.5607 41.0657 76.2188C41.0953 76.0047 41.0355 75.7857 40.9328 75.7322C40.8302 75.6786 40.6899 75.3007 40.6211 74.8923C40.5478 74.4573 40.1813 73.6171 39.736 72.8632C39.318 72.1555 38.976 71.4632 38.976 71.3246C38.976 71.1861 38.9027 71.0345 38.8131 70.9877C38.7235 70.941 38.647 70.6744 38.6431 70.3953C38.639 70.1162 38.5248 69.6404 38.3889 69.3379C38.253 69.0354 38.0683 68.5714 37.9784 68.3068C37.8885 68.0421 37.7149 67.6398 37.5925 67.4127C37.4702 67.1857 37.3353 66.567 37.2928 66.0379C37.2502 65.5088 37.1778 64.9831 37.1318 64.8696C37.0859 64.7562 37.0131 64.4042 36.9702 64.0873C36.9273 63.7705 36.7668 63.3065 36.6136 63.0562C36.4604 62.8059 36.2696 62.199 36.1897 61.7075C35.9885 60.4702 35.7585 58.9069 35.6333 57.9266C35.5754 57.4729 35.4242 56.8685 35.2974 56.5834C35.1706 56.2983 35.0669 55.7838 35.0669 55.4401C35.0669 55.0964 34.978 54.68 34.8694 54.5148C34.7504 54.3338 34.6271 53.2589 34.5591 51.8085C34.497 50.4853 34.3673 49.0004 34.2709 48.5089C34.0252 47.2575 33.7941 38.886 33.9687 37.5631C34.0474 36.9668 34.1376 35.6437 34.1692 34.6229C34.247 32.1101 34.3872 29.8616 34.5089 29.1741C34.5744 28.8043 34.5429 28.5714 34.4187 28.5066C34.284 28.4363 34.3296 28.3158 34.5737 28.0965C34.8569 27.842 34.92 27.6124 34.923 26.8268C34.9262 25.9116 35.0319 25.3823 35.4246 24.3115C35.5216 24.0469 35.6191 23.2426 35.6412 22.5242C35.6632 21.8058 35.7744 21.0325 35.8882 20.8057C36.002 20.5788 36.0806 20.2926 36.0628 20.1697C36.0451 20.0468 36.1787 19.5828 36.3598 19.1386C36.5408 18.6944 36.7582 17.9138 36.8427 17.404C36.9749 16.6071 37.4304 15.5307 38.0069 14.6526C38.094 14.5199 38.1181 14.1626 38.0605 13.8585C37.9853 13.4615 38.0248 13.2388 38.2008 13.0686C38.5249 12.755 38.8718 11.4743 38.7598 11.0044C38.7075 10.7846 38.7943 10.4061 38.9715 10.0818C39.1368 9.77934 39.308 9.22252 39.3521 8.84444C39.3961 8.46635 39.5945 7.7858 39.793 7.3321C39.9915 6.8784 40.1905 6.32157 40.2354 6.09472C40.2802 5.86787 40.4821 5.52761 40.684 5.33857C41.281 4.7797 42.3965 2.82571 42.3965 2.33876C42.3965 1.77277 43.4058 0.854162 43.9603 0.915497C44.1581 0.937379 44.3679 0.889751 44.4265 0.809677C44.4851 0.729621 44.7765 0.664062 45.074 0.664062C45.5127 0.664062 45.7219 0.77442 46.1822 1.24838C46.9109 1.99892 48.2415 3.13862 48.3899 3.13939C48.4529 3.13973 49.0456 3.57347 49.707 4.10326C50.3684 4.63306 51.1929 5.20099 51.5394 5.36535C51.8858 5.52969 52.1692 5.70793 52.1692 5.76143C52.1692 5.81492 52.3476 5.89647 52.5656 5.94265C52.7836 5.98885 53.0026 6.13479 53.0523 6.26699C53.102 6.3992 53.3571 6.5875 53.6193 6.68544C53.8814 6.78338 54.4223 7.13908 54.8214 7.47589C55.4128 7.97512 55.6558 8.08827 56.1363 8.08827C56.6458 8.08827 56.781 8.16201 57.1326 8.63229C57.3564 8.93151 57.6872 9.24302 57.8676 9.32455C58.0481 9.40605 58.1958 9.56253 58.1958 9.67223C58.1958 9.78192 58.4824 10.0318 58.8326 10.2274C59.1829 10.4231 59.5102 10.7178 59.5601 10.8824C59.6099 11.047 60.0979 11.5838 60.6446 12.0753C61.8666 13.1741 62.2417 13.6078 62.153 13.8195C62.1155 13.9092 62.2648 14.0822 62.4849 14.204C62.7202 14.3341 63.0309 14.7542 63.2385 15.2227C63.4328 15.6613 63.9517 16.3854 64.3915 16.8318C64.8314 17.2782 65.1936 17.7054 65.1965 17.781C65.1995 17.8566 65.4292 18.0278 65.7073 18.1614C66.1355 18.3671 66.2019 18.4685 66.1403 18.8223C66.0848 19.1415 66.1576 19.2999 66.448 19.4928C66.6572 19.6317 66.8281 19.7983 66.8278 19.863C66.8269 20.0812 68.5102 22.8646 68.8614 23.2254C69.0528 23.422 69.4471 24.0098 69.7376 24.5315C70.028 25.0532 70.7411 26.2844 71.3221 27.2674C71.9031 28.2505 72.3757 29.1844 72.3724 29.3428C72.3694 29.5012 72.5129 29.7428 72.6921 29.8797C72.8712 30.0165 73.0178 30.2331 73.0178 30.3609C73.0178 30.6194 73.5085 31.0483 73.8043 31.0483C73.9198 31.0483 73.9959 31.2787 73.9971 31.6326C73.9981 32.0059 74.2113 32.6141 74.5866 33.3168C75.6234 35.2574 76.2754 36.672 76.2754 36.9806C76.2754 37.1458 76.5232 37.6615 76.826 38.1265C77.1288 38.5915 77.4307 39.1802 77.497 39.4347C77.5632 39.6892 77.7552 40.1046 77.9237 40.3578C78.0921 40.611 78.2299 40.9295 78.2299 41.0656C78.2299 41.2017 78.4129 41.6174 78.6365 41.9894C78.86 42.3614 79.0433 42.744 79.0437 42.8395C79.044 42.935 79.1132 43.1207 79.1975 43.252C79.5027 43.7279 80.0216 45.4715 80.0216 46.0211C80.0216 46.3308 80.0935 46.5841 80.1814 46.5841C80.2693 46.5841 80.3898 46.7542 80.4491 46.9622C80.5085 47.1701 80.6874 47.5877 80.8466 47.8902C81.0058 48.1927 81.1712 48.6567 81.2141 48.9214C81.2571 49.186 81.471 49.8088 81.6895 50.3054C81.908 50.802 82.1371 51.6661 82.1988 52.2256C82.3172 53.3017 82.6871 54.0131 82.9936 53.7544C83.0886 53.6743 83.1596 53.4097 83.1515 53.1665C83.1434 52.9233 83.2419 52.5973 83.3708 52.4421C83.4996 52.2868 83.605 51.8638 83.605 51.5021C83.605 50.9699 83.6835 50.7866 84.0168 50.5421C84.2433 50.3759 84.3921 50.1597 84.3476 50.0616C84.3031 49.9636 84.4476 49.6583 84.6687 49.3832C84.8899 49.1081 85.0709 48.8143 85.0709 48.7303C85.071 48.6463 85.2879 48.2374 85.5531 47.8215C85.8183 47.4056 86.0382 46.9313 86.0417 46.7674C86.0457 46.6036 86.1043 46.4489 86.1728 46.4237C86.3676 46.3521 88.3285 43.8074 88.3285 43.6262C88.3285 43.5373 88.4685 43.3576 88.6396 43.2269C88.8107 43.0962 88.9988 42.8274 89.0576 42.6297C89.1165 42.4319 89.3245 42.0807 89.5199 41.8493C89.7154 41.6178 89.8771 41.3665 89.8792 41.2909C89.8812 41.2153 90.0171 41.1731 90.1809 41.197C90.3606 41.2233 90.4357 41.1819 90.3703 41.0927C90.3107 41.0112 90.4833 40.6679 90.7538 40.3296C91.0243 39.9913 91.3328 39.4689 91.4393 39.1688C91.583 38.764 91.7532 38.5877 92.0982 38.4862C92.4479 38.3833 92.5634 38.2612 92.5634 37.9941C92.5634 37.7988 92.6733 37.6033 92.8077 37.5598C92.9421 37.5163 93.052 37.431 93.052 37.3702C93.052 37.3094 93.2482 37.0068 93.4881 36.6975C93.8128 36.279 94.0313 36.1357 94.3432 36.1371C95.4035 36.1416 95.714 36.4157 95.9256 37.5328C95.9958 37.9037 96.1298 38.118 96.3173 38.1594C96.4741 38.194 96.7269 38.4976 96.8791 38.834C97.0313 39.1705 97.3334 39.6238 97.5504 39.8415C97.7674 40.0592 98.2782 40.8456 98.6856 41.589C99.093 42.3325 99.5313 43.1204 99.6596 43.34C99.7879 43.5595 99.8929 43.8882 99.8929 44.0704C99.8929 44.4348 100.354 45.6887 101.063 47.2541C101.315 47.8116 101.524 48.4612 101.526 48.6977C101.528 48.9341 101.748 49.5589 102.015 50.086C102.281 50.6132 102.499 51.2773 102.499 51.562C102.499 52.2104 102.758 53.1483 103.231 54.2145C104.037 56.0316 104.451 58.3677 104.34 60.4701C104.298 61.2641 104.235 62.7799 104.2 63.8385C104.116 66.4313 104.062 66.7559 103.284 69.4067C103.184 69.7469 103.071 70.2419 103.032 70.5065C102.994 70.7712 102.844 71.2043 102.7 71.4689C102.38 72.057 102.008 73.6406 102.128 73.9043C102.176 74.01 102.068 74.356 101.888 74.6731C101.708 74.9903 101.426 75.5282 101.26 75.8684C101.094 76.2087 100.649 76.8449 100.272 77.2821C99.8945 77.7194 99.5419 78.1939 99.4882 78.3367C99.4345 78.4794 99.1371 78.8298 98.8274 79.1152C98.5176 79.4007 98.2641 79.715 98.2641 79.8136C98.2641 79.9123 98.1909 79.993 98.1013 79.993C98.0117 79.993 97.9384 80.1167 97.9384 80.268C97.9384 80.4192 97.8651 80.5429 97.7755 80.5429C97.6859 80.5429 97.6126 80.653 97.6126 80.7875C97.6126 80.922 97.1348 81.4318 96.5508 81.9204C95.494 82.8045 95.1723 83.3255 95.1703 84.1562C95.1698 84.3961 95.0632 84.5702 94.8844 84.6232C94.4751 84.7447 93.7035 85.3743 93.7035 85.5869C93.7035 85.843 93.9326 85.8104 94.2567 85.5082C94.4095 85.3656 94.7324 85.2152 94.9742 85.174C95.2159 85.1327 95.8743 84.8472 96.4372 84.5395C97.0002 84.2318 97.5499 83.9795 97.6588 83.9788C97.7678 83.978 98.2234 83.8253 98.6713 83.6394C99.1193 83.4534 99.559 83.2968 99.6486 83.2913C99.7382 83.2859 100.065 83.0983 100.375 82.8746C100.686 82.6508 101.027 82.4677 101.135 82.4677C101.242 82.4677 101.501 82.2976 101.711 82.0896C102.279 81.5261 102.908 81.2303 103.54 81.2303C103.976 81.2303 104.193 81.1345 104.495 80.8093L104.885 80.3883L105.558 80.6156C106.483 80.9279 107.085 81.9061 106.949 82.8754C106.893 83.2689 106.974 84.0552 107.148 84.8232C107.313 85.5532 107.452 86.8554 107.468 87.8296C107.484 88.7748 107.589 89.8266 107.701 90.1669C108.028 91.1556 108.094 92.0884 107.864 92.4519C107.701 92.7077 107.522 92.7791 107.042 92.7791C106.704 92.7791 106.381 92.8419 106.325 92.9188C106.269 92.9956 106.167 93.0296 106.1 92.9943C106.032 92.9589 105.621 93.2054 105.187 93.542C104.752 93.8785 104.366 94.1539 104.328 94.1539C104.291 94.1539 104.065 94.2691 103.827 94.4099C103.589 94.5506 103.117 94.7086 102.777 94.761C102.346 94.8273 102.121 94.9475 102.034 95.1581C101.885 95.5187 101.943 101.786 102.1 102.314C102.166 102.535 102.129 102.763 102.008 102.886C101.888 103.008 101.847 103.26 101.906 103.509C101.961 103.74 101.923 104.188 101.822 104.506C103.048 107.671 100.661 111.173 100.989 114.279C101.037 114.488 101 114.794 100.908 114.958C100.816 115.123 100.649 115.461 100.538 115.71C100.428 115.959 100.211 116.219 100.056 116.289C99.7202 116.441 98.564 116.308 98.3725 116.096C98.2965 116.012 98.2777 116.146 98.33 116.402C98.4137 116.811 98.347 116.917 97.675 117.433C97.2634 117.749 96.8775 118.008 96.8174 118.008C96.5013 118.008 94.2637 119.287 93.8917 119.681C93.6538 119.933 93.354 120.139 93.2255 120.139C92.8164 120.139 91.5226 120.715 90.9959 121.131C90.3272 121.66 89.0417 122.414 88.3284 122.695C88.0149 122.818 87.5173 123.128 87.2226 123.384C86.928 123.639 86.4882 123.882 86.2453 123.924C85.4471 124.061 84.4178 124.572 84.2122 124.934C84.071 125.183 83.8389 125.314 83.4411 125.371C82.7526 125.468 81.8276 125.861 81.4684 126.208C81.3235 126.348 81.0951 126.463 80.9609 126.463C80.5857 126.463 78.4851 127.386 78.1507 127.698C77.9873 127.851 77.7001 127.976 77.5124 127.978C77.3247 127.98 76.8506 128.164 76.4587 128.388C76.0669 128.612 75.6791 128.76 75.5971 128.717C75.515 128.675 75.3065 128.791 75.1336 128.977C74.9608 129.162 74.6061 129.35 74.3454 129.394C74.0847 129.438 73.7451 129.581 73.5906 129.711C73.4362 129.841 73.1892 129.956 73.0416 129.966C72.8941 129.975 72.5858 130.088 72.3564 130.215C72.127 130.343 71.5887 130.537 71.1601 130.645C70.7315 130.754 70.2541 130.94 70.0991 131.059C69.9441 131.177 69.3108 131.379 68.6919 131.508C67.8769 131.678 67.4634 131.846 67.193 132.117C66.9768 132.334 64.6196 133.538 63.5709 132.717ZM65.9717 129.35C66.9268 129.35 67.4702 129.203 69.516 128.389C70.7869 127.884 71.6394 127.591 72.0993 127.502C72.7979 127.368 73.8986 126.91 75.6573 126.023C76.5267 125.584 77.3487 125.226 77.484 125.226C77.6194 125.226 78.0769 125.04 78.5006 124.813C78.9244 124.586 79.3554 124.401 79.4583 124.401C79.5613 124.401 79.7782 124.277 79.9403 124.126C80.1025 123.974 80.4004 123.851 80.6023 123.851C80.837 123.851 81.2984 123.562 81.881 123.05C82.6473 122.376 82.8655 122.258 83.2509 122.306C83.5634 122.344 83.8612 122.259 84.1866 122.037C85.132 121.391 86.0367 120.968 86.2938 121.052C86.4427 121.1 86.7063 121.018 86.9117 120.859C87.1087 120.706 87.6762 120.364 88.1728 120.099C88.6694 119.834 89.1652 119.526 89.2746 119.414C89.384 119.303 89.9046 119.049 90.4316 118.849C90.9585 118.649 91.4316 118.394 91.4828 118.281C91.5341 118.169 91.771 118.076 92.0093 118.076C92.2584 118.076 92.9357 117.794 93.6025 117.413C95.3433 116.417 97.291 115.583 97.7684 115.63C98.1615 115.668 98.1933 115.621 98.3859 114.708C98.5012 114.161 98.5486 113.321 98.4957 112.763C98.4356 112.129 98.4646 111.749 98.5778 111.69C98.6742 111.639 98.7544 111.246 98.7562 110.816C98.7582 110.386 98.8345 109.6 98.9263 109.071C99.0758 108.209 99.152 106.372 99.2885 100.341C99.3196 98.9649 99.2731 98.4063 99.1089 98.1812C98.9767 98.0001 98.9201 97.673 98.9685 97.3699C99.0985 96.5555 99.0036 96.4868 98.1316 96.7642C96.6707 97.229 96.5055 97.3001 95.9614 97.6987C95.6603 97.9192 95.2129 98.141 94.9673 98.1915C94.7216 98.242 94.1773 98.467 93.7576 98.6917C93.338 98.9163 92.7369 99.1409 92.4219 99.1908C91.8315 99.2843 90.7778 99.7395 90.5762 99.9882C90.5135 100.066 90.2329 100.139 89.9529 100.151C89.6522 100.163 89.2618 100.319 88.9994 100.531C88.7551 100.729 88.4126 100.891 88.2383 100.891C87.8849 100.892 86.455 101.489 84.0124 102.656C83.1165 103.084 82.3103 103.441 82.2207 103.45C81.5742 103.51 79.8788 104.261 78.1422 105.256C77.3571 105.706 76.7084 105.978 76.4215 105.978C76.122 105.978 75.7741 106.133 75.4261 106.421C75.1318 106.665 74.8178 106.868 74.7282 106.872C74.0686 106.904 73.1916 107.131 73.1203 107.288C73.0729 107.392 72.7017 107.605 72.2952 107.761C71.8889 107.917 71.3172 108.216 71.0249 108.424C70.4462 108.836 69.4065 109.277 69.0141 109.277C68.8785 109.277 68.6061 109.423 68.4089 109.601C68.1633 109.822 67.8018 109.947 67.2625 109.998C66.6856 110.051 66.337 110.181 65.9595 110.483C65.676 110.709 65.1509 110.969 64.7926 111.06C64.4342 111.151 63.9101 111.313 63.6278 111.42C63.3455 111.527 63.0122 111.615 62.8872 111.615C62.7621 111.615 62.3735 111.862 62.0236 112.165C61.6737 112.467 61.2805 112.714 61.1498 112.714C60.796 112.714 59.5516 113.363 59.4417 113.604C59.3856 113.728 59.1456 113.814 58.8584 113.814C58.59 113.814 58.0196 113.979 57.5909 114.181C57.1622 114.382 56.571 114.661 56.2772 114.799C55.9833 114.938 55.6078 115.052 55.4428 115.052C55.2778 115.052 54.8387 115.33 54.4671 115.67C54.0955 116.011 53.7247 116.289 53.6431 116.289C53.5091 116.289 51.7962 116.975 51.1921 117.271C51.0578 117.336 50.5914 117.56 50.1558 117.768C49.7201 117.975 49.1598 118.284 48.9107 118.454C48.6615 118.625 48.3179 118.764 48.1472 118.764C47.69 118.764 47.4459 119.036 47.4459 119.545C47.4459 119.931 47.5376 120.035 48.0864 120.271C48.4386 120.423 48.7729 120.61 48.8292 120.687C48.9281 120.822 50.2467 121.376 50.4695 121.376C50.5297 121.376 50.8283 121.561 51.1329 121.786C51.4375 122.012 51.887 122.235 52.1317 122.282C52.3764 122.329 52.7232 122.509 52.9024 122.683C53.378 123.144 55.5916 124.676 55.7821 124.676C55.8716 124.676 56.3597 124.99 56.8668 125.374C57.3739 125.759 58.0819 126.199 58.4403 126.353C58.7986 126.507 59.2017 126.711 59.3361 126.806C59.4705 126.902 59.7526 127.025 59.963 127.079C60.1734 127.133 60.7762 127.541 61.3026 127.985C61.829 128.43 62.4631 128.832 62.7117 128.878C63.3884 129.006 64.1501 129.317 64.3951 129.566C64.5937 129.768 64.629 129.768 64.802 129.569C64.9388 129.411 65.2635 129.35 65.9717 129.35ZM53.4328 103.834C54.5744 103.336 55.6956 102.779 55.9245 102.597C56.1534 102.415 56.4311 102.266 56.5418 102.266C56.8683 102.266 57.9268 101.768 58.2581 101.459C58.5463 101.19 58.5485 101.152 58.295 100.826C58.1468 100.635 57.8989 100.479 57.7442 100.479C57.4584 100.48 55.5584 99.8772 53.9973 99.2895C53.5245 99.1116 53.0778 98.966 53.0045 98.966C52.9313 98.966 52.7455 98.8486 52.5917 98.7052C52.438 98.5617 51.9685 98.3717 51.5485 98.2829C51.1285 98.1941 50.6383 98.0078 50.4591 97.869C50.2799 97.7302 49.8202 97.4801 49.4375 97.3134C49.0548 97.1467 48.6392 96.8868 48.514 96.7358C48.3786 96.5727 48.2058 96.5034 48.088 96.5648C47.9705 96.6262 47.7828 96.5522 47.6271 96.3834C47.4826 96.2268 46.9246 95.8985 46.3871 95.6539C45.8496 95.4094 45.1642 94.9702 44.8641 94.678C44.564 94.3858 44.0947 94.0491 43.8213 93.9298C43.5478 93.8104 43.1501 93.5382 42.9374 93.3248C42.7247 93.1114 42.3321 92.8963 42.065 92.8468C41.798 92.7973 41.5081 92.6442 41.4208 92.5066C41.2932 92.3054 39.7751 91.5623 38.3246 90.991C37.0932 90.5061 36.6787 90.274 35.8706 89.617C35.3591 89.2011 34.8041 88.7605 34.6373 88.638C34.4705 88.5155 34.0557 88.1317 33.7156 87.7851C33.3755 87.4386 32.7123 86.9692 32.2419 86.742C31.7716 86.5149 30.7522 85.8042 29.9768 85.1628C29.2014 84.5214 28.4169 83.9288 28.2336 83.846C28.0503 83.7631 27.9003 83.61 27.9003 83.5055C27.9003 83.401 27.8326 83.2949 27.7499 83.2697C27.6672 83.2445 27.2824 82.9761 26.8948 82.6731C26.5072 82.3702 25.8013 81.8513 25.3263 81.52C24.578 80.9981 24.4691 80.8603 24.5119 80.4897C24.5571 80.0979 24.6164 80.0579 25.2128 80.0168C25.7679 79.9784 25.9245 80.0319 26.2715 80.3784C26.4954 80.6021 27.3383 81.0651 28.1446 81.4073C29.1288 81.825 29.9692 82.3161 30.7022 82.9017C31.826 83.7994 32.5603 84.2785 33.9714 85.0347C34.4189 85.2745 35.2725 85.8954 35.8683 86.4145C37.6017 87.9248 40.0414 89.4795 40.6781 89.4795C40.965 89.4795 41.9055 89.9267 41.9069 90.0638C41.9073 90.1205 42.1241 90.1669 42.3884 90.1669C42.7586 90.1669 43.0097 90.309 43.4816 90.7856C43.8186 91.1259 44.1718 91.4043 44.2665 91.4043C44.4536 91.4043 46.2024 92.5752 47.0901 93.2947C47.3932 93.5405 47.8059 93.7415 48.0072 93.7415C48.5463 93.7415 49.3483 94.1188 49.7056 94.5404C49.8779 94.7438 50.4478 95.095 50.972 95.3209C51.4961 95.5469 52.3063 95.9335 52.7723 96.1802C53.2383 96.4269 53.7287 96.6287 53.8621 96.6287C53.9955 96.6287 54.1465 96.6858 54.1976 96.7556C54.2487 96.8254 54.5229 96.9256 54.807 96.9783C55.3391 97.0769 56.1606 97.4287 56.918 97.8822C57.1558 98.0246 57.6139 98.1411 57.936 98.1411C58.2581 98.1411 58.5216 98.1878 58.5216 98.245C58.5216 98.4566 60.1382 98.966 60.8097 98.966C61.2951 98.966 61.6611 99.067 62.0257 99.3017C62.548 99.638 62.9194 99.5778 62.9194 99.1568C62.9194 99.0651 63.2281 98.9461 63.6054 98.8923C63.9826 98.8384 64.4041 98.745 64.5419 98.6846C64.6797 98.6242 65.3325 98.4362 65.9924 98.2668C66.6524 98.0973 67.3936 97.8158 67.6396 97.6411C67.8856 97.4663 68.3249 97.3081 68.6158 97.2894C68.9573 97.2674 69.3928 97.071 69.8447 96.7352C70.2629 96.4246 70.6432 96.2471 70.7893 96.2944C70.9447 96.3447 71.073 96.2697 71.1411 96.0887C71.2095 95.9067 71.3868 95.8038 71.6319 95.8038C71.9884 95.8038 72.8699 95.2974 73.2741 94.8604C73.3702 94.7565 73.6536 94.6525 73.9039 94.6293C74.1542 94.6061 74.552 94.4392 74.7879 94.2584C75.0238 94.0776 75.6932 93.7231 76.2755 93.4707C76.8578 93.2182 77.5288 92.8975 77.7666 92.7579C78.0043 92.6183 78.3069 92.5042 78.4388 92.5042C78.5708 92.5042 78.7641 92.4174 78.8683 92.3114C78.9725 92.2054 79.2367 92.0808 79.4554 92.0344C79.674 91.9882 79.9681 91.7622 80.1089 91.5324C80.2667 91.2748 80.4709 91.1295 80.6412 91.1535C80.7932 91.1749 81.4077 90.9926 82.0067 90.7484C82.6058 90.5042 87.0919 89.1711 83.6384 92.1932C83.255 92.5288 83.8251 89.7869 86.2703 89.1435C86.5011 89.0828 86.5453 88.9899 86.4547 88.756C86.3892 88.5868 86.3259 88.2704 86.3141 88.0529C86.2933 87.6699 86.3452 87.6232 87.1477 87.3037C87.3045 87.2413 87.5376 86.9938 87.6657 86.7538C87.8206 86.4637 88.0139 86.3173 88.242 86.3173C88.6734 86.3173 89.8315 85.1839 89.6987 84.8917C89.6357 84.753 89.8295 84.5655 90.2893 84.3205C90.6658 84.1199 91.0497 83.7861 91.1423 83.5789C91.235 83.3716 91.4626 83.1451 91.6481 83.0755C91.8336 83.0059 92.1482 82.7324 92.3472 82.4677C92.5462 82.2031 92.9145 81.7447 93.1656 81.4492C93.4167 81.1537 93.7109 80.7825 93.8194 80.6243C93.9279 80.4661 94.1621 80.2368 94.3398 80.1146C94.5175 79.9924 94.7941 79.6367 94.9546 79.3241C95.1151 79.0114 95.3001 78.7556 95.3658 78.7556C95.4316 78.7556 95.7401 78.4308 96.0515 78.0338C96.3629 77.6368 96.9149 76.9501 97.2781 76.5076C97.6413 76.0652 97.9385 75.5798 97.9385 75.429C97.9385 75.2781 98.0908 74.9741 98.277 74.7534C98.4632 74.5327 98.5877 74.2816 98.5537 74.1955C98.5197 74.1094 98.6623 73.8951 98.8707 73.7192C99.1433 73.4891 99.2218 73.3066 99.1508 73.0679C99.0966 72.8855 99.1314 72.6949 99.2283 72.6444C99.3252 72.5939 99.4044 72.3773 99.4044 72.163C99.4044 71.9434 99.5111 71.7388 99.6487 71.6942C99.7831 71.6507 99.893 71.4708 99.893 71.2945C99.893 71.1182 99.9652 70.913 100.053 70.8385C100.142 70.7641 100.289 70.365 100.38 69.9518C100.548 69.1917 101.363 66.649 101.652 64.8696C101.695 64.605 101.722 62.8726 101.713 61.02C101.701 58.4551 101.634 57.4221 101.435 56.6893C101.291 56.16 101.134 55.4945 101.086 55.2104C101.038 54.9264 100.933 54.6598 100.853 54.618C100.773 54.5762 100.707 54.4048 100.707 54.237C100.707 54.0693 100.588 53.7876 100.441 53.6111C98.4213 41.8704 98.3679 53.982 96.4052 46.9966C96.35 46.8075 96.1957 46.133 96.0623 45.4977C95.9289 44.8624 95.7542 44.2746 95.674 44.1916C95.5938 44.1086 95.5225 43.6536 95.5155 43.1806C95.5085 42.6914 95.3933 42.142 95.2489 41.9064C95.1094 41.6786 95.0161 41.3232 95.0416 41.1166C95.081 40.7979 95.0269 40.741 94.684 40.741C94.3766 40.741 94.1878 40.882 93.8945 41.3309C93.6824 41.6554 93.3145 42.0255 93.0769 42.1534C92.8392 42.2814 92.5374 42.5109 92.4062 42.6634C92.275 42.8159 91.8677 43.2192 91.5011 43.5594C91.1346 43.8997 90.5213 44.6306 90.1383 45.1835C89.7553 45.7365 89.3309 46.2249 89.1953 46.2688C89.0596 46.3128 88.6565 46.8652 88.2995 47.4964C87.9424 48.1276 87.5795 48.681 87.493 48.7262C87.4064 48.7713 87.3563 48.9113 87.3816 49.0372C87.4068 49.1631 87.176 49.6371 86.8685 50.0905C86.561 50.5439 86.2904 51.1291 86.2673 51.3909C86.2257 51.86 85.757 52.7962 85.5188 52.8855C85.4517 52.9107 85.3967 53.098 85.3967 53.3018C85.3967 53.5055 85.2879 53.8033 85.1549 53.9635C85.016 54.131 84.9185 54.5386 84.9256 54.9221C84.9372 55.5456 84.602 56.4648 84.2179 56.8628C84.0893 56.9961 83.9971 56.999 83.8208 56.8755C83.496 56.648 83.2411 56.9054 83.3072 57.3943C83.3461 57.6815 83.4384 57.7781 83.6457 57.7488C83.9668 57.7033 83.9944 57.7734 83.7871 58.1075C83.7035 58.2424 83.7074 58.6836 83.7961 59.164C83.8802 59.6177 83.9752 60.3601 84.0071 60.8138C84.0937 62.0426 84.2355 63.061 84.4379 63.9072C84.6954 64.9838 84.6771 75.9626 84.4151 77.587C84.3054 78.2676 84.2012 79.0719 84.1836 79.3743C84.1661 79.6768 84.0944 80.2027 84.0243 80.5429C83.9199 81.0504 83.9353 81.1306 84.1098 80.9893C84.2269 80.8945 84.4093 80.5542 84.5153 80.2331C84.6212 79.912 84.9789 79.0306 85.3101 78.2744C85.9198 76.8824 86.1329 76.2454 86.3222 75.2498C86.3797 74.9473 86.598 74.4404 86.8074 74.1234C87.0168 73.8064 87.1881 73.3971 87.1881 73.2139C87.1881 73.0306 87.4377 72.4548 87.7427 71.9342C88.0477 71.4137 88.4214 70.6165 88.5731 70.1628C88.7248 69.7091 88.9497 69.1523 89.0727 68.9254C89.1958 68.6986 89.3427 68.1727 89.3992 67.7568C89.4556 67.3409 89.6712 66.4438 89.8782 65.7633C90.0853 65.0827 90.3309 63.9894 90.4242 63.3335C90.5174 62.6777 90.7122 61.9044 90.8571 61.615C91.002 61.3256 91.1917 60.6557 91.2786 60.1264C91.3655 59.5971 91.4784 58.9165 91.5295 58.6141C91.5807 58.3116 91.6873 57.9962 91.7664 57.9132C91.8456 57.8301 91.8947 57.3661 91.8754 56.882C91.8562 56.3979 91.8943 55.0145 91.9603 53.8078C92.1088 51.0893 92.2966 50.643 93.2961 50.6342C94.3325 50.6251 94.5841 50.7493 94.7335 51.3431C94.9804 52.325 95.0427 53.0459 94.8807 53.0459C94.7935 53.0459 94.673 53.3058 94.6128 53.6234C94.5527 53.941 94.4255 54.2801 94.3303 54.3769C94.2261 54.483 94.1391 55.5518 94.1116 57.0647C94.0805 58.7713 93.985 59.8409 93.8137 60.4014C93.6749 60.8551 93.5631 61.3809 93.5651 61.57C93.5671 61.759 93.4505 62.254 93.306 62.6699C92.9229 63.7718 92.5713 65.0875 92.3873 66.107C92.2987 66.5985 92.1815 67.0935 92.1269 67.2069C92.0724 67.3203 92.0433 67.5794 92.0624 67.7826C92.0814 67.9858 92.0101 68.289 91.904 68.4563C91.7979 68.6237 91.6793 69.1689 91.6405 69.668C91.5872 70.354 91.418 70.8435 90.9468 71.6752C90.2917 72.8315 89.695 74.6269 89.8514 74.971C89.902 75.0825 89.8515 75.2218 89.7391 75.2805C89.42 75.4471 88.4918 77.0878 88.4859 77.4958C88.4829 77.6972 88.3289 78.2023 88.1436 78.6181C87.2314 80.6657 86.869 81.6057 86.8658 81.9328C86.8638 82.1301 86.6426 82.656 86.3739 83.1014C85.9404 83.8201 85.8969 84.0004 85.9877 84.7019C86.0656 85.3033 85.3401 90.2116 85.179 90.2116C84.7169 90.2116 85.0707 85.9426 85.0707 86.5449C85.1272 88.5712 85.3248 90.79 84.2198 92.8297C82.317 94.2832 86.9029 90.1669 81.5677 90.1669C80.5721 90.1669 80.5152 90.1479 80.0332 89.6544C79.6053 89.2161 79.5328 89.0293 79.5328 88.3656C79.5328 87.8015 79.6406 87.4249 79.9272 86.9877C80.1442 86.6568 80.399 86.0267 80.4935 85.5876C80.588 85.1484 80.7121 84.7252 80.7692 84.6472C80.8263 84.5692 80.9438 83.7221 81.0304 82.7648C81.1169 81.8074 81.2477 80.4982 81.321 79.8555C81.3944 79.2128 81.5016 78.2538 81.5595 77.7245C81.6174 77.1952 81.7435 76.2981 81.8398 75.7309C82.0295 74.6137 82.0614 68.4853 81.8903 66.0382C81.8321 65.2065 81.6768 64.2504 81.5451 63.9136C81.4116 63.5722 81.3537 63.1464 81.4141 62.9512C81.6543 62.1756 81.5011 59.4495 81.1936 59.0284C81.1392 58.9538 81.0761 58.6226 81.0533 58.2924C81.0306 57.9623 80.8991 57.3642 80.761 56.9633C80.6229 56.5625 80.51 56.0095 80.51 55.7346C80.51 55.4597 80.3634 54.9922 80.1842 54.6957C80.005 54.3993 79.8585 53.9937 79.8585 53.7943C79.8585 53.014 79.0603 51.0776 78.6762 50.9259C78.5156 50.8625 78.5159 50.8296 78.6771 50.7659C78.9182 50.671 78.948 49.8342 78.723 49.4793C78.6362 49.3425 78.5346 48.954 78.4972 48.616C78.429 47.9995 77.8615 46.4782 77.2522 45.2785C77.0729 44.9254 76.9262 44.4831 76.9262 44.2957C76.3576 43.0856 75.6062 41.1196 74.8902 39.9293C74.2999 38.9921 73.9956 36.9023 73.5632 36.8498C73.2563 36.8125 73.2239 36.7416 73.2985 36.2721C73.3665 35.8438 73.282 35.5851 72.8746 34.9758C72.5946 34.5572 72.3656 34.059 72.3656 33.8688C72.3656 33.6786 72.3024 33.523 72.2253 33.523C72.0586 33.523 71.3883 32.094 71.3883 31.7384C71.3883 31.6022 71.0951 31.1912 70.7368 30.8252C70.3785 30.4592 70.0853 30.027 70.0853 29.8649C70.0853 29.5462 69.5093 28.4249 68.8922 27.5424C68.6807 27.24 68.4572 26.765 68.3955 26.4869C68.3338 26.2089 68.2254 25.9614 68.1546 25.937C68.0837 25.9126 67.5428 25.1109 66.9525 24.1554C65.8884 22.4333 64.8251 20.9185 64.1141 20.1118C63.911 19.8815 63.4873 19.2684 63.1724 18.7494C62.8576 18.2304 62.3052 17.5107 61.9449 17.15C61.5846 16.7893 61.2898 16.4282 61.2898 16.3475C61.2898 16.2667 61.0461 15.9685 60.7483 15.6847C60.4505 15.4009 59.9573 14.7439 59.6522 14.2246C59.3472 13.7053 58.9812 13.2413 58.8389 13.1935C58.6966 13.1457 57.9745 12.5496 57.2341 11.8691C55.2712 10.0647 54.3901 9.32817 54.1931 9.32682C54.0973 9.32604 53.7308 9.11999 53.3787 8.86866C52.7503 8.42007 52.2031 8.16172 51.9686 8.20289C51.8538 8.22306 50.8074 7.43726 49.2528 6.16347C48.8375 5.8232 48.1884 5.42105 47.8104 5.26982C47.4323 5.11858 47.1222 4.9474 47.1211 4.88942C47.1202 4.83142 46.7763 4.50662 46.3572 4.16762C45.4302 3.41791 44.839 3.33662 44.839 3.95887C44.839 4.22041 44.7267 4.41722 44.5256 4.50805C44.2036 4.65351 43.6988 5.37915 43.6988 5.69656C43.6988 5.79461 43.6035 5.9243 43.487 5.98477C43.263 6.10108 42.8844 7.04626 42.8844 7.4893C42.8844 7.63384 42.7561 7.90508 42.5994 8.09204C42.1468 8.63175 41.5498 10.5572 41.1725 12.694C41.0523 13.3746 40.802 14.1765 40.6162 14.476C40.4304 14.7756 40.2783 15.2165 40.2783 15.4559C40.2783 15.6954 40.1637 15.9716 40.0235 16.0697C39.8657 16.1803 39.8037 16.3657 39.8605 16.5568C39.911 16.7266 39.8494 17.0405 39.7237 17.2545C39.4687 17.6883 39.1561 18.6308 39.0246 19.3621C38.9769 19.6267 38.8466 19.936 38.735 20.0495C38.4795 20.309 38.113 22.2406 38.2362 22.6782C38.3179 22.9683 38.1894 23.9748 37.6765 27.0612C37.5236 27.9818 37.0217 33.0057 37.0277 33.5571C37.0295 33.7274 36.9915 34.8257 36.9433 35.9977C36.7299 41.1857 36.7365 43.3083 36.9656 43.115C37.2756 42.8533 37.8397 41.4366 37.9516 40.6386C38.0264 40.1059 38.1448 39.9014 38.5109 39.673C38.8163 39.4824 38.9753 39.2597 38.9753 39.0223C38.9753 38.4284 40.3267 37.5101 41.2008 37.5101C41.4891 37.5101 41.7746 37.4423 41.8353 37.3595C41.8966 37.2758 42.2085 37.2349 42.5371 37.2674C42.9255 37.3058 43.2965 37.2398 43.6173 37.0748C43.8861 36.9367 44.3046 36.8235 44.5473 36.8232C44.8179 36.8229 45.1509 36.6764 45.4082 36.4446L45.8277 36.0665L46.1342 36.4055C46.3801 36.6774 46.5724 36.7401 47.1058 36.7221C47.5494 36.7072 47.7708 36.758 47.7708 36.8747C47.7708 37.1318 48.5372 37.6956 48.9189 37.7193C49.2425 37.7394 51.3298 39.5092 51.3478 39.7786C51.3528 39.8542 51.6306 40.1598 51.9651 40.4578C52.5849 41.0099 52.9821 41.5418 52.9839 41.8222C52.9844 41.9081 53.1045 42.164 53.2506 42.3908C53.6063 42.943 53.6837 45.098 53.3711 45.7416C53.2472 45.9966 53.1458 46.3163 53.1458 46.452C53.1458 46.8507 52.5068 47.9981 52.0687 48.3859C51.8462 48.5829 51.6764 48.7994 51.6913 48.8671C51.7608 49.1817 51.6414 49.379 51.155 49.754C50.8662 49.9766 50.4794 50.1587 50.2954 50.1587C50.1113 50.1587 49.8161 50.2424 49.6394 50.3447C49.4627 50.447 49.0946 50.5295 48.8213 50.528C48.548 50.5262 47.8211 50.7261 47.2059 50.9714C46.2331 51.3594 45.9584 51.4098 45.0967 51.3587C43.5515 51.2669 41.2556 50.9456 41.2556 50.8211C41.2556 50.7592 41.109 50.7087 40.9298 50.7087C40.7507 50.7087 40.6041 50.6604 40.6041 50.6013C40.6041 50.5422 40.3947 50.4273 40.1388 50.3457C39.8818 50.2639 39.556 49.9986 39.4109 49.7531C39.1305 49.2786 37.1831 47.2964 36.9821 47.2808C36.916 47.2754 36.9006 47.7201 36.9477 48.2683C36.9949 48.8165 37.0589 49.7291 37.0899 50.2962C37.1769 51.8852 37.644 55.3025 37.8308 55.7173C37.9228 55.9214 37.998 56.4278 37.998 56.8425C37.998 57.2573 38.0995 57.7636 38.2236 57.9678C38.3588 58.1902 38.4512 58.7802 38.4542 59.439C39.9808 63.238 38.3717 60.967 39.8432 64.8889C39.9799 65.143 40.142 65.6292 40.2035 65.9695C40.2649 66.3098 40.3723 66.6501 40.442 66.7257C40.5117 66.8013 40.6568 67.2344 40.7643 67.6881C40.8718 68.1418 41.0627 68.6497 41.1885 68.8167C41.3143 68.9837 41.5066 69.5715 41.6157 70.1228C41.7332 70.716 41.9994 71.3942 42.2679 71.7843C42.5174 72.1468 42.7216 72.5623 42.7216 72.7077C42.7216 72.9951 43.2134 73.9436 43.3625 73.9437C43.4131 73.9438 43.4655 74.1045 43.479 74.3008C43.4925 74.4972 43.7335 74.9282 44.0147 75.2586C44.4795 75.805 44.516 75.922 44.4175 76.549C44.2984 77.3069 43.976 77.6698 43.6593 77.4025C43.3756 77.1629 42.7216 77.2037 42.7216 77.461C42.7216 77.5807 42.8132 77.6506 42.9252 77.6163C43.0371 77.582 43.3788 77.6397 43.6843 77.7446C43.9899 77.8494 44.3619 77.9025 44.5109 77.8626C44.6869 77.8154 44.8572 77.9087 44.9967 78.1288C45.1148 78.3151 45.4025 78.5337 45.636 78.6146C45.8695 78.6955 46.5737 79.0701 47.2007 79.4471C47.8278 79.8241 48.6124 80.1955 48.9443 80.2726C49.2762 80.3497 49.7575 80.5617 50.0139 80.7439C50.2704 80.926 50.6952 81.1182 50.9579 81.171C51.4957 81.2791 56.2525 83.2319 56.3937 83.4025C56.5685 83.6137 58.2141 84.3988 58.3421 84.3321C58.413 84.2951 58.6735 84.4432 58.921 84.6613C59.3592 85.0474 60.0143 85.293 60.4435 85.2321C60.5603 85.2155 60.911 85.3911 61.2228 85.6222C61.5347 85.8533 61.8954 86.0424 62.0245 86.0424C62.5119 86.0424 63.1336 86.4413 65.9913 88.5878C66.7406 89.1507 67.7301 89.8235 68.1902 90.083C68.6502 90.3425 69.2726 90.7712 69.5733 91.0356L70.12 91.5163L74.6767 97.6319L69.6764 93.2603L69.0364 93.3045C68.416 93.3474 68.3485 93.3063 66.8311 91.9641C65.9701 91.2025 65.2059 90.5794 65.1328 90.5794C64.9516 90.5794 63.4671 89.5314 62.7233 88.8784C62.3459 88.5471 62.0241 88.3761 61.8713 88.4257C61.5728 88.5223 61.086 88.3186 60.2008 87.7266C59.8334 87.4808 59.4296 87.2797 59.3037 87.2797C59.1777 87.2797 59.005 87.2225 58.9199 87.1525C58.8349 87.0824 58.1422 86.764 57.3807 86.4447C56.6193 86.1255 55.813 85.7269 55.589 85.5589C55.3651 85.391 54.8154 85.142 54.3674 85.0057C53.9195 84.8694 53.2599 84.5619 52.9015 84.3225C52.0744 83.7699 49.8554 82.8073 48.9517 82.609C48.571 82.5255 48.2595 82.3977 48.2595 82.325C48.2595 82.2523 48.195 82.1928 48.1163 82.1928C47.9826 82.1928 46.3964 81.428 45.7885 81.0705C45.2883 80.7763 43.6245 79.984 43.0082 79.7466C42.6732 79.6175 42.3984 79.4333 42.3974 79.3374C42.3965 79.2213 42.263 79.191 41.9991 79.2469C41.7112 79.3079 41.3969 79.2117 40.8538 78.8963C40.096 78.4562 37.9762 77.6558 37.5684 77.6558C37.4464 77.6558 37.3465 77.5958 37.3465 77.5225C37.3465 77.4492 36.9617 77.1829 36.4914 76.9307C35.2356 76.2573 31.8702 74.7686 31.6036 74.7686C31.2397 74.7686 29.0001 73.8146 28.551 73.4683C28.3048 73.2784 27.841 73.1215 27.3777 73.0713C26.9563 73.0256 26.2233 72.8208 25.7489 72.6162C25.2744 72.4115 24.7397 72.1827 24.5605 72.1076C23.3398 71.5961 21.3613 70.6832 20.8142 70.3791C20.4559 70.1799 19.9795 69.9522 19.7555 69.8731C19.5316 69.794 19.0185 69.6019 18.6154 69.4462C18.2123 69.2906 17.6259 69.0881 17.3123 68.9964C16.9988 68.9046 16.1925 68.5963 15.5207 68.3111C14.8488 68.026 13.9714 67.7508 13.571 67.6996C13.1705 67.6483 12.8041 67.5583 12.7566 67.4994C12.6172 67.3266 9.29514 66.0816 8.76117 66.0021C8.49241 65.9621 8.10462 65.8368 7.8994 65.7237C7.5623 65.538 6.82957 65.364 5.77082 65.2184C5.55946 65.1893 5.19299 65.1041 4.95642 65.029C4.71985 64.9539 4.24496 64.8594 3.9011 64.819C3.39241 64.7592 3.29328 64.7837 3.3691 64.9505C3.42037 65.0633 3.37871 65.2685 3.27657 65.4065C3.08817 65.6612 3.27611 66.073 4.2229 67.4819C4.40078 67.7465 4.713 68.3437 4.91672 68.809C5.12044 69.2742 5.51906 69.9548 5.80254 70.3213C6.43912 71.1444 6.72517 71.6739 6.72517 72.0293C6.72517 72.4679 7.69723 73.9683 8.0288 74.0415C8.41411 74.1265 9.23579 75.1152 9.08842 75.3165C9.02739 75.3999 9.04872 75.5427 9.13588 75.6339C9.22302 75.7251 9.52537 76.2711 9.80777 76.8473C10.0973 77.438 10.5302 78.052 10.8004 78.2552C11.064 78.4534 11.511 79.0029 11.7939 79.4762C12.0768 79.9495 12.5546 80.5799 12.8558 80.877C13.1569 81.1742 13.4032 81.4945 13.4032 81.5889C13.4032 81.6832 13.5686 81.8731 13.7707 82.011C13.9728 82.1488 14.3822 82.5246 14.6805 82.8462C14.9789 83.1678 15.3925 83.4668 15.5998 83.5107C16.0288 83.6016 16.7839 84.3431 17.2752 85.156C17.4585 85.4594 17.7946 85.7916 18.0219 85.8943C18.2492 85.997 19.656 87.1296 21.1482 88.4111C22.6404 89.6927 24.2751 90.9715 24.781 91.2528C25.2868 91.5342 26.1501 92.1319 26.6994 92.5811C27.7485 93.4391 29.4275 94.5972 30.2445 95.0264C30.5102 95.166 30.8648 95.4275 31.0327 95.6076C31.2005 95.7877 31.6716 96.0597 32.0796 96.2121C32.4875 96.3644 33.0724 96.6751 33.3794 96.9026C33.6863 97.1301 34.0183 97.3162 34.1171 97.3162C34.216 97.3162 34.6122 97.5615 34.9977 97.8614C35.3831 98.1613 35.9036 98.4502 36.1544 98.5033C36.4052 98.5564 36.706 98.6806 36.8229 98.7793C36.9398 98.878 37.3436 99.0284 37.7203 99.1136C38.1017 99.1999 38.5857 99.4422 38.8124 99.6605C39.2223 100.055 39.8765 100.415 40.9299 100.827C42.5563 101.462 42.9328 101.578 43.3743 101.578C43.7517 101.578 43.8775 101.652 43.9577 101.922C44.0361 102.186 44.1655 102.266 44.5135 102.266C44.7629 102.266 45.0077 102.355 45.0574 102.464C45.1559 102.681 46.7514 103.366 47.1577 103.366C47.2959 103.366 47.5819 103.484 47.7932 103.628C48.1429 103.867 48.2143 103.872 48.5896 103.685C48.969 103.496 49.0775 103.508 49.9483 103.833C50.5447 104.056 50.9265 104.289 50.9806 104.463C51.0278 104.616 51.1317 104.74 51.2115 104.74C51.2912 104.74 52.2913 104.333 53.4328 103.834ZM45.7426 78.3527C45.691 78.2823 45.7156 78.1898 45.7973 78.1472C45.879 78.1047 45.9878 78.1623 46.0392 78.2752C46.1404 78.498 45.8957 78.5619 45.7426 78.3527ZM78.2558 50.1587C78.2558 49.9697 78.2928 49.8924 78.338 49.9869C78.3832 50.0814 78.3832 50.2361 78.338 50.3306C78.2927 50.4251 78.2558 50.3478 78.2558 50.1587ZM64.4442 47.8902C64.3726 47.7325 64.0659 47.684 63.1412 47.684C62.2459 47.684 61.9088 47.6332 61.843 47.4884C61.7941 47.3809 61.4525 47.191 61.0838 47.0665C60.7152 46.942 60.2148 46.7207 59.9718 46.5747C59.7289 46.4286 59.337 46.3091 59.1009 46.3091C58.8184 46.3091 58.4466 46.1209 58.0125 45.7582C57.4106 45.2551 57.349 45.1369 57.3041 44.3993C57.2771 43.955 57.165 43.1666 57.0551 42.6472C56.9095 41.9597 56.902 41.5598 57.0275 41.1759C57.1285 40.8674 57.143 40.5223 57.0625 40.3436C56.9826 40.1662 56.9969 39.7823 57.0966 39.4273C57.191 39.0912 57.2688 38.4782 57.2695 38.065C57.2705 37.6518 57.3507 37.2298 57.4483 37.1271C57.9563 36.5928 58.2243 36.4088 58.3779 36.489C58.6128 36.6115 59.4775 35.8881 59.7501 35.3409C60.0712 34.6966 61.5935 33.5348 62.1252 33.5283C62.3603 33.5256 62.8734 33.4265 63.2654 33.3085C64.1855 33.0314 65.1937 33.1473 65.6823 33.5863C66.2224 34.0717 66.8816 34.2697 67.3112 34.0756C67.6288 33.9322 67.8117 34.046 69.3212 35.326C70.2346 36.1005 70.9918 36.8005 71.0038 36.8816C71.0158 36.9626 71.0343 37.199 71.0446 37.407C71.0597 37.7108 71.1407 37.7851 71.457 37.7851C71.6735 37.7851 71.8833 37.7077 71.9233 37.6132C72.0922 37.2141 72.1654 37.63 72.0322 38.2317C71.9527 38.5907 71.9213 38.9618 71.9623 39.0565C72.0034 39.1512 72.1079 39.6606 72.1947 40.1886C72.3184 40.9408 72.3038 41.2309 72.1276 41.5291C71.9347 41.8554 71.9367 41.9672 72.1414 42.3136C72.5728 43.0435 72.11 43.9663 71.1411 44.308C70.7552 44.4441 70.4968 44.6975 70.1714 45.2588C69.6473 46.163 69.035 46.7197 68.5571 46.7265C68.3678 46.7292 68.0296 46.8198 67.8057 46.9278C67.5817 47.0359 67.1969 47.1265 66.9506 47.1292C66.7042 47.1319 66.5026 47.1959 66.5026 47.2715C66.5026 47.3472 66.4029 47.409 66.2811 47.409C66.1592 47.409 65.7894 47.5637 65.4594 47.7527C64.7657 48.1501 64.5741 48.176 64.4442 47.8902ZM64.0209 45.3214C63.9973 45.2867 64.1195 45.139 64.2924 44.9932C64.6214 44.7157 65.6314 44.649 66.5461 44.8444C66.9298 44.9263 67.02 44.8886 67.1544 44.5902C67.2412 44.3975 67.4233 44.2039 67.559 44.1599C67.6947 44.1159 67.8058 44.0275 67.8058 43.9633C67.8058 43.8992 67.989 43.6187 68.213 43.3401C68.4369 43.0616 68.6202 42.7124 68.6202 42.5643C68.6202 42.267 69.0942 41.3372 69.3102 41.2108C69.3856 41.1667 69.3711 40.9616 69.278 40.755C69.0613 40.2738 69.061 39.4923 69.2776 39.1509C69.4112 38.9401 69.3928 38.8849 69.189 38.8849C69.0476 38.8849 68.7342 38.7303 68.4927 38.5412C68.2512 38.3522 67.9612 38.1975 67.8483 38.1975C67.5933 38.1975 67.5839 38.0275 67.8275 37.8218C68.1287 37.5675 67.8689 37.2662 67.0899 36.9667C66.6872 36.8119 66.2866 36.6852 66.1995 36.6852C66.1125 36.6852 66.0169 36.6367 65.987 36.5775C65.9572 36.5183 65.6697 36.3407 65.3481 36.1828C64.8364 35.9314 64.7146 35.9185 64.3709 36.0793C64.1549 36.1803 63.7876 36.2652 63.5547 36.2679C62.8833 36.276 61.7804 37.0242 61.774 37.4766C61.77 37.7352 61.5428 38.0452 61.0504 38.4625C60.5527 38.8845 60.3004 39.2301 60.2286 39.5889C60.1717 39.8736 60.019 40.1808 59.8893 40.2716C59.6849 40.4148 59.6895 40.4701 59.924 40.6889C60.1204 40.8721 60.1703 41.0922 60.1065 41.494C60.0581 41.7982 60.0768 42.0774 60.148 42.1145C60.2192 42.1516 60.3243 42.4146 60.3817 42.6989C60.4391 42.9831 60.5388 43.4835 60.6033 43.8107C60.7107 44.3554 60.7962 44.4406 61.6164 44.8194C62.1091 45.0469 62.5805 45.2885 62.664 45.3561C62.8133 45.4772 64.1041 45.4441 64.0209 45.3214ZM63.2452 43.3224C62.7364 43.2449 62.105 42.7631 62.105 42.4524C62.105 42.3236 61.9879 42.1362 61.8447 42.0359C61.4314 41.7464 61.6771 39.9632 62.2409 39.1599C62.4797 38.8196 62.7269 38.4348 62.7902 38.3047C62.954 37.9682 63.6638 37.8572 64.5334 38.0323C64.9447 38.115 65.5187 38.2218 65.8091 38.2695C66.3801 38.3634 67.3172 39.1873 67.3172 39.5956C67.3172 39.7251 67.3904 39.8693 67.48 39.9161C67.7305 40.0468 67.6737 40.4156 67.3579 40.7098C67.1707 40.8841 67.0449 41.2891 66.9914 41.8893C66.9239 42.6459 66.863 42.7967 66.6372 42.7653C66.4872 42.7444 66.3179 42.7907 66.2611 42.8684C66.2043 42.946 65.9562 43.0095 65.7099 43.0095C65.4635 43.0095 65.1197 43.1003 64.9458 43.2114C64.6363 43.4089 64.0597 43.4466 63.2452 43.3224ZM47.0768 48.8802C47.1873 48.8198 47.6271 48.6827 48.0541 48.5757C48.5719 48.4458 48.8846 48.2764 48.9932 48.0669C49.0828 47.8941 49.321 47.733 49.5226 47.7088C49.7241 47.6847 49.889 47.6073 49.889 47.5369C49.889 47.3283 49.9274 47.2292 50.2265 46.6653C50.4005 46.3372 50.4783 45.9544 50.4261 45.6828C50.3556 45.3161 50.4011 45.2215 50.6849 45.1455C51.0957 45.0354 51.1022 44.942 50.7807 43.7722C50.4427 42.5418 49.8195 41.6478 48.7683 40.8849C48.555 40.7301 48.1885 40.4449 47.9539 40.2511C47.7192 40.0573 47.4173 39.9086 47.2829 39.9208C47.1486 39.933 46.8327 39.9523 46.5811 39.9639C46.3223 39.9758 46.1673 40.0446 46.2242 40.1223C46.3404 40.2809 46.2717 40.2929 45.9127 40.1766C45.7715 40.1309 45.6929 40.043 45.7381 39.9814C45.7832 39.9197 45.6315 39.7441 45.4009 39.591L44.9817 39.3126L44.2463 39.6592C43.8418 39.8499 43.4029 39.9709 43.271 39.9281C43.1362 39.8844 43.0747 39.91 43.1307 39.9864C43.2673 40.173 42.6678 40.1588 42.4442 39.9701C42.3123 39.8588 42.2141 39.8962 42.0789 40.1096C41.9771 40.27 41.6134 40.5508 41.2705 40.7335C40.6919 41.0418 40.6401 41.1232 40.5498 41.8657C40.328 43.6909 40.292 43.8805 40.1526 43.9588C39.7419 44.1893 39.4388 45.9194 39.7779 46.0964C39.8606 46.1395 39.9729 46.3443 40.0274 46.5513C40.1748 47.1116 41.2586 48.0976 41.7264 48.097C42.0786 48.0966 42.8852 48.6541 42.8852 48.8981C42.8852 49.0345 46.8252 49.0178 47.0768 48.8802ZM45.1625 46.578C44.9906 46.2275 44.877 46.1717 44.3371 46.1717C43.8851 46.1717 43.6643 46.0978 43.5426 45.906C43.45 45.7599 43.2324 45.6024 43.0592 45.5559C42.7141 45.4635 42.0708 44.4627 42.0708 44.0183C42.0708 43.2254 43.218 42.2493 43.9642 42.4074C44.2279 42.4632 44.4426 42.3705 44.772 42.0585C45.1988 41.6541 45.2394 41.6439 45.6077 41.8476C45.8206 41.9653 46.1252 42.0267 46.2846 41.984C46.5997 41.8996 47.5642 42.5156 48.0039 43.082C48.2179 43.3577 48.2302 43.5298 48.0796 44.1384C47.9807 44.5383 47.8377 44.9214 47.7618 44.9897C47.686 45.058 47.6983 45.2311 47.7892 45.3745C47.9211 45.5826 47.8604 45.7254 47.4873 46.0841C47.2304 46.331 46.9327 46.5085 46.8258 46.4784C46.7189 46.4483 46.6314 46.4888 46.6314 46.5684C46.6314 46.6479 46.5209 46.6772 46.3859 46.6335C46.2508 46.5897 45.9652 46.6508 45.7511 46.7692C45.3768 46.9762 45.3543 46.9688 45.1625 46.578ZM85.071 125.05C85.071 125.029 85.2176 124.906 85.3968 124.776C85.7069 124.552 85.7225 124.554 85.7225 124.814C85.7225 124.996 85.6134 125.088 85.3968 125.088C85.2176 125.088 85.071 125.071 85.071 125.05Z" fill="black"/>
<path d="M33.8515 118.676C31.9248 117.195 31.8587 116.77 33.3586 115.502C34.6426 114.417 43.6102 110.526 47.7342 109.265C49.247 108.802 52.1727 107.599 54.2357 106.592C57.8518 104.825 63.6615 102.26 70.9756 99.2003C72.8934 98.3981 75.1439 97.2798 75.9767 96.7151C78.0926 95.2807 83.3049 92.8049 83.6173 93.086C83.7598 93.2141 84.407 92.9434 85.0556 92.4843C85.7042 92.0252 88.431 90.7907 91.115 89.7409C93.7991 88.6911 96.3327 87.5716 96.7453 87.2531C97.1579 86.9345 98.5082 86.3379 99.746 85.9273C100.984 85.5166 102.37 85.0034 102.825 84.7867C103.538 84.4479 103.702 84.7633 103.996 87.0386C104.4 90.1724 104.021 91.5484 102.755 91.5484C102.246 91.5484 101.755 91.7225 101.663 91.9352C101.509 92.2934 94.2403 95.5985 93.607 95.5985C93.4515 95.5985 90.662 96.7368 87.4081 98.1281C84.1542 99.5195 79.5789 101.456 77.2409 102.431C74.9029 103.406 72.4273 104.501 71.7396 104.864C68.3277 106.667 53.1059 113.149 52.284 113.149C51.7659 113.149 51.2145 113.448 51.0586 113.813C50.6636 114.739 39.6879 119.486 37.3778 119.729C35.8383 119.891 35.1746 119.693 33.8515 118.676Z" fill="#217844"/>
<path d="M33.9821 118.379C32.7499 117.459 32.5775 117.113 33.0174 116.441C33.6263 115.512 38.9109 112.866 43.7343 111.076C49.9225 108.78 73.6225 98.3266 77.7309 96.0814C79.9999 94.8413 82.3372 93.6922 82.9249 93.5279C83.5126 93.3636 88.2649 91.3392 93.4855 89.0294C104.044 84.3578 103.916 84.3648 103.649 88.4767C103.47 91.2348 103.804 91.018 92.4954 95.717C82.5449 99.8517 53.4512 112.479 51.236 113.624C46.4147 116.117 39.1588 119.091 37.4293 119.283C35.872 119.455 35.1822 119.274 33.9821 118.379Z" fill="#217844"/>
<path d="M63.7387 128.98C63.3261 128.812 60.9894 127.459 58.5461 125.974C56.1028 124.489 52.727 122.514 51.0444 121.585C49.3618 120.657 47.9299 119.745 47.8625 119.56C47.795 119.375 50.7207 117.835 54.3639 116.137C58.0072 114.439 61.5507 112.783 62.2383 112.456C67.1312 110.132 91.9798 99.4895 98.0535 97.117C99.0139 96.7419 99.1942 99.2225 98.7292 106.415C98.4817 110.242 98.2719 113.726 98.2629 114.157C98.252 114.679 96.788 115.623 93.8705 116.988C91.4637 118.115 87.6941 119.934 85.4936 121.03C77.8123 124.858 73.6078 126.716 69.6537 128.028C65.5101 129.402 64.983 129.487 63.7387 128.98Z" fill="#217844"/>
<path d="M56.067 124.227L48.1455 119.524L51.816 117.671C59.8165 113.633 95.6606 98.0505 97.6302 97.7541C98.4292 97.6339 98.4855 98.2517 98.3562 105.724L98.2161 113.824L96.8183 114.889C95.0159 116.263 76.1299 125.324 71.2478 127.157C64.8722 129.551 65.115 129.598 56.067 124.227Z" fill="#217844"/>
</svg>
