<svg width="79" height="132" viewBox="0 0 79 132" fill="none" xmlns="http://www.w3.org/2000/svg">
<path d="M35.0283 130.681C34.2316 130.396 32.6426 129.829 31.4971 129.422C27.053 127.843 23.3522 124.618 20.756 120.064C20.1902 119.071 19.513 117.89 19.251 117.438C18.3178 115.83 16.351 108.264 16.3447 106.257C16.3433 105.793 16.1512 104.759 15.9175 103.96C15.2337 101.62 14.6446 95.546 14.8136 92.5801C14.8983 91.0911 14.885 89.8728 14.7834 89.8728C14.6817 89.8728 14.0876 91.0911 13.463 92.5801C11.7876 96.5743 7.86519 100.984 3.95115 103.275C2.79132 103.953 2.55523 103.991 1.91355 103.603C-0.847173 101.931 0.732078 93.9547 5.48771 85.5503C8.49572 80.2344 10.7103 76.8833 12.7177 74.6103C15.3638 71.614 19.1139 68.4174 19.6896 68.6676C19.9538 68.7825 20.2052 68.6336 20.3174 68.2904C20.4202 67.9775 21.0202 66.9425 21.6507 65.9901C22.2812 65.0378 22.7267 64.1789 22.6407 64.0815C22.5545 63.9844 21.5779 64.3415 20.4699 64.8755C19.3619 65.4095 16.8392 66.3208 14.8639 66.9006C11.6678 67.8386 10.8589 67.9512 7.51775 67.9235C3.23544 67.8895 0.915838 67.3192 0.373816 66.172C-0.461498 64.404 0.147426 61.6691 1.75853 59.955C4.81144 56.7064 14.4408 53.8265 20.0871 54.4733C21.4298 54.6271 22.5914 54.6815 22.6685 54.5942C22.7456 54.5069 22.642 53.8069 22.4383 53.0387C21.8811 50.9369 21.3692 46.9366 21.4097 45.0008C21.4475 43.2822 21.4475 43.2823 19.4009 43.3262C18.2763 43.3527 17.0751 43.2687 16.7315 43.1455C16.388 43.0219 15.0192 42.7925 13.6896 42.6358C10.8648 42.3029 9.99673 42.0434 7.08891 40.6636C1.80876 38.1581 0.478006 34.5549 4.02955 32.3796C6.13902 31.0876 9.0477 30.3565 11.0609 30.6123C15.0062 31.1135 19.6935 32.9202 21.5475 34.6541C22.1614 35.2282 22.2076 35.3974 21.8741 35.8525C21.3408 36.5802 20.4975 36.5163 19.734 35.6899C18.3804 34.2252 14.3419 32.7853 11.0294 32.5865C9.03898 32.4671 7.02587 32.9025 4.97097 33.8964C2.66709 35.0111 3.9579 36.9803 8.31312 38.9954C10.6282 40.0664 11.775 40.3774 14.9578 40.7969C17.0735 41.0758 19.4212 41.304 20.1748 41.3043C21.4674 41.3046 21.5762 41.2351 22.0949 40.074C22.3977 39.3972 22.7408 38.3266 22.858 37.6949C23.4224 34.6524 25.6457 30.9382 28.0807 28.97C28.8978 28.3096 28.9114 28.2563 28.4596 27.4754C28.2022 27.03 27.6314 25.3073 27.1915 23.6471C26.4314 20.7785 26.4083 20.4966 26.7241 17.9669C27.1922 14.2177 28.1865 12.3603 30.8143 10.3265C31.9369 9.45762 32.8554 8.62361 32.8554 8.47314C32.8554 8.32272 32.2688 6.91866 31.5517 5.35303C30.0847 2.1498 29.9154 1.1661 30.8593 1.32805C31.3006 1.40402 31.872 2.29929 32.9151 4.55042C34.4748 7.91605 34.757 8.14683 36.5113 7.49101C37.0824 7.27746 38.4901 7.10277 39.6394 7.10277C41.7292 7.10277 41.7292 7.10278 43.2083 4.43191C44.0218 2.96295 44.7788 1.3469 44.8907 0.840673C45.0577 0.0851458 45.2301 -0.061808 45.8553 0.0202455C46.955 0.164623 46.9858 1.3038 45.9403 3.17047C44.7269 5.33727 43.8642 7.14047 43.8642 7.50946C43.8642 7.68181 44.353 8.05399 44.9505 8.33594C46.2773 8.96202 48.0238 10.8264 48.9363 12.5905C49.7496 14.1628 50.5274 18.2219 50.5274 20.8933C50.5274 23.0393 49.8108 25.7298 48.6327 28.0068C47.9395 29.3467 47.8945 29.6129 48.213 30.4839C48.4091 31.0206 48.6518 31.46 48.7519 31.4604C48.8521 31.4607 49.3045 32.1253 49.7574 32.9371C50.2102 33.749 50.6974 34.4132 50.8401 34.4132C50.983 34.4132 51.4108 33.8595 51.7912 33.1826C52.1716 32.5058 53.3222 31.0433 54.3481 29.9326C55.374 28.8219 57.1059 26.866 58.1968 25.586C60.1105 23.3407 60.1624 23.2367 59.6752 22.6268C59.3974 22.2791 58.4644 21.577 57.6018 21.0664C56.5941 20.47 56.0331 19.9282 56.0326 19.5508C56.0312 18.3667 57.1999 16.4609 59.6494 13.6532L62.1577 10.7781L59.3867 7.41817C56.7068 4.16857 56.1617 3.08452 57.0198 2.71152C57.7628 2.38875 59.3352 3.59404 61.5364 6.17444C63.0067 7.89805 64.0748 8.85655 64.8401 9.1393C65.6601 9.44204 67.041 10.762 69.8628 13.94C72.0032 16.3505 74.5821 19.011 75.5935 19.8522C76.6048 20.6934 77.8299 22.0087 78.3158 22.7752C79.0812 23.9824 79.1418 24.2226 78.7693 24.5728C78.5327 24.795 78.3395 25.1514 78.3395 25.3648C78.3395 25.578 77.8887 26.3102 77.3377 26.9916C76.7867 27.673 76.2487 28.551 76.142 28.9427C75.8536 30.0017 72.9838 34.2273 72.115 34.8722C71.0971 35.6276 70.5578 35.3644 68.7933 33.251C67.1231 31.2506 67.6057 31.0849 63.4633 35.0812C62.0175 36.4761 59.8071 38.3048 56.9888 40.4379C55.842 41.3058 54.7764 42.1898 54.6207 42.4023C54.4343 42.6567 54.4718 43.4421 54.7299 44.7C55.1895 46.9394 54.9064 51.2788 54.1713 53.2724C53.9199 53.9538 53.7143 54.635 53.7143 54.7861C53.7143 54.9373 55.0506 54.3268 56.6839 53.4295C60.6898 51.2286 62.6747 50.8032 68.249 50.9507C71.7988 51.0445 72.9332 51.1888 73.7225 51.6457C75.7665 52.8292 76.1917 53.3467 76.5453 55.0819C76.9943 57.285 76.5264 58.6036 74.8195 59.9267C72.4412 61.7723 71.1832 62.2964 67.8498 62.8306C64.6777 63.3389 62.5824 63.3202 57.2154 62.7357C55.3568 62.5335 55.3568 62.5335 55.8101 63.2664C56.0596 63.6696 58.721 66.85 61.7246 70.3338C67.5643 77.1071 69.8653 80.1422 71.0109 82.5828C71.4054 83.4233 71.9739 84.5018 72.2741 84.9794C73.0782 86.2585 74.75 89.9044 75.6083 92.2505C76.7253 95.3041 76.4811 98.2735 75.0146 99.4662C73.7496 100.495 70.4019 98.6431 67.3772 95.2409C66.0484 93.7463 64.7448 92.4441 64.4801 92.3471C64.2156 92.25 63.6868 91.6503 63.3053 91.0142C62.9238 90.3782 62.5747 89.8997 62.5294 89.951C62.3938 90.1048 61.797 98.1449 61.8237 99.4602C61.9031 103.36 59.8182 111.495 57.1935 117.528C53.9374 125.014 50.8843 128.454 45.8922 130.265C43.3195 131.198 37.1324 131.435 35.0283 130.681ZM42.8471 128.602C42.9385 128.434 43.1876 128.372 43.4004 128.465C44.0322 128.739 47.3366 127.322 49.0267 126.051C50.5613 124.897 54.2939 120.325 54.2939 119.599C54.2939 119.398 55.0829 117.476 56.0473 115.326C57.0117 113.176 57.9784 110.594 58.1956 109.587C58.4129 108.581 58.8005 106.989 59.0572 106.048C59.9422 102.808 60.5775 90.2048 60.1456 84.4582C59.9381 81.6974 59.653 80.1923 58.9332 78.059C58.4156 76.5248 57.5507 73.8267 57.0111 72.0632C56.0163 68.8113 54.6101 65.6383 53.8449 64.9191C53.614 64.7017 53.4247 64.4018 53.4247 64.2525C53.4247 63.58 51.5394 60.9108 50.8541 60.613C50.4356 60.4312 49.5717 60.0169 48.9343 59.6924C48.2969 59.3678 46.4717 58.5509 44.8784 57.8767C42.096 56.6994 41.878 56.6586 39.3739 56.8464C37.1145 57.0157 32.4744 58.1005 30.6826 58.878C29.9769 59.1842 27.4355 61.2034 26.593 62.1271C25.7033 63.1026 23.2626 66.8226 22.0399 69.0668C20.668 71.5846 19.1605 75.6625 18.5336 78.5513C18.2592 79.8147 17.8667 81.4391 17.661 82.1611C17.2963 83.4404 16.7883 92.8251 16.8882 96.4361C16.9184 97.4288 17.0632 98.9794 17.2166 99.8818C19.2064 111.609 20.1651 115.538 21.5739 117.741C22.0426 118.474 22.4261 119.153 22.4261 119.25C22.4261 119.599 24.8246 122.855 25.4295 123.328C25.7693 123.594 26.196 123.975 26.3775 124.175C27.1651 125.043 31.8203 127.42 34.048 128.092C36.611 128.864 42.517 129.207 42.8471 128.602ZM4.40165 100.948C8.86897 97.2524 10.4579 95.2774 12.3886 91.0208C13.1253 89.3967 14.0343 87.4772 14.4087 86.7553C14.7832 86.0333 15.1741 84.6305 15.2776 83.6377C15.4874 81.6257 17.5771 74.0468 18.236 72.9076C19.9026 70.0265 15.927 73.3409 12.3508 77.814C10.5988 80.0054 8.91401 82.5929 7.81084 84.7863C7.35696 85.6888 6.41029 87.408 5.70714 88.6069C3.42238 92.5025 1.48863 99.9014 2.42217 101.176C2.92935 101.868 3.34852 101.82 4.40165 100.948ZM74.5671 96.4629C74.9708 94.7648 74.3339 92.8297 71.6152 87.4902C68.6742 81.7145 66.7355 78.8603 61.9774 73.3006C57.2175 67.7388 57.3065 67.6949 59.6538 74.4492C60.2497 76.1639 60.9892 78.3051 61.2971 79.2075C61.6278 80.1764 61.929 82.1212 62.0328 83.9567C62.2335 87.5024 61.507 86.3558 67.7577 92.9904C70.7225 96.1373 72.7045 97.7022 73.7656 97.7339C74.1016 97.7453 74.3599 97.3346 74.5671 96.4629ZM14.635 65.2505C16.3287 64.8411 18.25 64.0839 19.7239 63.2447C21.67 62.1366 22.272 61.9348 23.1038 62.1116C24.0522 62.313 24.1741 62.2348 25.0416 60.8665C25.5507 60.0635 26.2569 59.3241 26.611 59.2234C26.9652 59.1225 27.7503 58.5944 28.3559 58.0492C28.9614 57.5041 29.9934 56.9063 30.6492 56.7207C32.3622 56.236 33.7246 55.4886 33.7246 55.0336C33.7246 54.8174 34.3596 53.5969 35.1357 52.321C36.3282 50.3604 37.966 47.1907 44.334 34.5194C44.7128 33.7655 45.3568 32.8512 45.765 32.4875C46.4953 31.8368 46.499 31.8114 45.9978 30.9047C45.7177 30.3979 45.4767 29.9532 45.4625 29.9165C45.4474 29.8787 44.0074 30.2794 42.2605 30.8042C39.5165 31.6288 38.966 31.9116 38.2152 32.8826C36.5264 35.0666 34.0259 39.316 32.4563 42.6691C27.4284 53.4101 27.1842 53.8775 26.5405 53.9887C25.6162 54.1486 25.7134 53.026 26.8149 50.8215C27.3107 49.8288 28.7528 46.8794 30.0194 44.2672C31.286 41.655 32.6934 38.8951 33.1469 38.134C34.5502 35.7785 35.0405 34.9584 35.9825 33.39C36.8929 31.8744 36.8929 31.8744 35.5686 31.6688C34.8402 31.5558 34.1468 31.5316 34.0277 31.6147C33.7881 31.7822 29.9416 38.5028 28.7998 40.7486C27.1846 43.9254 25.5254 46.9061 25.2745 47.0818C24.9922 47.2794 24.1645 46.644 24.1645 46.2296C24.1645 46.0947 24.9793 44.5752 25.9751 42.8531C26.971 41.1309 28.1117 39.0991 28.5101 38.3378C28.9085 37.5765 29.9171 35.7545 30.7516 34.2888C31.5861 32.8232 32.2705 31.3913 32.2726 31.1069C32.2746 30.8223 31.9502 30.243 31.552 29.8191C30.9644 29.1937 30.8277 29.1499 30.8277 29.5863C30.8277 29.8818 30.4642 30.6094 30.0197 31.2022C29.1683 32.338 28.8645 32.8164 27.1467 35.7258C26.5607 36.7185 25.51 38.2114 24.8118 39.0433C23.4568 40.6578 23.0244 42.0066 23.0125 44.6556C23.005 46.3054 23.811 50.6067 24.7065 53.6978C25.6315 56.8905 25.6754 57.3179 25.0993 57.5251C24.8162 57.6267 23.9029 57.4279 23.0698 57.083C19.4556 55.5866 13.8033 55.9892 8.20606 58.1417C5.456 59.1994 2.89242 60.8328 2.22673 61.9518C1.5271 63.1277 1.34531 65.0664 1.89829 65.4536C2.38521 65.7941 8.09342 66.2039 10.1446 66.0451C11.1178 65.9695 13.1384 65.6123 14.635 65.2505ZM29.239 55.7528C29.0258 55.3626 29.6754 53.3768 30.2614 52.6264C30.5433 52.2654 31.0688 51.3055 31.4292 50.4933C32.5647 47.9348 34.3971 44.497 35.7506 42.3859C36.9503 40.5147 37.8704 38.9217 40.7955 33.6514C41.8428 31.7646 42.4909 31.406 42.6343 32.6342C42.7046 33.2358 41.6405 35.254 38.0402 41.3468C35.2424 46.0816 34.3654 47.7494 32.847 51.2225C32.036 53.0776 31.2724 54.8093 31.1502 55.0707C30.8921 55.6231 29.4491 56.1381 29.239 55.7528ZM55.543 61.0167C56.1951 60.8451 58.3303 60.8557 60.7577 61.0394C65.5683 61.4094 68.5061 61.0659 71.4338 59.7847C74.8413 58.2955 75.8813 56.5499 74.5249 54.5966C73.4539 53.0544 72.4203 52.7867 67.5574 52.7921C63.7308 52.7956 62.8322 52.9017 60.9353 53.5695C57.1479 54.9024 52.5556 57.99 52.5556 59.2035C52.5556 59.7621 53.6958 61.3208 54.0977 61.3116C54.2851 61.3081 54.9356 61.1766 55.543 61.0167ZM50.5276 57.443C50.5276 57.1142 50.9081 56.0435 51.3731 55.0639C52.4856 52.7199 52.9424 49.8998 52.7587 46.5113C52.5708 43.0473 52.1847 41.0975 51.3644 39.4699C50.2739 37.3066 49.3728 36.395 49.3663 37.4488C49.3633 37.883 44.1309 49.7959 42.6707 52.6923C41.8102 54.3991 41.8102 54.3991 42.7187 54.9312C43.7997 55.5644 44.4438 55.3699 44.4438 54.4102C44.4438 54.0263 44.7141 53.2824 45.0442 52.7572C45.3745 52.2319 46.3687 50.0766 47.2536 47.9677C49.9413 41.5629 50.8072 40.2686 51.6419 41.4079C51.8785 41.7307 51.7784 42.1391 51.2437 43.03C50.3329 44.5483 46.1821 54.2908 46.1821 54.9103C46.1821 55.1669 46.0328 55.4816 45.8502 55.6094C45.4806 55.8683 47.1738 57.02 47.9573 57.0428C48.217 57.0504 48.5911 57.2783 48.7895 57.5489C49.3136 58.2641 50.5276 58.1905 50.5276 57.443ZM48.3216 56.5843C48.2335 56.3247 48.6152 54.9586 49.1697 53.5488C49.7242 52.139 50.2615 50.6669 50.3638 50.2775C50.5811 49.45 51.1424 49.1279 51.694 49.5141C52.0198 49.7421 52.0187 50.0188 51.6865 51.2066C50.4232 55.7241 48.8707 58.2054 48.3216 56.5843ZM39.767 54.7623C40.2408 54.7606 40.401 54.6152 40.2903 54.2884C40.2026 54.0291 40.4426 53.3278 40.8241 52.7296C41.5688 51.5614 47.6231 37.8523 48.2198 35.9831C48.5297 35.0132 48.5089 34.7341 48.072 33.9785C47.7931 33.4957 47.469 33.1007 47.3527 33.1007C46.9963 33.1007 46.3015 34.1568 45.3017 36.2183C44.7764 37.3012 43.7892 39.1727 43.1079 40.3772C42.4265 41.5816 41.518 43.3537 41.089 44.3151C40.66 45.2765 39.8457 46.8754 39.2796 47.868C37.6454 50.7336 35.8049 54.7086 36.0046 54.941C36.1051 55.0578 36.8392 55.0665 37.6359 54.9599C38.4326 54.8529 39.3914 54.7634 39.767 54.7623ZM55.6756 39.1601C56.4294 38.5219 57.9325 37.3365 59.0158 36.5259C63.1915 33.4014 67.4049 29.0982 68.5325 26.8063C69.4617 24.9176 69.6487 23.7975 69.1722 22.9737C68.7698 22.2779 68.5641 22.2091 67.3725 22.3708C66.6325 22.4714 64.919 23.0279 63.5646 23.6077C61.1544 24.6397 61.0251 24.7523 57.4807 28.9096C55.4889 31.2457 53.6364 33.6111 53.3638 34.166C53.0913 34.7209 52.7328 35.3284 52.5672 35.5161C52.0535 36.0979 52.2334 37.3626 52.9902 38.4862C53.3885 39.0778 53.7144 39.7325 53.7144 39.941C53.7144 40.5818 54.2465 40.37 55.6756 39.1601ZM72.4895 31.3779C73.1061 30.4303 73.7782 29.2858 73.9831 28.8346C74.1879 28.3834 74.8608 27.2452 75.4785 26.3054C76.0961 25.3656 76.6015 24.3809 76.6015 24.1172C76.6015 23.8534 75.9423 22.9982 75.1366 22.2162C71.3222 18.5145 69.2235 16.2862 68.4786 15.147C67.5293 13.6953 65.215 11.442 64.6732 11.442C64.285 11.442 58.3498 17.9721 58.3498 18.3991C58.3498 18.5318 59 19.4009 59.7947 20.3299C60.5894 21.2589 61.1684 22.1497 61.0814 22.3093C60.8414 22.7494 61.7706 22.6567 62.7965 22.1378C63.2986 21.8838 64.0592 21.5882 64.4868 21.4807C64.9383 21.3673 65.3486 20.9838 65.4655 20.5667C65.5762 20.1716 66.0406 19.3967 66.4974 18.8446C66.9543 18.2925 67.3287 17.6931 67.3294 17.5127C67.3302 17.332 66.8636 16.7622 66.2925 16.2462C65.2543 15.3078 65.2543 15.3078 63.5428 17.2307C61.7277 19.2699 61.5686 19.6512 62.2609 20.302C62.8296 20.8367 64.2914 22.5436 63.7043 22.7989C63.1937 23.0208 59.7987 19.9344 59.7987 19.1704C59.7987 18.9346 60.4179 18.1413 61.1748 17.4072C61.9317 16.6731 63.0072 15.4054 63.5649 14.59C64.1226 13.7745 64.7277 13.1017 64.9095 13.0949C65.3813 13.076 67.9578 15.5496 68.3932 16.438C68.9407 17.5548 68.8541 18.6933 68.1581 19.5325C67.5366 20.282 67.5365 20.282 68.3218 20.6202C68.7537 20.8065 69.274 20.9585 69.4779 20.9585C69.8988 20.9585 70.5736 21.7574 71.0689 22.8424C71.335 23.4247 71.3123 23.7801 70.9612 24.549C70.7174 25.0832 70.5178 25.7876 70.5178 26.1145C70.5178 26.4414 70.0868 27.4454 69.56 28.3458C68.6022 29.9829 68.6022 29.9829 69.7774 31.5269C70.4237 32.3761 71.0462 33.0775 71.1606 33.0857C71.2752 33.0933 71.8729 32.3254 72.4895 31.3779ZM41.0671 29.1366C44.6409 27.96 45.4209 27.3806 46.4379 25.1468C46.9346 24.0561 47.3409 22.8752 47.3409 22.5226C47.3409 21.9429 47.2037 21.903 45.9057 22.1052C44.6718 22.2972 44.2675 22.2035 43.0234 21.4367C41.1246 20.266 40.4975 19.466 40.0749 17.6748C39.7639 16.3569 39.7983 15.9708 40.3913 14.1296C40.8693 12.6446 41.3841 11.7456 42.2209 10.9343C42.8613 10.3133 43.2951 9.70309 43.185 9.57829C42.7343 9.06783 40.732 8.49811 39.3722 8.4935C37.5147 8.48594 36.1236 8.94407 35.2857 9.83574C34.8645 10.284 34.4025 10.4774 34.0219 10.3647C33.3589 10.1682 31.6084 11.0145 31.8316 11.4235C31.909 11.5656 32.3993 11.7626 32.9211 11.8612C35.7381 12.3943 36.6976 13.758 36.4256 16.8417C36.141 20.0678 34.3927 22.5995 32.4497 22.5995C32.195 22.5995 31.9865 22.7537 31.9865 22.9427C31.9865 23.3764 30.1254 23.0191 28.9892 22.367C28.1647 21.8939 28.1647 21.8939 28.3689 22.9852C28.6372 24.4201 29.6834 26.5377 30.1238 26.5377C30.3154 26.5377 31.2974 27.1621 32.3063 27.9252C34.9208 29.9028 37.6106 30.2746 41.0671 29.1366ZM33.9419 19.4466C34.7268 18.4582 34.8834 18 34.8834 16.6927C34.8834 14.5625 34.2499 13.7256 32.4645 13.4976C30.6818 13.2701 29.8335 13.7906 29.4161 15.3689C28.9307 17.2042 29.0192 18.6916 29.6878 19.934C30.2625 21.0017 30.3341 21.0348 31.6423 20.8372C32.7134 20.6755 33.1993 20.3818 33.9419 19.4466ZM30.306 18.9241C29.837 18.3928 29.8645 16.533 30.3484 16.0784C30.5627 15.8766 31.1529 15.6181 31.6599 15.5032C32.8107 15.2424 33.7248 16.0693 33.7248 17.3709C33.7248 18.1708 33.5903 18.3015 32.566 18.4975C31.9286 18.6196 31.4071 18.8539 31.4071 19.0186C31.4071 19.4473 30.7155 19.3879 30.306 18.9241ZM46.2098 20.2099C46.9061 19.608 47.5324 17.4346 47.1383 16.9882C46.9062 16.7255 46.6557 16.8124 46.2184 17.3079C44.9355 18.761 43.285 18.4724 43.285 16.7951C43.285 15.6372 43.7592 14.8022 44.7447 14.2249C45.6929 13.6695 46.7614 14.0167 46.7614 14.88C46.7614 15.5589 47.3175 15.8309 47.5149 15.2485C47.6082 14.9726 47.4117 14.3129 47.0782 13.7823C46.7445 13.2517 46.4717 12.6115 46.4717 12.3596C46.4717 11.3767 45.8641 11.1412 44.7699 11.7001C43.3207 12.4404 42.7343 13.0465 42.0953 14.4646C41.2267 16.3924 41.3685 17.5679 42.627 18.8738C43.2212 19.4902 44.1012 20.1244 44.5825 20.2831C45.7406 20.6647 45.6809 20.6672 46.2098 20.2099Z" fill="black"/>
<path d="M70.6995 32.5616C70.1558 31.975 69.2099 30.735 69.0388 30.3846C68.8351 29.9676 68.8888 29.6511 69.2842 28.9384C70.0903 27.4851 70.4379 26.687 70.5784 25.9663C70.6524 25.5865 70.8316 24.9867 70.9765 24.6334C71.3428 23.7404 71.3441 23.2944 70.9825 22.5834C70.6893 22.0069 70.2324 21.371 69.954 21.152C69.85 21.0702 69.536 20.9461 69.2563 20.8762C68.9766 20.8063 68.5395 20.6627 68.285 20.557C67.7074 20.3172 67.679 20.2108 68.0631 19.725C68.6358 19.0004 68.8597 18.2672 68.7471 17.4848C68.6051 16.4983 68.1943 15.8838 66.7177 14.4489C65.7684 13.5264 65.1907 13.0883 64.9235 13.0883C64.7011 13.0883 64.3188 13.4957 63.4876 14.6184C62.6698 15.723 62.1944 16.2819 61.1041 17.4202C60.1993 18.3649 59.7905 18.9052 59.7905 19.1567C59.7905 19.4217 60.0262 19.7967 60.5959 20.4382C61.0599 20.9607 61.9699 21.8084 62.4119 22.1299C62.5286 22.2148 62.5154 22.2312 62.241 22.343C62.0775 22.4096 61.7515 22.4812 61.5165 22.5021L61.0893 22.54L61.0886 22.3085C61.0877 21.9886 60.7934 21.504 60.0247 20.557C58.7382 18.972 58.405 18.5025 58.4479 18.3355C58.6006 17.7415 64.3041 11.5161 64.6957 11.5161C65.2006 11.5161 67.2661 13.5191 68.3997 15.1081C69.2419 16.2887 70.2889 17.438 72.9424 20.0947C74.2942 21.4482 75.5625 22.7349 75.761 22.954C76.2328 23.4751 76.5376 23.9409 76.5376 24.1408C76.5376 24.3707 75.9909 25.4285 75.3786 26.3834C74.6981 27.4447 74.2072 28.2796 73.8745 28.9412C73.3231 30.0379 71.9562 32.1773 71.423 32.7781L71.1672 33.0663L70.6995 32.5616Z" fill="#FF2A7F"/>
</svg>
