<svg width="155" height="146" viewBox="0 0 155 146" fill="none" xmlns="http://www.w3.org/2000/svg">
<path d="M59.6393 145.846C59.3003 145.736 58.7735 145.625 58.4687 145.599C57.8104 145.542 57.1501 145.218 56.478 144.62C56.2083 144.38 55.6086 143.908 55.1454 143.57C54.6823 143.233 54.3374 142.9 54.379 142.832C54.4696 142.682 54.1394 141.872 53.9877 141.872C53.9293 141.872 53.9202 141.715 53.9674 141.523C54.0332 141.254 53.9515 141.055 53.617 140.665C53.2982 140.294 53.2021 140.07 53.2601 139.834C53.3037 139.656 53.2083 138.986 53.048 138.345C52.5552 136.374 52.3624 130.628 52.7748 130.206C52.8591 130.12 52.928 129.9 52.928 129.717C52.928 129.535 53.1186 129.102 53.3514 128.756L53.7748 128.126L53.4218 127.581C53.1092 127.098 52.5244 126.769 51.8217 126.683C51.6376 126.66 50.7574 125.921 50.1211 125.255C49.744 124.86 49.1889 124.408 48.8876 124.25C48.5863 124.091 48.2181 123.772 48.0695 123.539C47.9209 123.306 47.6744 123.078 47.5216 123.032C47.3689 122.985 46.974 122.62 46.644 122.219C46.314 121.818 45.7131 121.133 45.3086 120.698C44.9041 120.262 44.5732 119.779 44.5732 119.624C44.5732 119.469 44.5009 119.317 44.4125 119.287C44.1451 119.196 42.1078 115.201 42.1078 114.768C42.1078 114.645 41.9786 114.366 41.8207 114.147C41.3594 113.509 40.8674 111.789 40.7353 110.353C40.668 109.621 40.545 108.676 40.4619 108.252C40.1709 106.767 40.1809 105.049 40.4862 104.082C40.7487 103.251 40.7514 103.181 40.5352 102.843C40.3194 102.506 40.3204 102.468 40.552 102.207C40.7092 102.029 40.7839 101.76 40.7588 101.462C40.7372 101.206 40.7854 100.954 40.8658 100.904C40.9463 100.853 41.0121 100.504 41.0121 100.129C41.0121 99.5327 41.0503 99.4406 41.3132 99.4015C41.5877 99.3606 41.611 99.2871 41.5778 98.5646C41.5577 98.1289 41.6009 97.6562 41.6736 97.514C42.1072 96.6662 42.2767 96.033 42.2088 95.5147C42.161 95.1509 42.1963 94.9033 42.3095 94.8072C42.4053 94.7259 42.5207 94.4255 42.5661 94.1397C42.6127 93.8465 42.7771 93.5208 42.9435 93.3924C43.2338 93.1685 43.6084 92.2976 43.6124 91.8374C43.6134 91.7081 43.7737 91.4743 43.9684 91.3177C44.163 91.1611 44.2819 90.9661 44.2325 90.8844C44.183 90.8026 44.3045 90.5391 44.5022 90.2988C44.7 90.0584 44.8326 89.784 44.7969 89.689C44.7612 89.5939 44.8734 89.4388 45.046 89.3443C45.2186 89.2498 45.4281 88.9424 45.5115 88.6612C45.6778 88.1007 47.0554 85.6604 47.466 85.1992C47.6076 85.0401 47.7234 84.7319 47.7234 84.5143V84.1185L46.1572 84.1892C45.2958 84.2281 44.5408 84.2131 44.4794 84.156C44.2303 83.924 42.7988 83.5407 41.8339 83.4476C40.892 83.3568 39.6507 83.0823 38.6152 82.736C38.3893 82.6604 38.0811 82.5794 37.9304 82.556C37.5943 82.5037 36.4427 82.1422 33.4106 81.1373C32.13 80.7129 31.0215 80.3678 30.9474 80.3705C30.716 80.3793 29.486 79.7513 27.6735 78.7C27.004 78.3117 26.4225 77.994 26.3812 77.994C26.3399 77.994 26.1788 77.8795 26.0233 77.7397C25.8678 77.5999 25.4632 77.3677 25.1242 77.2238C24.7852 77.0799 24.3538 76.8268 24.1655 76.6614C23.9771 76.4959 23.2894 76.003 22.6373 75.566C21.8397 75.0316 21.2879 74.5387 20.952 74.0605C20.6773 73.6694 20.2575 73.244 20.0191 73.1152C19.2485 72.6988 16.4763 69.7361 15.7364 68.5383C15.4508 68.076 15.0018 67.4268 14.7387 67.0957C14.4756 66.7646 14.1136 66.17 13.9344 65.7743C13.7552 65.3786 13.4828 64.9648 13.329 64.8547C13.1753 64.7445 12.8303 64.1887 12.5625 63.6196C12.2946 63.0504 12.021 62.5847 11.9544 62.5847C11.8879 62.5847 11.8721 62.4271 11.9193 62.2345C11.9666 62.0419 11.9491 61.8843 11.8805 61.8843C11.8119 61.8843 11.6424 61.5533 11.5039 61.1488C11.3653 60.7443 11.1446 60.2873 11.0134 60.1332C10.6366 59.6905 10.3321 58.9913 10.3303 58.5642C10.3297 58.3485 10.1879 57.9199 10.0159 57.6117C9.31606 56.358 9.08902 52.1105 8.65516 51.5539C8.57479 51.4508 8.55669 51.022 8.61083 50.5033C8.68201 49.8213 8.65122 49.5223 8.47187 49.1552C8.09919 48.3923 7.9989 47.7349 8.20411 47.4002C8.30349 47.238 8.42646 46.8033 8.47739 46.4341C8.53813 45.9934 8.70238 45.6084 8.95538 45.3134C9.16735 45.0662 9.56171 44.4887 9.8317 44.0301L10.3226 43.1961L10.9557 43.236C11.4712 43.2684 11.8082 43.1652 12.7695 42.6803C13.6281 42.2473 14.1462 42.0755 14.6691 42.0506C15.0645 42.0317 15.4487 41.9779 15.5227 41.9311C15.5968 41.8843 15.9847 41.8599 16.3846 41.877C16.7898 41.8942 17.3847 41.807 17.7281 41.68C18.8115 41.2794 21.359 41.0129 24.4526 40.9765C26.7856 40.9491 27.4867 40.9836 27.7714 41.1391C28.0868 41.3116 28.2049 41.3073 28.7083 41.1051C29.2299 40.8955 29.3147 40.8941 29.6073 41.0902C29.7904 41.2129 30.0489 41.2683 30.2039 41.218C30.3542 41.1692 30.8429 41.1311 31.2897 41.1333C31.7365 41.135 32.1382 41.0775 32.1823 41.0045C32.285 40.8345 33.1506 40.832 33.4589 41.0009C33.8011 41.1883 37.4076 41.2805 37.5779 41.1063C37.6716 41.0104 37.8847 41.0152 38.2345 41.1211C38.5192 41.2073 39.6326 41.3115 40.7086 41.3526C41.7846 41.3938 42.7734 41.4867 42.906 41.5593C43.0385 41.6319 43.8726 41.7603 44.7594 41.8447C47.1704 42.0742 46.4614 42.376 47.9922 42.4804C48.5438 42.518 49.3407 42.6695 49.7631 42.817C50.1856 42.9645 50.9113 43.1215 51.376 43.1659C51.8406 43.2102 52.5504 43.4008 52.9532 43.5892C53.3561 43.7777 53.8696 43.9746 54.0944 44.0267C54.3192 44.0789 54.8845 44.3044 55.3505 44.5279C55.8166 44.7514 56.3382 44.9343 56.5096 44.9343C56.681 44.9343 56.9468 45.094 57.1003 45.2892C57.2538 45.4845 57.89 45.8864 58.514 46.1824C59.138 46.4784 59.7592 46.8229 59.8944 46.9481C60.0296 47.0732 60.2298 47.1756 60.3393 47.1756C60.7074 47.1756 62.5814 48.4224 62.858 48.8513C63.0087 49.0849 63.1991 49.2763 63.2812 49.2765C63.4939 49.2769 63.7483 48.6424 63.7483 48.1108C63.7483 47.8619 63.8468 47.5143 63.9673 47.3384C64.1945 47.0066 64.1799 46.4829 63.915 45.4657C63.7515 44.8379 63.4993 44.5596 62.9773 44.431C62.2327 44.2476 61.5902 43.8245 61.3045 43.3293C61.1471 43.0564 60.9465 42.833 60.8589 42.833C60.7012 42.833 59.5847 41.7132 59.3051 41.2745C59.2253 41.1493 58.8461 40.582 58.4624 40.0138C57.7978 39.0295 57.5367 38.2426 57.5641 37.3061C57.5689 37.1556 57.5045 36.9493 57.4221 36.8476C57.1995 36.5733 57.1919 33.1901 57.4132 33.1031C57.5074 33.0661 57.5844 32.9006 57.5844 32.7352C57.5844 32.5698 57.8001 32.2324 58.0638 31.9854C58.3275 31.7384 58.5432 31.4625 58.5432 31.3723C58.5432 31.1114 57.9681 30.5056 57.7206 30.5056C57.5966 30.5056 57.3555 30.3535 57.1848 30.1677C56.9531 29.9154 56.665 29.8049 56.0486 29.7317C55.3899 29.6535 55.1222 29.5422 54.7258 29.182C52.5965 27.2469 47.2262 24.8235 46.8534 24.552C45.9813 23.9168 45.5315 23.0802 45.5315 22.0931C45.5315 21.634 45.6262 21.397 45.9685 20.9984C46.397 20.4995 46.4253 20.4896 47.4185 20.4896H48.4314L49.3672 21.4001C50.0711 22.085 50.3469 22.4645 50.4802 22.9312C50.6178 23.4134 50.6203 23.5642 50.4913 23.6082C50.2037 23.7063 50.3115 23.8991 50.6093 23.8195C50.8144 23.7646 51.0524 23.9003 51.4653 24.3076C52.2703 24.8427 53.0575 25.7069 53.9013 26.1608C53.9472 26.1616 54.2554 26.383 54.5862 26.6519C54.9169 26.9209 55.2909 27.1415 55.4173 27.1422C55.5436 27.143 55.7594 27.2872 55.8967 27.4628C56.0389 27.6447 56.2547 27.7598 56.3982 27.7303C56.5367 27.7018 56.7869 27.81 56.9541 27.9706C57.1212 28.1313 57.5318 28.322 57.8664 28.3945C59.3871 28.7242 59.8582 28.9099 60.1805 29.3072C60.5374 29.747 61.0433 29.4724 61.07 28.8246C61.0759 28.6836 61.1935 28.6281 61.4276 28.6559C61.6445 28.6817 61.8725 28.5889 62.0301 28.4108C62.1696 28.2531 62.3882 28.1242 62.516 28.1242C62.7632 28.1242 63.8282 27.5801 64.3713 27.1764C64.6055 27.0022 64.6994 26.7948 64.7031 26.4432C64.7061 26.1735 64.8053 25.7638 64.9238 25.5326C65.1691 25.0542 65.3884 20.5976 65.3408 17.0575C65.3141 15.0642 65.3066 15.0188 64.9459 14.6254C64.7438 14.405 64.5436 14.1124 64.501 13.9752C64.4584 13.838 64.3024 13.6933 64.1542 13.6537C63.7886 13.5559 63.8157 13.3274 64.2406 12.9246C64.5107 12.6685 64.6923 12.6069 64.9948 12.6688C65.3151 12.7343 65.4486 12.6782 65.6761 12.3824C65.9055 12.0842 66.074 12.0145 66.5655 12.0145C66.899 12.0145 67.1719 12.0776 67.1719 12.1546C67.1719 12.2317 67.2376 12.2947 67.318 12.2947C67.6324 12.2947 68.3913 13.0344 68.4745 13.4221C68.5225 13.6461 68.5196 14.1774 68.4681 14.6027C68.3896 15.2447 68.2833 15.4711 67.8415 15.9367C67.5488 16.2451 67.2997 16.5762 67.2879 16.6725C67.2618 16.8861 67.2349 17.5596 67.1299 20.6297C67.0851 21.9395 67.0079 23.9094 66.9582 25.0073L66.8679 27.0035L67.3283 27.0125C68.1885 27.0293 69.2935 27.3585 69.8941 27.7771C70.6285 28.2887 70.9296 28.4619 71.5893 28.7519C71.8717 28.876 72.1904 29.148 72.2976 29.3564C72.5363 29.8202 72.874 30.1178 73.4566 30.3777C73.8015 30.5316 73.8878 30.6444 73.8438 30.8844C73.8053 31.0936 73.9176 31.3196 74.1914 31.5848C74.6309 32.0107 75.2534 33.2031 75.2534 33.6193C75.2534 33.762 75.3804 34.1335 75.5358 34.4449C75.7459 34.8661 75.7913 35.1246 75.7134 35.4549C75.6558 35.6991 75.6268 36.169 75.6492 36.4992C75.6715 36.8293 75.6239 37.1807 75.5434 37.28C75.4627 37.3792 75.4053 37.6893 75.4156 37.969C75.4259 38.2488 75.3592 38.5703 75.2672 38.6835C75.1632 38.8117 75.1335 39.0713 75.1885 39.3712C75.2591 39.7558 75.1913 40.0074 74.8543 40.6189C74.4344 41.3798 74.3195 41.8524 74.5542 41.8524C74.6217 41.8524 74.822 42.0089 74.9994 42.2002C75.1768 42.3915 75.4311 42.5491 75.5646 42.5504C75.9397 42.554 76.8671 43.2408 77.1667 43.7366C77.453 44.2104 78.7018 45.3545 78.9326 45.3545C79.0082 45.3545 79.1107 45.4964 79.1605 45.6697C79.2103 45.8431 79.7937 46.5208 80.4569 47.1757C81.4456 48.152 81.705 48.4983 81.8969 49.0982C82.0448 49.5607 82.327 50.0245 82.664 50.3589C82.9825 50.6749 83.1972 51.0191 83.1973 51.2138C83.1973 51.3931 83.3761 51.7226 83.5945 51.9459C83.9537 52.3133 84.5671 53.4051 84.5671 53.6771C84.5671 53.7372 84.7055 53.9852 84.8747 54.2283C85.5373 55.18 86.4846 56.8997 86.4846 57.1509C86.4846 57.4496 86.8281 58.195 87.1265 58.5437C87.2354 58.671 87.3054 58.8604 87.282 58.9644C87.2586 59.0685 87.3785 59.3534 87.5484 59.5974C87.7183 59.8414 87.9614 60.377 88.0887 60.7877C88.2159 61.1983 88.3539 61.5658 88.3953 61.6043C88.4367 61.6429 88.6458 62.2102 88.8599 62.8651C89.0741 63.52 89.3669 64.2266 89.5105 64.4353C89.6542 64.6441 89.7717 64.9118 89.7717 65.0301C89.7717 65.317 90.3213 66.962 90.4734 67.1306C90.5395 67.2038 90.5935 67.3965 90.5935 67.5587C90.5935 68.0971 91.1642 69.6548 91.4659 69.9398C91.8385 70.2919 92.1767 71.0322 92.2976 71.7604C92.4126 72.4535 92.66 73.2389 92.843 73.4921C92.9188 73.5971 92.9626 73.8996 92.9403 74.1645C92.918 74.4294 92.9581 74.7218 93.0293 74.8143C93.2911 75.1539 94.2915 78.7415 94.2915 79.341C94.2915 79.5349 94.3481 79.8018 94.4173 79.934C94.4865 80.0663 94.5883 80.8647 94.6436 81.7084C94.7319 83.0567 94.7921 83.3222 95.1416 83.9032C95.5157 84.525 95.5292 84.5985 95.3694 85.1439C95.238 85.5926 95.2363 85.7839 95.3611 85.9895C95.4503 86.1357 95.5234 86.3793 95.5234 86.5308C95.5234 86.6823 95.5871 86.9511 95.6648 87.1281C95.7976 87.43 95.6992 88.7334 95.4502 89.9714C95.3733 90.354 95.4585 90.4825 96.3965 91.4072C96.9634 91.9658 97.524 92.4228 97.6423 92.4228C97.9252 92.4228 98.7931 92.9948 99.2111 93.4567C99.3937 93.6585 99.6227 93.8237 99.7199 93.8237C99.8171 93.8237 99.959 93.9428 100.035 94.0883C100.111 94.2338 100.887 94.7105 101.76 95.1477C102.632 95.5848 103.38 96.0331 103.421 96.1438C103.463 96.2546 103.571 96.3452 103.662 96.3452C103.753 96.3452 104.004 96.5345 104.221 96.7658C104.78 97.3628 105.715 97.7977 106.217 97.6949C106.54 97.6288 106.685 97.6836 106.92 97.9593C107.104 98.1765 107.347 98.3 107.567 98.2884C107.76 98.2782 108.196 98.3969 108.535 98.552C108.874 98.7071 109.49 98.8771 109.904 98.9298C110.318 98.9824 110.76 99.1215 110.887 99.2388C111.081 99.4184 111.265 99.4287 112.049 99.3038C112.843 99.1773 112.997 99.1869 113.097 99.3691C113.227 99.6056 113.796 99.884 114.219 99.9182C114.37 99.9303 114.848 100.024 115.282 100.127C115.9 100.272 116.139 100.277 116.378 100.146C116.633 100.007 116.832 100.039 117.566 100.334C118.703 100.79 119.279 100.796 119.562 100.355C119.749 100.063 119.853 100.031 120.421 100.092C120.777 100.13 121.126 100.217 121.197 100.285C121.4 100.476 121.509 100.432 121.586 100.127C121.644 99.9009 121.773 99.8473 122.26 99.8473C122.591 99.8473 122.92 99.9075 122.992 99.981C123.206 100.2 125.128 99.858 125.469 99.5404C125.694 99.3306 125.871 99.2893 126.241 99.3602C126.534 99.4165 126.756 99.3929 126.812 99.2995C126.863 99.2156 127.019 99.1469 127.159 99.1469C127.299 99.1469 127.434 99.0824 127.46 99.0035C127.486 98.9246 127.753 98.8252 128.054 98.7825C128.694 98.6917 129.547 98.2671 130.057 97.785C130.294 97.5613 130.554 97.4548 130.811 97.4759C131.695 97.5485 131.96 97.4733 132.094 97.1121C132.167 96.9175 132.317 96.7225 132.428 96.6789C132.539 96.6352 132.668 96.4792 132.713 96.3323C132.823 95.9802 133.165 95.9934 133.551 96.3645C133.83 96.632 133.907 96.645 134.281 96.4868C134.662 96.3254 134.748 96.3441 135.245 96.6967C135.545 96.9095 135.791 97.1579 135.791 97.2486C135.791 97.7283 137.176 98.5394 138.236 98.6806C138.586 98.7273 138.996 98.8317 139.147 98.9128C139.687 99.2034 142.498 99.5217 143.382 99.3924C144.137 99.2821 145.426 99.1689 146.132 99.1512C146.433 99.1433 146.603 99.0759 147.685 98.5332C148.088 98.3314 148.599 98.1663 148.822 98.1663C149.748 98.1663 151.946 96.2927 152.213 95.2756C152.297 94.9573 152.459 94.6177 152.573 94.521C152.819 94.312 152.73 93.6009 152.363 92.8431C152.233 92.5734 152.083 92.0498 152.03 91.6794C151.947 91.0963 151.817 90.8851 151.06 90.1034C150.579 89.607 150.095 89.2009 149.983 89.2009C149.871 89.2009 149.648 89.0116 149.487 88.7804C148.967 88.0323 148.828 88.0009 145.713 87.9283C145.079 87.9135 144.606 87.9788 144.343 88.1176C144.122 88.2341 143.706 88.3953 143.42 88.4757C142.928 88.6139 142.892 88.602 142.764 88.2583C142.69 88.0583 142.669 87.6207 142.718 87.2857C142.774 86.9075 142.749 86.6047 142.653 86.4866C142.536 86.3417 142.553 86.25 142.727 86.1026C143.279 85.6344 143.535 83.804 143.165 82.9725C143.041 82.6957 143.044 82.5399 143.177 82.2853C143.403 81.8552 143.172 79.8133 142.819 79.1148C142.682 78.8452 142.565 78.3724 142.558 78.0642C142.551 77.756 142.346 76.9996 142.103 76.3832C141.86 75.7668 141.609 75.0923 141.546 74.8842C141.433 74.5181 140.192 72.2469 139.583 71.2918C139.418 71.034 139.08 70.5927 138.831 70.3112C138.582 70.0296 138.158 69.4606 137.888 69.0467C137.618 68.6328 137.113 67.996 136.766 67.6316C136.418 67.2672 136.029 66.7706 135.9 66.528C135.714 66.177 135.579 66.087 135.235 66.087C134.841 66.087 134.81 66.0553 134.889 65.7345C134.96 65.4449 134.913 65.3577 134.624 65.2455C134.431 65.1704 134.168 64.9216 134.039 64.6926C133.911 64.4635 133.664 64.1988 133.492 64.1041C133.319 64.0095 132.901 63.6011 132.563 63.1965C131.616 62.0627 128.472 59.5279 127.436 59.0627C126.947 58.8428 126.427 58.592 126.281 58.5054C126.135 58.4188 125.642 58.2358 125.185 58.0989C124.155 57.7902 123.373 57.451 123.26 57.2638C123.213 57.1856 122.972 57.1216 122.724 57.1216C122.476 57.1216 122.081 57.0234 121.846 56.9034C121.611 56.7833 121.185 56.6484 120.9 56.6034C120.616 56.5585 120.201 56.4279 119.978 56.3132C119.713 56.1764 119.077 56.0929 118.129 56.0706C117.335 56.0519 116.511 55.9655 116.299 55.8787C115.632 55.6054 115.274 55.68 115.041 56.141C114.924 56.3722 114.747 56.5613 114.648 56.5613C114.221 56.5613 113.593 56.0906 113.372 55.6065C113.243 55.3226 113.099 55.0589 113.052 55.0203C112.757 54.7788 112.816 54.4487 113.19 54.251C113.409 54.1348 113.687 54.0398 113.807 54.0398C114.122 54.0398 115.27 53.2097 115.744 52.6389C116.479 51.7527 117.274 50.1957 117.714 48.7791C117.952 48.0128 118.227 47.1966 118.324 46.9655C118.559 46.4101 118.759 45.6269 118.951 44.514C119.038 44.0132 119.173 43.2883 119.253 42.9031C119.374 42.3153 119.521 38.9867 119.479 37.79C119.472 37.5974 119.473 37.2507 119.482 37.0195C119.544 35.2497 119.442 32.749 119.262 31.6326C119.143 30.8972 119.023 29.7941 118.995 29.1814C118.967 28.5686 118.882 28.0044 118.807 27.9276C118.732 27.8508 118.671 27.657 118.671 27.4969C118.671 27.3369 118.584 27.0799 118.479 26.9259C118.374 26.7719 118.242 26.2693 118.188 25.8091C118.133 25.3488 118.012 24.8147 117.92 24.6221C117.827 24.4294 117.645 23.7675 117.516 23.1512C117.386 22.5348 117.162 21.7609 117.017 21.4314C116.872 21.1019 116.753 20.626 116.753 20.3738C116.753 20.1216 116.698 19.8553 116.63 19.7822C116.298 19.4233 114.973 15.8392 114.973 15.2991C114.973 15.1294 114.883 14.9145 114.774 14.8216C114.664 14.7287 114.481 14.3269 114.367 13.9289C114.253 13.5309 113.882 12.7092 113.543 12.103C113.204 11.4967 112.886 10.8664 112.836 10.7021C112.742 10.3924 112.304 9.70002 111.998 9.3779C111.902 9.27609 111.822 9.08326 111.822 8.9494C111.822 8.81553 111.737 8.58602 111.632 8.43938C111.468 8.20977 111.41 8.19939 111.215 8.36467C111.047 8.50732 110.949 8.51594 110.834 8.39828C110.719 8.28062 110.745 8.11593 110.934 7.75661L111.189 7.27323L110.718 6.70523C108.805 4.39651 108.934 3.51276 108.084 3.25137C107.918 3.20013 107.597 2.98261 107.371 2.76788C106.97 2.38669 106.921 2.37728 105.317 2.37083C104.096 2.36642 103.594 2.41704 103.366 2.56941C103.194 2.68367 102.918 2.73878 102.743 2.69377C102.484 2.62736 102.392 2.69553 102.229 3.07617C102.102 3.37076 101.93 3.5426 101.756 3.54815C101.381 3.56006 98.5952 4.53032 98.1661 5.08034C97.9557 5.35001 97.7152 5.57064 97.6317 5.57064C97.4037 5.57065 96.2085 6.68725 96.2085 6.90023C96.2085 7.01441 96.1068 7.05813 95.943 7.01433C95.7566 6.96441 95.5424 7.10084 95.2239 7.47201C94.9745 7.76279 94.416 8.35805 93.9828 8.79479C93.5497 9.23153 93.1953 9.66624 93.1953 9.76083C93.1953 9.85543 93.0056 10.2148 92.7738 10.5594C92.4495 11.0415 92.2916 11.1663 92.089 11.1005C91.9441 11.0535 91.8256 11.0735 91.8256 11.1449C91.8256 11.2162 91.5791 11.5611 91.2778 11.9113C90.9765 12.2614 90.7299 12.6164 90.7299 12.7003C90.7299 12.7841 90.6043 12.932 90.4507 13.029C90.1116 13.2431 88.4015 15.3081 88.4015 15.5035C88.4015 15.5801 88.5094 15.7071 88.6412 15.7856C88.8484 15.9091 88.8326 15.929 88.5242 15.9326C88.0353 15.9388 87.399 16.5558 87.5107 16.9159C87.5658 17.0933 87.4958 17.3015 87.314 17.5011C87.1588 17.6714 87.0319 17.8804 87.0319 17.9654C87.0319 18.1621 86.1185 19.1588 85.9383 19.1588C85.8197 19.1588 85.4133 19.9607 85.3349 20.3496C85.3194 20.4266 85.2347 20.6232 85.1468 20.7864C85.059 20.9496 85.0157 21.1125 85.0508 21.1484C85.0859 21.1843 84.9296 21.3822 84.7036 21.5882C84.4574 21.8125 84.2926 22.101 84.2926 22.3076C84.2926 22.4972 84.1693 22.8769 84.0187 23.1512C83.7064 23.72 83.6659 24.1497 83.9159 24.2411C84.0155 24.2774 84.0363 24.3556 83.9657 24.4278C83.895 24.5001 83.8187 24.4788 83.7831 24.377C83.6796 24.0806 83.4708 24.1832 83.4708 24.5303C83.4708 24.711 83.3525 24.9684 83.2079 25.1023C83.0632 25.2361 82.8721 25.6559 82.7832 26.035C82.6943 26.4141 82.5639 26.7607 82.4934 26.8052C82.4229 26.8497 82.378 27.1175 82.3934 27.4001C82.423 27.9405 82.2173 28.4366 81.6322 29.2371C81.4381 29.5024 81.2794 29.8927 81.2794 30.1043C81.2794 30.316 81.2225 30.5251 81.153 30.569C81.0834 30.6129 80.9834 30.8531 80.9307 31.1026C80.878 31.3521 80.6575 32.1135 80.4408 32.7946C80.1822 33.6071 80.0467 34.3266 80.0467 34.8867C80.0467 35.4645 79.9549 35.9345 79.7624 36.3411C79.5643 36.7597 79.5117 37.0386 79.589 37.2609C79.65 37.4363 79.7026 38.4309 79.7058 39.471C79.7086 40.5111 79.7656 41.9792 79.8313 42.7334L79.9509 44.1046L79.5623 44.5194C79.3486 44.7476 79.0663 44.9343 78.9352 44.9343C78.8034 44.9343 78.4063 44.5437 78.048 44.062L77.3994 43.1896L77.3697 40.3858C77.3534 38.8438 77.3968 37.2349 77.4662 36.8105C77.5356 36.3862 77.6755 35.4716 77.7772 34.7782C77.9822 33.381 78.3503 32.1403 78.8726 31.0861C79.0622 30.7033 79.2775 30.0537 79.3511 29.6424C79.5741 28.3949 79.722 27.7612 79.8332 27.5773C79.8913 27.481 80.0258 27.0219 80.1318 26.5571C80.2378 26.0922 80.4469 25.5527 80.5965 25.3582C80.7461 25.1637 80.8685 24.8907 80.8685 24.7516C80.8685 24.6124 80.9302 24.4596 81.0055 24.412C81.0809 24.3644 81.1425 24.1415 81.1425 23.9168C81.1425 23.6921 81.2655 23.3018 81.4159 23.0495C81.5663 22.7973 81.6895 22.4876 81.6898 22.3614C81.6901 22.2353 81.9061 21.8113 82.1697 21.4193C82.4334 21.0272 82.6491 20.6302 82.6491 20.537C82.6491 20.4438 82.7621 20.2375 82.9002 20.0784C83.0383 19.9193 83.2587 19.4908 83.39 19.1261C83.5213 18.7614 83.8706 18.1637 84.1662 17.7979C84.5119 17.37 84.7036 16.9912 84.7036 16.7359C84.7036 16.4631 84.8378 16.2235 85.1331 15.9694C85.3693 15.7661 85.6486 15.3892 85.7537 15.1318C85.8589 14.8745 86.0377 14.6275 86.1511 14.583C86.2645 14.5385 86.4413 14.3364 86.5439 14.1338C86.6466 13.9313 87.3685 13.0959 88.1482 12.2774C89.6596 10.6908 90.3191 9.8952 90.3191 9.65843C90.3191 9.57791 90.5194 9.36908 90.7643 9.19431C91.0091 9.01952 91.8973 8.17997 92.7382 7.32865C94.2189 5.82938 96.2078 3.98603 96.9907 3.38732C97.2009 3.22663 97.9583 2.82224 98.674 2.48871C99.3896 2.15517 100.006 1.83843 100.044 1.78484C100.162 1.61648 100.979 1.22804 101.214 1.22804C101.338 1.22804 101.614 1.10061 101.828 0.944839C102.042 0.789073 102.267 0.67539 102.329 0.692234C102.39 0.709079 102.749 0.570526 103.125 0.384368C103.65 0.12509 104.077 0.0373998 104.95 0.00947796C105.98 -0.0235062 106.166 0.0130061 106.897 0.39041C107.342 0.619968 107.857 0.807791 108.043 0.807791C108.703 0.807791 110.565 2.74699 111.278 4.17615C111.438 4.49617 111.806 5.02164 112.096 5.34388C112.387 5.66611 112.667 6.10255 112.718 6.31377C112.77 6.52497 112.985 6.86417 113.196 7.06754C113.451 7.31372 113.608 7.64026 113.668 8.04454C113.725 8.43729 113.851 8.70313 114.022 8.79715C114.188 8.88805 114.288 9.09002 114.288 9.33615C114.288 9.55479 114.413 9.84505 114.568 9.98911C114.802 10.2057 115.932 12.4147 115.932 12.6558C115.932 12.6974 116.11 12.9641 116.329 13.2485C116.547 13.5329 116.769 13.9232 116.822 14.1158C116.875 14.3084 117.011 14.6146 117.123 14.7962C117.27 15.035 117.285 15.1687 117.177 15.2795C116.956 15.5059 116.993 15.7749 117.31 16.2304C117.466 16.4542 117.555 16.6373 117.507 16.6373C117.459 16.6373 117.547 16.8204 117.703 17.0442C117.859 17.2679 117.986 17.5726 117.986 17.7212C117.986 17.8699 118.031 18.0379 118.087 18.0947C118.142 18.1515 118.189 18.3039 118.19 18.4333C118.19 18.5627 118.262 18.6549 118.349 18.6383C118.442 18.6204 118.477 18.7203 118.435 18.8834C118.395 19.0419 118.434 19.1588 118.526 19.1588C118.614 19.1588 118.652 19.2175 118.608 19.2892C118.565 19.3609 118.592 19.4592 118.669 19.5076C118.745 19.556 118.808 19.5289 118.808 19.4473C118.808 19.3657 118.931 19.2989 119.082 19.2989C119.441 19.2989 119.434 19.5348 119.072 19.6524C118.874 19.7167 118.816 19.8148 118.881 19.977C120.342 23.4228 119.693 20.9752 120.472 24.8136C120.484 24.9779 120.503 25.207 120.515 25.3226C120.527 25.4381 120.478 25.6127 120.407 25.7104C120.319 25.8306 120.354 25.9762 120.517 26.16C120.649 26.3094 120.806 26.6392 120.864 26.8928C120.941 27.2248 120.975 27.2656 120.985 27.0386C121.004 26.6185 121.248 26.6375 121.409 27.0718C121.564 27.4889 121.55 28.4045 121.388 28.4045C121.325 28.4045 121.273 28.5027 121.273 28.6229C121.273 28.743 121.328 28.8064 121.396 28.7637C121.463 28.7211 121.544 28.7645 121.576 28.8605C121.653 29.0899 121.577 30.9019 121.486 31.0543C121.406 31.1866 121.856 33.1095 122.002 33.2588C122.144 33.4039 122.113 33.98 121.958 34.0779C121.883 34.1255 121.816 34.0823 121.81 33.9811C121.805 33.8802 121.733 33.9837 121.653 34.211C121.545 34.5148 121.548 34.6384 121.663 34.6779C121.833 34.7358 121.88 35.3012 121.729 35.4564C121.678 35.5083 121.651 35.9143 121.669 36.3585C121.686 36.8028 121.642 37.3242 121.57 37.5173C121.494 37.7216 121.479 38.5402 121.533 39.4752C121.622 40.9903 121.601 41.1902 121.174 42.9732C120.926 44.0134 120.694 45.2426 120.66 45.7049C120.573 46.893 120.519 47.0925 119.97 48.259C119.698 48.8373 119.515 49.4084 119.558 49.546C119.6 49.682 119.519 49.9451 119.378 50.1305C119.02 50.6001 118.397 51.8264 118.397 52.0606C118.397 52.1674 118.181 52.4991 117.917 52.7976C117.6 53.1572 117.438 53.4785 117.438 53.75C117.438 54.1422 117.471 54.164 118.199 54.257C118.617 54.3105 119.165 54.3202 119.415 54.2786C119.666 54.237 119.932 54.265 120.006 54.3407C120.08 54.4165 120.843 54.6536 121.702 54.8678C122.561 55.082 123.386 55.322 123.535 55.4011C123.685 55.4802 124.269 55.6877 124.834 55.8623C126.479 56.3706 127.437 56.7283 127.519 56.8656C127.562 56.9358 127.993 57.185 128.478 57.4193C128.963 57.6536 129.528 57.9836 129.734 58.1525C129.939 58.3214 130.285 58.5523 130.503 58.6654C130.721 58.7786 131.368 59.3317 131.941 59.8946C132.515 60.4575 133.14 61.0041 133.331 61.1093C133.522 61.2144 133.763 61.4619 133.866 61.6591C133.969 61.8564 134.537 62.4351 135.128 62.9451C135.719 63.4551 136.202 63.926 136.202 63.9914C136.202 64.0568 136.769 64.697 137.462 65.414C138.51 66.4992 140.174 68.6867 140.174 68.9793C140.174 69.023 140.467 69.3529 140.825 69.7122C141.7 70.5915 142.683 72.2311 143.102 73.5117C143.64 75.1571 144.258 76.7638 144.414 76.9238C144.493 77.0041 144.557 77.2418 144.557 77.4521C144.557 77.6623 144.656 77.9357 144.778 78.0597C144.92 78.2056 144.972 78.4193 144.924 78.6651C144.883 78.874 144.932 79.3602 145.031 79.7454C145.418 81.2404 145.573 82.4909 145.405 82.766C145.309 82.9242 145.278 83.2707 145.329 83.6442C145.381 84.0349 145.355 84.2967 145.258 84.358C145.174 84.4112 145.105 84.6655 145.105 84.9231C145.105 85.3145 145.17 85.4148 145.504 85.5338C145.724 85.6121 145.938 85.6404 145.981 85.5968C146.024 85.5533 146.476 85.5244 146.986 85.533C147.7 85.5449 147.96 85.6065 148.118 85.8016C148.231 85.9408 148.539 86.1279 148.803 86.2173C150.031 86.6336 150.407 86.8242 150.796 87.2269C151.026 87.4652 151.311 87.6602 151.43 87.6602C151.625 87.6602 152.638 88.7721 152.638 88.9856C152.638 89.0336 152.87 89.4013 153.154 89.8025C153.675 90.5395 153.841 90.8559 154.15 91.6932C154.243 91.9467 154.42 92.2304 154.544 92.3236C154.668 92.4169 154.779 92.6507 154.791 92.8433C154.803 93.036 154.855 93.6735 154.907 94.26L155 95.3265L154.162 96.1512C153.397 96.9044 153.324 97.027 153.323 97.5663C153.323 98.2102 153.197 98.3358 152.37 98.5176C152.11 98.5748 151.788 98.7643 151.653 98.9387C151.519 99.1131 151.256 99.2952 151.068 99.3435C150.88 99.3917 150.414 99.6194 150.032 99.8495C149.651 100.08 149.28 100.268 149.208 100.268C149.136 100.268 149.077 100.331 149.077 100.408C149.077 100.485 148.877 100.548 148.632 100.547C148.162 100.547 147.063 100.873 146.457 101.194C146.259 101.299 145.858 101.387 145.566 101.389C145.275 101.392 144.432 101.429 143.694 101.471C142.345 101.548 140.374 101.377 139.576 101.112C138.917 100.894 137.615 100.55 136.445 100.285C135.741 100.126 135.258 99.9271 135.006 99.6935C134.556 99.276 133.355 98.921 133.14 99.1416C133.061 99.2217 132.642 99.2872 132.208 99.2872C131.58 99.2872 131.39 99.3403 131.283 99.5462C131.208 99.6886 130.817 99.9114 130.413 100.041C130.009 100.171 129.361 100.496 128.974 100.763C128.586 101.03 128.151 101.248 128.007 101.248C127.863 101.248 127.483 101.343 127.163 101.458C126.842 101.574 126.283 101.669 125.921 101.669C125.558 101.669 125.227 101.725 125.185 101.794C125.144 101.863 124.57 101.993 123.91 102.084C122.573 102.266 121.969 102.453 121.726 102.757C121.593 102.923 121.478 102.932 121.123 102.806C120.555 102.603 120.272 102.605 120.396 102.812C120.465 102.926 120.397 102.945 120.165 102.876C119.435 102.66 118.981 102.63 118.317 102.754C117.934 102.825 117.502 102.839 117.358 102.784C116.961 102.635 113.809 102.089 113.343 102.089C113.118 102.089 112.896 102.026 112.85 101.949C112.803 101.872 112.576 101.809 112.345 101.809C112.113 101.809 111.497 101.652 110.975 101.459C110.453 101.266 109.905 101.109 109.758 101.109C109.611 101.109 109.23 100.992 108.91 100.848C107.807 100.354 107.562 100.268 107.249 100.268C107.076 100.268 106.823 100.142 106.686 99.9881C106.536 99.8184 106.264 99.7079 105.997 99.7079C105.575 99.7079 104.652 99.3472 103.331 98.6655C102.992 98.4906 102.02 97.8402 101.172 97.2201C100.324 96.6 99.3216 95.9794 98.9453 95.841C98.569 95.7027 98.0174 95.3499 97.7195 95.0571C97.4216 94.7643 97.0793 94.5248 96.959 94.5248C96.8386 94.5248 96.7758 94.4659 96.8193 94.3938C96.8629 94.3218 96.6662 94.0854 96.3823 93.8685C96.0985 93.6516 95.674 93.2693 95.4391 93.0189C94.9283 92.4745 94.6709 92.4472 94.3767 92.9065C93.9008 93.6494 93.1724 93.7923 91.7571 93.4205C91.4558 93.3413 91.0244 93.2365 90.7984 93.1875C89.9869 93.0115 89.549 92.705 88.47 91.5575C87.6457 90.681 87.2207 90.3402 86.7546 90.1821C86.0205 89.9332 85.0135 89.2306 84.9028 88.8902C84.813 88.6143 83.4459 87.3805 83.2299 87.3805C83.1514 87.3805 82.7628 86.9717 82.3665 86.4722C81.9702 85.9726 81.5357 85.5281 81.401 85.4844C81.2662 85.4406 80.8029 84.9196 80.3713 84.3264C79.9397 83.7333 79.2664 82.9328 78.875 82.5476C77.7812 81.471 76.5005 79.8577 76.4002 79.43C76.3506 79.2185 75.9725 78.6672 75.5599 78.205C75.1473 77.7427 74.6706 77.2068 74.5005 77.0142C74.3303 76.8216 74.1488 76.5231 74.097 76.3508C74.0453 76.1785 73.8219 75.8524 73.6007 75.6261C73.3794 75.3998 73.1984 75.0902 73.1984 74.9381C73.1984 74.6719 72.3347 73.099 71.8089 72.4076C71.6691 72.2238 71.5548 71.9492 71.5548 71.7972C71.5548 71.6453 71.3422 71.1022 71.0824 70.5904C70.8225 70.0786 70.1708 68.7292 69.634 67.5918C69.0972 66.4545 68.5183 65.3513 68.3476 65.1404C68.1768 64.9295 67.6215 63.8743 67.1135 62.7957C66.6055 61.717 66.0874 60.7177 65.9622 60.575C65.8235 60.4171 65.7016 59.9513 65.6505 59.3843C65.6043 58.8721 65.4273 58.1064 65.2572 57.6826C65.087 57.2589 64.8867 56.597 64.8121 56.2117C64.6213 55.2272 64.0007 53.2032 63.8629 53.116C63.7996 53.076 63.7478 52.8968 63.7478 52.7177C63.7478 52.5143 63.649 52.3657 63.4847 52.3217C63.3399 52.283 63.0961 51.9999 62.9427 51.6925C62.7894 51.3852 62.3686 50.9065 62.0075 50.6289C61.6464 50.3513 61.1968 50.0066 61.0085 49.863C60.3065 49.3275 59.2007 48.7172 58.9324 48.7172C58.7798 48.7172 58.4911 48.5864 58.2909 48.4265C57.6695 47.9304 55.5406 46.756 55.2624 46.756C55.1171 46.756 54.9578 46.6891 54.9084 46.6073C54.8285 46.4751 54.1545 46.1493 54.0516 46.1932C54.0295 46.2025 53.8244 46.0494 53.5959 45.8528C53.3674 45.6562 53.139 45.4939 53.0883 45.4923C52.9141 45.4861 50.6668 45.0836 49.572 44.8617C48.3277 44.6096 47.3095 44.4366 46.2163 44.2916C45.802 44.2367 45.4322 44.1541 45.3945 44.1081C45.1762 43.8414 44.3392 43.5827 44.0494 43.6923C43.6022 43.8615 40.5942 43.7562 40.2342 43.5587C40.0447 43.4548 38.8475 43.3721 36.947 43.3317C35.3031 43.2968 32.7253 43.2016 31.2187 43.1201C29.5693 43.031 27.9889 43.0197 27.2467 43.0919C25.9133 43.2216 25.5805 43.2093 24.4543 42.9889C23.9533 42.8909 23.6328 42.8903 23.4561 42.9871C23.3093 43.0675 22.9288 43.0887 22.5834 43.0357C22.226 42.9809 21.9003 43.0012 21.8011 43.0846C21.7076 43.1632 21.2613 43.2627 20.8094 43.3058C18.0478 43.5692 16.519 43.8015 16.4151 43.9734C16.3748 44.0401 16.1278 44.0946 15.8661 44.0946C15.6045 44.0946 15.1692 44.1892 14.8987 44.3047C14.6283 44.4203 14.2641 44.5149 14.0894 44.5149C13.9147 44.5149 13.7381 44.5708 13.6968 44.6391C13.6555 44.7074 13.4138 44.8032 13.1596 44.8519C12.9055 44.9007 12.5884 45.064 12.455 45.2147C12.3216 45.3655 12.1586 45.4548 12.0928 45.4132C11.8684 45.2714 11.0136 46.376 10.7929 47.093C10.672 47.4856 10.5002 47.9644 10.4111 48.1571C10.3127 48.3695 10.2875 48.7002 10.347 48.9976C10.401 49.2672 10.4773 49.8976 10.5166 50.3984C10.6171 51.6785 10.9272 53.1899 11.1978 53.7184C11.3476 54.0111 11.4273 54.5005 11.4273 55.1277C11.4273 55.8211 11.5226 56.3376 11.7697 56.9824C11.958 57.4739 12.1121 58.0216 12.1121 58.1996C12.1121 58.3777 12.1737 58.5233 12.2491 58.5233C12.3244 58.5233 12.386 58.5805 12.386 58.6503C12.386 58.7998 13.1251 60.4292 13.3766 60.8341C13.4721 60.9878 13.6581 61.2813 13.7899 61.4861C13.9217 61.6909 14.0296 61.9821 14.0296 62.1332C14.0296 62.2843 14.1435 62.5582 14.2826 62.742C14.4218 62.9257 14.5743 63.2382 14.6216 63.4365C14.7079 63.7988 14.825 63.9925 15.9698 65.6676C16.312 66.1684 16.691 66.7673 16.812 66.9984C16.9822 67.3236 18.4352 69.0088 19.1972 69.7647C20.8022 71.3569 21.6754 72.1351 21.9303 72.2005C22.1048 72.2453 22.2475 72.3352 22.2475 72.4003C22.2475 72.5037 23.4509 73.7925 23.5474 73.7925C23.595 73.7925 24.8504 74.58 25.8086 75.211C26.8337 75.886 29.5995 77.3654 30.2036 77.5618C30.4739 77.6497 30.9023 77.878 31.1556 78.0691C31.7131 78.4898 33.6088 79.2558 34.0924 79.2558C34.2842 79.2558 34.5601 79.1797 34.7055 79.0869C34.919 78.9505 35.0175 78.96 35.2172 79.1361C35.9385 79.7721 37.8437 80.5165 38.7504 80.5165C39.065 80.5165 39.3665 80.5616 39.4204 80.6167C39.5979 80.7983 40.7944 81.0644 41.4616 81.0706C41.8221 81.0742 42.2535 81.1641 42.4204 81.2707C42.5872 81.3773 43.1296 81.5041 43.6256 81.5524C44.1217 81.6007 44.7812 81.7656 45.0914 81.9189C45.7027 82.221 46.6272 82.294 46.6272 82.0403C46.6272 81.9285 46.684 81.9312 46.8238 82.0499C46.953 82.1596 47.4808 82.2052 48.3646 82.1831C49.1934 82.1622 49.8237 82.2123 50.0081 82.3135C50.3976 82.5272 50.4622 82.5207 50.4622 82.2676C50.4622 82.1081 50.6355 82.0563 51.1813 82.0527C51.6028 82.0501 52.1271 81.9359 52.4482 81.7773C53.1443 81.4334 53.3043 81.4341 53.8654 81.7843C54.4461 82.1464 54.3902 82.4534 53.5837 83.3321C52.8473 84.1346 51.8337 84.7478 50.9432 84.9295C50.2769 85.0655 50.2568 85.0839 50.2568 85.5575C50.2568 86.093 49.933 86.2865 49.5628 85.9724C49.2932 85.7435 48.8187 86.1686 48.8187 86.6389C48.8187 86.8233 48.603 87.3191 48.3393 87.7406C48.0756 88.1622 47.8599 88.567 47.8599 88.6403C47.8599 88.7136 47.6844 89.0434 47.4699 89.3731C46.545 90.7945 45.772 92.2431 45.7406 92.6138C45.722 92.8337 45.6211 93.0692 45.5164 93.137C45.4117 93.2048 45.383 93.2612 45.4527 93.2624C45.5223 93.2632 45.4523 93.4063 45.297 93.5797C44.9235 93.9966 44.4161 95.0346 44.2869 95.6459C44.2299 95.9156 44.0888 96.3884 43.9732 96.6966C43.8576 97.0047 43.7603 97.4649 43.757 97.7191C43.7541 97.9734 43.6669 98.3516 43.5642 98.5596C43.4614 98.7677 43.3345 99.2846 43.2821 99.7084C43.2297 100.132 43.0977 100.619 42.9888 100.79C42.8648 100.985 42.7977 101.417 42.8094 101.945C42.8196 102.408 42.7656 102.867 42.6894 102.964C42.4425 103.278 42.3442 104.22 42.3418 106.292C42.3389 108.733 42.4412 109.863 42.7011 110.269C42.8332 110.475 42.873 110.805 42.8261 111.305C42.7647 111.959 42.7961 112.078 43.1171 112.406C43.358 112.653 43.4771 112.925 43.4771 113.23C43.4771 113.48 43.5692 113.865 43.6817 114.086C43.7942 114.307 43.8867 114.587 43.8871 114.709C43.8875 114.831 44.0325 115.009 44.2091 115.106C44.4399 115.232 44.5135 115.372 44.4705 115.602C44.4375 115.778 44.5163 116.131 44.6455 116.387C44.9122 116.914 46.373 118.906 46.6912 119.176C46.8067 119.274 46.9012 119.437 46.9012 119.538C46.9012 119.639 47.0861 119.856 47.3121 120.021C47.5381 120.185 47.723 120.398 47.723 120.494C47.723 120.589 48.0578 120.963 48.467 121.325C48.8762 121.686 49.2502 122.108 49.2981 122.262C49.3507 122.432 49.5053 122.542 49.6904 122.542C49.8682 122.542 50.2221 122.781 50.5372 123.115C50.835 123.43 51.4238 123.867 51.8458 124.087C52.2677 124.306 52.7957 124.644 53.0191 124.836C53.4545 125.211 54.4411 125.665 54.6697 125.596C54.7462 125.573 55.0635 125.762 55.3748 126.016C55.8791 126.427 55.9409 126.543 55.9409 127.075C55.9409 127.403 55.8504 127.794 55.7398 127.944C55.6292 128.093 55.5346 128.152 55.5295 128.075C55.5058 127.715 55.1282 128.695 55.1239 129.127C55.121 129.464 55.0326 129.674 54.8452 129.794C54.6945 129.89 54.5712 130.082 54.5712 130.22C54.5712 130.358 54.4947 130.549 54.4012 130.645C54.2867 130.762 54.2777 130.851 54.3737 130.918C54.4621 130.98 54.5166 131.842 54.5172 133.188C54.5176 134.383 54.5659 135.77 54.6241 136.27C54.7601 137.44 55.4923 140.01 55.8304 140.504C55.974 140.714 56.073 140.981 56.0504 141.098C55.9994 141.362 58.0079 142.931 58.6801 143.153C58.9438 143.24 59.2211 143.359 59.2965 143.417C59.6021 143.653 60.3787 143.715 60.953 143.551C61.4273 143.415 61.5972 143.415 61.7564 143.55C62.0736 143.82 63.1223 143.345 63.6141 142.71C63.8368 142.423 64.2199 142.087 64.4655 141.965C65.5665 141.418 66.2533 140.709 66.8962 139.455C67.2425 138.78 67.6311 138.101 67.7598 137.948C67.8885 137.794 67.9937 137.614 67.9937 137.547C67.9937 137.48 68.0968 137.181 68.2227 136.883C68.3486 136.585 68.4745 136.025 68.5024 135.64C68.5303 135.255 68.6071 134.782 68.6731 134.59C68.7392 134.397 68.8283 133.469 68.8714 132.528C68.944 130.94 68.9797 130.766 69.362 130.131C69.5887 129.754 69.7743 129.346 69.7743 129.224C69.7743 128.861 70.0055 128.809 71.7439 128.775C73.723 128.738 73.997 128.68 74.388 128.222C74.5547 128.026 74.9412 127.813 75.2605 127.739C75.5758 127.667 76.0267 127.42 76.2624 127.191C76.4981 126.961 77.0608 126.585 77.5128 126.353C78.3418 125.929 78.6991 125.605 79.1427 124.876C79.2821 124.646 79.6989 124.33 80.1241 124.131C80.5306 123.941 80.9019 123.721 80.9492 123.643C80.9965 123.564 81.2098 123.392 81.4231 123.259C81.9312 122.943 85.056 119.551 85.5029 118.83C85.694 118.522 86.1128 117.986 86.4337 117.639C87.0501 116.973 87.397 116.51 88.2168 115.258C88.4942 114.834 88.7725 114.466 88.8353 114.441C88.8981 114.415 88.9494 114.288 88.9494 114.158C88.9494 114.028 89.0936 113.703 89.2699 113.434C89.6934 112.79 90.0451 111.697 90.0451 111.025C90.0451 110.727 90.1719 110.23 90.3268 109.919C90.8795 108.811 90.9483 102.111 90.4231 100.549C90.3066 100.202 90.1718 99.572 90.1236 99.1483C89.9209 97.3634 86.9307 92.3729 89.3087 93.2726C89.6957 93.419 90.319 94.3053 90.319 94.7091C90.319 94.8974 90.4175 95.1351 90.5378 95.2372C90.9213 95.5628 91.5213 97.078 91.7536 98.3078C91.8773 98.9627 92.1008 100.013 92.2502 100.641C92.4057 101.295 92.4833 101.942 92.4315 102.153C92.3693 102.407 92.4144 102.604 92.5762 102.787C92.7795 103.017 92.7887 103.123 92.6442 103.571C92.5411 103.89 92.5109 104.383 92.5654 104.857C92.6223 105.353 92.5984 105.694 92.4983 105.817C92.4128 105.923 92.384 106.118 92.4343 106.252C92.616 106.737 92.6927 109.399 92.5278 109.504C92.4416 109.558 92.3562 109.857 92.338 110.167C92.3146 110.567 92.2454 110.727 92.0996 110.718C91.9475 110.709 91.9041 110.83 91.9326 111.188C91.9537 111.454 91.9298 111.628 91.8777 111.576C91.7131 111.407 91.4282 111.955 91.5076 112.287C91.5564 112.491 91.492 112.712 91.3301 112.895C91.0861 113.171 91.0858 113.189 91.3219 113.366C91.4772 113.482 91.5144 113.584 91.4228 113.642C91.343 113.692 91.2776 113.667 91.2776 113.585C91.2776 113.504 91.2259 113.437 91.1626 113.437C90.9748 113.437 90.7298 114.115 90.7298 114.634C90.7298 115.095 90.6379 115.184 90.22 115.129C89.9789 115.098 89.8276 115.821 90.0464 115.959C90.314 116.129 90.095 116.519 89.7324 116.519C89.435 116.519 88.6753 117.163 88.6753 117.415C88.6753 117.476 88.5462 117.712 88.3885 117.938C88.1413 118.293 88.0491 118.526 88.0009 118.915C87.9954 118.962 87.7285 119.171 87.4083 119.38C87.0882 119.589 86.6584 120.024 86.4533 120.346C85.5833 121.712 85.33 122.062 85.0835 122.241C84.9402 122.345 84.7673 122.58 84.6992 122.764C84.6311 122.947 84.1981 123.381 83.7368 123.728C83.2756 124.075 82.7636 124.564 82.5991 124.813C82.4345 125.063 82.0856 125.407 81.8238 125.578C81.3234 125.904 80.6271 126.442 79.4986 127.375C79.126 127.683 78.5575 128.142 78.2353 128.395C77.9132 128.648 77.4647 129.002 77.2387 129.182C77.0127 129.361 76.6737 129.556 76.4854 129.615C76.2971 129.674 75.878 129.903 75.554 130.125C75.2301 130.346 74.8603 130.528 74.7322 130.529C74.6042 130.529 74.1912 130.671 73.8146 130.844C73.2666 131.095 72.8794 131.158 71.8771 131.158H70.6244L70.5354 131.788C70.4865 132.135 70.4498 132.954 70.4537 133.609C70.4574 134.264 70.3929 135.052 70.3097 135.36C70.2266 135.668 70.1108 136.267 70.0525 136.691C69.9318 137.569 69.7811 138.026 69.1378 139.462C68.2477 141.45 67.1458 142.853 65.4563 144.147C64.7327 144.702 64.6011 144.819 64.3303 145.153C64.2363 145.269 63.9282 145.402 63.6455 145.45C63.3627 145.497 63.0081 145.59 62.8574 145.655C62.7068 145.721 62.1418 145.811 61.602 145.855C61.0622 145.9 60.5383 145.961 60.4378 145.992C60.3373 146.023 59.9778 145.958 59.6388 145.848L59.6393 145.846ZM92.6028 90.6519C92.532 90.2059 92.5794 90.0832 92.9801 89.6732C93.4264 89.2169 93.4365 89.1806 93.367 88.2943C93.3182 87.6728 93.3502 87.3166 93.4678 87.1716C93.6128 86.9929 93.5929 86.9593 93.3419 86.9593C92.7249 86.9593 91.1579 87.7888 90.128 88.6608L89.0766 89.5508L89.5953 90.004C89.9304 90.2968 90.2613 90.4579 90.5301 90.4593C90.759 90.4602 91.2212 90.6105 91.5573 90.7928C91.8935 90.975 92.2844 91.1326 92.4261 91.143C92.6478 91.1592 92.6724 91.0909 92.6028 90.6519ZM87.5187 87.7341C87.6481 87.4173 87.7842 87.2746 87.9099 87.3239C88.0158 87.3655 88.3536 87.2374 88.6604 87.0393C88.9672 86.8412 89.3448 86.6791 89.4995 86.6791C89.8466 86.6791 91.0256 86.0798 91.2693 85.7795C91.368 85.6579 91.5215 85.5584 91.6104 85.5584C91.6993 85.5584 92.0268 85.3669 92.3381 85.1327C93.1457 84.5252 93.2823 84.009 92.9903 82.6669C92.8637 82.0845 92.7903 81.4894 92.8274 81.3445C92.8644 81.1995 92.7776 80.8457 92.6344 80.5584C92.4911 80.271 92.3739 79.7951 92.3739 79.5008C92.3739 78.7559 92.0318 78.6432 91.5526 79.2303C91.3531 79.4748 91.0993 79.6749 90.9887 79.6749C90.7763 79.6749 89.0763 80.7398 88.2491 81.3909C87.9799 81.6028 87.6684 81.7761 87.5568 81.7761C87.4453 81.7761 87.2092 81.9337 87.0323 82.1264C86.8554 82.319 86.6409 82.4766 86.5556 82.4766C86.4704 82.4766 86.1884 82.6378 85.9289 82.8349C85.6695 83.032 85.2415 83.2881 84.9778 83.404C84.7141 83.5199 84.2519 83.7361 83.9506 83.8844C83.6299 84.0423 83.2749 84.119 83.0945 84.0694C82.6828 83.9564 82.7024 84.2092 83.1274 84.494C83.3151 84.6198 83.7449 85.0052 84.0826 85.3507C84.4203 85.6961 84.7599 85.9787 84.8372 85.9787C84.9145 85.9787 84.9778 86.1213 84.9778 86.2957C84.9778 86.47 85.0927 86.6749 85.2332 86.7509C85.3737 86.827 85.8791 87.1886 86.3563 87.5546C86.8336 87.9206 87.2456 88.22 87.2721 88.22C87.2985 88.22 87.4095 88.0014 87.5187 87.7341ZM82.3755 83.2378C82.3755 83.1943 82.3134 83.0398 82.2374 82.8947C82.1365 82.7019 82.1619 82.4969 82.3313 82.1335C82.5425 81.6805 82.6144 81.6361 83.1374 81.6361C83.7316 81.6361 84.5391 81.3582 84.8614 81.0428C85.2105 80.7013 85.7902 80.3753 86.0485 80.3753C86.1906 80.3753 86.5164 80.218 86.7723 80.0257C87.0283 79.8333 87.5459 79.5243 87.9225 79.3389C88.2992 79.1535 88.7435 78.8695 88.9098 78.708C89.0762 78.5463 89.2861 78.4141 89.3763 78.4141C89.4665 78.4141 89.731 78.2656 89.9641 78.0841C90.1972 77.9026 90.5149 77.713 90.6702 77.6628C90.8255 77.6126 91.1444 77.3671 91.379 77.1173C91.7967 76.6724 91.8019 76.6501 91.6335 76.0327C91.5389 75.686 91.4238 75.3078 91.3778 75.1922C91.1483 74.6165 90.8673 73.6103 90.8673 73.3643C90.8673 73.2119 90.8072 72.9777 90.7338 72.8439C90.6604 72.7101 90.5091 72.3634 90.3976 72.0734C90.2861 71.7833 90.1033 71.5102 89.9915 71.4663C89.7658 71.3777 84.6613 73.9351 84.2186 74.3586C84.0647 74.5058 83.7312 74.7002 83.4775 74.7907C83.2238 74.8812 82.6717 75.188 82.2507 75.4726C81.8297 75.7572 81.3465 76.0649 81.177 76.1564C81.0075 76.2479 80.8688 76.4053 80.8688 76.5062C80.8688 76.7634 80.3678 77.1995 80.1965 77.0912C80.1186 77.0419 79.9017 77.1043 79.7146 77.2297C79.5274 77.3551 79.3149 77.4201 79.2423 77.3742C79.1697 77.3283 78.9886 77.4489 78.8399 77.6423C78.534 78.04 78.1694 78.0901 77.7791 77.7882C77.1235 77.281 77.1311 77.8379 77.7874 78.3731C78.051 78.5883 78.2668 78.8319 78.2668 78.9144C78.2668 79.2961 81.8611 83.3171 82.2022 83.3171C82.2976 83.3171 82.3755 83.2815 82.3755 83.2378ZM76.7025 76.3618C76.649 76.2193 76.7273 76.0242 76.9063 75.8535C77.146 75.6252 77.3172 75.5912 77.8824 75.6596C78.547 75.7401 78.5726 75.7299 78.7224 75.3239C78.8107 75.0849 78.9664 74.9167 79.0854 74.932C79.3335 74.9639 81.0432 74.1222 82.1015 73.4471C82.5159 73.1828 83.1322 72.8337 83.4712 72.6713C83.8102 72.5089 84.3033 72.2598 84.5669 72.1177C84.8306 71.9755 85.8546 71.4272 86.8426 70.8991C89.3294 69.57 89.3083 69.5867 89.1306 69.087C89.0506 68.8622 88.7502 67.9218 88.4631 66.9973C88.1759 66.0727 87.8888 65.2445 87.8249 65.1568C87.6695 64.9431 86.2407 64.7678 86.032 64.9368C85.9418 65.0098 85.6404 65.1446 85.3622 65.2362C85.084 65.3278 84.5601 65.64 84.198 65.9299C83.8359 66.2198 83.324 66.5417 83.0603 66.6453C81.7586 67.1569 78.9811 68.6147 78.6878 68.9402C78.4798 69.171 78.2112 69.3087 77.9687 69.3087C77.7187 69.3087 77.5817 69.3819 77.5817 69.5156C77.5817 69.7765 76.9951 70.1767 76.5373 70.2281C76.3457 70.2496 76.0643 70.3824 75.9118 70.5234C75.7594 70.6643 75.5295 70.7618 75.4009 70.7401C75.2654 70.7172 75.0893 70.8496 74.9817 71.0553C74.8354 71.3348 74.6907 71.4099 74.2988 71.4099C74.0253 71.4099 73.7285 71.3353 73.6394 71.2442C73.5503 71.153 73.4342 71.1225 73.3814 71.1764C73.3287 71.2303 73.3585 71.3491 73.4477 71.4403C73.5368 71.5314 73.6098 71.7076 73.6098 71.8318C73.6098 71.956 73.7947 72.1975 74.0207 72.3683C74.2467 72.5392 74.4316 72.8058 74.4316 72.9607C74.4316 73.2928 74.6767 73.6708 75.9429 75.2913C76.0156 75.3844 76.0751 75.5752 76.0751 75.7154C76.0751 76.0234 76.4453 76.593 76.6454 76.593C76.7246 76.593 76.7501 76.489 76.7025 76.3618ZM73.2868 69.7639C73.9914 69.4373 75.2533 68.5906 75.2533 68.4446C75.2533 68.3805 75.5536 68.3281 75.9207 68.3281C76.5373 68.3281 76.6318 68.2796 77.1627 67.6905C77.5103 67.3048 77.8335 67.0696 77.9809 67.0951C78.1148 67.1183 78.3326 67.0456 78.4647 66.9334C78.5969 66.8212 78.7937 66.7161 78.9021 66.6998C79.2536 66.647 80.32 66.1598 80.3205 66.0517C80.3208 65.9939 80.4155 65.9466 80.531 65.9466C80.6465 65.9466 81.0451 65.789 81.4167 65.5964C81.7884 65.4038 82.1925 65.2462 82.3149 65.2462C82.4373 65.2462 82.7881 65.0267 83.0946 64.7584C83.401 64.4901 84.2402 63.9817 84.9595 63.6285C86.0486 63.0937 86.3197 63.0108 86.5813 63.1327C86.9582 63.3083 86.9569 63.3371 86.6325 62.0243C86.2995 60.6772 86.0893 60.0786 85.796 59.6429C85.6663 59.4502 85.4271 58.9774 85.2644 58.5922C84.8339 57.573 84.7789 57.4891 84.4166 57.2985C83.8443 56.9975 83.1756 57.0919 82.6547 57.5473C82.3939 57.7753 82.0682 57.9618 81.9311 57.9618C81.5981 57.9618 80.3211 58.6304 80.3211 58.8047C80.3211 58.8805 80.233 58.9424 80.1254 58.9424C80.0178 58.9424 79.8483 59.0251 79.7488 59.1261C79.6492 59.2271 79.2596 59.4636 78.883 59.6514C78.5063 59.8393 78.0447 60.1349 77.8571 60.3083C77.6696 60.4816 77.4716 60.6234 77.4172 60.6234C77.3627 60.6234 76.9383 60.9701 76.474 61.3939C76.0096 61.8177 75.5767 62.1644 75.5119 62.1644C75.447 62.1644 75.3007 62.3929 75.1866 62.6721C75.0004 63.1279 74.9384 63.1716 74.5808 63.0984C74.2987 63.0407 74.1595 63.0781 74.1037 63.2269C74.0604 63.3424 73.7689 63.5541 73.4561 63.6974C73.1432 63.8406 72.6551 64.232 72.3714 64.567L71.8555 65.1762L71.3655 64.9103C70.6356 64.5143 70.3941 64.0706 70.6074 63.5173C70.8096 62.9927 71.2626 62.4445 71.494 62.4445C71.5845 62.4445 71.7408 62.3434 71.8411 62.2198C71.9414 62.0962 72.1603 61.9419 72.3275 61.8769C72.522 61.8012 72.6474 61.6173 72.6755 61.3661C72.7153 61.0113 72.7812 60.9664 73.3629 60.898C73.8077 60.8457 74.1751 60.6835 74.5533 60.3727C74.8542 60.1254 75.1382 59.923 75.1844 59.923C75.2306 59.923 75.6194 59.6796 76.0485 59.3821C76.4775 59.0845 77.1675 58.6659 77.5818 58.4518C77.9961 58.2376 78.7665 57.7654 79.2939 57.4024C80.1973 56.7804 80.5792 56.5441 81.6053 55.9723C81.8406 55.8412 82.2181 55.7288 82.4441 55.7225C82.9489 55.7086 83.4713 55.2864 83.4713 54.8925C83.4713 54.7315 83.4113 54.5998 83.3381 54.5998C83.1678 54.5998 82.1818 53.15 81.8888 52.4688C81.6238 51.8527 81.3117 51.7194 80.6541 51.9414C80.3876 52.0313 80.0251 52.0678 79.8484 52.0225C79.5062 51.9347 78.2426 52.1326 77.7872 52.3454C77.6366 52.4157 77.236 52.601 76.897 52.7569C73.5514 54.2964 73.5194 54.3169 73.2674 55.0901C73.1447 55.4666 73.0512 55.5226 72.3691 55.6274C71.66 55.7363 71.5826 55.787 71.2413 56.3648C71.0398 56.706 70.7204 57.0573 70.5314 57.1453C70.3418 57.2337 70.1138 57.5149 70.0225 57.7731C69.9315 58.0304 69.7433 58.2778 69.6042 58.323C69.4651 58.3681 69.0711 58.6836 68.7287 59.024C68.3863 59.3644 68.028 59.6429 67.9325 59.6429C67.8128 59.6429 67.8578 59.8493 68.0778 60.3083C68.2531 60.6742 68.3985 61.051 68.4009 61.1455C68.4036 61.2401 68.5592 61.4207 68.7476 61.5469C68.9359 61.6731 69.09 61.8671 69.09 61.9781C69.09 62.4376 70.647 65.633 71.4869 66.8972C71.6752 67.1807 71.8306 67.5713 71.8323 67.7653C71.8351 68.1708 72.2756 69.228 72.4998 69.3697C72.5829 69.4223 72.6511 69.5877 72.6511 69.7372C72.6511 70.0673 72.6341 70.0665 73.2868 69.7639ZM67.9269 57.1819C68.2079 57.128 68.457 56.9863 68.4956 56.8585C68.5335 56.7334 68.6336 56.4734 68.7184 56.2808C68.803 56.0882 68.8748 55.8676 68.8778 55.7905C68.8806 55.7134 69.0747 55.5244 69.3086 55.3703C69.5426 55.2162 69.8819 54.9526 70.0626 54.7846C70.9212 53.9862 71.3832 53.6532 71.7607 53.5606C71.9867 53.5051 72.3608 53.2736 72.5921 53.0461C72.8424 52.7999 73.4798 52.4636 74.1672 52.2153C74.8022 51.9858 75.4789 51.6795 75.6709 51.5345C75.8629 51.3896 76.352 51.099 76.7578 50.8887C77.4063 50.5526 77.5542 50.5247 77.9802 50.6584C78.3487 50.7741 78.4894 50.7694 78.5673 50.639C78.8893 50.099 78.9114 50.0854 79.2051 50.2461C79.5674 50.4445 80.184 50.2974 80.184 50.0125C80.184 49.8946 79.841 49.2709 79.4218 48.6264C78.7216 47.5502 78.6296 47.4615 78.2918 47.5378C77.3795 47.7437 76.5331 48.0761 73.6516 49.3601C73.3356 49.5009 73.0025 49.7587 72.9113 49.933C72.8201 50.1072 72.5374 50.32 72.2831 50.4059C71.0969 50.8063 69.8419 51.7182 68.3908 53.234C67.8929 53.754 67.4183 54.1796 67.336 54.1796C67.2538 54.1796 67.0191 54.3382 66.8145 54.5322C66.4543 54.8736 66.4478 54.9058 66.6111 55.5478C66.7038 55.9124 66.811 56.3999 66.8492 56.631C66.962 57.3125 67.0268 57.4348 67.2323 57.3542C67.3393 57.3122 67.6519 57.2347 67.9269 57.1819ZM66.2136 52.0783C66.4019 51.9276 66.6597 51.803 66.7864 51.8012C66.9131 51.8003 67.1498 51.607 67.3124 51.3735C67.475 51.14 67.9605 50.7669 68.3914 50.5444C68.8222 50.322 69.2557 50.0403 69.3545 49.9184C69.4534 49.7966 69.5943 49.6969 69.6676 49.6969C69.741 49.6969 69.9645 49.578 70.1645 49.4328C70.3644 49.2876 70.8362 48.9963 71.2128 48.7855C71.5895 48.5747 72.0826 48.2307 72.3086 48.0211C72.5345 47.8115 73.1389 47.5032 73.6516 47.336C74.8235 46.9539 75.9524 46.3742 76.1856 46.0349C76.284 45.8917 76.465 45.7745 76.5879 45.7745C76.7564 45.7745 76.7147 45.6715 76.4175 45.3542C76.201 45.1231 75.954 44.934 75.8687 44.934C75.7834 44.934 75.4559 44.7085 75.141 44.4328C74.8261 44.1571 74.5685 43.9664 74.5685 44.0091C74.5685 44.0517 74.4092 44.0246 74.2146 43.9489C73.9188 43.8339 73.819 43.8632 73.6072 44.1275C73.3837 44.4062 73.3186 44.4218 73.0583 44.2594C72.6835 44.0256 71.0074 43.8622 71.0074 44.0595C71.0074 44.3037 70.0012 45.2141 69.7314 45.2141C69.5901 45.2141 69.2953 45.3447 69.0762 45.5043C68.8571 45.6638 68.5394 45.7829 68.3703 45.7689C67.8298 45.7242 67.7202 45.7687 67.7202 46.0329C67.7202 46.4325 67.2388 46.8007 66.8226 46.7194C66.5306 46.6623 66.4143 46.7312 66.202 47.0873C66.0583 47.3283 65.9405 47.7304 65.9402 47.9808C65.9399 48.2312 65.87 48.4361 65.7849 48.4361C65.6823 48.4361 65.6538 48.6506 65.7004 49.0733C65.739 49.4238 65.7145 49.9667 65.6457 50.2796C65.5585 50.6763 65.5686 50.9079 65.6791 51.044C65.7772 51.1649 65.8042 51.4525 65.75 51.7989C65.6516 52.4282 65.7227 52.4711 66.2136 52.0783ZM68.542 43.253C68.6943 42.9619 68.5987 42.9056 68.2108 43.0578C68.0917 43.1046 67.9942 43.2307 67.9942 43.338C67.9942 43.6315 68.3749 43.5724 68.542 43.253ZM64.4739 42.7659C64.8353 42.6537 65.3578 42.3707 65.635 42.137C65.9123 41.9033 66.2676 41.7121 66.4246 41.7121C66.5817 41.7121 66.8912 41.5189 67.1124 41.2828C67.461 40.9105 67.5783 40.8656 67.994 40.9451C68.2578 40.9955 68.5511 41.1023 68.6459 41.1824C68.7501 41.2705 69.0209 41.2864 69.3307 41.2227C69.6126 41.1648 70.4555 41.1093 71.204 41.0995L72.5647 41.0817L72.6871 40.5914C72.7544 40.3217 72.8662 40.0412 72.9356 39.968C73.0051 39.8948 73.0619 39.5008 73.0619 39.0925C73.0619 38.6841 73.1235 38.35 73.1988 38.35C73.2742 38.35 73.3358 38.1864 73.3358 37.9864C73.3358 37.7864 73.4648 37.4375 73.6225 37.211C73.7802 36.9845 73.8731 36.7029 73.8289 36.5851C73.7145 36.2802 73.4971 36.4676 73.3577 36.9911C73.2921 37.2377 73.1642 37.4225 73.0736 37.4017C72.983 37.3809 72.64 37.4573 72.3115 37.5713C71.8487 37.732 71.5346 37.7486 70.9157 37.645C70.4765 37.5714 69.8955 37.5108 69.6247 37.5104C69.3224 37.51 69.0448 37.4107 68.9055 37.2533C68.7808 37.1123 68.2792 36.7916 67.7909 36.5406C67.1086 36.19 66.7393 35.8738 66.1956 35.175C65.8062 34.6746 65.4385 34.0343 65.3778 33.7513C65.3171 33.4684 65.1828 32.8588 65.0794 32.3965L64.8913 31.556L65.347 31.0303C65.5977 30.7411 65.8027 30.3573 65.8027 30.1772C65.8027 29.964 65.9221 29.7943 66.1452 29.6903C66.6192 29.4694 66.5938 29.1852 66.1109 29.307C65.9038 29.3593 65.4569 29.4484 65.118 29.5051C64.4603 29.6152 63.2254 30.3972 62.7661 30.9944C62.6101 31.1972 62.3551 31.3459 62.1633 31.3459C61.9234 31.3459 61.8308 31.423 61.8308 31.6228C61.8308 31.9278 62.4246 32.4005 62.6381 32.2655C62.7121 32.2188 62.8227 32.262 62.8839 32.3619C62.945 32.4617 63.1783 32.6628 63.4024 32.8089C63.6264 32.955 63.9308 33.1899 64.0788 33.3309C64.2267 33.4719 64.4132 33.588 64.4932 33.5889C64.5732 33.5897 64.8621 33.9207 65.1353 34.3243C65.8443 35.3715 66.574 38.1776 66.2292 38.5303C66.1454 38.6161 66.0767 38.9476 66.0767 39.2669C66.0767 39.6474 65.9941 39.9192 65.837 40.0554C65.2934 40.5265 64.5241 40.8716 64.0172 40.8716C63.7217 40.8716 63.2299 40.9739 62.9244 41.0989C62.4083 41.3101 62.3508 41.3095 62.1135 41.0898C61.9687 40.9558 61.823 40.9112 61.7773 40.9869C61.6991 41.1163 63.5149 42.9743 63.7166 42.9713C63.7718 42.9706 64.1124 42.878 64.4739 42.7659ZM60.2131 38.6652C60.2539 38.161 60.274 38.1418 60.7131 38.1856C60.9647 38.2107 61.4516 38.3841 61.795 38.5708C62.4589 38.9319 62.7909 38.99 63.0018 38.7822C63.0733 38.7116 63.286 38.6328 63.4743 38.607C63.7908 38.5637 63.8222 38.4913 63.8888 37.6496C63.9758 36.5509 63.7131 35.9706 62.5768 34.7514C61.8516 33.9733 61.8441 33.9695 61.1886 34.0471C60.607 34.1159 60.4842 34.0812 60.1428 33.7511C59.7652 33.386 59.7512 33.3836 59.5607 33.649C59.4533 33.7985 59.3654 34.1064 59.3654 34.3331C59.3654 34.5599 59.2946 34.9871 59.2081 35.2825C59.0847 35.7036 59.0886 35.8664 59.2262 36.0359C59.3599 36.2006 59.4464 36.2143 59.589 36.0932C59.8156 35.9009 59.8367 35.1058 59.6212 34.8853C59.5055 34.767 59.6621 34.6682 60.2357 34.4977C60.6591 34.3718 61.0833 34.3163 61.1785 34.3743C61.7008 34.693 62.3627 35.3306 62.4253 35.5755C62.47 35.7503 62.5595 35.8173 62.6618 35.7527C62.7822 35.6766 62.8075 35.7764 62.7559 36.1238C62.7172 36.3851 62.7367 36.6996 62.7996 36.8226C62.9762 37.1688 62.2477 37.6496 61.5467 37.6496C61.0687 37.6496 60.9056 37.5693 60.528 37.1477C60.2052 36.7873 59.9877 36.6598 59.7562 36.6957C59.5521 36.7274 59.4537 36.8215 59.4878 36.9525C59.5174 37.0663 59.5569 37.38 59.5756 37.6496C59.6715 39.0286 60.1252 39.7516 60.2131 38.6652ZM71.7347 34.9337C72.0495 34.6957 72.1093 34.5644 72.0474 34.2477C72.0052 34.0322 72.0375 33.7462 72.1198 33.6119C72.235 33.4232 72.2034 33.2488 71.9805 32.8429C71.8219 32.5541 71.6922 32.2069 71.6922 32.0712C71.6922 31.9355 71.4765 31.5905 71.2128 31.3046C70.9492 31.0188 70.7335 30.7219 70.7335 30.6451C70.7335 30.5682 70.5917 30.5053 70.4184 30.5053C70.2452 30.5053 70.0413 30.4418 69.9655 30.3642C69.8843 30.2812 69.5552 30.2613 69.1663 30.3158C68.648 30.3885 68.4604 30.4879 68.2988 30.7759C68.1854 30.978 67.8549 31.2472 67.5643 31.3741C67.2518 31.5107 67.0587 31.6807 67.0914 31.7905C67.1217 31.8926 67.2251 32.3829 67.3211 32.8801C67.5022 33.8189 67.9334 34.4139 68.4393 34.4232C68.5711 34.4259 68.679 34.4907 68.679 34.5677C68.679 34.6448 68.747 34.7078 68.8301 34.7078C68.9132 34.7078 68.8025 34.4996 68.584 34.2451C68.3395 33.9602 68.1205 33.4794 68.0143 32.9943C67.8517 32.2513 67.86 32.1781 68.1577 31.7132C68.6682 30.9164 69.4509 30.8449 70.2 31.5267C70.4717 31.7739 70.7722 32.1995 70.8679 32.4725C71.0214 32.9102 71.0092 33.0342 70.7653 33.5231C70.4288 34.1975 70.1059 34.4995 69.5862 34.6261L69.1922 34.7221L69.4856 35.0415C69.7422 35.3209 69.877 35.3526 70.5622 35.2945C71.0615 35.2521 71.4866 35.1213 71.7347 34.9337ZM68.9157 113.721C68.6316 113.665 68.2618 113.487 68.0939 113.326C67.8417 113.084 67.7412 113.062 67.5148 113.197C67.3641 113.287 66.7616 113.367 66.1757 113.376C65.1145 113.391 65.1091 113.389 64.6958 112.888C63.3519 111.258 63.3683 111.305 63.112 108.308L63.0269 107.313L63.73 106.222C64.1167 105.622 64.4331 105.077 64.4331 105.011C64.4331 104.944 64.5749 104.89 64.7482 104.89C64.9216 104.89 65.4481 104.634 65.9182 104.322C66.6976 103.804 66.8268 103.762 67.3848 103.848C67.7679 103.907 68.0657 103.883 68.1815 103.785C68.3619 103.632 68.7488 103.85 69.3514 104.444C69.4576 104.549 69.7864 104.791 70.082 104.982C70.3776 105.173 70.7222 105.525 70.8477 105.765C70.9732 106.005 71.2155 106.34 71.3861 106.509C71.5739 106.696 71.663 106.906 71.6119 107.042C71.5607 107.179 71.6741 107.445 71.8992 107.719C72.2627 108.161 72.2688 108.199 72.1744 109.432C72.0697 110.801 71.7344 111.689 71.0894 112.304C70.8885 112.496 70.7315 112.801 70.7291 113.004C70.7192 113.798 70.2465 113.985 68.9157 113.721ZM68.7799 111.509C68.9483 111.413 69.1439 111.334 69.2145 111.334C69.4157 111.334 70.1111 110.559 70.172 110.266C70.2021 110.122 70.2295 109.719 70.2328 109.373C70.2411 108.579 69.3801 106.707 68.8408 106.343C68.4012 106.046 67.4848 105.986 67.3865 106.248C67.3464 106.355 67.0963 106.431 66.7826 106.431C66.4881 106.431 66.1846 106.51 66.108 106.606C65.8379 106.946 65.3918 107.843 65.3918 108.046C65.3918 108.159 65.3457 108.252 65.2891 108.252C65.2326 108.252 65.176 108.689 65.1633 109.222C65.146 109.947 65.1893 110.211 65.3345 110.268C65.4475 110.313 65.529 110.537 65.5293 110.804C65.5297 111.213 65.5942 111.291 66.1129 111.509C66.4335 111.644 66.8642 111.754 67.0699 111.754C67.2939 111.754 67.5117 111.865 67.6128 112.031C67.7794 112.303 67.7859 112.303 68.1275 111.996C68.3178 111.824 68.6114 111.605 68.7799 111.509ZM124.02 85.9801C122.745 85.2943 121.896 84.5761 121.556 83.895C121.412 83.6054 121.197 83.2861 121.078 83.1855C120.96 83.0849 120.863 82.8615 120.863 82.6891C120.863 82.5167 120.703 82.1346 120.507 81.84C119.949 80.9984 119.873 80.6782 119.886 79.1987C119.905 76.8657 120.772 75.1868 122.139 74.8358C122.342 74.7836 122.543 74.6848 122.584 74.6163C122.705 74.4162 123.919 74.4727 124.716 74.7155C126.402 75.2291 126.954 75.7596 127.907 77.7838C128.763 79.6034 128.873 80.0537 128.85 81.6461C128.835 82.7249 128.784 82.9454 128.35 83.8174C128.084 84.3512 127.833 84.9011 127.791 85.0394C127.749 85.1777 127.502 85.3817 127.243 85.4926C126.983 85.6035 126.732 85.7592 126.684 85.8385C126.556 86.0499 125.57 86.5399 125.285 86.5337C125.15 86.5311 124.581 86.2817 124.02 85.9801ZM126.595 83.0983C126.906 82.4336 127.017 81.9527 127.03 81.2158C127.039 80.7918 126.727 79.3525 126.607 79.2546C126.56 79.2161 126.416 78.8992 126.287 78.5504C125.976 77.708 125.227 76.9141 124.59 76.7516C123.532 76.4819 123.217 76.4622 123.06 76.6561C122.974 76.7613 122.699 76.9469 122.449 77.0685C121.91 77.33 121.809 77.6604 121.74 79.3947C121.692 80.5978 121.788 81.0122 122.246 81.566C122.373 81.7201 122.592 82.0672 122.731 82.3373C123.175 83.1939 123.876 83.7543 123.876 83.252C123.876 83.0411 124.319 82.7303 124.716 82.6618C124.852 82.6384 125.02 82.7922 125.144 83.0535C125.344 83.4762 125.866 83.8782 126.136 83.8174C126.211 83.8004 126.418 83.4768 126.595 83.0983ZM63.4287 79.8617C63.3785 79.8103 63.3374 79.6646 63.3374 79.5379C63.3374 79.4111 63.2141 79.1721 63.0635 79.0067C62.9128 78.8413 62.7895 78.5283 62.7895 78.3111C62.7895 78.0939 62.6955 77.7788 62.5805 77.611C62.4013 77.3493 62.3935 77.1203 62.5258 76.0039C62.7 74.5341 62.7145 74.4918 63.0453 74.4918C63.1771 74.4918 63.4046 74.3992 63.5509 74.2861C63.7024 74.1689 64.1204 74.0785 64.5228 74.076C65.1305 74.0724 65.3119 74.1404 65.824 74.5657C67.0812 75.6098 67.0131 75.5051 67.0153 76.3972C67.0163 76.8516 66.9135 77.5335 66.7867 77.9124C66.5961 78.4818 66.4371 78.6773 65.8712 79.0377C65.2307 79.4458 64.0032 79.9573 63.6684 79.9557C63.5868 79.9554 63.4789 79.913 63.4287 79.8617ZM65.0114 77.3082C65.6265 77.069 65.2679 75.8926 64.5799 75.8926C64.0072 75.8926 63.829 76.5287 64.2354 77.1222C64.4734 77.4697 64.5494 77.4879 65.0114 77.3082ZM36.6071 65.1873C35.9729 64.7963 35.7357 64.7224 35.3051 64.7814C34.598 64.8784 34.3196 64.5563 34.2445 63.5545C34.1064 61.7135 33.847 60.2514 33.578 59.7983C33.3102 59.3473 33.3081 59.3143 33.5378 59.1425C33.6708 59.043 33.8753 58.9992 33.9922 59.0451C34.1643 59.1127 34.1871 59.0563 34.1119 58.7499C34.0292 58.4127 34.0726 58.3483 34.5083 58.1621C34.7774 58.0471 35.0372 57.8472 35.0857 57.718C35.1342 57.5888 35.3318 57.3396 35.5249 57.1643C35.8376 56.8804 36.0103 56.8471 37.1086 56.8587C37.7866 56.8658 38.4029 56.9116 38.4782 56.9604C38.7837 57.158 39.5988 57.3976 39.9849 57.4032C40.2932 57.4077 40.4812 57.5306 40.7382 57.8955C40.9265 58.163 41.2038 58.5443 41.3545 58.7429C42.2751 59.9564 42.7575 61.5071 42.3279 61.8718C42.2069 61.9745 42.1078 62.2401 42.1078 62.462C42.1078 62.9291 41.3681 63.6893 40.342 64.2767C39.9949 64.4754 39.4028 64.832 39.0261 65.0691C37.9684 65.7351 37.5301 65.7565 36.6071 65.1873ZM38.3871 63.4251C38.4544 62.9107 38.6066 62.8095 39.546 62.6547L40.3958 62.5146L40.4676 61.6875C40.5158 61.1324 40.4842 60.8039 40.3714 60.6886C40.279 60.5941 40.2358 60.4835 40.2754 60.443C40.315 60.4024 40.2517 60.1799 40.1346 59.9484C39.8865 59.4577 38.4584 58.6623 37.8255 58.6623C37.595 58.6623 37.2476 58.8123 37.0151 59.0125C36.7913 59.2051 36.5204 59.3627 36.4132 59.3627C36.306 59.3627 36.2183 59.4856 36.2183 59.6359C36.2183 59.7862 36.1188 59.966 35.9973 60.0356C35.8114 60.1419 35.8033 60.2139 35.9464 60.4872C36.0585 60.7016 36.0892 61.1116 36.0363 61.691C35.9586 62.5409 35.9697 62.5815 36.3716 62.9274C36.6002 63.1241 36.936 63.285 37.1179 63.285C37.3026 63.285 37.5248 63.4108 37.6211 63.5697C37.8587 63.9622 38.3284 63.8736 38.3871 63.4251ZM99.881 65.0545C98.6773 64.7575 97.7913 63.5139 97.8221 62.1644C97.8513 60.885 97.9354 59.8739 98.0452 59.4818C98.2135 58.8811 99.0431 58.3029 99.907 58.1843C100.828 58.0578 100.808 58.0578 101.482 58.1839C102.284 58.334 102.619 58.6134 103.047 59.4898C103.628 60.6779 103.691 61.5444 103.266 62.4949C103.075 62.9204 102.859 63.4313 102.785 63.6302C102.677 63.9199 102.586 63.9754 102.327 63.9089C102.064 63.8413 101.889 63.957 101.38 64.5361C101.036 64.9266 100.703 65.2387 100.639 65.2296C100.576 65.2204 100.234 65.1416 99.881 65.0545ZM100.753 62.8298C100.921 62.5023 101.044 62.161 101.027 62.0713C101.01 61.9815 101.182 61.7724 101.41 61.6065C101.951 61.2124 101.935 60.833 101.352 60.2709C100.484 59.4335 99.359 59.5798 99.359 60.5301C99.359 60.7631 99.2862 61.16 99.197 61.4121C99.0353 61.8696 99.0754 62.0525 99.4851 62.7247C99.5556 62.8403 99.6465 63.0451 99.6873 63.18C99.7321 63.3283 99.8973 63.4251 100.105 63.4251C100.371 63.4251 100.519 63.2895 100.753 62.8298ZM10.3734 61.0729C10.2583 60.998 10.2512 60.9047 10.3497 60.7598C10.4557 60.6037 10.5067 60.5961 10.5593 60.7285C10.5975 60.8248 10.7124 60.9036 10.8147 60.9036C10.917 60.9036 11.0387 60.9667 11.0853 61.0437C11.184 61.2071 10.6157 61.2304 10.3734 61.0729ZM112.037 55.6215C111.963 55.4218 111.979 55.4057 112.114 55.5431C112.207 55.6381 112.25 55.7511 112.207 55.7942C112.165 55.8374 112.089 55.7597 112.037 55.6215ZM88.7443 55.3002C-29.5815 51.34 -29.5815 51.34 88.7443 55.3002ZM111.959 55.0885C111.821 54.919 111.829 54.88 112.003 54.88C112.259 54.88 112.426 55.1084 112.252 55.219C112.184 55.262 112.052 55.2033 111.959 55.0885ZM10.4689 42.2187C10.4689 42.1892 10.5923 42.132 10.7431 42.0917C10.8938 42.0513 10.9826 42.0755 10.9404 42.1454C10.8667 42.2674 10.4689 42.3293 10.4689 42.2187ZM98.4004 34.5033C97.986 34.4167 97.4774 34.2595 97.27 34.1539C96.5616 33.7935 95.7166 32.8337 95.3484 31.9714C95.0149 31.1905 94.9904 30.9998 95.0266 29.469C95.0604 28.0409 95.1 27.7924 95.3137 27.6701C95.45 27.592 95.7918 27.3155 96.0731 27.0556C96.3544 26.7956 96.6506 26.583 96.7314 26.583C96.8122 26.583 96.9747 26.4421 97.0926 26.27C97.5578 25.5906 101.877 25.8462 102.715 26.6026C103.498 27.3097 103.581 27.4181 103.519 27.6582C103.478 27.8187 103.631 28.1109 103.929 28.4436L104.403 28.9735L104.443 30.864L104.482 32.7545L104.055 33.1912C103.469 33.7915 102.471 33.9689 101.924 33.5701L101.543 33.2929L100.754 33.907C99.8389 34.6184 99.4375 34.7201 98.4004 34.5033ZM99.6027 32.7594C100.034 32.5352 100.599 32.1254 100.858 31.8488C101.424 31.2459 101.594 31.2282 102.044 31.7252C102.319 32.0281 102.435 32.0743 102.62 31.9545C103.126 31.6266 102.698 28.9676 102.052 28.4219C101.927 28.3162 101.824 28.1158 101.824 27.9767C101.824 27.6427 100.697 27.4909 99.1783 27.6205C98.3049 27.695 98.0373 27.7715 97.8882 27.9892C97.7847 28.1403 97.591 28.264 97.4577 28.264C97.3245 28.264 97.0756 28.4162 96.9047 28.6023C96.5973 28.9369 96.5958 28.9578 96.7626 30.5027L96.9312 32.0649L97.6316 32.6078C98.0167 32.9065 98.4415 33.1545 98.5755 33.1589C98.7095 33.1633 99.1717 32.9835 99.6027 32.7594ZM64.2961 24.6218C64.2961 24.4661 64.3874 24.3416 64.5016 24.3416C64.6157 24.3416 64.707 24.4661 64.707 24.6218C64.707 24.7774 64.6157 24.902 64.5016 24.902C64.3874 24.902 64.2961 24.7774 64.2961 24.6218ZM84.7039 22.6606C84.7039 22.5835 84.7691 22.5205 84.8489 22.5205C84.9287 22.5205 84.9559 22.5836 84.9094 22.6606C84.8627 22.7377 84.7975 22.8007 84.7643 22.8007C84.731 22.8007 84.7039 22.7376 84.7039 22.6606Z" fill="black"/>
<path d="M125.277 82.9669C124.762 82.4742 124.611 82.4424 124.134 82.7271C123.442 83.1408 123.126 82.9048 122.332 81.383C121.527 79.8401 121.732 77.678 122.743 77.0437C123.503 76.5668 124.686 76.7246 125.312 77.3863C126.571 78.7178 127.173 81.4886 126.507 82.8871C126.13 83.6785 126.028 83.6852 125.277 82.9669Z" fill="#AA87DE"/>
<path d="M97.6704 32.4413C97.2452 32.1014 97.0419 31.57 96.9099 30.4527C96.7358 28.9799 96.7555 28.9104 97.4902 28.4097C98.1878 27.9343 99.4686 27.7098 100.969 27.7998C101.752 27.8467 102.635 29.4995 102.635 30.9167C102.635 31.9493 102.619 31.9695 102.129 31.5455C101.646 31.1272 101.568 31.1483 100.382 32.0148C98.9859 33.0347 98.5072 33.11 97.6704 32.4413Z" fill="#AA87DE"/>
<path d="M37.6847 63.5056C37.6421 63.3994 37.4172 63.2725 37.185 63.2237C36.3928 63.0571 36.1228 62.6096 36.0884 61.406C36.0472 59.9641 36.1914 59.5911 36.9679 59.131C37.7039 58.695 37.999 58.6675 38.6355 58.9755C39.9791 59.6258 40.5731 60.6048 40.3783 61.8482C40.2964 62.3707 40.2317 62.4566 39.869 62.5233C39.6405 62.5653 39.2538 62.6368 39.0097 62.6821C38.6786 62.7436 38.5141 62.8831 38.3619 63.2316C38.152 63.7125 37.8212 63.8463 37.6847 63.5056Z" fill="#AA87DE"/>
<path d="M64.3752 77.2703C64.3159 77.202 64.2211 77.0564 64.1644 76.9468C63.9036 76.4428 64.0755 75.9565 64.5282 75.917C65.0503 75.8714 65.4974 76.6444 65.2188 77.1111C65.143 77.2382 64.8836 77.3626 64.657 77.3806C64.489 77.3939 64.4791 77.39 64.3752 77.2703Z" fill="#AA87DE"/>
<path d="M99.9014 63.3673C99.795 63.3256 99.7274 63.2353 99.6471 63.0278C99.6061 62.9217 99.5066 62.7231 99.4261 62.5866C99.098 62.0302 99.0808 61.9229 99.2289 61.3598C99.2934 61.1149 99.3547 60.7967 99.3653 60.6527C99.3912 60.2979 99.436 60.1457 99.5553 60.0072C99.9769 59.5176 100.851 59.7233 101.499 60.4647C101.753 60.7551 101.824 60.9448 101.758 61.1625C101.729 61.26 101.64 61.3653 101.39 61.5967C101.062 61.9009 101.06 61.9033 100.995 62.1511C100.87 62.6222 100.565 63.1903 100.362 63.3288C100.257 63.4005 100.034 63.4191 99.9014 63.3673Z" fill="#AA87DE"/>
<path d="M67.5248 111.911C67.3699 111.781 67.1408 111.674 67.0157 111.674C66.6227 111.674 65.8532 111.376 65.6975 111.163C65.6154 111.051 65.5482 110.822 65.5482 110.656C65.5482 110.489 65.4804 110.299 65.3976 110.233C65.2845 110.143 65.2471 109.901 65.2471 109.259C65.2471 108.789 65.2868 108.33 65.3353 108.238C65.3837 108.147 65.5505 107.801 65.7058 107.469C66.0789 106.674 66.2724 106.486 66.7195 106.486C66.9178 106.486 67.2387 106.393 67.4324 106.278C67.7534 106.088 67.8257 106.08 68.2459 106.188C68.8101 106.332 68.9821 106.475 69.3691 107.123C69.8355 107.903 70.1649 108.932 70.1649 109.609C70.1649 110.112 70.1175 110.269 69.8473 110.659C69.6329 110.969 69.3965 111.173 69.1197 111.287C68.8942 111.38 68.5134 111.613 68.2736 111.805C68.0338 111.997 67.8305 112.153 67.822 112.151C67.8134 112.15 67.6796 112.042 67.5248 111.911Z" fill="#CCAAFF"/>
</svg>
