<svg width="60" height="129" viewBox="0 0 60 129" fill="none" xmlns="http://www.w3.org/2000/svg">
<path d="M9.42791 128.523C9.04581 127.996 9.11426 127.242 9.59883 126.638C10.0352 126.094 10.9577 125.992 20.2541 125.459C21.5821 125.383 23.2612 125.095 23.9855 124.82C24.7098 124.544 26.0432 124.265 26.9486 124.2C30.5618 123.941 35.2675 123.006 35.6559 122.471C36.0622 121.911 36.8284 118.746 37.0655 116.649C37.1783 115.651 37.4174 114.406 37.5968 113.882C37.7763 113.358 37.9232 112.511 37.9232 111.999C37.9232 111.488 38.1205 110.624 38.3613 110.08C38.6024 109.535 38.7997 108.886 38.7999 108.637C38.8005 108.106 40.1557 101.871 40.9357 98.8106C41.2323 97.6466 41.5753 96.014 41.6978 95.1825C41.8204 94.3511 42.0157 93.4196 42.132 93.1123C42.2482 92.8052 42.2966 92.4893 42.2394 92.4105C42.1823 92.3315 41.3604 92.4174 40.4134 92.6044C39.4663 92.7897 38.3458 93.0032 37.9232 93.0784C37.5007 93.1536 35.0314 93.3552 32.4359 93.5266C29.8405 93.6979 26.2847 93.9675 24.5343 94.1257C22.7838 94.2838 19.9195 94.4853 18.169 94.5733C14.0993 94.7777 12.4088 94.934 9.82835 95.3445C8.68153 95.5269 7.37283 95.6757 6.92011 95.675C5.95061 95.6737 5.91027 95.9305 6.43031 98.7912C6.61368 99.7995 6.89943 102.121 7.06545 103.95C7.2315 105.779 7.52524 108.223 7.71825 109.381C8.18161 112.161 8.73092 118.003 8.73092 120.15C8.73092 121.223 8.90016 122.389 9.18371 123.272C9.43272 124.048 9.60559 125.051 9.56781 125.503C9.50751 126.223 9.39615 126.331 8.6543 126.387C7.86639 126.447 7.81829 126.405 7.94018 125.734C8.01197 125.34 7.93045 124.018 7.75853 122.798C7.58663 121.577 7.38732 119.459 7.31548 118.09C7.2437 116.721 6.94774 113.863 6.65797 111.741C6.3682 109.618 6.02527 106.567 5.89592 104.961C5.76649 103.356 5.49961 101.043 5.30266 99.8217C5.10585 98.6004 4.89514 97.2156 4.83473 96.7445C4.72534 95.8927 4.71753 95.8889 3.47832 96.087C2.28458 96.2778 2.22065 96.2528 1.96949 95.4934C1.82517 95.0573 1.70722 94.462 1.70722 94.1705C1.70722 93.8791 1.60906 93.5054 1.48917 93.3402C1.36927 93.1752 1.17324 91.8894 1.05354 90.4832C0.83036 87.8604 0.613331 86.2513 0.154389 83.815C-0.216061 81.8485 0.0664831 80.8666 1.15031 80.3533C2.0619 79.9216 5.57818 79.321 11.8038 78.5336C17.3546 77.8315 16.8092 78.2108 16.4823 75.279C16.3309 73.9208 16.1475 71.9985 16.0748 71.0072C16.0021 70.0159 15.89 69.0876 15.8257 68.9443C15.7195 68.7079 15.624 66.3569 15.1834 53.1577C15.0803 50.0672 15.1438 47.6196 15.419 44.0876C15.6263 41.427 15.8271 38.6919 15.8652 38.0095C16.0168 35.289 16.242 33.0782 16.6315 30.4824C16.8561 28.9859 17.1545 26.741 17.2948 25.4939C17.5938 22.8358 18.0759 20.7928 18.6421 19.7843C19.0535 19.0514 19.1812 18.2325 18.8823 18.2443C18.7917 18.2474 18.5696 18.6901 18.3885 19.2269C18.0692 20.1733 18.0206 20.2014 16.7851 20.1513C15.3484 20.0932 14.4376 19.4544 14.4376 18.5054C14.4376 17.8175 14.9908 16.7242 16.2485 14.9266C16.7012 14.2796 17.0716 13.6619 17.0716 13.5542C17.0716 13.4466 16.7505 12.7214 16.3582 11.9432C15.6686 10.5753 15.6449 10.4269 15.6449 7.48236C15.6449 4.62577 15.6859 4.34525 16.3033 2.96882C17.0327 1.34307 18.6445 -0.0192929 19.8152 0.000206767C20.9908 0.0210993 23.3757 1.46202 24.0352 2.55216C25.5597 5.07197 25.7244 5.11681 27.334 3.45094C28.5548 2.1874 29.9269 1.65878 30.6335 2.1797C30.9098 2.3834 31.1021 2.93662 31.1821 3.75773C31.3334 5.31352 31.6199 5.60245 32.8444 5.43496C33.3944 5.35975 34.0481 5.47502 34.3809 5.70588C34.6994 5.92699 35.2564 6.25624 35.6185 6.43794C36.8071 7.03435 37.857 8.6243 38.8187 11.2842C39.3298 12.6976 39.8395 14.3302 39.9515 14.9122C41.0334 20.5346 40.8109 26.3482 39.2744 32.5989C38.7081 34.9026 38.3977 36.7443 38.0007 40.1573C37.8266 41.6539 37.5914 43.5586 37.4779 44.39C37.0632 47.4294 36.849 51.6227 37.0881 52.0196C37.6871 53.0138 38.8787 52.0579 40.2581 49.4765C41.8547 46.4887 42.9032 43.9798 43.205 42.4249C43.7186 39.7795 45.2166 36.0729 46.5323 34.1918C47.2297 33.1947 47.8003 32.2711 47.8003 32.1394C47.8003 31.6807 49.9919 29.735 51.2513 29.0755C52.0125 28.6769 53.0479 28.4025 53.8419 28.3889C54.9887 28.368 55.324 28.5055 56.366 29.4141C58.6663 31.4202 59.1783 32.3778 59.7664 35.7734C60.1573 38.0304 60.0345 45.878 59.5698 48.3204C58.8964 51.862 57.897 55.7378 57.2135 57.4591C56.8323 58.4191 56.283 59.8001 55.9927 60.528C55.7025 61.2559 55.1787 62.4122 54.8289 63.0978C54.0079 64.7067 50.5413 69.3328 50.1567 69.3328C49.9943 69.3328 49.4224 69.7133 48.8857 70.1783C48.0573 70.896 46.5261 71.5047 43.7811 72.2074C43.5626 72.2635 42.0446 72.1726 40.4079 72.0065C36.3998 71.5989 36.3866 71.605 36.3866 73.8763C36.3866 75.6872 36.3866 75.6873 38.5267 75.7143C39.7037 75.7317 41.605 75.7589 42.7519 75.7808C46.0277 75.8431 49.6311 75.5865 50.0284 75.2636C50.2853 75.055 50.5494 75.1118 50.9343 75.459C51.8079 76.2474 51.8473 77.2433 51.0982 79.5947C50.733 80.7409 50.4341 81.8838 50.4341 82.1346C50.4341 82.9196 47.2633 90.1024 46.68 90.8571C46.3307 91.309 46.5883 91.105 46.3563 90.9825C45.7678 90.6715 46.0843 88.7827 47.0809 86.659C47.5606 85.6366 48.1719 83.9389 48.4393 82.8864C48.7067 81.8338 49.1719 80.3262 49.4731 79.5362C49.7743 78.7461 49.9603 77.965 49.8864 77.8004C49.8032 77.6144 48.9023 77.5702 47.5141 77.6834C45.2801 77.8655 44.2457 77.8818 39.8986 77.8024C36.7506 77.745 34.212 77.9773 33.4284 78.3944C33.0689 78.5856 31.6861 78.8133 30.3555 78.9001C25.2742 79.2312 14.6731 80.2079 12.5719 80.5385C11.3647 80.7286 9.73499 80.9329 8.95031 80.9929C8.16563 81.0528 6.53592 81.2533 5.32871 81.4383C1.48842 82.0267 1.55452 81.9703 2.03556 84.2496C2.23334 85.1865 2.33434 86.0884 2.2602 86.2538C2.18598 86.4192 2.2748 87.2033 2.45749 87.9962C2.64015 88.7891 2.91646 90.3887 3.07154 91.5508C3.37674 93.8379 3.69969 94.235 4.67186 93.5184C5.05525 93.236 5.27373 93.236 5.65851 93.5197C6.16756 93.8949 7.94724 93.7742 10.1577 93.2147C10.7613 93.0618 12.638 92.872 14.3281 92.793C17.2236 92.6579 23.3428 92.1895 26.5098 91.8613C27.2945 91.7802 29.4181 91.6374 31.2289 91.5444C33.0397 91.4515 34.7682 91.3 35.07 91.2077C35.3718 91.1155 36.3101 90.9967 37.1551 90.9442C39.9392 90.7714 41.5317 90.4499 42.5057 89.8642C43.7798 89.098 47.267 87.8739 47.6272 88.8008C47.9997 89.7595 44.5953 91.8159 43.8219 91.9454C43.3558 92.0234 43.2883 92.192 43.2775 93.3059C43.2652 94.5322 42.7713 97.2577 42.334 98.5078C41.7921 100.057 40.8632 104.501 39.3641 112.718C38.9393 115.046 38.2932 118.151 37.9283 119.619C37.5634 121.087 37.2649 122.752 37.2649 123.319C37.2649 124.22 37.1618 124.411 36.4418 124.844C35.9397 125.146 34.8053 125.385 33.5335 125.457C32.3867 125.522 30.9545 125.702 30.3509 125.858C29.7473 126.013 28.3645 126.292 27.278 126.477C26.1915 126.662 24.8088 126.939 24.2051 127.092C23.6015 127.244 21.5767 127.509 19.7056 127.68C17.8344 127.851 15.5884 128.057 14.7144 128.137C12.7658 128.315 10.7507 128.586 10.1413 128.753C9.8908 128.821 9.56975 128.718 9.42791 128.523ZM25.6385 77.0548C28.2376 76.8232 30.5094 76.6526 30.6868 76.6755C30.864 76.6999 31.6706 76.6052 32.4789 76.4683C34.4418 76.1362 34.6474 75.786 34.7951 72.525C34.8647 70.9886 35.0251 69.8118 35.1909 69.6223C35.3857 69.3998 36.4168 69.398 38.617 69.6153C42.8653 70.0378 43.0306 70.0398 45.1665 69.6958C47.1824 69.3709 48.3164 68.8209 49.5424 67.5735C51.0955 65.993 53.3212 62.7939 54.1036 61.0173C54.5429 60.0196 55.0727 58.8956 55.2809 58.5197C55.4889 58.1437 55.9265 56.7832 56.253 55.4963C56.5796 54.2094 57.037 52.5083 57.2696 51.716C58.0223 49.1519 58.5421 44.1497 58.4552 40.3072C58.3663 36.3844 57.9546 34.2459 57.0511 33.0169C56.06 31.6687 54.2821 30.3301 53.4829 30.3304C52.2396 30.3308 50.2343 31.8768 48.4079 34.2431C46.8692 36.2365 46.5945 36.7802 45.3921 40.2121C44.6644 42.2888 44.0691 44.2013 44.0691 44.4622C44.0691 44.723 43.8363 45.3574 43.5519 45.8719C43.2675 46.3865 42.9692 47.0933 42.889 47.4427C42.7174 48.1915 41.146 51.0316 40.1269 52.4352C39.4537 53.3625 37.2149 55.1181 36.7023 55.1206C36.369 55.1221 35.365 53.5789 35.1954 52.804C35.1165 52.4439 35.1548 52.0617 35.2806 51.9548C35.4061 51.8479 35.5087 51.1221 35.5079 50.3421C35.5068 48.8143 35.9847 44.9848 36.5714 41.8189C36.7717 40.7381 36.9414 39.5816 36.9484 39.2491C36.9904 37.2536 37.5727 33.4964 38.1433 31.5395C38.571 30.0727 39.2403 24.7958 39.2403 22.8909C39.2403 21.7216 39.2403 21.7216 38.4662 23.3048C38.0405 24.1756 37.6107 24.8881 37.5111 24.8881C37.4115 24.8881 36.6533 25.5003 35.8262 26.2486C34.2336 27.6894 33.5371 27.8843 32.1945 27.2649C30.4079 26.4406 29.5082 24.2881 29.5624 20.9677C29.619 17.4901 30.3842 15.8255 32.9559 13.5847C33.9029 12.7596 36.6989 12.9798 37.5943 13.9501C37.9506 14.3362 38.2742 14.5195 38.3134 14.3574C38.4523 13.7831 37.3809 11.1403 36.5387 9.98028C35.4197 8.43897 34.2342 7.76434 32.2083 7.51589C30.8212 7.34562 30.3539 7.41597 29.3161 7.95088C27.5215 8.8758 24.8159 11.0944 23.4582 12.7544C23.1681 13.1091 22.8472 13.3993 22.7449 13.3993C22.6426 13.3993 22.5591 13.5588 22.5591 13.7534C22.5591 13.9481 22.395 14.3572 22.1946 14.6623C21.6841 15.4393 21.9266 15.6107 22.9822 15.2192C24.24 14.7527 26.0826 15.0305 27.1048 15.8409C28.3557 16.8325 28.5793 18.0496 28.2263 21.9453C27.9508 24.9859 27.9508 24.9859 26.517 27.0366C25.1014 29.0614 23.6349 30.2643 21.9744 30.7629C21.1552 31.0087 19.2124 29.8086 18.8279 28.8189C18.6985 28.486 18.5143 28.2138 18.4183 28.2138C18.138 28.2138 17.5496 33.1048 17.1818 38.4932C16.9945 41.2369 16.7465 44.7743 16.6307 46.354C16.3596 50.0506 16.3546 53.6643 16.6183 55.5752C16.7329 56.4066 16.8325 59.1598 16.8398 61.6932C16.8472 64.2267 16.947 66.8796 17.062 67.5888C17.177 68.2978 17.3855 70.1705 17.5255 71.7502C17.6654 73.33 17.9292 75.0222 18.1117 75.5108C18.3656 76.1908 18.3856 76.5266 18.1969 76.9428C18.0613 77.2419 17.9504 77.5646 17.9504 77.66C17.9504 77.7554 18.6171 77.753 19.4319 77.653C20.2468 77.5545 23.0393 77.2862 25.6385 77.0548ZM23.6491 27.9982C24.7535 27.4219 25.0741 27.0742 26.0294 25.4162C26.5845 24.4526 26.7075 23.9117 26.8399 21.8521C26.9874 19.5575 26.9644 19.3582 26.4205 18.2263C25.8451 17.0286 25.8451 17.0286 24.2419 17.0286C22.7204 17.0286 22.5946 17.0826 21.7757 18.0865C21.3011 18.6684 20.7916 19.1445 20.6435 19.1447C20.2186 19.145 19.6701 20.5271 19.349 22.4067C18.8419 25.3745 18.9177 25.8905 20.0657 27.2823C21.2341 28.699 22.0091 28.8538 23.6491 27.9982ZM22.2297 24.4271C21.7468 24.1876 21.327 23.9894 21.2969 23.9869C21.2668 23.9838 21.2424 23.5402 21.2431 22.9997C21.2454 21.0162 23.161 19.2329 24.2417 20.2083C24.9674 20.8632 24.882 21.8427 23.9563 23.4792C23.5177 24.2548 23.1473 24.8833 23.1332 24.8761C23.1186 24.8691 22.7126 24.6668 22.2297 24.4271ZM35.1633 24.8493C35.5165 24.5568 36.2694 23.6975 36.8365 22.9397C37.7479 21.7218 37.8808 21.3779 37.9815 19.9755C38.1236 17.9969 37.7727 16.7577 36.7736 15.7079C34.6283 13.4541 30.9237 16.39 30.9107 20.3543C30.901 23.0879 31.8981 25.3768 33.1765 25.5591C33.9869 25.6747 34.3036 25.5622 35.1633 24.8493ZM34.2775 21.6345C34.1434 21.5127 33.8693 20.9703 33.6682 20.4299C33.3429 19.5552 33.3379 19.3536 33.623 18.5938C34.0863 17.3599 34.516 16.9681 35.4065 16.9681C36.7551 16.9681 37.4308 18.3272 36.723 19.6162C36.5457 19.939 36.3976 20.4446 36.3938 20.7397C36.3814 21.56 34.8889 22.1919 34.2775 21.6345Z" fill="black"/>
<path d="M9.44293 123.402C9.15685 122.004 8.76816 118.847 8.57917 116.386C8.39017 113.925 7.84843 108.8 7.37529 104.997C6.13818 95.054 6.06467 96.0971 8.02418 95.79C10.169 95.4538 17.8037 94.7926 28.5942 94.0086C33.2852 93.6677 38.1598 93.2041 39.4266 92.9782C40.6934 92.7524 41.7858 92.6356 41.8541 92.7187C41.9224 92.8018 41.5875 94.6833 41.1099 96.9C40.6322 99.1166 39.8247 102.873 39.3154 105.248C38.8061 107.622 38.29 109.76 38.1685 109.999C38.047 110.238 37.8176 111.224 37.6586 112.19C36.7346 117.804 36.1783 120.546 35.7672 121.513C35.2559 122.715 34.0845 123.076 28.0115 123.903C26.3113 124.135 24.2042 124.504 23.3289 124.723C22.1058 125.029 12.4887 125.931 10.3315 125.942C10.1289 125.943 9.72901 124.8 9.44293 123.402Z" fill="#FF9955"/>
<path d="M3.6246 93.4784C3.49673 93.3065 3.29154 92.4173 3.0814 91.1243C2.89565 89.9814 2.65567 88.6356 2.54811 88.1336C2.44054 87.6317 2.33291 86.704 2.30892 86.0722C2.28493 85.4404 2.18467 84.568 2.08612 84.1336C1.80235 82.8829 1.84048 82.458 2.26017 82.194C2.67266 81.9346 4.99364 81.5201 7.86738 81.1927C8.97147 81.0669 10.8313 80.8383 12.0003 80.6847C15.368 80.2422 23.4166 79.4746 28.5321 79.1081C31.356 78.9058 32.8633 78.7059 33.4438 78.4569C34.4392 78.0298 35.9851 77.9164 41.1671 77.8905C44.0247 77.8762 47.0801 77.8172 47.9569 77.7594C48.9674 77.6928 49.6138 77.7066 49.7225 77.7972C49.8682 77.9186 49.8361 78.1198 49.509 79.1342C49.2972 79.791 48.8354 81.295 48.4828 82.4764C48.1302 83.6578 47.4869 85.4823 47.0532 86.5309C46.2933 88.3685 46.2496 88.4404 45.8415 88.524C45.0115 88.6941 43.9819 89.073 42.6744 89.6896C41.1917 90.3887 40.0833 90.6327 37.2798 90.8773C36.3109 90.9619 35.1684 91.0941 34.741 91.1712C34.3136 91.2482 32.3698 91.4099 30.4214 91.5307C28.4731 91.6514 25.8693 91.8434 24.6353 91.9573C21.9162 92.2083 17.1864 92.5636 15.0115 92.6801C12.646 92.8069 10.7467 93.022 9.24313 93.3333C7.6015 93.6733 6.21078 93.693 5.57858 93.3854C5.14165 93.1728 5.08806 93.1769 4.63622 93.4572C4.04338 93.8249 3.88506 93.8283 3.6246 93.4784Z" fill="#FFB380"/>
<path d="M10.0701 125.222C9.65345 124.276 9.09745 120.469 8.5411 114.754C8.25173 111.781 7.68409 106.647 7.27967 103.344C6.87525 100.041 6.60668 97.035 6.68284 96.6634C6.76494 96.2629 7.00981 95.9878 7.28428 95.9878C7.53891 95.9878 8.84236 95.854 10.1808 95.6906C11.5193 95.5271 17.7811 94.9883 24.0959 94.4933C30.4108 93.9982 36.8856 93.437 38.4844 93.246C40.0831 93.0551 41.4609 92.9835 41.546 93.087C41.7217 93.3007 40.2902 100.451 38.8613 106.497C38.3344 108.726 37.5238 112.557 37.0599 115.009C35.7515 121.928 35.6876 122.079 33.815 122.685C31.3946 123.469 19.2124 125.207 13.4905 125.585C10.5301 125.781 10.3053 125.757 10.0701 125.222Z" fill="#FFB380"/>
</svg>
