<svg width="91" height="119" viewBox="0 0 91 119" fill="none" xmlns="http://www.w3.org/2000/svg">
<path d="M46.7749 118.638C45.2703 118.045 44.0217 117.08 43.0998 115.797C41.9896 114.252 41.6535 111.441 42.387 109.834C44.8321 104.478 47.7994 97.4934 48.3724 95.7451C48.7611 94.5591 49.4943 92.4242 50.0016 91.0009C50.5089 89.5776 51.055 87.7016 51.2153 86.8318C51.6465 84.4899 52.0546 80.7329 51.8965 80.5587C51.8207 80.4749 51.3437 80.9412 50.8364 81.5945C50.2861 82.3031 49.2109 83.1641 48.1709 83.7288C46.6385 84.5609 46.1747 84.6753 44.3342 84.6753C41.6814 84.6753 40.2545 84.4137 38.2998 83.5695C35.5619 82.3868 34.3168 81.1988 32.6943 78.2211C31.8915 76.7477 30.9524 75.3698 30.6074 75.1591C29.8342 74.6868 28.5587 74.6513 27.5843 75.075C23.1709 76.9935 19.2778 76.19 16.6329 72.8149C13.7659 69.1562 13.1434 64.1904 15.0559 60.2357C15.4469 59.4272 19.8025 54.3418 21.2415 53.0137C21.6002 52.6826 22.3085 51.908 22.8156 51.2921C23.3227 50.6762 24.1738 49.8109 24.7069 49.3693C25.8376 48.4325 25.9352 48.0158 25.0241 48.0158C24.6654 48.0158 24.372 48.1274 24.372 48.2639C24.372 48.5033 23.892 48.589 19.2175 49.1854C18.0326 49.3364 16.6239 49.638 16.0872 49.8551C13.4114 50.9378 12.2141 51.1787 9.50819 51.1787C7.0989 51.1787 6.61046 51.0979 6.0406 50.6036C5.67581 50.2874 5.30785 50.0286 5.22284 50.0286C5.13776 50.0286 4.8531 49.802 4.59004 49.5254C4.32698 49.2485 3.44663 48.4002 2.63365 47.6399C1.82067 46.8796 1.15547 46.0488 1.15547 45.7936C1.15547 45.5383 1.00099 45.1254 0.812694 44.8757C-0.572967 43.0408 -0.124316 37.3296 1.68436 33.7792C2.00528 33.1489 3.34894 31.4687 4.66991 30.0455C7.07168 27.4577 7.07172 27.4577 6.90265 25.79C6.80975 24.8727 6.75494 22.9966 6.78114 21.6208C6.82402 19.3523 6.92716 18.8889 7.88596 16.6428C8.53944 15.1121 9.25063 13.9041 9.7481 13.4801C10.1908 13.1027 11.2978 11.9985 12.208 11.0263C13.757 9.37211 13.9877 9.23045 15.8079 8.81552C17.9934 8.31733 20.3985 8.5148 21.1722 9.25618C21.4254 9.49892 21.9316 9.77547 22.2967 9.87068C22.6618 9.96572 23.7183 10.5917 24.6445 11.2614C25.5706 11.9312 26.6465 12.6793 27.0353 12.924C27.4242 13.1688 28.5721 14.2423 29.5863 15.3097C30.6004 16.3772 31.5331 17.2505 31.659 17.2505C31.9084 17.2505 35.4896 21.5566 36.1954 22.7055C37.0112 24.0332 39.8871 27.7177 41.4114 29.388C43.0816 31.2182 43.7068 31.4178 44.3547 30.3278C44.9803 29.2754 45.3409 24.9219 45.0398 22.0551C44.836 20.1149 44.872 19.3406 45.2416 17.7071C45.489 16.614 45.641 15.5075 45.5796 15.248C45.4424 14.671 46.1696 9.90197 46.7096 7.83403C46.9263 7.0038 47.5465 5.70722 48.0876 4.95272C48.6286 4.19823 49.1985 3.32486 49.3539 3.01193C49.6129 2.49049 50.8994 1.67415 53.3668 0.465481C53.9215 0.193606 55.0107 -0.000627664 55.9753 1.52417e-06C58.0114 0.00132613 58.8848 0.529129 60.3486 2.6426C60.9296 3.48164 61.8473 4.8018 62.3877 5.57636C62.9282 6.35096 63.9386 7.4831 64.6329 8.09228C65.7368 9.0606 66.0679 9.19979 67.2678 9.19979C68.0226 9.19979 69.0074 9.05869 69.4562 8.88616C70.3712 8.53457 76.1151 8.98253 76.639 9.44628C76.8017 9.59033 77.2949 9.79305 77.7347 9.8965C78.2463 10.0167 79.1479 10.7798 80.2372 12.0143C83.2107 15.3837 83.9958 17.64 83.4075 21.1249C82.9695 23.7195 82.5718 24.588 81.0996 26.1638C80.4347 26.8754 78.991 28.4748 77.8912 29.718C76.7915 30.9613 75.4221 32.34 74.8482 32.7819C74.2743 33.2237 72.8895 34.57 71.7709 35.7737C70.6523 36.9773 69.3024 38.2695 68.7711 38.6451C67.6549 39.4343 66.6311 40.4605 66.6311 40.7903C66.6311 41.0558 67.2173 41.3925 69.3702 42.3628C72.4702 43.7601 73.8663 44.4495 74.4823 44.8874C74.827 45.1324 75.5123 45.4853 76.0051 45.6716C76.4979 45.8577 77.1065 46.2151 77.3574 46.4654C77.6085 46.7157 78.2615 47.0946 78.8091 47.3075C79.3566 47.5205 79.7752 47.8316 79.7393 47.999C79.7032 48.1665 79.8322 48.3033 80.0255 48.3033C80.2188 48.3033 80.6392 48.554 80.9599 48.8607C81.2805 49.1674 81.892 49.5026 82.3186 49.6059C83.1308 49.8026 83.6105 50.1987 85.6155 52.3286C86.2853 53.0401 86.9795 53.5853 87.1582 53.5401C87.7278 53.396 89.0653 54.9521 89.0615 55.7546C89.0547 56.9576 88.7784 57.762 88.313 57.9248C87.8536 58.0854 85.2401 57.1411 84.7992 56.655C84.4878 56.3118 84.447 54.6794 84.7328 53.9963C84.8914 53.6175 84.743 53.4142 84.0665 53.0924C83.5877 52.8639 82.7915 52.34 82.2974 51.9279C81.8032 51.5158 81.1349 51.1786 80.8122 51.1786C80.4896 51.1786 80.0473 50.8977 79.8294 50.5551C78.8217 48.9693 69.698 43.9235 65.327 42.5346C64.6814 42.3297 64.0008 42.0345 63.8145 41.8792C63.2493 41.4077 63.5793 40.453 64.5444 39.7681C67.1741 37.9017 71.2921 34.3609 71.4882 33.7978C71.5576 33.5984 72.3294 32.802 73.2033 32.0279C75.592 29.9118 81.0012 23.841 81.3855 22.8448C81.5713 22.3636 81.8046 21.1747 81.9044 20.2027C82.1657 17.6585 81.5671 16.0188 79.5289 13.6936C76.9407 10.7407 74.8934 10.1863 68.7182 10.7658C66.4671 10.977 66.1306 10.9416 65.0452 10.3778C63.4957 9.573 60.2366 5.7474 59.2384 3.56154C58.8226 2.65097 58.2178 2.27652 56.2851 1.73317C55.295 1.45467 55.031 1.51328 53.2853 2.40067C51.7175 3.19745 51.1223 3.70555 49.9965 5.20835C48.3205 7.44568 47.6725 9.26534 47.3175 12.7324C47.1684 14.1894 46.9245 16.1578 46.7758 17.1066C46.5046 18.8384 46.4845 20.0743 46.6509 24.8699C46.8105 29.4654 45.4129 33.0592 43.6199 32.6639C42.416 32.3987 38.9802 29.5076 38.9802 28.76C38.9802 28.6531 38.5067 28.0571 37.9279 27.4363C37.3492 26.8154 36.2433 25.4018 35.4705 24.2948C32.0879 19.45 27.1462 14.8322 22.0243 11.7302C18.7687 9.75843 15.9117 10.0668 13.4346 12.6572C12.6823 13.444 11.9873 14.0876 11.8902 14.0876C11.5757 14.0876 9.50316 17.1928 9.50316 17.664C9.50316 17.915 9.39732 18.3455 9.26766 18.6201C8.64843 19.9333 8.40866 21.6316 8.52317 23.8939C8.69333 27.2522 8.15569 29.6926 7.05698 30.551C5.92377 31.4364 4.28688 33.1566 4.28637 33.4627C4.28613 33.6028 4.00866 34.0006 3.66956 34.3468C2.86945 35.1642 1.92312 37.9501 1.74833 40.0027C1.58056 41.9733 2.16193 43.8991 3.42337 45.5517C3.89777 46.1731 4.2859 46.7604 4.2859 46.8567C4.2859 46.953 4.94367 47.4711 5.74757 48.0081C7.0244 48.8611 7.48247 49.0004 9.36908 49.1095C10.8955 49.1979 11.9012 49.0996 12.7985 48.7797C15.2264 47.9102 17.9951 47.2093 20.3287 46.8735C21.62 46.6878 23.2553 46.3329 23.9627 46.0852C25.249 45.6347 25.249 45.6347 25.8414 46.3938C26.5175 47.2601 26.7198 47.3357 26.7198 46.7216C26.7198 46.0562 27.6046 46.211 28.2713 46.9932C28.8703 47.6961 28.8704 47.6961 28.2509 48.5364C27.9106 48.9986 27.2213 49.682 26.7191 50.0551C25.7283 50.7914 23.5391 53.0544 19.1962 57.8317C16.698 60.5799 16.3687 61.0639 15.9586 62.5901C15.7075 63.5246 15.505 64.8651 15.5084 65.5689C15.5186 68.0108 17.5264 72.1202 19.2951 73.325C19.8734 73.719 20.9859 74.0644 22.2334 74.2372C24.1219 74.4988 24.3853 74.4634 26.6752 73.641C30.3385 72.3252 31.3674 72.665 33.1235 75.7706C33.7618 76.8993 34.284 77.9607 34.284 78.1292C34.284 78.2978 34.9259 79.0823 35.7105 79.8727C37.646 81.8225 39.5091 82.5179 43.3575 82.7272C46.2112 82.8822 46.3421 82.863 47.6616 82.0867C49.9406 80.7458 51.7489 78.2253 52.9105 74.7705C53.6638 72.5302 54.0098 66.8644 53.5787 63.8295C53.0104 59.8291 52.9832 58.8001 53.4347 58.3871C54.0855 57.7918 54.7927 58.6752 54.9921 60.3322C55.0826 61.0832 55.5789 62.6625 56.0952 63.8418C56.6116 65.0211 57.2101 66.6329 57.4253 67.4236C57.6404 68.2143 58.1436 69.6375 58.5434 70.5864C58.9432 71.5352 59.45 72.7644 59.6697 73.3179C59.8892 73.8714 60.5879 74.9207 61.2219 75.6497C61.8559 76.3788 62.6977 77.4421 63.0925 78.0126C63.8251 79.0714 66.7639 81.1328 68.0207 81.4695C68.4039 81.5722 69.0119 81.736 69.3717 81.8339C70.4094 82.1157 71.377 81.4855 73.3542 79.24C75.5042 76.7982 75.8445 76.0185 76.6726 71.6392C77.0937 69.4127 77.4397 68.2519 77.764 67.9779C78.7248 67.166 80.2629 66.9229 83.1952 67.1192C86.0646 67.3113 86.0646 67.3113 87.3689 66.3648C89.3223 64.947 89.5695 64.5161 89.3996 62.8232C89.3203 62.0325 89.095 61.1813 88.8991 60.9316C88.0994 59.9129 88.9379 58.6958 90.11 59.1737C90.5805 59.3654 90.6988 59.7069 90.8314 61.2569C90.9188 62.2765 90.9937 63.6734 90.9978 64.3612C91.008 65.6749 91.0863 65.5617 88.1516 68.3633C87.7149 68.7802 87.0319 68.8675 83.9526 68.8997C81.93 68.9229 80.0223 69.0269 79.7132 69.1348C78.967 69.3958 78.5929 70.2301 78.4905 71.8612C78.4443 72.5995 78.0679 74.34 77.6542 75.7289C76.9487 78.0978 76.7738 78.3971 74.8318 80.5598C72.145 83.552 71.743 83.7714 69.2577 83.6026C67.2952 83.4695 66.039 82.9317 64.6742 81.6407C64.3873 81.3691 63.9177 81.0594 63.6307 80.9521C63.3438 80.8448 62.4634 79.8942 61.6743 78.8397C60.2396 76.9224 60.2396 76.9224 60.0769 81.8051C59.7921 90.3499 59.606 93.2533 59.2191 95.1699C59.0115 96.1978 58.6516 98.268 58.4191 99.7703C57.8453 103.478 57.5721 104.68 56.6543 107.534C54.9506 112.832 51.5712 118.091 49.4543 118.74C48.2512 119.108 47.9384 119.096 46.7749 118.638ZM49.2329 116.449C49.8348 116.133 50.5277 115.584 50.7727 115.227C51.0177 114.87 51.5173 114.17 51.8829 113.672C53.3372 111.69 55.8565 104.98 56.4548 101.496C56.8473 99.2099 57.7487 92.2103 57.8989 90.282C57.9789 89.2541 58.1473 87.6894 58.2733 86.8049C58.3992 85.9203 58.4445 82.8798 58.374 80.048C58.2389 74.6109 58.0124 73.3853 56.5377 70.1135C56.2065 69.3789 55.9357 68.5702 55.9357 68.3164C55.9357 68.0624 55.8319 67.855 55.7053 67.855C55.4738 67.855 55.1118 70.6194 55.0279 73.0305C55.0006 73.7421 54.7236 74.9066 54.4065 75.6182C54.019 76.4881 53.7861 77.6659 53.6957 79.2123C53.3074 85.8554 52.2626 91.0259 50.5868 94.5978C50.3724 95.055 50.1968 95.6469 50.1968 95.9133C50.1968 96.1799 49.2179 98.6121 48.0215 101.319C44.2859 109.77 43.5882 111.693 43.7552 113.08C43.9186 114.438 44.8674 115.54 46.6752 116.471C47.9723 117.14 47.9121 117.141 49.2329 116.449ZM31.4211 67.4956C31.4347 66.7105 33.6031 63.0954 35.5887 60.5483C36.2343 59.7202 37.3477 58.2492 38.0629 57.2795C39.5806 55.2216 40.4467 54.5749 40.8255 55.2171C41.2764 55.9819 40.7877 57.0182 39.146 58.7793C36.452 61.669 34.2257 64.8832 33.5072 66.9205C33.2258 67.7187 33.0492 67.855 32.2963 67.855C31.7619 67.855 31.4174 67.7132 31.4211 67.4956ZM71.5681 65.3492C70.4975 64.0722 67.9231 61.9559 66.4352 61.1299C65.4646 60.591 65.0658 60.2009 65.0658 59.7904C65.0658 58.3084 67.1539 59.1417 69.4651 61.546C70.1658 62.275 71.3961 63.2801 72.199 63.7795C73.4958 64.5863 73.6347 64.7601 73.4424 65.3369C73.1307 66.2721 72.3461 66.2764 71.5681 65.3492ZM81.9002 61.8242C81.2158 61.3287 81.1352 61.1223 81.1999 60.0311C81.3217 57.9762 82.6724 57.4436 84.1273 58.8765C84.8487 59.587 84.9172 59.7894 84.7562 60.7355C84.5799 61.7701 84.5077 61.8357 83.065 62.2671C82.8496 62.3313 82.3257 62.1323 81.9002 61.8242ZM75.9906 61.6261C75.477 61.4751 74.6313 59.507 74.7596 58.7613C74.8239 58.3861 75.1195 58.1948 75.734 58.13C77.0958 57.9863 77.8017 58.2972 78.2411 59.2335C78.6044 60.0078 78.6042 60.1764 78.2398 60.9545C77.8387 61.8093 77.2305 61.9908 75.9906 61.6261ZM64.4856 57.1929C63.1705 56.9806 62.8391 56.7818 61.707 55.5274C61 54.744 60.3493 53.7362 60.2611 53.2878C59.8969 51.4371 59.8858 51.1156 60.1637 50.4439C60.3237 50.0573 60.5367 49.741 60.6374 49.741C60.7382 49.741 61.2504 49.3645 61.7757 48.9043C63.7479 47.1768 68.7703 46.1631 71.9047 46.8599C73.9329 47.3108 75.4997 48.3483 75.502 49.2419C75.5028 49.5954 75.6562 50.2082 75.8424 50.6036C76.0285 50.9989 76.1605 51.7106 76.1353 52.185C76.1081 52.6594 76.0741 53.4483 76.0557 53.938C76.0387 54.4278 75.8165 55.0747 75.5656 55.3757C75.1086 55.9234 73.3024 56.77 71.5875 57.2402C70.4696 57.5468 66.5126 57.5204 64.4856 57.1929ZM73.1219 55.0061C74.5262 54.4704 74.5263 54.4705 74.5263 52.9587C74.5263 52.1273 74.452 51.3651 74.3612 51.2649C74.2703 51.1646 74.1961 50.8698 74.1961 50.6094C74.1961 50.3492 73.8654 49.7867 73.4608 49.3596C72.7974 48.659 72.5232 48.5791 70.6566 48.5423C67.7349 48.4847 65.958 48.8228 64.1531 49.7797C61.6674 51.0975 61.5359 51.2584 61.8871 52.5506C62.2973 54.0596 63.4227 55.1679 64.8257 55.4446C66.8612 55.8461 71.5728 55.5969 73.1219 55.0061ZM84.2302 49.0315C83.2422 47.9424 83.1246 47.2659 83.7075 46.0234C84.3333 44.6895 85.5637 44.4538 86.5214 45.4842C87.4876 46.5237 88.0178 47.5383 88.0196 48.3514C88.0223 49.7933 87.7987 50.0282 86.4196 50.0282C85.3011 50.0282 85.0173 49.899 84.2302 49.0315ZM33.5018 46.2794C31.228 44.9312 30.7409 44.3335 30.5373 42.6412C30.2858 40.5504 31.2747 38.2355 32.8561 37.214C35.1602 35.7256 38.7509 35.6814 40.5824 37.1189C41.673 37.9749 42.5806 40.1442 42.7898 42.3953C42.9682 44.3142 42.9682 44.3142 41.5965 45.7336C40.2249 47.153 40.2249 47.1531 37.5807 47.1416C35.1585 47.1317 34.8161 47.0588 33.5018 46.2794ZM39.7589 44.769C41.1762 43.9999 41.5818 42.8963 41.0993 41.1212C40.5804 39.2122 39.7096 38.3363 38.0099 38.0135C36.7317 37.7708 36.3218 37.8152 35.1081 38.3271C33.5143 38.9993 32.1975 40.6529 32.1975 41.9819C32.1975 42.8488 32.9787 44.0988 33.8481 44.6233C35.3414 45.524 38.2361 45.5955 39.7589 44.769ZM36.2409 43.2125C34.9623 42.8527 34.6963 41.8055 35.6379 40.8386C36.7517 39.6948 38.719 40.3681 38.719 41.893C38.719 42.8829 37.4573 43.5548 36.2409 43.2125ZM51.1607 45.9469C48.6102 45.5851 46.7235 43.5103 46.4071 40.7196C46.2526 39.3551 46.3115 39.0863 47.0182 37.9338C48.3778 35.7169 50.3795 34.5959 53.1967 34.4737C55.1172 34.3902 56.3341 34.9171 56.7446 36.0095C56.9131 36.4575 57.2693 36.953 57.5366 37.1106C57.8037 37.2683 58.0226 37.5868 58.0226 37.8185C58.0226 38.0503 58.1965 38.2396 58.4089 38.2396C58.6212 38.2396 58.8657 38.5954 58.9518 39.0303C59.0379 39.4652 59.223 40.1569 59.3631 40.5675C59.8908 42.1143 58.801 44.2076 57.0344 45.0404C55.5245 45.7521 52.777 46.1761 51.1607 45.9469ZM56.3816 43.4107C58.2863 42.3367 58.2158 40.4519 56.1777 37.9705C54.9454 36.4699 54.8334 36.4027 53.3693 36.286C52.106 36.1853 51.6324 36.2889 50.6085 36.8896C49.0571 37.8 48.1097 39.1719 48.1097 40.5084C48.1097 41.8322 49.236 43.621 50.2988 43.9851C51.645 44.4462 55.1285 44.1176 56.3816 43.4107ZM51.5663 41.106C51.1742 40.9324 50.9794 40.6041 50.9794 40.1178C50.9794 39.7174 50.9488 39.2927 50.9141 39.1741C50.8783 39.0556 51.1424 38.9139 51.501 38.8592C51.8597 38.8046 52.2914 38.6347 52.4604 38.4817C52.9248 38.0616 54.3327 38.9807 54.5262 39.8301C54.6194 40.2392 54.5534 40.7312 54.3676 40.975C54.0125 41.4467 52.4952 41.5175 51.5663 41.106ZM21.4238 32.1003C19.8753 30.3114 17.0072 28.4638 15.7786 28.4638C15.2678 28.4638 14.8692 28.2592 14.6595 27.8888C14.4801 27.5726 14.1733 27.3138 13.9772 27.3138C13.7594 27.3138 13.6825 27.1369 13.7792 26.859C13.8663 26.6086 13.9378 26.2206 13.9378 25.9964C13.9378 25.4406 15.0912 25.4731 15.5187 26.0411C15.7059 26.2898 16.5854 26.8563 17.4729 27.2998C19.1373 28.1317 23.3287 31.0778 23.8695 31.796C24.104 32.1073 24.0992 32.3023 23.8491 32.6332C23.3055 33.355 22.3229 33.1389 21.4238 32.1003ZM58.0226 25.4937C58.0226 25.2834 58.6076 23.8924 59.3226 22.4028C60.9633 18.9846 62.1242 16.3893 62.3025 15.7408C62.3892 15.4259 62.7004 15.2376 63.1352 15.2376C63.7784 15.2376 63.8192 15.3095 63.6868 16.2086C63.532 17.2588 63.3252 17.7537 60.9974 22.6388C59.6062 25.5583 59.3879 25.871 58.7399 25.8734C58.3157 25.8749 58.0226 25.7198 58.0226 25.4937Z" fill="black"/>
<path d="M64.9895 55.416C64.1639 55.2453 63.4834 54.8535 62.908 54.2173C62.3269 53.575 61.8594 52.5139 61.8594 51.8374C61.8594 51.2867 62.1467 50.9976 63.4068 50.2804C65.7542 48.9444 67.1451 48.6226 70.3219 48.6801C72.7521 48.7241 72.8132 48.7428 73.5931 49.6805C74.3338 50.571 74.7632 53.5607 74.2523 54.2704C73.9778 54.6517 73.1609 54.981 71.8581 55.2355C70.6445 55.4725 65.8702 55.598 64.9895 55.416Z" fill="#87CDDE"/>
</svg>
