<svg width="139" height="132" viewBox="0 0 139 132" fill="none" xmlns="http://www.w3.org/2000/svg">
<path d="M64.79 131.245C61.2636 130.613 57.4151 126.945 55.686 122.569C54.9982 120.828 54.5114 118.79 54.0793 115.841C53.7898 113.866 53.6715 107.818 53.9136 107.374C53.9968 107.222 54.1312 106.148 54.2121 104.988C54.3929 102.397 54.8669 98.5406 55.1271 97.5463C55.4945 96.1423 54.7432 96.8121 53.2866 99.1871C51.3472 102.349 51.0461 102.683 48.2422 104.769C45.6352 106.709 44.9362 107.029 41.6215 107.8C37.2078 108.828 33.6239 107.394 29.9663 103.14C25.0322 97.3998 25.2563 94.8597 26.7599 88.768C27.6555 85.1387 28.8031 82.6401 30.4141 80.8116C31.0892 80.0454 32.6193 78.2952 33.8144 76.9222C35.0094 75.5493 36.2805 74.2971 36.639 74.1394C37.2666 73.8631 37.57 72.8521 37.0252 72.8521C36.8792 72.8521 36.1294 73.162 35.3593 73.5407C34.2309 74.0957 31.602 75.1298 31.2794 75.1457C31.2395 75.1473 31.2069 74.928 31.2069 74.657C31.2069 74.386 31.0886 74.1647 30.9442 74.1647C30.7998 74.1647 30.7498 74.4603 30.833 74.8211C30.9245 75.2169 30.8428 75.4774 30.6251 75.4774C30.4276 75.4774 28.6595 76.137 26.6962 76.9431C23.5783 78.2235 22.687 78.4446 19.6521 78.6911C13.1391 79.2202 9.56199 78.0541 6.13478 74.2849C2.95036 70.7825 1.88103 68.251 1.09394 62.3509C0.91347 60.9972 0.642981 59.0036 0.493111 57.9207C-0.097697 53.6515 -0.165723 48.8416 0.332944 46.5991C1.8279 39.8771 4.11049 35.7305 7.76897 33.0907C10.9779 30.7752 13.3121 30.1766 19.1837 30.1635C21.7331 30.1586 24.2744 30.3094 24.8311 30.5003C25.3877 30.6911 26.3225 30.8473 26.9083 30.8473C27.4942 30.8473 29.0595 31.2726 30.3868 31.7925C31.714 32.3124 33.8429 32.9916 35.1176 33.3018C36.3923 33.6121 38.8899 34.3682 40.6677 34.9819C42.4455 35.5957 44.1662 36.0979 44.4914 36.0979C44.8166 36.0979 46.1649 36.4722 47.4877 36.9297C51.4208 38.2899 55.3099 39.69 56.7009 40.2465C57.418 40.5333 58.4856 40.8772 59.0733 41.0106C60.0477 41.2317 60.1671 41.1776 60.4261 40.3983C60.5824 39.9282 60.7767 38.7314 60.8582 37.7387C60.9513 36.6034 61.3804 35.0856 62.0147 33.6473C63.0231 31.3608 63.0231 31.3608 62.369 30.6741C61.2593 29.5092 60.174 27.0738 59.8575 25.038C59.5941 23.344 59.6351 22.8233 60.1778 20.9819C61.2518 17.3375 62.962 14.7531 64.9933 13.7047C65.8547 13.2601 65.8947 12.1337 65.0787 11.2971C64.7469 10.957 64.289 10.2326 64.0612 9.68749C63.8333 9.14235 63.1342 7.73647 62.5074 6.56328C61.1197 3.96579 61.0756 3.44883 62.2038 3.00336C62.9415 2.71207 63.1147 2.7531 63.3627 3.27785C63.5228 3.61717 63.6543 4.16985 63.6543 4.50604C63.6543 5.09288 65.1696 7.90439 66.9742 10.6659C67.4458 11.3875 67.8766 12.0475 67.9316 12.1325C67.9864 12.2176 68.1298 12.1068 68.2497 11.8869C68.6353 11.1801 71.7314 10.7464 74.3734 11.0291C75.7278 11.1739 76.9663 11.299 77.1257 11.307C77.2849 11.3154 77.4154 11.0263 77.4154 10.6653C77.4154 10.3043 77.6865 9.56595 78.0179 9.02448C78.3493 8.48301 79.3726 6.41558 80.292 4.4302C81.9426 0.865555 82.5235 0 83.265 0C83.9992 0 83.6323 1.6743 82.3827 4.02558C81.689 5.33106 80.593 7.62635 79.9472 9.12624C78.773 11.8533 78.773 11.8533 79.4901 12.1622C80.601 12.6406 82.1292 14.0743 82.7414 15.2126C83.5454 16.7074 84.2662 20.2299 84.0537 21.6255C83.9547 22.2755 83.6047 23.7205 83.2759 24.8367C82.8128 26.4085 82.4293 27.0744 81.5746 27.7901C80.9676 28.2984 80.468 28.802 80.4642 28.9093C80.461 29.0167 80.7833 29.5335 81.1813 30.0579C81.5794 30.5823 82.1004 31.3696 81.9055 31.6841C78.16 37.7294 81.5856 26.9762 82.1889 32.6774C82.7793 38.2574 80.2443 38.6908 79.7345 39.003C75.0082 41.8969 81.2529 37.3722 80.7808 37.9028C80.3264 38.4134 77.5656 43.7611 77.686 43.8975C77.8181 44.0473 80.4315 41.9671 82.2142 40.2931C82.9414 39.6101 83.6964 39.0513 83.8917 39.0513C84.0871 39.0513 84.6328 38.756 85.1043 38.395C85.5759 38.034 86.3476 37.4433 86.8191 37.0823C87.2907 36.7214 87.7543 36.426 87.8493 36.426C88.085 36.426 94.1459 33.4481 94.5081 33.1543C94.6674 33.0252 96.1016 32.456 97.6949 31.8896C99.2883 31.3232 102.873 30.0461 105.662 29.0515C108.45 28.0569 111.873 26.9283 113.267 26.5435C114.661 26.1587 115.802 25.7164 115.802 25.5606C115.802 25.4048 115.319 24.7762 114.729 24.1638C113.656 23.0502 113.656 23.0502 112.874 23.7054C111.102 25.1896 106.744 25.3677 104.105 24.0637C100.683 22.3733 99.7019 20.6164 99.9302 16.5873C100.154 12.6348 101.964 9.76091 105.381 7.93282C106.761 7.19443 107.515 7.10279 110.587 7.29962C113.513 7.48709 114.84 8.56797 116.662 12.2508C117.546 14.0352 117.596 14.3012 117.407 16.1887C115.474 24.5369 113.446 21.0328 115.06 20.5801C115.299 20.8509 116.739 22.6432 117.126 22.6432C117.513 22.6432 117.83 22.7539 117.83 22.8894C117.831 23.0247 118.419 23.5567 119.139 24.0715C120.271 24.8816 120.878 25.0468 123.646 25.2989C126.632 25.5707 126.976 25.677 128.817 26.8951C132.875 29.5792 133.787 30.6892 135.898 35.5121C137.816 39.8921 138.142 41.0339 138.802 45.6634C139.198 48.4402 139.038 50.9858 138.219 54.9672C137.998 56.0413 135.686 60.1469 133.692 63.0072C132.799 64.2868 131.678 65.327 129.839 66.5812C126.939 68.5593 125.13 69.2327 122.701 69.2384C121.795 69.2401 120.72 69.3862 120.311 69.5623C119.817 69.7751 119.301 69.7668 118.771 69.5358C117.645 69.0485 116.572 68.8784 113.919 68.7661C111.524 68.6645 109.916 68.4143 108.414 67.9076C107.936 67.7462 106.411 67.471 105.024 67.2954C103.637 67.1197 102.106 66.7435 101.62 66.4591C100.23 65.6451 100.584 66.4289 102.387 68.1534C103.294 69.022 104.5 70.2672 105.066 70.9204C105.633 71.5737 106.832 72.6382 107.73 73.286C110.706 75.4326 113.005 79.2176 114.339 84.1708C114.896 86.2373 114.928 86.7463 114.654 89.2573C114.141 93.9599 113.292 96.7878 111.589 99.4717C109.145 103.322 106.968 104.775 102.096 105.809C99.3188 106.399 96.3971 106.245 95.3855 105.456C95.0713 105.21 94.6038 105.01 94.3469 105.01C93.4069 105.01 90.2904 103.662 89.0654 102.725C87.7842 101.746 86.0529 99.367 84.6549 96.6648C84.2281 95.84 83.761 95.1651 83.6168 95.1651C83.4727 95.1651 83.347 96.4572 83.338 98.0365C83.3217 100.935 83.0109 105.789 82.5149 110.917C82.2258 113.904 80.5351 120.164 79.501 122.074C78.2651 124.358 75.5638 128.165 74.5402 129.067C72.4363 130.919 68.2271 131.861 64.79 131.245ZM72.2307 128.11C74.3021 126.735 77.3964 122.622 78.2118 120.161C78.4906 119.319 78.9352 118.15 79.1999 117.562C79.7058 116.439 79.5696 115.834 78.9434 116.423C78.3956 116.938 71.901 118.714 69.1258 119.108C65.5966 119.61 62.9069 119.499 60.6123 118.759C59.4969 118.4 58.2354 118.055 57.809 117.992C57.3827 117.93 56.8938 117.781 56.7226 117.661C56.28 117.351 56.3358 117.716 57.0717 119.943C58.2936 123.641 60.9061 127.132 63.5094 128.546C64.8522 129.275 65.179 129.317 67.9883 129.124C70.4701 128.952 71.2381 128.769 72.2307 128.11ZM70.8969 116.933C73.9493 116.324 79.6432 114.244 80.1937 113.537C80.5222 113.115 80.7548 111.642 81.0043 108.404C81.1968 105.907 81.4681 103.125 81.6071 102.223C81.7512 101.287 81.7512 100.454 81.6066 100.285C81.4568 100.11 80.7991 100.228 79.9943 100.576C77.3415 101.724 76.0885 101.953 68.1191 102.75C64.8527 103.076 63.5797 103.076 61.7455 102.747C56.2855 101.765 56.4778 101.766 56.3077 102.728C56.2239 103.202 56.0631 106.199 55.9504 109.387C55.7518 114.995 55.7637 115.184 56.3101 115.184C56.6208 115.184 57.0099 115.337 57.1747 115.524C57.4313 115.815 60.3694 116.721 62.7851 117.256C64.1244 117.552 68.7055 117.369 70.8969 116.933ZM42.2157 105.388C45.5587 104.799 49.5728 101.813 51.3612 98.5845C51.6526 98.0586 52.6305 96.447 53.5343 95.0031C54.4381 93.5592 55.5353 91.5656 55.9724 90.5729C56.4096 89.5802 56.9365 88.5465 57.1433 88.2757C58.117 87.0012 61.968 74.9567 62.7042 70.8831C62.9488 69.5294 63.2509 68.1266 63.3754 67.7656C63.9074 66.2224 63.9722 65.6631 63.969 62.64C63.9673 60.8894 64.0889 58.5994 64.2394 57.5511C64.3903 56.5001 64.4025 55.5196 64.2652 55.3654C64.1288 55.2112 63.6438 55.5975 63.1837 56.2267C61.7104 58.2414 57.6499 61.3535 53.3683 63.7496C52.4122 64.2846 50.7174 65.423 49.6021 66.2793C46.9657 68.3035 44.1885 70.0133 42.0986 70.899C40.7832 71.4565 40.3631 71.8092 40.1361 72.5467C39.9707 73.0842 38.7844 74.5063 37.3591 75.8759C33.8113 79.2848 30.3305 83.8156 29.5798 86.0019C26.6757 93.0167 28.0512 99.1034 33.9044 104.135C36.2462 105.962 37.7081 106.183 42.2157 105.388ZM101.521 103.546C103.507 103.291 106.797 102.061 107.698 101.237C108.659 100.358 110.691 97.5353 111.24 96.3157C112.103 94.4014 112.746 90.7772 112.753 87.7835C112.759 85.0388 112.683 84.646 111.668 82.2268C110.25 78.8473 108.519 76.3355 106.692 75.0081C105.887 74.4226 104.765 73.3657 104.2 72.6594C103.635 71.9532 102.609 70.9368 101.92 70.4008C101.231 69.8647 100.458 69.0647 100.202 68.623C99.6045 67.5897 95.1402 64.3198 94.3272 64.3198C93.4568 64.3198 91.4063 63.6271 90.8868 63.1575C90.6477 62.9415 90.1263 62.6851 89.728 62.5878C88.9932 62.4084 86.2465 61.1792 84.0094 60.029C83.3339 59.6815 82.6817 59.3974 82.5599 59.3974C82.4381 59.3974 81.6968 58.8806 80.9124 58.2489C80.1279 57.6172 79.3206 57.1003 79.1182 57.1003C78.9158 57.1003 77.9012 56.1048 76.8634 54.8882C75.4971 53.2863 74.8891 52.7751 74.6595 53.0352C74.1758 53.5831 74.2749 57.6787 74.8252 59.8897C75.0949 60.9726 75.4098 62.4493 75.5252 63.1713C75.8491 65.1985 76.6873 68.2443 77.4429 70.1398C77.8195 71.0846 79.1902 75.441 80.4889 79.8206C83.4752 89.8912 85.314 94.3388 88.6888 99.6537C89.7598 101.34 97.1136 104.2 99.4331 103.831C99.7519 103.78 100.692 103.652 101.521 103.546ZM68.2895 101.049C70.9048 100.648 73.6009 100.216 76.0157 99.8109C77.7988 99.5119 80.9985 98.5218 81.386 98.1493C81.4985 98.0412 81.6542 96.1441 81.7317 93.9335C81.8606 90.27 81.8146 89.7618 81.2126 88.1925C80.8494 87.2456 80.4699 86.2127 80.3692 85.8972C80.1962 85.3549 80.1101 85.3575 78.7926 85.9456C75.7116 87.3212 69.3465 87.7891 65.2476 86.9413C64.1322 86.7104 62.8639 86.5259 62.4291 86.5309C61.482 86.5422 61.081 85.5647 61.7306 84.8289C62.286 84.1998 63.1795 84.2134 64.813 84.8761C67.3201 85.8929 76.6854 85.4803 78.9363 84.254C79.7459 83.8128 79.7447 83.6952 78.9038 81.0644C77.6873 77.2587 76.9808 74.6723 76.9743 74.0007C76.9711 73.6398 76.7423 73.0126 76.4668 72.607C75.9656 71.8695 75.9656 71.8695 74.8074 72.5144C73.0528 73.4912 70.5028 74.0935 67.1092 74.3325C64.0457 74.5483 64.0457 74.5483 63.2909 76.4076C62.8757 77.4302 62.4512 78.636 62.3476 79.0873C62.2438 79.5385 61.7459 81.1227 61.2408 82.6076C60.5338 84.6865 60.1893 85.3181 59.7431 85.3531C59.253 85.3916 59.2418 85.4215 59.6706 85.5485C59.9494 85.6309 60.1776 85.7428 60.1776 85.7964C60.1776 85.8501 59.5345 87.4268 58.7484 89.3001C57.4089 92.4922 57.3088 92.9126 57.1548 95.9987C56.9905 99.2915 56.9905 99.2915 57.7874 99.818C58.6363 100.379 61.0226 101.014 62.9298 101.187C65.2635 101.398 66.1606 101.375 68.2895 101.049ZM20.9025 76.4181C22.5548 76.1841 25.2494 75.4024 28.1649 74.3112C30.7143 73.357 34.2036 72.1165 35.9189 71.5546C39.6547 70.3307 47.024 66.4168 48.5627 64.8394C48.8415 64.5536 49.202 64.3198 49.3639 64.3198C49.5257 64.3198 49.8805 64.0421 50.152 63.702C50.4234 63.3618 51.232 62.8304 51.9486 62.5205C53.6178 61.7984 57.6649 59.2368 59.1637 57.9538C61.0715 56.3207 61.8668 55.348 62.9671 53.3027C64.323 50.782 64.6207 47.721 63.6752 46.0218C62.9631 44.742 61.567 43.7182 60.1777 43.4568C58.3493 43.1127 51.5956 40.748 50.2777 39.9904C50.0112 39.8373 48.121 39.2056 46.0769 38.5866C44.0329 37.9676 41.1873 37.1012 39.7532 36.6612C38.3192 36.2211 35.9073 35.5228 34.3936 35.1092C32.8799 34.6957 31.0841 34.0882 30.4029 33.7591C29.7218 33.4301 28.2226 33.013 27.0713 32.8323C25.92 32.6515 24.3262 32.3414 23.5295 32.143C21.7052 31.6887 15.0134 32.016 12.8054 32.6674C8.77646 33.8561 6.22613 36.3581 4.10231 41.2055C3.08097 43.5367 2.79709 44.503 2.94174 45.1558C3.06937 45.7322 2.98168 46.2095 2.67841 46.5891C1.73256 47.773 1.69641 51.1285 2.55691 57.8673C3.83841 67.9026 3.74422 67.5566 6.13994 71.0307C7.46446 72.9515 10.0754 75.0504 10.6445 74.652C10.7973 74.5446 11.1517 74.6085 11.4318 74.7933C11.903 75.1044 11.8984 75.1297 11.3695 75.1392C10.8377 75.1505 10.8441 75.1857 11.4617 75.6758C11.8268 75.9657 12.4751 76.3219 12.9023 76.468C14.0595 76.8635 17.9264 76.8399 20.9025 76.4181ZM70.1463 72.1687C72.9715 71.8467 73.7251 71.5937 75.4605 70.3854C75.5008 70.359 75.2733 69.4767 74.9547 68.4283C74.6363 67.3798 74.2315 65.5835 74.0551 64.4365C73.7406 62.3915 73.7168 62.351 72.8227 62.356C72.3212 62.3593 71.1287 62.5752 70.1726 62.8366C67.9809 63.4361 67.6578 63.4403 66.9797 62.8787C66.5112 62.4907 66.4864 62.3427 66.815 61.8942C67.0277 61.6041 67.5744 61.3665 68.03 61.3665C68.4855 61.3665 69.7842 61.1866 70.9159 60.9668C72.9736 60.5671 72.9736 60.5671 72.7872 59.408C72.2801 56.2547 72.3051 54.9182 72.9096 52.8857C73.5246 50.8178 73.487 49.8726 72.8149 50.5044C72.371 50.9217 67.904 51.1109 66.4962 50.7721C65.506 50.5339 65.4288 50.5701 65.4509 51.2644C65.4637 51.6767 65.6655 52.8071 65.8989 53.7765C66.207 55.0565 66.2654 56.2245 66.1122 58.0426C65.9962 59.4196 65.8576 61.6537 65.8041 63.0074C65.7507 64.3611 65.4411 66.9454 65.1162 68.7502C64.7913 70.5551 64.525 72.0585 64.5245 72.091C64.523 72.1795 65.7426 72.4282 66.4287 72.4794C66.7596 72.5059 68.4324 72.3641 70.1463 72.1687ZM123.121 67.2675C125.333 66.905 130.329 64.2628 131.277 62.9538C131.583 62.532 132.463 61.3996 133.233 60.4375C134.003 59.4754 134.633 58.4277 134.633 58.1092C134.633 57.7906 134.878 57.2786 135.178 56.971C136.794 55.3147 137.668 47.6976 136.647 44.171C136.495 43.6477 136.367 42.9093 136.361 42.5302C136.355 42.151 136.1 41.2501 135.792 40.5281C135.484 39.8061 135.228 39.1006 135.222 38.9602C135.206 38.5496 133.21 34.0643 132.516 32.8813C131.28 30.774 126.224 27.2375 124.446 27.2375C123.511 27.2375 123.511 27.2375 124.509 28.0334C126.66 29.7487 127.101 30.256 127.101 31.017C127.101 31.4438 126.969 31.8851 126.809 31.9976C126.291 32.3602 122.395 31.0899 121.618 30.3049C120.554 29.2293 116.86 27.2787 116.465 27.2858C116.084 27.2926 111.447 28.9015 109.284 29.6436C108.487 29.9169 105.619 30.8832 102.91 31.7911C100.201 32.6989 97.1376 33.8033 96.1019 34.2452C90.842 36.4893 85.006 39.9453 81.6164 42.8233C80.8994 43.4321 80.2153 43.94 80.0961 43.952C79.6494 43.997 77.0309 46.3069 76.8622 46.8049C76.7542 47.1235 76.504 47.2442 76.2136 47.1179C75.6577 46.8762 74.5524 47.9772 74.6634 47.5839C75.0066 46.3676 75.6006 46.0618 76.0331 46.1189C76.8372 46.225 76.2424 48.0524 76.894 51.1933C77.2628 52.971 81.1662 56.3955 84.6584 58.0052C85.6144 58.4459 86.527 58.9243 86.6863 59.0684C86.8456 59.2125 87.6931 59.5673 88.5694 59.8568C89.4458 60.1463 91.1406 60.8169 92.3356 61.3469C95.328 62.6741 104.302 65.3465 105.766 65.3463C106.426 65.3463 107.618 65.5436 108.414 65.7849C110.195 66.3239 111.768 66.574 114.827 66.8043C116.123 66.9018 117.557 67.1086 118.014 67.2633C119.147 67.6479 120.79 67.6501 123.121 67.2675ZM70.895 47.9983C72.4722 45.9295 76.6853 39.0301 77.8939 36.5367C78.5207 35.2439 79.2234 34.0075 79.4557 33.7892C79.9589 33.3161 79.9992 32.3736 79.5562 31.4362C79.2629 30.8154 79.1572 30.9399 78.3526 32.8525C77.8674 34.0058 76.8714 35.9037 76.1392 37.07C75.407 38.2364 74.482 39.7378 74.0836 40.4064C72.5483 42.9833 69.1477 47.9118 68.9049 47.9118C68.7647 47.9118 68.5188 47.7273 68.3583 47.5015C68.1456 47.2026 69.0802 45.579 71.8056 41.5126C73.862 38.4443 75.8281 35.3431 76.1745 34.6212C76.673 33.5825 77.7933 30.4257 77.8404 29.9268C77.8468 29.8717 77.1192 29.4607 76.2263 29.0134C74.0036 27.8999 72.4465 27.7001 71.0702 28.3514C70.4579 28.6412 69.7132 28.8783 69.4154 28.8783C69.1177 28.8783 67.9487 29.347 66.8178 29.9198C64.7616 30.9612 64.7616 30.9612 63.6596 33.6633C62.5512 36.3807 61.6804 40.5083 62.0101 41.4816C62.2712 42.2521 62.9361 42.1181 63.2964 41.2224C63.4695 40.792 64.3791 39.2045 65.3176 37.6946C66.2561 36.1847 67.6021 33.8067 68.3086 32.4101C69.0151 31.0135 69.695 29.8691 69.8195 29.8669C70.3546 29.857 70.3308 30.937 69.7667 32.2568C69.4322 33.0395 69.1586 33.7847 69.1586 33.9129C69.1586 34.0411 68.1156 35.7717 66.8409 37.7587C65.5662 39.7457 64.5232 41.5583 64.5232 41.7866C64.5232 42.0149 64.3782 42.3661 64.2008 42.5669C64.0236 42.7678 63.9727 43.1046 64.0874 43.3153C64.2188 43.5562 64.8495 42.8508 65.7859 41.4158C66.6051 40.1604 68.0741 37.9612 69.0504 36.5287C70.9138 33.7946 71.7658 32.1825 71.7658 31.391C71.7658 30.9472 72.3465 30.5192 72.9484 30.5192C73.336 30.5192 73.2737 32.0513 72.8523 32.8861C72.6531 33.2806 70.986 35.8998 69.1476 38.7066C67.3092 41.5133 65.7138 43.9773 65.6021 44.1822C65.3856 44.5797 65.8999 46.5991 66.2178 46.5991C66.3219 46.5991 66.733 45.8983 67.131 45.0417C67.5291 44.1851 68.8807 41.9331 70.1345 40.0372C71.3883 38.1413 73.0547 35.121 73.8377 33.3253C74.6206 31.5296 75.3185 29.9955 75.3885 29.9161C75.4584 29.8367 75.6508 30.1738 75.8158 30.6652C76.0746 31.4366 75.9482 31.923 74.8896 34.2279C74.2153 35.6961 73.2679 37.4927 72.7843 38.2205C72.3007 38.9482 71.6817 39.9128 71.4087 40.364C71.1357 40.8153 70.2581 42.2181 69.4584 43.4816C68.6588 44.745 68.0035 46.0371 68.0021 46.353C68.0008 46.6688 67.8913 46.9272 67.7588 46.9272C67.4065 46.9272 66.7437 48.453 66.9399 48.8124C67.032 48.9814 67.7476 49.1451 68.5302 49.1764C69.8422 49.2291 70.0267 49.1375 70.895 47.9983ZM63.48 36.2938C63.3943 36.0406 63.6264 35.209 63.9961 34.4459C64.3657 33.6828 64.8382 32.7086 65.0461 32.281C65.432 31.4872 66.7576 31.1405 66.4502 31.9138C66.3606 32.1395 65.9304 33.3208 65.4944 34.5391C64.9196 36.1455 64.5553 36.7542 64.1689 36.7542C63.8759 36.7542 63.5658 36.5471 63.48 36.2938ZM75.6225 44.4667C76.3556 43.3125 77.3195 41.6038 77.7647 40.6695C78.2099 39.7352 78.8641 38.3621 79.2185 37.6182C79.5728 36.8743 80.0873 36.0797 80.3618 35.8524C80.7255 35.5511 80.7741 35.341 80.541 35.0771C80.1857 34.6747 80.276 34.5365 77.8375 39.2155C76.9909 40.8399 75.7528 42.9811 75.0863 43.9738C73.7433 45.9738 73.3097 46.9912 73.9116 46.7295C74.1195 46.6392 74.8895 45.6209 75.6225 44.4667ZM69.1108 22.8018C69.9806 21.7267 70.0771 21.4308 69.9387 20.2619C69.7492 18.6622 69.4172 18.3887 67.6566 18.3822C64.3816 18.3705 63.2139 20.064 64.5114 22.9449C65.0716 24.1887 65.0984 24.2037 66.6026 24.1118C67.9411 24.03 68.246 23.8708 69.1108 22.8018ZM65.4897 22.1289C65.2518 21.4272 65.9665 20.0067 66.7641 19.595C67.2786 19.3295 67.5419 19.3844 67.9986 19.8527C68.7212 20.5934 68.7393 21.393 68.0496 22.1001C67.3671 22.7997 65.7232 22.8182 65.4897 22.1289ZM80.2126 22.9259C81.2828 21.8436 82.0298 19.5808 81.6101 18.6925C81.1986 17.8216 79.4429 17.0125 78.5129 17.2652C77.0691 17.6576 76.2374 18.3045 75.6863 19.4638C75.2151 20.4549 75.1938 20.7334 75.5212 21.6291C75.9496 22.8005 77.9187 24.288 78.7249 24.0492C79.0179 23.9625 79.6875 23.4569 80.2126 22.9259ZM78.485 21.8028C77.2146 21.1977 77.3433 19.5393 78.7258 18.7013C80.1392 17.8444 81.0327 19.9064 79.9337 21.489C79.4483 22.1879 79.3419 22.2109 78.485 21.8028ZM109.829 22.2388C110.629 21.9675 111.611 21.1668 112.81 19.8083C114.322 18.0965 114.63 17.5493 114.798 16.2788C115.099 14.008 114.479 12.6084 112.434 10.9454C111.033 9.80599 110.491 9.55685 109.373 9.53876C109.313 9.53782 104.571 10.7776 102.921 13.2938C101.783 15.2347 101.592 16.9184 102.293 18.8189C102.701 19.9252 104.478 21.7366 105.699 22.29C106.675 22.7326 108.438 22.7108 109.829 22.2388Z" fill="black"/>
<path d="M96.4276 103.337C94.4659 102.797 91.4545 101.529 90.1403 100.688C89.235 100.109 88.8374 99.6624 88.0294 98.3174C85.1657 93.5509 83.6603 89.7822 80.5254 79.5319C79.6968 76.8224 78.4042 72.7279 77.6531 70.433C75.9357 65.1859 74.679 59.4592 74.5355 56.2266C74.4764 54.8944 74.5178 53.7345 74.6347 53.4449C74.8306 52.9598 74.8828 52.9982 76.867 55.0841C77.9845 56.2589 78.9981 57.221 79.1195 57.2221C79.2408 57.2231 79.8766 57.6359 80.5323 58.139C81.5793 58.9424 86.4362 61.4462 88.3806 62.1848C88.7631 62.3301 89.8838 62.833 90.8711 63.3024C91.8584 63.7718 93.0654 64.2152 93.5534 64.2877C95.4695 64.5725 97.4432 66.058 102.226 70.8149C104.322 72.8997 106.691 75.2328 107.491 75.9995C109.143 77.5831 110.428 79.5971 111.694 82.5849L112.522 84.5401V87.7191C112.522 90.9678 112.317 92.5394 111.579 94.9714C111.149 96.3871 109.537 99.012 108.205 100.467C106.042 102.829 99.966 104.31 96.4276 103.337Z" fill="#D5E5FF"/>
<path d="M119.031 67.3452C118.458 67.2644 117.853 67.1461 117.688 67.0825C117.522 67.0188 115.939 66.8231 114.171 66.6476C112.402 66.4721 110.146 66.1217 109.156 65.8689C108.166 65.616 106.819 65.3481 106.164 65.2734C102.022 64.8016 90.8891 61.0322 85.4998 58.2772C82.3038 56.6435 80.7311 55.5587 78.9095 53.7317C77.0776 51.8942 76.9089 51.5167 76.7214 48.8359L76.6006 47.1082L77.7361 45.9996C78.3607 45.3898 79.4689 44.4861 80.1988 43.9912C80.9287 43.4964 82.3006 42.4928 83.2474 41.761C86.6612 39.1225 92.4315 35.8763 96.8932 34.0843C98.1326 33.5865 103.042 31.8661 107.803 30.2612L116.458 27.3433L118.129 28.1988C119.048 28.6693 120.25 29.4098 120.799 29.8445C121.995 30.7898 123.391 31.454 125.153 31.916C126.844 32.3597 127.126 32.2455 127.126 31.1148C127.126 30.2676 127.062 30.1728 125.598 28.8236C124.2 27.5349 124.116 27.4162 124.61 27.4162C126.206 27.4162 131.088 30.9156 132.407 33.0045C133.875 35.3303 136.004 41.0958 136.543 44.2056C137.062 47.2009 137.1 47.9436 136.861 50.3739C136.572 53.3035 136.036 55.4299 135.29 56.6067C134.972 57.1078 134.565 57.8755 134.386 58.3126C133.885 59.532 131.12 63.0433 130.007 63.8729C128.858 64.7284 125.912 66.2507 124.39 66.7749C123.814 66.9732 122.786 67.1896 122.105 67.2559C121.424 67.3221 120.688 67.4024 120.469 67.4342C120.251 67.4661 119.603 67.4262 119.031 67.3452Z" fill="#D5E5FF"/>
<path d="M13.5101 76.4794C12.454 76.2715 11.014 75.4393 11.5363 75.3387C12.366 75.1788 11.5482 74.5061 10.5241 74.5061C9.56145 74.5061 7.26221 72.4778 5.79411 70.3335C4.13023 67.9033 3.75383 66.5011 2.86059 59.4055C1.8824 51.6351 1.85025 48.437 2.73301 46.7097C3.02584 46.1367 3.14131 45.6449 3.06849 45.2807C2.92345 44.5556 3.38198 43.0468 4.42802 40.8073C6.56001 36.2428 9.47122 33.5774 13.2877 32.6955C15.0826 32.2808 19.8437 31.9144 21.6199 32.0542C23.8206 32.2276 29.0176 33.3077 30.3511 33.869C30.9897 34.1378 33.3769 34.9037 35.6561 35.5711C43.3754 37.8313 49.3308 39.723 50.9268 40.4216C51.801 40.8044 54.2151 41.6671 56.2915 42.3389C61.7141 44.0932 61.5908 44.0452 62.4095 44.72C64.9078 46.7794 64.6019 51.0158 61.657 55.1429C60.1368 57.2732 56.7244 59.8626 52.4035 62.1647C51.3579 62.7217 50.2917 63.4017 50.0342 63.6758C49.7767 63.9499 49.4791 64.1741 49.3728 64.1741C49.2665 64.1741 48.8127 64.4708 48.3643 64.8335C46.4967 66.3439 42.7959 68.4678 39.3051 70.0324C36.9038 71.1088 25.4714 75.1856 23.11 75.8076C20.1839 76.5785 15.6318 76.897 13.5101 76.4794Z" fill="#D5E5FF"/>
<path d="M36.5407 105.47C35.4547 105.158 33.9379 104.071 32.536 102.599C29.4213 99.3287 28.2535 96.5379 28.3054 92.4877C28.3274 90.7661 28.445 89.9225 28.8591 88.5139C30.0854 84.3435 31.8553 81.7759 37.8553 75.4634C38.9711 74.2896 40.0683 72.9679 40.2936 72.5263C40.6527 71.8224 40.9711 71.5891 42.8786 70.6325C45.4298 69.353 46.595 68.628 49.4744 66.5286C50.6424 65.677 52.7781 64.2625 54.2204 63.3853C58.1492 60.9958 59.8554 59.7164 62.11 57.4695C63.5914 55.9932 64.1848 55.5159 64.2684 55.7336C64.3318 55.8987 64.3262 56.2337 64.256 56.4779C64.1858 56.7222 64.0464 58.9785 63.9461 61.4919C63.8226 64.588 63.664 66.3908 63.4543 67.0821C63.2841 67.6432 62.9214 69.1994 62.6483 70.5402C61.4177 76.5825 58.6087 85.0572 56.3616 89.5074C53.7838 94.6125 50.7438 99.5541 49.2039 101.142C47.7566 102.635 45.7013 104.065 44.0903 104.7C41.9704 105.536 38.1311 105.927 36.5407 105.47Z" fill="#D5E5FF"/>
</svg>
