<svg
  width="130"
  height="132"
  viewBox="0 0 130 132"
  fill="none"
  xmlns="http://www.w3.org/2000/svg"
>
  <path
    d="M58.2875 122.897C57.1188 122.567 57.1188 122.567 56.3631 120.715C55.9476 119.697 55.5243 118.433 55.4231 117.907C54.9592 115.503 57.0605 108.442 58.8808 106.288C58.9069 106.254 58.47 106.005 57.9076 105.731C54.051 103.849 51.7351 102.589 49.6802 101.257C47.8136 100.047 47.3501 99.6521 45.4995 97.6993C44.8243 96.9868 43.7152 95.8462 43.0348 95.1646C42.3544 94.483 41.2411 93.1991 40.5607 92.3115C39.0074 90.285 38.9898 90.2733 38.5758 90.9913C38.3872 91.3185 38.024 91.6799 37.7687 91.7942C37.1882 92.0543 35.8293 93.247 35.6752 93.6317C35.6117 93.7899 35.2938 94.0386 34.9684 94.1844C34.6429 94.3302 34.0216 94.8008 33.5877 95.2302C33.1378 95.675 31.9011 96.4367 30.7109 97.0015C28.9205 97.851 28.4612 97.9757 27.4874 97.8757C26.0154 97.7246 25.5552 97.3303 25.2471 95.9563C24.8891 94.3599 25.7034 92.0025 27.0315 90.791C27.597 90.2751 28.2603 89.6553 28.5054 89.4139C29.4669 88.4667 31.6295 87.1148 33.8415 86.0783C36.1597 84.9919 36.1597 84.9919 35.2266 82.1899C34.2722 79.3241 34.0081 77.2653 34.1875 74.0938C34.2704 72.6287 34.7082 69.779 34.9778 68.9502C35.1405 68.4499 34.9124 68.5245 31.9676 69.9355C28.132 71.7733 25.4767 72.4607 23.7714 72.0573C22.7847 71.8239 22.6236 71.6926 22.2485 70.8163C20.4362 66.5836 23.7714 64.0842 32.8135 62.8985C35.4227 62.5564 36.1427 62.5959 36.4539 63.0982C36.8899 63.8022 37.225 63.5055 37.6915 62.0024C38.2021 60.3569 39.2398 58.4873 39.7757 58.2472C39.9948 58.149 40.7373 57.2271 41.4253 56.1987C42.1133 55.1702 42.7965 54.2496 42.9434 54.1529C43.0905 54.0563 43.2674 53.7837 43.3367 53.5473C43.4376 53.2038 43.3885 53.1206 43.0936 53.1327C41.9876 53.178 41.3687 52.4748 39.8285 49.4228C39.2282 48.2334 38.8181 45.7365 38.9165 43.8709C38.977 42.7221 38.9895 41.6992 38.9441 41.5978C38.7806 41.2329 40.2073 37.4545 40.9147 36.3792C41.3124 35.7746 41.5951 35.1846 41.5429 35.068C41.4907 34.9516 39.9817 34.176 38.1895 33.3445C35.0694 31.8969 34.8817 31.8468 33.7664 32.1623C32.7931 32.4376 32.4057 32.3936 31.4102 31.8952C29.8679 31.1231 29.5919 30.4868 30.2136 29.1359C30.5796 28.3404 30.9474 27.9523 31.6835 27.5852C32.5513 27.1525 32.797 27.1534 33.7986 27.5935C35.1458 28.1854 36.0137 29.3037 35.7516 30.1099C35.6563 30.4031 35.5887 30.6668 35.6016 30.6956C35.6145 30.7244 37.2202 31.4916 39.1698 32.4006C42.7145 34.0533 42.7145 34.0533 44.4528 32.7541C45.6618 31.8504 46.7875 31.2246 48.1502 30.6985C50.1093 29.9422 50.1093 29.9422 50.7348 26.3361C51.3118 23.0098 51.7569 21.8875 52.3888 22.1651C52.6863 22.2957 52.5799 23.2995 51.8946 26.8357C51.5969 28.3713 51.4318 29.6859 51.5275 29.7571C51.6232 29.8285 52.0917 29.7986 52.5684 29.6909C54.193 29.3239 58.1874 29.7441 59.3055 30.3997C62.1057 32.0415 64.2057 34.213 66.0248 37.3479C66.8824 38.8259 66.9507 39.0362 66.693 39.4007C66.535 39.6241 66.494 40.0038 66.6019 40.2445C66.7549 40.586 67.0375 40.6183 67.888 40.391C68.4875 40.2309 69.5474 40.2094 70.2433 40.3433C70.9393 40.4772 72.0875 40.5983 72.795 40.6123C73.5025 40.6264 74.8205 40.9384 75.7239 41.3057C76.6273 41.673 77.4556 41.9337 77.5645 41.8849C78.0341 41.6745 78.4147 40.2707 78.3912 38.8356C78.3579 36.7954 80.6135 29.667 81.9181 27.6899C84.1746 24.2701 85.9174 23.7458 87.7991 25.9207C88.6323 26.8839 88.6662 26.9708 88.6897 28.2056C88.7336 30.5202 87.6891 33.5015 85.5386 37.1998C85.0989 37.956 84.3164 39.4375 83.7997 40.4922C83.2829 41.5468 82.6851 42.5996 82.4711 42.8317C82.2572 43.0637 82.1281 43.3566 82.1845 43.4825C82.2409 43.6083 83.0937 44.1569 84.0796 44.7016C87.718 46.7114 90.0511 48.2434 90.7094 49.0549C90.9416 49.3412 91.6103 50.0238 92.1951 50.5719C92.78 51.1199 93.3274 51.7223 93.4118 51.9105C93.4961 52.0988 93.968 52.7255 94.4603 53.3036C95.4738 54.4933 95.3735 54.5049 97.5953 52.9405C98.6914 52.1687 99.2686 51.8799 99.5369 51.9692C99.8046 52.058 99.9692 51.9788 100.088 51.7038C100.201 51.4424 101.176 50.9393 103.002 50.1995C105.933 49.0121 108.303 48.6456 109.486 49.197C109.805 49.3461 110.149 49.4311 110.249 49.386C110.747 49.163 112.405 51.719 112.385 52.6792C112.367 53.533 111.872 54.962 111.32 55.7511C110.804 56.488 105.654 58.6843 103.662 59.017C100.711 59.5096 99.5431 59.7856 99.2991 60.0483C99.1128 60.2488 99.2875 60.9314 99.9762 62.6945C100.926 65.1275 102.478 70.9109 102.821 73.2966C102.926 74.0301 102.932 74.9236 102.835 75.2821C102.581 76.2125 103.046 76.4149 104.468 75.9927C105.763 75.6084 106.827 75.4536 109.525 75.2578C112.566 75.0371 113.518 75.2009 116.598 76.4746C119.623 77.7257 119.623 77.7257 120.165 78.9349C120.627 79.967 120.659 80.2924 120.378 81.1548C120.07 82.1011 119.16 83.1468 118.309 83.5318C117.888 83.7216 114.92 83.8331 113.694 83.7046C113.25 83.658 111.135 83.3985 108.995 83.1279C106.855 82.8572 105.019 82.6739 104.915 82.7205C104.811 82.7672 104.12 82.7533 103.38 82.69C102.468 82.6119 101.881 82.7016 101.558 82.9686C101.297 83.1854 101.162 83.421 101.258 83.4928C101.542 83.704 100.662 86.7092 99.6597 88.9495C99.1491 90.0914 98.7137 91.1972 98.6924 91.4068C98.6361 91.9584 97.6354 93.5563 96.6852 94.6118C96.2336 95.113 95.3146 96.1577 94.6424 96.9328C93.4924 98.259 90.5542 100.521 87.6778 102.294C85.496 103.639 77.7887 106.845 75.6939 107.28C71.8396 108.079 68.137 108.144 64.6735 107.474C63.2524 107.2 63.2025 107.213 63.4678 107.806C63.7812 108.505 63.7723 109.547 63.4261 112.718C63.2523 114.308 63.1591 115.719 63.2189 115.853C63.3985 116.254 61.5596 121.712 61.0679 122.238C60.3038 123.055 59.5115 123.243 58.2875 122.897ZM84.446 102.442C84.3975 102.333 84.2538 102.199 84.1269 102.143C83.9996 102.087 81.855 97.5017 79.3603 91.9528C75.5015 83.3696 74.7283 81.7801 74.1786 81.3017C73.8232 80.9926 73.438 80.8097 73.3227 80.8956C73.0838 81.0732 70.7067 79.8042 70.5269 79.4029C70.462 79.258 69.9497 78.7369 69.3886 78.2451C68.8274 77.7534 67.9379 76.8171 67.4118 76.1645C66.8855 75.5121 66.3378 74.9569 66.1942 74.9311C66.0505 74.9052 65.8226 74.6375 65.6875 74.3359C65.5524 74.0344 65.2159 73.7136 64.9401 73.6229C64.3618 73.433 62.6084 72.1911 60.6747 70.6019C59.9369 69.9956 58.9808 69.305 58.55 69.0672C57.5856 68.5348 56.9256 66.9765 56.8582 65.0725C56.7608 62.3208 56.4249 59.9698 55.9908 59.0008C55.8094 58.5959 55.6298 57.9189 55.592 57.4963C55.5541 57.0737 55.3758 56.1552 55.1957 55.4551C55.0155 54.7552 54.8378 53.9725 54.8007 53.7158C54.751 53.3722 54.6143 53.3025 54.2801 53.4522C53.2791 53.9007 51.5487 53.4176 49.2369 52.0442C48.3074 51.492 48.3074 51.492 46.7114 52.7157C44.9624 54.0568 43.5473 55.8058 42.0605 58.4639C41.5286 59.4148 40.8249 60.5341 40.4967 60.9511C40.1685 61.3682 39.5792 62.5946 39.1871 63.6766C38.795 64.7585 38.3829 65.6846 38.2714 65.7346C37.9652 65.8718 36.8561 69.3795 36.3468 71.822C35.8392 74.2559 35.5667 77.0736 35.7907 77.5735C35.8725 77.7562 35.8751 78.3269 35.7967 78.8418C35.5675 80.3453 36.6732 82.8444 41.0102 90.6259C41.6935 91.8519 42.2063 92.506 43.3988 93.6722C43.9984 94.2585 44.2275 94.504 46.9489 97.4757C48.6951 99.3825 49.1701 99.7991 49.8583 100.028C50.1419 100.122 51.0264 100.609 51.8243 101.111C53.9386 102.44 61.3622 105.617 62.4758 105.67C63.0004 105.695 64.1265 105.851 64.9781 106.017C65.8298 106.183 66.8269 106.344 67.1939 106.374C67.561 106.405 68.2844 106.542 68.8016 106.679C70.8394 107.22 77.2425 105.846 81.5826 103.937C83.2058 103.223 84.4946 102.55 84.446 102.442ZM74.9263 102.69C74.4531 102.454 74.3539 102.3 74.4372 101.934C74.5174 101.58 74.43 101.381 74.0594 101.068C73.3753 100.493 73.6826 100.068 75.1623 99.5419C76.1205 99.2009 76.5166 99.1961 77.1212 99.517C77.9494 99.9567 78.2777 100.784 77.9291 101.552C77.5941 102.291 75.6222 103.038 74.9263 102.69ZM60.1199 99.4264C59.3765 99.318 58.6787 99.0888 58.5694 98.9169C58.459 98.7453 58.1884 98.3657 57.9656 98.0742C57.6297 97.6343 57.6416 97.4184 58.0338 96.8081C58.7642 95.6718 60.1778 95.3946 61.2744 96.1725C61.7406 96.5031 62.1967 96.9408 62.2882 97.145C62.4375 97.4783 61.8657 99.4549 61.5852 99.5749C61.5225 99.6017 60.8634 99.5348 60.1199 99.4264ZM68.1551 91.9144C67.4913 91.2056 67.1471 89.7552 67.5182 89.2305C68.0196 88.5215 70.1978 88.4179 70.4984 89.0888C70.6078 89.333 70.7937 89.4898 70.9115 89.437C71.029 89.3843 71.1979 89.5023 71.2861 89.6992C71.5413 90.2688 70.5756 91.5725 69.561 92.0282C68.7707 92.3832 68.5797 92.3678 68.1551 91.9144ZM55.1895 80.7963C54.7497 80.6416 54.1612 80.318 53.8817 80.0771C53.4471 79.7025 53.4043 79.5345 53.585 78.9143C53.701 78.5156 53.7275 78.0361 53.6435 77.8487C53.5596 77.6614 53.7906 77.2265 54.157 76.8823C54.7168 76.3565 54.927 76.2852 55.474 76.4358C56.4336 76.6999 56.9232 77.1284 57.5617 78.2632C58.0727 79.1718 58.0896 79.327 57.7197 79.7226C56.7298 80.7811 56.0121 81.0857 55.1895 80.7963ZM42.6243 82.8916C42.3433 82.9511 41.9297 82.8983 41.7052 82.7742C41.4806 82.6499 41.1643 82.6078 41.0022 82.6804C40.448 82.9287 40.0801 81.5448 40.4877 80.7449C41.1039 79.5358 41.3826 79.3863 42.8027 79.5033C44.4086 79.6354 44.6621 80.0099 44.1527 81.4972C43.7928 82.5483 43.6568 82.6722 42.6243 82.8916ZM44.9386 64.5375C44.1953 64.6952 42.7671 64.0677 42.7232 63.5641C42.703 63.3321 42.5774 62.899 42.4442 62.6017C42.2395 62.1448 42.3334 61.9766 43.0499 61.5162C43.6349 61.1404 44.1958 60.9874 44.8589 61.0233C45.6653 61.0668 45.9105 61.2173 46.383 61.9582C46.8553 62.6989 46.9013 62.9414 46.6688 63.4625C46.4003 64.0643 46.0015 64.3119 44.9386 64.5375ZM88.1937 100.692C89.0464 100.141 89.9379 99.4245 90.1748 99.1C90.4117 98.7754 91.1189 98.1948 91.7465 97.8098C92.374 97.4247 92.947 96.9394 93.0197 96.7312C93.1748 96.2878 95.2153 93.5951 95.49 93.4715C95.7614 93.3493 97.213 90.614 98.3289 88.1216C99.2682 86.0237 100.746 81.6268 101.001 80.1733C101.491 77.3787 101.152 74.1859 100.006 70.8025C99.7664 70.0942 99.6467 69.5271 99.74 69.5424C99.8334 69.5577 99.5804 68.7701 99.1779 67.7924C98.7754 66.8146 98.343 65.5211 98.2172 64.9178C97.5781 61.8539 93.0436 53.5316 90.8651 51.4243C86.6363 47.3337 80.9229 43.9641 76.0581 42.6915C73.9623 42.1432 69.77 41.6863 69.1957 41.9436C69.0695 42.0001 68.5091 42.0016 67.9503 41.9469C67.1485 41.8685 66.4337 42.06 64.5595 42.8555C62.1847 43.8634 62.1848 43.8634 62.063 45.4513C61.996 46.3246 61.7503 47.6669 61.5171 48.4343C61.0932 49.8295 61.0932 49.8295 62.2331 50.9059C62.86 51.4979 63.8449 52.2573 64.4217 52.5935C64.9986 52.9297 65.5283 53.3337 65.5989 53.4913C65.6696 53.649 66.1967 54.0515 66.7705 54.3859C67.3443 54.7203 67.8648 55.1079 67.9272 55.2472C67.9896 55.3864 68.4925 55.7346 69.0446 56.0207C69.5968 56.3068 70.0933 56.641 70.1481 56.7632C70.2028 56.8854 71.0751 57.5419 72.0864 58.2221C73.0978 58.9023 73.9633 59.5439 74.0098 59.6478C74.102 59.8536 74.2401 62.429 74.2555 64.2336C74.2611 64.8557 74.3878 66.7791 74.5376 68.5076C74.6873 70.2362 74.8628 72.5698 74.9276 73.6934C75.0078 75.0861 75.2353 76.2041 75.6423 77.2058C76.2273 78.6453 76.2271 78.6912 75.631 79.4679C74.9636 80.3376 75.0317 80.6884 76.1464 82.1235C76.6558 82.7793 80.7069 91.1043 82.2145 94.5933C82.3545 94.9209 83.0845 96.6026 83.8314 98.3326C84.8334 100.649 85.1326 101.541 84.9677 101.718C84.8445 101.851 84.7931 102.069 84.8531 102.203C84.994 102.518 86.243 101.954 88.1937 100.692ZM87.1055 97.3667C86.2608 97.3445 86.2387 97.3222 85.6997 95.9495C85.1519 94.5548 85.152 94.5548 85.9492 94.0399C86.5235 93.6688 87.0263 93.556 87.7475 93.6344C89.0485 93.7763 89.671 94.586 89.4737 95.8799C89.314 96.9275 88.5537 97.4049 87.1055 97.3667ZM92.1191 83.4735C91.7502 83.4188 91.0777 83.3506 90.6244 83.3219C89.5081 83.2513 88.6899 82.1303 89.091 81.2213C89.4046 80.5105 90.8799 79.754 91.8653 79.7985C92.6573 79.8343 93.3787 80.8901 93.3659 81.9946C93.3531 83.1035 92.9387 83.595 92.1191 83.4735ZM81.3013 85.6525C80.23 84.7529 80.1262 83.2519 81.1208 83.0378C82.4942 82.7422 82.8055 82.7597 83.3798 83.1648C83.9973 83.6003 84.0128 83.647 83.7926 84.4027C83.4926 85.4327 81.9569 86.2031 81.3013 85.6525ZM79.3649 70.3106C79.0397 70.3118 78.6964 70.1087 78.5786 69.8459C78.4637 69.5894 78.2438 69.3568 78.09 69.3292C77.9364 69.3012 77.7417 69.1256 77.6576 68.938C77.4419 68.4564 78.3052 66.0628 78.8605 65.6028C79.4899 65.0818 80.5031 65.5407 80.9589 66.5534C81.149 66.9757 81.5669 67.546 81.8876 67.8208C82.4577 68.3093 82.4558 68.3368 81.7971 69.0678C81.0528 69.8939 80.2432 70.3077 79.3649 70.3106ZM89.5953 63.3226C88.2659 63.2639 88.2046 63.2294 87.7918 62.3082C87.2271 61.0477 87.6564 60.2075 89.0617 59.8224C90.1277 59.5302 91.4264 59.5354 91.5625 59.8323C91.6107 59.9372 91.5029 59.9963 91.3223 59.9628C91.092 59.9214 91.1046 60.0155 91.3656 60.2815C92.1545 61.0854 92.2478 61.3276 92.0839 62.1461C91.8783 63.174 91.398 63.4021 89.5953 63.3226ZM73.4002 50.2584C72.1472 49.9781 71.2604 49.316 71.1994 48.6152C71.1828 48.424 71.4957 47.9504 71.8949 47.5626C72.7293 46.7521 73.6088 46.6442 74.9775 47.1846C75.9012 47.5493 76.2592 48.5167 75.8485 49.5381C75.5012 50.4015 74.8703 50.5871 73.4002 50.2584ZM74.1457 77.5552C73.9827 76.738 73.4314 75.5328 73.2578 75.6106C73.164 75.6526 73.1212 76.0547 73.1627 76.5042C73.2499 77.449 72.8135 78.0655 72.3098 77.7091C72.0609 77.5328 72.0994 77.1332 72.4519 76.2478C72.7186 75.5775 72.8899 74.9243 72.8324 74.7961C72.775 74.6678 72.8789 74.3694 73.0633 74.1326C73.4186 73.6762 73.3867 70.5902 72.9659 64.7357C72.7305 61.4604 72.5365 60.5681 71.9171 59.9105C71.3514 59.3099 71.0435 59.8599 70.9271 61.6793C70.8628 62.684 70.7319 63.7966 70.6363 64.1517C70.5407 64.5068 70.45 65.3036 70.4347 65.9224C70.4193 66.5413 70.3584 67.1434 70.2992 67.2607C70.1512 67.5529 69.6718 70.4892 69.4398 72.522C69.3346 73.4428 69.1006 74.4566 68.9197 74.775C68.6368 75.2731 68.662 75.4333 69.0996 75.9217C69.8157 76.7207 70.1996 76.5952 70.2169 75.5568C70.2252 75.0664 70.3124 74.4076 70.411 74.0925C70.5096 73.7776 70.6867 72.8313 70.8043 71.99C71.0378 70.3209 71.5534 68.1415 71.734 68.0606C72.0556 67.9165 72.2069 68.9711 71.9054 69.2567C71.7121 69.4402 71.5897 69.8411 71.6335 70.1482C71.6772 70.4553 71.5796 71.67 71.4164 72.8473C71.2532 74.0246 71.1755 75.1123 71.2436 75.2643C71.4208 75.66 70.689 76.8339 70.2598 76.8426C69.7721 76.8525 69.8345 76.9425 71.1455 78.1215C72.1126 78.9912 72.3833 79.1091 72.9812 78.9211C73.8458 78.6492 74.2657 78.1559 74.1457 77.5552ZM71.5815 67.4188C71.4844 67.2021 71.5257 67.0165 71.673 67.0065C71.8203 66.9964 71.9863 67.0891 72.0416 67.2127C72.0969 67.3361 72.0558 67.5219 71.9502 67.6251C71.8443 67.7285 71.6787 67.6356 71.5815 67.4188ZM68.2927 74.4159C68.232 74.2802 68.2991 73.771 68.4422 73.2843C68.5852 72.7977 68.8132 71.4555 68.9489 70.3017C69.2491 67.7509 70.5956 59.9485 70.772 59.7379C70.9613 59.5117 70.6568 58.9548 70.1324 58.5685C69.3697 58.0064 69.1411 59.1525 68.1625 68.4445C67.8278 71.6236 67.5268 73.3364 67.2827 73.4519C66.8601 73.6511 66.947 73.9715 67.5639 74.4896C68.019 74.8717 68.4763 74.8255 68.2927 74.4159ZM66.7594 71.4401C66.927 70.749 67.1746 69.2648 67.3097 68.1418C67.4447 67.0187 67.7266 64.6943 67.936 62.9762C68.1456 61.2582 68.5067 59.4356 68.7385 58.9261C69.2228 57.8618 69.155 57.5682 68.3541 57.263C67.8094 57.0554 67.7724 57.1025 67.6313 58.1816C67.5494 58.8072 67.2977 59.9609 67.0719 60.7454C66.846 61.5299 66.6874 62.2298 66.7192 62.3008C66.751 62.372 66.5782 63.2316 66.335 64.2114C66.092 65.1912 65.8718 66.8074 65.8458 67.803C65.8022 69.4704 65.5192 70.5388 64.847 71.5738C64.6209 71.9219 64.6615 72.0497 65.1429 72.5058C65.9146 73.2371 66.4014 72.9161 66.7594 71.4401ZM64.2535 71.1351C64.1966 71.0082 64.3593 70.6184 64.6146 70.2685C64.903 69.8735 65.0318 69.2739 64.9546 68.6872C64.886 68.1676 64.9721 67.5415 65.1456 67.2962C65.3193 67.0509 65.3762 66.8129 65.2726 66.7673C64.9546 66.6278 65.1869 65.309 66.7672 58.2762C66.9936 57.2689 67.1556 56.3928 67.1272 56.3294C67.0987 56.2659 66.0035 55.4538 64.6932 54.5247C63.3829 53.5955 62.1655 52.6767 61.988 52.4831C61.8104 52.2894 61.4809 52.2134 61.2558 52.3143C60.8599 52.4916 60.5886 53.4889 60.2458 56.0269C60.1556 56.6944 59.8652 58.5513 59.6005 60.1533C59.3357 61.7552 59.0759 63.6602 59.0231 64.3865C58.9703 65.1128 58.8247 66.0723 58.6996 66.5187C58.4721 67.3303 58.4721 67.3303 59.4778 68.0154C60.0308 68.3921 61.1145 69.2481 61.886 69.9173C62.6574 70.5866 63.4444 71.2241 63.6349 71.3339C64.0472 71.5718 64.3986 71.4589 64.2535 71.1351ZM63.1333 70.3553C63.1048 70.2918 63.2484 69.3865 63.4525 68.3437C63.6566 67.3008 63.8834 65.9362 63.9567 65.311C64.1366 63.775 64.2685 62.8382 64.6841 60.1469C64.8784 58.8888 65.0144 57.5822 64.9864 57.2435C64.9384 56.6635 65.2924 56.2685 65.6997 56.4475C65.9965 56.578 65.3456 60.916 64.7335 62.8868C64.5454 63.4922 64.4267 64.0661 64.4697 64.1621C64.614 64.4842 63.9998 69.2832 63.748 69.8007C63.4946 70.3217 63.2265 70.5635 63.1333 70.3553ZM61.4989 68.4278C61.4392 68.2947 61.4531 68.0832 61.53 67.9579C61.6478 67.7659 61.8712 66.3823 62.6229 61.1874C62.6748 60.8296 62.8476 59.4393 63.0072 58.0976C63.1668 56.7558 63.429 55.5991 63.5899 55.527C64.0027 55.342 64.0478 55.5628 63.8336 56.7205C63.7304 57.2786 63.6884 57.8301 63.7404 57.9462C63.7923 58.0621 63.7006 58.5271 63.5364 58.9792C63.3722 59.4313 63.2048 60.3909 63.1643 61.1116C63.1239 61.8324 63.0047 62.7482 62.8994 63.1466C62.794 63.5452 62.7978 63.8329 62.9074 63.7862C63.0173 63.7398 63.0282 63.8329 62.9325 63.994C62.8367 64.1551 62.6004 65.1764 62.4076 66.2637C62.0737 68.1475 61.7348 68.9545 61.4989 68.4278ZM59.8709 67.6618C59.8163 67.5398 59.8888 67.314 60.0316 67.1601C60.1745 67.0062 60.2467 66.78 60.1919 66.6576C59.9824 66.19 61.2562 57.1403 61.55 57.0087C61.8888 56.8569 61.7361 58.4691 60.975 63.0791C60.8908 63.5891 60.8023 64.7332 60.7782 65.6215C60.7528 66.5607 60.5746 67.3719 60.3524 67.56C60.1422 67.738 59.9255 67.7836 59.8709 67.6618ZM61.963 54.5525C61.8465 54.2924 61.8899 54.0174 62.0595 53.9415C62.5063 53.7413 62.9321 54.1395 62.6951 54.5358C62.3807 55.0615 62.193 55.0658 61.963 54.5525ZM58.8769 60.6194C59.0132 59.4653 59.3111 57.3929 59.5389 56.014C59.7666 54.6351 59.9061 53.4023 59.8488 53.2743C59.7915 53.1464 59.9131 52.6438 60.1191 52.1574C60.6355 50.9382 60.4203 50.5849 59.5309 51.1916C59.1406 51.4578 58.6797 51.9213 58.5067 52.2214C57.8355 53.3857 57.5316 62.4399 58.1196 63.7526C58.3032 64.1622 58.6066 62.9063 58.8769 60.6194ZM57.1484 56.9934C57.3231 56.6621 57.575 52.751 57.4258 52.6854C57.3461 52.6505 56.9807 52.7297 56.6136 52.8616C55.9594 53.0966 55.9544 53.1373 56.356 54.9202C56.9434 57.5284 57.0876 58.0704 57.0678 57.5973C57.0583 57.3673 57.0945 57.0957 57.1484 56.9934ZM57.7514 50.3134C57.6727 50.1377 57.768 49.7698 57.9633 49.4959C58.3572 48.9433 58.5047 48.2146 58.5216 46.7367C58.5354 45.5284 58.557 45.5744 58.077 45.7894C57.6184 45.9949 57.4516 46.6216 57.439 48.1867C57.4339 48.8039 57.2693 49.7812 57.0728 50.3586C56.7157 51.4086 56.7157 51.4086 57.3051 51.0208C57.6292 50.8074 57.8302 50.4891 57.7514 50.3134ZM56.4668 50.5563C56.5986 50.0678 56.7197 48.9277 56.7361 48.0225C56.766 46.3767 56.766 46.3767 56.2611 46.603C55.9833 46.7274 55.6815 47.1043 55.5902 47.4406C55.3668 48.2634 55.3893 51.3255 55.6199 51.4971C55.9582 51.7486 56.2252 51.452 56.4668 50.5563ZM54.4826 51.5782C54.6773 51.1663 55.1015 47.8396 54.9907 47.5924C54.9627 47.5299 54.7919 47.5451 54.6111 47.6261C54.4305 47.707 54.1998 48.6408 54.0988 49.701C53.9978 50.7611 53.7815 51.6884 53.6181 51.7616C53.1906 51.9532 53.1783 51.8251 53.4354 49.8571C53.5669 48.8503 53.5476 48.0603 53.3907 48.0321C53.0524 47.9713 52.6585 49.2111 52.6221 50.4514C52.5945 51.3921 52.2602 51.821 52.0027 51.2461C51.9232 51.0686 51.9335 50.5463 52.0258 50.0853C52.1179 49.6244 52.1113 49.2111 52.0108 49.1669C51.6869 49.0246 51.288 49.6509 51.4592 50.033C51.5504 50.2367 51.5893 50.7163 51.5455 51.0987C51.4734 51.7273 51.5142 51.8103 51.9702 51.963C52.5335 52.1518 53.7197 52.2303 54.056 52.1012C54.1762 52.0545 54.3685 51.8196 54.4826 51.5782ZM59.6713 48.3012C59.6204 48.0239 59.6738 47.299 59.7897 46.6904C60.0234 45.4638 59.9123 44.9672 59.4505 45.1741C59.2827 45.2492 59.1482 46.0067 59.152 46.8572C59.1557 47.7078 59.0791 48.5881 58.9818 48.8136C58.711 49.4408 58.9373 49.6721 59.3738 49.2143C59.5882 48.9895 59.722 48.5786 59.6713 48.3012ZM50.8468 49.9358C50.9193 49.3339 50.8904 49.293 50.5129 49.4621C50.2857 49.564 49.9834 49.8885 49.8413 50.1835C49.6175 50.6476 49.6402 50.7323 50.01 50.813C50.5654 50.9343 50.7498 50.741 50.8468 49.9358ZM87.1479 30.0444C86.8429 29.9105 86.5977 30.4586 86.8714 30.6622C87.0342 30.7831 87.1519 30.7255 87.2295 30.4867C87.293 30.2911 87.2565 30.0921 87.1479 30.0444ZM49.3006 45.5017C49.6156 44.9431 49.8719 44.0033 49.87 43.4133C49.8671 42.4813 49.8034 42.3057 49.3843 42.0748C49.119 41.9286 48.6549 41.5641 48.3531 41.2649C47.9859 40.9009 47.3958 40.7116 46.5699 40.6932C45.4973 40.6693 45.2404 40.7524 44.6103 41.3271C43.2002 42.6133 42.7804 45.743 43.8306 47.1402C44.1053 47.5056 44.5931 47.6712 45.4583 47.6927C47.07 47.7329 48.5032 46.9156 49.3006 45.5017ZM45.5477 45.441C44.6625 45.052 44.5729 44.7148 45.0133 43.429C45.3307 42.502 45.5087 42.2975 46.0724 42.2119C47.511 41.9935 48.0251 42.6329 47.6615 44.1883C47.3904 45.3478 46.5156 45.8662 45.5477 45.441ZM60.9448 38.6348C61.1468 38.2313 61.3107 37.5403 61.3089 37.0993C61.3062 36.3891 61.2178 36.224 60.5383 35.656C58.5356 33.9826 55.4536 34.624 54.6361 36.8843C54.2969 37.8223 54.8063 39.5405 55.6329 40.2464C56.7887 41.2334 60.155 40.2121 60.9448 38.6348ZM57.6284 39.0176C56.8397 38.8268 55.7843 37.948 55.8277 37.5184C55.8825 36.9777 57.0525 36.2494 57.9723 36.1835C59.1936 36.096 59.7991 36.9147 59.34 38.0328C58.9508 38.9809 58.5143 39.232 57.6284 39.0176ZM51.9374 21.4199C50.8197 20.9782 50.4362 20.4445 50.4449 19.3429C50.46 17.4481 50.73 16.9751 52.0095 16.6019C53.4079 16.1941 54.731 16.6165 55.1776 17.6135C55.4195 18.1532 55.333 18.5185 54.7111 19.583C53.6681 21.3682 52.9725 21.8289 51.9374 21.4199Z"
    fill="black"
  />
  <path
    d="M67.7765 74.4814C67.232 74.1986 67.0737 73.8853 67.3188 73.575C67.6671 73.134 67.9407 71.4788 68.49 66.4899C69.014 61.7303 69.316 59.6569 69.5832 58.9823C69.7495 58.5624 69.7695 58.553 70.1031 58.738C70.675 59.0552 70.7231 59.4348 70.3844 60.9567C70.2068 61.7551 69.7893 64.152 69.4566 66.2833C69.1239 68.4145 68.7308 70.8822 68.5831 71.7669C68.4353 72.6516 68.2953 73.631 68.272 73.9433C68.2247 74.5776 68.1397 74.6699 67.7765 74.4814Z"
    fill="#00FF00"
  />
  <path
    d="M72.8617 78.9082C72.446 78.9838 72.2117 78.9069 71.7339 78.5382C71.2052 78.1302 70.1255 77.1422 70.0679 77.0137C70.04 76.9512 70.1108 76.9016 70.3159 76.8402C70.5398 76.7731 70.6637 76.6766 70.8774 76.4019C71.1732 76.0219 71.3863 75.4798 71.3083 75.3056C71.2374 75.1475 71.3077 74.1008 71.4878 72.6297C71.575 71.9182 71.6582 70.9547 71.6727 70.4885C71.6949 69.7801 71.7327 69.5918 71.9034 69.341C72.128 69.011 72.1597 68.6261 71.9929 68.2538C71.7623 67.7389 71.6075 67.9791 71.2609 69.3894C71.137 69.8932 70.9261 70.9781 70.792 71.8003C70.658 72.6225 70.4788 73.5876 70.3937 73.9449C70.3087 74.3022 70.2139 74.9167 70.1831 75.3104C70.1215 76.0976 70.0287 76.3857 69.8329 76.398C69.6846 76.4074 69.1194 75.93 68.8882 75.6C68.7408 75.3895 68.7446 75.3424 68.9521 74.8069C69.2361 74.0737 69.364 73.4638 69.5796 71.8137C69.8 70.1267 70.123 68.161 70.288 67.5022C70.3576 67.2244 70.4444 66.5253 70.4808 65.9486C70.5172 65.3719 70.6148 64.5029 70.6977 64.0174C70.7806 63.5319 70.8891 62.658 70.9389 62.0753C71.0514 60.7585 71.1595 60.127 71.3122 59.8944C71.4203 59.7298 71.4464 59.7192 71.6145 59.7716C72.0621 59.9111 72.4461 60.6972 72.6287 61.8481C72.9571 63.9173 73.3123 70.3257 73.2244 72.5962C73.1835 73.6544 73.1456 73.9018 72.9832 74.1715C72.8773 74.3475 72.7886 74.6358 72.786 74.8123C72.7834 74.9888 72.6421 75.529 72.4721 76.0126C72.0185 77.3029 72.0054 77.5718 72.3857 77.793C72.5026 77.861 72.6333 77.8632 72.7756 77.7994C73.0763 77.6647 73.24 77.1618 73.207 76.4739C73.1562 75.4109 73.3745 75.4979 73.8416 76.7268C74.1552 77.5518 74.1782 77.9429 73.9327 78.2723C73.7439 78.5255 73.2042 78.8459 72.8617 78.9082ZM72.0752 67.3943C72.1104 67.1898 72.0992 67.1648 71.9231 67.0549C71.5337 66.8118 71.3331 67.1957 71.645 67.587C71.7217 67.6832 71.8137 67.7153 71.901 67.6761C71.9759 67.6426 72.0543 67.5157 72.0752 67.3943Z"
    fill="#00FF00"
  />
  <path
    d="M65.8527 72.8558C65.6025 72.8581 65.2278 72.6055 64.8965 72.2112C64.6897 71.9651 64.6936 71.8684 64.9258 71.4894C65.5549 70.4628 65.7566 69.6727 65.8758 67.7687C65.9767 66.1589 66.0854 65.4034 66.432 63.9026C66.6449 62.9808 66.7575 62.4045 66.7348 62.3537C66.7084 62.2949 66.8311 61.7369 67.0619 60.8661C67.4052 59.5703 67.5558 58.8688 67.7012 57.8886C67.7656 57.4543 67.8344 57.239 67.9214 57.2001C68.0158 57.1578 68.5442 57.3441 68.7562 57.4944C69.0903 57.7313 69.0974 57.9576 68.7953 58.7325C68.547 59.3694 68.4008 59.9536 68.1909 61.1472C68.0204 62.1172 67.9679 62.5131 67.5166 66.2318C67.0657 69.9467 66.8393 71.286 66.5269 72.0855C66.3125 72.6344 66.1208 72.8534 65.8527 72.8558Z"
    fill="#FF5599"
  />
  <path
    d="M65.7699 72.8152C65.5045 72.7726 65.0151 72.3837 64.8343 72.0716C64.7306 71.8927 64.738 71.8665 65.0428 71.322C65.4509 70.5932 65.6719 69.9042 65.7836 69.013C65.8087 68.8124 65.8638 68.1862 65.9059 67.6215C65.9481 67.0568 66.0205 66.3044 66.0669 65.9495C66.1455 65.3476 66.2039 65.0491 66.5865 63.2895C66.6666 62.9212 66.7407 62.5105 66.7513 62.3768C66.7618 62.2431 66.8428 61.8409 66.9312 61.483C67.4079 59.5524 67.5335 59.004 67.6251 58.4525C67.7726 57.5649 67.8392 57.2997 67.9287 57.2438C67.9881 57.2067 68.0817 57.2248 68.3392 57.3232C68.8736 57.5273 69.03 57.711 68.9739 58.0691C68.957 58.1767 68.8593 58.4979 68.7566 58.7829C68.3077 60.0288 68.1413 60.9751 67.6055 65.3298C67.0114 70.158 66.833 71.2412 66.4896 72.1029C66.3382 72.4826 66.1687 72.729 66.0096 72.8003C65.9614 72.8219 65.8535 72.8286 65.7699 72.8152Z"
    fill="#00FF00"
  />
  <path
    d="M64.0485 71.4312C63.7649 71.4403 63.467 71.2262 61.7863 69.8048C60.9201 69.0724 59.8611 68.2426 59.393 67.9297C58.9717 67.6481 58.704 67.416 58.6427 67.2792C58.5787 67.1364 58.5957 66.9941 58.749 66.385C58.87 65.9046 58.9516 65.3471 59.0574 64.2799C59.1688 63.1555 59.3637 61.7775 59.7778 59.1873C59.9638 58.0234 60.1611 56.7594 60.2161 56.3783C60.4957 54.4428 60.5895 53.9149 60.7723 53.2479C60.9911 52.4501 61.2238 52.2013 61.6373 52.3233C61.7441 52.3549 61.9496 52.4917 62.2265 52.7156C62.7268 53.1201 63.5722 53.75 64.6602 54.529C65.8424 55.3755 66.5599 55.901 66.8566 56.1379L67.1241 56.3514L67.004 56.9977C66.9379 57.3532 66.6942 58.4946 66.4623 59.5341C65.4666 63.9983 65.1256 65.7483 65.1278 66.3834C65.1283 66.5239 65.1521 66.6118 65.2216 66.728C65.3082 66.8731 65.3102 66.8949 65.2487 67.0399C65.2125 67.1256 65.1432 67.2658 65.0948 67.3515C64.9833 67.5492 64.894 68.0675 64.9153 68.3936C64.9839 69.4426 64.9307 69.7154 64.5334 70.3513C64.3074 70.713 64.1853 71.0307 64.2322 71.1353C64.2692 71.218 64.2585 71.3415 64.21 71.3894C64.189 71.4102 64.1162 71.4289 64.0485 71.4312ZM63.6226 70.0655C63.8013 69.7834 63.8667 69.5564 64.0123 68.7125C64.2925 67.0892 64.5428 64.7637 64.4971 64.2082C64.4772 63.9662 64.544 63.6262 64.7544 62.8989C65.2959 61.0264 65.8527 57.6801 65.7846 56.7075L65.7673 56.4608L65.6522 56.4145C65.5173 56.3601 65.3579 56.3863 65.2232 56.485C65.0385 56.6203 64.981 56.8346 64.9528 57.4919C64.9196 58.2694 64.8239 59.0467 64.4814 61.3226C64.3331 62.3081 64.132 63.738 64.0345 64.5001C63.8332 66.0744 63.7909 66.3427 63.4317 68.3245C63.1208 70.0402 63.0787 70.3489 63.1466 70.4154C63.232 70.4989 63.4492 70.3393 63.6226 70.0655ZM61.9143 68.2937C62.0565 67.9833 62.206 67.4132 62.377 66.5288C62.644 65.1486 62.7988 64.4596 62.9141 64.1382C63.0308 63.813 63.038 63.7214 62.9435 63.7637C62.8167 63.8205 62.8238 63.6628 62.9872 62.7844C63.063 62.3771 63.1196 61.8918 63.213 60.8481C63.2698 60.213 63.4089 59.4735 63.5653 58.975C63.7371 58.4274 63.7846 58.1579 63.7561 57.891C63.7288 57.6355 63.7518 57.3853 63.8679 56.6746C63.9834 55.9675 64.0007 55.6959 63.9391 55.5585C63.8931 55.4557 63.8739 55.4472 63.7337 55.4665C63.604 55.4843 63.5694 55.5024 63.5194 55.5785C63.4336 55.7092 63.3219 56.0957 63.2077 56.6572C63.1135 57.1196 63.065 57.4742 62.7402 60.0676C62.6663 60.6576 62.4932 61.9108 62.3556 62.8524C61.8508 66.306 61.6407 67.58 61.5158 67.9435C61.4314 68.1896 61.4236 68.2957 61.4806 68.4231C61.5985 68.6861 61.756 68.6391 61.9143 68.2937ZM60.4526 67.4619C60.6613 67.0959 60.7506 66.5499 60.8223 65.2012C60.8954 63.8265 60.9254 63.5362 61.1183 62.3334C61.6486 59.0277 61.8075 57.6441 61.7143 57.1414C61.7036 57.0836 61.665 57.0275 61.6191 57.0018C61.5441 56.9602 61.5403 56.9624 61.4863 57.0851C61.2746 57.5657 60.7455 60.8129 60.368 63.9471C60.2058 65.2935 60.1336 66.2191 60.1627 66.577C60.1856 66.8591 60.1781 66.8956 60.0625 67.0657C59.8212 67.4205 59.7721 67.6568 59.9245 67.7293C60.0324 67.7808 60.3675 67.6111 60.4526 67.4619ZM62.5171 54.8196C62.6755 54.6538 62.7782 54.4447 62.7757 54.2931C62.771 54.0054 62.4659 53.8077 62.1536 53.8901C61.8493 53.9704 61.795 54.2445 62.003 54.6509C62.0922 54.8253 62.1502 54.8993 62.2214 54.9295C62.3371 54.9786 62.3806 54.9625 62.5171 54.8196Z"
    fill="#00FF00"
  />
  <path
    d="M58.1268 63.7171C57.7544 62.886 57.7322 58.0448 58.0847 54.5334C58.2074 53.3104 58.3792 52.4713 58.5681 52.1725C58.901 51.6458 59.8475 50.9044 60.1609 50.9249C60.2486 50.9306 60.2783 50.9564 60.326 51.0683C60.402 51.2459 60.358 51.4633 60.121 52.0872C59.8862 52.7053 59.8109 53.023 59.8295 53.3164C59.8548 53.7149 59.775 54.3323 59.3019 57.3958C59.2095 57.9941 59.0325 59.2582 58.9085 60.2048C58.6638 62.0735 58.4932 63.0799 58.3512 63.4922C58.2524 63.7789 58.1848 63.8467 58.1268 63.7171Z"
    fill="#00FF00"
  />
  <path
    d="M57.0271 57.6457C56.9969 57.5795 56.8415 56.9379 56.558 55.709C56.0883 53.6723 56.0376 53.3067 56.1972 53.1046C56.3027 52.9709 57.1099 52.6923 57.3553 52.7045C57.4242 52.708 57.4296 52.7222 57.4435 52.9336C57.4666 53.2865 57.3617 55.2385 57.2784 56.0052C57.237 56.3865 57.1693 56.8197 57.1281 56.968C57.0868 57.1162 57.0507 57.3369 57.0477 57.4584C57.0448 57.5799 57.0355 57.6642 57.0271 57.6457Z"
    fill="#00FF00"
  />
  <path
    d="M56.8689 51.2188C56.8322 51.1945 56.8561 51.1017 57.0703 50.4366C57.2994 49.7255 57.4227 48.9381 57.474 47.8581C57.5226 46.834 57.601 46.3815 57.7801 46.0896C57.874 45.9367 57.91 45.9086 58.1493 45.8014C58.3919 45.6927 58.4179 45.688 58.4563 45.7485C58.5426 45.8841 58.4972 47.6651 58.392 48.2723C58.3115 48.7362 58.1843 49.0854 57.9551 49.4712C57.7458 49.8235 57.6753 50.0647 57.7228 50.2668C57.7796 50.5091 57.6281 50.757 57.2618 51.0214C57.0174 51.1978 56.9149 51.2493 56.8689 51.2188Z"
    fill="#00FF00"
  />
  <path
    d="M55.7716 51.5417C55.6281 51.5076 55.5879 51.4343 55.5344 51.11C55.4261 50.4534 55.4494 48.3739 55.5727 47.6862C55.6695 47.1467 55.9277 46.7761 56.3338 46.5942C56.5532 46.4959 56.6639 46.5191 56.6926 46.6693C56.7534 46.987 56.7005 48.7781 56.6076 49.5478C56.4973 50.462 56.3046 51.1438 56.0837 51.4016C55.9388 51.5707 55.9232 51.5777 55.7716 51.5417Z"
    fill="#00FF00"
  />
  <path
    d="M58.9565 49.4086C58.8777 49.3315 58.881 49.1795 58.9671 48.9259C59.0838 48.5819 59.1206 48.2727 59.1529 47.3678C59.1901 46.3262 59.2085 46.0627 59.2683 45.7158C59.3454 45.2683 59.4592 45.1112 59.675 45.1546C59.8998 45.1998 59.9371 45.6549 59.7893 46.5517C59.6633 47.317 59.6235 47.7254 59.6396 48.0901C59.6606 48.5641 59.648 48.6647 59.5377 48.9054C59.3936 49.2199 59.0594 49.5093 58.9565 49.4086Z"
    fill="#00FF00"
  />
  <path
    d="M53.9146 52.1316C53.5722 52.1879 52.8718 52.152 52.3496 52.0513C52.1676 52.0162 52.0716 51.9911 51.9298 51.9417C51.5827 51.8207 51.5156 51.7334 51.5254 51.4158C51.527 51.3625 51.5368 51.2333 51.5471 51.1287C51.5914 50.6812 51.5571 50.239 51.4616 50.0254C51.3775 49.8373 51.4453 49.5259 51.6138 49.3267C51.7346 49.1837 51.8599 49.1276 51.9785 49.1634C52.0264 49.1778 52.0273 49.1786 52.0488 49.229C52.1056 49.3617 52.094 49.6771 52.0167 50.1066C51.945 50.5055 51.9253 50.8804 51.9637 51.1164C51.9762 51.1933 51.9832 51.214 52.0233 51.293C52.0986 51.4413 52.1664 51.5059 52.2486 51.5076C52.2835 51.5083 52.3017 51.5037 52.3278 51.4876C52.4537 51.4096 52.554 51.1566 52.5999 50.8006C52.6079 50.7393 52.6206 50.5664 52.6282 50.4164C52.6421 50.1428 52.6575 49.9592 52.6822 49.7703C52.8033 48.843 53.0881 48.0906 53.3376 48.0388C53.3975 48.0264 53.4171 48.0396 53.4502 48.1154C53.4865 48.1982 53.5058 48.3278 53.5131 48.5379C53.5262 48.915 53.4959 49.3407 53.4065 50.0358C53.2525 51.2338 53.2292 51.5877 53.2943 51.7414C53.3376 51.8441 53.3945 51.8545 53.5544 51.7896L53.6499 51.7511L53.6847 51.6968C53.8328 51.4662 53.9941 50.7234 54.0886 49.8378C54.1631 49.1391 54.2219 48.7607 54.3197 48.3482C54.4133 47.9537 54.5146 47.6987 54.6016 47.6389C54.6397 47.6128 54.7802 47.5696 54.8507 47.5624C54.8829 47.5592 54.9254 47.5617 54.9452 47.5683C54.9775 47.579 54.9821 47.5836 54.9903 47.6144C55.0526 47.85 54.8633 49.6274 54.6458 50.849C54.5813 51.2114 54.5389 51.4032 54.4976 51.5194C54.4473 51.6611 54.3114 51.8715 54.1901 51.9953C54.1153 52.0717 54.0337 52.1119 53.9146 52.1316Z"
    fill="#FF5599"
  />
  <path
    d="M53.9618 52.1187C53.7318 52.1653 53.2706 52.1635 52.8198 52.1143C52.4189 52.0705 52.1511 52.0149 51.9063 51.9244C51.5511 51.7932 51.5107 51.7244 51.54 51.3015C51.5463 51.2111 51.5561 51.0699 51.5617 50.9879C51.5736 50.8138 51.5725 50.6203 51.5588 50.4651C51.5422 50.2771 51.5307 50.2233 51.4586 49.9971C51.4447 49.9543 51.4343 49.8961 51.4324 49.8551C51.4187 49.5302 51.6778 49.1546 51.9117 49.1603C52.0171 49.1628 52.0452 49.1918 52.0666 49.3202C52.0924 49.4755 52.0775 49.7037 52.0177 50.0713C51.9569 50.444 51.9353 50.6864 51.9428 50.9092C51.9489 51.0879 51.9625 51.1647 52.0047 51.259C52.0957 51.4621 52.1923 51.5396 52.3048 51.4998C52.3453 51.4851 52.357 51.4764 52.3994 51.426C52.4832 51.3266 52.5595 51.1064 52.5975 50.8546C52.6047 50.8068 52.6202 50.6135 52.632 50.4253C52.6612 49.9569 52.685 49.7416 52.7423 49.4258C52.848 48.8436 53.0193 48.3592 53.193 48.1513C53.2536 48.0788 53.3053 48.0449 53.3577 48.0431C53.4054 48.0414 53.4259 48.0621 53.4537 48.1402C53.5089 48.295 53.5238 48.5979 53.4985 49.0515C53.4819 49.3506 53.4588 49.5788 53.389 50.137C53.3107 50.7636 53.2781 51.0694 53.2645 51.3057C53.2499 51.5614 53.2567 51.6599 53.2952 51.7457C53.341 51.8478 53.3818 51.8554 53.5516 51.794L53.6529 51.7573L53.682 51.7107C53.8317 51.4709 53.984 50.7968 54.0807 49.9465C54.162 49.2311 54.1898 49.0273 54.2488 48.712C54.3354 48.2497 54.4512 47.8585 54.5446 47.7134L54.579 47.6599L54.6649 47.6219C54.7638 47.5782 54.8457 47.5611 54.9157 47.5696C54.9609 47.5752 54.9628 47.5765 54.9794 47.6149C55.0002 47.6627 55.0021 47.7619 54.9876 48.0378C54.9707 48.3608 54.9315 48.772 54.8663 49.3129C54.7535 50.2469 54.5815 51.2686 54.4971 51.5057C54.438 51.6716 54.269 51.9251 54.1507 52.0254C54.1146 52.0559 54.0055 52.1099 53.9618 52.1187Z"
    fill="#00FF00"
  />
  <path
    d="M50.347 50.8358C50.1849 50.8545 49.8511 50.7872 49.7629 50.7179C49.7223 50.686 49.7009 50.633 49.7041 50.5729C49.7098 50.4756 49.8408 50.1706 49.9435 50.0158C50.0526 49.8513 50.2011 49.6869 50.3429 49.5737C50.4067 49.5227 50.4305 49.5091 50.5495 49.4555C50.7015 49.387 50.7611 49.3719 50.8095 49.3897C50.838 49.4001 50.8422 49.4053 50.857 49.4486C50.876 49.5051 50.8735 49.6417 50.8489 49.8622C50.8052 50.2535 50.7357 50.5221 50.643 50.659C50.5758 50.7582 50.4698 50.8215 50.347 50.8358Z"
    fill="#FF5599"
  />
  <path
    d="M50.3432 50.8307C50.1889 50.8451 49.9083 50.7919 49.7864 50.7252C49.7557 50.7084 49.7453 50.6968 49.7292 50.6607C49.6977 50.5906 49.7047 50.5475 49.7772 50.3652C49.874 50.1217 49.9721 49.9611 50.1319 49.784C50.3024 49.5952 50.4029 49.5211 50.5958 49.4421C50.7259 49.389 50.7607 49.3812 50.8054 49.3959C50.8643 49.4155 50.8772 49.5225 50.8519 49.7836C50.8214 50.0981 50.772 50.3472 50.7071 50.5142C50.6687 50.6129 50.6529 50.6415 50.6097 50.6913C50.563 50.745 50.5509 50.7541 50.4816 50.7878C50.4183 50.8187 50.3945 50.8259 50.3432 50.8307Z"
    fill="#00FF00"
  />
</svg>
