<svg width="140" height="139" viewBox="0 0 140 139" fill="none" xmlns="http://www.w3.org/2000/svg">
<path d="M46.6957 113.047C46.3811 112.773 46.0151 112.215 45.8824 111.807C45.6814 111.189 45.7173 111.018 46.0979 110.784C46.5099 110.53 46.6746 110.599 47.7806 111.486C49.3545 112.747 52.6016 114.344 54.1128 114.6C54.7598 114.709 55.9983 114.779 56.865 114.756C57.7317 114.732 58.6759 114.708 58.9634 114.702C59.2508 114.696 60.389 114.472 61.4929 114.204C62.5968 113.937 64.0923 113.589 64.8162 113.431C68.777 112.569 73.5972 110.769 75.8351 109.316C76.3888 108.957 77.1042 108.569 77.4251 108.455C78.1694 108.191 80.8604 105.959 84.2714 102.778C86.428 100.767 89.9084 95.8834 89.6474 95.2346C89.5206 94.9187 90.0233 94.2496 90.3359 94.3183C90.7289 94.4049 91.5354 92.9215 92.6665 90.0319C94.0228 86.567 94.8459 83.1105 94.8149 81.0095C94.7832 78.8512 94.7905 78.415 94.8906 76.5188C94.9414 75.556 94.8041 74.7043 94.5046 74.1252C94.249 73.6308 93.9714 72.8835 93.8876 72.4646C93.741 71.7307 93.5898 71.4853 92.5262 70.2553C92.0701 69.7278 91.9776 69.7231 91.1009 70.1849C89.6648 70.9413 88.0274 71.1595 85.1292 70.9807C82.9273 70.8448 82.1729 70.6789 80.6334 69.9923C79.6158 69.5387 78.2276 68.9455 77.5481 68.6743C76.8688 68.403 75.3998 67.6115 74.2839 66.9153C73.1678 66.2194 72.1665 65.647 72.0583 65.6441C71.9502 65.6413 71.9172 65.897 71.9837 66.2115C72.1531 67.0056 71.5518 68.3252 67.6804 75.6552C64.1388 82.3605 63.1724 84.1293 62.9995 84.2223C62.8928 84.2797 62.4403 85.0596 61.9931 85.9547C61.0145 87.9147 57.5661 93.5015 51.4449 103.043C46.7024 110.436 46.3106 110.932 45.9431 109.972C45.8162 109.64 46.664 108.24 52.3837 99.3356C56.0066 93.6957 59.4179 88.3147 59.9645 87.3779C63.5775 81.1859 65.753 77.3627 65.7673 77.1801C65.7834 76.9763 66.3578 75.8389 68.8303 71.1148C69.4611 69.9095 70.1245 68.4338 70.3045 67.8353C70.4844 67.2368 70.8262 66.4489 71.0639 66.0841C71.5786 65.2943 71.4464 65.0319 70.0883 64.1468C68.4565 63.0833 65.3123 60.0492 63.0207 57.3267C61.8925 55.9863 60.8333 54.0162 60.7449 53.0937C60.7101 52.7301 60.5766 52.3641 60.4483 52.2805C60.32 52.1969 60.2741 51.626 60.3463 51.012C60.4721 49.9416 60.4452 49.8818 59.6965 49.5667C58.845 49.2084 56.1509 49.0292 54.4994 49.2211C53.0594 49.3885 50.176 50.5763 48.3924 51.7369C47.5716 52.271 45.8227 53.6199 44.506 54.7344C40.2089 58.3717 37.0448 62.6735 34.9653 67.7059C33.4495 71.3741 33.0929 72.3997 32.5081 74.774C31.7845 77.7117 30.9634 80.8064 30.5858 82.019C30.422 82.5452 30.3429 83.5516 30.4101 84.2556C30.4773 84.9595 30.5121 85.9852 30.4875 86.5349C30.4233 87.9687 31.2296 92.7167 31.8303 94.442C32.9413 97.633 35.2208 101.128 37.9934 103.89C38.772 104.666 39.976 105.864 40.6688 106.552C42.0683 107.943 43.1402 108.688 44.4626 109.188C45.493 109.578 45.7836 110.151 45.2225 110.685C44.8788 111.012 44.7081 110.936 42.4616 109.454C39.5668 107.544 37.6417 105.683 34.5512 101.807C31.8058 98.3639 30.0519 94.5856 29.5218 90.9724C29.3499 89.8 29.2276 89.5177 28.9606 89.6757C28.439 89.9842 22.9589 90.7121 20.3039 90.8253C14.9947 91.0518 13.1807 90.8182 11.4476 89.685C10.496 89.0633 10.2124 87.8629 10.7809 86.8663C11.5434 85.5298 14.2389 84.0971 17.9747 83.0431C21.8581 81.9474 24.0815 81.6687 27.0972 81.8993C28.7305 82.0243 29.2829 81.9697 29.3455 81.6772C29.3912 81.4643 29.5848 80.7302 29.7759 80.0466C29.9672 79.3631 30.3265 77.878 30.5746 76.7467C31.1105 74.3042 32.3034 70.5576 33.3644 67.985C34.224 65.9007 34.3249 65.691 35.5983 63.3429C36.1003 62.4174 36.4525 61.622 36.3811 61.5755C36.3096 61.5289 35.7399 61.6163 35.1151 61.7698C34.0999 62.0191 24.6607 61.578 24.1702 61.2584C24.0679 61.1917 22.5895 61.1051 20.8847 61.0658C16.5505 60.966 15.2659 60.2549 15.9433 58.3306C16.4233 56.9672 18.2061 56.0516 22.0929 55.1721C25.9588 54.2974 27.0601 54.1853 30.6501 54.3009C32.2057 54.351 33.6707 54.3194 33.9058 54.2306C34.1409 54.1418 34.4192 54.1254 34.5242 54.1938C34.6295 54.2624 34.933 54.2696 35.1993 54.2099C35.6068 54.1187 39.6154 55.1607 40.1186 55.4887C40.2077 55.5468 40.1611 55.7777 40.0149 56.0021C39.662 56.5436 38.7612 56.552 37.6275 56.0244C36.5445 55.5203 35.2237 55.3506 33.8322 55.5365C33.2852 55.6096 31.7013 55.6214 30.3126 55.5628C27.2411 55.4331 26.7724 55.4722 23.7326 56.1119C18.8554 57.1382 17.0739 57.8738 17.1268 58.8395C17.143 59.1361 17.3544 59.3316 17.8343 59.4943C18.528 59.7294 21.9764 59.9112 23.321 59.7836C23.7247 59.7454 24.1591 59.7818 24.2862 59.8646C24.4135 59.9475 25.4173 60.0813 26.5172 60.1619C27.6171 60.2426 29.3401 60.3953 30.3462 60.5015C31.3523 60.6076 32.8125 60.6406 33.5911 60.5747C34.3696 60.5089 35.5102 60.4934 36.1258 60.5403C37.3328 60.6322 37.2266 60.7097 39.2207 58.2831C39.7396 57.6515 40.2413 56.9866 40.3351 56.8054C40.8755 55.7627 46.8465 50.6878 48.4258 49.9292C51.0002 48.6925 53.2259 47.875 54.4834 47.7044C56.5702 47.4212 59.8716 47.7039 60.3061 48.203C60.7189 48.6775 61.0197 48.3712 61.01 47.4864C61.0064 47.1419 61.308 46.4397 61.7642 45.7321C62.6012 44.4322 63.5622 42.2609 63.3579 42.1277C63.2864 42.0811 63.1586 41.7994 63.0739 41.5017C62.7773 40.4599 61.4602 37.0705 61.3151 36.9757C61.2346 36.9231 61.0581 36.3452 60.9231 35.6916C60.788 35.038 60.6151 34.4625 60.5388 34.4128C60.4623 34.3629 60.4363 33.9493 60.4806 33.4933C60.525 33.0373 60.4724 32.6063 60.3639 32.5356C60.2554 32.4648 60.2061 31.9073 60.2544 31.2966C60.3027 30.6858 60.2881 30.1474 60.2221 30.1C60.0941 30.0077 58.3091 30.8575 57.3563 31.4642C57.0398 31.6659 56.4122 31.852 55.962 31.878C55.5117 31.9039 54.9391 32.0826 54.6894 32.2751C54.0741 32.7498 53.0423 32.7811 52.1025 32.3537C51.3938 32.0314 51.3261 31.9124 51.3483 31.0276C51.3617 30.4929 51.3247 29.934 51.2659 29.7854C51.0721 29.2952 50.1314 25.5875 49.8113 24.0516C49.32 21.6948 48.8435 19.7391 48.6012 19.0848C48.4601 18.7039 48.5092 18.2887 48.7362 17.9441C49.0919 17.4028 49.7875 17.1355 56.7103 14.8726C58.1143 14.4137 59.8897 13.7854 60.6557 13.4765C62.7478 12.6325 65.6306 11.8407 67.4531 11.6094C69.0208 11.4105 69.1083 11.43 69.9447 12.1653C71.34 13.3919 71.4329 13.7305 73.207 24.0557C73.4959 25.7372 73.4839 26.1425 73.1385 26.3621C72.908 26.5086 72.6827 26.7618 72.6376 26.9246C72.4392 27.6418 68.2849 29.1722 66.9265 29.0285C65.9635 28.9267 65.5078 29.1286 65.9904 29.4432C66.2669 29.6234 67.4648 33.8784 67.5632 35.0299C67.5963 35.417 67.7469 36.3093 67.8979 37.0128C68.1724 38.2918 68.1725 38.2918 68.8713 38.1069C71.2327 37.4821 74.4414 37.2635 75.6613 37.6444C76.1103 37.7846 76.295 37.7223 76.3974 37.3964C76.4726 37.157 76.9548 36.6601 77.4688 36.292C77.9829 35.9239 78.7375 35.3775 79.1457 35.0779C80.1294 34.3556 84.549 32.6756 85.3929 32.7031C86.1127 32.7266 86.3061 32.5708 86.272 31.9953C86.1189 29.4165 86.7008 27.4221 88.0891 25.7671C89.2986 24.3251 89.9925 24.0183 91.1308 24.4216C92.2289 24.8108 92.5194 25.1922 92.4952 26.2127C92.4756 27.0342 91.9075 27.901 91.0184 28.463C90.6333 28.707 89.9677 29.3577 89.5392 29.9089C88.8267 30.8256 88.7712 30.999 88.8906 31.9438C89.021 32.9766 89.021 32.9766 90.3817 33.1312C91.6312 33.2732 91.9722 33.4338 94.5521 35.0942C97.3105 36.8695 97.3667 36.9197 97.6345 37.8486C97.9073 38.7948 97.9073 38.7948 98.8531 38.5894C99.6728 38.4115 99.9052 38.2341 100.595 37.2605C101.034 36.6427 101.661 35.6 101.988 34.9426C102.315 34.2857 102.777 33.5935 103.014 33.4047C103.68 32.8718 104.503 33.2612 105.169 34.4239C105.663 35.287 105.7 35.5958 105.424 36.5862C105.004 38.0971 104.596 38.6879 103.653 39.1473C103.227 39.3547 102.557 39.7581 102.165 40.0437C101.772 40.3292 100.824 40.7962 100.059 41.0813C98.7178 41.5812 98.6712 41.6207 98.7508 42.1898C98.7962 42.5144 98.7652 43.2428 98.682 43.8085C98.5986 44.3742 98.5981 44.9427 98.6807 45.0718C98.7633 45.2009 98.6296 45.827 98.3837 46.4632C98.1377 47.0993 97.9768 47.7199 98.026 47.8422C98.075 47.9643 97.9267 48.2641 97.6958 48.5078C97.4651 48.7516 97.0886 49.1497 96.8588 49.3922C96.4941 49.7777 96.5206 49.9781 97.0694 50.9795C97.7699 52.2579 98.4567 56.7448 98.2131 58.452C98.1341 59.0064 98.1236 59.4952 98.19 59.5384C98.2565 59.5818 98.7366 59.3327 99.2573 58.9851C100.505 58.1518 104.726 56.7323 106.647 56.4995C107.487 56.3977 108.405 56.2744 108.689 56.2255C108.972 56.1766 109.364 56.2409 109.56 56.3685C109.755 56.4961 110.286 56.631 110.738 56.6684C111.477 56.7293 111.608 56.8119 112.014 57.472C112.853 58.8377 111.551 60.7257 108.784 62.1548C106.692 63.2351 105.929 63.4803 102.87 64.0548C101.569 64.2991 99.7517 64.6934 98.8313 64.9309C97.4094 65.2979 97.0947 65.295 96.738 64.9117C96.3183 64.4605 96.3182 64.4605 95.0748 66.0894C94.3908 66.9852 93.6611 67.8882 93.453 68.0959C93.1361 68.4124 93.1626 68.5622 93.6223 69.023C94.2017 69.6041 95.1679 71.4534 95.9135 73.4081C96.3964 74.6739 96.5778 76.6949 96.2532 77.1929C96.1433 77.3615 96.1434 77.8299 96.253 78.2337C96.7506 80.0642 95.9689 85.3259 94.7384 88.4291C94.2326 89.7048 94.2327 89.7048 95.1819 90.2106C96.155 90.7294 97.027 91.3119 101.676 94.5492C104.184 96.2957 104.407 96.5054 105.218 97.8719C107.779 102.186 108.16 104.149 106.773 105.884C106.38 106.375 105.944 106.808 105.805 106.847C105.245 107.001 102.88 106.088 101.5 105.186C100.158 104.308 93.4018 98.9793 91.6201 97.3942C90.9011 96.7544 90.838 96.7444 90.3808 97.1923C90.1158 97.4519 89.7517 97.9997 89.5732 98.4107C89.0931 99.5046 86.2057 102.882 84.3911 104.472C84.0736 104.75 83.3615 105.41 82.8083 105.939C81.5592 107.132 79.3892 108.824 78.3172 109.441C77.8725 109.697 77.5218 109.938 77.5378 109.977C77.7322 110.453 78.7889 111.859 79.5235 112.619C80.9001 114.045 81.353 114.668 81.3808 115.177C81.4027 115.574 82.9886 118.696 83.5104 119.369C83.8273 119.778 84.7204 124.63 84.6025 125.302C84.5167 125.792 84.2858 126.137 83.5971 126.803C82.4119 127.954 81.2356 127.947 79.4664 126.779C78.4031 126.076 78.1605 125.773 77.3982 124.18C76.9234 123.188 76.4721 122.015 76.3954 121.574C76.3187 121.132 76.1104 120.676 75.9325 120.56C75.7545 120.444 75.2616 119.676 74.8369 118.853C74.4122 118.029 73.851 117.126 73.5896 116.845C73.3282 116.564 73.1043 116.151 73.0921 115.927C73.0798 115.703 72.779 115.153 72.4236 114.705C72.0681 114.257 71.7683 113.722 71.757 113.516C71.7418 113.238 70.8288 113.399 68.1888 114.146C66.2375 114.697 63.8116 115.33 62.7979 115.552C61.7841 115.774 60.8621 116.024 60.749 116.108C60.556 116.252 58.7392 116.452 57.6863 116.446C57.4271 116.444 56.5935 116.444 55.8341 116.446C54.0239 116.45 52.4317 116.02 50.1394 114.908C49.1094 114.408 48.0417 113.897 47.7666 113.772C47.4914 113.646 47.0103 113.321 46.6957 113.047ZM16.6198 89.6389C20.2326 89.6562 26.2568 89.1713 27.7275 88.7449C29.1311 88.3379 29.1311 88.3379 29.1527 86.788C29.1802 84.8101 29.0504 83.541 28.8041 83.3808C28.4051 83.1212 25.5854 83.0095 23.478 83.1699C21.2087 83.3425 15.9745 84.6937 14.4646 85.4966C13.9865 85.7508 13.1881 86.2524 12.6902 86.6111C11.9183 87.1673 11.789 87.3372 11.8124 87.7649C11.8351 88.1796 12.0707 88.3844 13.1721 88.9475C14.2719 89.5099 14.8731 89.6305 16.6198 89.6389ZM81.0474 126.061C81.8145 126.379 82.5574 126.077 83.1152 125.221C83.5045 124.624 82.8965 121.351 82.108 119.8C80.2528 116.149 79.9261 115.547 79.7208 115.401C79.5987 115.315 79.5522 115.162 79.6173 115.063C79.8092 114.768 79.1226 113.878 77.5092 112.331C76.5562 111.417 75.9234 110.94 75.8025 111.043C75.6969 111.133 75.1463 111.393 74.5793 111.621C73.3904 112.097 73.0965 112.432 73.4527 112.902C73.5916 113.086 74.1748 114.205 74.7486 115.389C75.3225 116.573 76.1719 118.066 76.6362 118.706C77.1006 119.346 77.7365 120.7 78.0494 121.716C78.9629 124.68 79.4637 125.406 81.0474 126.061ZM104.623 105.257C105.232 105.512 105.326 105.472 105.783 104.771C106.151 104.206 106.242 103.781 106.132 103.14C105.95 102.078 104.03 98.2047 103.3 97.4264C102.805 96.8991 96.4093 92.3249 95.34 91.7335C95.0788 91.5869 94.637 91.3399 94.3605 91.1811C93.8013 90.8596 93.8876 90.7351 92.4205 93.9797C91.7543 95.4527 91.7543 95.4526 92.5581 96.2056C96.0171 99.4465 102.678 104.444 104.623 105.257ZM77.9357 67.4827C78.6572 67.7988 79.9108 68.3495 80.7213 68.7065C82.1715 69.3453 83.1184 69.5208 85.3949 69.5725C86.0276 69.5869 86.6314 69.6457 86.7366 69.7032C86.841 69.7617 87.6345 69.7089 88.498 69.5882C90.1493 69.3573 91.9781 68.4005 92.2161 67.6429C92.2897 67.4081 92.574 67.0782 92.8479 66.9099C93.2187 66.6816 93.3316 66.5099 93.2907 66.2348C93.2512 65.9656 93.1616 65.9053 92.9586 66.0109C92.5666 66.2151 87.3255 67.9299 85.7864 68.3575C85.0821 68.5531 84.1044 68.7539 83.6135 68.8037C82.7925 68.8871 82.73 68.8591 82.8336 68.455C82.9115 68.1506 83.2178 67.96 83.8297 67.8343C84.3156 67.7345 85.6959 67.3015 86.8972 66.8721C91.5643 65.2039 93.2907 64.7204 93.6783 64.973C94.0323 65.2037 94.1527 65.1009 95.0933 63.7646C95.9196 62.5907 96.0689 62.2697 95.8553 62.1305C95.709 62.0352 94.136 62.4317 92.3599 63.0117C90.5837 63.5918 88.4122 64.2667 87.5342 64.5116C86.6562 64.7565 84.427 65.5189 82.5804 66.2057C79.3451 67.409 78.4255 67.5162 78.6439 66.6643C78.6957 66.4622 79.3119 66.1399 80.0825 65.9121C80.8239 65.6929 81.9165 65.3012 82.5104 65.0417C83.1043 64.7822 85.4044 64.0273 87.6218 63.3642C89.8391 62.701 92.7586 61.7844 94.1095 61.3274C96.3592 60.5662 96.5762 60.4431 96.6908 59.8632C96.8521 59.0475 96.6458 58.9327 95.71 59.3174C95.2917 59.4893 92.1982 60.4163 88.8355 61.3773C85.4728 62.3382 82.2683 63.3576 81.7144 63.6425C81.1605 63.9275 80.2231 64.4153 79.6313 64.7267C78.9335 65.0939 78.4621 65.1988 78.2902 65.0252C77.8165 64.5469 78.4214 63.8859 79.9244 63.2391C82.3453 62.1973 82.9789 61.9814 87.2094 60.7572C92.0418 59.3587 95.5372 58.2444 96.2946 57.8608C96.7898 57.6099 96.8388 57.4984 96.7852 56.7451C96.7253 55.908 96.7253 55.9079 94.1508 56.6698C84.5492 59.511 82.2709 60.2641 76.9129 62.3681C73.7647 63.6043 72.619 64.1339 72.6012 64.3612C72.5822 64.6036 76.2117 66.7273 77.9357 67.4827ZM72.0904 63.7128C72.1581 63.6088 72.1376 63.4201 72.0451 63.2936C71.9382 63.1476 72.3068 62.9076 73.0552 62.6393C73.7035 62.406 76.0132 61.5451 78.1879 60.7262C80.3625 59.9074 84.027 58.6765 86.3313 57.9909C88.6355 57.3053 91.5809 56.3423 92.8765 55.8508C94.1721 55.3593 95.4932 54.9328 95.8121 54.903C96.3922 54.8489 96.3921 54.8489 96.2896 53.8312C96.1132 52.08 95.6262 50.8167 94.9575 50.3754C94.7443 50.235 94.2578 49.7193 93.8763 49.23C92.8975 47.9746 91.4893 47.084 91.1956 47.5346C91.0725 47.7235 90.1321 48.1364 89.1059 48.4521C84.6875 49.8112 76.6196 52.8366 73.9126 54.1493C73.2016 54.4941 71.2288 55.1921 69.5286 55.7004C66.8295 56.5074 65.5065 57.0952 65.1468 57.647C65.0245 57.8347 66.3625 59.2562 68.1257 60.8121C68.8442 61.4462 69.4426 62.0358 69.4553 62.1225C69.4982 62.4144 71.9659 63.9038 72.0904 63.7128ZM67.5107 58.9276C67.1212 58.3368 67.7263 57.7952 68.9636 57.6271C69.4963 57.5548 70.8764 57.0549 72.0305 56.5162C75.0617 55.1015 78.6085 53.7548 81.6407 52.8673C83.0955 52.4416 84.8584 51.8713 85.5583 51.6C86.2582 51.3288 86.9906 51.0788 87.1859 51.0444C87.3812 51.0101 87.9473 50.7839 88.4439 50.5418C89.9036 49.8301 90.9819 49.551 91.3485 49.7899C91.6207 49.9672 91.6022 50.0909 91.2587 50.392C90.5932 50.9758 88.4213 51.6822 88.0343 51.4407C87.7669 51.2739 87.6939 51.3175 87.7114 51.6334C87.729 51.9529 86.8387 52.3131 83.6078 53.2938C78.4933 54.8462 72.8716 56.9409 72.5675 57.4075C72.4897 57.527 69.1571 58.8985 67.986 59.2929C67.8805 59.3286 67.6665 59.1641 67.5107 58.9276ZM71.1552 60.238C71.0605 59.5929 71.9576 59.1023 75.5283 57.8472C76.6561 57.4507 78.847 56.6304 80.397 56.0242C81.947 55.418 83.9454 54.7367 84.8379 54.5102C85.7304 54.2836 87.6237 53.6661 89.0452 53.1377C95.0725 50.8976 95.0948 50.8926 95.1432 51.7751C95.1605 52.0933 94.7054 52.3191 93.0808 52.7989C91.9342 53.1374 90.9463 53.4906 90.8855 53.5839C90.8246 53.6773 88.789 54.3597 86.3618 55.1006C82.1658 56.3814 76.5281 58.4758 74.0752 59.6651C72.0725 60.6361 71.2376 60.7999 71.1552 60.238ZM64.4937 56.495C64.5686 56.203 65.5581 55.8084 67.9208 55.1284C69.7478 54.6027 72.7421 53.5496 74.5747 52.7884C78.7229 51.0653 86.4296 48.235 89.0934 47.4564C90.1959 47.1341 91.0859 46.7885 91.0712 46.6882C91.0288 46.4001 87.2151 43.9404 86.0281 43.4357C85.4375 43.1845 84.5524 42.8028 84.0612 42.5874C83.1166 42.1731 82.9985 42.1954 77.7964 43.7702C73.3128 45.1275 64.3671 48.6025 62.4129 49.7459C61.8987 50.0469 61.8143 50.1752 61.8115 50.6584C61.8091 51.2033 61.8397 51.2137 62.7715 50.9849C64.1868 50.6374 68.9833 48.7702 71.8985 47.4319C75.5157 45.7714 76.8257 45.2938 82.3815 43.61C83.5307 43.2617 84.3274 43.4304 84.2818 44.0123C84.2698 44.1679 83.42 44.5067 82.3937 44.7654C78.4371 45.763 74.0883 47.3415 71.6478 48.6659C70.9154 49.0633 63.4123 52.0173 62.77 52.1611C62.1659 52.2963 62.1414 52.3285 62.1975 52.9124C62.2821 53.794 63.5671 56.227 64.2432 56.7858C64.3235 56.8507 64.4358 56.7209 64.4937 56.495ZM64.8483 52.93C65.0367 52.6409 65.5174 52.3261 65.9169 52.2305C66.3163 52.1348 67.4962 51.6868 68.5391 51.2351C73.5569 49.0614 86.249 44.997 86.8322 45.3771C86.9562 45.4579 86.9179 45.7385 86.7471 46.0005C86.5309 46.3324 85.4481 46.7421 83.1811 47.35C81.3906 47.8302 79.8318 48.1619 79.7171 48.0871C79.6024 48.0123 79.4305 48.0657 79.335 48.2055C79.2406 48.3459 78.0914 48.7849 76.7834 49.1824C75.4755 49.5798 73.5182 50.288 72.434 50.756C67.9749 52.6809 65.89 53.6201 65.6408 53.8162C65.4957 53.9302 65.1812 53.8957 64.9415 53.7395C64.5959 53.5142 64.5768 53.3467 64.8483 52.93ZM69.0751 45.8536C71.6644 44.8742 74.9354 43.6998 76.344 43.2439C77.7526 42.788 79.3517 42.2432 79.8976 42.0332C80.4434 41.8232 80.9717 41.6606 81.0715 41.6717C82.342 41.8136 78.0474 39.5585 76.4746 39.258C76.0355 39.1741 75.5243 39.2387 75.3385 39.4016C75.1528 39.5645 74.6182 39.7689 74.1505 39.8559C73.6828 39.9428 72.3545 40.3662 71.1987 40.7966C70.0429 41.2271 68.8843 41.5992 68.624 41.6235C68.3638 41.6478 67.4801 42.103 66.6603 42.6351C65.8405 43.1671 65.064 43.5335 64.9348 43.4492C64.6373 43.2554 63.6983 44.3351 63.4967 45.1026C63.4128 45.4221 63.1022 46.055 62.8064 46.5088C62.5106 46.9627 62.2325 47.5972 62.1884 47.9188C62.1102 48.4907 62.1334 48.4939 63.2377 48.0691C63.859 47.8301 66.4858 46.8331 69.0751 45.8536ZM64.036 45.9722C64.0865 45.7753 64.3688 45.4658 64.6633 45.2845C65.2586 44.918 70.7419 42.73 70.9983 42.7567C71.0877 42.7659 72.1392 42.3932 73.3349 41.9284C76.2452 40.7969 78.0731 40.2564 78.359 40.4427C78.8206 40.7436 77.9651 41.528 76.7666 41.903C76.0963 42.1126 74.9772 42.5074 74.2799 42.7803C73.5825 43.0531 72.1181 43.5535 71.0258 43.8923C69.9335 44.231 68.0142 44.997 66.7608 45.5944C64.5714 46.638 63.8393 46.7396 64.036 45.9722ZM97.8867 63.1439C98.0302 62.9237 98.0657 62.6901 97.9654 62.6248C97.8652 62.5594 97.6284 62.7435 97.4392 63.0339C97.2441 63.3332 97.2101 63.5579 97.3605 63.553C97.5062 63.5481 97.7432 63.3641 97.8867 63.1439ZM65.7454 40.009C66.693 39.063 66.7373 38.9794 66.6402 38.3172C66.5839 37.934 66.4831 37.6435 66.416 37.6716C66.3489 37.6998 65.7068 37.9557 64.9892 38.2404C63.6844 38.7582 63.6844 38.7582 64.0704 39.8745C64.2828 40.4886 64.5223 40.9939 64.6025 40.9976C64.6828 41.0011 65.1971 40.5563 65.7454 40.009ZM102.556 62.7815C104.253 62.5079 104.614 62.3429 106.668 60.9059C107.906 60.0393 109.167 59.1287 109.471 58.8822C109.775 58.6359 110.156 58.52 110.317 58.625C110.478 58.73 110.649 58.6765 110.698 58.5062C110.914 57.7495 108.965 57.604 108.279 58.3255C107.734 58.8992 106.834 59.5202 104.607 60.8615C103.863 61.3096 103.172 61.802 103.072 61.9557C102.807 62.3615 102.049 62.4412 101.816 62.0877C101.667 61.8626 101.723 61.7192 102.031 61.5336C102.259 61.3958 103.065 60.8275 103.823 60.2706C104.58 59.7136 105.718 58.9617 106.352 58.5997C107.92 57.7039 107.991 57.4805 106.639 57.6898C105.798 57.8202 105.335 58.0492 104.888 58.5565C104.045 59.5125 103.115 60.2636 100.582 62.0339C98.9966 63.1416 98.841 63.401 99.8675 63.2243C100.323 63.1459 101.533 62.9465 102.556 62.7815ZM67.5401 40.9451C68.3023 40.601 69.8764 40.0308 71.0381 39.6781C74.3828 38.6623 73.5208 38.3389 69.9305 39.2625C68.1416 39.7226 67.238 40.1555 66.2726 41.0148C65.5715 41.6387 66.0636 41.6117 67.5401 40.9451ZM100.238 61.3413C100.773 60.867 101.33 60.3907 101.475 60.283C101.62 60.1754 101.652 60.0314 101.549 59.9644C101.446 59.8967 101 60.1023 100.56 60.4213C100.119 60.7404 99.5783 61.1135 99.3582 61.2507C99.1381 61.388 98.7934 61.7584 98.5922 62.074C98.2466 62.6197 98.2527 62.6365 98.7454 62.4258C99.0308 62.3037 99.7025 61.8157 100.238 61.3413ZM64.8209 37.2832C66.1794 36.6212 66.3568 36.1664 66.0286 34.1872C65.8684 33.2216 65.6859 32.4489 65.6229 32.4701C64.9832 32.6845 63.4599 33.9379 62.9118 34.701C61.8974 36.1131 62.4375 36.2363 64.0086 34.9512C65.491 33.7386 65.6728 33.6579 65.6473 34.2239C65.623 34.7623 64.8218 35.7019 63.7887 36.4033C62.985 36.949 62.9801 36.9588 63.172 37.6196C63.3398 38.1971 63.4015 38.2488 63.6351 38.0078C63.7833 37.8547 64.3171 37.5288 64.8209 37.2832ZM55.0311 30.6028C56.0734 30.1911 57.5636 29.6506 58.3426 29.4017C59.4703 29.0413 59.7738 28.8498 59.8322 28.4622C59.8726 28.1945 60.0803 27.5834 60.2939 27.1042C60.6506 26.3044 60.7761 26.21 61.8274 25.9518C62.8878 25.6914 63.037 25.7219 63.8437 26.3649C64.323 26.7468 64.808 27.2145 64.9217 27.4042C65.1819 27.8382 70.2429 26.4623 71.1419 25.7131C71.6907 25.2559 71.7267 25.113 71.5801 23.9785C70.8852 18.603 69.4973 13.8018 68.439 13.1121C68.1234 12.9064 67.5549 12.9406 66.6846 13.2177C65.9765 13.4432 64.939 13.6884 64.379 13.7626C62.6087 13.9974 61.3794 14.4235 61.2459 14.8485C61.166 15.1025 60.5156 15.4455 59.4661 15.787C58.5564 16.0831 57.2857 16.5571 56.6422 16.8405C55.9987 17.1239 54.4144 17.725 53.1213 18.1764C50.1567 19.2112 49.9461 19.3163 50.1746 19.6472C50.2727 19.7893 50.5227 20.6598 50.7301 21.5815C50.9375 22.5032 51.4185 24.4816 51.7989 25.9778C52.1794 27.4741 52.5778 29.2575 52.6844 29.9408C52.7909 30.6242 52.936 31.2211 53.0069 31.2673C53.0777 31.3135 53.9887 31.0145 55.0311 30.6028ZM64.7278 24.9865C64.3023 24.141 63.1088 19.8215 62.66 17.5024C62.4813 16.5792 62.4813 16.5792 63.4592 15.8191C63.9972 15.4013 64.6756 14.7778 64.9672 14.434C65.2894 14.0539 65.747 13.7936 66.1344 13.77C66.7231 13.7341 66.7882 13.7896 66.9904 14.5006C67.1107 14.9238 67.7792 16.8139 68.4758 18.7008C69.1724 20.5878 69.8544 22.7383 69.9914 23.4796C70.2404 24.8275 70.2404 24.8275 69.5637 25.1311C69.1913 25.298 68.7799 25.369 68.649 25.2888C68.5182 25.208 68.0485 25.3471 67.6055 25.5967C66.9469 25.9677 66.1175 26.0926 65.3133 25.942C65.2497 25.93 64.9863 25.5001 64.7278 24.9865ZM67.1702 24.0404C67.6427 23.7018 68.1121 23.4787 68.2134 23.5447C68.3146 23.6107 68.4263 23.5608 68.4614 23.4337C68.5631 23.0674 67.0138 18.1343 66.4718 17.0982C66.2017 16.582 66.0359 16.0751 66.1032 15.9718C66.3491 15.5945 65.9054 15.5948 65.3662 15.9723C64.2818 16.7315 64.0233 17.4384 64.4262 18.5423C64.6307 19.1027 64.8757 19.936 64.9706 20.394C65.429 22.6064 65.9239 24.4037 66.1075 24.5234C66.2194 24.5963 66.6977 24.379 67.1702 24.0404ZM62.7246 33.2966C64.5705 31.9227 65.247 31.2521 65.2233 30.8195C65.1883 30.1823 64.7613 30.014 64.562 30.5589C64.4601 30.8373 63.8898 31.2963 63.1466 31.6981C62.462 32.0682 61.8622 32.4319 61.8137 32.5064C61.7216 32.6476 61.7916 33.7598 61.8969 33.8284C61.9302 33.85 62.3025 33.6106 62.7246 33.2966ZM62.5839 30.9905C63.1034 30.815 63.6687 30.4561 63.8403 30.1929C64.0118 29.9297 64.2031 29.6517 64.2638 29.5741C64.3246 29.4965 64.3086 29.3429 64.2273 29.2319C64.1461 29.1212 64.0037 29.147 63.911 29.2893C63.8182 29.4316 63.5388 29.6241 63.2896 29.717C62.7889 29.9038 61.373 31.1359 61.5366 31.2425C61.5933 31.2795 62.0644 31.1659 62.5839 30.9905ZM62.6149 29.2921C63.6819 28.6081 63.8277 28.4249 63.218 28.5339C62.702 28.6262 61.569 29.2991 61.3412 29.6485C61.0787 30.0513 61.703 29.8769 62.6149 29.2921ZM62.0948 28.2148C62.8653 27.8688 62.9796 27.4709 62.3612 27.2866C62.0537 27.195 61.8138 27.3308 61.5393 27.752C61.0671 28.4766 61.2226 28.6063 62.0948 28.2148ZM95.0613 46.6012C96.9413 46.1224 97.8722 43.7167 96.6515 42.4921C95.5878 41.4251 92.8324 40.9766 91.7705 41.6976C90.917 42.2771 90.2599 43.2027 90.5621 43.3996C90.6794 43.4761 90.8274 43.8013 90.8909 44.1223C91.0201 44.7752 92.3437 46.0363 93.4111 46.5236C93.8189 46.7098 94.5075 46.7422 95.0613 46.6012ZM92.6012 44.7337C92.2843 44.2327 92.6881 43.144 93.3147 42.8103C93.7689 42.5683 94.7277 42.5878 95.1256 42.8471C95.2536 42.9306 95.4004 43.3628 95.4517 43.8075C95.5291 44.4786 95.4682 44.6515 95.0937 44.8232C94.8456 44.9371 94.4267 45.1872 94.1629 45.379C93.6581 45.7459 93.0943 45.513 92.6012 44.7337ZM85.0563 40.4087C85.5883 40.4373 86.0684 40.5723 86.1232 40.7086C86.1799 40.8496 86.234 40.8165 86.2485 40.6317C86.2625 40.4529 86.4266 40.3324 86.6151 40.3646C87.0863 40.4443 88.3128 38.9708 88.4802 38.124C88.6888 37.0686 87.9818 36.2933 86.3452 35.783C85.2805 35.451 84.7571 35.4402 83.9017 35.7324C82.9615 36.0536 82.7638 36.215 82.4503 36.9169C81.9723 37.9875 81.971 38.084 82.4241 38.8482C82.9756 39.7782 83.9373 40.3483 85.0563 40.4087ZM83.8495 38.3521C83.5408 37.3594 85.2918 36.4383 86.2728 37.0776C87.3923 37.8072 87.155 39.5056 85.9174 39.6212C85.1725 39.6908 84.0519 39.0031 83.8495 38.3521ZM60.6328 15.2176C61.2977 14.9667 61.1058 14.7127 60.4219 14.9385C60.0918 15.0476 59.9062 15.192 60.0096 15.2594C60.1132 15.3269 60.3935 15.308 60.6328 15.2176Z" fill="black"/>
<path d="M52.6611 29.4567C52.368 27.9765 51.2087 23.1135 50.5247 20.4956C50.1823 19.1852 49.9724 19.3784 52.8527 18.3541C53.9797 17.9534 55.5603 17.3582 56.3652 17.0314C57.1702 16.7046 58.3591 16.2521 59.0073 16.0259C60.5339 15.493 61.0886 15.221 61.2955 14.9036C61.5652 14.4897 62.3317 14.2449 65.3067 13.6226C68.3828 12.9791 68.4152 12.9815 68.9523 13.8982C69.6764 15.134 70.6189 18.4918 71.147 21.7173C71.6393 24.7248 71.6538 25.1081 71.2889 25.4897C70.7412 26.0625 66.8953 27.3323 65.602 27.3674C65.0905 27.3812 64.9909 27.3424 64.6575 26.9993C63.9948 26.3172 63.0471 25.7303 62.6104 25.7313C62.1111 25.7325 61.0197 26.0754 60.7124 26.3277C60.4665 26.5295 59.8527 27.8817 59.8085 28.3189C59.7943 28.4591 59.6912 28.6572 59.5793 28.7592C59.3297 28.9868 53.3496 31.1643 53.1341 31.1062C53.049 31.0832 52.8362 30.341 52.6611 29.4567ZM65.7189 26.0582C66.2182 26.1102 67.0938 25.9123 67.8404 25.5788C68.228 25.4057 68.6152 25.3097 68.7009 25.3656C68.8778 25.4809 69.9873 25.0926 70.1368 24.8631C70.3 24.6128 70.1469 23.5984 69.7421 22.2465C69.1331 20.2131 66.834 13.8292 66.6728 13.7242C66.4249 13.5626 65.578 13.815 65.1854 14.1675C64.9805 14.3516 64.3993 14.8629 63.8939 15.3038C62.2674 16.7228 62.3475 16.454 62.8674 18.7509C63.7297 22.5597 64.7215 25.5732 65.2197 25.8979C65.3284 25.9688 65.5531 26.0409 65.7189 26.0582Z" fill="#FFD42A"/>
</svg>
