<svg width="90" height="119" viewBox="0 0 90 119" fill="none" xmlns="http://www.w3.org/2000/svg">
<path d="M31.7491 118.609C29.3173 118.247 15.7175 110.445 13.6426 108.222C13.2636 107.816 12.8298 107.483 12.6785 107.483C11.9809 107.483 7.01946 101.21 5.53801 98.4546C2.06384 91.9933 0.993225 88.9731 0.17913 83.3369C-0.298973 80.027 0.201813 76.7378 1.42073 75.1888C1.71757 74.8116 2.24488 73.9635 2.59281 73.3041C4.27937 70.1077 6.83149 68.7356 11.0929 68.7343C15.185 68.733 17.9923 69.5418 20.9859 71.5846C25.1624 74.4346 29.9499 79.2689 33.3005 84.0196C34.1916 85.2831 35.2798 86.7673 35.7189 87.3178C36.8445 88.7293 39.3737 93.483 40.2942 95.9168C40.721 97.0456 41.1341 98.0414 41.2121 98.1297C41.4209 98.3663 42.1803 82.656 42.1677 78.3588C42.1613 76.3283 42.2444 74.667 42.3511 74.667C42.4581 74.667 42.6134 74.3715 42.697 74.0107C42.7801 73.6498 42.7162 73.3544 42.5571 73.3544C42.3969 73.3544 41.8223 73.1159 41.2802 72.8246C38.7141 72.2989 39.3421 73.6033 40.3477 73.4437C39.7699 74.2377 39.1361 73.6973 36.1728 76.0096C33.3309 78.2272 32.4732 78.0997 32.4732 75.4595C32.4732 74.6758 32.0179 72.722 31.4128 70.9092C30.5129 68.2133 30.3923 67.5523 30.6161 66.5424C30.9627 64.9781 32.059 64.6127 34.4236 65.2733C37.3852 66.1006 39.4601 66.7887 40.0237 67.1304C40.4499 67.3885 40.8305 67.28 41.7139 66.6485C43.3532 65.4764 43.3291 65.5496 43.6659 60.7202C43.8625 57.9027 44.1409 56.9464 44.765 56.9464C45.4319 56.9464 45.5564 57.9576 45.3451 61.6597C45.1417 65.2243 45.1417 65.2242 46.6207 64.9938C47.8863 64.7969 48.2318 64.8699 49.0137 65.5004C49.8894 66.2068 50.9637 66.3744 50.8101 68.0604C50.6499 69.8196 49.607 69.7558 51.8256 71.227C53.0459 72.0361 54.1294 72.6982 54.2333 72.6982C54.3374 72.6982 54.5681 72.0424 54.7462 71.2409C54.9244 70.4395 55.2006 69.6923 55.36 69.5807C55.5195 69.4688 55.6497 68.722 55.6497 67.9205C55.6497 66.0781 55.2335 66.0321 52.9087 67.6181C51.1938 68.7878 51.3533 67.7731 50.2692 67.8838C44.7616 68.4469 49.3919 67.3821 49.3919 67.1589C49.3919 66.6726 54.281 64.1664 55.0819 64.1664C55.3913 64.1664 55.8075 63.8709 56.0065 63.5101C56.5491 62.526 57.3095 62.6873 57.5318 63.8337C57.9248 65.8605 57.7674 68.6147 57.1521 70.4774C56.8145 71.4997 56.4875 73.0044 56.4255 73.8212C56.2567 76.0479 55.3369 76.971 54.4683 75.7856C54.2575 75.498 53.1987 74.8137 52.1152 74.2649C49.9093 73.1898 48.5182 70.7145 46.3044 72.6297C46.0246 72.9059 45.503 73.2977 45.1455 73.4994C44.547 73.8373 44.4916 74.1114 44.4434 76.9742C44.4143 78.6837 44.3184 80.6154 44.2291 81.267C43.9139 83.5738 43.2002 99.9339 43.4015 100.244C43.6093 100.565 46.0877 95.9227 46.0902 95.2074C46.0909 95.0109 46.5949 94.0975 47.2102 93.1782C47.8256 92.259 48.6979 90.7823 49.1488 89.8967C49.5996 89.011 50.6325 87.4004 51.4439 86.3174C52.2555 85.2345 53.4668 83.5362 54.1359 82.5435C56.0598 79.689 62.0114 72.8762 63.7612 71.5254C64.6376 70.8489 66.1368 69.6821 67.0929 68.9327C68.9022 67.5143 72.3727 65.7295 75.6903 64.5112C77.5656 63.8226 77.7244 63.8155 80.9041 64.2806C84.1838 64.7606 84.1838 64.7606 85.8023 66.7111C87.9576 69.3085 88.9461 72.0733 89.2338 76.3082C89.4072 78.8636 89.3459 79.8696 88.8933 81.887C88.5897 83.2406 88.3081 84.9389 88.2679 85.6608C88.2276 86.3828 87.9009 87.6876 87.5418 88.5605C86.6569 90.7113 83.9683 95.1761 82.4704 96.9824C81.7968 97.7946 80.8887 98.9614 80.4524 99.5752C79.1049 101.471 74.1466 106.486 72.1283 107.995C71.0737 108.784 69.1181 109.957 67.7827 110.602C66.4473 111.248 65.1591 111.916 64.9201 112.088C62.1 114.111 58.5375 115.37 53.8872 115.985C52.8383 116.124 51.8247 116.346 51.6348 116.479C51.2332 116.76 46.9357 117.104 44.6946 117.034C43.5434 116.999 42.9677 117.153 42.4115 117.648C42.0024 118.012 41.1959 118.454 40.6191 118.628C39.4872 118.971 34.1035 118.959 31.7491 118.609ZM37.7993 114.648C38.4552 114.437 39.3248 113.92 39.7319 113.499C40.139 113.078 40.5953 112.734 40.7459 112.734C40.9825 112.734 40.9999 111.459 40.8603 104.381C40.8539 104.028 40.7217 103.568 40.5676 103.357C40.4136 103.147 40.0512 101.955 39.7622 100.708C39.4731 99.4613 38.8882 97.7677 38.4623 96.9445C38.0365 96.1212 37.688 95.2657 37.688 95.0434C37.688 94.8211 37.2969 93.9952 36.8189 93.2082C36.3408 92.4212 35.9497 91.6726 35.9497 91.5447C35.9497 91.4169 35.2559 90.4096 34.408 89.3066C33.56 88.2037 32.336 86.4806 31.6879 85.4777C30.2558 83.2613 25.3728 77.9944 22.2179 75.2633C19.5603 72.9626 17.3953 71.7415 15.6116 71.5374C14.9268 71.4591 13.2583 71.2313 11.9039 71.0318C9.76265 70.7159 9.24338 70.7438 7.92376 71.2431C6.02699 71.961 5.77663 72.2798 4.68567 75.3659C3.01371 80.0956 2.87329 82.8699 4.03047 88.3106C4.68284 91.3778 5.02396 92.2059 7.19658 95.9975C9.4677 99.9609 13.1168 103.821 18.1509 107.586C20.9291 109.664 25.0658 112.077 25.8485 112.077C26.1873 112.077 30.5009 113.526 33.1975 114.545C34.6679 115.1 36.2787 115.137 37.7993 114.648ZM47.3019 112.924C49.1637 112.675 50.8029 112.39 50.9446 112.291C51.0861 112.192 52.1301 111.891 53.2644 111.623C55.3705 111.126 61.4143 108.754 63.7619 107.503C65.5054 106.574 67.0849 105.464 67.9058 104.59C68.2763 104.196 68.6754 103.873 68.7927 103.873C69.0025 103.873 75.5245 98.42 76.6539 97.3C81.45 92.544 84.989 88.2599 85.998 85.9886C86.7339 84.3321 87.5238 80.0409 87.4994 77.8315C87.4588 74.1563 86.3933 70.879 84.4444 68.4355C83.1527 66.8159 81.9139 66.3513 78.8267 66.3285C76.3642 66.3096 75.3048 66.5953 72.4299 68.0495C71.7257 68.406 70.5662 68.9699 69.8534 69.303C69.1405 69.636 67.9672 70.4341 67.246 71.0764C66.5248 71.7187 65.1525 72.8466 64.1965 73.5828C63.2404 74.3191 62.1905 75.2703 61.8634 75.6967C61.5364 76.1231 60.0543 77.9486 58.57 79.7535C55.9804 82.9023 55.2224 83.953 51.586 89.4343C49.8842 91.9995 47.5382 96.2347 47.5382 96.7417C47.5382 96.9031 47.0771 97.8218 46.5135 98.7836C45.0243 101.325 43.4587 105.63 43.311 107.589C42.9449 112.445 42.9676 113.39 43.4502 113.383C43.7068 113.38 45.4401 113.172 47.3019 112.924ZM35.9836 73.6024C37.2552 72.5375 39.4264 70.1335 39.4264 69.7905C39.4264 69.3401 36.5363 68.0291 35.1465 67.849C34.4657 67.7609 33.8387 67.5606 33.7533 67.4039C33.5164 66.9696 32.7633 67.0649 32.7616 67.5294C32.7586 68.3491 34.5899 74.3387 34.8435 74.3387C34.9869 74.3387 35.4999 74.0074 35.9836 73.6024ZM46.3707 70.0126C47.0071 69.4139 47.5301 68.7502 47.533 68.5374C47.5428 67.8073 46.61 67.0586 45.974 67.2862C45.6393 67.406 45.1343 67.5001 44.8519 67.4956C43.8431 67.4767 42.3235 68.4225 42.3235 69.0654C42.3235 69.4089 42.1604 69.7566 41.9613 69.8382C41.7054 69.9429 41.7696 70.1791 42.1785 70.6427C43.0742 71.6571 44.9167 71.3802 46.3707 70.0126ZM43.3542 56.2155C43.1035 56.0563 42.7791 56.0098 42.6334 56.1119C42.1433 56.4551 39.5761 53.192 38.5927 50.976C37.6249 48.795 37.613 48.783 36.9241 49.2943C36.4218 49.667 35.8513 49.7552 34.8587 49.6133C31.894 49.1895 31.295 48.9181 29.675 47.2657C27.9312 45.4868 27.2879 44.3023 26.5646 41.5389C26.0964 39.75 26.0964 39.75 26.9672 38.5226C27.4461 37.8475 27.838 37.1732 27.838 37.0242C27.838 36.8753 27.2446 35.9847 26.5192 35.0455C25.0526 33.1464 24.7622 31.9756 24.874 28.4122C24.9333 26.5198 25.0403 26.1771 25.8823 25.1846C27.1423 23.699 28.2266 23.0608 28.659 23.5506C28.9029 23.8265 28.9078 23.6334 28.6782 22.7954C28.5087 22.1759 28.3007 21.4123 28.2158 21.0986C27.4988 18.448 31.1349 13.4108 33.5577 13.6983C34.3272 13.7898 34.3615 13.7248 34.5053 11.9882C34.8523 7.79049 37.7022 5.11647 41.8447 5.1018C43.0426 5.09829 43.372 5.24543 44.0819 6.10626C45.0133 7.2357 45.5089 7.13503 45.5118 5.8156C45.515 3.88687 47.1393 2.17154 50.2426 0.816731C51.7514 0.158073 52.7135 -0.0610891 53.7666 0.0141235C54.5632 0.0711944 55.5626 0.130521 55.9874 0.146017C56.7907 0.172474 59.4159 2.63552 59.4159 3.35881C59.4159 3.56933 59.5561 4.15713 59.7272 4.66518C60.0015 5.47895 60.0797 5.52558 60.3838 5.05688C60.5736 4.76434 61.234 4.13661 61.8511 3.66216C62.8505 2.89393 63.2496 2.79963 65.5004 2.79963C67.8614 2.79963 68.098 2.86277 69.1007 3.76574C70.8595 5.34902 72.1528 7.41437 72.1945 8.70659C72.2641 10.8614 72.5674 11.8233 73.1813 11.8358C75.0067 11.8736 76.2853 12.4399 77.4754 13.7405C79.5056 15.9594 79.6955 16.4922 79.6955 19.9708C79.6955 22.7185 79.6165 23.1857 78.9712 24.2631C78.5729 24.9279 78.2469 25.5589 78.2469 25.665C78.2469 26.1425 76.973 27.0351 75.9948 27.243C74.4633 27.5684 74.3698 27.7108 75.2011 28.4514C76.0297 29.1897 76.7675 30.5979 77.2575 32.3766C77.7629 34.211 76.9965 37.7692 75.6663 39.7624C74.0605 42.1689 73.2297 42.5756 69.8145 42.6273C66.9101 42.6712 66.9101 42.6712 67.0927 43.4918C67.3286 44.5518 67.3186 44.9818 67.016 46.7976C66.6378 49.0668 65.5544 50.405 62.8232 51.9763C58.9537 54.2026 57.0036 54.1663 54.8492 51.8282C54.119 51.0357 53.5097 50.4233 53.4952 50.4673C53.4789 50.5115 53.1188 51.3842 52.6911 52.4069C51.8566 54.4022 49.9283 56.2642 48.6464 56.3125C48.2756 56.3276 47.0357 56.3753 45.891 56.421C44.7463 56.4667 43.605 56.3742 43.3542 56.2155ZM47.7752 53.9783C49.6331 53.4929 50.6011 52.5087 51.4528 50.2387C52.0224 48.7206 52.186 47.7931 52.1184 46.4668C52.0107 44.3551 51.4968 43.7981 50.1767 44.3625C49.6175 44.6017 49.2259 44.6161 49.039 44.4041C48.852 44.1924 48.2918 44.1928 47.4112 44.4055C45.9597 44.7559 44.6731 44.542 43.185 43.7007C42.0709 43.0711 41.9361 43.1983 40.733 46.0147C39.6626 48.5206 39.7553 49.9645 41.0922 51.6045C42.4299 53.2456 43.6295 54.1251 44.195 53.8793C44.4303 53.7768 44.6996 53.8346 44.7938 54.007C45.012 54.4067 46.1775 54.3931 47.7752 53.9783ZM61.9809 50.1707C63.5754 49.1147 64.6533 47.9288 65.1298 46.7062C65.6107 45.4725 65.0663 41.9539 64.2344 40.9184C63.0895 39.4933 62.7723 39.4726 61.1726 40.7192C59.7941 41.7932 56.7029 43.1497 55.6114 43.1595C55.3513 43.1611 55.0666 42.8533 54.9791 42.4743C54.8833 42.0595 54.6867 41.8782 54.4855 42.0192C54.2644 42.1741 54.2483 42.3635 54.4384 42.5789C54.6286 42.7943 54.5834 43.2907 54.305 44.0452C53.9069 45.1245 53.9165 45.1956 54.4835 45.3635C54.9574 45.5041 55.0129 45.6364 54.7488 45.9968C54.1719 46.7842 55.2272 49.2843 56.6237 50.4387C57.6831 51.3145 57.9865 51.4086 59.2286 51.2463C60.0017 51.145 61.2404 50.6612 61.9809 50.1707ZM37.6066 46.4777C37.9601 46.1889 38.2534 45.6946 38.2584 45.3787C38.2648 45.0628 38.3844 44.8044 38.5269 44.8044C38.6697 44.8044 39.0393 44.2253 39.3485 43.5174C39.9107 42.2303 39.9107 42.2303 38.8021 41.664C37.7082 41.1052 36.3587 39.1656 35.6786 37.1746C34.7118 34.3439 34.8171 34.5048 34.2766 35.0328C34.0017 35.3012 33.0732 35.8006 32.213 36.1427C30.984 36.6313 30.3763 37.1438 29.3749 38.5362C28.2848 40.0518 28.1274 40.4551 28.2862 41.3256C28.5086 42.5441 29.7601 44.7172 30.4967 45.1637C30.7871 45.3398 31.0248 45.6801 31.0248 45.92C31.0248 47.231 36.1517 47.6653 37.6066 46.4777ZM52.4632 41.3096C55.7594 40.6338 59.8332 39.1154 60.9618 38.142C61.4661 37.707 62.1625 37.2495 62.5094 37.1253C63.4573 36.7859 66.638 32.7723 67.2585 31.1324C67.5583 30.3406 67.9201 28.6258 68.0627 27.3216C68.7775 20.7882 66.1779 14.8154 61.5173 12.2827C59.7932 11.3457 59.5182 11.2972 55.7231 11.2597C52.3891 11.2295 51.3608 11.3417 49.4213 11.9632C46.9173 12.7657 44.7559 14.1418 43.3525 15.8269C42.8662 16.4109 42.3379 17.0446 42.1786 17.2352C42.0193 17.4256 41.2696 18.2449 40.5128 19.0558C39.7559 19.8666 39.1366 20.6873 39.1366 20.8794C39.1366 21.3313 40.7774 20.9361 41.6788 20.267C42.1866 19.8902 42.8115 19.8196 44.2904 19.9722C46.7919 20.2304 47.6784 21.1838 47.9827 23.9424C48.1574 25.526 48.0829 26.0087 47.4308 27.5183C46.6967 29.2179 44.7833 31.3496 43.9918 31.3496C43.7752 31.3496 43.4643 31.5012 43.3008 31.6864C43.137 31.8719 42.3535 32.1104 41.5594 32.217C39.8641 32.4445 38.1341 31.6258 37.1495 30.1304C36.5476 29.2164 36.5476 29.2164 36.5385 30.7705C36.5222 33.471 37.6169 37.5778 38.5573 38.3467C38.8175 38.5591 39.1056 38.9635 39.198 39.2452C39.3836 39.8108 41.4287 40.6478 42.706 40.6809C43.1786 40.6922 43.6468 40.9526 43.8167 41.2964C44.0397 41.7481 44.313 41.8403 44.9551 41.6805C45.458 41.5554 45.7999 41.606 45.7999 41.8056C45.7999 42.2355 49.17 41.9846 52.4632 41.3096ZM56.5477 30.9255C56.0057 30.7297 55.2371 30.2286 54.8396 29.8114C54.4421 29.3941 54.0232 29.0526 53.9088 29.0526C53.5715 29.0526 52.753 26.3295 52.753 25.2071C52.753 22.0243 55.1229 19.5346 58.6244 19.039C60.0931 18.8312 60.4679 18.9067 61.8082 19.6813C63.9193 20.9013 64.5335 21.5437 65.0869 23.1104C65.7071 24.8663 65.3342 25.9992 63.4371 28.1235C61.302 30.5142 58.5312 31.6411 56.5477 30.9255ZM59.6538 28.7564C61.3271 28.1018 61.6198 27.8611 62.1533 26.7011C62.347 26.2798 62.6453 25.9673 62.8162 26.0066C63.4598 26.1548 63.8522 25.1406 63.5766 24.0416C63.1843 22.4774 60.7905 21.0772 58.6061 21.1342C56.0591 21.2011 54.674 22.6688 54.7087 25.2651C54.7313 27.0424 55.1428 27.9275 56.3204 28.7408C57.4458 29.5181 57.7037 29.5198 59.6538 28.7564ZM56.8299 26.8753C56.0237 25.7143 56.0734 24.5147 56.9717 23.4524C57.6241 22.681 57.8787 22.5945 59.0721 22.739C61.293 23.0077 61.632 23.752 60.5889 26.068C60.1665 27.006 59.7911 27.3761 59.1042 27.5317C57.6714 27.8563 57.4709 27.7982 56.8299 26.8753ZM73.6631 38.9531C74.3094 38.1697 74.9073 36.9784 75.184 35.9231C75.7648 33.708 75.7572 33.3888 75.0867 31.8166C74.37 30.1364 72.6334 28.9801 71.0928 29.1574C70.0279 29.2798 69.9613 29.3637 69.1216 31.6305C68.5366 33.2098 67.708 34.6469 66.5869 36.0268C65.6708 37.1545 64.9284 38.1509 64.9371 38.2411C64.9777 38.6628 66.8034 40.0006 67.6239 40.2098C68.129 40.3387 69.4547 40.3992 70.5701 40.344C72.5108 40.2484 72.6438 40.1883 73.6631 38.9531ZM31.4028 34.0122C32.0713 33.6716 33.044 33.2902 33.5645 33.1646C34.5108 32.9363 34.5108 32.9363 34.3979 30.256C34.297 27.8631 34.3624 27.4248 35.0078 26.1664C35.4053 25.3911 35.6419 24.6565 35.5336 24.5338C35.4253 24.4113 34.2035 24.285 32.8186 24.2537C30.6993 24.206 30.0671 24.3213 28.8266 24.9825C27.0703 25.9187 26.6792 26.7256 26.6792 29.4124C26.6792 32.5506 27.7422 34.2321 29.9543 34.5933C30.0826 34.6159 30.7344 34.3525 31.4028 34.0122ZM43.7837 29.4586C45.4102 28.2523 46.4196 26.1965 46.2712 24.3923C46.1268 22.6382 45.8268 21.7755 45.4522 22.0378C45.2943 22.1485 44.8567 22.0528 44.4796 21.8231C43.911 21.4784 43.5321 21.5014 42.262 21.9569C40.198 22.697 38.5965 23.7864 38.0546 24.8191C37.0939 26.6498 38.4566 29.6835 40.5147 30.296C41.827 30.6865 42.2873 30.5682 43.7837 29.4586ZM40.1767 27.1144C38.9004 25.6055 39.7228 24.1382 42.1315 23.6263C43.0908 23.4225 43.2095 23.4819 43.4849 24.3021C43.6509 24.7967 43.7141 25.4603 43.6254 25.7768C43.4849 26.278 41.5359 28.0681 41.1307 28.0681C41.0495 28.0681 40.6203 27.6389 40.1767 27.1144ZM73.983 25.7365C74.5855 25.3945 75.3025 25.11 75.5765 25.1042C76.33 25.0891 76.8977 24.4399 77.495 22.9126C77.925 21.8128 78.0059 21.0128 77.8915 18.9923C77.7516 16.5227 77.7171 16.4248 76.6213 15.3827C74.1566 13.0385 70.762 13.3177 69.6081 15.9595C69.0627 17.2081 69.0627 17.2678 69.6069 19.7767C69.9112 21.1784 70.2059 23.2113 70.2621 24.2943C70.3182 25.3772 70.3782 26.36 70.3949 26.4781C70.4503 26.8692 72.8687 26.3696 73.983 25.7365ZM36.4096 22.6095C36.3248 22.3596 36.6432 21.4631 37.1168 20.6172C38.0342 18.9785 38.2174 18.1397 37.5993 18.4084C37.3911 18.4987 36.6669 17.9036 35.9899 17.0855C34.6308 15.4429 34.3891 15.368 32.8301 16.1059C30.9291 17.0056 29.4094 19.3095 30.0805 20.2745C30.2371 20.5002 30.4483 21.0775 30.5494 21.5579C30.6999 22.2735 30.9488 22.4726 31.9264 22.6597C32.7248 22.8124 33.3618 22.7413 33.852 22.4439C34.4885 22.058 34.6233 22.0697 34.8807 22.5315C35.2519 23.1981 36.6328 23.2687 36.4096 22.6095ZM41.4543 14.5246C42.1713 13.8881 43.3121 13.0421 43.9893 12.6447C44.6664 12.2471 45.2205 11.7709 45.2205 11.5865C45.2205 11.4021 44.6273 10.3094 43.9022 9.15844C42.6383 7.15215 42.5336 7.06606 41.3673 7.07294C39.9156 7.0805 38.0932 7.97159 37.1493 9.13289C36.6298 9.7722 36.4302 10.4762 36.3174 12.067C36.1737 14.0951 36.1972 14.1866 37.0735 15.0219C37.571 15.4961 38.1133 16.2871 38.2787 16.78C38.5794 17.676 38.5794 17.676 39.3651 16.6787C39.7971 16.1303 40.7373 15.1611 41.4543 14.5246ZM68.8014 13.5469C69.2173 11.7739 69.485 11.1669 69.8536 11.1615C70.3684 11.154 70.4252 10.9948 70.4252 9.56248C70.4252 7.89809 68.2468 5.2478 66.5819 4.88652C64.1716 4.36354 62.2017 5.17036 60.9087 7.20956C59.9119 8.78185 59.7755 9.36288 60.4032 9.36288C61.2921 9.36288 64.5588 11.3179 65.7898 12.5866C67.1014 13.9384 68.5976 14.4155 68.8014 13.5469ZM48.8419 10.0062C49.8929 9.47987 52.8214 9.03479 55.2332 9.03479C56.7935 9.03479 57.7007 8.89415 57.8802 8.62452C58.0304 8.39888 58.138 7.34746 58.1193 6.28798C58.0872 4.50843 58.0039 4.2771 57.0168 3.25247C55.9944 2.19114 55.8511 2.14334 53.6943 2.14334C51.902 2.14334 51.197 2.29451 50.2525 2.8817C47.9344 4.32261 47.2954 5.18575 46.9957 7.28044C46.8448 8.33553 46.694 9.34648 46.6608 9.52696C46.4446 10.703 47.1436 10.8566 48.8419 10.0062Z" fill="black"/>
<path d="M34.7734 74.2281C34.3771 73.5573 32.8664 68.531 32.7911 67.633C32.7742 67.4317 32.7774 67.419 32.8709 67.3125C33.0856 67.068 33.4302 67.0845 33.6878 67.3516C33.9304 67.6033 34.2168 67.7081 35.0471 67.8494C36.0542 68.0207 37.0897 68.3783 38.2309 68.9488C38.9125 69.2895 39.406 69.6359 39.406 69.7737C39.406 70.1481 37.0295 72.7488 35.7906 73.7303C35.4666 73.9869 35.0241 74.2727 34.9063 74.3014C34.8425 74.3169 34.8178 74.3034 34.7734 74.2281Z" fill="#5FD35F"/>
<path d="M43.1113 71.1762C42.7678 71.0895 42.5355 70.9517 42.2472 70.6634C41.9401 70.3563 41.7818 70.0881 41.8416 69.9763C41.8609 69.9403 41.9306 69.8768 41.9965 69.8352C42.0624 69.7936 42.1456 69.7121 42.1814 69.6542C42.2583 69.5298 42.3426 69.2249 42.3426 69.0714C42.3426 68.7136 42.8419 68.2237 43.5726 67.8647C44.0435 67.6333 44.3846 67.5405 44.8892 67.5061C45.329 67.4762 45.4619 67.4526 45.8844 67.3298C46.1004 67.267 46.1968 67.2539 46.3254 67.27C46.8743 67.3386 47.4939 67.9679 47.5053 68.4686C47.5083 68.6177 47.4942 68.6534 47.334 68.8889C47.1155 69.2103 46.6795 69.7033 46.3478 70.0043C45.7133 70.58 45.1587 70.9053 44.4518 71.1165C44.0978 71.2223 43.4145 71.2527 43.1113 71.1762Z" fill="#5FD35F"/>
<path d="M53.9019 72.5083C53.2984 72.171 51.7494 71.1711 51.2401 70.7899C50.9056 70.5396 50.6027 70.2312 50.5132 70.0497C50.416 69.8526 50.4348 69.6456 50.5994 69.099C50.747 68.6089 50.811 68.3225 50.8118 68.1481C50.8128 67.9619 50.845 67.9528 51.0978 68.0667C51.3619 68.1856 51.6611 68.2224 51.8918 68.1643C52.149 68.0995 52.4727 67.924 53.1262 67.4949C54.2405 66.7632 54.6744 66.5396 55.0307 66.5132C55.2186 66.4993 55.2428 66.5052 55.3365 66.5837C55.5551 66.7677 55.621 67.0707 55.6217 67.896C55.6224 68.7544 55.5253 69.3389 55.3435 69.5688C55.1318 69.8368 54.98 70.2494 54.7338 71.2258C54.5131 72.1013 54.3399 72.6203 54.2498 72.676C54.2373 72.684 54.0808 72.6082 53.9019 72.5083Z" fill="#5FD35F"/>
</svg>
