<svg width="87" height="120" viewBox="0 0 87 120" fill="none" xmlns="http://www.w3.org/2000/svg">
<path d="M26.0817 118.803C22.9873 118.124 18.2607 116.361 17.4604 115.587C17.1903 115.326 16.1037 114.619 15.0456 114.016C13.9875 113.413 12.8313 112.579 12.4763 112.163C12.1213 111.747 11.0972 110.821 10.2005 110.104C9.30382 109.387 8.44693 108.501 8.29628 108.135C8.14578 107.769 7.38833 106.63 6.6133 105.604C3.74641 101.809 2.24578 99.2246 1.58361 96.9425C1.22112 95.6931 0.745054 94.2684 0.525731 93.7767C0.0492086 92.7082 -0.172497 89.1552 0.156284 87.8567C0.568891 86.2269 3.04792 83.884 5.69829 82.619C7.13153 81.935 7.63128 81.8895 13.316 81.9256C18.5448 81.9558 19.6442 82.0556 21.1382 82.615C22.0942 82.9729 23.789 83.525 24.9044 83.8417C26.7885 84.3768 32.5661 87.3777 35.9058 89.5557C36.6983 90.0726 38.2777 91.5457 39.4154 92.8293C40.5532 94.1129 41.5666 95.1631 41.6675 95.1631C41.7684 95.1631 41.8187 92.0988 41.7794 88.3537C41.7085 81.62 41.9102 77.0084 42.4296 73.5043C42.5766 72.5116 42.754 70.7945 42.8235 69.6885C42.9499 67.6775 42.9499 67.6775 39.8662 66.9655C38.1702 66.574 36.4566 66.2065 36.0583 66.149C34.5818 65.9358 30.3437 64.0376 28.6653 62.8378C25.8641 60.8351 21.9829 56.0133 20.4949 52.6872C20.0869 51.7751 19.3767 49.5513 18.9167 47.7454C18.2452 45.1093 18.1129 44.0738 18.2455 42.493C18.3364 41.4101 18.4573 39.9056 18.514 39.1497C18.5707 38.3938 18.8199 37.0648 19.0673 36.1962C19.3148 35.3277 19.6618 33.6802 19.8385 32.5352C20.0151 31.3901 20.3314 29.9872 20.5412 29.4176C21.0913 27.9242 22.4809 23.2163 22.5382 22.6519C22.5639 22.3882 22.0863 21.8713 21.4745 21.5033C20.1366 20.6986 19.5689 19.6341 19.5551 17.9041C19.5453 16.6291 19.0076 14.428 18.627 14.1031C18.519 14.0107 18.6976 13.2354 19.0245 12.3802C19.5977 10.8804 19.6617 10.8253 20.8323 10.8253C22.2545 10.8253 25.0898 11.3667 26.4111 11.8905C27.8939 12.4783 28.6728 11.8773 29.2268 9.71893C29.4815 8.72707 29.9875 7.49958 30.3514 6.99124C30.7154 6.48289 31.2246 5.68548 31.4828 5.21921C31.741 4.75293 32.381 4.13636 32.9047 3.84906C33.8048 3.35522 33.9052 3.36438 34.7403 4.01671C35.2262 4.39625 36.2756 5.3918 37.0723 6.229C37.869 7.06622 38.8858 8.0217 39.332 8.35227C40.1431 8.95333 40.1431 8.95333 41.1263 7.87398C42.3233 6.55971 44.4017 6.16893 45.8093 6.99346C46.6753 7.50073 46.6753 7.50073 48.2474 5.62492C49.9715 3.56761 54.9524 -0.00665024 56.0859 9.29277e-06C56.6324 0.00333906 57.0187 0.488668 57.9792 2.37917C59.3144 5.00732 59.6311 6.13117 60.2358 10.3889C60.6783 13.5042 61.1209 15.6962 61.3626 15.97C61.5485 16.1806 64.2182 13.9018 64.5365 13.2609C64.6642 13.0043 64.9113 12.7943 65.0861 12.7943C65.2608 12.7943 65.9389 12.3054 66.5927 11.7078C67.2465 11.1102 68.1957 10.4322 68.702 10.2011C69.2083 9.96998 69.8478 9.49901 70.123 9.15453C70.703 8.42852 71.9297 8.33651 72.6852 8.96232C74.411 10.3917 75.6918 19.6706 75.3529 28.2879C75.1377 33.7616 74.3967 38.6001 73.3033 41.6726C73.0783 42.3043 72.5411 43.9287 72.1091 45.2824C71.6771 46.6361 71.0344 48.1866 70.6808 48.7281C70.3271 49.2695 69.7414 50.3717 69.3791 51.1773C69.0169 51.9829 68.322 53.2381 67.8349 53.9667C66.3959 56.1193 61.5052 60.706 60.649 60.706C60.485 60.706 59.4152 61.4929 58.2718 62.4547C57.1285 63.4165 55.7368 64.404 55.179 64.6491C54.6214 64.8944 53.8457 65.3256 53.4555 65.6077C52.6539 66.1872 50.3086 66.8384 47.9279 67.1426C46.6242 67.3089 46.25 67.2435 45.9168 66.7885C45.6177 66.3801 45.5889 66.0826 45.8104 65.6829C46.1574 65.0568 46.4982 64.9256 50.22 63.9863C53.0157 63.2808 54.7882 62.4554 55.4513 61.5504C55.6592 61.2665 56.0597 61.0341 56.341 61.0341C56.6223 61.0341 57.5515 60.4934 58.4059 59.8325C59.2603 59.1716 60.8068 57.9783 61.8425 57.1807C65.6701 54.2332 68.994 49.1807 70.6426 43.8041C71.9422 39.5657 73.0808 34.9609 73.3199 32.9762C73.7619 29.3071 73.4601 18.3597 72.813 14.5991C72.4988 12.7717 71.8473 10.8253 71.5501 10.8253C71.0096 10.8253 68.9532 12.2082 67.6366 13.457C66.7603 14.2882 65.4566 15.4398 64.7395 16.0161C64.0225 16.5924 63.0936 17.3735 62.6753 17.7519C62.0607 18.308 61.8004 18.3706 61.3183 18.0783C60.9902 17.8794 60.457 17.7167 60.1334 17.7167C59.304 17.7167 59.0722 17.0191 58.6616 13.2865C58.1759 8.8718 57.3378 5.34855 56.4107 3.82366C55.7384 2.71798 55.5405 2.5886 54.7838 2.76003C53.7127 3.00267 51.5283 4.89997 49.2017 7.60843C47.4251 9.67673 47.4251 9.67674 47.2341 13.2572C47.0607 16.509 46.971 16.9346 46.2585 17.8922C45.2877 19.197 44.4807 19.4118 42.1131 18.9956C41.0934 18.8164 39.4456 18.5829 38.4512 18.4767C37.4568 18.3705 36.5027 18.0918 36.3309 17.8573C36.0795 17.5144 35.7532 17.5936 34.6624 18.2619C33.4014 19.0344 33.1199 19.0786 30.6543 18.8925C28.0026 18.6924 28.0026 18.6924 26.3087 20.3347C25.3771 21.238 24.5171 21.9783 24.3976 21.9799C24.278 21.9815 24.1803 22.5997 24.1803 23.3537C24.1803 24.1077 23.81 25.9167 23.3574 27.3737C22.0492 31.5844 21.8627 32.314 21.8627 33.2185C21.8627 33.687 21.5874 34.7841 21.2509 35.6564C20.7241 37.0221 20.6347 37.9262 20.6069 42.1648C20.5748 47.0817 20.76 48.7659 21.4007 49.3844C21.5876 49.5649 21.8951 50.3032 22.0838 51.0252C22.3007 51.8557 23.3257 53.5128 24.874 55.5368C27.5577 59.0448 28.8218 60.3778 29.4645 60.3778C29.6955 60.3778 30.1101 60.6597 30.3855 61.0046C30.6611 61.3493 31.231 61.7294 31.6523 61.8492C32.0736 61.969 33.0744 62.4083 33.8762 62.8255C34.7003 63.2542 35.9575 63.6026 36.768 63.6269C37.5566 63.6533 38.5141 63.9016 38.8957 64.1846C39.2773 64.4677 39.8705 64.6231 40.214 64.5301C41.3085 64.2327 43.6186 65.1306 44.6679 66.2615C45.5453 67.2072 45.6405 67.4705 45.4884 68.531C45.3937 69.1909 45.1999 72.7149 45.0577 76.3621C44.9155 80.0093 44.7353 83.1104 44.6574 83.2535C44.5793 83.3963 44.4272 85.5206 44.3193 87.9736C44.1456 91.919 44.342 94.9168 44.9093 97.0448C45.0666 97.6328 45.9085 97.165 45.9085 96.4896C45.9085 96.1743 46.267 95.4701 46.7052 94.9239C47.1434 94.3777 48.002 93.1187 48.6131 92.1263C49.2243 91.1338 50.0705 90.1189 50.4936 89.8711C50.9167 89.6232 51.5639 89.0213 51.9317 88.5333C52.7663 87.4265 56.1753 84.334 56.5609 84.334C56.7179 84.334 57.0064 84.1159 57.2018 83.849C57.5255 83.4072 58.739 82.6341 65.319 78.6777C66.514 77.9591 68.274 76.8842 69.23 76.289C71.5055 74.8724 76.0728 73.2492 79.3232 72.7019C83.401 72.0153 85.0351 72.9158 86.1867 76.4851C86.8613 78.5755 86.933 82.2654 86.3521 84.9903C86.0097 86.5961 83.334 94.2201 82.6666 95.4915C82.5245 95.7625 82.324 96.1859 82.221 96.4329C82.1182 96.6797 81.4613 97.5862 80.7614 98.4467C80.0616 99.3073 79.0711 100.669 78.5604 101.473C77.3111 103.439 71.35 109.885 69.852 110.889C69.1913 111.332 68.5204 111.869 68.3611 112.083C67.7277 112.931 62.1576 116.136 60.2492 116.75C59.1339 117.11 57.6346 117.601 56.9176 117.842C56.2005 118.083 55.3532 118.313 55.0345 118.354C54.7157 118.394 53.9247 118.578 53.2765 118.762C52.6283 118.945 50.9335 119.131 49.5103 119.173C47.2815 119.24 46.7318 119.143 45.5465 118.47C44.4029 117.822 44.1704 117.537 44.1704 116.783C44.1704 115.528 44.4892 115.416 45.9613 116.153C47.8751 117.112 50.1674 117.102 54.5999 116.114C59.3745 115.05 62.1056 113.783 66.7677 110.471C69.6561 108.419 70.7848 107.364 75.4847 102.323C75.768 102.019 76.2318 101.354 76.5156 100.846C76.7996 100.338 77.623 99.1253 78.3457 98.1521C79.7741 96.2285 80.6891 94.6558 81.4211 92.8661C81.6796 92.2344 82.334 90.6684 82.8757 89.386C83.4173 88.1036 83.8605 86.8295 83.8605 86.5546C83.8605 86.2795 84.04 85.5569 84.2594 84.9483C85.2131 82.3025 85.0708 79.2944 83.917 77.7093C83.6953 77.4047 83.6031 76.9922 83.7123 76.7924C83.8213 76.5925 83.6995 76.0665 83.4442 75.6232C83.0575 74.9547 82.7443 74.8176 81.6085 74.8197C78.3133 74.8273 72.4617 76.6164 70.0157 78.3675C69.265 78.9049 67.9085 79.7871 67.0013 80.328C65.5033 81.2211 62.0506 83.4757 58.6558 85.7777C56.5101 87.2327 55.6081 88.0561 52.4531 91.4402C50.1565 93.9035 48.8493 95.6704 46.9505 98.8776C45.5808 101.191 44.4601 103.217 44.4601 103.38C44.4601 103.542 44.2187 104.163 43.9234 104.758C43.1074 106.404 42.9145 107.766 42.8895 112.064C42.8703 115.624 42.818 115.992 42.3597 115.905C41.9968 115.836 41.8527 116.027 41.8527 116.578C41.8527 117.557 41.3434 118.135 40.4809 118.135C40.1088 118.135 39.4996 118.361 39.1272 118.637C37.9766 119.491 29.6977 119.596 26.0817 118.803ZM35.9713 116.884C37.8761 116.64 38.5266 116.408 39.2528 115.716C39.7509 115.241 40.2967 114.853 40.4656 114.853C40.6728 114.853 40.7173 113.774 40.6019 111.534C40.4576 108.723 40.5178 107.956 40.9968 106.529C41.3078 105.602 41.5623 104.54 41.5624 104.168C41.5625 103.797 41.7538 103.206 41.9879 102.856C42.2219 102.505 42.4174 101.665 42.4225 100.988C42.4289 99.996 42.3255 99.7574 41.8837 99.7574C41.5127 99.7574 41.1824 99.3232 40.8608 98.4129C40.1024 96.2657 36.1539 92.1782 32.876 90.147C31.3597 89.2073 29.5478 88.1742 28.8495 87.8513C28.1513 87.5285 27.0432 86.988 26.387 86.6505C22.9193 84.867 19.5561 84.2284 13.5917 84.221C8.18467 84.2134 6.6784 84.5441 4.37756 86.2384C1.94433 88.0302 1.49073 89.6283 2.47329 92.9472C3.79565 97.4139 5.19279 100.187 8.05017 104.016C8.65944 104.832 9.63721 106.146 10.223 106.934C12.8098 110.418 18.5419 114.17 23.7991 115.823C28.8672 117.416 30.6302 117.569 35.9713 116.884ZM25.5805 18.4235C26.9318 17.0103 27.1716 15.6667 26.2805 14.5008C25.8257 13.9056 23.1022 13.1225 21.4875 13.1225C20.7186 13.1225 21.1462 17.2295 22.0599 18.6192C23.0343 20.1013 24.0288 20.046 25.5805 18.4235ZM44.7031 16.1029C45.0285 15.3959 45.3802 13.9561 45.4847 12.9034C45.6484 11.2525 45.5901 10.868 45.0596 10.1064C43.8322 8.34406 42.7597 8.62861 40.2589 11.38C39.4622 12.2565 38.4519 13.232 38.0137 13.5479C37.421 13.975 37.217 14.3863 37.217 15.1537C37.217 15.7211 37.3043 16.0863 37.411 15.9654C37.5177 15.8443 37.8937 15.9605 38.2464 16.2213C38.599 16.4831 39.1309 16.6941 39.4283 16.6903C39.7258 16.687 40.6209 16.8247 41.4177 16.9974C43.9231 17.5404 44.0586 17.5036 44.7031 16.1029ZM34.7547 15.7325C35.3433 15.0659 35.4528 14.6984 35.3078 13.8768C35.1047 12.726 34.619 12.4776 32.5589 12.4706C31.5565 12.4673 30.9018 12.7142 29.8791 13.4816C28.4245 14.5729 28.2358 15.1691 29.0301 16.1633C29.4628 16.7049 29.8529 16.7782 31.7777 16.6792C33.7174 16.5794 34.1202 16.4514 34.7547 15.7325ZM38.0244 10.7818C38.0795 10.4565 37.2708 9.44935 35.9189 8.16028C33.4634 5.81881 33.1611 5.62258 33.1611 6.36998C33.1611 6.65692 32.8227 7.22301 32.4092 7.62792C31.7093 8.31323 30.6829 10.1302 30.8945 10.3094C30.946 10.353 31.9009 10.292 33.0162 10.1739C34.8204 9.9827 35.156 10.0413 36.0582 10.7053C37.1949 11.542 37.8906 11.5692 38.0244 10.7818ZM52.8613 43.284C51.4822 42.9837 50.9016 42.3931 49.3584 39.7214C48.2374 37.7806 48.2779 36.5885 49.5482 34.1332C50.9083 31.5045 52.2738 30.5008 55.6073 29.6793C56.8904 29.3631 57.7524 29.3389 58.9331 29.586C61.3303 30.088 62.0839 30.6618 62.8754 32.5873C64.0561 35.4599 63.7054 37.7863 61.7716 39.9078C60.2449 41.5828 59.2033 42.1943 56.802 42.8252C55.77 43.0963 54.7544 43.3743 54.5453 43.443C54.3361 43.5118 53.5783 43.4398 52.8613 43.284ZM58.3658 40.4021C59.0828 40.0398 60.109 39.229 60.6462 38.6003C61.5897 37.496 61.6188 37.3837 61.5017 35.3016C61.3667 32.9019 61.1081 32.5203 59.0702 31.7166C58.0931 31.3313 57.5731 31.321 56.0283 31.6562C53.6902 32.1638 52.345 33.0668 51.1726 34.916C50.1775 36.4856 50.0013 37.5545 50.6885 37.8532C50.9276 37.9571 51.1231 38.3277 51.1231 38.6769C51.1231 39.026 51.6119 39.7754 52.2094 40.3422C53.2365 41.3164 53.3987 41.3642 55.179 41.2167C56.2147 41.1308 57.6487 40.7643 58.3658 40.4021ZM54.376 39.5192C54.4656 39.4179 54.0124 38.7788 53.3691 38.0991C52.1995 36.8632 52.1995 36.8632 53.0063 36.0158C54.2139 34.7474 56.0325 34.2573 57.1351 34.9031C58.2327 35.546 58.5947 36.9041 57.9003 37.7732C57.629 38.1129 57.259 38.3909 57.0784 38.3909C56.8979 38.3909 56.2386 38.6862 55.6135 39.0472C54.4673 39.7092 54.0769 39.8581 54.376 39.5192ZM28.3809 41.7011C27.3777 41.5343 27.1443 41.3276 26.6427 40.1616C26.3239 39.4208 25.7223 38.5899 25.3055 38.3153C23.7353 37.2803 23.9679 34.0709 25.8068 31.3972C27.3947 29.0886 29.4765 28.0468 32.4368 28.0792C35.6395 28.1143 36.5869 28.6421 38.0834 31.2251C39.1777 33.1141 39.2774 33.459 39.1727 34.9932C39.0873 36.2432 38.8454 36.9678 38.241 37.7825C37.2504 39.1179 34.8777 40.9731 33.6357 41.3835C32.4277 41.7825 29.8191 41.9402 28.3809 41.7011ZM34.4965 39.0219C37.2978 37.3643 38.0926 35.687 37.0969 33.5342C36.5375 32.3247 34.9287 30.6296 33.9389 30.207C32.623 29.645 30.2316 29.7835 29.2232 30.48C28.0063 31.3205 26.2081 33.8648 26.2081 34.746C26.2081 35.8579 27.2251 37.8537 28.3739 38.9963C29.2873 39.9046 29.6222 40.0317 31.1025 40.0317C32.4239 40.0317 33.16 39.8127 34.4965 39.0219ZM29.3949 36.243C29.3949 34.0395 31.7464 32.6284 33.289 33.9061C33.7574 34.2941 33.7769 34.4824 33.4608 35.5673C33.0606 36.9407 32.3197 37.4064 30.5348 37.4064C29.4224 37.4064 29.3949 37.3785 29.3949 36.243Z" fill="black"/>
<path d="M29.7372 16.5847C29.4066 16.4913 29.0892 16.2039 28.8284 15.7614C28.6054 15.3832 28.5797 15.0133 28.7531 14.6779C28.917 14.361 29.7423 13.6098 30.38 13.1971C31.2225 12.652 31.6393 12.5351 32.7356 12.5366C34.6809 12.5396 35.1498 12.8388 35.301 14.1749C35.3486 14.5961 35.3309 14.7002 35.1472 15.0756C34.8647 15.653 34.2024 16.2505 33.6772 16.4019C32.8655 16.6359 30.3341 16.7533 29.7372 16.5847Z" fill="#FF0000"/>
<path d="M42.9154 17.2497C42.3294 17.1076 40.307 16.7455 39.7384 16.6809C39.1576 16.6149 38.9581 16.5518 38.4562 16.275C38.1292 16.0947 37.7393 15.9269 37.5896 15.902L37.3175 15.8568L37.2943 15.2765C37.2592 14.3977 37.3817 14.1571 38.2367 13.4255C38.6291 13.0897 39.51 12.228 40.1942 11.5106C42.6859 8.89775 43.516 8.53737 44.5773 9.60773C44.9516 9.98522 45.3352 10.6029 45.4449 11.0046C45.5591 11.4231 45.4982 12.7788 45.3224 13.7307C45.0376 15.2724 44.4274 16.8326 43.9995 17.113C43.7991 17.2443 43.2032 17.3195 42.9154 17.2497Z" fill="#FF0000"/>
<path d="M22.9595 19.4727C21.9413 18.9348 21.1701 16.7944 21.1521 14.4565C21.1466 13.7423 21.1699 13.5607 21.2904 13.3767C21.4353 13.1555 21.4355 13.1555 22.0679 13.2063C23.6121 13.3303 25.7374 13.9992 26.2148 14.5115C26.4447 14.7581 26.6949 15.34 26.7529 15.7628C26.8066 16.1548 26.6312 16.8644 26.3734 17.2977C26.0782 17.794 25.3927 18.5883 24.959 18.9367C24.0993 19.6272 23.5372 19.7778 22.9595 19.4727Z" fill="#FF0000"/>
</svg>
