<svg width="62" height="43" viewBox="0 0 62 43" fill="none" xmlns="http://www.w3.org/2000/svg">
<path d="M40.8881 42.925C40.3365 42.8736 39.4903 42.7782 39.0077 42.7129C38.525 42.6476 37.8481 42.5916 37.5033 42.5884C37.1586 42.5849 36.5756 42.5476 36.2079 42.5049C35.8402 42.4622 34.9022 42.3574 34.1234 42.272C32.709 42.117 32.5088 42.0816 31.4836 41.8044C31.1835 41.7233 30.8236 41.6569 30.6836 41.6569C30.5437 41.6569 30.2627 41.6087 30.0592 41.5497C29.8557 41.4906 29.4635 41.3981 29.1877 41.344C28.9119 41.2898 28.6486 41.221 28.6027 41.1911C28.5125 41.1323 28.2409 41.0817 27.3908 40.9649C27.092 40.9239 26.6784 40.8535 26.4715 40.8085C26.2647 40.7636 25.8134 40.6949 25.4686 40.6561C25.1239 40.6172 24.2025 40.4587 23.421 40.3038C22.6396 40.1489 21.8687 39.9969 21.7078 39.9659C21.5469 39.9349 21.2836 39.8706 21.1228 39.823C20.1549 39.5365 19.3509 39.344 19.1219 39.344C18.7978 39.344 17.1882 38.8421 17.1026 38.7144C17.0547 38.643 17.0092 38.6453 16.9058 38.7245C16.8058 38.801 16.7236 38.8068 16.586 38.7468C16.4841 38.7025 15.9683 38.538 15.4397 38.3814C14.9111 38.2248 14.441 38.0684 14.395 38.0338C14.3491 37.9992 14.1725 37.9507 14.0027 37.9261C13.6491 37.8747 13.0652 37.6739 12.7788 37.5051C12.6714 37.4417 12.4772 37.3791 12.3474 37.366C11.8455 37.3153 10.881 36.934 9.38056 36.1931C8.99798 36.0042 6.39332 34.8426 6.33009 34.8327C6.30712 34.8292 6.20189 34.7989 6.09625 34.7657C5.98269 34.7301 5.85979 34.7393 5.79552 34.7886C5.71446 34.8507 5.62523 34.8229 5.44433 34.6794C5.31096 34.5736 5.16114 34.4869 5.11139 34.4869C5.06161 34.4868 4.7984 34.2859 4.52638 34.0404C4.25436 33.7949 3.89651 33.5178 3.73116 33.4246C3.31512 33.1902 2.20876 31.9989 2.12292 31.6929C2.08414 31.5546 1.87653 31.2159 1.6616 30.9403C0.950001 30.0277 0.900349 29.9493 0.797894 29.576C0.741906 29.3723 0.634197 29.1188 0.558434 29.0128C0.482706 28.9068 0.396338 28.7271 0.366588 28.6134C0.336804 28.4998 0.259514 28.3579 0.194774 28.2982C0.130051 28.2385 0.079684 28.0539 0.0828808 27.888C0.0863746 27.7222 0.0585126 27.2026 0.0216532 26.7334C-0.0517163 25.7997 0.0682947 24.7079 0.277066 24.4089C0.342662 24.3149 0.396282 24.1695 0.396282 24.0857C0.396282 24.0019 0.436457 23.9105 0.485545 23.8825C0.534633 23.8545 0.555073 23.7842 0.530966 23.7262C0.506859 23.6682 0.520311 23.6019 0.560927 23.5787C0.601542 23.5556 0.678813 23.4135 0.732661 23.263C0.786465 23.1124 1.0149 22.7351 1.2402 22.4243C1.4655 22.1135 1.64984 21.8331 1.64984 21.8011C1.64984 21.7691 1.78147 21.5947 1.94235 21.4135C2.10323 21.2324 2.23486 21.0511 2.23486 21.0107C2.23486 20.9184 4.35606 18.9768 4.88971 18.5806C5.80862 17.8983 6.28478 17.603 6.4082 17.6388C6.49074 17.6628 6.60974 17.5811 6.73094 17.4174C6.83654 17.2747 6.96817 17.1618 7.02345 17.1666C7.11153 17.1745 8.60257 16.5163 10.6051 15.5863C10.9568 15.4229 11.3329 15.289 11.4408 15.2887C11.5487 15.2885 11.7447 15.2364 11.8764 15.1731C12.008 15.1098 12.1691 15.0579 12.2343 15.0579C12.2996 15.0579 12.5433 14.9689 12.776 14.8601C13.3126 14.6093 14.3444 14.364 14.863 14.364C15.0828 14.364 15.2824 14.3344 15.3067 14.2983C15.3309 14.262 15.3747 14.0124 15.404 13.7435C15.4332 13.4745 15.5064 13.1832 15.5665 13.0961C15.6266 13.009 15.7232 12.7816 15.7811 12.5908C15.839 12.4 15.9321 12.1918 15.9881 12.1282C16.0441 12.0646 16.3235 11.6136 16.6089 11.1259C16.8943 10.6383 17.236 10.0658 17.3682 9.85377C17.736 9.26378 17.9667 8.56479 17.9006 8.24007C17.8699 8.0887 17.8112 7.96486 17.7704 7.96486C17.7295 7.96486 17.6962 7.93014 17.6962 7.8878C17.6962 7.84538 17.7435 7.81074 17.8014 7.81074C18.0176 7.81074 19.0366 6.7354 19.5084 6.00937C20.0028 5.24836 20.394 4.62603 20.5076 4.41969C20.8449 3.80688 22.373 2.27713 23.0313 1.8933C23.1537 1.82192 23.3313 1.69304 23.4259 1.60683C23.7605 1.30213 24.0692 1.08831 24.4303 0.911185C24.6312 0.812631 24.8957 0.659379 25.018 0.570622C25.1403 0.481873 25.2887 0.409256 25.3477 0.409256C25.4067 0.409256 25.5615 0.361067 25.6916 0.302173C26.2659 0.0422345 26.5389 -0.0126019 27.1848 0.0022245C27.7032 0.0141206 27.9606 0.0622283 28.3131 0.213081C29.0667 0.535614 30.0009 1.0826 30.6655 1.5905C30.8808 1.755 31.0985 1.86586 31.1494 1.83686C31.2116 1.80143 31.2256 1.84386 31.1922 1.96683C31.1545 2.10545 31.2014 2.19789 31.3864 2.35C31.5205 2.46025 31.6892 2.6281 31.7613 2.72299L31.8923 2.89552L32.3255 2.69634C32.7407 2.50551 32.7671 2.50268 32.9555 2.62898C33.2317 2.81409 33.2046 2.98127 32.8639 3.19417C32.7025 3.29505 32.5803 3.42575 32.5923 3.48463C32.6044 3.5435 32.821 3.75699 33.0738 3.95902L33.5335 4.32635L34.035 4.22194C34.3107 4.16456 34.668 4.08398 34.8289 4.04296C35.1322 3.96564 36.2727 3.53807 36.4444 3.43734C36.5572 3.37112 36.5211 3.38022 36.984 3.30191C37.1811 3.26858 37.3879 3.18184 37.4437 3.10915C37.4994 3.03646 37.6907 2.952 37.8688 2.92145C38.0468 2.89092 38.2536 2.83792 38.3284 2.80372C38.8517 2.56443 42.067 2.11364 43.1039 2.13419C43.5931 2.1439 43.8332 2.19174 44.1904 2.35084C44.4426 2.46316 44.7993 2.61138 44.9832 2.68021C45.1671 2.74905 45.3739 2.87098 45.4429 2.95116C45.5557 3.08241 45.6132 3.08852 46.0203 3.01256C46.4696 2.92876 46.4737 2.92973 46.7097 3.17339C46.9992 3.47228 47.0088 3.5703 46.7485 3.5703C46.4749 3.5703 46.3194 3.74992 46.484 3.87594C46.5521 3.92807 46.7922 4.32688 47.0176 4.76219C47.243 5.19749 47.4698 5.57783 47.5216 5.60737C47.5734 5.63693 47.6158 5.72159 47.6158 5.79557C47.6158 5.86957 47.7041 6.1017 47.8121 6.31145C48.0886 6.84883 48.2538 7.25177 48.3716 7.67581C48.4275 7.87723 48.506 8.04203 48.546 8.04203C48.586 8.04203 48.6188 8.1281 48.6188 8.23325C48.6188 8.33842 48.7098 8.642 48.821 8.90786C48.9323 9.17373 49.0659 9.59943 49.1181 9.85385C49.1702 10.1083 49.2514 10.4205 49.2985 10.5477C49.4636 10.9933 49.709 11.9401 49.7881 12.4367C49.8636 12.9112 50.1841 14.5569 50.2009 14.5569C50.2052 14.5569 50.2261 14.8611 50.2474 15.233C50.2686 15.6048 50.3284 15.982 50.3802 16.0712C50.4319 16.1604 50.4526 16.3332 50.4261 16.4552C50.3996 16.5772 50.4087 16.6771 50.4463 16.6771C50.603 16.6771 50.7336 17.4008 50.7594 18.4118C50.8181 20.7227 50.8414 20.9564 51.0454 21.2913C51.1969 21.5401 51.2156 21.6274 51.1362 21.7157C51.0813 21.7768 50.971 21.811 50.8913 21.7918C50.8073 21.7715 50.6626 21.8388 50.5477 21.9517C50.3587 22.1373 50.3515 22.1833 50.3951 22.9145C50.4204 23.3369 50.4208 23.7011 50.396 23.7239C50.3713 23.7466 50.337 23.9106 50.3196 24.0883C50.2975 24.3146 50.3301 24.4541 50.4286 24.5545C50.5605 24.689 50.5598 24.7041 50.4178 24.7998C50.2808 24.8922 50.2795 24.9064 50.4037 24.9504C50.4791 24.977 50.5408 25.0625 50.5408 25.1401C50.5408 25.3714 50.3416 25.6964 50.1995 25.697C50.1268 25.6975 50.0402 25.7226 50.0072 25.753C49.9017 25.8503 48.6549 26.0563 48.0627 26.0742C47.2263 26.0995 46.8989 26.203 46.4966 26.5695C46.3015 26.7472 45.9657 27.0065 45.7505 27.1457C45.3252 27.4207 45.2364 27.5932 45.5585 27.5186C45.6736 27.4919 45.7942 27.5125 45.8436 27.568C45.9816 27.7219 45.8598 28.0913 45.6406 28.1834C45.5318 28.2292 45.4427 28.2963 45.4427 28.3326C45.4427 28.3689 45.0456 28.6401 44.5602 28.9352C44.0748 29.2304 43.5418 29.5751 43.3759 29.7013C43.2099 29.8276 43.0407 29.9118 42.9999 29.8886C42.9591 29.8653 42.8434 29.9228 42.7426 30.0162C42.6419 30.1096 42.315 30.3564 42.0162 30.5645C41.7174 30.7726 41.2843 31.0762 41.0538 31.2391C40.8233 31.402 40.5584 31.5576 40.4651 31.5849C40.3718 31.6122 40.1092 31.7926 39.8814 31.9858C39.4817 32.3247 38.9752 32.6509 37.8476 33.2955C37.5543 33.4631 37.1782 33.7055 37.0118 33.8342C36.8454 33.9629 36.5684 34.1538 36.3964 34.2583C36.2243 34.3628 36.0833 34.4739 36.083 34.5052C36.0827 34.5365 35.9226 34.6539 35.7272 34.7661C35.5319 34.8783 35.2579 35.0783 35.1184 35.2104C34.6976 35.609 34.0441 36.0683 33.9316 36.0445C33.8734 36.0321 33.8259 36.0792 33.8259 36.1491C33.8259 36.2808 32.3737 37.6479 32.2338 37.6479C32.1901 37.6479 32.1545 37.6934 32.1545 37.7491C32.1545 37.8047 32.0322 37.9313 31.8829 38.0305C31.7335 38.1296 31.4485 38.379 31.2496 38.5847C31.0506 38.7903 30.8505 38.9586 30.8048 38.9586C30.6989 38.9586 30.5301 38.8017 30.4649 38.6427C30.4112 38.5117 30.7383 38.072 30.8895 38.072C30.938 38.072 31.0685 37.9582 31.1797 37.8192C31.6794 37.1943 33.7512 35.34 34.3065 35.0205C34.4099 34.9611 34.4945 34.8752 34.4945 34.8297C34.4945 34.7262 34.9334 34.3327 35.0487 34.3327C35.0956 34.3327 35.2223 34.2459 35.3303 34.1399C35.4382 34.0339 35.5685 33.9472 35.6197 33.9472C35.6708 33.9472 35.9116 33.7749 36.1547 33.5644C36.3977 33.3539 36.7066 33.1284 36.841 33.0633C36.9754 32.9982 37.1982 32.8903 37.3361 32.8236C37.474 32.7569 37.5868 32.6701 37.5868 32.6308C37.5868 32.5916 37.662 32.5594 37.7539 32.5594C37.8459 32.5594 37.9211 32.5315 37.9211 32.4975C37.9211 32.4634 38.1528 32.2848 38.436 32.1006C38.7192 31.9163 39.0858 31.6557 39.2508 31.5214C39.4158 31.3871 39.7309 31.1818 39.9511 31.0652C40.1713 30.9486 40.4756 30.7525 40.6274 30.6296C40.7791 30.5067 41.0033 30.371 41.1255 30.3282C41.3265 30.2577 41.4454 30.0151 41.279 30.0151C41.2413 30.0151 40.9498 30.2068 40.6313 30.4411C40.3128 30.6754 39.7138 31.0645 39.3001 31.3057C38.8864 31.547 38.3975 31.8416 38.2136 31.9605C38.0297 32.0794 37.3904 32.4747 36.7928 32.8391C36.1953 33.2034 35.6124 33.5671 35.4974 33.6472C35.3825 33.7273 35.0628 33.9387 34.7871 34.1169C34.023 34.6106 33.5734 34.9263 33.1281 35.2814C32.9052 35.4593 32.5667 35.6958 32.3759 35.8072C32.1852 35.9185 31.9351 36.1041 31.8202 36.2196C31.7053 36.3351 31.442 36.5101 31.2351 36.6086C31.0214 36.7103 30.5885 37.0618 30.2323 37.4228C29.4147 38.2513 28.4009 39.1513 28.2854 39.1513C28.2351 39.1513 28.1231 39.0392 28.0363 38.9022C27.8801 38.6554 27.8803 38.6507 28.0591 38.4191C28.1584 38.2905 28.3439 38.1355 28.4714 38.0747C28.5988 38.0139 28.7674 37.8737 28.8459 37.763C29.0125 37.5286 29.5642 37.0538 29.9044 36.8523C30.0346 36.7751 30.1628 36.6537 30.1894 36.5824C30.2159 36.5111 30.41 36.3314 30.6206 36.183C30.8312 36.0346 31.0651 35.8576 31.1403 35.7897C31.2155 35.7217 31.3394 35.635 31.4158 35.5969C31.4923 35.5589 31.6991 35.4056 31.8755 35.2564C32.0519 35.1072 32.406 34.8578 32.6623 34.7022C32.9186 34.5466 33.1793 34.3626 33.2417 34.2932C33.3041 34.2239 33.5002 34.0989 33.6776 34.0154C33.8549 33.932 34.0712 33.8044 34.1581 33.7319C34.2451 33.6595 34.4598 33.5028 34.6352 33.3837C34.8107 33.2647 35.175 33.0132 35.4448 32.8248C35.7146 32.6364 35.9701 32.4823 36.0125 32.4823C36.0549 32.4823 36.3012 32.3348 36.5598 32.1546C36.9849 31.8584 37.2862 31.6867 38.2798 31.1744C38.454 31.0845 38.6687 30.9517 38.7568 30.8793C38.8449 30.8069 39.0784 30.6341 39.2757 30.4954C39.473 30.3567 39.86 30.0784 40.1358 29.877C40.4116 29.6756 40.7416 29.4495 40.8692 29.3744C40.9968 29.2994 41.2036 29.1528 41.3289 29.0486C41.4541 28.9444 42.0712 28.5469 42.7001 28.1653C43.3291 27.7836 44.0773 27.2631 44.3628 27.0085C44.6484 26.754 44.9316 26.5457 44.9923 26.5457C45.0919 26.5457 45.2756 26.3206 45.2756 26.1986C45.2756 26.1717 45.2019 26.1713 45.1119 26.1977C45.0219 26.2241 44.6755 26.248 44.3422 26.2509C44.0089 26.2535 43.6732 26.2925 43.5962 26.3368C43.4982 26.3933 43.2715 26.3912 42.8407 26.3298C41.9809 26.2075 42.0361 26.2115 41.3936 26.225C40.9418 26.2344 40.8351 26.2577 40.9131 26.3296C41.1171 26.5179 41.0258 26.7676 40.679 26.9695C40.4952 27.0766 40.3448 27.1978 40.3448 27.2389C40.3448 27.2799 40.2413 27.3364 40.1149 27.3644C39.9885 27.3924 39.8178 27.4798 39.7356 27.5586C39.6534 27.6375 39.5343 27.702 39.4709 27.702C39.4076 27.702 39.3433 27.7296 39.3279 27.7635C39.3126 27.7972 39.0507 27.9505 38.7459 28.1039C38.1053 28.4264 37.5344 28.8152 37.0043 29.2901C36.7989 29.4741 36.5294 29.6452 36.4054 29.6703C36.2814 29.6954 36.1586 29.7674 36.1325 29.8302C36.1064 29.893 35.981 29.9866 35.8539 30.0384C35.5245 30.1724 34.9357 30.5325 34.8552 30.649C34.8178 30.7034 34.6178 30.8504 34.411 30.9758C34.2041 31.1011 33.8468 31.3472 33.617 31.5226C33.3872 31.6979 33.1056 31.8871 32.9912 31.943C32.8768 31.9989 32.5569 32.2066 32.2804 32.4046C32.0039 32.6026 31.736 32.7518 31.6852 32.7362C31.6343 32.7205 31.5313 32.7941 31.4563 32.8999C31.2551 33.1831 30.9767 33.4061 30.6803 33.5215C30.5359 33.5776 30.2727 33.7432 30.0952 33.8894C29.7822 34.1472 28.5375 35.0208 27.926 35.4119C27.7603 35.5179 27.4122 35.7711 27.1525 35.9745C26.8928 36.178 26.5299 36.4617 26.346 36.605C25.6305 37.1627 25.4736 37.3049 25.4506 37.4165C25.4375 37.48 25.3515 37.5841 25.2596 37.6477C25.1676 37.7113 25.0924 37.8154 25.0924 37.879C25.0924 37.9426 25.0107 38.0054 24.9107 38.0185C24.8108 38.0317 24.6719 38.1228 24.6021 38.2211C24.4097 38.4921 24.0688 38.541 23.8279 38.3322C23.6121 38.1452 23.5774 37.9103 23.737 37.7174C23.8835 37.5403 25.4445 36.353 25.8126 36.1386C25.9838 36.0389 26.1482 35.8867 26.1779 35.8003C26.2076 35.7138 26.2707 35.6432 26.3181 35.6432C26.3656 35.6432 26.504 35.5469 26.6259 35.4291C26.7478 35.3114 27.0449 35.0996 27.2863 34.9585C27.5276 34.8174 27.725 34.6715 27.725 34.6344C27.725 34.5973 27.8849 34.4924 28.0802 34.4013C28.2756 34.3103 28.608 34.0927 28.8189 33.9179C29.4463 33.3979 30.0497 32.9451 30.1224 32.9396C30.1599 32.937 30.3597 32.8155 30.5665 32.6701C30.7734 32.5248 31.0748 32.3236 31.2364 32.2232C31.3979 32.1227 31.5776 31.9877 31.6357 31.9231C31.6938 31.8585 31.9631 31.6774 32.2342 31.5206C32.5052 31.3638 32.7467 31.1883 32.7707 31.1304C32.7947 31.0726 32.9386 30.9667 33.0904 30.8951C33.2421 30.8234 33.5433 30.6395 33.7596 30.4863C33.9758 30.3331 34.2875 30.121 34.452 30.015C34.6166 29.909 35.0602 29.5868 35.4378 29.299C35.8153 29.0113 36.2277 28.7554 36.3541 28.7304C36.4805 28.7055 36.5839 28.646 36.5839 28.5983C36.5839 28.4987 37.6718 27.7194 38.6183 27.1408C39.0815 26.8576 39.7708 26.3759 39.7458 26.3528C39.7299 26.3381 39.4062 26.3034 39.0266 26.2759C38.6469 26.2483 38.215 26.1935 38.0666 26.1543C37.6799 26.052 37.3361 26.0653 37.3361 26.1826C37.3361 26.3488 36.6851 26.8748 35.5005 27.6657C34.8816 28.0789 34.3054 28.499 34.2199 28.5992C34.1345 28.6994 34.0109 28.7814 33.9453 28.7814C33.8797 28.7814 33.826 28.8092 33.826 28.843C33.826 28.8769 33.7011 28.9463 33.5485 28.9972C33.396 29.0481 33.1173 29.2112 32.9293 29.3596C32.7414 29.508 32.5523 29.6295 32.5093 29.6295C32.4663 29.6295 32.3594 29.7026 32.2719 29.7919C32.1843 29.8812 31.9738 30.0197 31.8041 30.0996C31.6345 30.1794 31.3565 30.3319 31.1866 30.4383C31.0166 30.5447 30.8087 30.6318 30.7246 30.6318C30.6405 30.6318 30.3619 30.8119 30.1055 31.032C29.8491 31.2521 29.4061 31.5511 29.121 31.6965C28.8358 31.8418 28.4501 32.0867 28.2638 32.2407C27.5612 32.8213 27.3891 32.9447 27.282 32.9447C27.2214 32.9447 26.9857 33.1103 26.7581 33.3127C26.5305 33.5151 26.2019 33.743 26.0279 33.8192C25.6291 33.9937 24.6429 34.6704 24.486 34.8771C24.3301 35.0823 23.2394 36.0472 23.0597 36.1387C22.9826 36.1779 22.5735 36.5307 22.1506 36.9225C21.7277 37.3144 21.3105 37.6558 21.2235 37.6813C21.0621 37.7285 20.6212 37.4729 20.6212 37.3321C20.6212 37.2919 20.7152 37.2194 20.8301 37.1711C20.9451 37.1229 21.0391 37.0415 21.0391 36.9904C21.0391 36.8825 22.8856 35.1511 23.5448 34.6409C23.7914 34.4501 24.1229 34.1817 24.2816 34.0445C24.5319 33.828 25.1916 33.3816 25.6235 33.1365C25.6991 33.0936 26.0002 32.8941 26.2926 32.6932C26.5849 32.4923 26.8926 32.328 26.9764 32.328C27.0602 32.328 27.1519 32.2606 27.1802 32.1783C27.2085 32.096 27.4163 31.9518 27.6419 31.8577C27.8676 31.7636 28.0632 31.6451 28.0766 31.5943C28.1248 31.4126 29.4897 30.4451 30.483 29.8886C30.9122 29.6481 31.6621 29.1011 31.7616 28.956C31.7984 28.9024 31.9174 28.8585 32.0262 28.8585C32.1349 28.8585 32.3117 28.7899 32.419 28.7062C33.1241 28.1559 34.0011 27.5119 34.2856 27.3355C34.4695 27.2215 34.7372 27.0405 34.8806 26.9333C35.024 26.826 35.3519 26.6014 35.6093 26.434C36.2644 26.008 36.2627 25.9496 35.5951 25.9452C35.2885 25.9435 34.9061 25.9226 34.7452 25.8995C34.5843 25.8764 34.2358 25.8345 33.9706 25.8064C33.7055 25.7782 33.4682 25.7249 33.4433 25.6878C33.4185 25.6507 33.3081 25.6204 33.1981 25.6204C33.0881 25.6204 32.9116 25.589 32.8061 25.5508C32.7005 25.5126 32.2944 25.4392 31.9037 25.3879C31.513 25.3365 31.1078 25.245 31.0032 25.1846C30.8987 25.1241 30.673 25.0803 30.5018 25.0873C30.3305 25.0943 29.9084 25.0292 29.5636 24.9427C29.2189 24.8562 28.751 24.7686 28.5238 24.7481L28.1108 24.7108L28.3126 24.8512C28.5082 24.9873 28.5103 24.9994 28.3812 25.249C28.308 25.3906 28.1398 25.5581 28.0075 25.6212C27.8751 25.6844 27.5787 25.8662 27.3489 26.0252C27.1191 26.1843 26.885 26.2985 26.8288 26.279C26.7725 26.2595 26.6973 26.29 26.6616 26.347C26.5656 26.5 25.6444 27.1832 25.2595 27.3868C25.0757 27.4841 24.7372 27.7191 24.5074 27.9091C24.042 28.2939 22.6419 29.244 22.5403 29.244C22.5044 29.244 22.2674 29.4001 22.0134 29.591C21.7595 29.7818 21.5231 29.9379 21.488 29.9379C21.453 29.9379 21.3282 30.0221 21.2107 30.1248C21.0933 30.2276 20.6212 30.5711 20.1615 30.8881C19.7018 31.2052 19.2599 31.52 19.1795 31.5879C19.0991 31.6557 18.976 31.7112 18.9061 31.7112C18.8361 31.7112 18.7361 31.798 18.6837 31.9039C18.5808 32.1123 18.4913 32.1462 18.4007 32.011C18.3649 31.9576 18.2848 32.0083 18.1883 32.1459C18.1032 32.2672 17.7305 32.592 17.3603 32.8677C16.99 33.1433 16.209 33.7934 15.6246 34.3124C15.0402 34.8314 14.4791 35.3295 14.3779 35.4193C14.2399 35.5417 14.2058 35.6383 14.2418 35.8045C14.2769 35.9665 14.2533 36.0393 14.1543 36.0743C14.0797 36.1007 14.0188 36.1724 14.0188 36.2336C14.0188 36.2949 13.8778 36.4651 13.7054 36.612C13.4448 36.8341 13.4131 36.892 13.5173 36.9553C13.6247 37.0206 14.8182 37.4002 15.0635 37.4471C15.1094 37.4559 15.3915 37.5368 15.6903 37.6268C17.6516 38.218 19.7566 38.7562 21.039 38.9944C21.3378 39.0499 21.9207 39.17 22.3344 39.2612C22.7481 39.3524 23.3659 39.4621 23.7072 39.505C24.0486 39.5479 24.3642 39.6037 24.4087 39.629C24.5506 39.7099 26.6545 40.0448 27.6832 40.1502C28.1662 40.1997 28.7204 40.3131 29.6054 40.5433C29.8352 40.6032 30.3429 40.7068 30.7336 40.7737C31.1244 40.8406 31.5381 40.9156 31.653 40.9404C31.7679 40.9651 31.9183 40.9949 31.9873 41.0065C32.0562 41.0182 32.3571 41.0845 32.6559 41.154C32.9546 41.2234 33.5188 41.3139 33.9095 41.3551C36.0114 41.5765 37.3562 41.6904 37.7957 41.6843C37.9795 41.6817 38.6753 41.7352 39.3418 41.8032C40.5645 41.9278 43.2738 41.9586 44.826 41.8655C45.5148 41.8242 46.4094 41.6944 47.3232 41.5033C47.507 41.4648 47.9959 41.3771 48.4096 41.3084C49.3771 41.1477 50.8513 40.8215 51.0294 40.7289C51.1054 40.6893 51.3932 40.5881 51.669 40.504C52.9057 40.1269 53.5841 39.8694 54.1056 39.5792C54.4145 39.4074 54.6985 39.2668 54.7368 39.2668C54.775 39.2668 54.9596 39.1776 55.1469 39.0685C55.3342 38.9594 55.5084 38.8895 55.534 38.9131C55.5596 38.9367 55.6218 38.907 55.6723 38.8467C55.7228 38.7866 55.9481 38.6485 56.1729 38.5398C56.3977 38.4312 56.661 38.2716 56.7579 38.1853C56.8549 38.0989 57.1411 37.8804 57.3939 37.6996C57.6467 37.5189 58.035 37.147 58.2569 36.8733C58.6603 36.3755 59.0981 35.8816 59.6531 35.2982C60.1884 34.7354 60.3748 34.3973 60.4833 33.7928C60.5403 33.4748 60.6065 33.1625 60.6302 33.0989C60.7553 32.7634 60.8946 30.9963 60.864 30.1321C60.841 29.4816 60.798 29.2659 60.6193 28.9056C60.5001 28.6651 60.4025 28.4425 60.4025 28.4109C60.4025 28.3395 59.6503 27.2153 59.5671 27.1623C59.5338 27.1411 59.4433 27.0197 59.366 26.8924C59.1198 26.4874 58.8188 26.1371 58.3425 25.7011C57.8975 25.2939 57.8743 25.2831 57.7611 25.4294C57.42 25.8705 56.9016 26.2581 55.0556 27.4523C54.9416 27.5261 54.6972 27.7102 54.5123 27.8616C54.1375 28.1687 53.6943 28.4296 53.1316 28.6744C52.9247 28.7644 52.6615 28.9328 52.5466 29.0486C52.4316 29.1645 52.1684 29.3401 51.9615 29.439C51.7547 29.5379 51.4027 29.7599 51.1794 29.9325C50.956 30.1051 50.7136 30.2462 50.6407 30.2462C50.5678 30.2462 50.4121 30.3292 50.2946 30.4306C50.0728 30.6221 49.3125 31.0928 48.4768 31.5559C48.21 31.7037 47.8381 31.9639 47.6503 32.1341C47.3123 32.4403 46.6672 32.8391 45.777 33.292C45.1345 33.6189 44.087 34.2366 43.5549 34.6023C43.3081 34.7719 42.8388 35.0842 42.512 35.2962C42.1852 35.5082 41.4684 36.0286 40.9192 36.4527C40.3699 36.8767 39.7809 37.3212 39.6103 37.4405C39.4396 37.5597 39.0774 37.8372 38.8054 38.0573C38.5333 38.2773 38.2512 38.4995 38.1786 38.5512C38.0647 38.6321 38.0638 38.6456 38.1716 38.6487C38.2405 38.6505 38.3521 38.6845 38.4195 38.7239C38.5178 38.7813 38.4602 38.8651 38.1269 39.1493C37.8987 39.344 37.5427 39.5945 37.3358 39.7061C37.129 39.8176 36.8657 39.9831 36.7508 40.0738C36.08 40.6032 35.3397 40.8991 35.1154 40.7273C35.0495 40.6769 34.9957 40.5024 34.9957 40.3387C34.9957 40.09 35.0345 40.0233 35.2347 39.9278C35.4245 39.8372 36.7882 38.7715 37.8306 37.8991C37.9198 37.8245 38.114 37.6767 38.2621 37.5706C38.4103 37.4646 38.648 37.2873 38.7903 37.1766C38.9326 37.0658 39.1619 36.9209 39.2998 36.8545C39.4377 36.7881 39.6442 36.6272 39.7586 36.4969C39.873 36.3666 40.0066 36.26 40.0556 36.26C40.1045 36.26 40.2742 36.1356 40.4326 35.9835C40.591 35.8315 41.0027 35.5211 41.3474 35.2937C41.6921 35.0664 42.1246 34.7508 42.3085 34.5924C42.4924 34.434 42.9556 34.1112 43.3378 33.8751C43.958 33.4921 44.2937 33.2974 45.2749 32.752C45.4275 32.6671 45.6155 32.5457 45.6928 32.4821C45.8871 32.3222 46.1161 32.1879 46.3568 32.0928C46.4689 32.0485 46.7166 31.8796 46.9072 31.7175C47.0979 31.5555 47.3634 31.3605 47.4973 31.2843C48.0707 30.9582 48.6628 30.581 48.8543 30.4198C48.9677 30.3245 49.2524 30.1255 49.4871 29.9777C49.7218 29.83 50.0642 29.6046 50.2481 29.477C50.4319 29.3494 50.8644 29.0711 51.2092 28.8585C51.5539 28.6459 51.9452 28.3941 52.0788 28.299C52.2124 28.2039 52.4448 28.0567 52.5954 27.9719C52.9555 27.769 54.2972 26.8684 54.5104 26.6864C54.7698 26.465 55.4852 26.0148 55.7717 25.8927C56.0081 25.792 56.2856 25.6049 57.0385 25.0385C57.1879 24.9261 57.3098 24.7769 57.3094 24.7068C57.3085 24.5383 56.8272 24.0762 56.4657 23.8967L56.1776 23.7536L55.7409 23.9911C55.5008 24.1217 55.3043 24.2061 55.3043 24.1786C55.3043 24.1511 55.2197 24.1964 55.1163 24.2792C54.7266 24.5914 54.1331 24.9331 54.019 24.9109C53.9539 24.8982 53.7171 25.044 53.4928 25.2348C52.8373 25.7927 52.7471 25.8546 52.5369 25.8908C52.4272 25.9097 52.2856 25.9957 52.2222 26.0819C52.0318 26.3409 50.5447 27.4128 50.0809 27.6252C49.7436 27.7798 49.0521 28.2205 48.7437 28.4774C48.6058 28.5923 48.3932 28.7337 48.2712 28.7917C48.1491 28.8496 47.8671 29.0458 47.6443 29.2276C47.217 29.5764 46.0464 30.427 45.6933 30.6453C45.5784 30.7163 45.2399 30.9841 44.9411 31.2404C44.6423 31.4967 44.3492 31.7075 44.2898 31.7088C44.2304 31.7106 44.0047 31.8599 43.7884 32.0418C43.572 32.2237 43.2257 32.4727 43.0189 32.5951C42.5889 32.8496 41.6537 33.5505 41.612 33.6495C41.5967 33.6859 41.55 33.7157 41.5083 33.7157C41.4185 33.7157 40.7146 34.1976 40.4564 34.4357C40.3571 34.5274 39.9058 34.9139 39.4535 35.2947C39.0013 35.6755 38.122 36.4561 37.4996 37.0294C36.1437 38.2782 35.7029 38.65 35.5778 38.65C35.5262 38.65 35.3239 38.7977 35.1283 38.9782C34.9327 39.1586 34.6495 39.3928 34.4991 39.4986C34.3486 39.6043 33.9865 39.8741 33.6944 40.098C33.4023 40.322 33.0126 40.5542 32.8285 40.6142L32.4938 40.7231L32.411 40.4466C32.3322 40.1834 32.3452 40.1544 32.68 39.8441C32.8734 39.6648 33.1499 39.4625 33.2945 39.3947C33.439 39.3268 33.6711 39.1662 33.8104 39.0378C33.9496 38.9093 34.0994 38.8042 34.1433 38.8042C34.1871 38.8042 34.2747 38.7467 34.3378 38.6766C34.4008 38.6064 34.6969 38.3682 34.9957 38.1473C35.2945 37.9263 35.9264 37.4027 36.4 36.9835C36.8736 36.5643 37.6257 35.9175 38.0715 35.546C38.5172 35.1745 39.1668 34.6281 39.5151 34.3317C39.8633 34.0353 40.1922 33.7928 40.2461 33.7928C40.2999 33.7928 40.4897 33.6714 40.6678 33.5229C40.8458 33.3745 41.0246 33.2527 41.065 33.2523C41.1053 33.2518 41.2694 33.1271 41.4295 32.9751C41.5897 32.8231 41.8341 32.6452 41.9728 32.5797C42.1114 32.5142 42.4317 32.2971 42.6846 32.0973C42.9374 31.8974 43.1912 31.749 43.2487 31.7675C43.3061 31.7859 43.3531 31.7508 43.3531 31.6893C43.3531 31.6278 43.5882 31.4346 43.8755 31.2598C44.1628 31.085 44.5671 30.7912 44.7739 30.6069C45.3945 30.0538 46.902 29.0126 47.0823 29.0126C47.113 29.0126 47.2174 28.9419 47.3141 28.8553C47.6146 28.5867 48.7129 27.7511 49.3947 27.2724C49.7528 27.021 50.1853 26.7174 50.3558 26.5977C50.5264 26.478 50.6942 26.3335 50.7288 26.2765C50.7634 26.2196 50.9728 26.0702 51.1941 25.9446C51.4154 25.819 51.7067 25.6214 51.8415 25.5056C52.2944 25.1167 53.3076 24.3867 53.3946 24.3867C53.442 24.3867 53.6748 24.2378 53.912 24.0557C54.1491 23.8736 54.4842 23.6576 54.6566 23.5756C54.8289 23.4935 54.97 23.3882 54.97 23.3413C54.97 23.2492 54.5342 23.1315 53.5492 22.9577C52.5828 22.7872 52.4749 22.7584 52.3715 22.6435C52.3185 22.5845 52.1694 22.5363 52.0401 22.5363C51.9108 22.5363 51.7036 22.5007 51.5796 22.4573C51.3581 22.3796 51.3569 22.3755 51.5096 22.2198C51.6723 22.0539 51.7708 22.0546 52.4209 22.2268C52.6048 22.2754 53.2629 22.3463 53.8835 22.3844C55.0468 22.4558 56.1915 22.6119 56.5578 22.7491C56.6728 22.7921 56.8384 22.9007 56.926 22.9904C57.0136 23.08 57.1306 23.1534 57.186 23.1534C57.2415 23.1534 57.6367 23.509 58.0643 23.9437C58.4918 24.3783 58.9013 24.7861 58.9743 24.8498C59.0472 24.9136 59.2165 25.1044 59.3505 25.2739C59.4845 25.4433 59.7057 25.686 59.8421 25.8132C60.1507 26.1008 60.6422 26.7793 61.095 27.5429C61.2853 27.8637 61.527 28.2439 61.632 28.3876C61.7371 28.5313 61.823 28.7505 61.823 28.8745C61.823 28.9986 61.8655 29.1734 61.9174 29.2628C62.0367 29.4685 62.0233 31.5031 61.8993 32.0055C61.8503 32.2042 61.7933 32.5922 61.7727 32.8678C61.752 33.1435 61.7122 33.421 61.6843 33.4846C61.6563 33.5482 61.6038 33.7391 61.5674 33.9087C61.3712 34.8248 61.1159 35.3355 60.5985 35.847C60.39 36.0531 60.0681 36.4038 59.883 36.6264C59.6979 36.849 59.5139 37.0312 59.4741 37.0312C59.4342 37.0312 59.3494 37.1439 59.2855 37.2817C59.1487 37.577 58.3254 38.3692 57.9881 38.5301C57.8587 38.5918 57.6901 38.7306 57.6135 38.8385C57.5369 38.9463 57.2774 39.126 57.0369 39.2377C56.7964 39.3494 56.5696 39.4884 56.5328 39.5467C56.4961 39.6049 56.4078 39.6525 56.3368 39.6525C56.2658 39.6525 56.1078 39.7152 55.9858 39.7916C55.8637 39.8681 55.5947 39.9972 55.3878 40.0785C55.181 40.1599 54.9817 40.2707 54.9449 40.3249C54.9082 40.3792 54.8324 40.4235 54.7767 40.4235C54.7208 40.4235 54.4877 40.5396 54.2585 40.6815C54.0293 40.8234 53.6349 40.9999 53.3821 41.0738C52.8563 41.2276 51.7394 41.626 51.5237 41.7368C51.4438 41.7778 51.2862 41.8113 51.1734 41.8113C51.0606 41.8113 50.945 41.846 50.9166 41.8884C50.8882 41.9308 50.7373 41.9654 50.5813 41.9654C50.4253 41.9654 50.2113 41.9968 50.1057 42.0351C49.9246 42.1009 49.6167 42.161 48.5347 42.3415C48.2819 42.3837 47.9058 42.4575 47.699 42.5056C47.4921 42.5536 47.1349 42.6215 46.905 42.6564C46.6752 42.6913 46.2662 42.7571 45.9961 42.8027C45.7261 42.8483 44.7671 42.9062 43.865 42.9313C42.9629 42.9564 42.1497 42.9864 42.0577 42.9977C41.9658 43.0091 41.4397 42.9764 40.8881 42.925ZM12.3972 36.3179C12.5863 35.9739 16.1062 32.778 16.7769 32.3416C17.0757 32.1472 17.3953 31.9237 17.4873 31.8451C17.5792 31.7665 17.8237 31.5813 18.0305 31.4337C18.3768 31.1866 18.7503 30.8918 19.2841 30.4445C19.5462 30.2249 20.8429 29.3773 21.1228 29.2427C21.2377 29.1875 21.5415 28.9743 21.7978 28.7691C22.0542 28.5639 22.301 28.396 22.3463 28.396C22.3917 28.396 22.5391 28.2895 22.6741 28.1593C22.8091 28.0291 23.0512 27.8492 23.2121 27.7595C23.373 27.6698 23.7196 27.4381 23.9822 27.2445C24.6578 26.7467 25.4601 26.1829 25.8029 25.965C26.8877 25.2755 27.6717 24.7273 27.7051 24.6349C27.7245 24.5813 27.6649 24.541 27.5661 24.541C27.3844 24.541 26.8792 24.4426 26.179 24.2708C25.9492 24.2144 25.6295 24.1437 25.4686 24.1137C25.1814 24.0602 25.1788 24.0619 25.3247 24.2122C25.5192 24.4125 25.4172 24.6719 25.0381 24.9415C24.8842 25.0509 24.5639 25.3091 24.3265 25.5154C23.7589 26.0081 23.3185 26.3452 23.1903 26.3849C23.1333 26.4026 22.7951 26.6541 22.4385 26.9439C22.082 27.2337 21.7544 27.4708 21.7105 27.4708C21.6666 27.4708 21.4287 27.6226 21.1818 27.8081C20.9348 27.9937 20.6472 28.1877 20.5425 28.2394C20.3517 28.3337 19.7895 28.7844 19.3542 29.1921C19.2263 29.312 19.0837 29.3884 19.0374 29.362C18.9253 29.2981 18.6308 29.4475 18.323 29.7243C18.1851 29.8483 17.8192 30.1054 17.5098 30.2957C17.2004 30.486 16.9246 30.6756 16.8969 30.717C16.8691 30.7584 16.7085 30.8744 16.54 30.9749C16.3715 31.0753 16.0497 31.3158 15.8248 31.5092C15.6 31.7027 15.3886 31.8454 15.3552 31.8264C15.3217 31.8073 15.0923 31.9818 14.8454 32.2141C14.5984 32.4464 14.3728 32.6364 14.344 32.6364C14.2999 32.6364 14.0192 32.8652 13.3834 33.4196C12.9733 33.7771 11.9481 34.9146 11.9855 34.9705C12.0831 35.1161 11.655 35.412 11.3468 35.412C11.0764 35.412 11.0325 35.3829 10.938 35.1419C10.8429 34.8995 10.8504 34.8481 11.0105 34.6407C11.1086 34.5137 11.2145 34.4089 11.2458 34.4079C11.3664 34.4044 11.9296 33.8794 11.9296 33.7708C11.9296 33.7079 12.0142 33.6037 12.1176 33.5393C12.2211 33.475 12.5689 33.1942 12.8907 32.9155C13.2125 32.6368 13.5227 32.408 13.5802 32.407C13.6377 32.4061 13.6847 32.3729 13.6847 32.3335C13.6847 32.2561 13.7425 32.199 14.2371 31.7882C14.7879 31.3308 15.4679 30.8245 15.5314 30.8245C15.5646 30.8245 15.7749 30.6484 15.9987 30.433C16.2226 30.2177 16.5926 29.9412 16.8211 29.8186C17.0496 29.696 17.4323 29.4496 17.6715 29.271C17.9107 29.0924 18.2868 28.8518 18.5073 28.7365C18.7277 28.6211 19.0021 28.4448 19.117 28.3447C19.5367 27.9792 20.5522 27.2356 20.9781 26.9818C21.2186 26.8385 21.5202 26.6301 21.6484 26.5187C21.7766 26.4072 21.969 26.2723 22.076 26.2188C22.2694 26.122 23.1935 25.3815 23.8088 24.8301C23.9863 24.6711 24.162 24.541 24.1993 24.541C24.2366 24.541 24.3506 24.4369 24.4525 24.3097C24.5545 24.1825 24.6932 24.0784 24.7608 24.0784C24.9322 24.0784 24.9147 23.9284 24.7373 23.877C24.6569 23.8538 24.4407 23.7734 24.2568 23.6984C24.0729 23.6235 23.6592 23.5177 23.3375 23.4633C23.0157 23.4089 22.7134 23.3361 22.6656 23.3014C22.6178 23.2668 22.4298 23.2056 22.2477 23.1656C21.6085 23.025 20.9919 22.8525 20.4124 22.6524C19.8307 22.4515 19.3417 22.3314 18.7827 22.2519C18.6218 22.2291 18.4276 22.1596 18.351 22.0976C18.1398 21.9263 16.8809 21.3793 16.5814 21.3287C16.4361 21.3041 16.242 21.243 16.1501 21.1927C16.0582 21.1425 15.8137 21.056 15.6069 21.0006C14.5552 20.7189 13.7682 20.1387 13.7682 19.6452V19.3806L13.3855 19.6189C13.175 19.7499 12.9826 19.9059 12.9578 19.9655C12.933 20.0251 12.8513 20.0564 12.7763 20.0351C12.6906 20.0108 12.5778 20.078 12.4728 20.2158C12.309 20.4309 11.5704 20.9932 11.4483 20.9958C11.4142 20.9964 11.2923 21.0885 11.1774 21.2003C11.0625 21.312 10.7616 21.5419 10.5088 21.7111C10.256 21.8803 9.95027 22.1031 9.82941 22.206C9.70854 22.309 9.55811 22.3832 9.49511 22.3709C9.43214 22.3585 9.26493 22.4515 9.1236 22.5774C8.61502 23.0304 7.98356 23.5007 7.84766 23.5276C7.77141 23.5428 7.55375 23.6989 7.36389 23.8746C7.17403 24.0503 6.78317 24.3502 6.4953 24.541C6.20743 24.7318 5.81528 25.0267 5.62386 25.1963C3.96911 26.6626 3.40426 27.2124 3.17826 27.577C3.12253 27.667 3.09686 27.8451 3.12114 27.9729C3.15835 28.168 3.12288 28.2342 2.89935 28.3866C2.60291 28.5888 2.00778 28.6311 1.88908 28.4584C1.76885 28.2835 1.81056 28 1.99902 27.7111C2.46287 27.0001 4.30883 25.1729 5.15151 24.5908C5.40599 24.415 5.67536 24.2191 5.75011 24.1555C6.10642 23.8523 6.66914 23.4238 7.12404 23.1094C7.39983 22.9187 7.81631 22.6086 8.04953 22.4202C8.28276 22.2318 8.71785 21.912 9.01639 21.7095C9.31494 21.507 9.66943 21.2642 9.80417 21.1699C9.9389 21.0756 10.2748 20.8539 10.5506 20.6771C10.9562 20.4172 11.9981 19.6336 12.1803 19.4515C12.336 19.2958 13.7762 18.1418 13.8148 18.1418C13.8411 18.1418 13.9355 18.1777 14.0244 18.2216C14.1523 18.2847 14.1861 18.2761 14.1861 18.1806C14.1861 18.1142 14.2425 18.0399 14.3114 18.0155C14.3803 17.9911 14.4368 17.904 14.4368 17.822C14.4368 17.7399 14.5149 17.4498 14.6104 17.1772C14.7058 16.9046 14.7611 16.6152 14.7332 16.5342C14.7009 16.4401 14.7289 16.3704 14.8104 16.3415C14.89 16.3133 14.9372 16.201 14.9356 16.0433C14.9329 15.8164 14.9214 15.8042 14.8219 15.9252C14.7608 15.9994 14.6672 16.0601 14.6138 16.0601C14.5604 16.0601 14.4763 16.1382 14.4267 16.2336C14.3772 16.329 13.9236 16.7193 13.4187 17.101C12.9138 17.4826 12.3163 17.9408 12.0911 18.1192C11.8658 18.2975 11.5962 18.4851 11.4921 18.5359C11.3879 18.5867 11.1147 18.7721 10.8849 18.9479C10.655 19.1237 10.3636 19.3084 10.2372 19.3583C10.1107 19.4083 10.0073 19.4846 10.0073 19.5279C10.0073 19.5712 9.96033 19.6067 9.90286 19.6067C9.84539 19.6068 9.68557 19.6968 9.54768 19.8067C9.40978 19.9167 9.18412 20.0602 9.04622 20.1255C8.90833 20.191 8.65991 20.3525 8.49419 20.4845C7.81482 21.0258 6.03346 22.2457 5.80355 22.327C5.72538 22.3547 5.66146 22.408 5.66146 22.4455C5.66146 22.483 5.34444 22.7302 4.95696 22.995C4.56949 23.2597 4.23219 23.525 4.20741 23.5846C4.18261 23.6441 4.0733 23.6929 3.96444 23.6929C3.84273 23.6929 3.60545 23.8339 3.34827 24.0591C3.11824 24.2605 2.79363 24.5258 2.62693 24.6487C2.46023 24.7715 2.34224 24.8995 2.36475 24.9331C2.38728 24.9667 2.38187 25.1317 2.35269 25.2998C2.29644 25.6245 2.30518 25.6199 1.50701 25.7477L1.23875 25.7907L1.21447 26.3801C1.18835 27.0154 1.47392 28.2888 1.6752 28.4344C1.73381 28.4768 1.79077 28.6298 1.80175 28.7744C1.81276 28.9191 1.87294 29.0752 1.9355 29.1214C1.99813 29.1676 2.0938 29.335 2.14819 29.4934C2.2026 29.6519 2.28194 29.8014 2.32456 29.8257C2.36718 29.85 2.40203 29.9248 2.40203 29.9919C2.40203 30.0591 2.56527 30.2912 2.76476 30.5078C2.96426 30.7244 3.25572 31.118 3.41246 31.3825C3.5872 31.6775 3.7521 31.8638 3.83876 31.8644C3.91649 31.8648 4.00333 31.9 4.03174 31.9424C4.06013 31.9849 4.04353 32.0195 3.99488 32.0195C3.80655 32.0195 3.91985 32.2394 4.19831 32.4143C4.35888 32.5152 4.49051 32.6391 4.49082 32.6897C4.49114 32.7404 4.59482 32.8384 4.72122 32.9077C4.84763 32.977 5.10149 33.2192 5.28535 33.4459C5.64097 33.8844 5.65827 33.8929 8.62833 35.0801C10.6622 35.8931 11.2424 36.137 11.6284 36.3412C11.863 36.4653 12.1009 36.5672 12.1572 36.5676C12.2135 36.568 12.3215 36.4557 12.3972 36.3179ZM9.17849 33.3421C8.99433 33.0247 9.0782 32.8495 9.69396 32.2655C10.5026 31.4985 10.7595 31.2429 10.7595 31.2057C10.7595 31.1576 11.5046 30.5346 11.7685 30.362C11.8982 30.2772 12.0437 30.1284 12.092 30.0313C12.2333 29.747 12.9418 29.0899 13.107 29.0899C13.1913 29.0899 13.3676 28.9443 13.5038 28.7622C13.6385 28.582 13.913 28.3149 14.1137 28.1687C14.3144 28.0225 14.5087 27.8577 14.5454 27.8025C14.5822 27.7473 14.6515 27.7021 14.6994 27.7021C14.7474 27.7021 14.9617 27.5787 15.1758 27.4278C15.9457 26.8854 16.9729 26.1972 17.1241 26.1226C17.2089 26.0807 17.2783 26.0026 17.2783 25.9491C17.2783 25.8956 17.3289 25.8517 17.3907 25.8517C17.4526 25.8517 17.5748 25.7782 17.6624 25.6883C17.7499 25.5985 18.0848 25.3695 18.4066 25.1795C19.0504 24.7995 19.063 24.791 20.0376 24.0917C20.916 23.4614 21.1464 23.3828 21.4202 23.6202C21.7465 23.9029 21.6795 24.0306 20.9765 24.4668C20.6203 24.6879 20.1596 25.0168 19.9527 25.1978C19.7459 25.3787 19.445 25.5876 19.2841 25.662C19.1232 25.7364 18.8036 25.9437 18.5737 26.1227C18.3439 26.3016 18.0584 26.496 17.9394 26.5546C17.6828 26.681 16.8588 27.224 16.2273 27.6828C15.9793 27.863 15.7594 28.0105 15.7386 28.0105C15.7179 28.0105 15.5951 28.0994 15.4658 28.2081C14.9606 28.633 14.3442 29.0899 14.2764 29.0899C14.188 29.0899 13.4396 29.7767 12.5564 30.6683C12.1886 31.0395 11.7432 31.4694 11.5664 31.6236C11.2331 31.9143 10.4939 32.6182 9.99953 33.1156C9.64541 33.4719 9.30779 33.565 9.17849 33.3421ZM6.16937 32.2187C5.9413 31.9947 5.97973 31.7137 6.29284 31.316C6.60669 30.9172 7.93528 29.7067 8.05904 29.7067C8.1194 29.7067 8.16873 29.6591 8.16873 29.601C8.16873 29.4948 9.22984 28.5502 9.34911 28.5502C9.38423 28.5502 9.61246 28.3546 9.85637 28.1156C10.5125 27.4726 12.2704 26.2372 12.5291 26.2372C12.5649 26.2372 12.9682 25.951 13.4254 25.6011C13.8827 25.2513 14.4759 24.8271 14.7438 24.6584C15.242 24.3446 16.6483 23.0912 17.0577 22.596C17.3072 22.2943 17.6127 22.1814 17.8555 22.3013C18.0717 22.4081 18.1492 22.7454 18.0042 22.9494C17.7881 23.2536 16.4152 24.541 16.307 24.541C16.2482 24.541 16.1701 24.5878 16.1333 24.6449C16.0966 24.702 15.8896 24.8722 15.6733 25.0232C15.4571 25.1742 15.1562 25.4048 15.0047 25.5358C14.8532 25.6668 14.6953 25.7741 14.6536 25.7743C14.612 25.7745 14.4547 25.8614 14.304 25.9674C14.1534 26.0734 13.9913 26.1601 13.9439 26.1601C13.8964 26.1601 13.8173 26.2297 13.768 26.3147C13.7187 26.3997 13.4635 26.574 13.2009 26.702C12.5968 26.9965 11.9277 27.4418 11.4787 27.8483C11.2865 28.0223 11.1027 28.1647 11.0702 28.1647C11.0377 28.1647 10.7947 28.3652 10.5302 28.6102C10.2656 28.8552 9.89872 29.1499 9.71485 29.2649C9.29165 29.5297 7.75085 30.898 7.75085 31.009C7.75085 31.0548 7.59743 31.1859 7.40991 31.3004C7.06995 31.5079 7.06947 31.5089 7.24826 31.6333C7.4219 31.7542 7.42303 31.7654 7.28399 31.9889C7.01765 32.4171 6.4835 32.5271 6.16937 32.2187ZM4.35578 30.0904C4.21169 29.9574 4.32338 29.6043 4.62402 29.242C4.78144 29.0523 5.07553 28.668 5.27754 28.3879C5.47956 28.1078 5.705 27.8574 5.77853 27.8314C5.85208 27.8053 5.91222 27.7194 5.91222 27.6404C5.91222 27.553 6.07357 27.4003 6.32421 27.2505C6.55081 27.115 7.01151 26.7536 7.34799 26.4473C7.68448 26.1409 8.16447 25.7341 8.41465 25.5433C8.66482 25.3525 8.94688 25.115 9.04146 25.0156C9.13602 24.9161 9.32624 24.7813 9.46413 24.7159C9.60203 24.6506 9.84941 24.4891 10.0139 24.3571C10.1783 24.225 10.6238 23.9117 11.0039 23.6608C11.3839 23.4099 11.7383 23.1647 11.7913 23.1158C11.8444 23.067 12.057 22.906 12.2639 22.7581C13.0494 22.1962 13.461 21.8394 13.7091 21.5054C13.8513 21.314 13.8692 21.3099 14.059 21.4246C14.3261 21.586 14.4034 21.9315 14.2279 22.1786C14.0574 22.4187 12.6377 23.5387 12.5039 23.5387C12.4496 23.5387 12.2657 23.6689 12.0952 23.8279C11.5248 24.36 10.3986 25.158 9.9258 25.365C9.85794 25.3947 9.52846 25.6608 9.19357 25.9564C8.85868 26.2519 8.50438 26.5457 8.40624 26.6091C8.3081 26.6725 8.09642 26.8585 7.93584 27.0225C7.77526 27.1865 7.53627 27.3792 7.40475 27.4509C7.27323 27.5226 7.14495 27.6413 7.11967 27.7148C7.09443 27.7883 7.00463 27.8686 6.92018 27.8933C6.83572 27.9181 6.67297 28.0673 6.55848 28.225C6.44399 28.3826 6.10131 28.7712 5.79697 29.0884C5.49263 29.4056 5.24363 29.7212 5.24363 29.7896C5.24363 30.083 4.58837 30.3049 4.35578 30.0904ZM41.891 29.7428C42.0582 29.6164 42.0978 29.5531 42.01 29.5529C41.9376 29.5526 41.79 29.6392 41.682 29.7452C41.431 29.9917 41.5639 29.9904 41.891 29.7428ZM42.8939 25.139C42.9858 25.1355 43.2867 25.1407 43.5625 25.1503C43.8383 25.16 44.5716 25.1486 45.1922 25.1253C45.8127 25.1019 46.729 25.0684 47.2283 25.0509C47.7276 25.0334 48.3585 24.9736 48.6302 24.9179L49.1243 24.8168L49.105 24.3898C49.0943 24.155 49.1171 23.5936 49.1555 23.1424C49.2207 22.3761 49.2149 22.3189 49.0683 22.2762C48.9819 22.2511 48.0838 22.245 47.0726 22.2628C46.0613 22.2804 44.7074 22.2627 44.0639 22.2232C43.4204 22.1838 42.6215 22.1363 42.2886 22.1176C41.9557 22.099 41.647 22.0631 41.6025 22.0378C41.5244 21.9933 40.833 21.8917 39.9688 21.7979C39.739 21.7729 39.2124 21.7421 38.7987 21.7293C38.0132 21.7052 37.1467 21.5794 36.8986 21.4537C36.8187 21.4132 36.5925 21.3801 36.3959 21.3801C36.1992 21.3801 35.9068 21.3151 35.7461 21.2356C35.5853 21.1561 35.2098 21.067 34.9116 21.0376C34.6133 21.0081 34.2189 20.9205 34.035 20.8429C33.5142 20.6229 33.1807 20.5487 32.2803 20.4523C31.8208 20.4032 31.3814 20.3316 31.3038 20.2933C31.2262 20.255 31.0329 20.2236 30.8743 20.2236C30.6176 20.2236 30.3017 20.155 29.4325 19.9104C29.2913 19.8707 29.0191 19.8381 28.8275 19.8381C28.6359 19.8381 28.2812 19.7666 28.0394 19.6791C27.7976 19.5916 27.4117 19.4902 27.1819 19.4538C26.9521 19.4174 26.6324 19.3524 26.4715 19.3093C26.3106 19.2662 25.8781 19.1583 25.5104 19.0695C25.1427 18.9807 24.7666 18.8776 24.6747 18.8404C24.4278 18.7406 23.3704 18.527 23.1244 18.5272C23.0071 18.5274 22.8673 18.4868 22.8135 18.4373C22.7598 18.3877 22.4447 18.2836 22.1134 18.206C21.7821 18.1284 21.2047 17.9608 20.8303 17.8336C20.4559 17.7064 20.1017 17.6023 20.0431 17.6023C19.9846 17.6023 19.8369 17.5381 19.7149 17.4598C19.5929 17.3814 19.4178 17.2974 19.3259 17.2731C19.234 17.2488 18.8579 17.1185 18.4902 16.9836C17.1067 16.4763 16.3113 16.2065 16.1292 16.1829C15.9636 16.1615 15.9411 16.1923 15.9411 16.441C15.9411 16.5963 15.9096 16.7563 15.8711 16.7966C15.7807 16.8911 15.4934 17.6561 15.308 18.2961C15.2282 18.5718 15.1247 18.8426 15.0782 18.898C15.0316 18.9534 14.9808 19.1057 14.9653 19.2364C14.9423 19.4308 14.9941 19.5202 15.2511 19.7287C15.5574 19.9773 16.5066 20.3202 16.9384 20.3383C17.0503 20.3427 17.1568 20.3885 17.1752 20.4394C17.1937 20.4903 17.2603 20.532 17.3234 20.532C17.3864 20.532 17.578 20.6196 17.7491 20.7267C17.9201 20.8338 18.1568 20.9397 18.2751 20.9621C18.3934 20.9844 18.6406 21.067 18.8245 21.1457C19.3741 21.3808 19.8005 21.5144 20.2994 21.6077C20.559 21.6563 20.9727 21.7666 21.2187 21.853C21.4647 21.9393 21.7412 22.0272 21.8331 22.0484C21.9251 22.0695 22.0755 22.1163 22.1674 22.1523C22.2594 22.1882 22.4474 22.2358 22.5853 22.258C22.7232 22.2802 23.0241 22.3361 23.2539 22.3824C23.4837 22.4286 23.7846 22.4874 23.9225 22.5131C24.0603 22.5387 24.2108 22.602 24.2568 22.6538C24.3311 22.7374 24.7854 22.8747 25.2597 22.957C25.3516 22.9729 25.6901 23.0624 26.0119 23.1558C26.3336 23.2491 26.7849 23.3544 27.0148 23.3896C27.2446 23.4249 27.9215 23.545 28.5191 23.6567C29.1166 23.7684 29.7932 23.8908 30.0225 23.9288C30.2518 23.9669 30.5338 24.0299 30.6493 24.069C30.7647 24.108 31.1412 24.1817 31.486 24.2328C31.8307 24.2838 32.2068 24.3528 32.3217 24.3862C32.4366 24.4195 32.6891 24.4488 32.8829 24.4513C33.0766 24.4539 33.3069 24.4912 33.3948 24.5345C33.4827 24.5779 33.7943 24.6188 34.0873 24.6253C34.3803 24.6315 34.7328 24.6823 34.8707 24.7374C35.0913 24.8254 36.6872 24.9849 39.0495 25.155C39.642 25.1977 41.5147 25.1898 42.8939 25.139ZM2.11249 24.2327C2.17984 24.2327 2.23494 24.1774 2.23494 24.1098C2.23494 24.0423 2.30124 23.9709 2.38229 23.9514C2.46335 23.9318 2.59322 23.8136 2.67093 23.6887C2.74858 23.5638 2.87325 23.4617 2.94787 23.4617C3.02246 23.4617 3.19184 23.3618 3.32419 23.2397C3.45654 23.1176 3.73954 22.9232 3.95308 22.8078C4.16661 22.6923 4.40735 22.5407 4.48803 22.4708C4.56874 22.4009 4.81128 22.2223 5.02708 22.0739C5.24287 21.9255 5.53971 21.7067 5.68672 21.5876C5.83373 21.4686 6.04908 21.3531 6.16528 21.3308C6.28148 21.3086 6.4375 21.1925 6.512 21.0728C6.5865 20.953 6.84871 20.7341 7.09469 20.5864C7.57324 20.2988 7.76446 20.1668 8.24173 19.7941C8.75453 19.3937 9.54755 18.9128 9.69498 18.9128C9.77201 18.9128 9.81835 18.8695 9.79804 18.8165C9.77769 18.7635 9.91994 18.6256 10.1141 18.5102C10.79 18.1081 11.0544 17.9263 11.4211 17.611C11.6241 17.4365 11.8048 17.2938 11.8226 17.2938C11.8404 17.2938 12.1256 17.107 12.4564 16.8788C13.1661 16.389 13.9099 15.7026 13.8203 15.6199C13.7855 15.5878 13.5004 15.6911 13.1866 15.8495C12.8728 16.0078 12.5566 16.1373 12.484 16.1373C12.4113 16.1373 12.1723 16.2137 11.9527 16.3072C10.6632 16.8561 9.70023 17.2757 8.96268 17.61C8.50302 17.8183 8.06695 17.9885 7.99364 17.9882C7.92035 17.988 7.78873 18.0606 7.70123 18.1498C7.61372 18.239 7.37283 18.4021 7.16593 18.5122C6.95903 18.6223 6.75968 18.7575 6.72292 18.8126C6.68615 18.8677 6.57097 18.9128 6.46694 18.9128C6.3629 18.9128 6.16733 19.0194 6.03232 19.1495C5.89731 19.2797 5.66657 19.4549 5.51956 19.5388C5.37254 19.6228 5.22974 19.7569 5.20222 19.8369C5.17471 19.9168 5.10438 19.9932 5.04595 20.0065C4.92615 20.0338 3.5736 21.3854 3.57271 21.4787C3.5724 21.5118 3.43746 21.648 3.27285 21.7813C3.10824 21.9146 2.84259 22.2126 2.68252 22.4435C2.13188 23.2375 1.51081 24.2716 1.45023 24.4951L1.38953 24.719L1.68977 24.4759C1.85491 24.3421 2.04514 24.2327 2.11249 24.2327ZM46.5302 21.1863C46.6065 21.1015 46.6645 21.0922 46.7425 21.1519C46.813 21.206 47.2885 21.2214 48.1313 21.1968C48.836 21.1762 49.4158 21.157 49.4197 21.1541C49.4232 21.1515 49.4232 20.2554 49.4188 19.1635C49.4136 17.8209 49.3794 17.1276 49.3144 17.0219C49.2614 16.9359 49.2283 16.7451 49.2409 16.5979C49.2534 16.4506 49.2179 16.2434 49.1618 16.1374C49.1057 16.0313 49.0319 15.7017 48.9977 15.4049C48.8918 14.4848 48.8815 14.4175 48.7622 13.8618C48.6405 13.2954 48.4989 12.9763 48.3692 12.9763C48.327 12.9763 48.2033 13.0543 48.0944 13.1498C47.7262 13.4724 47.0121 14.0145 46.1901 14.5954C45.2597 15.253 45.1819 15.3039 43.542 16.3301C43.3006 16.4811 43.1032 16.6388 43.1032 16.6804C43.1032 16.7221 42.926 16.8338 42.7094 16.9286C42.4928 17.0235 42.1073 17.2953 41.8527 17.5327C40.6931 18.6141 39.9264 19.4019 39.9469 19.491C39.9591 19.5444 39.8841 19.6531 39.7801 19.7324C39.5563 19.9031 39.2206 20.6856 39.3704 20.6872C39.547 20.6889 42.2149 20.9875 42.7689 21.0673C43.0677 21.1105 43.7634 21.1498 44.315 21.1548C44.8666 21.1601 45.5248 21.1904 45.7776 21.2226C46.0304 21.2549 46.2796 21.2861 46.3315 21.2921C46.3833 21.2982 46.4725 21.2504 46.5302 21.1863ZM42.664 20.3715C42.5836 20.3283 42.5178 20.2096 42.5178 20.1077C42.5178 19.8803 42.6833 19.5296 42.7906 19.5296C42.8341 19.5296 43.4391 19.0058 44.1353 18.3655C44.8315 17.7253 45.5045 17.1519 45.6309 17.0914C45.7573 17.0309 45.8608 16.9491 45.8608 16.9095C45.8608 16.87 46.0302 16.7461 46.2373 16.6341C46.4444 16.5222 46.6418 16.3846 46.676 16.3284C46.7794 16.1588 47.8492 15.5315 48.201 15.4342C48.4604 15.3625 48.5569 15.364 48.6578 15.4413C48.8191 15.5647 48.8229 15.7434 48.6657 15.7991C48.5996 15.8225 48.522 15.9342 48.4934 16.0472C48.4433 16.2452 47.7329 16.8311 47.543 16.8311C47.4944 16.8311 47.4162 16.8974 47.3692 16.9784C47.3222 17.0594 47.1436 17.2056 46.9723 17.3032C46.801 17.4009 46.596 17.5341 46.5166 17.5992C46.4372 17.6644 46.1823 17.8565 45.95 18.0261C45.7178 18.1957 45.5061 18.3952 45.4797 18.4694C45.4533 18.5436 45.4 18.6043 45.3611 18.6043C45.3222 18.6043 45.0654 18.7778 44.7904 18.9898C44.5153 19.2018 44.2548 19.3753 44.2115 19.3753C44.1212 19.3753 43.9387 19.713 43.9387 19.8801C43.9387 19.9417 43.889 19.9921 43.8282 19.9921C43.7674 19.9921 43.57 20.0952 43.3894 20.2213C43.0382 20.4664 42.8957 20.496 42.664 20.3715ZM46.8657 20.0343C46.7567 19.8465 46.8237 19.6721 47.1325 19.3389C47.2686 19.192 47.783 18.4372 47.783 18.3843C47.783 18.2061 48.2283 17.763 48.4532 17.7175C48.7742 17.6525 48.8978 17.7448 49.0286 18.1477L49.1313 18.4638L48.6452 18.9034C48.3778 19.1452 48.0466 19.4944 47.9091 19.6794C47.694 19.9687 47.2905 20.2235 47.0476 20.2235C47.008 20.2235 46.9261 20.1383 46.8657 20.0343ZM38.6734 20.5677C38.6734 20.5451 38.6167 20.4466 38.5474 20.3491C38.3799 20.1132 38.4676 19.7249 38.7232 19.5704C38.8318 19.5048 38.9798 19.3455 39.0522 19.2164C39.1245 19.0873 39.2392 18.9229 39.3069 18.8509C39.3747 18.7789 39.6345 18.49 39.8843 18.2088C40.4349 17.589 41.4885 16.6748 42.0581 16.3225C42.478 16.0629 42.8568 15.8069 43.3696 15.4364C43.5216 15.3265 44.0934 14.9326 44.6401 14.5611C45.1869 14.1897 45.8262 13.7158 46.0609 13.5082C46.2956 13.3005 46.5112 13.1306 46.54 13.1305C46.5688 13.1305 46.8697 12.9233 47.2086 12.6701C47.5475 12.4169 47.947 12.1186 48.0964 12.0072C48.4018 11.7793 48.445 11.5285 48.2507 11.1092C48.1134 10.8131 47.9681 10.3357 47.9153 10.0079C47.8949 9.88072 47.7995 9.58582 47.7034 9.3526C47.6073 9.11937 47.5148 8.84181 47.4979 8.73581C47.4594 8.49559 47.1901 7.88744 47.1226 7.88851C47.0951 7.88895 46.9151 8.08843 46.7227 8.33182C46.2519 8.92736 45.9885 9.16898 45.2342 9.69705C45.0045 9.85786 44.7695 10.0515 44.7119 10.1273C44.6544 10.2031 44.4662 10.3428 44.2938 10.4378C44.1214 10.5327 43.8675 10.7036 43.7296 10.8175C43.4136 11.0785 42.9108 11.3572 42.7558 11.3572C42.6907 11.3572 42.5716 11.4599 42.4912 11.5855C42.4107 11.7111 42.2561 11.8585 42.1475 11.9132C42.0389 11.9678 41.6923 12.2038 41.3773 12.4376C41.0623 12.6713 40.6353 12.9656 40.4284 13.0914C40.2216 13.2172 39.5702 13.6851 38.9809 14.1312C38.3915 14.5773 37.7798 15.0144 37.6214 15.1027C37.4631 15.1909 37.2871 15.3146 37.2304 15.3777C37.0534 15.5743 36.3045 16.1098 36.0156 16.2463C35.8638 16.318 35.7188 16.4269 35.6932 16.4883C35.6677 16.5497 35.4534 16.7396 35.217 16.9103C34.2691 17.5949 33.4082 18.3653 33.4082 18.529C33.4082 18.7344 33.0305 18.9996 32.6756 19.0436C32.3955 19.0782 32.3234 19.0568 32.2077 18.9044C31.9723 18.5944 32.045 18.4514 32.7605 17.816C33.1397 17.4792 33.5896 17.0798 33.7602 16.9283C33.9308 16.7768 34.0508 16.6235 34.0269 16.5878C34.003 16.552 34.0538 16.5228 34.14 16.5228C34.2261 16.5228 34.4822 16.3497 34.709 16.1382C34.9359 15.9267 35.1591 15.7533 35.205 15.753C35.251 15.7525 35.4202 15.6302 35.5811 15.481C35.742 15.3317 35.9935 15.1321 36.1401 15.0374C36.7282 14.6572 38.0237 13.725 38.2603 13.5116C38.3987 13.3868 38.5436 13.2847 38.5822 13.2847C38.6208 13.2847 38.7981 13.1592 38.9763 13.006C39.1544 12.8527 39.7327 12.466 40.2613 12.1466C40.7899 11.8273 41.2601 11.5277 41.3062 11.4809C41.4588 11.3259 42.3861 10.7007 42.7685 10.4949C42.9754 10.3836 43.2254 10.2062 43.3242 10.1008C43.4229 9.99535 43.7144 9.76237 43.9719 9.58304C44.2293 9.40371 44.44 9.23177 44.44 9.20094C44.44 9.17015 44.5099 9.11355 44.5953 9.07528C44.7977 8.98453 45.7962 7.91892 45.9704 7.6077C46.1288 7.32485 46.613 7.18874 46.8421 7.36273C46.9605 7.45271 46.9696 7.4327 46.9253 7.17857C46.898 7.02175 46.7789 6.76217 46.6607 6.60171C46.5425 6.44125 46.4458 6.24863 46.4458 6.17367C46.4458 5.95737 46.3286 6.01354 46.108 6.33553C45.9957 6.49953 45.8449 6.66433 45.773 6.70176C45.1063 7.04858 43.5225 8.1093 43.0193 8.54607C42.8584 8.6857 42.4972 8.90659 42.2167 9.03693C41.9362 9.16727 41.6165 9.35591 41.5063 9.45612C41.3961 9.55634 41.1411 9.73884 40.9396 9.86168C40.7381 9.98453 40.4185 10.1794 40.2293 10.2948C40.0401 10.4101 39.6972 10.607 39.4674 10.7323C39.0237 10.9742 38.5643 11.2619 38.3919 11.4058C38.3345 11.4537 38.0735 11.5863 37.8119 11.7005C37.5503 11.8147 37.3362 11.9377 37.3362 11.9739C37.3362 12.0101 37.1388 12.1482 36.8975 12.2808C36.6561 12.4134 36.3014 12.6327 36.1091 12.7683C35.6118 13.119 35.3441 13.2879 35.2696 13.2979C35.2342 13.3023 34.9982 13.4779 34.7454 13.6873C34.4926 13.8966 34.1729 14.1216 34.035 14.1873C33.7429 14.3265 32.99 14.895 32.5793 15.2866C32.4221 15.4365 32.2678 15.5591 32.2363 15.5591C32.1181 15.5591 31.7367 16.0501 31.7367 16.2023C31.7367 16.3517 31.4073 16.7541 31.285 16.7541C31.206 16.7541 30.751 17.0539 30.3784 17.3516C29.9997 17.6542 29.6361 17.685 29.4432 17.4308C29.2089 17.1223 29.235 17.0769 30.0627 16.3498C30.2682 16.1693 30.7596 15.7181 31.1547 15.3471C31.5498 14.976 31.9027 14.6725 31.9389 14.6725C32.0076 14.6725 33.4755 13.6646 34.0071 13.2524C34.1757 13.1217 34.4898 12.8934 34.7052 12.745C34.9206 12.5966 35.14 12.4384 35.1928 12.3935C35.2455 12.3485 35.4955 12.2117 35.7483 12.0893C36.0011 11.9669 36.3208 11.7747 36.4587 11.6622C36.5966 11.5496 36.9351 11.3327 37.2109 11.1801C37.4867 11.0276 37.9659 10.7188 38.2758 10.4939C38.5857 10.2691 38.9994 9.9937 39.1951 9.88201C39.3908 9.77033 39.7725 9.54482 40.0433 9.38087C40.3142 9.21693 40.6922 8.99606 40.8834 8.89005C41.215 8.70628 42.3315 7.94114 43.2282 7.28318C43.458 7.11456 43.9658 6.77859 44.3565 6.5366C44.7472 6.2946 45.1609 6.03139 45.2758 5.95168C45.3907 5.872 45.6257 5.73652 45.7981 5.65067C45.9705 5.56477 46.1115 5.46879 46.1115 5.43729C46.1115 5.32502 45.5135 4.56308 45.3915 4.51989C45.3232 4.49566 45.1846 4.54534 45.0835 4.63023C44.9824 4.71508 44.8057 4.82894 44.6908 4.8832C44.5759 4.93743 44.2562 5.161 43.9804 5.37995C43.7046 5.59891 43.3446 5.84894 43.1804 5.93558C43.0162 6.02227 42.5884 6.29743 42.2298 6.54713C41.8712 6.79683 41.4746 7.07051 41.3485 7.15532C41.2224 7.24016 40.9228 7.45698 40.6828 7.6372C40.4427 7.81742 40.2143 7.96486 40.1751 7.96486C40.136 7.96486 39.8855 8.1417 39.6185 8.35783C39.3515 8.57397 39.0014 8.81316 38.8406 8.88937C38.6797 8.96555 38.4043 9.15303 38.2287 9.30593C38.053 9.45884 37.87 9.58393 37.8219 9.58393C37.7737 9.58393 37.6102 9.67934 37.4585 9.79595C36.8154 10.2902 34.5532 11.8198 34.4653 11.8198C34.4214 11.8198 34.1882 11.9846 33.9471 12.186C33.457 12.5954 33.1085 12.8361 32.3427 13.2937C32.0554 13.4654 31.8203 13.655 31.8203 13.7151C31.8203 13.7752 31.7921 13.8252 31.7576 13.8263C31.7231 13.8271 31.489 14.0008 31.2372 14.2118C30.9855 14.4227 30.754 14.5953 30.7229 14.5953C30.6514 14.5953 29.0638 15.7274 28.8952 15.8986C28.8263 15.9686 28.5557 16.1579 28.294 16.3193C28.0323 16.4806 27.7201 16.6965 27.6002 16.799C27.3253 17.0341 27.3041 17.0327 27.0223 16.7613C26.6827 16.4343 26.8125 16.1016 27.3853 15.831C27.6699 15.6965 29.1421 14.7145 29.2295 14.6008C29.2525 14.5709 29.4875 14.3972 29.7518 14.2147C30.0161 14.0322 30.2324 13.8524 30.2324 13.8151C30.2324 13.7778 30.2753 13.7472 30.3277 13.7472C30.3801 13.7472 30.5776 13.6237 30.7665 13.4728C30.9554 13.3219 31.3696 13.0409 31.687 12.8483C32.0044 12.6558 32.5579 12.2741 32.9169 12.0001C33.2759 11.7261 33.86 11.3218 34.2149 11.1018C34.5697 10.8818 34.9415 10.6498 35.041 10.5861C35.1405 10.5226 35.331 10.4026 35.4642 10.3197C35.5975 10.2368 35.8224 10.0806 35.964 9.97274C36.1056 9.86488 36.5889 9.53376 37.038 9.23692C37.487 8.9401 37.9352 8.62347 38.0341 8.53333C38.1329 8.44319 38.4018 8.25179 38.6316 8.10799C39.2173 7.74156 39.9154 7.25997 40.3658 6.91173C40.5765 6.74884 41.0383 6.42475 41.392 6.19153C41.7457 5.9583 42.1719 5.65946 42.3391 5.52742C42.5064 5.39538 42.7654 5.22969 42.9148 5.15921C43.0642 5.08871 43.1864 5.00304 43.1864 4.96877C43.1864 4.93448 43.401 4.77059 43.6632 4.60454C43.9255 4.43847 44.2446 4.22186 44.3724 4.12319C44.5928 3.95303 44.5985 3.93261 44.4833 3.7271C44.4075 3.59179 44.2197 3.45649 43.9834 3.36681C43.7752 3.28783 43.6048 3.20416 43.6046 3.18088C43.6044 3.15761 43.4632 3.15368 43.2909 3.17213C42.9715 3.20651 41.5149 3.91811 41.5149 4.03974C41.5149 4.07648 41.3551 4.1813 41.1597 4.27262C40.9644 4.36393 40.6675 4.53811 40.5 4.65969C40.3325 4.78126 40.1445 4.88304 40.0821 4.88588C40.0198 4.8885 39.7431 5.04598 39.4673 5.23535C39.1915 5.42471 38.8343 5.63975 38.6734 5.71321C38.5125 5.78669 38.2615 5.959 38.1157 6.09618C37.9698 6.23336 37.7912 6.34559 37.7187 6.34559C37.6462 6.34559 37.5869 6.37437 37.5869 6.40962C37.5869 6.49044 36.8802 6.96239 36.7591 6.96239C36.7096 6.96239 36.5653 7.05919 36.4385 7.17751C36.0103 7.57711 34.7882 8.42641 34.6409 8.42684C34.5605 8.42706 34.4947 8.45903 34.4947 8.49778C34.4947 8.53653 34.2972 8.69729 34.0559 8.85496C33.8146 9.01262 33.5152 9.24679 33.3907 9.37533C33.2661 9.50387 33.0969 9.61391 33.0146 9.61989C32.9323 9.62601 32.7145 9.76763 32.5307 9.93491C32.3468 10.1022 32.1355 10.2737 32.061 10.3162C31.9866 10.3586 31.6669 10.5956 31.3506 10.8429C31.0344 11.0902 30.6064 11.3727 30.3995 11.4706C30.1927 11.5685 29.8354 11.8194 29.6056 12.0281C29.2298 12.3694 28.8603 12.6401 28.4694 12.8604C28.3942 12.9028 27.8856 13.2498 27.3394 13.6316C26.7931 14.0133 26.2427 14.3682 26.1163 14.4202C25.9899 14.4721 25.8865 14.55 25.8865 14.5931C25.8865 14.6362 25.7158 14.7455 25.5072 14.8359C25.0861 15.0185 24.2193 15.7962 24.2167 15.9938C24.2158 16.0638 24.1216 16.142 24.0061 16.1688C23.8097 16.2142 23.7485 16.3523 23.7904 16.6553C23.8053 16.7634 23.2804 16.9852 23.0097 16.9852C22.5035 16.9852 22.4903 16.4748 22.9823 15.9256C23.1776 15.7075 23.3833 15.5272 23.4393 15.5247C23.4952 15.5221 23.5893 15.4372 23.6482 15.3358C23.7523 15.1565 24.5656 14.4409 24.6653 14.4409C24.6927 14.4409 24.8187 14.3429 24.9455 14.2231C25.0724 14.1033 25.4205 13.8696 25.7193 13.7038C26.2138 13.4293 26.6147 13.1836 27.613 12.5436C28.0817 12.2431 28.806 11.7299 29.5638 11.1615C29.9085 10.9029 30.3034 10.6248 30.4413 10.5435C30.5792 10.4623 30.9995 10.1524 31.3754 9.85482C31.7513 9.5573 32.2535 9.1751 32.4915 9.00547C32.7295 8.83586 33.0425 8.60805 33.1871 8.49922C33.3317 8.3904 33.6375 8.18223 33.8667 8.03664C34.0959 7.89103 34.4583 7.65046 34.6722 7.50205C34.886 7.35363 35.4067 7.00669 35.8292 6.73107C36.2518 6.45544 36.7355 6.12188 36.9042 5.98985C37.0728 5.85782 37.3236 5.69633 37.4615 5.63098C37.5994 5.56564 37.791 5.43081 37.8872 5.33135C37.9835 5.2319 38.2279 5.05529 38.4305 4.93888C38.633 4.82247 39.0244 4.58788 39.3002 4.41759C39.576 4.24728 39.952 4.03884 40.1359 3.95439C40.3198 3.86989 40.583 3.7114 40.7209 3.60211L40.9717 3.4034L40.6374 3.44906C40.4535 3.47416 40.1988 3.49366 40.0713 3.49244C39.8311 3.48981 39.2987 3.66751 38.5062 4.01401C38.2534 4.12455 38 4.20721 37.943 4.19771C37.8861 4.18817 37.7545 4.22421 37.6505 4.27766C37.4018 4.40567 36.9059 4.56963 36.7631 4.57109C36.7007 4.57175 36.4079 4.67871 36.1123 4.80885C35.8167 4.93899 35.4352 5.06532 35.2646 5.0896C34.9638 5.13237 33.6447 5.70991 33.59 5.82278C33.5751 5.85357 33.2931 6.04208 32.9632 6.24178C32.6334 6.44148 32.1378 6.76655 31.8621 6.96413C31.5863 7.16173 31.0956 7.48159 30.7718 7.67493C30.4479 7.86828 30.133 8.08194 30.072 8.14973C30.0111 8.21752 29.9 8.27356 29.8251 8.27427C29.7504 8.27492 29.4635 8.46469 29.1877 8.69589C28.9119 8.92708 28.6433 9.11733 28.5908 9.11865C28.5383 9.1204 28.3041 9.27971 28.0703 9.47362C27.8365 9.66752 27.6085 9.8052 27.5635 9.77956C27.5185 9.75393 27.4193 9.82076 27.3431 9.92815C27.2668 10.0355 27.1512 10.1234 27.0861 10.1234C27.0211 10.1234 26.8507 10.2464 26.7076 10.3968C26.5644 10.5472 26.3259 10.7171 26.1775 10.7743C25.9037 10.8798 25.7132 11.012 25.0882 11.5304C24.8964 11.6894 24.7121 11.8195 24.6785 11.8195C24.5379 11.8195 23.3231 12.7979 22.6766 13.4319C21.8305 14.2615 21.4453 14.5811 21.2321 14.6304C20.9712 14.6909 20.8919 14.6287 20.8229 14.3107C20.7806 14.1157 20.8043 14.053 20.9467 13.9827C21.0435 13.9349 21.1224 13.8536 21.1221 13.8021C21.1214 13.699 22.5335 12.4363 22.6496 12.4363C22.7159 12.4363 22.883 12.2983 23.5882 11.6607C23.7262 11.536 23.8795 11.434 23.9289 11.434C23.9783 11.434 24.107 11.3473 24.215 11.2413C24.323 11.1353 24.4611 11.0485 24.5221 11.0485C24.583 11.0485 24.6329 11.0131 24.6329 10.9699C24.6329 10.8917 26.5959 9.51535 26.7337 9.49695C26.8991 9.47482 26.9425 9.45129 27.1819 9.25363C27.9374 8.62987 28.5308 8.19591 28.6283 8.19591C28.6891 8.19591 28.8355 8.08987 28.9538 7.96025C29.072 7.83064 29.361 7.60588 29.5961 7.46079C29.8311 7.3157 30.2303 7.05837 30.4831 6.88895C30.7359 6.71953 30.9991 6.55654 31.0681 6.52674C31.137 6.49691 31.3627 6.33633 31.5695 6.16984C31.7764 6.00335 32.0773 5.80467 32.2381 5.72835C32.399 5.65198 32.6169 5.50431 32.7223 5.40011L32.9139 5.21067L32.4993 4.91905C32.2714 4.75866 32.0054 4.52828 31.9083 4.40711C31.8112 4.28593 31.6932 4.18678 31.6461 4.18678C31.5991 4.18678 31.2028 4.46434 30.7654 4.80357C30.3281 5.14281 29.9294 5.42036 29.8795 5.42036C29.8297 5.42036 29.5919 5.59222 29.3511 5.80227C29.1103 6.01233 28.8105 6.20802 28.6847 6.23713C28.559 6.26626 28.2377 6.49337 27.9709 6.74185C27.704 6.99033 27.4289 7.19362 27.3594 7.19362C27.29 7.19362 27.1828 7.25993 27.1212 7.34104C27.0099 7.48771 26.5252 7.83535 25.7144 8.35011C25.4806 8.49852 25.0282 8.8021 24.7091 9.02472C24.39 9.24734 24.0718 9.42949 24.002 9.42949C23.9322 9.42949 23.7479 9.54225 23.5923 9.68006C23.0614 10.1505 22.0242 10.8802 21.6242 11.0646C21.5093 11.1176 21.3852 11.2051 21.3484 11.259C21.3117 11.3128 21.2553 11.357 21.2231 11.3572C21.1473 11.3574 20.238 12.1067 19.5514 12.7348C19.1445 13.1069 19.042 13.2421 19.1283 13.2925C19.1911 13.3292 19.2705 13.3597 19.305 13.3603C19.4969 13.3638 19.1699 14.016 18.9755 14.0173C18.8884 14.018 18.2543 14.3744 18.1913 14.4582C18.1179 14.5558 17.2971 15.0318 17.0189 15.1381C16.8066 15.2192 16.749 15.2125 16.6017 15.0896C16.4682 14.9781 16.4423 14.8907 16.4831 14.6896C16.5245 14.4866 16.8124 14.1834 17.8471 13.2531C19.9309 11.3798 21.4174 10.2142 22.3905 9.69078C22.4781 9.64363 22.633 9.53374 22.7347 9.44646C22.9239 9.28412 23.3644 8.98437 24.263 8.40667C25.2712 7.75852 25.6358 7.48562 25.6358 7.37915C25.6358 7.31949 25.683 7.27073 25.7407 7.27073C25.8376 7.27073 26.1559 7.06693 27.5711 6.09843C28.5255 5.44531 29.1583 4.97769 30.5868 3.86986L30.9831 3.56256L30.8376 3.35475C30.7575 3.24046 30.6004 3.07355 30.4883 2.98383L30.2847 2.82071L29.8197 3.15848C29.564 3.34426 29.2984 3.54274 29.2295 3.59955C29.1605 3.65631 29.0215 3.74258 28.9205 3.79114C28.8195 3.83969 28.5682 4.00931 28.3621 4.16804C27.7337 4.65205 27.2554 4.95775 27.1267 4.95775C27.0594 4.95775 26.9279 5.05318 26.8344 5.16978C26.7409 5.2864 26.5552 5.43373 26.4217 5.4972C26.2882 5.56071 25.925 5.77751 25.6146 5.97907C25.3041 6.18063 25.0281 6.34554 25.0011 6.34554C24.9742 6.34554 24.8521 6.42908 24.7298 6.53121C23.933 7.19669 23.3776 7.61911 22.9306 7.89982C22.3664 8.25414 21.9493 8.55235 21.4257 8.97585C21.2361 9.12919 20.9638 9.30983 20.8205 9.37727C20.4244 9.56378 19.376 10.5608 19.3236 10.801C19.2076 11.332 19.1624 11.3945 18.8645 11.4348C18.6143 11.4687 18.5533 11.4442 18.4275 11.2595C18.347 11.1414 18.2812 10.9727 18.2812 10.8844C18.2812 10.6806 19.2244 9.64061 19.6387 9.38769C19.8114 9.28227 19.9527 9.16518 19.9527 9.1275C19.9527 9.0898 20.169 8.92906 20.4333 8.77026C20.6976 8.61145 21.0172 8.39342 21.1436 8.28575C21.27 8.17807 21.3747 8.12248 21.3761 8.16222C21.3779 8.20193 21.4246 8.17945 21.4806 8.11218C21.672 7.88229 22.9826 6.94782 23.233 6.86268C23.3134 6.83531 23.3793 6.75982 23.3793 6.69488C23.3793 6.62998 23.4262 6.57645 23.4837 6.57599C23.5412 6.57555 23.7535 6.42808 23.9555 6.24832C24.1575 6.06856 24.4634 5.83475 24.6352 5.72873C24.807 5.62273 25.2558 5.31784 25.6326 5.05122C26.0094 4.7846 26.4664 4.47984 26.6481 4.37398C26.8299 4.26812 27.0432 4.12886 27.1221 4.06452C27.2009 4.00014 27.4723 3.8227 27.7251 3.67011C28.1359 3.42217 28.6799 3.04423 29.409 2.50027C29.6469 2.3228 29.6498 2.31251 29.5046 2.16438C29.4222 2.08032 29.2044 1.94185 29.0205 1.85661C28.8367 1.77141 28.6298 1.65773 28.5609 1.60408C28.4919 1.55046 28.3482 1.48197 28.2416 1.45195C28.0879 1.40874 28.0382 1.43079 28.002 1.55849C27.9769 1.6471 27.9214 1.7196 27.8787 1.7196C27.836 1.7196 27.6994 1.81379 27.5751 1.92891C27.3646 2.1238 26.9506 2.45051 25.9241 3.23183C25.6948 3.4063 25.2942 3.67478 25.0338 3.82846C24.7734 3.98213 24.5384 4.14064 24.5116 4.18069C24.4848 4.22075 24.2518 4.35126 23.994 4.47071C23.7361 4.59017 23.4692 4.76596 23.4008 4.86137C23.3324 4.95678 23.2102 5.03485 23.1291 5.03485C23.0481 5.03485 22.935 5.0869 22.8778 5.1505C22.8206 5.21409 22.7239 5.26614 22.6629 5.26614C22.602 5.26614 22.4468 5.35762 22.318 5.46944C22.1892 5.58125 21.9883 5.72871 21.8714 5.79711C21.0245 6.29299 20.1055 7.01028 19.9016 7.33461C19.7771 7.53269 19.6248 7.72249 19.5632 7.7564C19.5017 7.79034 19.4513 7.88368 19.4513 7.96388C19.4513 8.04409 19.4127 8.13171 19.3654 8.15863C19.2668 8.21478 18.5908 9.42947 18.658 9.42947C18.6825 9.42947 18.6265 9.56687 18.5336 9.73479C18.4407 9.90272 18.3648 10.0794 18.3648 10.1273C18.3648 10.1752 18.2202 10.4108 18.0436 10.6508C17.6399 11.1993 17.4668 11.4618 17.4766 11.5111C17.4809 11.5323 17.4191 11.6355 17.3394 11.7403C17.2599 11.8452 17.1947 11.9884 17.1947 12.0585C17.1947 12.1287 17.1351 12.2318 17.0622 12.2876C16.9051 12.4079 16.6451 12.971 16.6794 13.1167C16.6926 13.1728 16.6693 13.2595 16.6275 13.3094C16.4388 13.5348 16.286 14.2049 16.3018 14.7382L16.3185 15.3037L16.6521 15.4108C16.8356 15.4698 17.0733 15.5185 17.1802 15.5191C17.2871 15.5198 17.7008 15.645 18.0995 15.7974C18.4982 15.9498 18.956 16.1215 19.1169 16.1789C19.2778 16.2364 19.7291 16.4036 20.1198 16.5507C21.0002 16.8819 23.693 17.6149 24.4185 17.7207C24.5534 17.7404 24.9107 17.823 25.2124 17.9043C26.1221 18.1494 27.5707 18.5052 28.0594 18.6036C28.3122 18.6545 28.8575 18.7829 29.2712 18.8889C29.6849 18.9949 30.343 19.1289 30.7338 19.1867C31.9935 19.3732 34.5218 19.8229 35.0378 19.9522C35.8233 20.1491 38.1109 20.5736 38.5271 20.5996C38.6075 20.6049 38.6734 20.5905 38.6734 20.5677ZM36.1814 19.0609C35.9498 18.7188 36.0446 18.5882 37.4414 17.3263C38.1888 16.6512 39.1384 15.8677 39.5517 15.5854C39.9649 15.303 40.4723 14.9439 40.6792 14.7874C40.886 14.631 41.3185 14.3329 41.6403 14.1251C42.2752 13.7149 42.5812 13.4926 43.1761 13.0092C43.3886 12.8365 43.7035 12.6168 43.8759 12.521C44.0482 12.4252 44.1893 12.3212 44.1893 12.2899C44.1893 12.2105 45.8396 10.9598 46.0937 10.8467C46.2724 10.7671 46.5294 11.0489 46.5294 11.3244C46.5294 11.5289 46.4436 11.6517 46.0717 11.9791C45.8199 12.2007 45.5097 12.4416 45.3822 12.5144C45.2547 12.5872 45.0183 12.7666 44.8568 12.9131C44.6954 13.0595 44.5024 13.2117 44.428 13.2513C44.3536 13.2908 44.1284 13.4516 43.9276 13.6085C43.0125 14.3238 42.5081 14.6757 41.4238 15.3554C41.0832 15.5689 40.6369 15.9016 40.4319 16.0946C40.2112 16.3026 39.9837 16.4457 39.8739 16.4457C39.7689 16.4457 39.6138 16.5377 39.5166 16.6577C39.3188 16.9018 39.3168 16.9036 38.9125 17.2148C38.7452 17.3436 38.5467 17.5687 38.4714 17.7151C38.3841 17.8849 38.2922 17.9662 38.2177 17.9398C38.1504 17.916 38.0408 17.9829 37.9596 18.0973C37.8253 18.2863 37.5528 18.4644 37.2317 18.573C37.1513 18.6002 37.0834 18.6617 37.0808 18.7098C37.0747 18.8234 36.6334 19.1442 36.4346 19.1795C36.3487 19.1948 36.2364 19.1421 36.1814 19.0609ZM21.7554 5.08463C21.9361 4.94227 22.2412 4.75191 22.4335 4.66161C22.6259 4.5713 22.8852 4.41023 23.0099 4.30366C23.1345 4.19708 23.2797 4.10988 23.3324 4.10988C23.3852 4.10988 23.6523 3.93342 23.9261 3.71772C24.1999 3.50203 24.4992 3.29373 24.5911 3.25482C24.8288 3.1542 25.3319 2.78495 26.2884 2.00894C26.7458 1.6379 27.1787 1.33433 27.2505 1.33433C27.4021 1.33433 27.5094 1.20921 27.4076 1.15112C27.2881 1.08307 25.8517 1.34202 25.7128 1.4567C25.6402 1.51662 25.5328 1.56562 25.4741 1.56562C25.4154 1.56562 25.2249 1.66971 25.0507 1.79692C24.8766 1.92414 24.6972 2.02823 24.652 2.02823C24.5232 2.02823 23.3442 2.96137 23.2795 3.11453C23.2476 3.19002 23.1348 3.29361 23.0288 3.3448C22.6451 3.53008 22.075 4.07732 21.6558 4.66276C21.2678 5.20472 21.21 5.34346 21.3724 5.34346C21.4024 5.34346 21.5748 5.22698 21.7554 5.08463ZM45.2089 40.9477C45.0187 40.7722 45.1656 40.1921 45.4002 40.1921C45.5105 40.1921 46.1476 39.6349 46.2676 39.4335C46.3305 39.328 46.4996 39.152 46.6435 39.0423C47.0069 38.7653 47.3771 38.3979 48.0392 37.6573C48.4608 37.1857 50.4516 35.5053 51.3321 34.8779C51.6554 34.6475 51.9705 34.4124 52.0323 34.3554C52.0941 34.2985 52.2533 34.2001 52.3862 34.1367C52.519 34.0734 52.7505 33.9082 52.9006 33.7697C53.253 33.4446 54.0131 32.8253 54.479 32.4837C54.6803 32.3362 55.0707 32.0028 55.3465 31.7429C55.6222 31.483 55.9701 31.2126 56.1195 31.1419C56.2689 31.0712 56.3911 30.9622 56.3911 30.8997C56.3911 30.8372 56.4437 30.786 56.508 30.786C56.5723 30.786 56.9567 30.488 57.3624 30.1238C57.768 29.7596 58.2009 29.4133 58.3244 29.3544C58.448 29.2955 58.6574 29.1259 58.79 28.9776C59.0195 28.7207 59.0455 28.7117 59.3397 28.7867C59.6527 28.8664 59.8177 29.0425 59.8176 29.2968C59.8176 29.4307 59.0023 30.1483 58.8887 30.1144C58.8587 30.1055 58.5375 30.3656 58.1749 30.6926C57.8124 31.0196 57.2158 31.5378 56.849 31.844C56.4823 32.1503 55.9942 32.5578 55.7643 32.7496C55.5345 32.9414 55.3204 33.0985 55.2886 33.0987C55.2568 33.0989 54.9747 33.3066 54.6618 33.5603C54.3489 33.8139 54.0514 34.0221 54.0007 34.0229C53.95 34.0235 53.7198 34.2063 53.4891 34.429C53.0806 34.8232 52.0238 35.6433 51.9242 35.6433C51.8969 35.6433 51.6671 35.8316 51.4135 36.0618C51.1599 36.292 50.8505 36.5018 50.7258 36.528C50.5983 36.5547 50.4078 36.6958 50.2902 36.8505C50.1753 37.0017 49.8556 37.3457 49.5798 37.6151C49.304 37.8844 48.9655 38.2188 48.8275 38.3582C48.6895 38.4975 48.4639 38.7005 48.326 38.8091C48.1882 38.9178 47.8138 39.2734 47.494 39.5993C47.1742 39.9252 46.8529 40.2093 46.78 40.2307C46.707 40.252 46.4986 40.3908 46.3168 40.5391C46.1349 40.6874 45.9203 40.8608 45.8399 40.9244C45.664 41.0636 45.3472 41.0752 45.2089 40.9477ZM41.051 39.9247C40.89 39.5694 40.8954 39.5344 41.1372 39.359C41.2512 39.2762 41.7794 38.8328 42.3109 38.3735C42.8424 37.9143 43.3618 37.4851 43.4651 37.4197C43.5684 37.3544 44.0839 36.8903 44.6106 36.3884C45.1373 35.8866 45.6623 35.4297 45.7772 35.3732C45.8921 35.3166 46.3246 35.0063 46.7383 34.6835C47.152 34.3608 47.7349 33.9428 48.0337 33.7548C48.3325 33.5667 49.047 33.0967 49.6216 32.7103C50.1962 32.3239 50.8919 31.8739 51.1677 31.7103C52.2294 31.0805 53.6158 30.0762 54.3765 29.386C54.5325 29.2445 54.777 29.0639 54.9197 28.9847C55.0625 28.9056 55.2873 28.7494 55.4193 28.6377C55.5514 28.5259 55.8025 28.3131 55.9774 28.1647C56.3791 27.8239 57.0107 27.3937 57.1097 27.3936C57.1512 27.3935 57.4053 27.2525 57.6745 27.0801C57.9437 26.9077 58.2169 26.7854 58.2817 26.8084C58.5266 26.8951 58.6652 27.5479 58.4387 27.5479C58.3698 27.5479 58.3133 27.5942 58.3133 27.6507C58.3133 27.7072 57.9185 28.0245 57.4358 28.3556C56.9532 28.6868 56.5583 28.9851 56.5583 29.0186C56.5583 29.0521 56.479 29.1027 56.3822 29.131C56.187 29.1882 56.1751 29.1962 55.3464 29.8326C55.0247 30.0797 54.6752 30.3761 54.5699 30.4911C54.4645 30.6062 54.2388 30.777 54.0684 30.8707C53.898 30.9644 53.7209 31.0812 53.675 31.1303C53.629 31.1795 53.4343 31.3055 53.2422 31.4103C53.0502 31.5153 52.6824 31.782 52.4248 32.0031C52.1673 32.2242 51.901 32.4051 51.8331 32.4051C51.7651 32.4051 51.6001 32.495 51.4664 32.605C51.3326 32.7149 51.1919 32.8041 51.1537 32.8033C51.0636 32.8015 50.6781 33.0771 50.2136 33.4759C50.0106 33.6503 49.7957 33.7929 49.736 33.7929C49.6763 33.7929 49.5876 33.8616 49.5388 33.9457C49.4601 34.0813 48.7729 34.5461 47.9976 34.9879C47.6703 35.1745 46.905 35.7546 46.6003 36.0473C46.4784 36.1643 46.3167 36.2601 46.2408 36.2601C46.165 36.2601 45.7472 36.5963 45.3124 37.0074C44.8776 37.4184 44.4668 37.7621 44.3995 37.7712C44.3322 37.7803 44.1063 37.9211 43.8974 38.084C43.5762 38.3346 43.5241 38.4134 43.5595 38.5952C43.5901 38.7522 43.5621 38.8234 43.4565 38.8593C43.3769 38.8864 43.233 38.9804 43.1367 39.0684C42.8252 39.353 42.1343 39.8666 41.8418 40.0312C41.413 40.2723 41.1951 40.243 41.051 39.9247ZM49.3709 39.5482C49.3709 39.4222 49.5429 39.2237 49.935 38.8972C50.2453 38.6389 50.6684 38.2829 50.8752 38.1063C51.0821 37.9296 51.5428 37.5603 51.899 37.2855C52.2552 37.0107 52.5467 36.7618 52.5467 36.7323C52.5467 36.7029 52.6501 36.6215 52.7765 36.5515C52.9029 36.4815 53.3249 36.1444 53.7143 35.8025C54.1037 35.4605 54.4531 35.1807 54.4908 35.1807C54.5284 35.1807 54.833 34.9291 55.1676 34.6217C56.4911 33.4056 57.7469 32.4618 58.1729 32.3632C58.441 32.3011 58.8151 32.5878 58.8135 32.854C58.8118 33.1385 58.7557 33.1979 58.2298 33.4719C57.977 33.6036 57.3564 34.0759 56.8508 34.5214C56.3452 34.967 55.8833 35.3323 55.8244 35.3332C55.7655 35.3341 55.6969 35.3838 55.6721 35.4436C55.6158 35.5787 54.7669 36.1702 54.4895 36.2675C54.2638 36.3466 53.6572 36.7668 52.4965 37.6478C51.1052 38.7039 50.8353 38.8871 50.6036 38.9326C50.4609 38.9606 50.3738 39.0281 50.3738 39.1104C50.3738 39.2562 50.2188 39.3914 49.8177 39.5954C49.4656 39.7745 49.3709 39.7645 49.3709 39.5482ZM17.2161 37.3202C16.9211 36.9765 16.9262 36.8925 17.2713 36.4238C17.4546 36.1747 17.6628 35.9504 17.7339 35.9252C17.8051 35.9 17.8633 35.8291 17.8633 35.7677C17.8633 35.7063 18.2676 35.3165 18.7617 34.9017C19.2559 34.4869 19.7104 34.0836 19.7718 34.0055C19.8332 33.9275 20.0247 33.7813 20.1974 33.6807C20.3701 33.5802 20.7336 33.318 21.0051 33.0982C21.2766 32.8784 21.6304 32.6346 21.7913 32.5563C21.9522 32.4781 22.2175 32.2993 22.381 32.159C22.7184 31.8694 23.4404 31.3566 23.8934 31.0848C24.5814 30.672 25.8615 29.8116 26.168 29.5559C26.3482 29.4056 26.6534 29.1785 26.8464 29.0513C27.7971 28.4245 28.0495 28.2467 28.5779 27.8321C28.8921 27.5856 29.1274 27.3514 29.1008 27.3117C29.0741 27.272 29.1337 27.2395 29.2332 27.2395C29.3326 27.2395 29.6389 27.066 29.914 26.854C30.189 26.642 30.4626 26.4685 30.5219 26.4685C30.5812 26.4685 30.6781 26.4148 30.7371 26.3492C30.8121 26.2657 30.9599 26.2367 31.2279 26.2528C31.6021 26.2752 31.6119 26.2825 31.6364 26.5522C31.6527 26.7311 31.6158 26.8637 31.532 26.9279C31.4607 26.9825 31.4024 27.0044 31.4024 26.9767C31.4024 26.9183 30.5406 27.4879 30.2323 27.7501C29.9579 27.9835 29.3467 28.4235 28.9724 28.6571C28.8081 28.7596 28.5571 28.951 28.4147 29.0824C28.2723 29.2137 28.1189 29.3212 28.0737 29.3212C27.995 29.3212 27.6668 29.551 26.917 30.131C26.7253 30.2793 26.5423 30.4006 26.5104 30.4006C26.4605 30.4006 25.6482 31.0169 25.3164 31.3065C25.2557 31.3595 25.1587 31.4029 25.1011 31.4029C25.0434 31.4029 24.9051 31.493 24.7937 31.6033C24.5766 31.818 23.882 32.1739 23.6802 32.1739C23.6128 32.1739 23.5364 32.2355 23.5105 32.3108C23.4846 32.3862 23.3818 32.499 23.2822 32.5614C23.1825 32.6239 23.0339 32.7339 22.952 32.8058C22.8701 32.8778 22.6816 32.9946 22.5331 33.0654C22.1034 33.2704 21.4633 33.7052 21.0812 34.0516C20.7277 34.3721 20.3435 34.6852 19.4094 35.4141C18.752 35.9271 18.2825 36.3578 18.2818 36.4486C18.2815 36.4887 18.1857 36.6134 18.069 36.7258C17.8813 36.9066 17.8717 36.9415 17.9854 37.0286C18.1952 37.1892 18.1483 37.3641 17.9102 37.309C17.7981 37.283 17.6831 37.2967 17.6546 37.3392C17.5821 37.4474 17.3153 37.4358 17.2161 37.3202Z" fill="black"/>
</svg>
