<svg width="594" height="406" viewBox="0 0 594 406" fill="none" xmlns="http://www.w3.org/2000/svg">
<path d="M119.418 98.3332C202.106 91.5892 181.373 15.7555 268.923 2.10008C293.08 -1.66781 317.811 1.90657 341.576 7.64993C514.244 49.3789 574.497 147.864 591.132 235.66C608.873 329.292 525.486 425.553 415.098 402.556C304.711 379.558 278.1 378.573 144.386 394.342C10.6729 410.112 23.1572 295.125 4.43071 244.86C-14.2957 194.594 26.771 105.89 119.418 98.3332Z" fill="#0953C2"/>
<path d="M311.244 175.161C310.016 175.254 308.126 175.36 307.044 175.397C305.962 175.434 304.458 175.563 303.701 175.684C302.944 175.805 301.653 175.941 300.831 175.984C300.009 176.027 297.915 176.147 296.176 176.251C293.019 176.438 292.567 176.435 290.217 176.21C289.53 176.145 288.716 176.133 288.409 176.185C288.103 176.237 287.469 176.236 287.001 176.183C286.533 176.13 285.639 176.073 285.015 176.058C284.39 176.042 283.787 175.989 283.676 175.941C283.456 175.846 282.842 175.836 280.936 175.897C280.266 175.919 279.333 175.919 278.863 175.897C278.393 175.876 277.378 175.894 276.608 175.937C275.838 175.98 273.76 175.976 271.99 175.929C270.22 175.881 268.474 175.835 268.11 175.827C267.746 175.819 267.145 175.776 266.775 175.732C264.547 175.465 262.713 175.344 262.212 175.429C261.501 175.55 257.787 175.051 257.552 174.803C257.421 174.665 257.322 174.686 257.124 174.898C256.934 175.103 256.756 175.146 256.432 175.066C256.192 175.007 255.001 174.839 253.784 174.693C252.567 174.548 251.479 174.38 251.365 174.322C251.252 174.263 250.847 174.223 250.466 174.232C249.671 174.251 248.317 174.029 247.627 173.767C247.368 173.668 246.919 173.603 246.63 173.623C245.511 173.699 243.255 173.224 239.692 172.161C238.783 171.89 232.643 170.318 232.501 170.319C232.449 170.32 232.207 170.293 231.963 170.26C231.701 170.224 231.435 170.29 231.313 170.422C231.158 170.588 230.952 170.561 230.502 170.314C230.171 170.132 229.81 169.998 229.701 170.017C229.592 170.035 228.941 169.693 228.253 169.257C227.566 168.821 226.678 168.348 226.281 168.206C225.282 167.848 222.415 165.653 222.113 165.015C221.977 164.727 221.396 164.063 220.822 163.54C218.923 161.808 218.785 161.655 218.422 160.876C218.224 160.451 217.893 159.936 217.688 159.733C217.483 159.529 217.226 159.168 217.119 158.93C217.011 158.693 216.789 158.411 216.625 158.304C216.461 158.198 216.282 157.813 216.228 157.448C216.174 157.084 215.919 155.957 215.664 154.944C215.156 152.928 215.013 150.495 215.359 149.762C215.468 149.532 215.532 149.194 215.501 149.011C215.469 148.828 215.523 148.612 215.621 148.533C215.718 148.453 215.736 148.292 215.662 148.174C215.588 148.056 215.593 147.906 215.673 147.84C215.753 147.774 215.87 147.435 215.932 147.085C215.994 146.736 216.354 145.825 216.732 145.061C217.111 144.297 217.41 143.615 217.398 143.544C217.386 143.474 217.61 143.044 217.895 142.587C218.181 142.131 218.402 141.685 218.387 141.597C218.352 141.395 222.279 136.356 223.301 135.29C225.061 133.455 225.995 132.632 226.279 132.664C226.469 132.686 226.699 132.463 226.904 132.059C227.082 131.708 227.329 131.412 227.452 131.402C227.648 131.386 230.67 129.391 234.713 126.61C235.423 126.121 236.198 125.688 236.434 125.647C236.67 125.607 237.081 125.42 237.346 125.232C237.611 125.045 237.944 124.871 238.087 124.847C238.23 124.823 238.731 124.537 239.201 124.212C240.284 123.464 242.454 122.543 243.59 122.35C244.072 122.268 244.498 122.129 244.538 122.04C244.578 121.952 244.581 121.39 244.545 120.79C244.509 120.191 244.561 119.526 244.661 119.313C244.76 119.1 244.887 118.566 244.943 118.127C244.999 117.688 245.125 117.198 245.225 117.038C245.324 116.878 245.768 115.787 246.212 114.613C246.657 113.44 247.193 112.06 247.403 111.547C247.99 110.119 248.236 108.503 247.97 107.817C247.847 107.497 247.672 107.248 247.582 107.263C247.493 107.279 247.407 107.215 247.391 107.122C247.375 107.03 247.466 106.936 247.593 106.915C248.067 106.834 249.9 104.101 250.664 102.337C251.465 100.487 252.091 98.9799 252.263 98.4861C252.774 97.0195 255.555 93.1028 256.854 92.0177C257.096 91.816 257.437 91.4678 257.613 91.2439C258.233 90.4525 258.83 89.8697 259.555 89.3476C259.959 89.0571 260.482 88.6233 260.717 88.3835C260.952 88.1437 261.25 87.9296 261.379 87.9076C261.508 87.8856 261.83 87.7226 262.093 87.5452C263.255 86.7625 263.833 86.5409 265.254 86.3328C266.394 86.1658 266.976 86.1753 267.805 86.3742C269.576 86.7994 271.827 87.6485 273.472 88.5125C274.005 88.7923 274.524 88.9539 274.624 88.8714C274.748 88.7708 274.794 88.8584 274.767 89.1399C274.735 89.4573 274.873 89.6422 275.335 89.9061C275.67 90.0975 276.102 90.402 276.295 90.5828L276.646 90.9116L277.522 90.3144C278.36 89.7422 278.417 89.7261 278.877 89.9324C279.551 90.2346 279.554 90.6106 278.887 91.2033C278.57 91.4842 278.351 91.8157 278.399 91.9401C278.448 92.0644 279.002 92.4509 279.631 92.7989L280.775 93.4316L281.835 93.0164C282.418 92.7882 283.171 92.4788 283.508 92.3291C284.144 92.047 286.485 90.6866 286.824 90.4023C287.046 90.2154 286.97 90.2487 287.956 89.905C288.375 89.7587 288.796 89.4918 288.892 89.312C288.987 89.1322 289.375 88.8761 289.753 88.743C290.132 88.6099 290.566 88.4168 290.717 88.3142C291.775 87.5957 298.653 85.412 300.934 85.0708C302.009 84.9099 302.553 84.9252 303.395 85.1404C303.99 85.2923 304.827 85.4838 305.255 85.566C305.684 85.6482 306.182 85.838 306.363 85.9877C306.659 86.2329 306.788 86.2249 307.651 85.9071C308.605 85.5564 308.614 85.557 309.222 86.0023C309.968 86.5486 310.025 86.7596 309.455 86.8565C308.855 86.9584 308.581 87.4093 308.989 87.6238C309.157 87.7125 309.832 88.4959 310.488 89.3646C311.144 90.2332 311.782 90.9811 311.907 91.0264C312.031 91.0719 312.155 91.2413 312.183 91.4032C312.21 91.5652 312.49 92.0403 312.805 92.4591C313.611 93.5321 314.123 94.3523 314.538 95.2365C314.736 95.6564 314.969 95.9878 315.057 95.9729C315.144 95.958 315.248 96.1342 315.287 96.3643C315.326 96.5944 315.639 97.2249 315.981 97.7653C316.324 98.3057 316.775 99.1875 316.984 99.7248C317.193 100.262 317.487 100.915 317.638 101.176C318.165 102.09 319.055 104.07 319.413 105.127C319.755 106.138 321.069 109.62 321.106 109.614C321.115 109.612 321.274 110.27 321.459 111.076C321.644 111.882 321.915 112.685 322.062 112.861C322.208 113.037 322.318 113.407 322.305 113.684C322.292 113.961 322.35 114.176 322.432 114.162C322.775 114.104 323.331 115.639 323.763 117.842C324.751 122.877 324.889 123.38 325.46 124.036C325.885 124.524 325.958 124.709 325.817 124.931C325.72 125.086 325.491 125.201 325.309 125.189C325.117 125.176 324.825 125.377 324.615 125.667C324.27 126.143 324.271 126.247 324.639 127.831C324.851 128.746 324.988 129.542 324.942 129.602C324.896 129.661 324.882 130.032 324.91 130.427C324.945 130.931 325.069 131.224 325.322 131.407C325.661 131.652 325.665 131.686 325.39 131.948C325.124 132.201 325.126 132.233 325.415 132.283C325.59 132.313 325.757 132.477 325.786 132.647C325.872 133.153 325.556 133.938 325.245 133.993C325.085 134.021 324.905 134.108 324.844 134.187C324.649 134.439 321.993 135.354 320.702 135.614C318.879 135.98 318.199 136.329 317.454 137.281C317.093 137.742 316.453 138.435 316.033 138.819C315.204 139.58 315.073 139.99 315.751 139.707C315.993 139.606 316.265 139.606 316.394 139.709C316.754 139.994 316.624 140.848 316.178 141.131C315.957 141.272 315.787 141.452 315.8 141.532C315.814 141.611 315.044 142.352 314.09 143.179C313.136 144.005 312.096 144.958 311.779 145.296C311.463 145.634 311.123 145.882 311.025 145.846C310.927 145.81 310.695 145.979 310.509 146.221C310.323 146.463 309.698 147.125 309.121 147.691C308.543 148.258 307.707 149.084 307.262 149.526C306.818 149.968 306.295 150.408 306.101 150.502C305.907 150.596 305.398 151.089 304.971 151.597C304.221 152.487 303.232 153.39 301 155.22C300.42 155.696 299.686 156.367 299.369 156.71C299.052 157.054 298.516 157.575 298.178 157.867C297.84 158.16 297.572 158.456 297.583 158.524C297.594 158.593 297.287 158.909 296.9 159.228C296.514 159.546 295.988 160.086 295.731 160.427C294.957 161.456 293.696 162.704 293.441 162.694C293.308 162.689 293.222 162.809 293.248 162.962C293.297 163.251 290.623 166.783 290.316 166.835C290.22 166.851 290.159 166.964 290.18 167.086C290.2 167.208 289.98 167.53 289.689 167.803C289.399 168.075 288.867 168.727 288.507 169.251C288.148 169.776 287.772 170.218 287.672 170.235C287.44 170.275 287.011 169.994 286.809 169.671C286.643 169.404 287.196 168.32 287.528 168.264C287.634 168.245 287.878 167.948 288.07 167.602C288.932 166.049 292.783 161.219 293.881 160.314C294.086 160.145 294.239 159.925 294.223 159.826C294.184 159.6 294.999 158.575 295.252 158.532C295.355 158.514 295.6 158.277 295.798 158.005C295.995 157.733 296.248 157.495 296.36 157.476C296.472 157.457 296.936 156.99 297.39 156.439C297.845 155.888 298.438 155.279 298.708 155.087C298.978 154.894 299.427 154.575 299.704 154.378C299.981 154.18 300.196 153.949 300.182 153.863C300.167 153.777 300.32 153.678 300.522 153.644C300.723 153.61 300.877 153.521 300.865 153.446C300.852 153.372 301.293 152.895 301.846 152.386C302.398 151.877 303.104 151.171 303.416 150.815C303.728 150.46 304.342 149.893 304.781 149.556C305.22 149.219 305.814 148.677 306.101 148.351C306.388 148.026 306.829 147.645 307.081 147.506C307.495 147.277 307.665 146.702 307.301 146.764C307.218 146.778 306.65 147.306 306.04 147.937C305.429 148.568 304.261 149.643 303.444 150.325C302.627 151.007 301.665 151.834 301.306 152.162C300.947 152.491 299.693 153.594 298.519 154.614C297.345 155.634 296.203 156.647 295.981 156.865C295.759 157.083 295.137 157.665 294.599 158.157C293.108 159.522 292.24 160.38 291.396 161.323C290.973 161.796 290.32 162.439 289.943 162.754C289.566 163.068 289.087 163.568 288.878 163.863C288.669 164.159 288.158 164.64 287.741 164.932C287.31 165.235 286.492 166.165 285.846 167.088C284.362 169.205 282.475 171.552 282.222 171.595C282.112 171.614 281.824 171.41 281.583 171.143C281.149 170.661 281.148 170.651 281.454 170.077C281.624 169.759 281.972 169.35 282.229 169.17C282.486 168.989 282.803 168.62 282.934 168.348C283.212 167.773 284.244 166.529 284.915 165.961C285.172 165.744 285.408 165.43 285.439 165.265C285.471 165.099 285.829 164.633 286.236 164.23C286.642 163.827 287.089 163.352 287.228 163.176C287.368 162.999 287.608 162.763 287.761 162.651C287.914 162.54 288.31 162.127 288.642 161.735C288.973 161.343 289.656 160.665 290.16 160.229C290.664 159.793 291.167 159.293 291.277 159.118C291.388 158.943 291.772 158.597 292.129 158.348C292.487 158.1 292.914 157.74 293.077 157.549C293.241 157.358 293.653 156.935 293.993 156.609C294.333 156.283 295.038 155.597 295.56 155.085C296.081 154.572 296.584 154.14 296.676 154.124C296.769 154.108 297.254 153.694 297.754 153.203C298.575 152.396 299.172 151.908 301.159 150.417C301.507 150.156 301.928 149.785 302.095 149.594C302.261 149.403 302.708 148.938 303.089 148.561C303.47 148.184 304.215 147.431 304.744 146.887C305.274 146.344 305.913 145.726 306.164 145.514C306.416 145.303 306.815 144.905 307.051 144.63C307.286 144.355 308.491 143.256 309.727 142.186C310.964 141.117 312.41 139.699 312.941 139.036C313.472 138.373 314.016 137.811 314.149 137.789C314.367 137.752 314.686 137.191 314.64 136.924C314.63 136.865 314.469 136.891 314.281 136.983C314.094 137.074 313.344 137.255 312.614 137.386C311.885 137.516 311.164 137.726 311.011 137.851C310.818 138.012 310.32 138.091 309.353 138.117C307.423 138.17 307.546 138.158 306.143 138.427C305.156 138.616 304.931 138.706 305.128 138.835C305.646 139.171 305.538 139.751 304.854 140.322C304.49 140.625 304.206 140.946 304.221 141.036C304.236 141.126 304.031 141.288 303.764 141.397C303.497 141.505 303.156 141.76 303.005 141.963C302.854 142.166 302.617 142.351 302.478 142.375C302.34 142.399 302.209 142.483 302.188 142.563C302.167 142.642 301.65 143.075 301.039 143.524C299.755 144.469 298.648 145.532 297.663 146.769C297.281 147.248 296.754 147.723 296.492 147.824C296.23 147.925 295.987 148.128 295.953 148.275C295.919 148.422 295.68 148.674 295.42 148.835C294.748 149.251 293.592 150.258 293.459 150.543C293.397 150.676 293.013 151.072 292.606 151.423C292.2 151.775 291.508 152.446 291.07 152.916C290.631 153.385 290.085 153.904 289.855 154.069C289.625 154.234 289.001 154.807 288.469 155.343C287.936 155.88 287.405 156.306 287.287 156.291C287.17 156.275 286.972 156.475 286.847 156.734C286.511 157.429 285.984 158.02 285.377 158.383C285.082 158.56 284.566 159.02 284.232 159.406C283.642 160.087 281.239 162.462 280.044 163.546C279.72 163.84 279.051 164.523 278.558 165.065C278.064 165.607 277.375 166.363 277.025 166.745C275.664 168.232 275.373 168.602 275.364 168.854C275.359 168.998 275.21 169.258 275.032 169.431C274.854 169.605 274.728 169.861 274.751 170C274.775 170.139 274.619 170.307 274.405 170.373C274.191 170.439 273.92 170.69 273.804 170.931C273.483 171.596 272.754 171.83 272.149 171.462C271.606 171.133 271.443 170.633 271.721 170.151C271.976 169.709 274.955 166.529 275.683 165.923C276.021 165.641 276.324 165.247 276.357 165.047C276.39 164.846 276.502 164.668 276.606 164.651C276.71 164.633 276.978 164.371 277.201 164.068C277.424 163.765 277.997 163.191 278.473 162.792C278.95 162.393 279.328 162 279.314 161.919C279.301 161.838 279.612 161.549 280.006 161.277C280.4 161.005 281.048 160.405 281.445 159.944C282.627 158.572 283.781 157.357 283.938 157.318C284.019 157.298 284.412 156.958 284.811 156.563C285.211 156.167 285.796 155.615 286.113 155.335C286.43 155.055 286.773 154.693 286.877 154.53C286.98 154.367 287.503 153.87 288.039 153.426C288.574 152.982 289.038 152.508 289.069 152.373C289.1 152.237 289.376 151.952 289.682 151.738C289.988 151.525 290.58 151.01 290.997 150.595C291.414 150.179 292.018 149.599 292.339 149.305C292.66 149.012 293.513 148.142 294.233 147.372C294.954 146.601 295.762 145.888 296.03 145.786C296.298 145.685 296.502 145.516 296.485 145.411C296.448 145.194 298.542 143.083 300.401 141.464C301.311 140.672 302.642 139.361 302.579 139.32C302.539 139.294 301.816 139.339 300.974 139.42C300.132 139.501 299.165 139.542 298.825 139.511C297.94 139.431 297.191 139.588 297.235 139.845C297.297 140.209 296.065 141.602 293.763 143.774C292.561 144.909 291.454 146.043 291.304 146.294C291.154 146.545 290.914 146.77 290.77 146.795C290.626 146.819 290.519 146.9 290.531 146.974C290.544 147.048 290.296 147.246 289.981 147.415C289.665 147.583 289.115 148.043 288.759 148.438C288.402 148.833 288.033 149.169 287.938 149.185C287.844 149.201 287.637 149.401 287.478 149.629C287.32 149.857 286.91 150.238 286.568 150.477C286.226 150.714 285.673 151.152 285.34 151.448C285.007 151.744 284.584 152.012 284.4 152.043C284.215 152.074 283.672 152.572 283.192 153.15C282.712 153.727 281.852 154.546 281.281 154.97C280.71 155.394 279.956 156.074 279.605 156.48C278.281 158.012 277.95 158.347 277.715 158.387C277.582 158.409 277.127 158.859 276.704 159.387C276.28 159.914 275.645 160.536 275.292 160.767C274.483 161.298 272.573 163.146 272.306 163.656C272.041 164.163 270.009 166.681 269.65 166.948C269.495 167.063 268.73 167.987 267.949 169.002C267.167 170.017 266.38 170.92 266.199 171.008C265.863 171.171 264.802 170.776 264.749 170.468C264.734 170.38 264.913 170.186 265.147 170.038C265.381 169.889 265.557 169.676 265.538 169.565C265.498 169.328 268.901 164.852 270.156 163.49C270.625 162.981 271.252 162.27 271.549 161.911C272.017 161.343 273.297 160.121 274.152 159.424C274.302 159.302 274.887 158.753 275.453 158.205C276.019 157.656 276.633 157.182 276.816 157.151C277 157.119 277.176 156.938 277.207 156.747C277.239 156.557 277.64 156.164 278.1 155.874C278.559 155.584 278.944 155.252 278.955 155.136C278.993 154.72 281.624 152.094 283.594 150.507C284.445 149.821 285.885 148.345 286.049 147.99C286.11 147.859 286.355 147.718 286.593 147.678C286.831 147.637 287.193 147.422 287.397 147.198C288.738 145.732 290.42 143.996 290.978 143.504C291.339 143.186 291.858 142.69 292.133 142.402C292.407 142.114 293.042 141.5 293.544 141.038C294.821 139.862 294.796 139.735 293.331 139.974C292.659 140.084 291.813 140.181 291.452 140.19C291.09 140.2 290.311 140.238 289.719 140.275C289.128 140.312 288.588 140.283 288.52 140.212C288.452 140.14 288.198 140.114 287.957 140.155C287.716 140.196 287.318 140.193 287.072 140.149C286.827 140.105 285.909 140.096 285.034 140.129C284.159 140.162 283.237 140.112 282.985 140.019C282.733 139.926 282.223 139.914 281.85 139.993C281.477 140.072 280.528 140.087 279.74 140.026C278.953 139.965 277.895 139.947 277.389 139.987L276.47 140.059L276.964 140.291C277.444 140.516 277.453 140.542 277.263 141.136C277.155 141.473 276.849 141.903 276.582 142.09C276.316 142.277 275.734 142.786 275.289 143.219C274.845 143.653 274.374 143.99 274.244 143.968C274.113 143.947 273.96 144.041 273.903 144.179C273.749 144.55 271.984 146.388 271.216 146.977C270.85 147.258 270.195 147.899 269.762 148.4C268.885 149.415 266.17 152.016 265.948 152.054C265.869 152.067 265.408 152.497 264.922 153.009C264.437 153.521 263.976 153.951 263.9 153.964C263.823 153.977 263.581 154.208 263.361 154.476C263.142 154.745 262.235 155.672 261.346 156.537C260.456 157.402 259.605 158.256 259.454 158.434C259.303 158.613 259.054 158.78 258.901 158.806C258.747 158.832 258.56 159.059 258.485 159.31C258.337 159.805 258.153 159.912 257.904 159.65C257.806 159.547 257.65 159.688 257.489 160.024C257.348 160.322 256.652 161.171 255.943 161.912C255.234 162.653 253.764 164.367 252.676 165.72C251.588 167.074 250.544 168.372 250.356 168.607C250.099 168.926 250.06 169.15 250.201 169.5C250.338 169.842 250.313 170.01 250.109 170.123C249.956 170.209 249.849 170.388 249.871 170.522C249.894 170.656 249.648 171.082 249.325 171.467C248.837 172.05 248.789 172.189 249.041 172.288C249.3 172.391 252.057 172.778 252.612 172.789C252.716 172.791 253.364 172.863 254.053 172.949C258.571 173.512 263.384 173.906 266.283 173.95C266.958 173.96 268.281 174.006 269.221 174.051C270.162 174.097 271.556 174.107 272.32 174.074C273.084 174.041 273.797 174.045 273.904 174.084C274.245 174.208 278.98 174.158 281.274 174.005C282.35 173.934 283.607 173.976 285.632 174.15C286.158 174.195 287.309 174.233 288.191 174.234C289.072 174.235 290.006 174.245 290.267 174.256C290.528 174.268 290.869 174.277 291.024 174.277C291.18 174.277 291.864 174.31 292.545 174.35C293.225 174.391 294.495 174.379 295.367 174.324C300.055 174.026 303.045 173.774 304.006 173.597C304.408 173.523 305.952 173.381 307.438 173.281C310.164 173.099 316.113 172.158 319.48 171.376C320.974 171.029 322.887 170.412 324.818 169.653C325.207 169.501 326.246 169.127 327.127 168.822C329.187 168.11 332.297 166.848 332.652 166.579C332.804 166.464 333.398 166.135 333.971 165.848C336.541 164.563 337.932 163.747 338.967 162.917C339.58 162.426 340.15 162.013 340.234 161.999C340.318 161.984 340.689 161.72 341.059 161.412C341.429 161.104 341.784 160.886 341.849 160.928C341.914 160.97 342.04 160.882 342.128 160.731C342.216 160.581 342.659 160.195 343.111 159.873C343.563 159.552 344.081 159.104 344.261 158.879C344.441 158.654 344.987 158.069 345.474 157.58C345.961 157.09 346.674 156.132 347.058 155.45C347.757 154.211 348.533 152.967 349.532 151.483C350.496 150.052 350.779 149.243 350.792 147.88C350.799 147.163 350.828 146.455 350.856 146.307C351.005 145.526 350.654 141.607 350.265 139.727C349.973 138.312 349.799 137.856 349.273 137.134C348.922 136.652 348.626 136.202 348.614 136.132C348.587 135.976 346.521 133.796 346.319 133.711C346.238 133.677 345.995 133.445 345.778 133.195C345.088 132.401 344.298 131.746 343.092 130.97C341.965 130.244 341.91 130.229 341.717 130.591C341.133 131.684 340.141 132.725 336.54 136.026C336.317 136.229 335.85 136.724 335.501 137.124C334.794 137.935 333.92 138.671 332.778 139.416C332.358 139.69 331.843 140.157 331.635 140.453C331.426 140.749 330.914 141.232 330.498 141.525C330.081 141.819 329.392 142.436 328.967 142.897C328.542 143.357 328.063 143.757 327.903 143.784C327.743 143.811 327.433 144.05 327.213 144.316C326.798 144.818 325.307 146.131 323.648 147.455C323.118 147.878 322.4 148.586 322.051 149.028C321.425 149.824 320.159 150.937 318.377 152.26C317.09 153.214 315.024 154.956 313.994 155.955C313.516 156.418 312.604 157.276 311.966 157.862C311.329 158.447 309.952 159.853 308.906 160.985C307.86 162.118 306.734 163.31 306.405 163.634C306.075 163.959 305.384 164.701 304.87 165.284C304.355 165.867 303.82 166.458 303.68 166.598C303.461 166.818 303.463 166.847 303.701 166.814C303.853 166.792 304.11 166.825 304.272 166.886C304.509 166.975 304.414 167.18 303.789 167.926C303.361 168.437 302.674 169.118 302.262 169.439C301.851 169.76 301.335 170.22 301.117 170.462C299.844 171.87 298.331 172.793 297.776 172.501C297.613 172.415 297.43 172.053 297.369 171.695C297.277 171.151 297.337 170.99 297.74 170.707C298.122 170.438 300.715 167.598 302.675 165.301C302.843 165.104 303.213 164.708 303.498 164.421C303.784 164.134 304.239 163.658 304.509 163.362C304.78 163.067 305.229 162.664 305.506 162.468C305.784 162.271 306.176 161.842 306.379 161.514C306.581 161.187 306.834 160.903 306.942 160.885C307.049 160.867 307.374 160.532 307.665 160.14C307.956 159.748 308.742 158.916 309.413 158.29C310.084 157.664 310.915 156.812 311.259 156.397C311.603 155.982 312.498 155.103 313.248 154.444C314.465 153.375 315.128 152.824 317.075 151.265C317.378 151.023 317.745 150.687 317.891 150.519C318.257 150.097 318.709 149.718 319.201 149.42C319.431 149.281 319.911 148.819 320.268 148.394C320.626 147.968 321.135 147.442 321.4 147.226C322.536 146.299 323.693 145.253 324.053 144.829C324.266 144.578 324.816 144.036 325.275 143.626C325.734 143.215 326.401 142.594 326.757 142.247C327.112 141.899 327.956 141.129 328.633 140.535C329.309 139.942 330.073 139.245 330.331 138.987C330.588 138.729 331.043 138.32 331.341 138.079C332.055 137.501 334.661 135.03 335.06 134.553C335.546 133.971 336.947 132.72 337.529 132.346C338.01 132.038 338.548 131.525 339.988 130.005C340.273 129.703 340.485 129.331 340.458 129.178C340.393 128.81 339.167 127.978 338.308 127.72L337.623 127.514L336.755 128.196C336.277 128.571 335.878 128.829 335.867 128.769C335.857 128.709 335.689 128.839 335.493 129.059C334.755 129.887 333.581 130.856 333.323 130.85C333.176 130.847 332.711 131.254 332.29 131.755C331.061 133.22 330.887 133.389 330.439 133.546C330.206 133.629 329.928 133.87 329.821 134.082C329.5 134.719 326.639 137.619 325.702 138.256C325.02 138.72 323.668 139.942 323.088 140.619C322.829 140.922 322.415 141.311 322.169 141.483C321.923 141.655 321.378 142.189 320.958 142.67C320.151 143.593 317.902 145.89 317.209 146.499C316.984 146.697 316.341 147.409 315.782 148.082C315.222 148.754 314.659 149.324 314.529 149.349C314.399 149.375 313.96 149.786 313.554 150.265C313.147 150.743 312.481 151.417 312.073 151.762C311.225 152.479 309.436 154.361 309.382 154.593C309.362 154.678 309.271 154.761 309.179 154.777C308.982 154.81 307.619 156.127 307.142 156.744C306.958 156.981 306.113 157.995 305.263 158.997C304.414 159.999 302.777 162.034 301.626 163.521C299.119 166.759 298.291 167.736 298.017 167.783C297.904 167.802 297.516 168.2 297.154 168.668C296.792 169.136 296.259 169.754 295.968 170.041C295.678 170.329 294.985 171.054 294.428 171.653C293.871 172.252 293.103 172.905 292.722 173.105L292.029 173.468L291.745 172.893C291.474 172.347 291.492 172.279 292.11 171.475C292.468 171.01 292.998 170.465 293.29 170.263C293.581 170.06 294.03 169.622 294.288 169.289C294.545 168.956 294.834 168.671 294.931 168.654C295.027 168.638 295.197 168.48 295.309 168.303C295.421 168.126 295.982 167.494 296.554 166.899C297.127 166.305 298.317 164.923 299.199 163.83C300.081 162.736 301.489 161.04 302.328 160.062C303.167 159.083 304.387 157.645 305.04 156.867C305.693 156.088 306.324 155.435 306.442 155.415C306.56 155.395 306.93 155.059 307.265 154.668C307.601 154.277 307.947 153.944 308.035 153.927C308.124 153.912 308.437 153.577 308.731 153.185C309.026 152.793 309.495 152.313 309.775 152.118C310.054 151.923 310.676 151.328 311.155 150.797C311.635 150.265 312.136 149.846 312.269 149.865C312.402 149.884 312.492 149.79 312.469 149.655C312.446 149.521 312.889 149.01 313.454 148.521C314.018 148.031 314.795 147.238 315.18 146.757C316.334 145.316 319.251 142.476 319.646 142.409C319.713 142.398 319.916 142.204 320.096 141.979C320.654 141.279 322.751 139.041 324.067 137.74C324.758 137.056 325.593 136.231 325.922 135.905C326.251 135.58 326.566 135.201 326.62 135.064C326.675 134.926 327.078 134.521 327.516 134.164C327.955 133.807 328.52 133.266 328.772 132.962C329.62 131.943 331.569 129.968 331.76 129.936C331.864 129.918 332.318 129.505 332.77 129.019C333.223 128.532 333.877 127.934 334.224 127.691C334.571 127.447 334.841 127.164 334.824 127.061C334.789 126.86 333.79 126.764 331.567 126.751C329.386 126.737 329.139 126.715 328.869 126.502C328.731 126.392 328.387 126.342 328.103 126.391C327.82 126.439 327.353 126.438 327.065 126.389C326.55 126.302 326.546 126.293 326.823 125.895C327.118 125.472 327.334 125.437 328.823 125.571C329.244 125.609 330.713 125.519 332.087 125.372C334.663 125.095 337.229 125.01 338.083 125.174C338.351 125.225 338.754 125.401 338.98 125.565C339.205 125.729 339.489 125.845 339.61 125.825C339.732 125.804 340.73 126.435 341.829 127.227C342.927 128.019 343.976 128.759 344.16 128.871C344.343 128.984 344.785 129.338 345.142 129.659C345.499 129.98 346.074 130.429 346.42 130.656C347.203 131.171 348.533 132.473 349.809 133.975C350.345 134.606 351.016 135.348 351.3 135.624C351.583 135.899 351.853 136.347 351.899 136.618C351.946 136.89 352.104 137.256 352.251 137.433C352.589 137.838 353.316 142.296 353.231 143.441C353.197 143.894 353.217 144.765 353.274 145.376C353.331 145.987 353.347 146.609 353.31 146.758C353.272 146.908 353.228 147.345 353.211 147.73C353.122 149.808 352.752 151.02 351.808 152.332C351.428 152.861 350.853 153.748 350.53 154.304C350.207 154.86 349.872 155.328 349.784 155.342C349.697 155.357 349.553 155.636 349.464 155.961C349.274 156.658 347.764 158.698 347.085 159.176C346.824 159.359 346.507 159.726 346.379 159.99C346.251 160.255 345.749 160.744 345.264 161.078C344.778 161.412 344.333 161.801 344.274 161.942C344.215 162.084 344.039 162.221 343.884 162.247C343.728 162.273 343.405 162.469 343.166 162.682C342.927 162.895 342.385 163.278 341.962 163.533C341.539 163.788 341.144 164.104 341.083 164.237C341.023 164.369 340.873 164.494 340.751 164.515C340.629 164.536 340.161 164.877 339.711 165.273C339.262 165.668 338.463 166.202 337.937 166.458C336.842 166.99 334.542 168.278 334.11 168.6C333.951 168.72 333.618 168.852 333.371 168.894C333.123 168.936 332.883 169.055 332.836 169.158C332.79 169.261 332.472 169.393 332.13 169.452C331.788 169.51 331.331 169.658 331.114 169.781C330.741 169.993 330.089 170.239 327.785 171.037C327.247 171.223 326.45 171.525 326.014 171.707C325.579 171.889 324.821 172.171 324.331 172.332C323.84 172.494 322.968 172.791 322.393 172.991C321.818 173.191 319.738 173.675 317.77 174.066C315.803 174.457 314.032 174.825 313.834 174.884C313.637 174.943 312.472 175.068 311.244 175.161ZM246.349 171.311C246.635 170.487 253.161 162.183 254.469 160.978C255.051 160.442 255.669 159.834 255.841 159.627C256.013 159.421 256.48 158.925 256.879 158.525C257.546 157.855 258.255 157.071 259.258 155.893C259.751 155.315 262.277 152.977 262.841 152.579C263.072 152.415 263.658 151.835 264.144 151.291C264.63 150.746 265.108 150.287 265.207 150.27C265.307 150.253 265.59 149.965 265.838 149.63C266.085 149.295 266.549 148.811 266.868 148.555C267.187 148.299 267.861 147.663 268.364 147.141C269.66 145.8 271.208 144.268 271.879 143.663C274 141.75 275.514 140.259 275.553 140.044C275.575 139.92 275.43 139.854 275.213 139.891C274.815 139.958 273.671 139.931 272.073 139.816C271.548 139.778 270.821 139.742 270.458 139.736C269.808 139.726 269.803 139.731 270.179 140.006C270.68 140.371 270.553 140.977 269.822 141.708C269.525 142.005 268.92 142.689 268.476 143.229C267.415 144.519 266.575 145.42 266.309 145.555C266.191 145.615 265.543 146.291 264.869 147.058C264.196 147.825 263.566 148.466 263.47 148.482C263.374 148.499 262.909 148.919 262.437 149.417C261.964 149.915 261.406 150.447 261.196 150.599C260.813 150.876 259.748 152.072 258.946 153.126C258.71 153.436 258.426 153.657 258.315 153.616C258.046 153.518 257.456 153.955 256.884 154.675C256.628 154.998 255.922 155.697 255.314 156.228C254.707 156.76 254.173 157.277 254.128 157.378C254.082 157.479 253.773 157.793 253.442 158.076C253.11 158.358 252.494 159.004 252.073 159.511C251.652 160.018 251.242 160.409 251.162 160.38C251.081 160.351 250.643 160.818 250.188 161.418C249.733 162.019 249.31 162.519 249.247 162.529C249.15 162.546 248.62 163.151 247.433 164.601C246.667 165.536 244.843 168.407 244.946 168.515C245.214 168.798 244.386 169.605 243.71 169.719C243.118 169.82 243.011 169.773 242.714 169.28C242.415 168.785 242.413 168.67 242.686 168.157C242.854 167.842 243.047 167.573 243.115 167.56C243.379 167.507 244.418 166.148 244.377 165.911C244.354 165.773 244.501 165.514 244.703 165.334C244.906 165.155 245.564 164.411 246.165 163.681C246.767 162.952 247.362 162.335 247.487 162.312C247.613 162.288 247.704 162.198 247.689 162.112C247.66 161.943 247.766 161.796 248.697 160.713C249.734 159.507 251.036 158.146 251.175 158.122C251.248 158.11 251.643 157.646 252.054 157.091C252.464 156.537 253.172 155.794 253.628 155.441C254.083 155.087 254.83 154.405 255.288 153.926C255.745 153.446 256.48 152.779 256.92 152.445C257.361 152.11 257.896 151.622 258.111 151.36C258.895 150.404 260.844 148.399 261.683 147.685C262.157 147.282 262.74 146.713 262.98 146.422C263.219 146.13 263.591 145.763 263.805 145.606C264.193 145.322 265.943 143.358 267.087 141.922C267.416 141.508 267.753 141.158 267.835 141.144C267.917 141.13 268.128 140.86 268.304 140.544C268.48 140.227 268.745 139.948 268.893 139.923C269.269 139.859 269.175 139.537 268.767 139.491C268.582 139.47 268.078 139.374 267.648 139.279C267.217 139.183 266.271 139.106 265.545 139.107C264.82 139.107 264.13 139.061 264.013 139.002C263.895 138.944 263.46 138.881 263.046 138.861C261.593 138.791 260.178 138.643 258.833 138.421C257.484 138.198 256.368 138.117 255.113 138.152C254.752 138.162 254.3 138.082 254.11 137.975C253.583 137.678 250.621 136.95 249.946 136.951C249.618 136.951 249.17 136.89 248.95 136.814C248.73 136.738 248.162 136.64 247.688 136.596C245.278 136.371 243.338 135.394 243.154 134.314L243.056 133.735L242.306 134.399C241.893 134.764 241.53 135.177 241.497 135.317C241.465 135.457 241.298 135.556 241.126 135.537C240.929 135.516 240.707 135.705 240.528 136.045C240.249 136.577 238.839 138.083 238.573 138.134C238.498 138.148 238.265 138.395 238.055 138.682C237.845 138.969 237.271 139.584 236.78 140.049C236.288 140.513 235.701 141.115 235.475 141.385C235.248 141.655 234.946 141.874 234.803 141.87C234.661 141.867 234.329 142.132 234.066 142.46C233.12 143.641 231.911 144.905 231.623 145.015C231.462 145.077 231.043 145.499 230.692 145.954C230.341 146.41 229.596 147.211 229.036 147.736C228.476 148.261 227.726 149.052 227.37 149.495C224.289 153.32 223.255 154.733 222.895 155.615C222.807 155.833 222.817 156.232 222.917 156.503C223.072 156.916 223.018 157.074 222.585 157.491C222.011 158.044 220.722 158.358 220.398 158.024C220.069 157.686 220.055 157.05 220.361 156.348C221.113 154.619 224.479 149.933 226.11 148.345C226.602 147.866 227.119 147.337 227.26 147.17C227.928 146.374 229.002 145.227 229.882 144.369C230.415 143.849 231.213 143.016 231.654 142.516C232.095 142.017 232.929 141.155 233.508 140.601C234.087 140.047 234.774 139.384 235.034 139.127C235.294 138.871 235.948 138.26 236.487 137.771C237.279 137.051 239.271 134.948 239.602 134.482C239.886 134.083 242.613 131.021 242.698 131.007C242.755 130.997 242.975 131.041 243.187 131.104C243.49 131.194 243.561 131.163 243.526 130.954C243.501 130.808 243.597 130.625 243.739 130.546C243.881 130.467 243.972 130.255 243.942 130.076C243.911 129.896 243.975 129.232 244.082 128.6C244.19 127.968 244.204 127.314 244.113 127.147C244.007 126.953 244.042 126.79 244.21 126.697C244.374 126.605 244.436 126.342 244.374 125.997C244.283 125.502 244.254 125.48 244.08 125.781C243.974 125.966 243.792 126.134 243.675 126.154C243.558 126.174 243.402 126.376 243.329 126.603C243.256 126.831 242.407 127.854 241.443 128.877C240.478 129.9 239.339 131.125 238.912 131.599C238.484 132.074 237.963 132.584 237.754 132.734C237.544 132.884 237.015 133.392 236.576 133.862C236.138 134.332 235.568 134.845 235.309 135.001C235.051 135.158 234.853 135.363 234.869 135.458C234.885 135.553 234.795 135.648 234.669 135.669C234.543 135.691 234.226 135.947 233.965 136.239C233.704 136.531 233.263 136.929 232.985 137.124C232.707 137.318 232.222 137.764 231.908 138.115C230.621 139.552 227.17 142.885 226.697 143.149C226.536 143.238 226.416 143.379 226.43 143.461C226.443 143.543 225.841 144.202 225.09 144.926C224.339 145.649 223.699 146.355 223.666 146.495C223.634 146.635 223.413 146.782 223.174 146.823C222.908 146.868 222.44 147.265 221.96 147.853C221.531 148.38 220.918 149.081 220.598 149.412C220.279 149.743 220.068 150.067 220.13 150.132C220.191 150.197 220.241 150.56 220.24 150.939C220.237 151.671 220.254 151.657 218.553 152.234L217.981 152.428L218.147 153.727C218.326 155.127 219.425 157.807 219.92 158.051C220.064 158.122 220.246 158.436 220.324 158.748C220.402 159.06 220.592 159.38 220.746 159.458C220.901 159.535 221.173 159.866 221.351 160.193C221.529 160.519 221.758 160.817 221.861 160.854C221.963 160.891 222.067 161.042 222.092 161.189C222.117 161.336 222.561 161.783 223.079 162.183C223.597 162.582 224.382 163.335 224.824 163.856C225.316 164.436 225.747 164.783 225.937 164.752C226.108 164.724 226.311 164.768 226.389 164.85C226.467 164.933 226.444 165.015 226.337 165.033C225.924 165.103 226.254 165.542 226.93 165.821C227.319 165.982 227.653 166.204 227.673 166.315C227.692 166.426 227.956 166.602 228.259 166.706C228.562 166.811 229.208 167.246 229.695 167.674C230.638 168.501 230.679 168.513 237.629 170.005C242.389 171.027 243.751 171.345 244.673 171.648C245.233 171.832 245.792 171.966 245.916 171.946C246.039 171.926 246.234 171.64 246.349 171.311ZM238.189 165.997C237.667 165.371 237.786 164.956 238.918 163.449C240.405 161.47 240.873 160.815 240.859 160.733C240.841 160.628 242.243 158.987 242.757 158.511C243.009 158.277 243.273 157.897 243.343 157.667C243.547 156.992 244.855 155.29 245.217 155.229C245.402 155.197 245.734 154.813 245.965 154.364C246.193 153.92 246.695 153.233 247.081 152.838C247.466 152.443 247.831 152.01 247.891 151.876C247.951 151.741 248.086 151.617 248.191 151.599C248.296 151.581 248.72 151.231 249.133 150.821C250.618 149.348 252.614 147.459 252.917 147.24C253.088 147.116 253.211 146.92 253.191 146.802C253.171 146.685 253.266 146.571 253.401 146.548C253.537 146.525 253.777 146.318 253.936 146.089C254.094 145.86 254.743 145.234 255.377 144.698C256.647 143.627 256.671 143.604 258.547 141.71C260.238 140.004 260.714 139.746 261.402 140.164C262.222 140.661 262.123 140.965 260.744 142.182C260.046 142.798 259.159 143.69 258.773 144.163C258.386 144.636 257.805 145.205 257.48 145.427C257.155 145.65 256.531 146.223 256.094 146.7C255.657 147.177 255.104 147.709 254.865 147.882C254.349 148.254 252.745 149.749 251.532 150.988C251.056 151.475 250.629 151.879 250.583 151.887C250.538 151.895 250.302 152.135 250.059 152.421C249.109 153.539 247.928 154.768 247.78 154.793C247.586 154.826 246.201 156.608 244.597 158.888C243.929 159.837 243.113 160.944 242.783 161.347C242.161 162.108 240.802 163.923 239.904 165.196C239.26 166.107 238.555 166.437 238.189 165.997ZM231.176 164.659C230.593 164.254 230.573 163.625 231.111 162.638C231.651 161.648 234.112 158.504 234.384 158.458C234.516 158.436 234.606 158.313 234.585 158.186C234.545 157.954 236.52 155.491 236.781 155.447C236.858 155.434 237.285 154.921 237.731 154.307C238.93 152.656 242.323 149.298 242.89 149.201C242.968 149.188 243.746 148.412 244.618 147.476C245.49 146.54 246.632 145.391 247.156 144.922C248.132 144.049 250.748 140.783 251.461 139.547C251.895 138.794 252.523 138.433 253.099 138.605C253.613 138.758 253.908 139.467 253.666 139.968C253.306 140.714 250.776 144.043 250.539 144.083C250.41 144.105 250.256 144.236 250.197 144.375C250.137 144.513 249.747 144.963 249.329 145.374C248.911 145.785 248.338 146.402 248.055 146.745C247.771 147.088 247.465 147.381 247.374 147.397C247.283 147.413 246.97 147.662 246.679 147.95C246.389 148.238 246.066 148.488 245.962 148.506C245.858 148.524 245.71 148.705 245.634 148.91C245.557 149.114 245.063 149.59 244.535 149.968C243.321 150.838 242.02 152.061 241.187 153.118C240.831 153.571 240.481 153.951 240.409 153.963C240.338 153.975 239.88 154.504 239.392 155.139C238.903 155.773 238.208 156.555 237.848 156.875C237.019 157.612 234.151 161.18 234.193 161.423C234.21 161.523 233.922 161.867 233.554 162.188C232.886 162.768 232.885 162.771 233.323 162.976C233.749 163.176 233.755 163.2 233.534 163.741C233.109 164.777 231.98 165.217 231.176 164.659ZM226.411 160.677C226.045 160.44 226.159 159.625 226.683 158.72C226.957 158.247 227.459 157.296 227.798 156.608C228.136 155.92 228.537 155.288 228.689 155.204C228.84 155.119 228.94 154.909 228.911 154.736C228.878 154.545 229.175 154.15 229.669 153.729C230.115 153.348 230.99 152.386 231.614 151.59C232.237 150.795 233.138 149.726 233.615 149.215C234.092 148.704 234.622 148.079 234.792 147.827C234.963 147.574 235.329 147.208 235.607 147.014C235.885 146.819 236.367 146.374 236.679 146.024C236.99 145.673 237.85 144.822 238.589 144.131C239.329 143.441 240.014 142.772 240.112 142.645C240.211 142.519 240.617 142.087 241.015 141.687C242.528 140.165 243.297 139.23 243.717 138.407C243.957 137.935 243.995 137.92 244.453 138.1C245.099 138.354 245.397 139.081 245.104 139.687C244.82 140.276 242.125 143.256 241.831 143.306C241.712 143.326 241.358 143.679 241.043 144.09C239.991 145.467 237.82 147.633 236.86 148.262C236.723 148.352 236.1 149.057 235.476 149.829C234.852 150.6 234.184 151.375 233.993 151.55C233.801 151.726 233.407 152.212 233.116 152.63C232.825 153.049 232.373 153.56 232.111 153.765C231.849 153.971 231.613 154.279 231.584 154.449C231.556 154.619 231.389 154.829 231.214 154.914C231.038 155 230.737 155.387 230.544 155.774C230.352 156.162 229.745 157.14 229.196 157.948C228.647 158.755 228.219 159.538 228.244 159.688C228.354 160.33 227 161.06 226.411 160.677ZM308.541 145.94C308.86 145.601 308.923 145.448 308.731 145.48C308.572 145.506 308.281 145.751 308.084 146.023C307.625 146.656 307.916 146.604 308.541 145.94ZM309.027 135.492C309.227 135.45 309.888 135.349 310.496 135.268C311.104 135.186 312.707 134.888 314.059 134.606C315.41 134.324 317.405 133.909 318.493 133.685C319.581 133.461 320.941 133.095 321.516 132.872L322.561 132.467L322.36 131.54C322.249 131.03 322.091 129.793 322.007 128.791C321.865 127.09 321.831 126.967 321.494 126.928C321.295 126.905 319.325 127.226 317.115 127.642C314.906 128.057 311.932 128.522 310.507 128.675C309.082 128.829 307.313 129.022 306.577 129.105C305.84 129.189 305.15 129.225 305.044 129.186C304.856 129.118 303.303 129.153 301.374 129.269C300.861 129.3 299.696 129.429 298.784 129.555C297.054 129.795 295.108 129.842 294.518 129.659C294.328 129.6 293.82 129.612 293.389 129.685C292.958 129.759 292.293 129.725 291.911 129.611C291.529 129.497 290.673 129.442 290.008 129.489C289.344 129.535 288.447 129.49 288.015 129.389C286.792 129.102 286.034 129.063 284.024 129.188C282.999 129.251 282.009 129.258 281.825 129.203C281.641 129.148 281.206 129.152 280.858 129.211C280.295 129.306 279.578 129.274 277.582 129.062C277.258 129.028 276.649 129.058 276.229 129.129C275.809 129.201 275.005 129.176 274.443 129.075C273.88 128.973 272.997 128.895 272.48 128.901C271.963 128.907 271.238 128.883 270.869 128.849C270.501 128.815 269.513 128.74 268.674 128.682C267.835 128.625 266.972 128.539 266.757 128.492C266.179 128.366 263.782 128.292 263.243 128.384C262.986 128.428 262.665 128.391 262.528 128.303C262.392 128.214 261.663 128.104 260.908 128.058C260.153 128.011 258.826 127.859 257.958 127.72C257.09 127.581 256.275 127.485 256.147 127.507C256.018 127.529 255.671 127.444 255.374 127.318C255.078 127.192 254.663 127.073 254.452 127.054C254.242 127.035 253.369 126.89 252.513 126.732C249.293 126.136 247.449 125.842 247.041 125.859C246.67 125.873 246.633 125.949 246.725 126.493C246.783 126.833 246.773 127.195 246.704 127.298C246.541 127.538 246.196 129.319 246.027 130.789C245.955 131.422 245.829 132.053 245.748 132.191C245.666 132.33 245.611 132.682 245.626 132.974C245.648 133.408 245.795 133.584 246.435 133.945C247.199 134.375 249.407 134.772 250.36 134.651C250.607 134.619 250.857 134.679 250.916 134.784C250.976 134.888 251.137 134.955 251.275 134.931C251.414 134.908 251.866 135.028 252.281 135.199C252.695 135.369 253.254 135.513 253.521 135.518C253.789 135.523 254.361 135.612 254.793 135.715C256.085 136.025 257.069 136.159 258.197 136.177C258.784 136.187 259.732 136.274 260.303 136.372C260.875 136.469 261.513 136.558 261.723 136.57C261.932 136.582 262.279 136.629 262.494 136.673C262.709 136.718 263.138 136.752 263.449 136.749C263.759 136.746 264.439 136.757 264.96 136.772C265.481 136.788 266.162 136.804 266.474 136.809C266.786 136.814 267.139 136.897 267.259 136.993C267.453 137.148 268.5 137.279 269.57 137.283C269.777 137.283 270.552 137.353 271.292 137.438C272.032 137.522 273.06 137.585 273.577 137.576C274.094 137.568 275.622 137.579 276.973 137.6C278.324 137.622 279.852 137.638 280.369 137.636C280.885 137.634 281.527 137.667 281.795 137.709C282.062 137.752 282.915 137.773 283.689 137.756C284.464 137.74 285.314 137.751 285.578 137.781C285.842 137.811 286.406 137.781 286.832 137.714C287.257 137.648 287.776 137.644 287.985 137.706C288.193 137.768 288.891 137.742 289.536 137.647C290.18 137.551 290.972 137.531 291.295 137.6C291.811 137.711 295.367 137.466 300.608 136.958C301.922 136.831 306.023 136.116 309.027 135.492ZM219.316 148.693C219.464 148.668 219.564 148.527 219.539 148.379C219.514 148.231 219.633 148.05 219.803 147.977C219.973 147.904 220.214 147.597 220.338 147.295C220.462 146.993 220.697 146.723 220.86 146.695C221.024 146.667 221.358 146.386 221.603 146.069C221.847 145.753 222.395 145.222 222.82 144.89C223.245 144.558 223.716 144.136 223.867 143.953C224.018 143.77 224.483 143.289 224.901 142.884C225.319 142.479 225.888 141.889 226.166 141.574C226.444 141.259 226.873 140.926 227.119 140.834C227.366 140.742 227.664 140.43 227.783 140.14C227.902 139.85 228.395 139.274 228.879 138.859C229.821 138.051 230.191 137.691 231.098 136.698C232.073 135.631 233.632 134.283 233.956 134.228C234.124 134.2 234.21 134.087 234.146 133.979C234.081 133.871 234.342 133.516 234.724 133.191C236.056 132.06 236.568 131.563 237.254 130.737C237.634 130.279 237.977 129.9 238.016 129.893C238.055 129.886 238.611 129.372 239.251 128.749C240.624 127.413 241.999 125.634 241.772 125.486C241.684 125.429 241.097 125.761 240.469 126.224C239.84 126.688 239.195 127.089 239.036 127.116C238.877 127.143 238.381 127.399 237.935 127.686C235.313 129.367 233.358 130.644 231.866 131.65C230.936 132.277 230.044 132.812 229.883 132.838C229.723 132.865 229.461 133.073 229.303 133.301C229.144 133.529 228.677 133.975 228.264 134.293C227.852 134.611 227.465 134.981 227.405 135.116C227.345 135.25 227.109 135.392 226.881 135.43C226.653 135.469 226.264 135.775 226.017 136.11C225.769 136.445 225.329 136.915 225.038 137.153C224.747 137.392 224.484 137.738 224.453 137.923C224.423 138.109 224.297 138.302 224.174 138.353C223.921 138.457 221.46 141.919 221.493 142.123C221.504 142.196 221.259 142.544 220.948 142.897C220.637 143.25 220.165 144.001 219.9 144.566C218.989 146.508 218.012 149.003 217.963 149.514L217.913 150.027L218.48 149.383C218.793 149.029 219.169 148.718 219.316 148.693ZM315.526 125.488C315.662 125.274 315.785 125.232 315.979 125.334C316.153 125.426 317.201 125.282 319.039 124.915C320.576 124.607 321.839 124.349 321.847 124.341C321.853 124.334 321.52 122.373 321.105 119.986C320.594 117.05 320.261 115.545 320.079 115.338C319.931 115.17 319.788 114.764 319.761 114.437C319.733 114.11 319.578 113.67 319.416 113.459C319.254 113.248 318.97 112.554 318.784 111.917C318.21 109.943 318.163 109.8 317.694 108.628C317.217 107.434 316.788 106.788 316.504 106.837C316.411 106.852 316.169 107.069 315.966 107.319C315.279 108.162 313.916 109.614 312.33 111.191C310.536 112.977 310.384 113.117 307.172 115.973C306.699 116.394 306.325 116.812 306.341 116.903C306.356 116.995 306.009 117.305 305.57 117.593C305.13 117.881 304.387 118.62 303.917 119.234C301.778 122.032 300.39 124.042 300.468 124.229C300.515 124.342 300.391 124.607 300.193 124.82C299.766 125.277 299.321 127.114 299.65 127.062C300.037 127 305.995 126.66 307.239 126.628C307.91 126.611 309.449 126.438 310.66 126.244C311.871 126.05 313.324 125.871 313.89 125.848C314.456 125.824 315.014 125.8 315.13 125.793C315.246 125.787 315.424 125.65 315.526 125.488ZM306.751 125.144C306.558 125.08 306.37 124.844 306.332 124.621C306.247 124.124 306.48 123.295 306.715 123.255C306.81 123.239 307.941 121.867 309.229 120.207C310.517 118.546 311.778 117.041 312.033 116.862C312.287 116.682 312.484 116.465 312.469 116.378C312.454 116.292 312.78 115.957 313.192 115.635C313.604 115.313 313.985 114.938 314.04 114.803C314.203 114.393 316.314 112.622 317.049 112.278C317.591 112.025 317.803 111.992 318.053 112.123C318.452 112.333 318.527 112.723 318.203 112.904C318.067 112.979 317.939 113.253 317.918 113.511C317.882 113.963 316.543 115.509 316.127 115.58C316.02 115.598 315.873 115.772 315.8 115.967C315.728 116.162 315.39 116.548 315.051 116.826C314.712 117.103 314.312 117.471 314.163 117.643C314.013 117.815 313.526 118.331 313.08 118.788C312.634 119.246 312.244 119.761 312.214 119.933C312.184 120.106 312.089 120.258 312.004 120.273C311.919 120.287 311.421 120.763 310.897 121.329C310.373 121.895 309.866 122.372 309.771 122.388C309.573 122.422 309.299 123.229 309.361 123.594C309.384 123.729 309.294 123.858 309.161 123.881C309.027 123.903 308.633 124.202 308.284 124.545C307.606 125.213 307.304 125.331 306.751 125.144ZM315.833 122.842C315.525 122.471 315.606 122.065 316.159 121.221C316.403 120.849 317.25 119.005 317.23 118.89C317.164 118.5 317.975 117.364 318.451 117.181C319.13 116.919 319.435 117.075 319.872 117.908L320.214 118.562L319.312 119.705C318.816 120.333 318.22 121.221 317.988 121.677C317.624 122.39 316.835 123.098 316.302 123.188C316.215 123.203 316.004 123.047 315.833 122.842ZM298.078 127.06C298.069 127.01 297.909 126.816 297.72 126.628C297.266 126.174 297.314 125.292 297.816 124.859C298.03 124.675 298.295 124.271 298.405 123.961C298.516 123.652 298.706 123.249 298.828 123.067C298.95 122.884 299.412 122.155 299.855 121.447C300.831 119.885 302.8 117.492 303.917 116.509C304.741 115.785 305.476 115.084 306.462 114.082C306.754 113.785 307.861 112.71 308.921 111.693C309.981 110.677 311.206 109.402 311.643 108.86C312.08 108.318 312.489 107.866 312.552 107.855C312.616 107.844 313.198 107.279 313.847 106.599C314.495 105.918 315.26 105.117 315.546 104.817C316.13 104.205 316.132 103.64 315.55 102.795C315.139 102.198 314.643 101.207 314.405 100.51C314.313 100.239 313.995 99.6293 313.697 99.1547C313.4 98.68 313.094 98.1071 313.018 97.8814C312.844 97.3701 312.028 96.1395 311.88 96.167C311.82 96.1782 311.5 96.6817 311.169 97.286C310.358 98.7645 309.871 99.3914 308.414 100.828C307.971 101.265 307.528 101.776 307.43 101.964C307.332 102.151 306.971 102.527 306.629 102.799C306.286 103.071 305.793 103.539 305.533 103.84C304.938 104.529 303.94 105.326 303.6 105.384C303.457 105.408 303.234 105.677 303.105 105.982C302.975 106.287 302.691 106.667 302.474 106.827C302.256 106.987 301.584 107.632 300.981 108.261C300.377 108.89 299.551 109.693 299.144 110.045C298.738 110.398 297.484 111.664 296.358 112.86C295.233 114.055 294.055 115.24 293.741 115.492C293.426 115.744 293.087 116.08 292.986 116.239C292.671 116.736 291.229 118.186 290.646 118.592C290.341 118.806 290.063 119.098 290.03 119.242C289.997 119.386 289.598 119.881 289.143 120.343C287.32 122.194 285.72 124.2 285.781 124.559C285.857 125.008 285.128 125.729 284.367 125.958C283.766 126.138 283.6 126.118 283.29 125.827C282.659 125.236 282.765 124.897 284.096 123.24C284.802 122.361 285.64 121.32 285.957 120.925C286.275 120.53 286.481 120.15 286.415 120.08C286.349 120.011 286.45 119.928 286.639 119.896C286.827 119.864 287.324 119.39 287.743 118.842C288.161 118.295 288.586 117.833 288.687 117.815C288.787 117.797 289.113 117.466 289.41 117.079C289.707 116.693 290.184 116.162 290.47 115.901C291.617 114.85 294.11 112.327 294.549 111.772C294.806 111.448 295.085 111.17 295.17 111.156C295.255 111.141 295.597 110.801 295.93 110.399C296.263 109.997 297.387 108.936 298.427 108.04C299.466 107.144 300.386 106.314 300.469 106.194C300.746 105.798 302.546 104.085 303.307 103.492C303.719 103.171 304.201 102.69 304.378 102.423C304.556 102.155 305.108 101.537 305.605 101.048C306.103 100.56 306.501 100.105 306.489 100.038C306.478 99.9705 306.61 99.8207 306.783 99.7051C307.193 99.4311 308.985 96.7274 309.251 95.9815C309.493 95.3035 310.503 94.8254 311.07 95.1208C311.363 95.2736 311.375 95.2265 311.184 94.6868C311.066 94.3538 310.708 93.8301 310.39 93.523C310.071 93.2158 309.787 92.8303 309.759 92.6663C309.679 92.1929 309.443 92.3595 309.079 93.1463C308.894 93.547 308.625 93.9638 308.481 94.0725C307.149 95.0797 304.073 97.9906 303.132 99.1338C302.832 99.4993 302.122 100.117 301.556 100.507C300.989 100.897 300.359 101.428 300.155 101.689C299.951 101.949 299.46 102.443 299.064 102.787C298.668 103.131 298.04 103.677 297.668 103.999C297.296 104.322 296.618 104.881 296.161 105.241C295.279 105.935 294.379 106.736 294.054 107.115C293.946 107.241 293.424 107.629 292.893 107.976C292.362 108.323 291.939 108.672 291.952 108.751C291.966 108.83 291.584 109.206 291.105 109.586C290.625 109.966 289.929 110.578 289.558 110.947C288.599 111.899 288.075 112.369 287.915 112.418C287.839 112.441 287.388 112.913 286.911 113.465C286.435 114.018 285.818 114.629 285.54 114.824C284.952 115.237 283.513 116.762 282.759 117.772C282.47 118.158 282.178 118.484 282.108 118.496C281.849 118.54 281.196 119.756 281.253 120.089C281.308 120.416 280.736 121.42 280.468 121.465C280.295 121.495 279.409 122.32 278.703 123.11C277.986 123.913 277.201 124.116 276.683 123.632C276.055 123.044 276.095 122.935 277.639 121.036C278.022 120.564 278.931 119.394 279.659 118.435C280.387 117.476 281.048 116.68 281.127 116.666C281.278 116.641 284.12 113.889 285.132 112.789C285.452 112.44 286.056 111.823 286.473 111.418C286.89 111.013 287.312 110.585 287.411 110.468C287.51 110.349 288.007 109.957 288.515 109.595C289.024 109.233 289.653 108.693 289.913 108.396C290.173 108.098 290.835 107.497 291.382 107.061C291.93 106.624 292.865 105.77 293.461 105.163C294.057 104.555 294.861 103.799 295.248 103.481C295.636 103.164 296.388 102.528 296.921 102.069C297.453 101.609 298.2 100.985 298.579 100.682C299.238 100.156 301.4 98.0661 303.121 96.2924C303.561 95.8378 304.549 94.9135 305.315 94.2385C306.082 93.5634 306.891 92.8334 307.113 92.6162C307.335 92.399 307.8 92.015 308.146 91.7629C308.491 91.5108 308.765 91.2482 308.753 91.1793C308.711 90.9336 307.117 89.4889 306.834 89.4398C306.675 89.4122 306.39 89.5725 306.2 89.796C306.01 90.0193 305.665 90.3342 305.433 90.4958C305.202 90.6572 304.584 91.2655 304.061 91.8473C303.538 92.4292 302.842 93.1104 302.515 93.3612C302.187 93.612 301.352 94.3734 300.659 95.0534C299.966 95.7333 299.198 96.4799 298.954 96.7125C298.709 96.9451 298.133 97.5311 297.674 98.0149C297.215 98.4987 296.769 98.9064 296.683 98.9209C296.597 98.9355 296.114 99.4158 295.609 99.9882C295.105 100.561 294.426 101.214 294.102 101.441C293.778 101.668 293.244 102.18 292.916 102.58C292.588 102.98 292.233 103.322 292.128 103.34C292.022 103.358 291.699 103.628 291.41 103.94C290.185 105.261 285.796 109.45 285.603 109.483C285.507 109.499 285.057 109.947 284.604 110.477C283.682 111.556 283.007 112.212 281.499 113.499C280.934 113.981 280.489 114.484 280.511 114.615C280.534 114.747 280.49 114.867 280.415 114.882C280.34 114.897 279.891 115.364 279.418 115.919C278.945 116.475 278.502 116.939 278.434 116.95C278.277 116.977 275.218 120.046 274.913 120.483C274.788 120.662 274.265 121.177 273.752 121.627C273.238 122.078 272.634 122.667 272.409 122.936C271.894 123.552 271.847 123.557 271.129 123.068C270.263 122.479 270.424 121.703 271.578 120.897C272.152 120.497 275.013 117.8 275.163 117.518C275.202 117.444 275.652 116.977 276.164 116.479C276.675 115.981 277.082 115.507 277.068 115.426C277.055 115.344 277.137 115.261 277.252 115.241C277.367 115.222 277.754 114.878 278.112 114.478C278.469 114.077 279.273 113.308 279.897 112.768C280.521 112.229 281.592 111.187 282.277 110.454C282.962 109.721 284.091 108.619 284.787 108.005C285.483 107.391 286.212 106.745 286.406 106.569C286.601 106.393 286.973 106.059 287.234 105.828C287.496 105.597 287.931 105.172 288.201 104.883C288.471 104.594 289.407 103.69 290.281 102.873C291.155 102.056 292.019 101.196 292.202 100.962C292.385 100.728 292.903 100.209 293.354 99.8089C294.501 98.7889 295.852 97.4751 296.709 96.5453C297.11 96.1104 298.002 95.2293 298.69 94.5872C299.379 93.9451 300.202 93.1324 300.519 92.7812C300.837 92.43 301.343 91.9709 301.644 91.7611C301.945 91.5512 302.181 91.3182 302.168 91.2432C302.156 91.1681 302.565 90.7296 303.078 90.2686C303.591 89.8075 304.21 89.2146 304.453 88.9511C304.873 88.4967 304.878 88.4499 304.549 88.0431C304.332 87.7752 303.871 87.549 303.319 87.4408C302.834 87.3454 302.429 87.2258 302.42 87.1749C302.411 87.1241 302.1 87.168 301.729 87.2726C301.042 87.4667 298.115 89.5663 298.16 89.8325C298.173 89.9129 297.862 90.2018 297.468 90.4744C297.074 90.747 296.488 91.2387 296.166 91.5671C295.844 91.8955 295.47 92.1882 295.334 92.2177C295.199 92.2466 294.651 92.6943 294.117 93.2113C293.583 93.7284 292.88 94.3321 292.555 94.5527C292.229 94.7734 291.744 95.2439 291.475 95.5984C291.206 95.953 290.857 96.2651 290.698 96.2921C290.539 96.3191 290.42 96.4041 290.433 96.4813C290.463 96.6581 289.089 97.9541 288.824 97.9991C288.716 98.0176 288.435 98.2831 288.201 98.5893C287.411 99.6232 285.049 101.937 284.726 101.993C284.55 102.023 284.418 102.117 284.432 102.202C284.447 102.287 284.074 102.712 283.604 103.147C283.133 103.582 282.564 104.206 282.339 104.534C282.114 104.861 281.784 105.165 281.606 105.209C281.428 105.253 281.003 105.644 280.662 106.079C280.322 106.513 279.922 106.967 279.775 107.088C279.628 107.208 279.015 107.846 278.414 108.505C277.813 109.164 276.98 109.941 276.563 110.233C276.146 110.524 275.456 111.206 275.03 111.748C274.334 112.635 273.625 113.365 272.85 113.993C272.701 114.114 271.715 115.062 270.66 116.101C269.605 117.14 268.531 118.121 268.273 118.282C268.015 118.443 267.818 118.652 267.834 118.746C267.85 118.841 267.516 119.143 267.093 119.419C266.238 119.975 264.627 122 264.695 122.433C264.719 122.587 264.542 122.793 264.298 122.895C263.885 123.067 263.802 123.392 264.007 124.04C264.08 124.271 263.012 124.951 262.418 125.052C261.309 125.241 261.09 124.129 261.964 122.744C262.311 122.194 262.695 121.722 262.817 121.696C262.939 121.67 263.113 121.449 263.204 121.205C263.366 120.774 264.882 118.905 265.101 118.868C265.161 118.858 265.401 118.596 265.634 118.287C265.867 117.978 266.543 117.337 267.137 116.862C268.118 116.078 268.906 115.391 270.855 113.618C271.771 112.786 273.167 111.394 274.616 109.867C275.276 109.173 276.038 108.418 276.31 108.188C276.582 107.959 277.388 107.125 278.101 106.333C278.814 105.542 279.773 104.519 280.231 104.059C280.69 103.599 281.291 102.984 281.567 102.692C281.844 102.4 282.436 101.831 282.885 101.427C283.333 101.023 284.038 100.362 284.451 99.9572C284.865 99.5528 285.877 98.5997 286.7 97.8392C287.524 97.0787 288.46 96.1686 288.78 95.8169C289.101 95.4651 289.59 95.0184 289.868 94.824C290.146 94.6297 290.516 94.2633 290.69 94.0098C290.864 93.7563 291.334 93.2788 291.734 92.9487C292.135 92.6185 292.906 91.9594 293.447 91.484C293.988 91.0087 294.734 90.4125 295.106 90.1592C295.477 89.9058 295.995 89.461 296.257 89.1705L296.733 88.6423L296.017 88.8667C295.623 88.9901 295.072 89.1276 294.793 89.1724C294.265 89.2561 293.164 89.8432 291.557 90.8965C291.044 91.2325 290.519 91.5078 290.391 91.5082C290.262 91.5085 289.987 91.6364 289.779 91.7921C289.282 92.1648 288.256 92.7083 287.944 92.7646C287.807 92.7893 287.205 93.1324 286.606 93.5273C286.006 93.9221 285.217 94.3406 284.852 94.4573C284.209 94.6629 281.533 96.4179 281.455 96.6853C281.434 96.7582 280.886 97.2758 280.237 97.8356C279.589 98.3954 278.624 99.2913 278.093 99.8264C277.562 100.362 276.605 101.244 275.968 101.788C275.33 102.332 274.719 102.916 274.611 103.087C274.502 103.258 274.28 103.422 274.116 103.452C273.952 103.481 273.394 104.003 272.876 104.612C272.357 105.221 271.839 105.737 271.725 105.759C271.61 105.783 271.156 106.219 270.716 106.73C270.276 107.241 269.827 107.627 269.719 107.588C269.611 107.549 269.418 107.732 269.291 107.995C269.164 108.259 268.943 108.494 268.801 108.518C268.658 108.542 268.331 108.875 268.073 109.258C267.815 109.64 267.355 110.101 267.052 110.281C266.491 110.614 266.122 110.974 264.945 112.341C264.584 112.761 264.229 113.114 264.155 113.127C263.847 113.179 261.548 115.772 260.367 117.4C258.821 119.531 258.096 120.374 257.647 120.561C257.098 120.79 256.901 120.684 256.632 120.014C256.466 119.603 256.495 119.457 256.781 119.25C256.975 119.109 257.118 118.902 257.098 118.789C257.058 118.564 259.683 115.275 259.938 115.232C260.083 115.207 260.398 114.843 261.707 113.185C261.963 112.861 262.261 112.58 262.369 112.562C262.477 112.544 262.727 112.306 262.924 112.034C263.121 111.762 263.392 111.52 263.525 111.498C263.659 111.475 263.755 111.379 263.739 111.284C263.71 111.113 267.5 107.37 267.795 107.279C268.15 107.169 268.236 107.101 268.687 106.579C270.111 104.933 271.25 103.762 271.464 103.726C271.597 103.703 271.878 103.417 272.089 103.089C272.3 102.761 272.85 102.162 273.311 101.757C273.772 101.352 274.552 100.64 275.043 100.175C275.534 99.7104 276.05 99.2557 276.19 99.1649C276.33 99.0739 276.765 98.6385 277.156 98.1971C277.548 97.7557 278.133 97.2089 278.457 96.982C278.782 96.755 279.204 96.3507 279.396 96.0835L279.746 95.5975L278.729 95.1137C278.17 94.8476 277.501 94.4425 277.243 94.2135C276.985 93.9845 276.69 93.8114 276.587 93.8289C276.484 93.8465 275.718 94.6014 274.886 95.5066C274.054 96.4119 273.283 97.1677 273.174 97.1863C273.065 97.2048 272.607 97.6695 272.158 98.2188C271.708 98.7681 271.124 99.308 270.859 99.4185C270.594 99.5291 269.975 100.146 269.482 100.789C268.99 101.432 268.463 101.979 268.31 102.005C268.158 102.031 267.948 102.216 267.843 102.416C267.654 102.779 266.721 103.72 265.135 105.148C264.678 105.56 263.8 106.393 263.183 106.999C262.566 107.605 261.937 108.122 261.784 108.148C261.631 108.174 261.269 108.49 260.979 108.849C259.99 110.076 257.989 112.059 257.181 112.612C256.949 112.771 256.709 113.008 256.649 113.14C256.588 113.271 256.481 113.389 256.41 113.401C256.244 113.43 254.53 115.408 253.259 117.038C252.506 118.004 252.331 118.338 252.539 118.417C252.69 118.473 252.876 118.511 252.952 118.499C253.374 118.435 252.899 119.984 252.474 120.06C252.283 120.093 251.026 121.11 250.919 121.316C250.795 121.557 249.173 122.905 248.603 123.241C248.168 123.497 248.039 123.504 247.67 123.29C247.336 123.096 247.247 122.914 247.262 122.459C247.277 121.999 247.795 121.228 249.717 118.807C253.587 113.932 256.411 110.828 258.349 109.32C258.524 109.184 258.822 108.886 259.013 108.657C259.367 108.231 260.221 107.411 261.976 105.813C263.944 104.019 264.641 103.286 264.602 103.053C264.58 102.922 264.665 102.798 264.791 102.777C265.004 102.741 265.626 102.176 268.367 99.5297C270.216 97.745 271.429 96.4861 274.147 93.5299L274.902 92.7098L274.505 92.3092C274.287 92.089 273.881 91.7822 273.602 91.6276L273.095 91.3464L272.202 92.2587C271.711 92.7605 271.202 93.2937 271.072 93.4437C270.942 93.5936 270.67 93.8342 270.466 93.9781C270.263 94.1219 269.775 94.5867 269.383 95.0107C268.185 96.3039 267.251 97.151 266.969 97.1989C266.821 97.224 266.569 97.4818 266.407 97.7718C266.246 98.0618 265.893 98.4534 265.625 98.6419C265.356 98.8306 264.64 99.4403 264.035 99.997C263.429 100.554 262.886 101.017 262.827 101.027C262.768 101.037 262.531 101.266 262.301 101.535C260.802 103.288 259.742 104.419 258.867 105.2C257.762 106.185 256.959 106.993 255.969 108.115C255.611 108.521 255.081 109.018 254.792 109.219C253.993 109.774 252.066 112.346 252.041 112.891C251.984 114.097 251.908 114.25 251.27 114.45C250.735 114.617 250.592 114.586 250.247 114.229C250.027 114 249.82 113.655 249.787 113.462C249.712 113.016 251.392 110.389 252.206 109.681C252.545 109.386 252.811 109.078 252.797 108.995C252.783 108.913 253.197 108.48 253.718 108.034C254.238 107.588 254.857 106.992 255.094 106.71C255.331 106.427 255.54 106.266 255.558 106.353C255.577 106.439 255.671 106.372 255.768 106.204C256.102 105.63 258.627 103.097 259.144 102.817C259.31 102.728 259.426 102.538 259.402 102.396C259.378 102.254 259.461 102.119 259.587 102.097C259.713 102.074 260.123 101.673 260.499 101.204C260.875 100.735 261.458 100.11 261.795 99.8138C262.132 99.5179 263.003 98.6836 263.729 97.9598C264.456 97.2361 265.344 96.399 265.703 96.0996C266.062 95.8003 266.478 95.4161 266.627 95.2459C266.776 95.0757 267.304 94.5863 267.802 94.1583C268.61 93.4628 269.661 92.4331 271.057 90.9713C271.512 90.4943 271.515 90.4707 271.142 90.2006C270.93 90.0473 270.401 89.8254 269.966 89.7074C269.532 89.5894 269.036 89.4176 268.865 89.3259C268.694 89.2342 268.354 89.1378 268.109 89.1119C267.756 89.0745 267.655 89.1413 267.623 89.4342C267.601 89.6375 267.507 89.8168 267.413 89.8327C267.319 89.8486 267.055 90.1056 266.825 90.4038C266.437 90.9087 265.651 91.7778 263.692 93.8698C263.254 94.337 262.476 95.0737 261.963 95.5069C261.449 95.9402 260.993 96.3745 260.949 96.4722C260.905 96.5698 260.443 96.9422 259.922 97.2996C259.402 97.657 258.882 98.1411 258.768 98.3754C258.653 98.6096 258.414 98.826 258.237 98.8561C258.059 98.8863 257.831 99.0423 257.729 99.2028C257.627 99.3633 257.435 99.5132 257.301 99.5359C257.168 99.5586 256.861 99.8166 256.621 100.109C256.38 100.402 255.995 100.799 255.764 100.993C254.092 102.393 252.345 104.305 252.019 105.091C251.82 105.57 251.556 106.042 251.434 106.14C251.312 106.237 251.236 106.46 251.266 106.635C251.296 106.811 251.244 107.017 251.15 107.094C250.955 107.253 249.925 110.163 250.072 110.138C250.126 110.129 250.054 110.45 249.913 110.852C249.772 111.255 249.671 111.669 249.689 111.774C249.707 111.879 249.478 112.449 249.18 113.039C248.499 114.39 248.217 115.029 248.257 115.133C248.275 115.178 248.177 115.427 248.042 115.686C247.906 115.945 247.817 116.283 247.843 116.436C247.869 116.59 247.777 116.838 247.638 116.987C247.338 117.308 246.978 118.638 247.107 118.944C247.157 119.062 247.138 119.26 247.065 119.385C246.735 119.948 246.65 121.471 246.882 122.633L247.129 123.864L247.9 123.974C248.324 124.035 248.863 124.053 249.098 124.015C249.332 123.976 250.286 124.096 251.216 124.281C252.146 124.466 253.214 124.672 253.588 124.737C253.961 124.803 255.013 125.001 255.924 125.177C257.976 125.575 264.15 126.176 265.779 126.137C266.082 126.13 266.896 126.178 267.588 126.243C269.672 126.441 272.979 126.68 274.087 126.714C274.66 126.731 275.902 126.809 276.848 126.887C277.795 126.965 279.287 127.013 280.164 126.994C282.995 126.933 288.703 126.976 289.882 127.066C291.676 127.205 296.847 127.282 297.769 127.184C297.947 127.165 298.086 127.11 298.078 127.06ZM292.056 124.69C291.422 124.028 291.581 123.707 294.173 120.425C295.56 118.669 297.349 116.601 298.15 115.829C298.951 115.058 299.929 114.083 300.324 113.664C300.719 113.244 301.556 112.431 302.184 111.856C303.423 110.722 304.011 110.122 305.135 108.842C305.537 108.385 306.145 107.787 306.487 107.513C306.829 107.24 307.1 106.96 307.088 106.891C307.059 106.717 310.21 103.366 310.725 103.024C311.087 102.783 311.755 103.304 311.858 103.907C311.934 104.354 311.791 104.655 311.098 105.51C310.629 106.089 310.038 106.731 309.786 106.938C309.534 107.145 309.082 107.626 308.783 108.006C308.484 108.387 308.117 108.792 307.969 108.906C307.82 109.02 307.387 109.456 307.005 109.874C305.266 111.78 304.291 112.738 302.167 114.629C301.5 115.223 300.646 116.117 300.269 116.616C299.862 117.153 299.417 117.551 299.176 117.592C298.946 117.631 298.64 117.89 298.472 118.189C298.129 118.797 298.126 118.802 297.355 119.633C297.036 119.977 296.685 120.544 296.575 120.892C296.446 121.296 296.275 121.509 296.102 121.479C295.946 121.452 295.731 121.639 295.595 121.919C295.371 122.383 294.84 122.874 294.177 123.231C294.011 123.321 293.885 123.481 293.897 123.587C293.926 123.838 293.078 124.704 292.655 124.855C292.473 124.921 292.207 124.847 292.056 124.69ZM255.245 99.4766C255.588 99.0978 256.186 98.5676 256.574 98.2984C256.962 98.0291 257.47 97.5801 257.704 97.3004C257.937 97.0208 258.223 96.7759 258.338 96.7563C258.454 96.7367 258.974 96.251 259.494 95.677C260.014 95.1031 260.592 94.5358 260.779 94.4164C261.263 94.1077 262.228 93.1124 264.036 91.058C264.9 90.0757 265.736 89.2502 265.893 89.2235C266.225 89.167 266.414 88.8533 266.169 88.7641C265.882 88.6596 262.83 89.7612 262.569 90.0639C262.432 90.222 262.215 90.3692 262.086 90.3911C261.957 90.4129 261.578 90.7117 261.244 91.0549C260.91 91.3981 260.555 91.6927 260.456 91.7096C260.174 91.7575 257.937 94.2385 257.852 94.5978C257.811 94.7749 257.602 95.0436 257.389 95.1951C256.617 95.7434 255.571 97.1532 254.87 98.5905C254.221 99.921 254.146 100.246 254.502 100.186C254.567 100.174 254.902 99.8554 255.245 99.4766ZM319.978 169.225C319.496 168.912 319.602 167.587 320.116 167.5C320.358 167.459 321.547 166.002 321.735 165.517C321.834 165.263 322.139 164.815 322.414 164.521C323.107 163.779 323.782 162.838 324.957 160.97C325.706 159.781 329.444 155.363 331.14 153.662C331.763 153.037 332.366 152.406 332.481 152.258C332.595 152.11 332.907 151.836 333.175 151.647C333.442 151.459 333.888 151.012 334.166 150.653C334.817 149.81 336.253 148.172 337.147 147.251C337.533 146.853 338.265 145.978 338.772 145.307C339.28 144.635 339.942 143.914 340.243 143.704C340.544 143.493 340.772 143.209 340.748 143.073C340.725 142.936 340.821 142.804 340.962 142.78C341.103 142.756 341.835 141.961 342.588 141.013C343.342 140.065 344.162 139.146 344.411 138.971C344.659 138.796 345.055 138.347 345.291 137.973C345.698 137.325 345.752 137.296 346.425 137.35C347.14 137.409 347.567 137.732 347.662 138.289C347.711 138.582 346.191 140.456 345.93 140.424C345.861 140.416 345.253 141.105 344.581 141.955C343.908 142.806 342.793 144.162 342.103 144.969C341.413 145.775 340.495 146.849 340.062 147.354C339.63 147.859 339.219 148.283 339.15 148.295C339.08 148.307 338.539 148.867 337.948 149.539C337.356 150.21 336.782 150.777 336.671 150.797C336.56 150.817 336.123 151.303 335.701 151.876C334.952 152.891 332.941 155.079 332.723 155.116C332.663 155.127 332.229 155.624 331.759 156.222C331.289 156.821 330.689 157.395 330.425 157.499C330.156 157.605 329.791 157.984 329.591 158.367C329.395 158.74 328.822 159.612 328.318 160.304C327.814 160.996 327.196 161.854 326.946 162.211C326.695 162.567 326.276 163.095 326.014 163.384C325.753 163.673 325.064 164.591 324.485 165.423C323.905 166.255 323.306 166.997 323.155 167.071C323.003 167.145 322.598 167.526 322.254 167.918C321.911 168.31 321.505 168.77 321.352 168.939C321.019 169.309 320.329 169.452 319.978 169.225ZM310.486 168.534C310.001 167.817 309.999 167.738 310.464 167.264C310.683 167.041 311.676 165.874 312.67 164.671C313.664 163.468 314.643 162.335 314.845 162.154C315.047 161.972 316.004 160.765 316.972 159.47C317.939 158.176 318.92 156.981 319.151 156.814C319.382 156.648 320.214 155.807 321.001 154.947C321.787 154.087 322.909 152.955 323.494 152.432C324.079 151.91 325.47 150.615 326.586 149.555C327.701 148.496 329.059 147.252 329.602 146.791C331.695 145.018 334.36 142.304 335.77 140.51C336.06 140.142 336.528 139.656 336.812 139.43C337.095 139.203 337.53 138.778 337.778 138.484C338.025 138.191 338.497 137.631 338.825 137.241C339.578 136.346 340.803 135.169 341.019 135.132C341.11 135.117 341.615 134.713 342.141 134.236C342.666 133.759 343.22 133.389 343.37 133.415C343.939 133.514 344.486 134.891 343.989 134.975C343.838 135.001 343.732 135.123 343.753 135.247C343.774 135.37 343.026 136.212 342.092 137.116C341.157 138.021 340.403 138.82 340.415 138.894C340.428 138.967 340.273 139.107 340.071 139.205C339.665 139.403 339.642 139.425 338.062 141.126C337.449 141.787 336.793 142.565 336.605 142.857C336.417 143.148 335.986 143.605 335.647 143.874C335.309 144.142 334.964 144.464 334.881 144.589C334.799 144.713 334.419 145.061 334.037 145.362C333.655 145.664 332.948 146.384 332.466 146.964C331.984 147.544 331.468 148.039 331.319 148.064C331.17 148.089 330.842 148.348 330.59 148.638C330.337 148.928 330.062 149.176 329.978 149.188C329.78 149.218 329.038 149.965 328.168 151.01C327.788 151.467 327.37 151.86 327.239 151.882C327.108 151.904 326.939 152.088 326.864 152.29C326.742 152.616 325.408 153.889 323.874 155.144C323.226 155.674 321.764 157.229 321.205 157.983C320.982 158.284 320.663 158.554 320.497 158.582C320.331 158.611 319.54 159.502 318.74 160.563C317.94 161.625 317.167 162.53 317.023 162.575C316.879 162.62 316.436 163.012 316.039 163.446C315.429 164.114 315.344 164.306 315.489 164.691C315.614 165.023 315.579 165.189 315.361 165.307C315.197 165.396 314.916 165.656 314.738 165.884C314.161 166.623 312.838 168.004 312.258 168.473C311.408 169.16 310.92 169.177 310.486 168.534ZM328.579 164.613C328.532 164.337 328.835 163.838 329.573 162.978C330.157 162.297 330.952 161.361 331.34 160.897C331.727 160.433 332.599 159.453 333.278 158.72C333.957 157.986 334.503 157.332 334.492 157.268C334.481 157.203 334.677 156.987 334.928 156.787C335.179 156.586 335.979 155.692 336.705 154.798C337.431 153.905 338.093 153.162 338.175 153.148C338.258 153.134 338.832 152.471 339.451 151.673C341.899 148.519 344.3 145.986 345.197 145.612C345.762 145.376 346.688 145.864 346.784 146.447C346.886 147.07 346.785 147.221 345.734 148.017C345.229 148.399 344.045 149.664 343.102 150.827C342.16 151.99 341.283 152.962 341.155 152.986C341.026 153.009 340.894 153.144 340.862 153.284C340.789 153.601 339.148 155.211 338.577 155.527C338.111 155.784 336.938 156.93 334.722 159.29C332.066 162.119 331.542 162.621 331.052 162.806C330.749 162.921 330.583 163.101 330.614 163.281C330.668 163.6 330.379 163.954 329.576 164.549C328.87 165.072 328.659 165.086 328.579 164.613ZM257.282 171.71C256.508 171.067 256.488 170.882 257.07 169.727C257.379 169.114 257.752 168.546 257.899 168.464C258.045 168.382 258.146 168.206 258.124 168.071C258.101 167.937 258.842 166.933 259.771 165.842C260.699 164.75 261.545 163.698 261.651 163.504C261.756 163.311 262.122 162.92 262.463 162.635C262.804 162.351 263.503 161.642 264.016 161.06C264.53 160.478 265.214 159.812 265.538 159.581C265.861 159.35 266.376 158.86 266.682 158.492C267.314 157.733 268.706 156.342 269.597 155.578C270.952 154.419 273.437 152.059 274.014 151.385C274.353 150.989 274.937 150.379 275.313 150.029C277.163 148.303 277.65 147.82 278.654 146.716C279.251 146.059 279.68 145.459 279.607 145.382C279.534 145.305 279.652 145.212 279.87 145.175C280.088 145.138 280.695 144.644 281.219 144.078C281.743 143.512 282.278 143.03 282.408 143.008C282.538 142.986 282.73 142.832 282.835 142.667C282.968 142.456 283.281 142.338 283.875 142.273C284.703 142.183 284.727 142.195 284.881 142.776C284.983 143.161 284.952 143.465 284.792 143.637C284.656 143.783 284.536 143.853 284.526 143.792C284.504 143.664 282.828 145.232 282.25 145.92C281.735 146.533 280.559 147.724 279.826 148.374C279.504 148.66 279.025 149.172 278.762 149.513C278.498 149.853 278.202 150.145 278.103 150.162C277.931 150.192 277.297 150.817 275.869 152.365C275.504 152.761 275.148 153.095 275.078 153.106C274.969 153.125 273.418 154.776 272.798 155.533C272.685 155.672 272.489 155.803 272.362 155.825C272.236 155.846 271.966 156.095 271.763 156.377C271.367 156.928 269.978 157.966 269.535 158.041C269.387 158.066 269.243 158.229 269.214 158.404C269.185 158.578 269.002 158.863 268.807 159.037C268.612 159.211 268.327 159.507 268.174 159.695C268.022 159.883 267.652 160.209 267.353 160.419C266.487 161.028 265.246 162.217 264.538 163.118C263.882 163.951 263.157 164.779 261.38 166.722C260.13 168.089 259.262 169.207 259.294 169.406C259.308 169.493 259.145 169.802 258.931 170.091C258.586 170.557 258.578 170.637 258.86 170.785C259.379 171.058 259.342 171.459 258.799 171.427C258.544 171.412 258.297 171.484 258.25 171.588C258.132 171.852 257.543 171.926 257.282 171.71Z" fill="#F8F8F8"/>
<path d="M100.63 305.86C95.531 305.86 90.6037 305.431 85.8482 304.571C81.15 303.769 76.9389 302.681 73.2147 301.306C69.4906 299.873 66.5399 298.212 64.3627 296.321C62.1855 294.373 61.0969 292.282 61.0969 290.047C61.0969 288.156 61.5266 286.667 62.3861 285.578C63.2455 284.49 64.42 283.716 65.9097 283.258C67.3993 282.799 68.9749 282.57 70.6365 282.57C71.7251 282.57 73.358 283.029 75.5352 283.945C77.7697 284.805 80.5198 285.693 83.7856 286.609C87.0514 287.526 90.8328 287.985 95.1299 287.985C99.6562 287.985 103.61 287.813 106.99 287.469C110.428 287.125 113.292 286.466 115.584 285.492C117.876 284.461 119.566 283.086 120.655 281.367C121.801 279.591 122.374 277.328 122.374 274.578C122.374 271.999 121.715 269.708 120.397 267.702C119.079 265.697 117.246 263.864 114.897 262.202C112.547 260.54 109.769 258.993 106.56 257.561C103.409 256.071 99.9713 254.582 96.2472 253.092C91.7209 251.316 87.4811 249.425 83.5278 247.42C79.6317 245.415 76.1941 243.209 73.2147 240.802C70.2927 238.396 68.0009 235.675 66.3394 232.638C64.7351 229.601 63.933 226.135 63.933 222.239C63.933 217.885 64.9357 214.132 66.941 210.981C68.9463 207.772 71.6391 205.079 75.0195 202.902C78.4572 200.725 82.2673 199.006 86.4498 197.746C90.6896 196.485 95.0153 195.597 99.427 195.081C103.839 194.508 107.993 194.222 111.889 194.222C116.759 194.222 121.285 194.594 125.467 195.339C129.707 196.027 133.431 197.029 136.64 198.347C139.906 199.608 142.427 201.069 144.203 202.73C146.036 204.392 146.953 206.168 146.953 208.059C146.953 209.72 146.552 211.124 145.75 212.27C144.948 213.358 143.916 214.16 142.656 214.676C141.395 215.192 139.992 215.45 138.445 215.45C137.356 215.45 135.809 214.963 133.804 213.989C131.856 212.957 129.335 211.955 126.241 210.981C123.147 209.949 119.308 209.434 114.725 209.434C111.86 209.434 109.024 209.634 106.216 210.035C103.409 210.436 100.859 211.152 98.5676 212.184C96.2758 213.158 94.4424 214.504 93.0673 216.223C91.6923 217.885 91.0047 220.033 91.0047 222.669C91.0047 225.19 91.6063 227.424 92.8095 229.372C94.07 231.263 95.7888 232.982 97.966 234.529C100.201 236.018 102.807 237.451 105.787 238.826C108.766 240.201 112.003 241.576 115.498 242.951C120.139 244.842 124.551 246.904 128.733 249.139C132.916 251.373 136.611 253.866 139.82 256.616C143.086 259.309 145.635 262.345 147.469 265.726C149.359 269.106 150.305 272.887 150.305 277.07C150.305 282.398 149.016 286.925 146.437 290.649C143.916 294.316 140.393 297.266 135.866 299.501C131.34 301.735 126.069 303.339 120.053 304.314C114.037 305.345 107.563 305.86 100.63 305.86ZM182.91 303.454C180.962 303.454 179.157 302.967 177.496 301.993C175.892 301.019 174.431 299.443 173.113 297.266C171.852 295.089 170.735 292.224 169.761 288.672C169.36 286.896 168.959 284.633 168.558 281.883C168.157 279.075 167.756 276.039 167.355 272.773C167.011 269.45 166.667 266.041 166.323 262.546C166.037 258.993 165.779 255.527 165.55 252.147C165.321 248.766 165.12 245.615 164.948 242.693C164.834 239.714 164.776 237.193 164.776 235.13C164.776 225.849 165.98 218.543 168.386 213.215C170.85 207.887 174.86 204.134 180.418 201.957C185.975 199.722 193.395 198.605 202.677 198.605C209.896 198.605 216.8 199.292 223.389 200.668C230.035 201.985 235.936 204.048 241.093 206.855C246.249 209.663 250.289 213.272 253.211 217.684C256.19 222.096 257.68 227.367 257.68 233.497C257.68 238.196 256.648 242.321 254.586 245.873C252.58 249.368 249.716 252.319 245.992 254.725C242.325 257.074 237.97 258.936 232.928 260.311C227.886 261.629 222.386 262.517 216.428 262.975C212.532 263.205 208.721 263.262 204.997 263.147C201.33 262.975 197.749 262.89 194.255 262.89C192.708 262.89 191.705 263.491 191.247 264.694C190.845 265.84 190.645 267.444 190.645 269.507C190.645 270.653 190.674 272.028 190.731 273.632C190.788 275.236 190.874 276.955 190.989 278.789C191.103 280.622 191.189 282.456 191.247 284.289C191.361 286.065 191.447 287.727 191.504 289.274C191.562 290.821 191.59 292.11 191.59 293.141C191.59 296.579 190.874 299.157 189.442 300.876C188.067 302.595 185.89 303.454 182.91 303.454ZM195.286 250.686C199.296 250.686 203.307 250.514 207.318 250.17C211.328 249.826 215.138 249.253 218.748 248.451C222.358 247.592 225.566 246.475 228.373 245.1C231.181 243.667 233.387 241.92 234.991 239.857C236.595 237.737 237.397 235.245 237.397 232.38C237.397 229.172 236.624 226.45 235.077 224.216C233.53 221.924 231.525 220.033 229.061 218.543C226.597 216.997 223.933 215.793 221.068 214.934C218.261 214.074 215.539 213.473 212.904 213.129C210.268 212.785 208.063 212.613 206.286 212.613C202.791 212.613 199.841 212.9 197.434 213.473C195.028 213.989 193.109 214.848 191.676 216.051C190.244 217.197 189.213 218.658 188.582 220.434C187.952 222.153 187.637 224.216 187.637 226.622C187.637 230.06 187.694 233.096 187.809 235.732C187.981 238.367 188.239 240.659 188.582 242.607C188.926 244.498 189.384 246.045 189.957 247.248C190.53 248.394 191.247 249.253 192.106 249.826C192.965 250.399 194.025 250.686 195.286 250.686ZM283.666 302.767C279.885 302.767 277.077 301.391 275.244 298.641C273.468 295.891 272.58 292.339 272.58 287.985C272.58 286.151 272.58 283.573 272.58 280.25C272.58 276.927 272.608 273.117 272.666 268.819C272.723 264.522 272.78 259.967 272.838 255.155C272.952 250.342 273.067 245.501 273.181 240.631C273.353 235.761 273.554 231.12 273.783 226.708C274.012 222.296 274.27 218.372 274.556 214.934C275.187 209.376 276.304 205.452 277.908 203.16C279.512 200.868 282.119 199.722 285.729 199.722C288.766 199.722 290.971 200.897 292.346 203.246C293.722 205.538 294.61 208.689 295.011 212.699C295.125 215.163 295.24 218.257 295.354 221.981C295.469 225.705 295.555 229.773 295.612 234.185C295.67 238.597 295.698 243.123 295.698 247.764C295.756 252.347 295.784 256.788 295.784 261.085C295.784 265.325 295.784 269.192 295.784 272.687C295.784 276.125 295.756 278.875 295.698 280.937C295.698 286.38 295.326 290.706 294.581 293.915C293.836 297.066 292.604 299.329 290.885 300.704C289.224 302.079 286.818 302.767 283.666 302.767ZM325.606 305.259C322.627 305.259 320.134 304.285 318.129 302.337C316.181 300.446 314.72 297.581 313.746 293.743C313.345 292.138 313.001 290.076 312.715 287.555C312.428 284.977 312.142 282.169 311.855 279.133C311.626 276.039 311.426 272.887 311.254 269.679C311.139 266.47 311.025 263.348 310.91 260.311C310.853 257.275 310.824 254.553 310.824 252.147C310.824 243.954 311.311 236.735 312.285 230.489C313.259 224.187 314.749 218.773 316.754 214.246C318.817 209.663 321.481 205.939 324.747 203.074C328.07 200.152 332.052 198.003 336.693 196.628C341.391 195.196 346.862 194.48 353.107 194.48C359.066 194.48 364.738 195.139 370.124 196.456C375.51 197.717 380.265 199.636 384.39 202.215C388.573 204.793 391.839 208.001 394.188 211.84C396.594 215.679 397.797 220.119 397.797 225.161C397.797 229.916 396.737 233.898 394.617 237.107C392.497 240.315 389.747 242.922 386.367 244.928C382.987 246.933 379.348 248.48 375.452 249.569C371.614 250.657 367.947 251.459 364.452 251.975C362.504 252.261 361.157 252.576 360.412 252.92C359.668 253.264 359.295 253.78 359.295 254.467C359.295 254.926 359.639 255.556 360.327 256.358C361.071 257.16 362.045 258.134 363.249 259.28C364.509 260.369 365.941 261.658 367.546 263.147C369.15 264.58 370.811 266.184 372.53 267.96C374.192 269.622 376.111 271.57 378.288 273.804C380.523 276.039 382.757 278.359 384.992 280.765C387.226 283.115 389.289 285.378 391.18 287.555C393.128 289.675 394.703 291.508 395.906 293.055C397.11 294.602 397.711 295.633 397.711 296.149C397.711 297.753 397.224 299.1 396.25 300.188C395.276 301.277 394.044 302.079 392.555 302.595C391.065 303.168 389.432 303.454 387.656 303.454C385.823 303.454 383.789 302.91 381.554 301.821C379.377 300.733 377.057 299.214 374.593 297.266C372.187 295.318 369.723 293.055 367.202 290.477C364.681 287.899 362.16 285.091 359.639 282.055C355.858 277.815 352.449 274.119 349.412 270.968C346.375 267.817 343.826 265.353 341.763 263.577C339.7 261.801 338.268 260.913 337.466 260.913C336.893 260.913 336.435 261.171 336.091 261.686C335.804 262.145 335.575 263.004 335.403 264.265C335.289 265.468 335.203 267.129 335.146 269.249C335.146 271.369 335.146 274.062 335.146 277.328C335.146 278.302 335.146 279.534 335.146 281.023C335.203 282.513 335.231 284.089 335.231 285.75C335.289 287.412 335.317 289.016 335.317 290.563C335.317 292.11 335.317 293.485 335.317 294.688C335.317 295.891 335.289 296.751 335.231 297.266C334.773 300.188 333.656 302.251 331.88 303.454C330.161 304.657 328.07 305.259 325.606 305.259ZM344.599 244.928C346.547 244.928 348.925 244.756 351.732 244.412C354.597 244.011 357.548 243.352 360.584 242.435C363.621 241.519 366.457 240.315 369.093 238.826C371.785 237.279 373.963 235.359 375.624 233.068C377.286 230.776 378.117 228.083 378.117 224.989C378.117 221.781 377.343 219.059 375.796 216.825C374.306 214.59 372.272 212.814 369.694 211.496C367.173 210.121 364.366 209.119 361.272 208.488C358.178 207.858 355.055 207.543 351.904 207.543C348.638 207.543 345.888 208.001 343.654 208.918C341.477 209.835 339.7 211.21 338.325 213.043C337.008 214.877 336.034 217.283 335.403 220.262C335.002 221.924 334.687 223.585 334.458 225.247C334.286 226.908 334.143 228.57 334.028 230.232C333.914 231.836 333.856 233.411 333.856 234.958C333.856 237.479 334.114 239.485 334.63 240.974C335.203 242.407 336.263 243.438 337.81 244.068C339.357 244.641 341.62 244.928 344.599 244.928ZM464.75 310.587C456.5 310.587 448.937 309.298 442.061 306.72C435.243 304.199 429.313 300.532 424.271 295.719C419.287 290.907 415.419 285.12 412.669 278.359C409.976 271.598 408.63 264.007 408.63 255.584C408.63 247.678 409.862 240.659 412.325 234.529C414.789 228.398 418.169 223.098 422.467 218.629C426.764 214.16 431.634 210.494 437.077 207.629C442.577 204.764 448.364 202.644 454.437 201.269C460.51 199.837 466.526 199.121 472.485 199.121C481.251 199.121 489.329 200.41 496.72 202.988C504.111 205.566 510.557 209.262 516.057 214.074C521.558 218.83 525.826 224.559 528.863 231.263C531.899 237.909 533.418 245.357 533.418 253.608C533.418 262.718 531.699 270.825 528.261 277.929C524.823 284.977 519.982 290.935 513.737 295.805C507.492 300.675 500.187 304.342 491.822 306.806C483.514 309.327 474.49 310.587 464.75 310.587ZM468.789 288.07C478.816 288.07 486.837 286.466 492.853 283.258C498.869 280.049 503.223 275.781 505.916 270.452C508.609 265.124 509.955 259.28 509.955 252.92C509.955 247.076 508.981 241.862 507.033 237.279C505.143 232.695 502.478 228.828 499.041 225.677C495.603 222.525 491.621 220.148 487.095 218.543C482.569 216.882 477.699 216.051 472.485 216.051C467.386 216.051 462.515 216.825 457.875 218.372C453.234 219.919 449.109 222.124 445.499 224.989C441.889 227.854 439.025 231.32 436.905 235.388C434.842 239.456 433.811 244.011 433.811 249.053C433.811 255.069 434.67 260.483 436.389 265.296C438.165 270.051 440.6 274.148 443.694 277.586C446.845 280.966 450.541 283.573 454.781 285.406C459.078 287.182 463.747 288.07 468.789 288.07Z" fill="#F8F8F8"/>
</svg>
