<svg width="116" height="30" viewBox="0 0 116 30" fill="none" xmlns="http://www.w3.org/2000/svg">
<path d="M28.5679 29.9477C28.1825 29.9118 27.5913 29.8452 27.2541 29.7997C26.9169 29.7542 26.4439 29.7151 26.203 29.7128C25.9621 29.7104 25.5549 29.6844 25.2979 29.6545C25.041 29.6248 24.3856 29.5516 23.8415 29.4921C22.8533 29.384 22.7134 29.3592 21.9971 29.1659C21.7875 29.1093 21.536 29.063 21.4382 29.063C21.3405 29.063 21.1441 29.0293 21.0019 28.9881C20.8597 28.9469 20.5857 28.8824 20.393 28.8446C20.2003 28.8069 20.0164 28.7589 19.9843 28.738C19.9213 28.697 19.7315 28.6616 19.1376 28.5802C18.9288 28.5516 18.6398 28.5025 18.4952 28.4711C18.3507 28.4397 18.0354 28.3918 17.7945 28.3647C17.5537 28.3376 16.9099 28.227 16.3639 28.1189C15.818 28.0109 15.2793 27.9048 15.1669 27.8832C15.0545 27.8616 14.8706 27.8167 14.7582 27.7835C14.0819 27.5836 13.5202 27.4493 13.3602 27.4493C13.1337 27.4493 12.0091 27.0992 11.9493 27.01C11.9159 26.9602 11.8841 26.9618 11.8118 27.0171C11.742 27.0705 11.6845 27.0745 11.5884 27.0327C11.5172 27.0017 11.1568 26.887 10.7875 26.7777C10.4182 26.6685 10.0897 26.5593 10.0576 26.5352C10.0255 26.511 9.90213 26.4772 9.7835 26.4601C9.53643 26.4242 9.12843 26.2841 8.92839 26.1663C8.85329 26.1221 8.71766 26.0785 8.62698 26.0693C8.27625 26.0339 7.60237 25.7679 6.55406 25.251C6.28676 25.1192 4.46692 24.3088 4.42274 24.3019C4.40669 24.2994 4.33317 24.2783 4.25936 24.2552C4.18002 24.2303 4.09415 24.2367 4.04924 24.2711C3.99261 24.3144 3.93027 24.295 3.80388 24.1949C3.71069 24.1211 3.60601 24.0607 3.57126 24.0606C3.53647 24.0606 3.35257 23.9204 3.16251 23.7491C2.97246 23.5778 2.72244 23.3845 2.60691 23.3195C2.31623 23.1559 1.54323 22.3248 1.48326 22.1113C1.45616 22.0148 1.3111 21.7785 1.16093 21.5862C0.663751 20.9496 0.62906 20.8948 0.557476 20.6344C0.518359 20.4923 0.443104 20.3154 0.39017 20.2415C0.33726 20.1675 0.276915 20.0421 0.25613 19.9629C0.23532 19.8836 0.181318 19.7846 0.136086 19.7429C0.090865 19.7012 0.055674 19.5725 0.0579076 19.4568C0.0603486 19.3411 0.0408819 18.9786 0.0151288 18.6512C-0.0361334 17.9998 0.0477165 17.2381 0.193582 17.0294C0.239413 16.9639 0.276877 16.8625 0.276877 16.804C0.276877 16.7455 0.304946 16.6817 0.339243 16.6622C0.37354 16.6427 0.387821 16.5936 0.370978 16.5532C0.354135 16.5127 0.363534 16.4664 0.391911 16.4503C0.420288 16.4341 0.474277 16.335 0.511899 16.23C0.549492 16.125 0.709093 15.8617 0.86651 15.6449C1.02392 15.4281 1.15272 15.2324 1.15272 15.21C1.15272 15.1877 1.24469 15.066 1.35709 14.9397C1.4695 14.8133 1.56146 14.6868 1.56146 14.6586C1.56146 14.5942 3.04351 13.2396 3.41637 12.9632C4.05839 12.4872 4.39108 12.2812 4.47732 12.3062C4.53499 12.3229 4.61813 12.2659 4.70281 12.1516C4.77659 12.0521 4.86856 11.9734 4.90718 11.9767C4.96872 11.9822 6.01049 11.523 7.4096 10.8741C7.65537 10.7602 7.91814 10.6667 7.99352 10.6666C8.0689 10.6664 8.20584 10.6301 8.29784 10.5859C8.38983 10.5417 8.50237 10.5055 8.54794 10.5055C8.59353 10.5055 8.76383 10.4434 8.92642 10.3675C9.30133 10.1925 10.0222 10.0214 10.3846 10.0214C10.5381 10.0214 10.6776 10.0007 10.6946 9.97553C10.7115 9.95026 10.7421 9.7761 10.7625 9.58846C10.783 9.40082 10.8341 9.19758 10.8761 9.13681C10.9181 9.07603 10.9856 8.91739 11.026 8.78427C11.0665 8.65114 11.1315 8.5059 11.1707 8.46153C11.2098 8.41716 11.405 8.10248 11.6044 7.76227C11.8038 7.42205 12.0426 7.02265 12.1349 6.87472C12.3919 6.4631 12.553 5.97544 12.5069 5.74889C12.4854 5.64328 12.4445 5.55688 12.4159 5.55688C12.3873 5.55688 12.364 5.53266 12.364 5.50312C12.364 5.47352 12.3971 5.44935 12.4376 5.44935C12.5887 5.44935 13.3006 4.69912 13.6302 4.19258C13.9757 3.66165 14.249 3.22746 14.3283 3.08351C14.564 2.65596 15.6317 1.5887 16.0916 1.32091C16.1772 1.27111 16.3012 1.18119 16.3674 1.12105C16.6011 0.908461 16.8168 0.759283 17.0691 0.63571C17.2095 0.566952 17.3943 0.460032 17.4797 0.398108C17.5652 0.336191 17.6688 0.285527 17.7101 0.285527C17.7513 0.285527 17.8594 0.251907 17.9504 0.210818C18.3516 0.0294659 18.5423 -0.008792 18.9936 0.00155198C19.3558 0.00985157 19.5356 0.0434151 19.7819 0.148661C20.3085 0.373684 20.9612 0.755305 21.4255 1.10965C21.5759 1.22442 21.7281 1.30176 21.7636 1.28153C21.8071 1.25681 21.8168 1.28642 21.7935 1.37221C21.7672 1.46892 21.7999 1.53341 21.9292 1.63953C22.0229 1.71646 22.1408 1.83356 22.1911 1.89976L22.2826 2.02013L22.5854 1.88117C22.8754 1.74803 22.8939 1.74605 23.0255 1.83417C23.2185 1.96332 23.1996 2.07996 22.9615 2.22849C22.8487 2.29887 22.7633 2.39006 22.7718 2.43114C22.7802 2.47221 22.9316 2.62116 23.1082 2.76211L23.4294 3.01838L23.7797 2.94554C23.9724 2.90551 24.222 2.84929 24.3344 2.82067C24.5463 2.76672 25.3432 2.46842 25.4632 2.39814C25.542 2.35195 25.5167 2.35829 25.8402 2.30366C25.9779 2.2804 26.1224 2.21989 26.1613 2.16917C26.2003 2.11846 26.334 2.05954 26.4583 2.03822C26.5827 2.01692 26.7273 1.97994 26.7795 1.95608C27.1451 1.78914 29.3916 1.47463 30.1161 1.48897C30.4579 1.49574 30.6256 1.52912 30.8752 1.64012C31.0514 1.71848 31.3006 1.82189 31.4291 1.86992C31.5575 1.91795 31.7021 2.00301 31.7502 2.05895C31.8291 2.15052 31.8693 2.15478 32.1537 2.10178C32.4676 2.04332 32.4705 2.044 32.6354 2.21399C32.8377 2.42252 32.8444 2.49091 32.6625 2.49091C32.4713 2.49091 32.3627 2.61622 32.4777 2.70414C32.5253 2.74051 32.693 3.01876 32.8505 3.32246C33.008 3.62616 33.1665 3.89151 33.2027 3.91212C33.2388 3.93274 33.2685 3.99181 33.2685 4.04342C33.2685 4.09505 33.3302 4.257 33.4056 4.40334C33.5988 4.77825 33.7142 5.05937 33.7965 5.35522C33.8356 5.49574 33.8904 5.61072 33.9184 5.61072C33.9463 5.61072 33.9692 5.67077 33.9692 5.74413C33.9692 5.8175 34.0328 6.0293 34.1105 6.21479C34.1883 6.40028 34.2816 6.69728 34.3181 6.87478C34.3545 7.05229 34.4112 7.27013 34.4441 7.35889C34.5595 7.66974 34.7309 8.33027 34.7862 8.67674C34.839 9.0078 35.0629 10.156 35.0746 10.156C35.0776 10.156 35.0922 10.3682 35.1071 10.6277C35.122 10.8871 35.1637 11.1503 35.1999 11.2125C35.236 11.2747 35.2505 11.3952 35.232 11.4804C35.2135 11.5655 35.2198 11.6352 35.2461 11.6352C35.3556 11.6352 35.4468 12.1401 35.4648 12.8454C35.5059 14.4577 35.5221 14.6208 35.6646 14.8544C35.7705 15.028 35.7836 15.0889 35.7281 15.1505C35.6897 15.1931 35.6127 15.217 35.557 15.2036C35.4983 15.1894 35.3972 15.2364 35.317 15.3151C35.1849 15.4446 35.1798 15.4767 35.2103 15.9869C35.228 16.2816 35.2283 16.5357 35.2109 16.5515C35.1937 16.5674 35.1697 16.6818 35.1575 16.8058C35.1421 16.9636 35.1649 17.061 35.2337 17.1311C35.3259 17.2249 35.3254 17.2354 35.2262 17.3022C35.1305 17.3667 35.1295 17.3766 35.2163 17.4072C35.269 17.4258 35.3121 17.4854 35.3121 17.5396C35.3121 17.701 35.1729 17.9277 35.0737 17.9281C35.0228 17.9285 34.9623 17.946 34.9393 17.9672C34.8656 18.0351 33.9944 18.1788 33.5807 18.1913C32.9963 18.2089 32.7675 18.2812 32.4865 18.5368C32.3502 18.6609 32.1156 18.8418 31.9652 18.9389C31.6681 19.1307 31.606 19.251 31.8311 19.199C31.9115 19.1804 31.9957 19.1947 32.0303 19.2335C32.1267 19.3409 32.0416 19.5986 31.8884 19.6629C31.8124 19.6948 31.7502 19.7416 31.7502 19.767C31.7502 19.7923 31.4727 19.9815 31.1335 20.1874C30.7944 20.3933 30.422 20.6338 30.3061 20.7219C30.1901 20.8099 30.0719 20.8687 30.0434 20.8525C30.0149 20.8363 29.934 20.8764 29.8636 20.9415C29.7932 21.0067 29.5648 21.1789 29.3561 21.3241C29.1473 21.4693 28.8448 21.6811 28.6837 21.7947C28.5226 21.9084 28.3375 22.0169 28.2724 22.036C28.2072 22.055 28.0237 22.1809 27.8645 22.3157C27.5853 22.5521 27.2314 22.7797 26.4435 23.2294C26.2386 23.3463 25.9759 23.5155 25.8596 23.6053C25.7433 23.6951 25.5498 23.8282 25.4296 23.9011C25.3094 23.974 25.2109 24.0516 25.2107 24.0734C25.2105 24.0952 25.0986 24.1771 24.9621 24.2554C24.8256 24.3337 24.6342 24.4732 24.5367 24.5654C24.2427 24.8435 23.7861 25.1639 23.7075 25.1473C23.6669 25.1387 23.6337 25.1715 23.6337 25.2203C23.6337 25.3122 22.6191 26.266 22.5213 26.266C22.4907 26.266 22.4658 26.2977 22.4658 26.3366C22.4658 26.3754 22.3804 26.4637 22.2761 26.5329C22.1717 26.602 21.9726 26.776 21.8336 26.9195C21.6946 27.063 21.5548 27.1804 21.5229 27.1804C21.4489 27.1804 21.3309 27.071 21.2854 26.9601C21.2479 26.8687 21.4764 26.5618 21.582 26.5618C21.6159 26.5618 21.7071 26.4825 21.7848 26.3855C22.1339 25.9495 23.5815 24.6558 23.9694 24.4329C24.0417 24.3914 24.1008 24.3315 24.1008 24.2998C24.1008 24.2276 24.4074 23.953 24.488 23.953C24.5208 23.953 24.6093 23.8925 24.6847 23.8186C24.7602 23.7446 24.8512 23.6841 24.8869 23.6841C24.9227 23.6841 25.0909 23.5639 25.2607 23.417C25.4306 23.2701 25.6463 23.1128 25.7403 23.0674C25.8342 23.022 25.9898 22.9467 26.0862 22.9002C26.1825 22.8536 26.2613 22.7931 26.2613 22.7657C26.2613 22.7383 26.3139 22.7158 26.3781 22.7158C26.4424 22.7158 26.4949 22.6964 26.4949 22.6726C26.4949 22.6489 26.6568 22.5243 26.8546 22.3957C27.0525 22.2672 27.3087 22.0854 27.424 21.9917C27.5392 21.898 27.7594 21.7548 27.9132 21.6734C28.0671 21.592 28.2797 21.4553 28.3857 21.3695C28.4918 21.2837 28.6484 21.1891 28.7338 21.1592C28.8742 21.11 28.9573 20.9408 28.841 20.9408C28.8146 20.9408 28.611 21.0745 28.3885 21.238C28.166 21.4014 27.7474 21.6729 27.4584 21.8412C27.1693 22.0095 26.8277 22.2151 26.6993 22.298C26.5708 22.3809 26.1241 22.6568 25.7066 22.911C25.2891 23.1652 24.8818 23.4189 24.8015 23.4748C24.7212 23.5307 24.4979 23.6782 24.3052 23.8025C23.7714 24.1469 23.4572 24.3672 23.1461 24.615C22.9903 24.739 22.7538 24.9041 22.6206 24.9817C22.4873 25.0594 22.3126 25.1889 22.2323 25.2695C22.152 25.3501 21.9681 25.4722 21.8235 25.5409C21.6742 25.6118 21.3717 25.857 21.1228 26.1089C20.5516 26.6869 19.8433 27.3149 19.7626 27.3149C19.7275 27.3149 19.6492 27.2367 19.5886 27.1411C19.4794 26.9689 19.4796 26.9656 19.6045 26.804C19.6739 26.7143 19.8035 26.6062 19.8925 26.5638C19.9816 26.5213 20.0993 26.4235 20.1542 26.3463C20.2706 26.1827 20.656 25.8515 20.8937 25.7109C20.9847 25.6571 21.0743 25.5723 21.0929 25.5226C21.1114 25.4729 21.247 25.3475 21.3942 25.244C21.5413 25.1404 21.7047 25.0169 21.7572 24.9695C21.8098 24.9221 21.8964 24.8616 21.9498 24.835C22.0032 24.8085 22.1477 24.7016 22.2709 24.5975C22.3942 24.4934 22.6416 24.3194 22.8206 24.2109C22.9997 24.1023 23.1819 23.9739 23.2255 23.9255C23.2691 23.8771 23.4061 23.7899 23.53 23.7317C23.6539 23.6735 23.805 23.5844 23.8658 23.5339C23.9266 23.4834 24.0765 23.374 24.1991 23.291C24.3217 23.2079 24.5762 23.0324 24.7648 22.901C24.9533 22.7696 25.1318 22.6621 25.1614 22.6621C25.191 22.6621 25.3631 22.5592 25.5438 22.4334C25.8408 22.2268 26.0513 22.107 26.7455 21.7496C26.8673 21.6869 27.0172 21.5942 27.0788 21.5437C27.1404 21.4932 27.3035 21.3726 27.4413 21.2758C27.5792 21.1791 27.8496 20.9849 28.0423 20.8444C28.235 20.7039 28.4656 20.5461 28.5547 20.4938C28.6438 20.4414 28.7884 20.3391 28.8759 20.2664C28.9634 20.1937 29.3945 19.9164 29.8339 19.6502C30.2734 19.3839 30.7961 19.0208 30.9956 18.8432C31.1951 18.6656 31.3931 18.5202 31.4355 18.5202C31.505 18.5202 31.6334 18.3632 31.6334 18.2781C31.6334 18.2594 31.5819 18.2591 31.519 18.2775C31.4561 18.2959 31.2141 18.3126 30.9812 18.3146C30.7484 18.3164 30.5138 18.3436 30.46 18.3745C30.3915 18.4139 30.2331 18.4125 29.9321 18.3696C29.3314 18.2843 29.37 18.2871 28.9211 18.2965C28.6055 18.3031 28.5308 18.3193 28.5853 18.3695C28.7279 18.5008 28.6641 18.6751 28.4218 18.816C28.2934 18.8907 28.1883 18.9752 28.1883 19.0039C28.1883 19.0325 28.116 19.0719 28.0277 19.0915C27.9394 19.111 27.8201 19.172 27.7627 19.227C27.7052 19.2819 27.622 19.327 27.5778 19.327C27.5335 19.327 27.4885 19.3462 27.4778 19.3699C27.4672 19.3934 27.2841 19.5003 27.0712 19.6074C26.6236 19.8324 26.2247 20.1036 25.8544 20.4349C25.7108 20.5633 25.5225 20.6827 25.4359 20.7002C25.3493 20.7177 25.2635 20.7679 25.2452 20.8117C25.227 20.8556 25.1394 20.9209 25.0506 20.957C24.8204 21.0505 24.409 21.3017 24.3528 21.383C24.3267 21.421 24.187 21.5235 24.0424 21.611C23.8979 21.6985 23.6483 21.8701 23.4877 21.9925C23.3271 22.1148 23.1304 22.2468 23.0504 22.2858C22.9705 22.3248 22.7471 22.4697 22.5538 22.6079C22.3606 22.746 22.1735 22.8501 22.138 22.8392C22.1024 22.8283 22.0305 22.8796 21.978 22.9534C21.8375 23.151 21.643 23.3066 21.4358 23.3871C21.335 23.4263 21.1511 23.5418 21.0271 23.6437C20.8084 23.8236 19.9387 24.4331 19.5115 24.706C19.3957 24.7799 19.1525 24.9566 18.971 25.0985C18.7896 25.2404 18.536 25.4384 18.4076 25.5384C17.9077 25.9274 17.798 26.0267 17.7819 26.1045C17.7728 26.1489 17.7127 26.2215 17.6485 26.2659C17.5843 26.3102 17.5317 26.3829 17.5317 26.4272C17.5317 26.4716 17.4746 26.5154 17.4048 26.5246C17.3349 26.5337 17.2379 26.5973 17.1891 26.6659C17.0547 26.8549 16.8165 26.8891 16.6482 26.7434C16.4974 26.6129 16.4732 26.4491 16.5847 26.3145C16.6871 26.1909 17.7777 25.3626 18.0349 25.213C18.1545 25.1434 18.2693 25.0372 18.2901 24.9769C18.3109 24.9166 18.355 24.8673 18.3881 24.8673C18.4212 24.8673 18.518 24.8001 18.6031 24.718C18.6883 24.6359 18.8959 24.4881 19.0645 24.3897C19.2331 24.2912 19.3711 24.1895 19.3711 24.1636C19.3711 24.1377 19.4827 24.0645 19.6192 24.0009C19.7557 23.9374 19.988 23.7856 20.1353 23.6637C20.5737 23.3009 20.9952 22.9849 21.0461 22.9811C21.0723 22.9793 21.2119 22.8946 21.3564 22.7931C21.5009 22.6917 21.7115 22.5514 21.8244 22.4813C21.9373 22.4112 22.0628 22.317 22.1034 22.2719C22.144 22.2269 22.3322 22.1005 22.5216 21.9911C22.7109 21.8818 22.8796 21.7593 22.8964 21.7189C22.9132 21.6786 23.0137 21.6047 23.1198 21.5547C23.2258 21.5047 23.4362 21.3764 23.5873 21.2695C23.7384 21.1626 23.9561 21.0146 24.0711 20.9407C24.1861 20.8667 24.496 20.6419 24.7598 20.4412C25.0236 20.2404 25.3117 20.0619 25.4001 20.0445C25.4884 20.0271 25.5606 19.9856 25.5606 19.9523C25.5606 19.8828 26.3207 19.3391 26.982 18.9354C27.3057 18.7379 27.7873 18.4018 27.7698 18.3856C27.7587 18.3754 27.5325 18.3512 27.2673 18.332C27.002 18.3128 26.7002 18.2746 26.5966 18.2472C26.3264 18.1758 26.0862 18.1851 26.0862 18.2669C26.0862 18.3829 25.6313 18.7498 24.8037 19.3017C24.3713 19.59 23.9686 19.883 23.9089 19.9529C23.8493 20.0229 23.7629 20.0801 23.717 20.0801C23.6712 20.0801 23.6337 20.0994 23.6337 20.123C23.6337 20.1467 23.5465 20.1951 23.4399 20.2306C23.3333 20.2661 23.1386 20.3799 23.0072 20.4834C22.8759 20.587 22.7438 20.6717 22.7138 20.6717C22.6837 20.6717 22.6091 20.7228 22.5479 20.785C22.4867 20.8474 22.3396 20.944 22.2211 20.9997C22.1025 21.0554 21.9083 21.1618 21.7896 21.236C21.6708 21.3103 21.5256 21.371 21.4668 21.371C21.408 21.371 21.2134 21.4967 21.0343 21.6502C20.8551 21.8038 20.5456 22.0124 20.3464 22.1138C20.1472 22.2152 19.8777 22.3861 19.7475 22.4935C19.2566 22.8986 19.1364 22.9847 19.0615 22.9847C19.0192 22.9847 18.8545 23.1002 18.6955 23.2414C18.5365 23.3826 18.3069 23.5416 18.1853 23.5948C17.9067 23.7165 17.2176 24.1886 17.108 24.3328C16.9991 24.476 16.237 25.1492 16.1115 25.213C16.0576 25.2404 15.7717 25.4865 15.4763 25.7599C15.1808 26.0333 14.8893 26.2715 14.8285 26.2893C14.7158 26.3222 14.4077 26.1439 14.4077 26.0457C14.4077 26.0176 14.4734 25.9671 14.5537 25.9334C14.634 25.8997 14.6997 25.8429 14.6997 25.8073C14.6997 25.732 15.9898 24.524 16.4504 24.1681C16.6227 24.0349 16.8543 23.8477 16.9652 23.752C17.1401 23.6009 17.601 23.2895 17.9027 23.1185C17.9556 23.0885 18.166 22.9494 18.3702 22.8092C18.5745 22.6691 18.7895 22.5544 18.848 22.5544C18.9065 22.5544 18.9706 22.5074 18.9904 22.45C19.0102 22.3926 19.1554 22.2919 19.313 22.2263C19.4707 22.1607 19.6073 22.078 19.6167 22.0426C19.6504 21.9158 20.604 21.2407 21.298 20.8525C21.5979 20.6847 22.1218 20.3031 22.1914 20.2019C22.2171 20.1644 22.3002 20.1338 22.3762 20.1338C22.4522 20.1338 22.5757 20.086 22.6507 20.0276C23.1433 19.6437 23.7561 19.1943 23.9549 19.0713C24.0833 18.9917 24.2704 18.8655 24.3706 18.7906C24.4708 18.7158 24.6999 18.5591 24.8797 18.4423C25.3374 18.1451 25.3362 18.1044 24.8697 18.1013C24.6556 18.1001 24.3884 18.0856 24.276 18.0694C24.1636 18.0533 23.92 18.0241 23.7348 18.0045C23.5495 17.9848 23.3837 17.9476 23.3664 17.9217C23.349 17.8958 23.2719 17.8747 23.195 17.8747C23.1181 17.8747 22.9949 17.8528 22.9211 17.8261C22.8473 17.7995 22.5636 17.7483 22.2906 17.7125C22.0177 17.6767 21.7345 17.6128 21.6615 17.5706C21.5884 17.5285 21.4308 17.4979 21.3111 17.5028C21.1915 17.5077 20.8965 17.4622 20.6557 17.4019C20.4148 17.3415 20.0879 17.2804 19.9292 17.2661L19.6406 17.2401L19.7816 17.338C19.9182 17.433 19.9197 17.4414 19.8295 17.6156C19.7784 17.7144 19.6609 17.8312 19.5684 17.8753C19.4759 17.9193 19.2689 18.0462 19.1083 18.1571C18.9477 18.2681 18.7841 18.3478 18.7449 18.3342C18.7056 18.3206 18.653 18.3419 18.6281 18.3816C18.561 18.4884 17.9174 18.965 17.6485 19.1071C17.52 19.1749 17.2835 19.3389 17.1229 19.4715C16.7978 19.7399 15.8196 20.4028 15.7486 20.4028C15.7235 20.4028 15.5579 20.5117 15.3805 20.6449C15.203 20.778 15.0378 20.8869 15.0133 20.8869C14.9889 20.8869 14.9017 20.9456 14.8196 21.0173C14.7376 21.089 14.4077 21.3287 14.0865 21.5499C13.7654 21.771 13.4566 21.9907 13.4004 22.038C13.3442 22.0853 13.2583 22.1241 13.2094 22.1241C13.1605 22.1241 13.0906 22.1846 13.054 22.2586C12.9821 22.4039 12.9196 22.4276 12.8563 22.3332C12.8312 22.296 12.7753 22.3314 12.7079 22.4274C12.6484 22.512 12.388 22.7386 12.1294 22.9309C11.8707 23.1232 11.325 23.5768 10.9166 23.9389C10.5083 24.301 10.1164 24.6485 10.0456 24.7112C9.94921 24.7965 9.92535 24.864 9.95053 24.9799C9.97506 25.0929 9.95858 25.1437 9.88942 25.1681C9.83731 25.1866 9.79471 25.2366 9.79471 25.2793C9.79471 25.322 9.69618 25.4408 9.57574 25.5433C9.39368 25.6982 9.37153 25.7386 9.44436 25.7828C9.51939 25.8283 10.3532 26.0932 10.5246 26.1259C10.5567 26.1321 10.7538 26.1885 10.9626 26.2513C12.3329 26.6638 13.8036 27.0392 14.6997 27.2054C14.9084 27.2441 15.3157 27.3279 15.6047 27.3915C15.8938 27.4552 16.3254 27.5317 16.5639 27.5616C16.8024 27.5915 17.0229 27.6305 17.054 27.6481C17.1531 27.7046 18.6231 27.9383 19.3418 28.0118C19.6793 28.0463 20.0665 28.1254 20.6849 28.286C20.8454 28.3278 21.2002 28.4001 21.4731 28.4468C21.7461 28.4935 22.0352 28.5458 22.1155 28.563C22.1958 28.5803 22.3009 28.6011 22.349 28.6092C22.3972 28.6174 22.6074 28.6636 22.8162 28.7121C23.0249 28.7605 23.4191 28.8237 23.6921 28.8524C25.1606 29.0069 26.1002 29.0863 26.4073 29.0821C26.5357 29.0802 27.0219 29.1176 27.4875 29.165C28.3418 29.252 30.2348 29.2735 31.3193 29.2085C31.8005 29.1797 32.4255 29.0891 33.064 28.9558C33.1925 28.9289 33.534 28.8678 33.8231 28.8198C34.4991 28.7077 35.5291 28.4802 35.6535 28.4155C35.7066 28.3879 35.9077 28.3173 36.1004 28.2586C36.9644 27.9955 37.4384 27.8159 37.8028 27.6134C38.0186 27.4935 38.217 27.3954 38.2438 27.3954C38.2705 27.3954 38.3995 27.3332 38.5303 27.2571C38.6612 27.181 38.7829 27.1322 38.8008 27.1487C38.8186 27.1651 38.8621 27.1444 38.8974 27.1023C38.9327 27.0604 39.0901 26.9641 39.2472 26.8883C39.4043 26.8124 39.5882 26.7011 39.6559 26.6409C39.7237 26.5806 39.9236 26.4282 40.1002 26.3021C40.2769 26.176 40.5482 25.9165 40.7032 25.7256C40.9851 25.3783 41.2909 25.0337 41.6787 24.6266C42.0527 24.234 42.183 23.9981 42.2588 23.5764C42.2986 23.3545 42.3448 23.1366 42.3614 23.0922C42.4488 22.8582 42.5461 21.6253 42.5248 21.0224C42.5087 20.5686 42.4787 20.4181 42.3538 20.1667C42.2705 19.9989 42.2024 19.8436 42.2024 19.8215C42.2024 19.7717 41.6768 18.9874 41.6187 18.9504C41.5954 18.9357 41.5321 18.8509 41.4781 18.7622C41.3061 18.4796 41.0959 18.2352 40.763 17.931C40.4521 17.6469 40.4359 17.6393 40.3568 17.7414C40.1185 18.0492 39.7563 18.3196 38.4665 19.1528C38.3869 19.2042 38.2161 19.3327 38.0869 19.4384C37.8251 19.6526 37.5154 19.8346 37.1222 20.0054C36.9777 20.0682 36.7938 20.1857 36.7135 20.2665C36.6332 20.3473 36.4493 20.4698 36.3048 20.5388C36.1602 20.6078 35.9143 20.7628 35.7583 20.8831C35.6022 21.0035 35.4329 21.102 35.3819 21.102C35.331 21.102 35.2222 21.1599 35.1401 21.2306C34.9851 21.3643 34.4539 21.6926 33.87 22.0157C33.6836 22.1189 33.4238 22.3004 33.2925 22.4191C33.0564 22.6328 32.6057 22.911 31.9837 23.227C31.5348 23.455 30.8029 23.886 30.4311 24.1412C30.2587 24.2595 29.9308 24.4773 29.7025 24.6253C29.4742 24.7732 28.9734 25.1363 28.5896 25.4321C28.2059 25.728 27.7943 26.0381 27.6751 26.1213C27.5559 26.2044 27.3028 26.3981 27.1127 26.5516C26.9226 26.7051 26.7256 26.8601 26.6748 26.8962C26.5953 26.9526 26.5946 26.962 26.6699 26.9642C26.7181 26.9655 26.796 26.9892 26.8431 27.0167C26.9118 27.0567 26.8715 27.1152 26.6387 27.3135C26.4792 27.4493 26.2305 27.6241 26.086 27.7019C25.9415 27.7797 25.7575 27.8952 25.6772 27.9584C25.2086 28.3278 24.6913 28.5342 24.5346 28.4144C24.4885 28.3792 24.451 28.2575 24.451 28.1433C24.451 27.9698 24.4781 27.9232 24.618 27.8566C24.7505 27.7934 25.7033 27.0499 26.4317 26.4412C26.494 26.3892 26.6297 26.286 26.7332 26.2121C26.8367 26.1381 27.0028 26.0144 27.1022 25.9371C27.2017 25.8599 27.3619 25.7588 27.4582 25.7125C27.5546 25.6661 27.6988 25.5539 27.7787 25.463C27.8587 25.372 27.952 25.2977 27.9862 25.2977C28.0204 25.2977 28.139 25.2109 28.2496 25.1048C28.3603 24.9987 28.6479 24.7821 28.8888 24.6235C29.1297 24.4649 29.4319 24.2447 29.5603 24.1342C29.6888 24.0237 30.0124 23.7985 30.2795 23.6338C30.7128 23.3666 30.9473 23.2308 31.6329 22.8502C31.7395 22.791 31.8709 22.7063 31.9249 22.662C32.0607 22.5503 32.2206 22.4567 32.3888 22.3903C32.4672 22.3594 32.6402 22.2416 32.7734 22.1285C32.9066 22.0154 33.0921 21.8794 33.1857 21.8263C33.5863 21.5987 34 21.3356 34.1338 21.2231C34.213 21.1566 34.4119 21.0178 34.5759 20.9147C34.7399 20.8116 34.9791 20.6544 35.1076 20.5654C35.236 20.4764 35.5382 20.2822 35.7791 20.1338C36.02 19.9855 36.2934 19.8099 36.3867 19.7435C36.48 19.6771 36.6424 19.5744 36.7476 19.5152C36.9992 19.3737 37.9367 18.7454 38.0856 18.6184C38.2668 18.4639 38.7667 18.1499 38.9669 18.0647C39.132 17.9944 39.3259 17.8639 39.8519 17.4687C39.9563 17.3903 40.0415 17.2862 40.0412 17.2373C40.0406 17.1198 39.7043 16.7974 39.4518 16.6721L39.2504 16.5722L38.9454 16.738C38.7776 16.8291 38.6403 16.888 38.6403 16.8688C38.6403 16.8496 38.5812 16.8812 38.5089 16.939C38.2367 17.1568 37.822 17.3952 37.7423 17.3797C37.6968 17.3708 37.5313 17.4726 37.3747 17.6057C36.9167 17.9949 36.8536 18.0381 36.7068 18.0633C36.6301 18.0765 36.5312 18.1365 36.4869 18.1967C36.3539 18.3774 35.3148 19.1252 34.9908 19.2734C34.7551 19.3812 34.2719 19.6887 34.0565 19.8679C33.9602 19.9481 33.8116 20.0468 33.7263 20.0872C33.6411 20.1276 33.444 20.2645 33.2884 20.3913C32.9898 20.6347 32.1719 21.2281 31.9252 21.3804C31.8449 21.43 31.6084 21.6168 31.3997 21.7957C31.1909 21.9745 30.9862 22.1215 30.9446 22.1224C30.9031 22.1236 30.7455 22.2279 30.5943 22.3548C30.4431 22.4816 30.2012 22.6553 30.0567 22.7408C29.7562 22.9183 29.1028 23.4073 29.0737 23.4764C29.063 23.5018 29.0304 23.5226 29.0012 23.5226C28.9385 23.5226 28.4467 23.8588 28.2663 24.0249C28.1969 24.0889 27.8816 24.3585 27.5656 24.6242C27.2496 24.8899 26.6353 25.4345 26.2004 25.8345C25.2531 26.7057 24.9451 26.9651 24.8577 26.9651C24.8216 26.9651 24.6803 27.0681 24.5436 27.1941C24.4069 27.32 24.2091 27.4834 24.104 27.5571C23.9989 27.6309 23.7459 27.8191 23.5418 27.9754C23.3377 28.1316 23.0654 28.2937 22.9368 28.3355L22.7029 28.4115L22.6451 28.2185C22.59 28.0349 22.5991 28.0147 22.833 27.7982C22.9682 27.6731 23.1614 27.532 23.2623 27.4847C23.3633 27.4373 23.5255 27.3253 23.6228 27.2356C23.7201 27.146 23.8248 27.0727 23.8554 27.0727C23.8861 27.0727 23.9472 27.0326 23.9913 26.9836C24.0354 26.9347 24.2422 26.7685 24.451 26.6144C24.6597 26.4602 25.1013 26.0949 25.4321 25.8024C25.763 25.51 26.2886 25.0587 26.6 24.7995C26.9114 24.5404 27.3653 24.1591 27.6086 23.9523C27.8519 23.7456 28.0817 23.5764 28.1193 23.5764C28.1569 23.5764 28.2895 23.4917 28.414 23.3881C28.5384 23.2846 28.6633 23.1996 28.6915 23.1993C28.7197 23.199 28.8343 23.1119 28.9462 23.0059C29.0581 22.8998 29.2289 22.7757 29.3258 22.73C29.4226 22.6843 29.6464 22.5329 29.8231 22.3934C29.9997 22.254 30.1771 22.1505 30.2172 22.1634C30.2574 22.1762 30.2902 22.1517 30.2902 22.1088C30.2902 22.0659 30.4544 21.9311 30.6551 21.8092C30.8559 21.6872 31.1383 21.4823 31.2829 21.3536C31.7165 20.9677 32.7697 20.2414 32.8957 20.2414C32.9172 20.2414 32.9901 20.192 33.0577 20.1316C33.2676 19.9442 34.035 19.3612 34.5113 19.0273C34.7615 18.8519 35.0637 18.64 35.1829 18.5565C35.302 18.473 35.4193 18.3722 35.4435 18.3324C35.4676 18.2927 35.6139 18.1885 35.7685 18.1009C35.9231 18.0132 36.1267 17.8754 36.2209 17.7946C36.5374 17.5232 37.2452 17.014 37.306 17.014C37.3391 17.014 37.5018 16.9101 37.6675 16.783C37.8332 16.656 38.0673 16.5053 38.1877 16.4481C38.3082 16.3908 38.4067 16.3173 38.4067 16.2846C38.4067 16.2203 38.1022 16.1382 37.414 16.017C36.7388 15.898 36.6634 15.878 36.5912 15.7978C36.5541 15.7566 36.45 15.723 36.3596 15.723C36.2693 15.723 36.1245 15.6982 36.0379 15.6679C35.8832 15.6137 35.8823 15.6108 35.989 15.5022C36.1027 15.3865 36.1715 15.387 36.6257 15.5071C36.7542 15.541 37.214 15.5905 37.6476 15.6171C38.4604 15.6668 39.2602 15.7758 39.5161 15.8715C39.5964 15.9015 39.7122 15.9772 39.7733 16.0398C39.8345 16.1023 39.9163 16.1535 39.955 16.1535C39.9938 16.1535 40.2699 16.4016 40.5686 16.7049C40.8674 17.0081 41.1535 17.2926 41.2044 17.3371C41.2554 17.3816 41.3737 17.5147 41.4673 17.6329C41.5609 17.7512 41.7155 17.9205 41.8108 18.0092C42.0264 18.2099 42.3698 18.6832 42.6862 19.2159C42.8191 19.4398 42.988 19.705 43.0614 19.8053C43.1348 19.9056 43.1948 20.0585 43.1948 20.145C43.1948 20.2316 43.2245 20.3535 43.2608 20.4159C43.3442 20.5594 43.3348 21.9789 43.2482 22.3294C43.2139 22.468 43.1741 22.7388 43.1596 22.9311C43.1452 23.1234 43.1174 23.317 43.0979 23.3614C43.0784 23.4057 43.0416 23.5389 43.0162 23.6572C42.8791 24.2964 42.7008 24.6527 42.3393 25.0095C42.1936 25.1533 41.9687 25.398 41.8394 25.5533C41.71 25.7086 41.5815 25.8357 41.5536 25.8357C41.5258 25.8357 41.4665 25.9144 41.4219 26.0105C41.3263 26.2165 40.7511 26.7692 40.5155 26.8814C40.425 26.9245 40.3072 27.0214 40.2537 27.0966C40.2002 27.1718 40.0189 27.2972 39.8509 27.3751C39.6828 27.4531 39.5243 27.5501 39.4986 27.5907C39.473 27.6313 39.4113 27.6646 39.3617 27.6646C39.3121 27.6646 39.2017 27.7083 39.1164 27.7616C39.0312 27.8149 38.8432 27.905 38.6987 27.9618C38.5541 28.0185 38.4149 28.0959 38.3892 28.1337C38.3635 28.1715 38.3106 28.2025 38.2716 28.2025C38.2326 28.2025 38.0697 28.2834 37.9096 28.3824C37.7494 28.4814 37.4739 28.6046 37.2972 28.6562C36.9299 28.7634 36.1495 29.0414 35.9988 29.1187C35.943 29.1473 35.8329 29.1707 35.7541 29.1707C35.6753 29.1707 35.5945 29.1949 35.5747 29.2244C35.5548 29.254 35.4494 29.2782 35.3404 29.2782C35.2314 29.2782 35.0819 29.3001 35.0081 29.3268C34.8815 29.3727 34.6665 29.4146 33.9105 29.5406C33.7339 29.57 33.4711 29.6215 33.3266 29.655C33.1821 29.6885 32.9324 29.7359 32.7719 29.7603C32.6113 29.7846 32.3255 29.8306 32.1368 29.8624C31.9481 29.8942 31.2781 29.9346 30.6478 29.9521C30.0176 29.9696 29.4493 29.9905 29.3851 29.9984C29.3209 30.0064 28.9533 29.9836 28.5679 29.9477ZM8.66177 25.3381C8.79383 25.098 11.2532 22.8684 11.7218 22.5639C11.9305 22.4282 12.1539 22.2724 12.2181 22.2175C12.2823 22.1626 12.4531 22.0335 12.5976 21.9305C12.8396 21.7581 13.1006 21.5524 13.4735 21.2403C13.6566 21.0871 14.5626 20.4958 14.7582 20.4019C14.8384 20.3633 15.0507 20.2146 15.2298 20.0715C15.4089 19.9283 15.5814 19.8112 15.613 19.8112C15.6447 19.8112 15.7478 19.7368 15.8421 19.646C15.9364 19.5552 16.1056 19.4297 16.218 19.3671C16.3304 19.3045 16.5725 19.1428 16.756 19.0078C17.228 18.6605 17.7886 18.2671 18.0281 18.1151C18.7861 17.6341 19.3338 17.2516 19.3572 17.1872C19.3707 17.1498 19.329 17.1217 19.2601 17.1217C19.1331 17.1217 18.7801 17.053 18.2909 16.9331C18.1303 16.8937 17.907 16.8444 17.7945 16.8235C17.5939 16.7862 17.5921 16.7874 17.694 16.8923C17.8299 17.032 17.7586 17.2129 17.4937 17.401C17.3862 17.4774 17.1625 17.6575 16.9965 17.8014C16.6 18.1452 16.2923 18.3804 16.2027 18.4081C16.1629 18.4204 15.9266 18.5959 15.6775 18.7981C15.4284 19.0003 15.1995 19.1657 15.1688 19.1657C15.1382 19.1657 14.9719 19.2716 14.7994 19.401C14.6269 19.5305 14.4259 19.6659 14.3527 19.7019C14.2194 19.7677 13.8266 20.0821 13.5225 20.3666C13.4331 20.4502 13.3335 20.5035 13.3012 20.4851C13.2229 20.4405 13.0171 20.5448 12.802 20.7379C12.7057 20.8244 12.45 21.0038 12.2338 21.1365C12.0177 21.2693 11.825 21.4016 11.8056 21.4305C11.7862 21.4593 11.674 21.5403 11.5563 21.6104C11.4385 21.6804 11.2137 21.8482 11.0566 21.9832C10.8995 22.1182 10.7518 22.2177 10.7284 22.2044C10.7051 22.1911 10.5448 22.3129 10.3722 22.4749C10.1997 22.637 10.042 22.7696 10.0219 22.7696C9.9911 22.7696 9.79499 22.9292 9.35079 23.316C9.06428 23.5654 8.34795 24.359 8.37411 24.398C8.44226 24.4996 8.14316 24.706 7.92782 24.706C7.7389 24.706 7.70822 24.6858 7.64219 24.5176C7.5758 24.3485 7.58099 24.3126 7.69285 24.168C7.76138 24.0793 7.83537 24.0062 7.85727 24.0055C7.94154 24.0031 8.33503 23.6368 8.33503 23.561C8.33503 23.5171 8.39416 23.4445 8.46641 23.3995C8.53867 23.3546 8.78173 23.1588 9.00654 22.9643C9.23135 22.7699 9.44813 22.6102 9.48827 22.6095C9.52843 22.6089 9.56127 22.5858 9.56127 22.5582C9.56127 22.5042 9.60167 22.4644 9.94728 22.1778C10.3321 21.8587 10.8072 21.5055 10.8516 21.5055C10.8748 21.5055 11.0217 21.3826 11.1781 21.2323C11.3345 21.0821 11.593 20.8892 11.7527 20.8037C11.9123 20.7181 12.1797 20.5462 12.3468 20.4216C12.514 20.297 12.7767 20.1292 12.9307 20.0487C13.0848 19.9682 13.2765 19.8452 13.3568 19.7754C13.65 19.5204 14.3595 19.0016 14.6571 18.8245C14.8251 18.7245 15.0358 18.5791 15.1254 18.5014C15.215 18.4236 15.3494 18.3295 15.4241 18.2922C15.5593 18.2247 16.205 17.708 16.6349 17.3233C16.7588 17.2124 16.8816 17.1216 16.9077 17.1216C16.9338 17.1216 17.0134 17.049 17.0846 16.9603C17.1559 16.8715 17.2528 16.7989 17.3 16.7989C17.4197 16.7989 17.4076 16.6942 17.2836 16.6584C17.2274 16.6422 17.0763 16.5861 16.9479 16.5338C16.8194 16.4815 16.5304 16.4077 16.3056 16.3697C16.0807 16.3318 15.8695 16.281 15.8361 16.2568C15.8027 16.2326 15.6713 16.19 15.5442 16.162C15.0976 16.0639 14.6667 15.9436 14.2618 15.804C13.8554 15.6639 13.5138 15.58 13.1232 15.5246C13.0108 15.5087 12.8751 15.4602 12.8216 15.4169C12.674 15.2974 11.7944 14.9158 11.5852 14.8805C11.4837 14.8633 11.3481 14.8207 11.2838 14.7856C11.2196 14.7506 11.0488 14.6902 10.9043 14.6516C10.1695 14.455 9.61965 14.0503 9.61965 13.7059V13.5214L9.35227 13.6876C9.20521 13.779 9.07072 13.8878 9.05339 13.9294C9.03606 13.971 8.97903 13.9929 8.92663 13.978C8.86676 13.961 8.78793 14.0079 8.71457 14.1041C8.6001 14.2541 8.08409 14.6464 7.99877 14.6482C7.97496 14.6487 7.88978 14.7129 7.80949 14.7909C7.72921 14.8688 7.51899 15.0292 7.34235 15.1473C7.16572 15.2654 6.95211 15.4207 6.86766 15.4926C6.78322 15.5644 6.67811 15.6162 6.63409 15.6076C6.59009 15.599 6.47327 15.6638 6.37452 15.7517C6.01919 16.0677 5.57799 16.3958 5.48305 16.4146C5.42977 16.4252 5.27769 16.5341 5.14504 16.6567C5.01239 16.7793 4.7393 16.9885 4.53817 17.1216C4.33704 17.2548 4.06305 17.4605 3.92931 17.5788C2.77316 18.6018 2.37851 18.9854 2.2206 19.2398C2.18167 19.3026 2.16373 19.4268 2.18069 19.516C2.20669 19.6521 2.18191 19.6983 2.02573 19.8046C1.81862 19.9457 1.4028 19.9752 1.31987 19.8547C1.23587 19.7327 1.26501 19.5349 1.39669 19.3334C1.72077 18.8373 3.01051 17.5625 3.59928 17.1564C3.77708 17.0337 3.96529 16.897 4.01751 16.8527C4.26646 16.6411 4.65963 16.3422 4.97746 16.1228C5.17015 15.9898 5.46114 15.7734 5.62409 15.642C5.78704 15.5105 6.09103 15.2874 6.29962 15.1462C6.50821 15.0049 6.75589 14.8355 6.85003 14.7697C6.94416 14.7039 7.17884 14.5492 7.37154 14.4259C7.65492 14.2446 8.3829 13.6979 8.51018 13.5708C8.61896 13.4622 9.62522 12.6571 9.65217 12.6571C9.6706 12.6571 9.73653 12.6821 9.79865 12.7127C9.88797 12.7568 9.91159 12.7508 9.91159 12.6842C9.91159 12.6378 9.95102 12.586 9.99918 12.5689C10.0473 12.5519 10.0868 12.4912 10.0868 12.4339C10.0868 12.3767 10.1413 12.1743 10.208 11.9841C10.2747 11.7939 10.3134 11.592 10.2939 11.5355C10.2713 11.4699 10.2908 11.4212 10.3478 11.4011C10.4034 11.3814 10.4364 11.303 10.4353 11.193C10.4334 11.0347 10.4254 11.0262 10.3558 11.1106C10.3132 11.1624 10.2477 11.2047 10.2104 11.2047C10.1732 11.2047 10.1143 11.2592 10.0798 11.3258C10.0452 11.3923 9.72823 11.6646 9.37545 11.9309C9.02268 12.1972 8.60525 12.5168 8.44785 12.6413C8.29043 12.7657 8.10211 12.8965 8.02935 12.932C7.95658 12.9675 7.76567 13.0968 7.60509 13.2195C7.44451 13.3421 7.24087 13.471 7.15255 13.5058C7.06423 13.5407 6.99197 13.5939 6.99197 13.6241C6.99197 13.6543 6.95914 13.6791 6.91898 13.6791C6.87883 13.6791 6.76716 13.7419 6.67082 13.8187C6.57447 13.8954 6.41681 13.9955 6.32046 14.0411C6.22412 14.0867 6.05055 14.1994 5.93477 14.2915C5.4601 14.6692 4.21549 15.5202 4.05485 15.577C4.00024 15.5963 3.95558 15.6335 3.95558 15.6596C3.95558 15.6858 3.73408 15.8583 3.46335 16.043C3.19263 16.2277 2.95697 16.4128 2.93966 16.4543C2.92233 16.4959 2.84596 16.5299 2.76989 16.5299C2.68486 16.5299 2.51908 16.6283 2.33939 16.7854C2.17867 16.9259 1.95187 17.111 1.8354 17.1967C1.71892 17.2825 1.63649 17.3718 1.65221 17.3952C1.66796 17.4186 1.66417 17.5337 1.64379 17.651C1.60449 17.8776 1.6106 17.8743 1.05292 17.9635L0.865495 17.9935L0.848529 18.4047C0.830282 18.848 1.02981 19.7364 1.17044 19.838C1.21138 19.8676 1.25119 19.9743 1.25886 20.0752C1.26655 20.1761 1.30859 20.285 1.35231 20.3172C1.39606 20.3495 1.4629 20.4663 1.50091 20.5768C1.53893 20.6874 1.59436 20.7917 1.62413 20.8086C1.65392 20.8256 1.67826 20.8777 1.67826 20.9246C1.67826 20.9715 1.79231 21.1334 1.9317 21.2845C2.07108 21.4356 2.27472 21.7102 2.38424 21.8948C2.50633 22.1005 2.62154 22.2306 2.68208 22.231C2.73639 22.2313 2.79707 22.2558 2.81692 22.2854C2.83675 22.315 2.82515 22.3392 2.79116 22.3392C2.65958 22.3392 2.73874 22.4926 2.9333 22.6146C3.04548 22.685 3.13745 22.7715 3.13767 22.8068C3.13789 22.8421 3.21033 22.9105 3.29865 22.9589C3.38697 23.0072 3.56434 23.1762 3.6928 23.3343C3.94126 23.6403 3.95335 23.6462 6.02849 24.4745C7.44952 25.0417 7.8549 25.2118 8.1246 25.3543C8.28848 25.4409 8.45474 25.512 8.49406 25.5123C8.53336 25.5126 8.60887 25.4342 8.66177 25.3381ZM6.41287 23.262C6.2842 23.0405 6.3428 22.9183 6.77302 22.5108C7.33801 21.9757 7.51753 21.7974 7.51753 21.7714C7.51753 21.7379 8.03812 21.3032 8.22249 21.1828C8.31309 21.1236 8.41479 21.0198 8.44849 20.9521C8.54719 20.7538 9.04224 20.2953 9.15769 20.2953C9.21658 20.2953 9.33972 20.1937 9.43487 20.0667C9.52903 19.9409 9.7208 19.7546 9.86102 19.6526C10.0012 19.5506 10.137 19.4356 10.1627 19.3971C10.1884 19.3586 10.2368 19.327 10.2703 19.327C10.3038 19.327 10.4535 19.2409 10.6031 19.1357C11.141 18.7572 11.8587 18.2771 11.9644 18.225C12.0236 18.1958 12.0721 18.1414 12.0721 18.104C12.0721 18.0667 12.1075 18.0361 12.1507 18.0361C12.1939 18.0361 12.2792 17.9848 12.3404 17.9221C12.4016 17.8594 12.6356 17.6997 12.8604 17.5671C13.3102 17.3019 13.319 17.2961 14 16.8081C14.6137 16.3684 14.7747 16.3136 14.966 16.4792C15.1939 16.6764 15.1472 16.7655 14.656 17.0699C14.4071 17.2241 14.0852 17.4536 13.9407 17.5798C13.7961 17.7061 13.5859 17.8518 13.4735 17.9037C13.3611 17.9556 13.1378 18.1003 12.9772 18.2251C12.8166 18.35 12.6172 18.4856 12.534 18.5265C12.3547 18.6147 11.779 18.9935 11.3378 19.3136C11.1645 19.4393 11.0108 19.5422 10.9964 19.5422C10.9818 19.5422 10.8961 19.6043 10.8058 19.6801C10.4527 19.9765 10.0221 20.2953 9.9747 20.2953C9.91297 20.2953 9.39005 20.7744 8.77296 21.3965C8.51603 21.6555 8.20477 21.9554 8.08125 22.063C7.84839 22.2658 7.3319 22.7569 6.98652 23.1039C6.7391 23.3525 6.50321 23.4175 6.41287 23.262ZM4.31045 22.4782C4.1511 22.3219 4.17795 22.1259 4.39671 21.8483C4.616 21.5702 5.54426 20.7256 5.63073 20.7256C5.6729 20.7256 5.70737 20.6924 5.70737 20.6519C5.70737 20.5778 6.44876 19.9187 6.53209 19.9187C6.55662 19.9187 6.71608 19.7823 6.8865 19.6155C7.34494 19.1669 8.57313 18.305 8.75392 18.305C8.77888 18.305 9.06066 18.1053 9.38014 17.8613C9.69962 17.6172 10.1141 17.3212 10.3013 17.2035C10.6494 16.9846 11.6319 16.1101 11.918 15.7647C12.0923 15.5542 12.3057 15.4754 12.4753 15.559C12.6265 15.6335 12.6806 15.8689 12.5793 16.0112C12.4283 16.2234 11.469 17.1217 11.3934 17.1217C11.3524 17.1217 11.2978 17.1542 11.2721 17.1941C11.2464 17.234 11.1018 17.3527 10.9507 17.458C10.7996 17.5634 10.5894 17.7243 10.4836 17.8157C10.3777 17.907 10.2674 17.9819 10.2383 17.982C10.2092 17.9822 10.0993 18.0428 9.994 18.1168C9.88874 18.1907 9.7755 18.2512 9.74238 18.2512C9.70924 18.2512 9.65395 18.2998 9.6195 18.3591C9.58508 18.4184 9.40675 18.54 9.2233 18.6293C8.80117 18.8348 8.33371 19.1455 8.02001 19.4291C7.88573 19.5505 7.7573 19.6498 7.73461 19.6498C7.7119 19.6498 7.54211 19.7897 7.35727 19.9606C7.17243 20.1316 6.91609 20.3371 6.78762 20.4174C6.49194 20.6021 5.41541 21.5568 5.41541 21.6342C5.41541 21.6661 5.30821 21.7576 5.17719 21.8375C4.93967 21.9823 4.93933 21.983 5.06425 22.0698C5.18557 22.1541 5.18636 22.1619 5.08921 22.3179C4.90313 22.6166 4.52993 22.6934 4.31045 22.4782ZM3.04332 20.9933C2.94265 20.9005 3.02068 20.6542 3.23073 20.4014C3.34072 20.2691 3.5462 20.0009 3.68734 19.8055C3.82849 19.6101 3.986 19.4354 4.03738 19.4172C4.08876 19.399 4.13078 19.3391 4.13078 19.284C4.13078 19.223 4.24351 19.1165 4.41863 19.012C4.57695 18.9175 4.89884 18.6653 5.13393 18.4516C5.36903 18.2378 5.7044 17.9541 5.87919 17.8209C6.05398 17.6878 6.25105 17.5221 6.31713 17.4527C6.3832 17.3833 6.51611 17.2893 6.61245 17.2437C6.7088 17.1981 6.88164 17.0854 6.99655 16.9933C7.11145 16.9012 7.42271 16.6826 7.68824 16.5075C7.95376 16.3325 8.20134 16.1614 8.23842 16.1273C8.27552 16.0933 8.42406 15.981 8.56859 15.8777C9.1174 15.4857 9.40502 15.2368 9.57835 15.0038C9.67769 14.8702 9.6902 14.8673 9.82282 14.9474C10.0094 15.06 10.0635 15.301 9.94082 15.4735C9.82171 15.6409 8.82975 16.4224 8.73629 16.4224C8.69833 16.4224 8.56984 16.5132 8.45075 16.6241C8.05218 16.9954 7.26534 17.5521 6.93501 17.6965C6.88759 17.7172 6.65739 17.9029 6.42341 18.1091C6.18943 18.3153 5.94188 18.5202 5.87331 18.5645C5.80474 18.6087 5.65685 18.7385 5.54465 18.8529C5.43246 18.9673 5.26548 19.1018 5.17359 19.1518C5.0817 19.2018 4.99207 19.2847 4.97441 19.3359C4.95677 19.3872 4.89403 19.4432 4.83503 19.4605C4.77601 19.4777 4.66231 19.5818 4.58231 19.6918C4.50232 19.8018 4.26289 20.0729 4.05026 20.2942C3.83762 20.5156 3.66364 20.7357 3.66364 20.7835C3.66364 20.9881 3.20582 21.143 3.04332 20.9933ZM29.2686 20.7508C29.3854 20.6626 29.4131 20.6184 29.3518 20.6183C29.3012 20.6181 29.1981 20.6785 29.1226 20.7525C28.9473 20.9244 29.0401 20.9235 29.2686 20.7508ZM29.9693 17.5388C30.0335 17.5364 30.2438 17.54 30.4365 17.5468C30.6291 17.5535 31.1415 17.5455 31.5751 17.5293C32.0087 17.5129 32.6488 17.4896 32.9977 17.4774C33.3466 17.4652 33.7874 17.4234 33.9772 17.3846L34.3224 17.3141L34.3089 17.0162C34.3015 16.8523 34.3174 16.4607 34.3442 16.1459C34.3898 15.6113 34.3857 15.5713 34.2833 15.5416C34.2229 15.524 33.5955 15.5198 32.8889 15.5322C32.1824 15.5445 31.2364 15.5321 30.7868 15.5046C30.3372 15.477 29.779 15.4439 29.5464 15.4309C29.3138 15.4179 29.0981 15.3928 29.0671 15.3752C29.0125 15.3441 28.5294 15.2733 27.9256 15.2078C27.765 15.1904 27.3971 15.1689 27.1081 15.16C26.5593 15.1431 25.9538 15.0554 25.7805 14.9677C25.7247 14.9394 25.5667 14.9163 25.4293 14.9163C25.2919 14.9163 25.0875 14.871 24.9752 14.8155C24.863 14.7601 24.6006 14.6979 24.3922 14.6774C24.1838 14.6568 23.9082 14.5957 23.7797 14.5416C23.4159 14.3881 23.1829 14.3363 22.5537 14.2691C22.2327 14.2348 21.9257 14.1848 21.8715 14.1581C21.8173 14.1314 21.6822 14.1095 21.5714 14.1095C21.392 14.1095 21.1714 14.0616 20.564 13.891C20.4654 13.8633 20.2752 13.8406 20.1413 13.8406C20.0074 13.8406 19.7597 13.7906 19.5907 13.7296C19.4218 13.6685 19.1522 13.5978 18.9916 13.5724C18.831 13.547 18.6077 13.5016 18.4953 13.4716C18.3829 13.4416 18.0807 13.3663 17.8237 13.3043C17.5668 13.2423 17.3041 13.1704 17.2398 13.1445C17.0673 13.0748 16.3286 12.9258 16.1566 12.926C16.0748 12.9261 15.977 12.8978 15.9395 12.8632C15.9019 12.8286 15.6818 12.756 15.4503 12.7019C15.2189 12.6477 14.8154 12.5308 14.5538 12.442C14.2922 12.3533 14.0447 12.2806 14.0038 12.2806C13.963 12.2806 13.8597 12.2359 13.7745 12.1813C13.6893 12.1266 13.567 12.068 13.5027 12.051C13.4385 12.034 13.1757 11.9431 12.9188 11.8491C11.9522 11.4951 11.3965 11.3069 11.2692 11.2904C11.1535 11.2755 11.1378 11.2969 11.1378 11.4704C11.1378 11.5788 11.1158 11.6904 11.0889 11.7185C11.0257 11.7845 10.825 12.3182 10.6955 12.7648C10.6397 12.9571 10.5674 13.146 10.5349 13.1847C10.5024 13.2233 10.4669 13.3295 10.4561 13.4207C10.4399 13.5563 10.4762 13.6188 10.6557 13.7642C10.8697 13.9376 11.5329 14.1769 11.8346 14.1895C11.9128 14.1926 11.9872 14.2245 12.0001 14.2601C12.013 14.2956 12.0595 14.3247 12.1036 14.3247C12.1477 14.3247 12.2815 14.3858 12.401 14.4605C12.5205 14.5352 12.6859 14.6091 12.7686 14.6247C12.8512 14.6403 13.0239 14.6979 13.1524 14.7528C13.5364 14.9168 13.8343 15.01 14.1829 15.0751C14.3642 15.109 14.6533 15.186 14.8252 15.2463C14.9971 15.3065 15.1903 15.3678 15.2545 15.3826C15.3187 15.3974 15.4238 15.43 15.4881 15.4551C15.5523 15.4802 15.6837 15.5134 15.78 15.5289C15.8764 15.5444 16.0866 15.5834 16.2472 15.6156C16.4077 15.6478 16.6179 15.6889 16.7143 15.7068C16.8106 15.7247 16.9157 15.7689 16.9478 15.805C16.9998 15.8633 17.3172 15.9591 17.6486 16.0165C17.7128 16.0276 17.9493 16.09 18.1741 16.1552C18.3989 16.2203 18.7142 16.2938 18.8748 16.3183C19.0354 16.3429 19.5084 16.4268 19.9259 16.5047C20.3434 16.5826 20.816 16.668 20.9762 16.6945C21.1365 16.7211 21.3335 16.7651 21.4142 16.7923C21.4948 16.8195 21.7579 16.871 21.9988 16.9066C22.2397 16.9422 22.5024 16.9904 22.5827 17.0136C22.663 17.0369 22.8394 17.0573 22.9748 17.059C23.1101 17.0609 23.2711 17.0869 23.3325 17.1171C23.3939 17.1474 23.6116 17.1759 23.8163 17.1805C24.021 17.1847 24.2673 17.2202 24.3637 17.2587C24.5177 17.3201 25.6328 17.4313 27.2833 17.55C27.6973 17.5798 29.0057 17.5743 29.9693 17.5388ZM1.47597 16.9065C1.52302 16.9065 1.56152 16.8679 1.56152 16.8208C1.56152 16.7737 1.60784 16.7239 1.66447 16.7103C1.72111 16.6966 1.81185 16.6142 1.86614 16.527C1.92039 16.4399 2.0075 16.3686 2.05963 16.3686C2.11175 16.3686 2.23009 16.2989 2.32256 16.2137C2.41503 16.1285 2.61276 15.9929 2.76196 15.9124C2.91115 15.8319 3.07935 15.7261 3.13572 15.6773C3.19211 15.6285 3.36157 15.5039 3.51234 15.4004C3.66312 15.2968 3.87051 15.1442 3.97323 15.0611C4.07594 14.9781 4.2264 14.8975 4.30759 14.882C4.38878 14.8665 4.49779 14.7855 4.54984 14.7019C4.60189 14.6184 4.78509 14.4657 4.95695 14.3626C5.29131 14.162 5.42491 14.0698 5.75838 13.8099C6.11666 13.5305 6.67073 13.195 6.77374 13.195C6.82756 13.195 6.85994 13.1647 6.84574 13.1278C6.83152 13.0908 6.93092 12.9946 7.06655 12.9141C7.53883 12.6336 7.72352 12.5067 7.97978 12.2868C8.12162 12.165 8.24783 12.0654 8.26025 12.0654C8.2727 12.0654 8.47194 11.9351 8.70307 11.7759C9.19899 11.4342 9.71864 10.9553 9.65603 10.8976C9.63175 10.8752 9.4325 10.9473 9.21327 11.0578C8.99404 11.1682 8.77314 11.2586 8.72238 11.2586C8.67161 11.2586 8.50459 11.3119 8.35118 11.3771C7.45024 11.7601 6.77741 12.0528 6.26209 12.286C5.94094 12.4314 5.63626 12.5501 5.58504 12.5499C5.53383 12.5497 5.44187 12.6004 5.38074 12.6627C5.31959 12.7249 5.15129 12.8387 5.00673 12.9155C4.86217 12.9923 4.72289 13.0866 4.69721 13.1251C4.67151 13.1635 4.59104 13.195 4.51835 13.195C4.44566 13.195 4.30902 13.2693 4.21469 13.3601C4.12036 13.451 3.95915 13.5732 3.85643 13.6318C3.75371 13.6903 3.65394 13.7839 3.63472 13.8397C3.61549 13.8955 3.56636 13.9487 3.52553 13.958C3.44183 13.9771 2.49682 14.9201 2.4962 14.9852C2.49598 15.0082 2.4017 15.1033 2.28669 15.1963C2.17168 15.2893 1.98608 15.4972 1.87423 15.6582C1.48951 16.2122 1.05558 16.9337 1.01326 17.0896L0.970841 17.2458L1.18062 17.0762C1.296 16.9829 1.42891 16.9065 1.47597 16.9065ZM32.51 14.7811C32.5632 14.722 32.6038 14.7155 32.6583 14.7572C32.7076 14.7949 33.0398 14.8056 33.6286 14.7885C34.121 14.7741 34.5261 14.7607 34.5288 14.7587C34.5313 14.7568 34.5313 14.1317 34.5282 13.3699C34.5245 12.4332 34.5007 11.9495 34.4552 11.8757C34.4182 11.8158 34.3951 11.6827 34.4039 11.5799C34.4126 11.4772 34.3878 11.3326 34.3486 11.2586C34.3094 11.1847 34.2579 10.9547 34.234 10.7476C34.16 10.1057 34.1528 10.0587 34.0694 9.67101C33.9844 9.27585 33.8855 9.05323 33.7949 9.05323C33.7653 9.05323 33.6789 9.10767 33.6028 9.17427C33.3456 9.39934 32.8466 9.77754 32.2724 10.1828C31.6223 10.6416 31.5679 10.6772 30.4221 11.3931C30.2535 11.4985 30.1156 11.6084 30.1156 11.6375C30.1156 11.6666 29.9917 11.7445 29.8404 11.8107C29.6891 11.8768 29.4197 12.0665 29.2419 12.2321C28.4317 12.9866 27.896 13.5362 27.9103 13.5983C27.9188 13.6356 27.8664 13.7114 27.7938 13.7668C27.6374 13.8859 27.4029 14.4318 27.5075 14.4329C27.6309 14.4341 29.4949 14.6424 29.882 14.6981C30.0907 14.7282 30.5769 14.7557 30.9622 14.7592C31.3476 14.7629 31.8075 14.784 31.9841 14.8065C32.1607 14.829 32.3349 14.8508 32.3711 14.8549C32.4073 14.8592 32.4697 14.8259 32.51 14.7811ZM29.8087 14.2127C29.7525 14.1825 29.7065 14.0997 29.7065 14.0286C29.7065 13.87 29.8222 13.6253 29.8972 13.6253C29.9275 13.6253 30.3503 13.2599 30.8367 12.8132C31.3231 12.3665 31.7933 11.9665 31.8817 11.9242C31.97 11.882 32.0422 11.8249 32.0422 11.7974C32.0422 11.7698 32.1606 11.6833 32.3053 11.6052C32.45 11.5271 32.5879 11.4311 32.6119 11.3919C32.6841 11.2736 33.4315 10.8359 33.6773 10.7681C33.8586 10.718 33.926 10.7191 33.9965 10.773C34.1092 10.8591 34.1119 10.9838 34.002 11.0226C33.9558 11.039 33.9016 11.1169 33.8816 11.1957C33.8466 11.3339 33.3503 11.7426 33.2176 11.7426C33.1836 11.7426 33.129 11.7889 33.0962 11.8454C33.0633 11.9019 32.9385 12.0039 32.8189 12.072C32.6992 12.1401 32.5559 12.2331 32.5005 12.2785C32.445 12.324 32.2669 12.458 32.1046 12.5763C31.9423 12.6947 31.7945 12.8339 31.776 12.8856C31.7576 12.9374 31.7203 12.9798 31.6931 12.9798C31.666 12.9798 31.4865 13.1008 31.2944 13.2487C31.1022 13.3966 30.9202 13.5177 30.8899 13.5177C30.8268 13.5177 30.6993 13.7533 30.6993 13.8698C30.6993 13.9128 30.6646 13.948 30.6221 13.948C30.5796 13.948 30.4417 14.0199 30.3155 14.1079C30.0702 14.2789 29.9706 14.2995 29.8087 14.2127ZM32.7444 13.9774C32.6682 13.8464 32.715 13.7247 32.9308 13.4922C33.0259 13.3898 33.3853 12.8632 33.3853 12.8263C33.3853 12.7019 33.6964 12.3928 33.8536 12.361C34.0778 12.3157 34.1642 12.3801 34.2556 12.6612L34.3273 12.8817L33.9877 13.1884C33.8009 13.3571 33.5694 13.6007 33.4734 13.7298C33.3231 13.9316 33.0412 14.1094 32.8715 14.1094C32.8438 14.1094 32.7865 14.05 32.7444 13.9774ZM27.0205 14.3496C27.0205 14.3338 26.9809 14.2651 26.9325 14.197C26.8154 14.0325 26.8767 13.7616 27.0553 13.6538C27.1312 13.608 27.2346 13.4968 27.2852 13.4068C27.3357 13.3167 27.4158 13.202 27.4632 13.1518C27.5105 13.1016 27.6921 12.9 27.8666 12.7038C28.2513 12.2714 28.9874 11.6336 29.3854 11.3878C29.6788 11.2067 29.9434 11.0281 30.3017 10.7696C30.4079 10.6929 30.8074 10.4181 31.1894 10.1589C31.5714 9.89977 32.0181 9.56918 32.1821 9.4243C32.346 9.27942 32.4967 9.16085 32.5168 9.16082C32.537 9.16079 32.7472 9.01624 32.984 8.8396C33.2207 8.66295 33.4998 8.45482 33.6042 8.37708C33.8177 8.21813 33.8478 8.04311 33.712 7.75061C33.6162 7.54402 33.5146 7.21092 33.4777 6.98228C33.4634 6.89352 33.3968 6.68778 33.3296 6.52507C33.2625 6.36235 33.1979 6.16871 33.186 6.09475C33.1592 5.92716 32.971 5.50287 32.9239 5.50361C32.9046 5.50392 32.7789 5.64309 32.6445 5.8129C32.3155 6.22839 32.1315 6.39696 31.6045 6.76538C31.444 6.87758 31.2798 7.01264 31.2396 7.06554C31.1993 7.11845 31.0679 7.21592 30.9474 7.28216C30.827 7.3484 30.6496 7.46761 30.5532 7.54707C30.3324 7.72919 29.9811 7.9236 29.8728 7.9236C29.8274 7.9236 29.7441 7.9953 29.688 8.08291C29.6318 8.17053 29.5237 8.2734 29.4479 8.31151C29.372 8.34965 29.1298 8.51427 28.9097 8.67737C28.6896 8.84047 28.3913 9.04574 28.2467 9.13352C28.1022 9.2213 27.6471 9.54775 27.2353 9.85897C26.8236 10.1702 26.3962 10.4752 26.2855 10.5367C26.1749 10.5983 26.0519 10.6846 26.0123 10.7286C25.8886 10.8658 25.3654 11.2394 25.1636 11.3346C25.0575 11.3847 24.9562 11.4606 24.9383 11.5034C24.9205 11.5463 24.7707 11.6788 24.6056 11.7979C23.9433 12.2755 23.3418 12.813 23.3418 12.9272C23.3418 13.0705 23.0779 13.2556 22.83 13.2862C22.6343 13.3104 22.5839 13.2954 22.5031 13.1891C22.3386 12.9728 22.3893 12.8731 22.8893 12.4298C23.1542 12.1948 23.4685 11.9161 23.5878 11.8104C23.707 11.7047 23.7908 11.5978 23.7741 11.5729C23.7574 11.5479 23.7929 11.5275 23.8531 11.5275C23.9133 11.5275 24.0922 11.4068 24.2507 11.2592C24.4092 11.1116 24.5651 10.9907 24.5972 10.9904C24.6293 10.9901 24.7476 10.9048 24.86 10.8007C24.9724 10.6965 25.1481 10.5573 25.2505 10.4912C25.6615 10.226 26.5666 9.57559 26.7319 9.42671C26.8286 9.33962 26.9298 9.26836 26.9568 9.26836C26.9838 9.26836 27.1077 9.18086 27.2321 9.07392C27.3566 8.96698 27.7606 8.69719 28.13 8.4744C28.4993 8.25161 28.8278 8.04259 28.8601 8.00992C28.9667 7.90181 29.6145 7.4656 29.8817 7.32202C30.0262 7.24436 30.201 7.12063 30.27 7.04707C30.339 6.9735 30.5426 6.81096 30.7225 6.68584C30.9024 6.56073 31.0496 6.44077 31.0496 6.41926C31.0496 6.39778 31.0984 6.35829 31.1581 6.33159C31.2995 6.26827 31.9972 5.52483 32.1189 5.3077C32.2295 5.11036 32.5678 5.0154 32.7279 5.13679C32.8106 5.19957 32.817 5.1856 32.786 5.0083C32.7669 4.8989 32.6837 4.71779 32.6012 4.60584C32.5186 4.4939 32.451 4.35951 32.451 4.30721C32.451 4.15631 32.3691 4.19549 32.215 4.42014C32.1365 4.53456 32.0312 4.64953 31.9809 4.67565C31.5151 4.91762 30.4085 5.65765 30.0569 5.96237C29.9445 6.05979 29.6922 6.2139 29.4962 6.30484C29.3002 6.39577 29.0768 6.52738 28.9998 6.59729C28.9229 6.66721 28.7447 6.79454 28.6039 6.88025C28.4631 6.96595 28.2398 7.10192 28.1076 7.1824C27.9754 7.26287 27.7358 7.40024 27.5753 7.48765C27.2653 7.6564 26.9443 7.85711 26.8238 7.95752C26.7837 7.99096 26.6014 8.08348 26.4186 8.16313C26.2358 8.24279 26.0863 8.32862 26.0863 8.35389C26.0863 8.37915 25.9483 8.47551 25.7797 8.568C25.6111 8.66049 25.3632 8.81354 25.2289 8.90812C24.8814 9.15278 24.6944 9.27063 24.6424 9.27764C24.6176 9.28069 24.4527 9.40321 24.2761 9.54926C24.0995 9.6953 23.8761 9.85229 23.7798 9.89812C23.5757 9.9952 23.0496 10.3919 22.7627 10.6651C22.6529 10.7696 22.545 10.8552 22.523 10.8552C22.4404 10.8552 22.174 11.1978 22.174 11.3039C22.174 11.4081 21.9438 11.6889 21.8584 11.6889C21.8031 11.6889 21.4853 11.8981 21.2249 12.1058C20.9603 12.3169 20.7063 12.3383 20.5715 12.1611C20.4079 11.9458 20.4261 11.9141 21.0044 11.4068C21.1479 11.2809 21.4913 10.9661 21.7673 10.7073C22.0434 10.4484 22.29 10.2366 22.3153 10.2366C22.3632 10.2366 23.3888 9.53345 23.7603 9.24586C23.878 9.1547 24.0975 8.99539 24.248 8.89185C24.3985 8.7883 24.5518 8.67795 24.5887 8.64661C24.6255 8.61524 24.8002 8.51976 24.9768 8.43438C25.1535 8.349 25.3768 8.21491 25.4731 8.13639C25.5695 8.05787 25.806 7.90654 25.9987 7.8001C26.1914 7.69367 26.5262 7.47822 26.7427 7.32134C26.9593 7.16446 27.2483 6.97235 27.3851 6.89443C27.5218 6.81651 27.7885 6.65918 27.9777 6.54479C28.1669 6.43042 28.431 6.27632 28.5647 6.20236C28.7963 6.07415 29.5764 5.54033 30.2029 5.08129C30.3635 4.96364 30.7182 4.72925 30.9912 4.56042C31.2642 4.39158 31.5532 4.20794 31.6335 4.15234C31.7138 4.09674 31.878 4.00222 31.9985 3.94232C32.1189 3.8824 32.2174 3.81544 32.2174 3.79346C32.2174 3.71513 31.7996 3.18355 31.7144 3.15341C31.6667 3.13651 31.5698 3.17117 31.4992 3.23039C31.4285 3.28959 31.3051 3.36903 31.2248 3.40688C31.1445 3.44472 30.9211 3.6007 30.7284 3.75345C30.5357 3.90621 30.2842 4.08066 30.1695 4.14111C30.0548 4.20158 29.7559 4.39356 29.5054 4.56777C29.2548 4.74197 28.9777 4.93291 28.8896 4.99208C28.8015 5.05128 28.5921 5.20255 28.4244 5.32828C28.2567 5.45401 28.0971 5.55688 28.0698 5.55688C28.0424 5.55688 27.8674 5.68026 27.6809 5.83105C27.4943 5.98184 27.2497 6.14872 27.1373 6.20188C27.0249 6.25504 26.8325 6.38583 26.7098 6.49251C26.5871 6.59919 26.4592 6.68646 26.4256 6.68646C26.3919 6.68646 26.2777 6.75303 26.1717 6.83438C25.7224 7.17922 24.1418 8.24637 24.0804 8.24637C24.0497 8.24637 23.8868 8.36135 23.7183 8.50187C23.3759 8.7875 23.1324 8.9554 22.5973 9.27467C22.3966 9.39444 22.2324 9.52675 22.2324 9.56867C22.2324 9.6106 22.2127 9.6455 22.1886 9.64623C22.1645 9.64684 22.0009 9.768 21.825 9.91518C21.6491 10.0624 21.4874 10.1828 21.4656 10.1828C21.4157 10.1828 20.3064 10.9726 20.1886 11.092C20.1405 11.1409 19.9515 11.273 19.7686 11.3856C19.5858 11.4981 19.3676 11.6487 19.2839 11.7203C19.0918 11.8842 19.077 11.8833 18.8801 11.694C18.6428 11.4658 18.7335 11.2337 19.1337 11.0449C19.3325 10.951 20.3612 10.2659 20.4222 10.1866C20.4383 10.1657 20.6025 10.0445 20.7872 9.91722C20.9718 9.78992 21.1229 9.66446 21.1229 9.63843C21.1229 9.61243 21.1529 9.59107 21.1895 9.59107C21.2261 9.59107 21.3641 9.50492 21.4961 9.39962C21.6281 9.29433 21.9175 9.09827 22.1393 8.96394C22.361 8.82961 22.7477 8.5633 22.9985 8.37213C23.2494 8.18097 23.6575 7.89896 23.9054 7.74546C24.1534 7.59196 24.4131 7.43006 24.4826 7.38569C24.5522 7.34132 24.6852 7.25765 24.7783 7.19978C24.8714 7.14193 25.0286 7.03299 25.1275 6.95773C25.2265 6.88247 25.5641 6.65146 25.8779 6.44436C26.1916 6.23728 26.5048 6.01638 26.5738 5.95349C26.6429 5.8906 26.8307 5.75706 26.9913 5.65674C27.4005 5.40109 27.8883 5.06509 28.203 4.82214C28.3502 4.70849 28.6728 4.48239 28.92 4.31967C29.1671 4.15696 29.4649 3.94846 29.5817 3.85634C29.6986 3.76422 29.8795 3.64862 29.9839 3.59945C30.0883 3.55026 30.1737 3.49049 30.1737 3.46658C30.1737 3.44266 30.3236 3.32832 30.5068 3.21247C30.6901 3.0966 30.9131 2.94548 31.0024 2.87664C31.1563 2.75793 31.1603 2.74368 31.0798 2.6003C31.0269 2.5059 30.8957 2.4115 30.7305 2.34894C30.5851 2.29383 30.466 2.23546 30.4659 2.21922C30.4658 2.20298 30.3671 2.20024 30.2467 2.21312C30.0236 2.2371 29.0059 2.73356 29.0059 2.81843C29.0059 2.84406 28.8942 2.91719 28.7577 2.9809C28.6212 3.04461 28.4138 3.16612 28.2967 3.25095C28.1797 3.33576 28.0483 3.40677 28.0048 3.40875C27.9612 3.41058 27.7679 3.52045 27.5752 3.65257C27.3826 3.78468 27.1329 3.93471 27.0205 3.98596C26.9081 4.03722 26.7328 4.15744 26.6309 4.25315C26.529 4.34885 26.4042 4.42716 26.3535 4.42716C26.3029 4.42716 26.2614 4.44723 26.2614 4.47183C26.2614 4.52822 25.7677 4.85748 25.6831 4.85748C25.6485 4.85748 25.5476 4.92502 25.459 5.00757C25.1598 5.28636 24.306 5.87889 24.2031 5.87919C24.1469 5.87934 24.1009 5.90165 24.1009 5.92868C24.1009 5.95572 23.963 6.06788 23.7944 6.17788C23.6257 6.28788 23.4166 6.45125 23.3296 6.54093C23.2425 6.63061 23.1243 6.70738 23.0668 6.71155C23.0093 6.71582 22.8572 6.81462 22.7287 6.93133C22.6002 7.04804 22.4526 7.16773 22.4006 7.19731C22.3486 7.22691 22.1252 7.39228 21.9042 7.56483C21.6833 7.73737 21.3842 7.93444 21.2397 8.00275C21.0952 8.07105 20.8455 8.24608 20.685 8.3917C20.4224 8.62982 20.1643 8.81864 19.8911 8.97238C19.8386 9.00198 19.4833 9.24407 19.1016 9.5104C18.7199 9.77672 18.3354 10.0243 18.2471 10.0606C18.1588 10.0968 18.0865 10.1512 18.0865 10.1812C18.0865 10.2113 17.9673 10.2875 17.8215 10.3506C17.5273 10.4781 16.9217 11.0206 16.9199 11.1585C16.9192 11.2073 16.8534 11.2619 16.7727 11.2805C16.6355 11.3123 16.5927 11.4086 16.622 11.62C16.6324 11.6954 16.2657 11.8501 16.0765 11.8501C15.7229 11.8501 15.7136 11.494 16.0574 11.1109C16.1939 10.9588 16.3375 10.8329 16.3767 10.8312C16.4158 10.8294 16.4815 10.7702 16.5226 10.6994C16.5954 10.5743 17.1636 10.0751 17.2333 10.0751C17.2524 10.0751 17.3405 10.0067 17.4291 9.92311C17.5177 9.83953 17.761 9.67648 17.9697 9.56077C18.3152 9.36925 18.5953 9.19788 19.2928 8.75133C19.6203 8.5417 20.1263 8.18368 20.6558 7.78708C20.8966 7.60666 21.1725 7.41265 21.2689 7.35595C21.3652 7.29926 21.6589 7.08304 21.9215 6.87546C22.1841 6.66788 22.5351 6.40123 22.7013 6.28289C22.8676 6.16455 23.0863 6.00562 23.1873 5.92969C23.2883 5.85376 23.502 5.70853 23.6621 5.60696C23.8223 5.50537 24.0755 5.33753 24.2249 5.23399C24.3744 5.13044 24.7381 4.88839 25.0334 4.69609C25.3286 4.50379 25.6665 4.27108 25.7844 4.17897C25.9022 4.08685 26.0775 3.97418 26.1738 3.92859C26.2702 3.883 26.404 3.78893 26.4712 3.71955C26.5385 3.65016 26.7093 3.52695 26.8508 3.44573C26.9923 3.36452 27.2657 3.20085 27.4584 3.08204C27.6511 2.96322 27.9139 2.8178 28.0424 2.75888C28.1708 2.69993 28.3548 2.58935 28.4511 2.5131L28.6263 2.37446L28.3927 2.40632C28.2643 2.42383 28.0863 2.43744 27.9972 2.43658C27.8294 2.43475 27.4574 2.55873 26.9037 2.80047C26.7271 2.87759 26.55 2.93526 26.5102 2.92863C26.4704 2.92198 26.3785 2.94712 26.3059 2.98441C26.1321 3.07372 25.7856 3.18811 25.6858 3.18913C25.6423 3.18959 25.4376 3.26422 25.2311 3.35501C25.0246 3.4458 24.7581 3.53395 24.6388 3.55088C24.4287 3.58072 23.5071 3.98366 23.4688 4.0624C23.4584 4.08388 23.2614 4.21541 23.0309 4.35473C22.8005 4.49406 22.4542 4.72085 22.2615 4.8587C22.0688 4.99656 21.7261 5.21971 21.4998 5.3546C21.2735 5.4895 21.0535 5.63856 21.0109 5.68586C20.9683 5.73315 20.8907 5.77225 20.8384 5.77274C20.7861 5.7732 20.5857 5.9056 20.393 6.0669C20.2003 6.2282 20.0126 6.36093 19.976 6.36185C19.9393 6.36307 19.7756 6.47422 19.6123 6.6095C19.449 6.74478 19.2896 6.84084 19.2582 6.82295C19.2268 6.80507 19.1575 6.85169 19.1042 6.92662C19.0509 7.00152 18.9701 7.0628 18.9247 7.0628C18.8792 7.0628 18.7602 7.14866 18.6602 7.25361C18.5602 7.35855 18.3935 7.47705 18.2899 7.51695C18.0985 7.59058 17.9655 7.68282 17.5287 8.04446C17.3948 8.1554 17.266 8.24618 17.2425 8.24618C17.1443 8.24618 16.2955 8.92877 15.8438 9.37106C15.2526 9.94988 14.9835 10.1728 14.8346 10.2073C14.6523 10.2494 14.5968 10.2061 14.5486 9.98418C14.5191 9.84814 14.5356 9.80442 14.6351 9.75537C14.7028 9.72205 14.7579 9.66532 14.7577 9.62938C14.7572 9.55745 15.7438 8.6765 15.8249 8.6765C15.8712 8.6765 15.988 8.58018 16.4808 8.13539C16.5771 8.0484 16.6842 7.97723 16.7187 7.97723C16.7533 7.97723 16.8432 7.91669 16.9187 7.84276C16.9941 7.7688 17.0906 7.70828 17.1332 7.70828C17.1758 7.70828 17.2106 7.68357 17.2106 7.65342C17.2106 7.59886 18.5821 6.63862 18.6784 6.62578C18.794 6.61034 18.8243 6.59392 18.9916 6.45602C19.5194 6.02084 19.9341 5.71807 20.0022 5.71807C20.0447 5.71807 20.147 5.64409 20.2296 5.55366C20.3122 5.46324 20.5141 5.30643 20.6783 5.2052C20.8425 5.10398 21.1214 4.92445 21.2981 4.80624C21.4747 4.68804 21.6586 4.57433 21.7068 4.55354C21.755 4.53273 21.9126 4.4207 22.0572 4.30454C22.2017 4.18838 22.4119 4.04977 22.5243 3.99652C22.6367 3.94324 22.7889 3.84022 22.8626 3.76752L22.9964 3.63535L22.7068 3.43189C22.5475 3.32 22.3617 3.15927 22.2938 3.07473C22.226 2.99018 22.1436 2.92101 22.1107 2.92101C22.0778 2.92101 21.8009 3.11465 21.4953 3.35133C21.1898 3.58801 20.9112 3.78165 20.8764 3.78165C20.8415 3.78165 20.6754 3.90155 20.5072 4.0481C20.339 4.19465 20.1295 4.33117 20.0416 4.35149C19.9537 4.37181 19.7293 4.53026 19.5428 4.70362C19.3564 4.87698 19.1641 5.01881 19.1156 5.01881C19.0671 5.01881 18.9922 5.06507 18.9492 5.12166C18.8714 5.22399 18.5328 5.46652 17.9663 5.82565C17.8029 5.9292 17.4869 6.141 17.2639 6.29632C17.0409 6.45163 16.8186 6.57872 16.7699 6.57872C16.7211 6.57872 16.5923 6.65738 16.4836 6.75353C16.1127 7.08177 15.388 7.59083 15.1085 7.71951C15.0282 7.75649 14.9415 7.81748 14.9158 7.85509C14.8901 7.89268 14.8507 7.92352 14.8282 7.9236C14.7753 7.92375 14.14 8.44657 13.6603 8.88471C13.376 9.14435 13.3043 9.23865 13.3647 9.27387C13.4085 9.29944 13.464 9.32073 13.4881 9.32116C13.6222 9.3236 13.3937 9.77862 13.2579 9.77952C13.197 9.77998 12.754 10.0286 12.71 10.0871C12.6587 10.1552 12.0852 10.4873 11.8909 10.5615C11.7425 10.618 11.7023 10.6134 11.5994 10.5276C11.5061 10.4498 11.488 10.3889 11.5165 10.2486C11.5454 10.1069 11.7465 9.89538 12.4695 9.24637C13.9254 7.93937 14.964 7.12621 15.6439 6.76101C15.7051 6.72811 15.8133 6.65144 15.8844 6.59055C16.0166 6.47729 16.3244 6.26817 16.9522 5.86512C17.6566 5.41292 17.9113 5.22252 17.9113 5.14824C17.9113 5.10662 17.9443 5.0726 17.9846 5.0726C18.0524 5.0726 18.2747 4.93042 19.2635 4.25472C19.9304 3.79905 20.3725 3.47281 21.3706 2.6999L21.6474 2.48551L21.5457 2.34052C21.4898 2.26078 21.38 2.14434 21.3017 2.08174L21.1594 1.96793L20.8346 2.20359C20.656 2.3332 20.4704 2.47168 20.4222 2.51131C20.374 2.55092 20.2769 2.6111 20.2063 2.64498C20.1357 2.67885 19.9602 2.79719 19.8162 2.90793C19.3771 3.24562 19.043 3.4589 18.9531 3.4589C18.906 3.4589 18.8141 3.52547 18.7488 3.60683C18.6835 3.68819 18.5537 3.79098 18.4604 3.83526C18.3672 3.87956 18.1134 4.03082 17.8965 4.17144C17.6796 4.31207 17.4868 4.42712 17.4679 4.42712C17.4491 4.42712 17.3638 4.4854 17.2784 4.55666C16.7216 5.02095 16.3336 5.31566 16.0213 5.5115C15.6271 5.7587 15.3357 5.96676 14.9698 6.26222C14.8373 6.3692 14.6471 6.49523 14.547 6.54228C14.2702 6.67241 13.5377 7.36802 13.5011 7.53557C13.4201 7.90607 13.3885 7.94968 13.1803 7.97779C13.0055 8.00141 12.9629 7.98432 12.875 7.85546C12.8188 7.77309 12.7728 7.65534 12.7728 7.59379C12.7728 7.45156 13.4318 6.72601 13.7213 6.54955C13.8419 6.476 13.9407 6.39431 13.9407 6.36803C13.9407 6.34172 14.0918 6.22958 14.2764 6.11878C14.4611 6.00799 14.6844 5.85588 14.7727 5.78075C14.8611 5.70563 14.9342 5.66685 14.9352 5.69457C14.9364 5.72228 14.969 5.70659 15.0082 5.65966C15.1419 5.49927 16.0576 4.84732 16.2326 4.78792C16.2888 4.76882 16.3347 4.71616 16.3347 4.67085C16.3347 4.62557 16.3676 4.58822 16.4077 4.5879C16.4479 4.58759 16.5962 4.48471 16.7374 4.35929C16.8785 4.23388 17.0922 4.07075 17.2122 3.99679C17.3323 3.92283 17.6459 3.71012 17.9091 3.52411C18.1724 3.33809 18.4916 3.12547 18.6187 3.05161C18.7457 2.97776 18.8947 2.8806 18.9498 2.83571C19.0049 2.79079 19.1945 2.667 19.3711 2.56054C19.6581 2.38756 20.0382 2.12388 20.5476 1.74437C20.7138 1.62056 20.7159 1.61338 20.6144 1.51003C20.5569 1.45139 20.4047 1.35478 20.2762 1.29531C20.1477 1.23587 20.0032 1.15656 19.955 1.11913C19.9069 1.08172 19.8065 1.03394 19.732 1.01299C19.6246 0.982844 19.5899 0.998226 19.5646 1.08732C19.547 1.14914 19.5083 1.19972 19.4785 1.19972C19.4486 1.19972 19.3531 1.26543 19.2663 1.34575C19.1192 1.48172 18.83 1.70966 18.1128 2.25477C17.9526 2.37649 17.6727 2.5638 17.4908 2.67102C17.3088 2.77823 17.1446 2.88882 17.1259 2.91676C17.1071 2.94471 16.9444 3.03576 16.7642 3.1191C16.5841 3.20244 16.3976 3.32509 16.3498 3.39166C16.302 3.45822 16.2166 3.51268 16.16 3.51268C16.1034 3.51268 16.0244 3.549 15.9844 3.59337C15.9444 3.63774 15.8768 3.67405 15.8343 3.67405C15.7917 3.67405 15.6832 3.73788 15.5932 3.81589C15.5033 3.8939 15.3629 3.99677 15.2812 4.0445C14.6895 4.39046 14.0474 4.8909 13.905 5.11717C13.818 5.25536 13.7116 5.38778 13.6685 5.41144C13.6255 5.43512 13.5903 5.50024 13.5903 5.5562C13.5903 5.61216 13.5633 5.67329 13.5303 5.69207C13.4615 5.73125 12.9891 6.5787 13.0361 6.5787C13.0532 6.5787 13.0141 6.67456 12.9492 6.79172C12.8843 6.90888 12.8312 7.03211 12.8312 7.06556C12.8312 7.099 12.7302 7.26337 12.6068 7.43079C12.3247 7.81345 12.2038 7.99663 12.2106 8.03103C12.2137 8.0458 12.1705 8.11777 12.1148 8.19092C12.0592 8.26407 12.0137 8.36397 12.0137 8.41294C12.0137 8.46188 11.972 8.53382 11.9211 8.57275C11.8114 8.65666 11.6297 9.04952 11.6537 9.15115C11.6629 9.19033 11.6466 9.25084 11.6174 9.28563C11.4856 9.44285 11.3788 9.91037 11.3898 10.2824L11.4015 10.677L11.6346 10.7517C11.7628 10.7929 11.9288 10.8268 12.0036 10.8273C12.0783 10.8278 12.3673 10.9151 12.6459 11.0214C12.9244 11.1278 13.2443 11.2476 13.3567 11.2876C13.4691 11.3277 13.7844 11.4444 14.0574 11.547C14.6725 11.7781 16.554 12.2894 17.0608 12.3633C17.1551 12.377 17.4047 12.4346 17.6156 12.4914C18.2511 12.6624 19.2632 12.9106 19.6047 12.9793C19.7813 13.0148 20.1623 13.1043 20.4514 13.1783C20.7404 13.2522 21.2002 13.3457 21.4732 13.3861C22.3534 13.5162 24.1199 13.8299 24.4804 13.9202C25.0292 14.0575 26.6275 14.3536 26.9183 14.3718C26.9745 14.3755 27.0205 14.3655 27.0205 14.3496ZM25.2794 13.2983C25.1176 13.0596 25.1839 12.9685 26.1598 12.0881C26.6819 11.6171 27.3454 11.0705 27.6342 10.8735C27.9229 10.6765 28.2774 10.426 28.4219 10.3168C28.5664 10.2077 28.8686 9.9997 29.0934 9.85469C29.5371 9.56856 29.7508 9.41346 30.1665 9.07616C30.315 8.95567 30.535 8.8024 30.6554 8.73558C30.7759 8.66877 30.8744 8.5962 30.8744 8.57434C30.8744 8.51893 32.0275 7.64634 32.205 7.56743C32.3298 7.51196 32.5094 7.70854 32.5094 7.90074C32.5094 8.04342 32.4494 8.12906 32.1896 8.35749C32.0137 8.51213 31.7969 8.6802 31.7078 8.73098C31.6188 8.78176 31.4536 8.90694 31.3408 9.00912C31.228 9.1113 31.0932 9.21748 31.0412 9.24507C30.9892 9.27266 30.8318 9.38483 30.6915 9.49433C30.0522 9.99332 29.6998 10.2388 28.9422 10.7131C28.7042 10.862 28.3924 11.0941 28.2492 11.2288C28.095 11.3739 27.936 11.4737 27.8593 11.4737C27.7859 11.4737 27.6776 11.5379 27.6097 11.6217C27.4715 11.792 27.4701 11.7932 27.1876 12.0104C27.0707 12.1002 26.932 12.2572 26.8794 12.3593C26.8184 12.4778 26.7542 12.5346 26.7021 12.5162C26.6551 12.4996 26.5786 12.5462 26.5218 12.626C26.428 12.7579 26.2376 12.8821 26.0132 12.9579C25.957 12.9769 25.9096 13.0198 25.9078 13.0534C25.9036 13.1326 25.5952 13.3564 25.4563 13.3811C25.3963 13.3917 25.3178 13.355 25.2794 13.2983ZM15.2002 3.54742C15.3264 3.4481 15.5396 3.31529 15.674 3.25229C15.8084 3.18928 15.9896 3.07691 16.0767 3.00255C16.1638 2.9282 16.2652 2.86736 16.302 2.86736C16.3389 2.86736 16.5255 2.74424 16.7168 2.59376C16.9081 2.44328 17.1172 2.29795 17.1814 2.2708C17.3475 2.20061 17.699 1.94299 18.3673 1.40159C18.6869 1.14272 18.9894 0.930925 19.0395 0.930925C19.1455 0.930925 19.2204 0.843632 19.1493 0.80311C19.0658 0.755632 18.0622 0.936294 17.9651 1.01631C17.9144 1.05811 17.8394 1.09229 17.7983 1.09229C17.7573 1.09229 17.6242 1.16492 17.5026 1.25367C17.3809 1.34242 17.2556 1.41504 17.224 1.41504C17.134 1.41504 16.3103 2.06607 16.265 2.17293C16.2428 2.22559 16.1639 2.29787 16.0899 2.33358C15.8218 2.46284 15.4235 2.84464 15.1306 3.25309C14.8595 3.6312 14.8191 3.72799 14.9326 3.72799C14.9535 3.72799 15.074 3.64673 15.2002 3.54742ZM31.5868 28.5681C31.4539 28.4457 31.5565 28.041 31.7204 28.041C31.7975 28.041 32.2426 27.6523 32.3265 27.5118C32.3704 27.4381 32.4886 27.3153 32.5891 27.2388C32.843 27.0456 33.1017 26.7893 33.5643 26.2726C33.8589 25.9435 35.2498 24.7712 35.865 24.3334C36.0909 24.1727 36.311 24.0086 36.3542 23.9689C36.3974 23.9292 36.5086 23.8605 36.6014 23.8163C36.6942 23.7721 36.856 23.6569 36.9608 23.5603C37.2071 23.3334 37.7382 22.9014 38.0637 22.6631C38.2043 22.5601 38.4771 22.3275 38.6697 22.1462C38.8624 21.9649 39.1055 21.7762 39.2099 21.7269C39.3142 21.6776 39.3996 21.6016 39.3996 21.5579C39.3996 21.5143 39.4364 21.4786 39.4813 21.4786C39.5262 21.4786 39.7948 21.2707 40.0782 21.0166C40.3616 20.7625 40.6641 20.5209 40.7504 20.4798C40.8367 20.4387 40.9831 20.3204 41.0757 20.217C41.2361 20.0377 41.2542 20.0314 41.4598 20.0837C41.6785 20.1394 41.7937 20.2622 41.7937 20.4396C41.7937 20.533 41.224 21.0337 41.1447 21.01C41.1237 21.0038 40.8993 21.1853 40.646 21.4135C40.3927 21.6416 39.9758 22.0031 39.7196 22.2168C39.4633 22.4304 39.1223 22.7148 38.9617 22.8486C38.8011 22.9824 38.6515 23.092 38.6293 23.0921C38.6071 23.0922 38.41 23.2371 38.1914 23.4141C37.9727 23.5911 37.7649 23.7364 37.7295 23.7369C37.6941 23.7373 37.5332 23.8649 37.372 24.0202C37.0866 24.2953 36.3483 24.8674 36.2787 24.8674C36.2596 24.8674 36.099 24.9988 35.9219 25.1594C35.7447 25.32 35.5285 25.4664 35.4414 25.4846C35.3523 25.5033 35.2192 25.6017 35.137 25.7096C35.0567 25.8151 34.8334 26.0552 34.6407 26.2431C34.448 26.431 34.2115 26.6643 34.115 26.7615C34.0186 26.8587 33.861 27.0003 33.7647 27.0761C33.6684 27.152 33.4068 27.4 33.1833 27.6274C32.9599 27.8548 32.7354 28.053 32.6845 28.0679C32.6335 28.0828 32.4879 28.1796 32.3608 28.2831C32.2338 28.3865 32.0838 28.5075 32.0276 28.5519C31.9048 28.649 31.6834 28.6571 31.5868 28.5681ZM28.6817 27.8545C28.5693 27.6066 28.573 27.5822 28.7419 27.4597C28.8216 27.402 29.1906 27.0926 29.562 26.7722C29.9333 26.4518 30.2962 26.1524 30.3684 26.1068C30.4406 26.0612 30.8008 25.7374 31.1688 25.3873C31.5368 25.0371 31.9035 24.7184 31.9838 24.6789C32.0641 24.6395 32.3663 24.423 32.6553 24.1978C32.9444 23.9726 33.3517 23.681 33.5604 23.5498C33.7692 23.4186 34.2684 23.0907 34.6699 22.8211C35.0713 22.5516 35.5574 22.2376 35.7501 22.1235C36.4919 21.6841 37.4606 20.9834 37.992 20.5019C38.101 20.4031 38.2718 20.2771 38.3716 20.2219C38.4713 20.1667 38.6284 20.0577 38.7207 19.9798C38.8129 19.9018 38.9884 19.7533 39.1106 19.6498C39.3913 19.412 39.8326 19.1119 39.9017 19.1118C39.9307 19.1118 40.1082 19.0133 40.2963 18.8931C40.4844 18.7728 40.6753 18.6875 40.7205 18.7035C40.8917 18.764 40.9885 19.2195 40.8302 19.2195C40.7821 19.2195 40.7427 19.2517 40.7427 19.2912C40.7427 19.3306 40.4668 19.5519 40.1295 19.783C39.7923 20.014 39.5164 20.2222 39.5164 20.2455C39.5164 20.2689 39.4611 20.3042 39.3934 20.324C39.257 20.3638 39.2487 20.3694 38.6697 20.8135C38.4449 20.9858 38.2008 21.1926 38.1271 21.2729C38.0535 21.3532 37.8959 21.4723 37.7768 21.5377C37.6577 21.603 37.534 21.6845 37.5019 21.7188C37.4698 21.7531 37.3337 21.841 37.1995 21.9142C37.0654 21.9874 36.8084 22.1735 36.6285 22.3277C36.4485 22.482 36.2625 22.6082 36.215 22.6082C36.1675 22.6082 36.0522 22.671 35.9588 22.7476C35.8654 22.8243 35.767 22.8866 35.7403 22.886C35.6774 22.8848 35.408 23.077 35.0835 23.3553C34.9417 23.4769 34.7915 23.5764 34.7498 23.5764C34.7081 23.5764 34.6461 23.6244 34.612 23.683C34.5571 23.7777 34.0769 24.1019 33.5352 24.4102C33.3065 24.5403 32.7719 24.9451 32.5589 25.1493C32.4738 25.2309 32.3608 25.2977 32.3078 25.2977C32.2548 25.2977 31.9629 25.5323 31.6591 25.8191C31.3553 26.1059 31.0683 26.3457 31.0213 26.352C30.9743 26.3584 30.8164 26.4566 30.6705 26.5703C30.4461 26.745 30.4096 26.8001 30.4344 26.9269C30.4557 27.0364 30.4362 27.0861 30.3624 27.1112C30.3068 27.13 30.2062 27.1957 30.1389 27.257C29.9213 27.4556 29.4386 27.8139 29.2342 27.9287C28.9347 28.097 28.7824 28.0765 28.6817 27.8545ZM34.4947 27.5918C34.4947 27.5039 34.6149 27.3654 34.8889 27.1376C35.1056 26.9574 35.4012 26.709 35.5458 26.5858C35.6903 26.4625 36.0122 26.2048 36.2611 26.0131C36.51 25.8214 36.7136 25.6478 36.7136 25.6272C36.7136 25.6067 36.7859 25.5499 36.8742 25.5011C36.9625 25.4522 37.2573 25.2171 37.5294 24.9785C37.8014 24.7399 38.0456 24.5446 38.0719 24.5446C38.0982 24.5446 38.311 24.3692 38.5448 24.1547C39.4695 23.3062 40.3469 22.6478 40.6446 22.5789C40.8319 22.5356 41.0933 22.7357 41.0921 22.9214C41.0909 23.1199 41.0517 23.1613 40.6843 23.3525C40.5076 23.4444 40.0741 23.7739 39.7208 24.0847C39.3675 24.3956 39.0448 24.6504 39.0037 24.6511C38.9625 24.6517 38.9146 24.6864 38.8972 24.7281C38.8579 24.8224 38.2648 25.235 38.071 25.3029C37.9133 25.3581 37.4895 25.6512 36.6785 26.2659C35.7065 27.0027 35.5179 27.1306 35.356 27.1623C35.2563 27.1818 35.1954 27.2289 35.1954 27.2863C35.1954 27.3881 35.0872 27.4824 34.8069 27.6247C34.5608 27.7496 34.4947 27.7427 34.4947 27.5918ZM12.0286 26.0373C11.8225 25.7975 11.8261 25.739 12.0672 25.4119C12.1953 25.2382 12.3407 25.0817 12.3904 25.0641C12.4402 25.0465 12.4808 24.9971 12.4808 24.9542C12.4808 24.9114 12.7633 24.6395 13.1086 24.35C13.4538 24.0606 13.7714 23.7792 13.8143 23.7248C13.8572 23.6703 13.991 23.5683 14.1116 23.4982C14.2323 23.428 14.4862 23.2451 14.6759 23.0918C14.8657 22.9384 15.1129 22.7683 15.2253 22.7137C15.3377 22.6592 15.5231 22.5344 15.6373 22.4365C15.873 22.2345 16.3775 21.8767 16.694 21.6871C17.1746 21.3991 18.0691 20.7988 18.2832 20.6204C18.4091 20.5155 18.6223 20.3571 18.7571 20.2684C19.4214 19.831 19.5977 19.707 19.967 19.4177C20.1865 19.2458 20.3509 19.0824 20.3323 19.0547C20.3137 19.027 20.3553 19.0043 20.4248 19.0043C20.4942 19.0043 20.7083 18.8833 20.9005 18.7354C21.0926 18.5874 21.2838 18.4664 21.3252 18.4664C21.3666 18.4664 21.4343 18.429 21.4756 18.3831C21.528 18.3249 21.6312 18.3047 21.8185 18.3159C22.0799 18.3315 22.0868 18.3366 22.1039 18.5248C22.1152 18.6496 22.0895 18.7421 22.0309 18.7869C21.9811 18.825 21.9404 18.8403 21.9404 18.821C21.9404 18.7802 21.3382 19.1776 21.1229 19.3605C20.9311 19.5234 20.5041 19.8303 20.2426 19.9933C20.1278 20.0649 19.9524 20.1984 19.8529 20.29C19.7535 20.3817 19.6462 20.4567 19.6147 20.4567C19.5597 20.4567 19.3303 20.617 18.8065 21.0216C18.6726 21.1251 18.5447 21.2097 18.5224 21.2097C18.4876 21.2097 17.92 21.6397 17.6882 21.8417C17.6457 21.8787 17.578 21.909 17.5378 21.909C17.4975 21.909 17.4008 21.9719 17.323 22.0488C17.1713 22.1986 16.686 22.4469 16.545 22.4469C16.4979 22.4469 16.4446 22.4899 16.4264 22.5425C16.4083 22.595 16.3365 22.6737 16.2669 22.7173C16.1973 22.7608 16.0935 22.8376 16.0362 22.8878C15.979 22.938 15.8473 23.0195 15.7436 23.0689C15.4433 23.2119 14.9961 23.5153 14.7291 23.757C14.4822 23.9805 14.2137 24.199 13.5611 24.7075C13.1018 25.0654 12.7737 25.3659 12.7732 25.4293C12.773 25.4572 12.7061 25.5443 12.6245 25.6227C12.4934 25.7488 12.4867 25.7731 12.5661 25.8339C12.7127 25.946 12.68 26.068 12.5136 26.0295C12.4353 26.0114 12.3549 26.0209 12.335 26.0506C12.2843 26.1261 12.0979 26.118 12.0286 26.0373Z" fill="#F8F8F8"/>
<path d="M106.094 22.6711C105.006 22.6711 104.009 22.5012 103.102 22.1612C102.203 21.8289 101.421 21.3454 100.757 20.7109C100.099 20.0763 99.5895 19.3134 99.2269 18.422C98.8719 17.5306 98.6943 16.5297 98.6943 15.4192C98.6943 14.3768 98.8567 13.4514 99.1816 12.6431C99.5064 11.8348 99.9521 11.1361 100.519 10.5469C101.085 9.95767 101.727 9.47421 102.445 9.09651C103.17 8.71881 103.933 8.43931 104.734 8.25801C105.535 8.06916 106.328 7.97473 107.113 7.97473C108.269 7.97473 109.334 8.1447 110.309 8.48463C111.283 8.82456 112.133 9.3118 112.858 9.94634C113.583 10.5733 114.146 11.3287 114.547 12.2126C114.947 13.0888 115.147 14.0708 115.147 15.1586C115.147 16.3597 114.92 17.4286 114.467 18.3653C114.014 19.2945 113.376 20.0801 112.552 20.7222C111.729 21.3643 110.766 21.8477 109.663 22.1726C108.567 22.5049 107.378 22.6711 106.094 22.6711ZM106.626 19.7024C107.948 19.7024 109.006 19.4909 109.799 19.0678C110.592 18.6448 111.166 18.082 111.521 17.3795C111.876 16.677 112.054 15.9065 112.054 15.068C112.054 14.2975 111.925 13.6101 111.668 13.0057C111.419 12.4014 111.068 11.8915 110.615 11.476C110.161 11.0606 109.636 10.7471 109.04 10.5356C108.443 10.3165 107.801 10.207 107.113 10.207C106.441 10.207 105.799 10.3089 105.187 10.5129C104.575 10.7169 104.031 11.0077 103.555 11.3854C103.079 11.7631 102.702 12.2201 102.422 12.7564C102.15 13.2928 102.014 13.8933 102.014 14.5581C102.014 15.3513 102.128 16.0651 102.354 16.6997C102.588 17.3266 102.909 17.8668 103.317 18.32C103.733 18.7657 104.22 19.1094 104.779 19.3511C105.346 19.5853 105.961 19.7024 106.626 19.7024Z" fill="#F8F8F8"/>
<path d="M87.7487 21.9685C87.3559 21.9685 87.0273 21.8401 86.7629 21.5833C86.5061 21.334 86.3135 20.9563 86.1851 20.4502C86.1322 20.2387 86.0869 19.9667 86.0491 19.6343C86.0113 19.2944 85.9735 18.9243 85.9358 18.5239C85.9056 18.116 85.8791 17.7005 85.8565 17.2775C85.8414 16.8545 85.8262 16.4428 85.8111 16.0424C85.8036 15.642 85.7998 15.2832 85.7998 14.9659C85.7998 13.8857 85.864 12.9339 85.9924 12.1105C86.1209 11.2796 86.3173 10.5657 86.5816 9.96894C86.8536 9.36462 87.2049 8.8736 87.6354 8.4959C88.0736 8.11064 88.5986 7.82737 89.2105 7.64607C89.8299 7.45722 90.5513 7.36279 91.3747 7.36279C92.1603 7.36279 92.9082 7.44966 93.6182 7.62341C94.3283 7.7896 94.9553 8.04266 95.4992 8.38259C96.0506 8.72252 96.4812 9.14555 96.7909 9.65167C97.1082 10.1578 97.2668 10.7432 97.2668 11.408C97.2668 12.035 97.1271 12.56 96.8476 12.983C96.5681 13.406 96.2055 13.7497 95.7598 14.0141C95.3141 14.2785 94.8344 14.4825 94.3208 14.626C93.8146 14.7695 93.3312 14.8753 92.8704 14.9433C92.6136 14.9811 92.436 15.0226 92.3378 15.0679C92.2396 15.1132 92.1905 15.1812 92.1905 15.2719C92.1905 15.3323 92.2359 15.4154 92.3265 15.5212C92.4247 15.6269 92.5531 15.7553 92.7118 15.9064C92.8779 16.0499 93.0668 16.2199 93.2783 16.4163C93.4898 16.6052 93.7089 16.8167 93.9355 17.0509C94.1546 17.2699 94.4076 17.5268 94.6947 17.8214C94.9893 18.116 95.2839 18.4219 95.5785 18.7392C95.8731 19.0489 96.1451 19.3473 96.3944 19.6343C96.6512 19.9138 96.8589 20.1556 97.0176 20.3595C97.1762 20.5635 97.2555 20.6995 97.2555 20.7675C97.2555 20.979 97.1913 21.1565 97.0629 21.3C96.9345 21.4435 96.7721 21.5493 96.5757 21.6173C96.3792 21.6928 96.164 21.7306 95.9298 21.7306C95.6881 21.7306 95.4199 21.6588 95.1253 21.5153C94.8382 21.3718 94.5323 21.1716 94.2075 20.9148C93.8902 20.6579 93.5654 20.3595 93.233 20.0196C92.9006 19.6797 92.5682 19.3095 92.2359 18.9092C91.7373 18.3502 91.2878 17.8629 90.8875 17.4474C90.4871 17.032 90.1509 16.7071 89.879 16.473C89.607 16.2388 89.4182 16.1217 89.3124 16.1217C89.2369 16.1217 89.1765 16.1557 89.1311 16.2237C89.0934 16.2841 89.0632 16.3974 89.0405 16.5636C89.0254 16.7223 89.0141 16.9413 89.0065 17.2208C89.0065 17.5003 89.0065 17.8554 89.0065 18.2859C89.0065 18.4144 89.0065 18.5768 89.0065 18.7732C89.0141 18.9696 89.0178 19.1773 89.0178 19.3964C89.0254 19.6155 89.0292 19.827 89.0292 20.0309C89.0292 20.2349 89.0292 20.4162 89.0292 20.5748C89.0292 20.7335 89.0254 20.8468 89.0178 20.9148C88.9574 21.3 88.8101 21.572 88.5759 21.7306C88.3493 21.8892 88.0736 21.9685 87.7487 21.9685ZM90.2529 14.0141C90.5098 14.0141 90.8232 13.9915 91.1934 13.9461C91.5711 13.8933 91.9601 13.8064 92.3605 13.6855C92.7609 13.5647 93.1348 13.406 93.4823 13.2096C93.8373 13.0057 94.1244 12.7526 94.3434 12.4504C94.5625 12.1483 94.672 11.7932 94.672 11.3853C94.672 10.9623 94.5701 10.6035 94.3661 10.3089C94.1697 10.0143 93.9015 9.78009 93.5616 9.60635C93.2292 9.42505 92.8591 9.29285 92.4511 9.20976C92.0432 9.12666 91.6315 9.08512 91.2161 9.08512C90.7855 9.08512 90.4229 9.14555 90.1283 9.26641C89.8412 9.38728 89.607 9.56858 89.4257 9.81031C89.252 10.052 89.1236 10.3693 89.0405 10.7621C88.9876 10.9812 88.9461 11.2002 88.9158 11.4193C88.8932 11.6384 88.8743 11.8575 88.8592 12.0765C88.8441 12.288 88.8365 12.4958 88.8365 12.6997C88.8365 13.0321 88.8705 13.2965 88.9385 13.4929C89.0141 13.6818 89.1538 13.8177 89.3578 13.9008C89.5617 13.9764 89.8601 14.0141 90.2529 14.0141Z" fill="#F8F8F8"/>
<path d="M82.2185 21.64C81.72 21.64 81.3498 21.4587 81.1081 21.0961C80.8739 20.7335 80.7568 20.2652 80.7568 19.6911C80.7568 19.4494 80.7568 19.1094 80.7568 18.6713C80.7568 18.2332 80.7606 17.7308 80.7682 17.1643C80.7757 16.5977 80.7833 15.9972 80.7908 15.3626C80.8059 14.7281 80.821 14.0898 80.8362 13.4477C80.8588 12.8056 80.8853 12.1937 80.9155 11.612C80.9457 11.0304 80.9797 10.5129 81.0175 10.0597C81.1005 9.32693 81.2478 8.80948 81.4594 8.50732C81.6709 8.20516 82.0146 8.05408 82.4905 8.05408C82.8909 8.05408 83.1817 8.20894 83.363 8.51865C83.5443 8.82081 83.6614 9.23629 83.7142 9.76507C83.7294 10.0899 83.7445 10.4978 83.7596 10.9888C83.7747 11.4798 83.786 12.0162 83.7936 12.5978C83.8011 13.1795 83.8049 13.7763 83.8049 14.3881C83.8124 14.9925 83.8162 15.5779 83.8162 16.1445C83.8162 16.7035 83.8162 17.2134 83.8162 17.6742C83.8162 18.1274 83.8124 18.49 83.8049 18.7619C83.8049 19.4796 83.7558 20.0499 83.6576 20.4729C83.5594 20.8884 83.397 21.1868 83.1704 21.3681C82.9513 21.5494 82.634 21.64 82.2185 21.64Z" fill="#F8F8F8"/>
<path d="M68.9348 21.7306C68.678 21.7306 68.44 21.6664 68.2209 21.538C68.0094 21.4096 67.8168 21.2019 67.6431 20.9148C67.4769 20.6278 67.3296 20.2501 67.2011 19.7817C67.1483 19.5475 67.0954 19.2491 67.0425 18.8865C66.9896 18.5164 66.9368 18.116 66.8839 17.6855C66.8386 17.2473 66.7932 16.7979 66.7479 16.3371C66.7101 15.8687 66.6761 15.4117 66.6459 14.966C66.6157 14.5203 66.5893 14.1048 66.5666 13.7196C66.5515 13.3268 66.5439 12.9944 66.5439 12.7224C66.5439 11.4987 66.7026 10.5355 67.0198 9.83302C67.3447 9.13049 67.8735 8.6357 68.6062 8.34865C69.3389 8.05404 70.3172 7.90674 71.5409 7.90674C72.4928 7.90674 73.403 7.99739 74.2717 8.17868C75.148 8.35243 75.9261 8.62437 76.6059 8.99452C77.2858 9.36467 77.8184 9.84057 78.2036 10.4222C78.5964 11.0039 78.7928 11.6989 78.7928 12.5072C78.7928 13.1266 78.6569 13.6705 78.3849 14.1388C78.1205 14.5996 77.7428 14.9887 77.2518 15.3059C76.7683 15.6156 76.1942 15.8611 75.5295 16.0424C74.8647 16.2162 74.1395 16.3333 73.3539 16.3937C72.8402 16.4239 72.3379 16.4315 71.8469 16.4164C71.3634 16.3937 70.8913 16.3824 70.4305 16.3824C70.2265 16.3824 70.0943 16.4617 70.0339 16.6203C69.981 16.7714 69.9546 16.9829 69.9546 17.2549C69.9546 17.406 69.9584 17.5872 69.9659 17.7988C69.9735 18.0103 69.9848 18.2369 69.9999 18.4786C70.015 18.7204 70.0264 18.9621 70.0339 19.2038C70.049 19.438 70.0604 19.6571 70.0679 19.861C70.0755 20.065 70.0792 20.2349 70.0792 20.3709C70.0792 20.8242 69.9848 21.1641 69.796 21.3907C69.6147 21.6173 69.3276 21.7306 68.9348 21.7306ZM70.5665 14.7734C71.0953 14.7734 71.624 14.7507 72.1528 14.7054C72.6816 14.6601 73.184 14.5845 73.6599 14.4788C74.1358 14.3654 74.5588 14.2181 74.9289 14.0368C75.2991 13.848 75.5899 13.6176 75.8014 13.3457C76.0129 13.0662 76.1187 12.7376 76.1187 12.3598C76.1187 11.9368 76.0167 11.578 75.8128 11.2834C75.6088 10.9812 75.3444 10.732 75.0196 10.5355C74.6948 10.3316 74.3435 10.173 73.9658 10.0596C73.5956 9.94633 73.2368 9.86701 72.8893 9.82169C72.5419 9.77636 72.251 9.7537 72.0169 9.7537C71.5561 9.7537 71.167 9.79147 70.8498 9.86701C70.5325 9.935 70.2794 10.0483 70.0906 10.2069C69.9017 10.358 69.7657 10.5507 69.6827 10.7848C69.5996 11.0115 69.558 11.2834 69.558 11.6007C69.558 12.0539 69.5656 12.4543 69.5807 12.8018C69.6033 13.1492 69.6373 13.4514 69.6827 13.7082C69.728 13.9575 69.7884 14.1615 69.8639 14.3201C69.9395 14.4712 70.0339 14.5845 70.1472 14.6601C70.2605 14.7356 70.4003 14.7734 70.5665 14.7734Z" fill="#F8F8F8"/>
<path d="M58.0863 22.0479C57.414 22.0479 56.7644 21.9913 56.1374 21.878C55.5179 21.7722 54.9627 21.6287 54.4717 21.4474C53.9807 21.2585 53.5917 21.0395 53.3046 20.7902C53.0176 20.5333 52.874 20.2576 52.874 19.963C52.874 19.7137 52.9307 19.5173 53.044 19.3738C53.1573 19.2303 53.3122 19.1283 53.5086 19.0678C53.705 19.0074 53.9127 18.9772 54.1318 18.9772C54.2753 18.9772 54.4906 19.0376 54.7776 19.1585C55.0723 19.2718 55.4348 19.3889 55.8654 19.5098C56.296 19.6306 56.7946 19.6911 57.3611 19.6911C57.9579 19.6911 58.4791 19.6684 58.9248 19.6231C59.3781 19.5777 59.7558 19.4909 60.0579 19.3625C60.3601 19.2265 60.5829 19.0452 60.7265 18.8186C60.8775 18.5844 60.9531 18.286 60.9531 17.9234C60.9531 17.5835 60.8662 17.2813 60.6925 17.0169C60.5187 16.7525 60.277 16.5108 59.9673 16.2917C59.6576 16.0727 59.2912 15.8687 58.8682 15.6799C58.4527 15.4834 57.9994 15.287 57.5084 15.0906C56.9117 14.8565 56.3527 14.6072 55.8314 14.3428C55.3178 14.0784 54.8645 13.7876 54.4717 13.4703C54.0864 13.153 53.7843 12.7942 53.5652 12.3938C53.3537 11.9935 53.2479 11.5365 53.2479 11.0228C53.2479 10.4487 53.3801 9.95389 53.6445 9.53842C53.9089 9.11539 54.264 8.76035 54.7097 8.47329C55.1629 8.18624 55.6652 7.95962 56.2167 7.79343C56.7757 7.62724 57.346 7.51015 57.9277 7.44217C58.5093 7.36663 59.057 7.32886 59.5707 7.32886C60.2128 7.32886 60.8095 7.37796 61.361 7.47616C61.92 7.56681 62.411 7.69901 62.834 7.87275C63.2646 8.03894 63.597 8.23157 63.8312 8.45063C64.0729 8.6697 64.1938 8.90387 64.1938 9.15316C64.1938 9.37223 64.1409 9.5573 64.0351 9.70838C63.9294 9.85191 63.7934 9.95766 63.6272 10.0257C63.461 10.0936 63.2759 10.1276 63.072 10.1276C62.9285 10.1276 62.7245 10.0634 62.4601 9.935C62.2033 9.79903 61.8709 9.66683 61.463 9.53842C61.0551 9.40244 60.5489 9.33446 59.9446 9.33446C59.5669 9.33446 59.193 9.36089 58.8228 9.41377C58.4527 9.46665 58.1165 9.56108 57.8144 9.69705C57.5122 9.82547 57.2705 10.003 57.0892 10.2296C56.9079 10.4487 56.8172 10.732 56.8172 11.0794C56.8172 11.4118 56.8966 11.7064 57.0552 11.9633C57.2214 12.2125 57.448 12.4392 57.7351 12.6431C58.0297 12.8395 58.3734 13.0284 58.7662 13.2097C59.159 13.391 59.5858 13.5723 60.0466 13.7536C60.6585 14.0029 61.2401 14.2748 61.7916 14.5694C62.343 14.864 62.8303 15.1926 63.2533 15.5552C63.6839 15.9103 64.02 16.3106 64.2617 16.7563C64.511 17.202 64.6357 17.7006 64.6357 18.252C64.6357 18.9545 64.4657 19.5513 64.1258 20.0423C63.7934 20.5258 63.3288 20.9148 62.7321 21.2094C62.1353 21.504 61.4403 21.7155 60.6471 21.844C59.854 21.9799 59.0004 22.0479 58.0863 22.0479Z" fill="#F8F8F8"/>
</svg>
