<svg width="12" height="7" viewBox="0 0 12 7" fill="none" xmlns="http://www.w3.org/2000/svg">
<path d="M1.44943 0.701964C1.39571 0.651198 1.33251 0.61151 1.26345 0.585167C1.19439 0.558823 1.12082 0.54634 1.04693 0.54843C0.973048 0.55052 0.900298 0.567142 0.832837 0.597348C0.765377 0.627553 0.704526 0.67075 0.653759 0.724473C0.602993 0.778195 0.563305 0.841391 0.536962 0.910451C0.510618 0.979512 0.498135 1.05308 0.500225 1.12697C0.502315 1.20085 0.518937 1.2736 0.549143 1.34106C0.579348 1.40852 0.622545 1.46938 0.676268 1.52014L5.74064 6.30316C5.84512 6.40193 5.98344 6.45697 6.12722 6.45697C6.271 6.45697 6.40932 6.40193 6.5138 6.30316L11.5787 1.52014C11.6336 1.46971 11.678 1.40887 11.7092 1.34116C11.7403 1.27346 11.7578 1.20022 11.7604 1.12573C11.7631 1.05123 11.7509 0.976943 11.7246 0.907192C11.6983 0.83744 11.6584 0.77361 11.6072 0.71941C11.556 0.66521 11.4946 0.621719 11.4264 0.591464C11.3583 0.56121 11.2848 0.544794 11.2103 0.543171C11.1358 0.541548 11.0617 0.554749 10.9923 0.582009C10.9229 0.609269 10.8596 0.650043 10.8061 0.701964L6.12722 5.12035L1.44943 0.701964Z" fill="currentColor"/>
</svg>
