<svg width="192" height="234" viewBox="0 0 192 234" fill="none" xmlns="http://www.w3.org/2000/svg">
<path d="M124.444 233.501C123.94 232.93 124.03 232.111 124.67 231.456C125.246 230.865 126.463 230.754 138.734 230.176C140.486 230.094 142.703 229.781 143.659 229.482C144.615 229.183 146.375 228.88 147.57 228.809C152.339 228.528 158.55 227.513 159.063 226.932C159.599 226.325 160.61 222.89 160.923 220.613C161.072 219.53 161.388 218.178 161.624 217.61C161.861 217.041 162.055 216.122 162.055 215.567C162.055 215.012 162.316 214.074 162.634 213.483C162.952 212.892 163.212 212.187 163.212 211.916C163.213 211.341 165.002 204.572 166.031 201.251C166.423 199.988 166.876 198.216 167.037 197.313C167.199 196.411 167.457 195.4 167.61 195.066C167.764 194.733 167.828 194.39 167.752 194.304C167.677 194.219 166.592 194.312 165.342 194.515C164.092 194.716 162.613 194.948 162.055 195.029C161.498 195.111 158.238 195.33 154.813 195.516C151.387 195.702 146.694 195.994 144.383 196.166C142.073 196.338 138.292 196.556 135.982 196.652C130.61 196.874 128.379 197.043 124.973 197.489C123.459 197.687 121.731 197.848 121.134 197.848C119.854 197.846 119.801 198.125 120.487 201.23C120.729 202.324 121.107 204.844 121.326 206.83C121.545 208.815 121.933 211.468 122.187 212.725C122.799 215.742 123.524 222.083 123.524 224.413C123.524 225.577 123.747 226.844 124.122 227.802C124.45 228.644 124.679 229.734 124.629 230.223C124.549 231.005 124.402 231.122 123.423 231.184C122.383 231.249 122.319 231.202 122.48 230.475C122.575 230.046 122.467 228.612 122.241 227.287C122.014 225.963 121.751 223.663 121.656 222.177C121.561 220.691 121.17 217.59 120.788 215.285C120.405 212.981 119.953 209.67 119.782 207.927C119.611 206.185 119.259 203.674 118.999 202.349C118.739 201.023 118.461 199.52 118.381 199.008C118.237 198.084 118.227 198.08 116.591 198.295C115.015 198.502 114.931 198.475 114.6 197.651C114.409 197.177 114.253 196.531 114.253 196.215C114.253 195.898 114.124 195.493 113.966 195.313C113.807 195.134 113.549 193.739 113.391 192.212C113.096 189.366 112.81 187.619 112.204 184.975C111.715 182.84 112.088 181.774 113.518 181.217C114.722 180.749 119.363 180.097 127.58 179.242C134.907 178.48 134.187 178.892 133.755 175.709C133.555 174.235 133.313 172.149 133.217 171.073C133.121 169.997 132.973 168.989 132.889 168.834C132.748 168.577 132.622 166.025 132.041 151.698C131.905 148.344 131.989 145.687 132.352 141.854C132.625 138.966 132.89 135.997 132.941 135.256C133.141 132.303 133.438 129.904 133.952 127.086C134.249 125.462 134.642 123.025 134.828 121.672C135.222 118.786 135.859 116.569 136.606 115.474C137.149 114.679 137.318 113.79 136.923 113.803C136.803 113.806 136.51 114.287 136.271 114.869C135.85 115.897 135.786 115.927 134.155 115.873C132.259 115.81 131.056 115.116 131.056 114.086C131.056 113.339 131.787 112.153 133.447 110.202C134.044 109.499 134.533 108.829 134.533 108.712C134.533 108.595 134.109 107.808 133.591 106.963C132.681 105.479 132.65 105.318 132.65 102.122C132.65 99.0209 132.704 98.7164 133.519 97.2224C134.482 95.4578 136.609 93.9791 138.154 94.0002C139.706 94.0229 142.854 95.5869 143.724 96.7702C145.736 99.5052 145.954 99.5539 148.078 97.7457C149.69 96.3742 151.501 95.8005 152.434 96.3659C152.798 96.587 153.052 97.1875 153.158 98.0787C153.357 99.7674 153.735 100.081 155.352 99.8992C156.078 99.8176 156.94 99.9427 157.38 100.193C157.8 100.433 158.535 100.791 159.013 100.988C160.582 101.635 161.968 103.361 163.237 106.248C163.912 107.782 164.585 109.554 164.732 110.186C166.16 116.289 165.867 122.599 163.839 129.384C163.091 131.884 162.682 133.883 162.158 137.588C161.928 139.212 161.617 141.279 161.468 142.182C160.92 145.481 160.637 150.032 160.953 150.463C161.744 151.542 163.316 150.505 165.137 147.703C167.244 144.46 168.628 141.737 169.027 140.049C169.705 137.178 171.682 133.154 173.419 131.112C174.339 130.03 175.092 129.028 175.092 128.885C175.092 128.387 177.985 126.275 179.647 125.559C180.652 125.127 182.019 124.829 183.066 124.814C184.58 124.791 185.023 124.94 186.398 125.927C189.434 128.104 190.11 129.144 190.886 132.829C191.402 135.279 191.24 143.797 190.627 146.448C189.738 150.292 188.419 154.499 187.517 156.367C187.014 157.409 186.289 158.908 185.905 159.698C185.522 160.488 184.831 161.744 184.369 162.488C183.286 164.234 178.71 169.255 178.202 169.255C177.988 169.255 177.233 169.668 176.525 170.173C175.431 170.952 173.41 171.613 169.787 172.375C169.499 172.436 167.495 172.338 165.335 172.157C160.044 171.715 160.027 171.722 160.027 174.187C160.027 176.153 160.027 176.153 162.852 176.182C164.405 176.201 166.915 176.23 168.429 176.254C172.752 176.322 177.509 176.043 178.033 175.693C178.372 175.466 178.721 175.528 179.229 175.905C180.382 176.761 180.434 177.842 179.445 180.394C178.963 181.638 178.569 182.878 178.569 183.151C178.569 184.003 174.383 191.799 173.613 192.618C173.152 193.109 173.492 192.887 173.186 192.754C172.409 192.417 172.827 190.367 174.143 188.061C174.776 186.952 175.583 185.109 175.936 183.967C176.288 182.824 176.903 181.188 177.3 180.33C177.698 179.473 177.943 178.625 177.846 178.446C177.736 178.244 176.547 178.196 174.714 178.319C171.766 178.517 170.4 178.535 164.663 178.448C160.508 178.386 157.157 178.638 156.122 179.091C155.648 179.298 153.823 179.546 152.067 179.64C145.36 179.999 131.367 181.059 128.594 181.418C127 181.625 124.849 181.846 123.814 181.911C122.778 181.976 120.627 182.194 119.033 182.395C113.965 183.034 114.052 182.972 114.687 185.446C114.948 186.463 115.081 187.442 114.983 187.622C114.885 187.801 115.003 188.652 115.244 189.513C115.485 190.374 115.849 192.11 116.054 193.371C116.457 195.854 116.883 196.285 118.166 195.507C118.672 195.2 118.961 195.2 119.469 195.508C120.141 195.916 122.49 195.785 125.407 195.177C126.204 195.011 128.681 194.805 130.912 194.719C134.734 194.573 142.81 194.064 146.991 193.708C148.026 193.62 150.829 193.465 153.219 193.364C155.609 193.263 157.891 193.099 158.289 192.999C158.688 192.899 159.926 192.77 161.041 192.713C164.716 192.525 166.818 192.176 168.104 191.54C169.785 190.709 174.388 189.38 174.864 190.386C175.355 191.427 170.862 193.659 169.841 193.8C169.226 193.884 169.137 194.067 169.123 195.276C169.106 196.607 168.454 199.566 167.877 200.922C167.162 202.604 165.936 207.428 163.957 216.346C163.396 218.873 162.544 222.244 162.062 223.837C161.58 225.431 161.186 227.238 161.186 227.853C161.186 228.831 161.05 229.039 160.1 229.508C159.437 229.836 157.94 230.095 156.261 230.174C154.748 230.244 152.857 230.44 152.06 230.609C151.264 230.777 149.439 231.08 148.005 231.281C146.57 231.482 144.745 231.782 143.949 231.948C143.152 232.114 140.479 232.401 138.01 232.587C135.54 232.773 132.575 232.995 131.422 233.082C128.85 233.276 126.19 233.57 125.386 233.751C125.055 233.825 124.631 233.714 124.444 233.501ZM145.841 177.637C149.271 177.386 152.27 177.2 152.504 177.225C152.738 177.252 153.802 177.149 154.869 177C157.46 176.64 157.732 176.26 157.926 172.72C158.018 171.053 158.23 169.775 158.449 169.569C158.706 169.328 160.067 169.326 162.971 169.562C168.578 170.02 168.797 170.023 171.616 169.649C174.277 169.297 175.773 168.7 177.392 167.346C179.442 165.63 182.379 162.158 183.412 160.229C183.992 159.147 184.691 157.927 184.966 157.518C185.24 157.11 185.818 155.634 186.249 154.237C186.68 152.84 187.284 150.994 187.591 150.134C188.584 147.35 189.27 141.921 189.156 137.75C189.038 133.492 188.495 131.171 187.302 129.837C185.994 128.374 183.648 126.921 182.593 126.921C180.952 126.922 178.305 128.6 175.894 131.168C173.863 133.332 173.501 133.922 171.913 137.647C170.953 139.901 170.167 141.977 170.167 142.26C170.167 142.543 169.86 143.232 169.485 143.79C169.109 144.349 168.715 145.116 168.61 145.495C168.383 146.308 166.309 149.391 164.964 150.914C164.075 151.921 161.12 153.826 160.444 153.829C160.004 153.831 158.679 152.156 158.455 151.315C158.351 150.924 158.401 150.509 158.567 150.393C158.733 150.277 158.868 149.489 158.867 148.642C158.866 146.984 159.497 142.827 160.271 139.391C160.535 138.218 160.759 136.963 160.769 136.602C160.824 134.436 161.593 130.358 162.346 128.234C162.91 126.642 163.794 120.914 163.794 118.846C163.794 117.577 163.794 117.577 162.772 119.296C162.21 120.241 161.643 121.014 161.511 121.014C161.38 121.014 160.379 121.679 159.287 122.491C157.185 124.055 156.266 124.266 154.494 123.594C152.136 122.699 150.948 120.363 151.02 116.759C151.094 112.984 152.104 111.177 155.499 108.745C156.749 107.85 160.439 108.089 161.621 109.142C162.091 109.561 162.519 109.76 162.57 109.584C162.754 108.96 161.339 106.092 160.228 104.833C158.751 103.16 157.186 102.428 154.512 102.158C152.681 101.973 152.064 102.049 150.695 102.63C148.326 103.634 144.755 106.042 142.963 107.844C142.58 108.229 142.156 108.544 142.021 108.544C141.886 108.544 141.776 108.717 141.776 108.928C141.776 109.14 141.559 109.584 141.295 109.915C140.621 110.758 140.941 110.944 142.334 110.519C143.995 110.013 146.427 110.314 147.776 111.194C149.427 112.27 149.722 113.591 149.256 117.82C148.893 121.12 148.893 121.12 147 123.346C145.132 125.544 143.196 126.85 141.004 127.391C139.923 127.658 137.359 126.355 136.851 125.281C136.68 124.919 136.437 124.624 136.311 124.624C135.941 124.624 135.164 129.933 134.678 135.781C134.431 138.759 134.104 142.599 133.951 144.314C133.593 148.326 133.587 152.248 133.935 154.322C134.086 155.225 134.217 158.213 134.227 160.963C134.237 163.713 134.369 166.593 134.52 167.362C134.672 168.132 134.947 170.165 135.132 171.879C135.317 173.594 135.665 175.431 135.906 175.961C136.241 176.699 136.267 177.064 136.018 177.515C135.839 177.84 135.693 178.19 135.693 178.294C135.693 178.397 136.573 178.395 137.648 178.286C138.724 178.179 142.41 177.888 145.841 177.637ZM143.215 124.39C144.672 123.764 145.096 123.387 146.356 121.587C147.089 120.541 147.252 119.954 147.426 117.719C147.621 115.228 147.591 115.012 146.873 113.783C146.113 112.483 146.113 112.483 143.997 112.483C141.989 112.483 141.823 112.542 140.742 113.631C140.116 114.263 139.443 114.78 139.248 114.78C138.687 114.78 137.963 116.281 137.539 118.321C136.87 121.542 136.97 122.102 138.485 123.613C140.027 125.15 141.05 125.319 143.215 124.39ZM141.341 120.514C140.704 120.254 140.15 120.039 140.11 120.036C140.07 120.033 140.038 119.551 140.039 118.964C140.042 116.811 142.57 114.876 143.997 115.934C144.955 116.645 144.842 117.708 143.62 119.485C143.041 120.327 142.552 121.009 142.534 121.001C142.515 120.993 141.979 120.774 141.341 120.514ZM158.412 120.972C158.879 120.654 159.872 119.722 160.621 118.899C161.824 117.577 161.999 117.204 162.132 115.682C162.32 113.534 161.857 112.189 160.538 111.05C157.706 108.603 152.817 111.79 152.799 116.093C152.787 119.06 154.103 121.545 155.79 121.742C156.86 121.868 157.278 121.746 158.412 120.972ZM157.243 117.483C157.066 117.35 156.704 116.762 156.439 116.175C156.01 115.226 156.003 115.007 156.379 114.182C156.991 112.843 157.558 112.418 158.733 112.418C160.513 112.418 161.405 113.893 160.471 115.292C160.237 115.642 160.042 116.191 160.037 116.511C160.02 117.402 158.05 118.088 157.243 117.483Z" fill="black"/>
<path d="M124.463 227.943C124.086 226.426 123.573 222.999 123.323 220.328C123.074 217.657 122.359 212.094 121.734 207.967C120.101 197.174 120.004 198.306 122.591 197.972C125.422 197.608 135.499 196.89 149.741 196.039C155.933 195.669 162.367 195.166 164.039 194.921C165.711 194.675 167.153 194.549 167.243 194.639C167.333 194.729 166.891 196.771 166.261 199.177C165.63 201.583 164.565 205.661 163.892 208.238C163.22 210.815 162.539 213.136 162.379 213.396C162.218 213.655 161.915 214.725 161.706 215.773C160.486 221.867 159.752 224.843 159.209 225.893C158.534 227.198 156.988 227.59 148.972 228.487C146.728 228.739 143.947 229.139 142.792 229.377C141.177 229.709 128.484 230.688 125.636 230.7C125.369 230.701 124.841 229.461 124.463 227.943Z" fill="#FF9955"/>
<path d="M116.784 195.463C116.615 195.277 116.344 194.312 116.067 192.908C115.822 191.668 115.505 190.207 115.363 189.662C115.221 189.117 115.079 188.11 115.047 187.425C115.015 186.739 114.883 185.792 114.753 185.32C114.378 183.963 114.429 183.502 114.983 183.215C115.527 182.934 118.591 182.484 122.384 182.128C123.841 181.992 126.296 181.744 127.839 181.577C132.284 181.097 142.907 180.263 149.659 179.866C153.387 179.646 155.376 179.429 156.142 179.159C157.456 178.695 159.497 178.572 166.336 178.544C170.108 178.529 174.141 178.465 175.298 178.402C176.632 178.329 177.485 178.344 177.629 178.443C177.821 178.575 177.779 178.793 177.347 179.894C177.067 180.607 176.458 182.239 175.992 183.522C175.527 184.804 174.678 186.784 174.106 187.922C173.103 189.917 173.045 189.995 172.506 190.086C171.411 190.271 170.052 190.682 168.326 191.351C166.369 192.11 164.906 192.375 161.206 192.64C159.927 192.732 158.419 192.876 157.855 192.959C157.29 193.043 154.725 193.218 152.153 193.349C149.581 193.48 146.145 193.689 144.516 193.812C140.927 194.085 134.684 194.471 131.813 194.597C128.691 194.735 126.184 194.968 124.2 195.306C122.033 195.675 120.197 195.696 119.363 195.363C118.786 195.132 118.715 195.136 118.119 195.44C117.336 195.84 117.127 195.843 116.784 195.463Z" fill="#FFB380"/>
<path d="M125.292 229.919C124.742 228.892 124.008 224.76 123.273 218.557C122.892 215.33 122.142 209.757 121.609 206.172C121.075 202.587 120.72 199.324 120.821 198.921C120.929 198.486 121.252 198.187 121.615 198.187C121.951 198.187 123.671 198.042 125.438 197.865C127.204 197.687 135.469 197.103 143.805 196.565C152.14 196.028 160.686 195.419 162.796 195.211C164.906 195.004 166.725 194.927 166.837 195.039C167.069 195.271 165.179 203.032 163.293 209.594C162.598 212.014 161.528 216.172 160.916 218.834C159.189 226.344 159.104 226.508 156.633 227.166C153.438 228.016 137.359 229.902 129.806 230.313C125.899 230.525 125.602 230.499 125.292 229.919Z" fill="#FFB380"/>
<path fill-rule="evenodd" clip-rule="evenodd" d="M15.1643 65.9574C3.4885 58.5186 1.00003 50.802 1.00003 38.9198C1.00003 11.3741 31.0686 1 55.979 1C93.2952 1 122.297 15.0264 120.955 41.2859C120.098 58.0663 116.368 62.4969 104.519 69.6497C102.851 70.6566 101.049 71.5675 99.1336 72.3854C104.896 79.2698 111.98 86.6659 120.35 93.804C119.363 92.9629 117.936 92.4038 115.867 91.593C111.123 89.7347 103.005 86.5542 89.085 75.6257C65.2368 81.2613 32.1807 76.7987 15.1643 65.9574Z" fill="white"/>
<path d="M15.1643 65.9574L15.4329 65.5357L15.4329 65.5357L15.1643 65.9574ZM55.979 1L55.979 0.5L55.979 0.5L55.979 1ZM120.955 41.2859L120.456 41.2604L120.955 41.2859ZM104.519 69.6497L104.778 70.0778L104.778 70.0778L104.519 69.6497ZM99.1336 72.3854L98.7502 72.7064C98.6486 72.585 98.6105 72.4228 98.6473 72.2689C98.6842 72.1151 98.7917 71.9877 98.9372 71.9256L99.1336 72.3854ZM120.674 93.4236C120.884 93.6028 120.909 93.9184 120.73 94.1285C120.551 94.3386 120.235 94.3636 120.025 94.1845L120.674 93.4236ZM115.867 91.593L116.049 91.1275L116.049 91.1275L115.867 91.593ZM89.085 75.6257L88.97 75.1391C89.1181 75.1041 89.2741 75.1385 89.3938 75.2324L89.085 75.6257ZM1.50003 38.9198C1.50003 44.8319 2.1206 49.6437 4.15465 53.8888C6.18491 58.126 9.64923 61.8508 15.4329 65.5357L14.8956 66.3791C9.00355 62.6252 5.38574 58.7723 3.25283 54.3209C1.1237 49.8774 0.500031 44.8898 0.500031 38.9198H1.50003ZM55.979 1.5C43.5808 1.5 29.9286 4.0836 19.395 10.0651C8.87999 16.036 1.50003 25.3691 1.50003 38.9198H0.500031C0.500031 24.9248 8.15434 15.298 18.9012 9.19548C29.6295 3.10346 43.4668 0.5 55.979 0.5V1.5ZM120.456 41.2604C121.115 28.3615 114.34 18.4476 102.714 11.7286C91.0687 4.99861 74.5855 1.5 55.979 1.5L55.979 0.5C74.6887 0.500002 91.3645 4.01461 103.214 10.8627C115.082 17.7218 122.137 27.9509 121.455 41.3114L120.456 41.2604ZM104.261 69.2216C110.179 65.6493 113.98 62.8053 116.433 58.8162C118.886 54.827 120.028 49.6286 120.456 41.2604L121.455 41.3114C121.025 49.7236 119.873 55.1307 117.285 59.3401C114.696 63.5496 110.709 66.4973 104.778 70.0778L104.261 69.2216ZM98.9372 71.9256C100.834 71.1158 102.615 70.2152 104.261 69.2216L104.778 70.0778C103.087 71.098 101.264 72.0192 99.3299 72.8453L98.9372 71.9256ZM120.025 94.1845C111.632 87.0264 104.529 79.6099 98.7502 72.7064L99.517 72.0645C105.264 78.9297 112.328 86.3055 120.674 93.4236L120.025 94.1845ZM116.049 91.1275C118.087 91.926 119.609 92.5154 120.674 93.4236L120.025 94.1845C119.117 93.4104 117.785 92.8816 115.684 92.0586L116.049 91.1275ZM89.3938 75.2324C103.267 86.1239 111.339 89.2823 116.049 91.1275L115.684 92.0586C110.907 90.1871 102.743 86.9845 88.7763 76.019L89.3938 75.2324ZM15.4329 65.5357C23.8573 70.9029 36.2965 74.7137 49.6282 76.4747C62.9542 78.235 77.1174 77.94 88.97 75.1391L89.2 76.1123C77.2044 78.947 62.9155 79.2386 49.4973 77.4661C36.0847 75.6944 23.4877 71.8532 14.8956 66.3791L15.4329 65.5357Z" fill="black"/>
<path d="M28.4031 30.0548C28.4031 30.7956 28.2554 31.4188 27.9601 31.9244C27.6647 32.4249 27.2543 32.8028 26.7287 33.0581C26.2081 33.3084 25.6074 33.4335 24.9267 33.4335H22.6817V32.1196C22.8419 32.1146 23.0671 32.1096 23.3575 32.1046C23.6528 32.0946 23.9406 32.0895 24.2209 32.0895C24.5062 32.0845 24.719 32.082 24.8591 32.082C25.3397 32.082 25.7076 31.9744 25.9628 31.7592C26.2181 31.5439 26.3908 31.2786 26.4809 30.9633C26.576 30.6479 26.6236 30.3451 26.6236 30.0548C26.6236 29.7595 26.576 29.4566 26.4809 29.1463C26.3908 28.8359 26.2181 28.5756 25.9628 28.3654C25.7076 28.1502 25.3397 28.0426 24.8591 28.0426C24.6539 28.0426 24.4186 28.0426 24.1533 28.0426C23.893 28.0376 23.6428 28.0325 23.4025 28.0275V37C23.2674 37.025 23.1222 37.0425 22.967 37.0526C22.8118 37.0626 22.6667 37.0676 22.5315 37.0676C22.4164 37.0676 22.2788 37.0626 22.1186 37.0526C21.9584 37.0425 21.8132 37.025 21.6831 37V26.8262L21.7807 26.7286C22.3613 26.7186 22.9019 26.7086 23.4025 26.6986C23.9031 26.6835 24.4111 26.676 24.9267 26.676C25.6024 26.676 26.2006 26.8012 26.7212 27.0515C27.2468 27.2967 27.6572 27.6696 27.9526 28.1702C28.2529 28.6708 28.4031 29.299 28.4031 30.0548ZM35.6932 33.2909C35.6932 34.0617 35.568 34.7425 35.3178 35.3331C35.0725 35.9188 34.7046 36.3768 34.214 36.7072C33.7285 37.0375 33.1278 37.2027 32.412 37.2027C31.6912 37.2027 31.0881 37.035 30.6025 36.6997C30.117 36.3643 29.7516 35.9038 29.5063 35.3181C29.261 34.7275 29.1384 34.0517 29.1384 33.2909C29.1384 32.52 29.261 31.8418 29.5063 31.2561C29.7566 30.6655 30.1245 30.205 30.61 29.8746C31.0956 29.5392 31.6962 29.3715 32.412 29.3715C33.1328 29.3715 33.736 29.5392 34.2215 29.8746C34.7121 30.21 35.08 30.673 35.3253 31.2636C35.5705 31.8493 35.6932 32.525 35.6932 33.2909ZM30.8578 33.2909C30.8578 33.7464 30.9004 34.1769 30.9854 34.5823C31.0755 34.9828 31.2332 35.3081 31.4585 35.5584C31.6837 35.8037 32.0041 35.9263 32.4195 35.9263C32.83 35.9263 33.1453 35.8037 33.3656 35.5584C33.5908 35.3081 33.7485 34.9828 33.8386 34.5823C33.9287 34.1769 33.9738 33.7464 33.9738 33.2909C33.9738 32.8354 33.9287 32.4049 33.8386 31.9995C33.7485 31.594 33.5908 31.2661 33.3656 31.0159C33.1453 30.7656 32.83 30.6404 32.4195 30.6404C32.0041 30.6404 31.6837 30.7656 31.4585 31.0159C31.2332 31.2661 31.0755 31.594 30.9854 31.9995C30.9004 32.4049 30.8578 32.8354 30.8578 33.2909ZM43.3893 34.8977C43.3893 35.178 43.4194 35.4433 43.4794 35.6935C43.5445 35.9388 43.6546 36.129 43.8098 36.2642C43.7698 36.4143 43.6922 36.572 43.577 36.7372C43.4619 36.9024 43.3393 37.0275 43.2091 37.1126C42.6936 37.0275 42.3156 36.7948 42.0754 36.4143C41.8401 36.0289 41.7225 35.5834 41.7225 35.0779V29.5743C41.9577 29.5292 42.2356 29.5067 42.5559 29.5067C42.8663 29.5067 43.1441 29.5292 43.3893 29.5743V34.8977ZM37.3902 31.2036C37.3902 30.9383 37.3727 30.688 37.3376 30.4527C37.3026 30.2125 37.2325 30.0047 37.1274 29.8295C37.2475 29.7244 37.4002 29.6393 37.5854 29.5743C37.7756 29.5092 37.9733 29.4766 38.1786 29.4766C38.5039 29.4766 38.7317 29.5667 38.8618 29.7469C38.992 29.9221 39.057 30.1824 39.057 30.5278V34.2595C39.057 34.735 39.1196 35.0829 39.2447 35.3031C39.3699 35.5234 39.6051 35.6335 39.9505 35.6335C40.1908 35.6335 40.4486 35.5759 40.7239 35.4608C41.0042 35.3457 41.272 35.1805 41.5273 34.9652C41.7826 34.745 41.9878 34.4847 42.143 34.1844V35.7536C41.8076 36.134 41.4021 36.4594 40.9266 36.7297C40.4511 37 39.943 37.1352 39.4024 37.1352C38.9369 37.1352 38.5565 37.025 38.2611 36.8048C37.9658 36.5845 37.7456 36.2867 37.6004 35.9113C37.4603 35.5309 37.3902 35.1079 37.3902 34.6424V31.2036ZM50.077 29.5667C50.077 29.782 50.0445 30.0398 49.9794 30.3401C49.9143 30.6404 49.8117 30.9032 49.6716 31.1285C49.5665 31.1035 49.4613 31.0859 49.3562 31.0759C49.2511 31.0659 49.1435 31.0559 49.0334 31.0459C48.7631 31.0459 48.5253 31.1035 48.3201 31.2186C48.1149 31.3287 47.9372 31.4739 47.787 31.6541C47.6418 31.8343 47.5167 32.037 47.4116 32.2622C47.3115 32.4825 47.2239 32.7027 47.1488 32.923L46.916 32.6301C46.931 32.2697 46.9811 31.9043 47.0662 31.5339C47.1513 31.1635 47.2814 30.8231 47.4566 30.5128C47.6368 30.1974 47.8721 29.9447 48.1624 29.7545C48.4577 29.5642 48.8206 29.4691 49.2511 29.4691C49.4013 29.4691 49.5389 29.4767 49.6641 29.4917C49.7942 29.5067 49.9319 29.5317 50.077 29.5667ZM45.2567 30.3476C45.2967 30.1924 45.3743 30.0273 45.4894 29.8521C45.6046 29.6769 45.7222 29.5467 45.8423 29.4616C46.3729 29.5617 46.7684 29.8145 47.0286 30.22C47.2889 30.6254 47.4391 31.136 47.4791 31.7517V37C47.2389 37.0451 46.9636 37.0676 46.6532 37.0676C46.3379 37.0676 46.0576 37.0451 45.8123 37V31.8943C45.8123 31.4889 45.7522 31.1585 45.6321 30.9032C45.512 30.6479 45.3868 30.4627 45.2567 30.3476ZM57.312 35.7536C57.4021 36.0039 57.4472 36.2817 57.4472 36.587C57.4472 36.6471 57.4447 36.7097 57.4397 36.7747C57.4397 36.8398 57.4321 36.8974 57.4171 36.9474C57.2369 36.9775 57.0242 37.005 56.7789 37.03C56.5336 37.0551 56.3034 37.0676 56.0882 37.0676C55.5726 37.0676 55.1872 36.9324 54.9319 36.6621C54.6766 36.3918 54.5489 35.9864 54.5489 35.4458V26.0528L54.6466 25.9552H55.2773C55.6226 25.9552 55.8579 26.0378 55.983 26.203C56.1132 26.3682 56.1783 26.636 56.1783 27.0064V35.0854C56.1783 35.3056 56.2258 35.4733 56.3209 35.5884C56.421 35.6986 56.5737 35.7536 56.7789 35.7536H57.312ZM59.4235 33.8165V32.6226H62.9599V32.4274C62.9599 32.0971 62.9124 31.7942 62.8173 31.5189C62.7272 31.2386 62.577 31.0159 62.3668 30.8507C62.1565 30.6805 61.8812 30.5954 61.5408 30.5954C61.0503 30.5954 60.6849 30.8031 60.4446 31.2186C60.2094 31.629 60.0917 32.1997 60.0917 32.9305V33.441C60.0917 33.8966 60.1368 34.307 60.2269 34.6724C60.322 35.0378 60.4897 35.3281 60.7299 35.5434C60.9702 35.7536 61.3156 35.8587 61.7661 35.8587C62.1415 35.8587 62.5019 35.8062 62.8473 35.7011C63.1927 35.5909 63.5255 35.4583 63.8459 35.3031C63.976 35.4333 64.0837 35.5984 64.1688 35.7987C64.2589 35.9989 64.3164 36.1841 64.3415 36.3543C63.9811 36.6096 63.5506 36.8148 63.05 36.97C62.5495 37.1251 62.0389 37.2027 61.5183 37.2027C60.9126 37.2027 60.4071 37.0976 60.0016 36.8874C59.5962 36.6721 59.2758 36.3818 59.0406 36.0164C58.8053 35.646 58.6351 35.228 58.53 34.7625C58.4299 34.297 58.3798 33.8115 58.3798 33.3059C58.3798 32.5551 58.495 31.8843 58.7252 31.2937C58.9605 30.703 59.3109 30.235 59.7764 29.8896C60.2469 29.5442 60.8376 29.3715 61.5484 29.3715C62.1991 29.3715 62.7472 29.5142 63.1927 29.7995C63.6382 30.0848 63.976 30.4703 64.2063 30.9558C64.4366 31.4363 64.5517 31.9769 64.5517 32.5776C64.5517 32.8329 64.5417 33.0506 64.5217 33.2308C64.5066 33.406 64.4741 33.6012 64.424 33.8165H59.4235ZM65.693 36.4594C65.703 36.2692 65.7605 36.0615 65.8656 35.8362C65.9708 35.606 66.0909 35.4258 66.226 35.2956C66.5464 35.4658 66.8868 35.6185 67.2472 35.7536C67.6076 35.8888 67.9705 35.9563 68.3359 35.9563C68.7263 35.9563 69.0342 35.8737 69.2594 35.7086C69.4897 35.5434 69.6048 35.3331 69.6048 35.0779C69.6048 34.8776 69.5297 34.6949 69.3795 34.5298C69.2294 34.3596 69.0041 34.2194 68.7038 34.1093L67.8328 33.7864C67.4874 33.6613 67.1696 33.5036 66.8793 33.3134C66.594 33.1232 66.3637 32.8904 66.1885 32.6151C66.0183 32.3398 65.9332 32.012 65.9332 31.6315C65.9332 31.166 66.0483 30.7656 66.2786 30.4302C66.5139 30.0898 66.8342 29.8295 67.2397 29.6493C67.6501 29.4641 68.1131 29.3715 68.6287 29.3715C69.0442 29.3715 69.4847 29.4291 69.9502 29.5442C70.4207 29.6543 70.8111 29.782 71.1215 29.9271C71.1315 30.1324 71.0889 30.3551 70.9938 30.5954C70.9037 30.8357 70.7861 31.0159 70.6409 31.136C70.3706 31.0159 70.0578 30.9032 69.7024 30.7981C69.352 30.688 68.9916 30.6329 68.6212 30.6329C68.3159 30.6329 68.0706 30.708 67.8854 30.8582C67.7002 31.0083 67.6076 31.2061 67.6076 31.4513C67.6076 31.6466 67.6802 31.8117 67.8253 31.9469C67.9705 32.077 68.1907 32.1972 68.4861 32.3073L69.4096 32.6527C69.9752 32.8529 70.4357 33.1357 70.7911 33.5011C71.1515 33.8665 71.3317 34.3446 71.3317 34.9352C71.3317 35.636 71.0589 36.1891 70.5133 36.5945C69.9677 37 69.2444 37.2027 68.3434 37.2027C67.8128 37.2027 67.3198 37.1276 66.8643 36.9775C66.4138 36.8273 66.0233 36.6546 65.693 36.4594ZM76.8609 29.4992C77.2163 29.4992 77.4791 29.6168 77.6493 29.8521C77.8245 30.0873 77.9121 30.4127 77.9121 30.8281V39.1849C77.9121 39.5553 77.847 39.8231 77.7168 39.9883C77.5917 40.1535 77.3539 40.2361 77.0036 40.2361H76.3729L76.2752 40.1385V29.5968L76.3729 29.4992H76.8609ZM82.4846 33.2008C82.4846 34.0868 82.3445 34.8201 82.0642 35.4007C81.7889 35.9814 81.4285 36.4169 80.983 36.7072C80.5375 36.9925 80.072 37.1352 79.5864 37.1352C79.1009 37.1352 78.6579 37.035 78.2574 36.8348C77.857 36.6296 77.4816 36.4043 77.1312 36.1591L77.3414 34.8751C77.6267 35.1004 77.9421 35.3156 78.2875 35.5209C78.6379 35.7211 78.9883 35.8212 79.3386 35.8212C79.614 35.8212 79.8592 35.7236 80.0745 35.5284C80.2947 35.3331 80.4674 35.0428 80.5925 34.6574C80.7177 34.267 80.7802 33.7789 80.7802 33.1933C80.7802 32.6126 80.7202 32.1446 80.6 31.7892C80.4849 31.4338 80.3297 31.1735 80.1345 31.0083C79.9393 30.8382 79.7241 30.7531 79.4888 30.7531C79.2536 30.7531 79.0008 30.8181 78.7305 30.9483C78.4652 31.0784 78.2174 31.2862 77.9871 31.5715C77.7569 31.8518 77.5767 32.2247 77.4465 32.6902L77.1012 31.5114C77.1913 31.166 77.364 30.8307 77.6192 30.5053C77.8795 30.1749 78.2024 29.9046 78.5878 29.6944C78.9782 29.4792 79.4087 29.3715 79.8792 29.3715C80.4599 29.3715 80.9429 29.5342 81.3284 29.8596C81.7138 30.1849 82.0016 30.6354 82.1918 31.2111C82.387 31.7817 82.4846 32.4449 82.4846 33.2008ZM86.9934 35.7536C87.0835 36.0039 87.1285 36.2817 87.1285 36.587C87.1285 36.6471 87.126 36.7097 87.121 36.7747C87.121 36.8398 87.1135 36.8974 87.0985 36.9474C86.9183 36.9775 86.7056 37.005 86.4603 37.03C86.215 37.0551 85.9848 37.0676 85.7695 37.0676C85.254 37.0676 84.8685 36.9324 84.6133 36.6621C84.358 36.3918 84.2303 35.9864 84.2303 35.4458V26.0528L84.3279 25.9552H84.9586C85.304 25.9552 85.5393 26.0378 85.6644 26.203C85.7946 26.3682 85.8596 26.636 85.8596 27.0064V35.0854C85.8596 35.3056 85.9072 35.4733 86.0023 35.5884C86.1024 35.6986 86.2551 35.7536 86.4603 35.7536H86.9934ZM94.4665 34.8977C94.4665 35.178 94.4966 35.4433 94.5566 35.6935C94.6217 35.9388 94.7318 36.129 94.887 36.2642C94.847 36.4143 94.7694 36.572 94.6542 36.7372C94.5391 36.9024 94.4165 37.0275 94.2863 37.1126C93.7708 37.0275 93.3928 36.7948 93.1526 36.4143C92.9173 36.0289 92.7997 35.5834 92.7997 35.0779V29.5743C93.0349 29.5292 93.3128 29.5067 93.6331 29.5067C93.9435 29.5067 94.2213 29.5292 94.4665 29.5743V34.8977ZM88.4674 31.2036C88.4674 30.9383 88.4499 30.688 88.4148 30.4527C88.3798 30.2125 88.3097 30.0047 88.2046 29.8295C88.3247 29.7244 88.4774 29.6393 88.6626 29.5743C88.8528 29.5092 89.0505 29.4766 89.2558 29.4766C89.5811 29.4766 89.8089 29.5667 89.939 29.7469C90.0692 29.9221 90.1342 30.1824 90.1342 30.5278V34.2595C90.1342 34.735 90.1968 35.0829 90.3219 35.3031C90.4471 35.5234 90.6823 35.6335 91.0277 35.6335C91.268 35.6335 91.5258 35.5759 91.8011 35.4608C92.0814 35.3457 92.3492 35.1805 92.6045 34.9652C92.8598 34.745 93.065 34.4847 93.2202 34.1844V35.7536C92.8848 36.134 92.4793 36.4594 92.0038 36.7297C91.5283 37 91.0202 37.1352 90.4796 37.1352C90.0141 37.1352 89.6337 37.025 89.3383 36.8048C89.043 36.5845 88.8228 36.2867 88.6776 35.9113C88.5375 35.5309 88.4674 35.1079 88.4674 34.6424V31.2036ZM96.0636 36.4594C96.0736 36.2692 96.1311 36.0615 96.2363 35.8362C96.3414 35.606 96.4615 35.4258 96.5967 35.2956C96.917 35.4658 97.2574 35.6185 97.6178 35.7536C97.9782 35.8888 98.3411 35.9563 98.7065 35.9563C99.0969 35.9563 99.4048 35.8737 99.63 35.7086C99.8603 35.5434 99.9754 35.3331 99.9754 35.0779C99.9754 34.8776 99.9003 34.6949 99.7502 34.5298C99.6 34.3596 99.3747 34.2194 99.0744 34.1093L98.2034 33.7864C97.8581 33.6613 97.5402 33.5036 97.2499 33.3134C96.9646 33.1232 96.7343 32.8904 96.5591 32.6151C96.3889 32.3398 96.3038 32.012 96.3038 31.6315C96.3038 31.166 96.419 30.7656 96.6492 30.4302C96.8845 30.0898 97.2048 29.8295 97.6103 29.6493C98.0207 29.4641 98.4838 29.3715 98.9993 29.3715C99.4148 29.3715 99.8553 29.4291 100.321 29.5442C100.791 29.6543 101.182 29.782 101.492 29.9271C101.502 30.1324 101.46 30.3551 101.364 30.5954C101.274 30.8357 101.157 31.0159 101.012 31.136C100.741 31.0159 100.428 30.9032 100.073 30.7981C99.7226 30.688 99.3622 30.6329 98.9918 30.6329C98.6865 30.6329 98.4412 30.708 98.256 30.8582C98.0708 31.0083 97.9782 31.2061 97.9782 31.4513C97.9782 31.6466 98.0508 31.8117 98.1959 31.9469C98.3411 32.077 98.5613 32.1972 98.8567 32.3073L99.7802 32.6527C100.346 32.8529 100.806 33.1357 101.162 33.5011C101.522 33.8665 101.702 34.3446 101.702 34.9352C101.702 35.636 101.43 36.1891 100.884 36.5945C100.338 37 99.615 37.2027 98.714 37.2027C98.1834 37.2027 97.6904 37.1276 97.2349 36.9775C96.7844 36.8273 96.3939 36.6546 96.0636 36.4594ZM41.7997 52.8826C41.7997 53.163 41.8298 53.4283 41.8898 53.6785C41.9549 53.9238 42.065 54.1165 42.2202 54.2567C42.1802 54.4068 42.1026 54.567 41.9874 54.7372C41.8723 54.9024 41.7497 55.0275 41.6195 55.1126C41.109 55.0275 40.7386 54.7948 40.5083 54.4143C40.2831 54.0339 40.1704 53.5934 40.1704 53.0929V44.0528L40.268 43.9552H40.8987C41.2491 43.9552 41.4869 44.0378 41.612 44.203C41.7372 44.3682 41.7997 44.636 41.7997 45.0064V52.8826ZM35.6204 51.381C35.6204 50.49 35.758 49.7542 36.0333 49.1735C36.3136 48.5879 36.674 48.1549 37.1145 47.8746C37.56 47.5893 38.0281 47.4466 38.5186 47.4466C39.0041 47.4466 39.4471 47.5467 39.8476 47.7469C40.248 47.9472 40.6209 48.1699 40.9663 48.4152L40.7636 49.6991C40.4733 49.4739 40.1554 49.2611 39.81 49.0609C39.4646 48.8557 39.1143 48.7531 38.7589 48.7531C38.4836 48.7531 38.2358 48.8507 38.0155 49.0459C37.8003 49.2361 37.6301 49.5264 37.505 49.9169C37.3798 50.3073 37.3173 50.7953 37.3173 51.381C37.3173 51.9566 37.3773 52.4246 37.4975 52.785C37.6176 53.1404 37.7753 53.4032 37.9705 53.5734C38.1657 53.7386 38.3784 53.8212 38.6087 53.8212C38.849 53.8212 39.1017 53.7561 39.367 53.626C39.6323 53.4958 39.8801 53.2906 40.1104 53.0103C40.3406 52.725 40.5208 52.3496 40.651 51.884L40.9963 53.0628C40.9113 53.4082 40.7386 53.7461 40.4783 54.0765C40.218 54.4018 39.8951 54.6721 39.5097 54.8874C39.1243 55.0976 38.6938 55.2027 38.2183 55.2027C37.6426 55.2027 37.1621 55.0425 36.7767 54.7222C36.3912 54.3968 36.1009 53.9463 35.9057 53.3707C35.7155 52.7951 35.6204 52.1318 35.6204 51.381ZM44.6341 51.8165V50.6226H48.1706V50.4274C48.1706 50.0971 48.123 49.7942 48.0279 49.5189C47.9378 49.2386 47.7876 49.0159 47.5774 48.8507C47.3672 48.6805 47.0919 48.5954 46.7515 48.5954C46.2609 48.5954 45.8955 48.8031 45.6553 49.2186C45.42 49.629 45.3024 50.1997 45.3024 50.9305V51.441C45.3024 51.8966 45.3474 52.307 45.4375 52.6724C45.5326 53.0378 45.7003 53.3281 45.9406 53.5434C46.1808 53.7536 46.5262 53.8587 46.9767 53.8587C47.3521 53.8587 47.7125 53.8062 48.0579 53.7011C48.4033 53.5909 48.7362 53.4583 49.0565 53.3031C49.1867 53.4333 49.2943 53.5984 49.3794 53.7987C49.4695 53.9989 49.5271 54.1841 49.5521 54.3543C49.1917 54.6096 48.7612 54.8148 48.2607 54.97C47.7601 55.1251 47.2495 55.2027 46.729 55.2027C46.1233 55.2027 45.6177 55.0976 45.2123 54.8874C44.8068 54.6721 44.4865 54.3818 44.2512 54.0164C44.0159 53.646 43.8458 53.228 43.7406 52.7625C43.6405 52.297 43.5905 51.8115 43.5905 51.3059C43.5905 50.5551 43.7056 49.8843 43.9359 49.2937C44.1711 48.703 44.5215 48.235 44.987 47.8896C45.4575 47.5442 46.0482 47.3715 46.759 47.3715C47.4097 47.3715 47.9578 47.5142 48.4033 47.7995C48.8488 48.0848 49.1867 48.4703 49.4169 48.9558C49.6472 49.4363 49.7623 49.9769 49.7623 50.5776C49.7623 50.8329 49.7523 51.0506 49.7323 51.2308C49.7173 51.406 49.6847 51.6012 49.6347 51.8165H44.6341ZM54.4659 52.6048C54.4659 52.1343 54.5811 51.7088 54.8113 51.3284C55.0466 50.948 55.3469 50.6251 55.7123 50.3598C56.0827 50.0946 56.4682 49.9018 56.8686 49.7817L58.0925 50.2547C57.4417 50.46 56.9562 50.7703 56.6359 51.1858C56.3205 51.6012 56.1628 52.0342 56.1628 52.4847C56.1628 52.9652 56.3205 53.3382 56.6359 53.6034C56.9512 53.8637 57.3416 53.9939 57.8072 53.9939C58.1175 53.9939 58.3953 53.9313 58.6406 53.8062C58.8909 53.681 59.0886 53.5058 59.2337 53.2806C59.3789 53.0503 59.4515 52.7825 59.4515 52.4772C59.4515 52.1618 59.3689 51.889 59.2037 51.6588C59.0435 51.4285 58.8283 51.2333 58.558 51.0731C58.2877 50.908 57.9924 50.7778 57.672 50.6827L57.3942 50.5776C56.8786 50.4074 56.4181 50.2022 56.0127 49.9619C55.6072 49.7166 55.2894 49.4188 55.0591 49.0684C54.8339 48.718 54.7212 48.3026 54.7212 47.822C54.7212 47.3365 54.8564 46.9035 55.1267 46.5231C55.402 46.1427 55.7724 45.8423 56.2379 45.6221C56.7034 45.4018 57.229 45.2917 57.8147 45.2917C58.4303 45.2917 58.9684 45.3968 59.429 45.6071C59.8945 45.8173 60.2549 46.1076 60.5102 46.478C60.7704 46.8485 60.9006 47.2764 60.9006 47.762C60.9006 48.1674 60.8005 48.5303 60.6003 48.8507C60.4 49.171 60.1372 49.4413 59.8119 49.6616C59.4915 49.8818 59.1486 50.047 58.7832 50.1571L57.6119 49.6691C58.1325 49.5089 58.5355 49.2661 58.8208 48.9408C59.1111 48.6104 59.2563 48.24 59.2563 47.8295C59.2563 47.4241 59.1161 47.1037 58.8358 46.8685C58.5605 46.6332 58.2176 46.5156 57.8072 46.5156C57.4117 46.5156 57.0763 46.6357 56.801 46.876C56.5257 47.1112 56.3881 47.4216 56.3881 47.807C56.3881 48.1924 56.5382 48.5053 56.8386 48.7456C57.1389 48.9858 57.5444 49.1785 58.0549 49.3237L58.3252 49.4138C58.8558 49.579 59.3364 49.7992 59.7668 50.0745C60.1973 50.3448 60.5377 50.6802 60.788 51.0806C61.0432 51.4761 61.1709 51.9466 61.1709 52.4922C61.1709 53.0528 61.0157 53.5384 60.7054 53.9488C60.395 54.3543 59.9796 54.6646 59.459 54.8799C58.9384 55.0951 58.3653 55.2027 57.7396 55.2027C56.7635 55.2027 55.9726 54.975 55.3669 54.5195C54.7663 54.064 54.4659 53.4258 54.4659 52.6048ZM65.8 52.9727C65.8 52.4021 65.9276 51.9316 66.1829 51.5612C66.4432 51.1908 66.7911 50.918 67.2266 50.7428C67.6621 50.5626 68.1501 50.4725 68.6907 50.4725C68.961 50.4725 69.2714 50.485 69.6217 50.51C69.9771 50.53 70.305 50.5751 70.6053 50.6452V51.7489C70.3451 51.6888 70.0497 51.6513 69.7194 51.6363C69.389 51.6162 69.0837 51.6062 68.8033 51.6062C68.3679 51.6062 68.0325 51.7189 67.7972 51.9441C67.567 52.1694 67.4518 52.4747 67.4518 52.8601C67.4518 53.1504 67.5344 53.3982 67.6996 53.6034C67.8648 53.8037 68.1026 53.9038 68.4129 53.9038C68.7683 53.9038 69.1412 53.7786 69.5316 53.5284C69.9271 53.2781 70.26 52.9152 70.5303 52.4397L70.778 53.671C70.5978 53.8863 70.3751 54.1115 70.1098 54.3468C69.8495 54.582 69.5442 54.7848 69.1938 54.955C68.8484 55.1201 68.458 55.2027 68.0225 55.2027C67.5219 55.2027 67.1065 55.0926 66.7761 54.8724C66.4507 54.6471 66.2055 54.3643 66.0403 54.0239C65.8801 53.6835 65.8 53.3331 65.8 52.9727ZM72.1445 54.2567C72.1045 54.4068 72.0269 54.567 71.9118 54.7372C71.7967 54.9024 71.674 55.0275 71.5439 55.1126C71.2085 55.0576 70.9357 54.9424 70.7255 54.7672C70.5202 54.592 70.3651 54.3843 70.26 54.144C70.1598 53.8988 70.0998 53.6435 70.0798 53.3782V50.022C70.0798 49.5715 69.9746 49.2486 69.7644 49.0534C69.5592 48.8532 69.2664 48.7531 68.8859 48.7531C68.5155 48.7531 68.1301 48.8081 67.7296 48.9182C67.3342 49.0284 66.9388 49.1585 66.5433 49.3087C66.4132 49.1735 66.3056 48.9908 66.2205 48.7606C66.1354 48.5303 66.0878 48.3101 66.0778 48.0998C66.3631 47.9747 66.686 47.8621 67.0464 47.762C67.4118 47.6568 67.7847 47.5743 68.1651 47.5142C68.5456 47.4491 68.9035 47.4166 69.2388 47.4166C69.7244 47.4166 70.1523 47.5067 70.5227 47.6869C70.8982 47.8621 71.191 48.1349 71.4012 48.5053C71.6165 48.8757 71.7241 49.3537 71.7241 49.9394V53.0103C71.7241 53.2856 71.7516 53.5259 71.8067 53.7311C71.8667 53.9313 71.9794 54.1065 72.1445 54.2567ZM74.6645 47.4992C75.0049 47.4992 75.2452 47.6068 75.3853 47.822C75.5305 48.0323 75.6031 48.3226 75.6031 48.693V55C75.3678 55.0451 75.0925 55.0676 74.7772 55.0676C74.4618 55.0676 74.1815 55.0451 73.9362 55V47.5968L74.0338 47.4992H74.6645ZM79.9279 53.3707C79.9279 53.636 79.9479 53.8888 79.9879 54.129C80.028 54.3643 80.0981 54.5695 80.1982 54.7447C80.073 54.8498 79.9179 54.9349 79.7327 55C79.5475 55.0701 79.3547 55.1051 79.1545 55.1051C78.8242 55.1051 78.5914 55.015 78.4562 54.8348C78.3261 54.6546 78.261 54.3918 78.261 54.0464V50.3148C78.261 49.8343 78.201 49.4864 78.0808 49.2711C77.9607 49.0509 77.7229 48.9408 77.3675 48.9408C77.1323 48.9408 76.8745 48.9983 76.5942 49.1135C76.3139 49.2286 76.0486 49.3938 75.7983 49.609C75.548 49.8243 75.3428 50.0845 75.1826 50.3899V48.8206C75.523 48.4402 75.9284 48.1149 76.399 47.8446C76.8745 47.5743 77.3826 47.4391 77.9232 47.4391C78.3887 47.4391 78.7691 47.5492 79.0644 47.7695C79.3597 47.9897 79.5775 48.2875 79.7176 48.663C79.8578 49.0384 79.9279 49.4614 79.9279 49.9319V53.3707ZM81.4355 54.4594C81.4455 54.2692 81.5031 54.0615 81.6082 53.8362C81.7133 53.606 81.8335 53.4258 81.9686 53.2956C82.289 53.4658 82.6294 53.6185 82.9898 53.7536C83.3502 53.8888 83.7131 53.9563 84.0785 53.9563C84.4689 53.9563 84.7767 53.8737 85.002 53.7086C85.2322 53.5434 85.3474 53.3331 85.3474 53.0779C85.3474 52.8776 85.2723 52.6949 85.1221 52.5298C84.972 52.3596 84.7467 52.2194 84.4464 52.1093L83.5754 51.7864C83.23 51.6613 82.9122 51.5036 82.6218 51.3134C82.3365 51.1232 82.1063 50.8904 81.9311 50.6151C81.7609 50.3398 81.6758 50.012 81.6758 49.6315C81.6758 49.166 81.7909 48.7656 82.0212 48.4302C82.2564 48.0898 82.5768 47.8295 82.9822 47.6493C83.3927 47.4641 83.8557 47.3715 84.3713 47.3715C84.7867 47.3715 85.2272 47.4291 85.6928 47.5442C86.1633 47.6543 86.5537 47.782 86.8641 47.9271C86.8741 48.1324 86.8315 48.3551 86.7364 48.5954C86.6463 48.8357 86.5287 49.0159 86.3835 49.136C86.1132 49.0159 85.8004 48.9032 85.445 48.7981C85.0946 48.688 84.7342 48.6329 84.3638 48.6329C84.0584 48.6329 83.8132 48.708 83.628 48.8582C83.4428 49.0083 83.3502 49.2061 83.3502 49.4513C83.3502 49.6466 83.4227 49.8117 83.5679 49.9469C83.7131 50.077 83.9333 50.1972 84.2286 50.3073L85.1522 50.6527C85.7178 50.8529 86.1783 51.1357 86.5337 51.5011C86.8941 51.8665 87.0743 52.3446 87.0743 52.9352C87.0743 53.636 86.8015 54.1891 86.2559 54.5945C85.7103 55 84.987 55.2027 84.086 55.2027C83.5554 55.2027 83.0623 55.1276 82.6068 54.9775C82.1563 54.8273 81.7659 54.6546 81.4355 54.4594Z" fill="black"/>
</svg>
