<svg width="47" height="44" viewBox="0 0 47 44" fill="none" xmlns="http://www.w3.org/2000/svg">
<path d="M9.96315 43.8969C8.95414 43.745 7.89934 43.4445 7.56612 43.2141C7.43306 43.1221 7.25702 43.0374 7.17493 43.0259C7.09284 43.0144 6.85827 42.8501 6.65365 42.6607C6.31479 42.347 6.29001 42.2933 6.37571 42.0589C6.49964 41.7198 6.45356 41.5087 5.98913 40.2878C5.7741 39.7226 5.60619 39.2601 5.61599 39.2601C5.62579 39.2601 5.54325 39.0908 5.43256 38.8839C5.32187 38.6769 5.2313 38.4618 5.2313 38.4058C5.2313 38.3499 5.17058 38.1774 5.09637 38.0225C5.02216 37.8676 4.82937 37.2583 4.66795 36.6684C4.50653 36.0786 4.33534 35.5262 4.28753 35.4409C4.23972 35.3555 4.2006 35.1637 4.2006 35.0146C4.2006 34.8655 4.09519 34.4961 3.96635 34.1937C3.83751 33.8912 3.7321 33.493 3.7321 33.3086C3.7321 32.967 3.64121 32.4776 3.38518 31.4405C3.21908 30.7676 3.04372 29.871 2.84334 28.6701C2.76543 28.2031 2.63744 27.5396 2.5589 27.1955C2.48037 26.8514 2.37489 26.3789 2.32451 26.1454C2.10316 25.1197 2.01064 24.7497 1.84954 24.2464C1.75516 23.9514 1.63028 23.4286 1.57205 23.0846C1.51381 22.7405 1.27763 21.715 1.04722 20.8057C0.320035 17.936 0.181018 17.1799 0.0652085 15.4647C-0.0258302 14.1164 -0.0228446 13.7666 0.0823677 13.454C0.277248 12.8748 0.57855 12.2791 0.832372 11.9713C1.3657 11.3244 1.48341 11.1664 1.48536 11.0952C1.4864 11.0538 1.67614 10.8993 1.90681 10.7519C2.13747 10.6044 2.32628 10.4595 2.3264 10.43C2.32651 10.4004 2.6323 10.247 3.00592 10.0891C3.37955 9.93122 3.75847 9.7644 3.84795 9.71841C3.93744 9.6724 4.08053 9.63477 4.16593 9.63477C4.25133 9.63477 4.87384 9.46012 5.54927 9.24666C8.2232 8.40163 9.29706 8.11552 9.79485 8.11552C9.99563 8.11552 10.2 8.07959 10.2489 8.03569C10.3726 7.92476 11.2526 7.75805 11.7145 7.75805C11.9255 7.75805 12.3923 7.67446 12.752 7.5723C13.2197 7.43945 13.4347 7.41399 13.507 7.48293C13.6697 7.63806 13.8239 7.59787 14.2965 7.27723C14.5415 7.11108 14.9105 6.88845 15.1166 6.7825C15.6563 6.50514 16.1523 6.14264 16.3867 5.85428C16.4987 5.71652 16.8069 5.45019 17.0716 5.26243C17.3363 5.07467 17.6597 4.82545 17.7902 4.70859C18.1297 4.40476 19.3336 3.55396 19.9656 3.17129C20.2619 2.99186 20.5044 2.80827 20.5044 2.76332C20.5044 2.71837 20.6284 2.64034 20.78 2.58994C21.1184 2.47742 22.5227 1.61143 22.9585 1.24648C23.4003 0.876457 25.224 0.0959886 25.8206 0.0215698C26.2111 -0.0271372 26.4262 0.00139141 26.8747 0.161368C27.3096 0.316485 27.4681 0.338771 27.5688 0.258998C27.6407 0.202145 27.9048 0.13243 28.1558 0.104078C28.5747 0.0567534 28.6658 0.084128 29.2667 0.437821C29.6267 0.649728 30.1192 0.977863 30.3612 1.167C31.5358 2.08493 33.7468 4.34215 34.8405 5.73984C35.1754 6.16792 35.5777 6.66644 35.7344 6.84767C35.8912 7.02889 36.0915 7.2777 36.1797 7.40058C36.7129 8.14355 36.9956 8.57614 36.9956 8.64902C36.9956 8.69478 37.0509 8.76437 37.1186 8.80368C37.2468 8.87812 38.1373 10.12 38.651 10.9408C38.8143 11.2016 39.0793 11.5876 39.2399 11.7984C39.4005 12.0092 39.6849 12.4029 39.872 12.6733C40.0591 12.9436 40.3001 13.246 40.4076 13.3454C40.5151 13.4447 40.7047 13.7061 40.8289 13.9262C40.9532 14.1464 41.2111 14.5477 41.4021 14.8181C41.7897 15.3666 42.7144 16.7363 43.1099 17.3478C43.2518 17.5673 43.4277 17.9085 43.5008 18.1061C43.6201 18.4285 43.9541 18.9463 44.8389 20.1801C45.5835 21.2186 46.52 22.7805 46.7117 23.3038C46.8892 23.7884 46.9302 24.1207 46.9632 25.3419C47.0012 26.7482 46.995 26.8097 46.7933 27.0429C46.6781 27.176 46.4629 27.506 46.315 27.7764C46.1671 28.0467 45.9238 28.3801 45.7743 28.5173C45.5866 28.6894 45.518 28.8237 45.5528 28.9506C45.5806 29.0518 45.5815 29.1138 45.5548 29.0884C45.4774 29.0146 44.3738 29.9264 42.9923 31.2054C42.2009 31.9382 41.2753 32.6916 41.1664 32.6916C41.1267 32.6916 40.9356 32.8223 40.7417 32.982C40.0666 33.5382 39.8777 33.6799 39.6787 33.779C39.5687 33.8339 39.3049 34.0238 39.0927 34.2012C38.5221 34.678 37.85 35.1685 37.3454 35.4764C37.0998 35.6262 36.7078 35.9259 36.4745 36.1422C36.2411 36.3585 35.9361 36.6042 35.7967 36.6882C35.6573 36.7721 35.3324 37.0045 35.0747 37.2046C34.5142 37.6399 33.4805 38.3218 33.3812 38.3218C33.3422 38.3218 33.0499 38.553 32.7315 38.8356C32.4132 39.1182 31.9871 39.4747 31.7847 39.6277C31.2918 40.0003 30.0616 40.5358 29.318 40.7014C28.9862 40.7753 28.6378 40.875 28.5437 40.923C28.4329 40.9796 28.3154 40.9798 28.21 40.9238C28.0935 40.8616 28.002 40.8761 27.8876 40.9749C27.6749 41.1584 27.2277 41.014 26.8085 40.6265L26.5035 40.3446L25.5887 40.4565C25.0856 40.518 24.2313 40.6054 23.6902 40.6506C23.149 40.6958 22.5798 40.7555 22.4252 40.7831C22.2706 40.8108 21.5116 40.8696 20.7386 40.9139C19.9656 40.9581 19.1012 41.0369 18.8178 41.0889C17.7764 41.2799 14.9408 41.463 13.8985 41.4066C13.3316 41.3759 12.6148 41.3547 12.3056 41.3594C11.9497 41.3648 11.5372 41.2982 11.1812 41.1776C10.872 41.0729 10.4868 40.9422 10.3251 40.8871C10.1472 40.8264 9.89106 40.6024 9.67582 40.319C9.48032 40.0617 9.212 39.7735 9.07955 39.6787C8.9471 39.5839 8.7603 39.3504 8.66444 39.1599C8.56858 38.9694 8.45523 38.7532 8.41255 38.6795C7.80511 37.6301 7.34767 36.4958 7.20529 35.6857C7.01364 34.5953 6.27716 31.7494 6.07209 31.3067C5.84842 30.8238 5.52078 29.7339 5.46763 29.2959C5.43482 29.0256 5.34757 28.543 5.27373 28.2235C5.19989 27.904 5.03645 27.2002 4.91054 26.6596C4.68031 25.6709 4.43015 24.3798 4.1494 22.7312C4.06604 22.2417 3.94398 21.739 3.87813 21.6141C3.73622 21.3448 3.65173 20.8273 3.54194 19.5549C3.4974 19.0388 3.39482 18.1942 3.31397 17.6781C3.06446 16.0855 3.02672 14.9891 3.20364 14.4732C3.28814 14.2268 3.35822 13.9523 3.35937 13.8632C3.36041 13.7741 3.44391 13.6007 3.54468 13.4779C3.64546 13.355 3.72885 13.213 3.73 13.1623C3.73321 13.0209 4.7602 12.097 5.206 11.8345C5.42399 11.7062 5.69156 11.6011 5.80058 11.6011C5.9096 11.6011 6.11072 11.528 6.24752 11.4386C6.63701 11.1841 7.19202 11.0774 7.77486 11.145C8.32143 11.2084 8.511 11.301 8.84897 11.6697L9.04661 11.8853L9.41117 11.4585C10.4024 10.298 10.9083 9.81591 11.7669 9.21379C12.0889 8.98788 12.3525 8.76439 12.3525 8.71712C12.3525 8.59065 11.3325 8.69415 9.6096 8.99553C9.31209 9.04757 8.63745 9.23691 8.1104 9.4163C7.58335 9.59569 6.64615 9.86304 6.02773 10.0104C5.40931 10.1578 4.819 10.3123 4.71593 10.3538C4.61286 10.3954 4.17013 10.573 3.73208 10.7487C2.78981 11.1265 2.21937 11.5346 1.79642 12.1336L0.97298 13.4777C0.802486 14.2132 0.93784 17.1801 1.18703 18.1695C1.32181 18.7047 1.41369 19.2572 1.71162 20.2639C1.97778 21.1374 2.13401 22.0353 2.33445 22.9232C2.3817 23.1293 2.42036 23.3959 2.42036 23.5155C3.34902 23.7325 2.85722 26.7963 3.62389 27.1715C3.71194 27.1537 3.71908 27.1891 3.65089 27.3053C3.5827 27.4216 3.60603 27.5372 3.7391 27.7426C3.90186 27.9937 3.90703 28.0521 3.79056 28.3237C3.71139 28.5082 3.69054 28.695 3.73689 28.8043C3.77858 28.9026 3.81565 29.1209 3.81928 29.2895C3.82289 29.4581 3.9307 30.0211 4.05885 30.5407C4.18699 31.0602 4.37584 32.0185 4.47853 32.6702C4.58122 33.3219 4.73466 33.9832 4.81951 34.1397C4.90437 34.2962 4.99199 34.6276 5.01423 34.8762C5.03646 35.1247 5.11877 35.5493 5.19711 35.8196C5.39163 36.4908 6.05978 38.3949 6.2163 38.7241C6.28641 38.8715 6.38523 39.1329 6.4359 39.3049C6.70977 40.2347 7.46617 41.9287 7.77871 42.3123C7.94729 42.5192 8.85125 42.8724 9.3073 42.9095C9.56498 42.9305 10.071 42.9948 10.4317 43.0525C10.9057 43.1282 12.3213 43.1416 15.5355 43.1009C17.9819 43.07 20.0091 43.0295 20.0406 43.0109C20.0721 42.9924 21.3172 42.9531 22.8076 42.9235C24.298 42.894 25.7071 42.8344 25.939 42.7912C26.3472 42.715 27.5103 42.6116 28.3752 42.5745C29.0314 42.5463 30.46 42.4269 30.6981 42.3803C30.8162 42.3571 30.8902 42.3034 30.8626 42.2608C30.7966 42.1589 31.0371 42.0753 31.3965 42.0753C31.8232 42.0753 32.4321 41.6927 32.8157 41.1834C33.0017 40.9365 33.1539 40.7013 33.1539 40.6608C33.1539 40.6204 33.2561 40.4957 33.3809 40.3839C33.5729 40.2118 33.5997 40.1235 33.555 39.8098C33.4495 39.0706 33.4745 38.7499 33.6458 38.6459C33.9297 38.4734 34.1203 38.6852 34.2458 39.3127C34.4206 40.1864 34.4048 40.535 34.1846 40.6662C34.0815 40.7276 33.9972 40.8193 33.9972 40.87C33.9972 40.9207 33.8769 41.1021 33.7298 41.273C33.5827 41.444 33.3936 41.7114 33.3095 41.8672C33.2255 42.0231 33.0271 42.2387 32.8686 42.3463C32.5343 42.5733 31.4151 42.9788 31.3346 42.902C31.3045 42.8733 31.2799 42.8926 31.2799 42.9449C31.2799 43.039 30.3749 43.1784 29.044 43.2892C28.5513 43.3302 28.3035 43.3949 28.1773 43.5153C27.9627 43.72 27.6754 43.7434 27.7532 43.5499C27.8231 43.3761 27.5035 43.3748 26.213 43.5437C25.6758 43.614 24.6038 43.6788 23.8308 43.6876C22.3341 43.7046 18.3553 43.8302 16.569 43.9167C14.1167 44.0355 10.8175 44.0255 9.96315 43.8969ZM28.6547 40.1891C28.9906 40.0365 29.3497 39.881 29.4527 39.8435C30.1564 39.5876 31.1494 39.0462 31.5744 38.6867C31.8505 38.4532 32.3715 38.0721 32.7322 37.8397C33.093 37.6074 33.5989 37.2567 33.8566 37.0604C34.1143 36.8641 34.4727 36.6264 34.6531 36.532C34.8334 36.4377 35.1497 36.1964 35.3558 35.9958C35.562 35.7952 35.8748 35.5454 36.051 35.4406C36.2272 35.3357 36.4848 35.1368 36.6233 34.9985C36.7619 34.8602 36.9011 34.747 36.9327 34.747C37.0669 34.747 38.4756 33.6712 38.6237 33.4556C38.7128 33.3259 38.8995 33.1713 39.0385 33.1123C39.307 32.9982 40.9444 31.7715 41.7274 31.0978C41.9851 30.8762 42.5075 30.4302 42.8883 30.1069C43.6191 29.4865 44.679 28.5104 44.679 28.4578C44.679 28.4407 44.8872 28.1255 45.1417 27.7573C46.0704 26.4139 46.1782 26.1975 46.1782 25.6759C46.1782 24.6723 45.8959 23.3916 45.5341 22.7535C45.3472 22.4239 45.1231 22.0266 45.0362 21.8705C44.9492 21.7145 44.7757 21.4814 44.6507 21.3526C44.5256 21.2239 44.2663 20.8571 44.0743 20.5376C43.8823 20.2181 43.6298 19.8562 43.5131 19.7333C43.3964 19.6104 43.0378 19.0296 42.7161 18.4426C42.3945 17.8556 42.0299 17.233 41.9059 17.059C41.782 16.885 41.6806 16.7062 41.6806 16.6616C41.6806 16.617 41.6201 16.5358 41.5461 16.4812C41.4722 16.4267 41.0682 15.8391 40.6484 15.1756C40.2286 14.512 39.762 13.8465 39.6116 13.6967C39.4611 13.5469 39.3381 13.3822 39.3381 13.3306C39.3381 13.279 39.2481 13.1402 39.1382 13.0221C38.85 12.7124 38.1598 11.7206 37.1216 10.1242C36.8651 9.72977 36.5865 9.32761 36.5026 9.23048C36.3227 9.02229 35.7704 8.29402 35.309 7.65649C34.462 6.48629 33.7617 5.60878 33.2505 5.07702C32.9434 4.75753 32.4692 4.24859 32.1968 3.94605C31.6653 3.35571 29.854 1.68361 29.4 1.36414C29.1179 1.16563 27.845 0.900978 27.6013 0.990167C27.53 1.01624 27.2428 0.97989 26.963 0.909412C26.386 0.76399 25.7546 0.811982 25.0862 1.05208C24.5301 1.25182 22.0306 2.73086 20.7492 3.61832C20.5489 3.75705 20.1847 3.99121 19.9398 4.13866C19.3381 4.501 19.0059 4.72906 18.7687 4.94272C18.6594 5.04116 18.3423 5.28257 18.064 5.47918C17.7857 5.67579 17.2195 6.1418 16.8058 6.51478C16.3921 6.88775 15.7785 7.33711 15.4422 7.51334C15.1059 7.68957 14.7475 7.92314 14.6457 8.03239C14.544 8.14163 14.2293 8.37329 13.9464 8.54717C13.6635 8.72106 13.2418 9.02882 13.0094 9.23108C12.7769 9.43333 12.3127 9.81317 11.9777 10.0752C11.1903 10.691 10.0544 11.8552 9.56268 12.5505C9.22614 13.0263 9.18023 13.1491 9.21189 13.4889C9.2592 13.9966 9.48299 14.8226 9.66055 15.1448C9.73757 15.2846 9.92101 15.6403 10.0682 15.9352C10.2154 16.2301 10.5416 16.7328 10.7932 17.0523C11.4596 17.9319 11.3402 17.7439 11.1795 17.0076C11.1527 16.8847 11.447 17.279 11.4977 17.279L14.8032 23.0846C15.6532 24.2539 16.4594 25.5355 17.3186 26.6898C17.4732 26.8933 17.5997 27.0955 17.5997 27.1391C17.5997 27.1826 17.6664 27.2711 17.7479 27.3356C17.8294 27.4001 18.0215 27.69 18.1749 27.9797C18.362 28.3333 18.4966 28.4908 18.5841 28.4588C18.6689 28.4278 18.6966 28.4558 18.6632 28.5387C18.5959 28.706 18.9522 29.4014 19.2731 29.729C19.4124 29.8712 19.5772 30.094 19.6394 30.2243C19.7016 30.3545 19.8551 30.4982 19.9805 30.5437C20.1401 30.6016 20.1947 30.6763 20.1628 30.7929C20.1309 30.9091 20.1902 30.9913 20.359 31.0646C20.492 31.1224 20.6492 31.2708 20.7082 31.3944C20.7673 31.5181 20.851 31.6192 20.8942 31.6192C20.9375 31.6192 20.9729 31.6996 20.9729 31.7979C20.9729 31.8962 21.0379 32.047 21.1174 32.1331C21.4778 32.5231 21.9855 33.2116 22.0453 33.3912C22.0815 33.4999 22.2559 33.7698 22.433 33.991C22.7746 34.4178 23.128 35.0022 23.128 35.1401C23.128 35.1857 23.4969 35.6825 23.9479 36.2442C24.3988 36.8058 24.8857 37.4125 25.0298 37.5925C26.1724 39.0184 27.6193 40.4666 27.9016 40.4666C27.98 40.4666 28.3189 40.3417 28.6547 40.1891ZM27.2976 37.5762C26.538 37.2791 26.4075 37.2016 26.4075 37.0479C26.4075 36.8381 26.1966 36.5184 25.656 35.9088C25.4162 35.6385 25.0583 35.176 24.8606 34.8811C24.3632 34.1392 23.4129 32.8015 22.7023 31.8426C21.7826 30.6017 21.2377 29.8113 20.8792 29.1984C20.6988 28.89 20.4138 28.454 20.2458 28.2294C20.0778 28.0048 19.6183 27.3586 19.2247 26.7933C18.831 26.2281 18.405 25.645 18.2778 25.4975C18.1507 25.35 17.7248 24.7373 17.3313 24.1358C16.9378 23.5344 16.1684 22.4084 15.6215 21.6336C14.9619 20.6991 13.1715 18.1548 12.6892 16.6057C12.4921 15.9726 12.4829 14.2247 12.6747 13.8646C12.7489 13.7255 12.8737 13.4682 12.9521 13.2928C13.084 12.9977 13.4306 12.6573 14.6481 11.6269C14.9058 11.4088 15.2431 11.1213 15.3977 10.9881C15.5523 10.8548 15.9635 10.529 16.3113 10.264C16.6592 9.99908 16.9438 9.75608 16.9438 9.72403C16.9438 9.69199 17.3549 9.43055 17.8574 9.14306C18.3598 8.85558 18.9607 8.4709 19.1926 8.28824C19.4245 8.10557 19.7829 7.87516 19.989 7.77621C20.1952 7.67726 20.5501 7.43162 20.7777 7.23034C21.0052 7.02906 21.2102 6.86438 21.2331 6.86438C21.2559 6.86438 21.5546 6.6704 21.8968 6.43332C22.7557 5.83819 24.2188 4.96851 24.6947 4.77021C24.9122 4.67958 25.1597 4.53214 25.2447 4.44257C25.3297 4.35299 25.6577 4.14975 25.9736 3.99091C26.4812 3.73571 26.6547 3.6977 27.4653 3.6641C28.3487 3.62748 28.4054 3.63678 29.0002 3.91606C29.6751 4.23299 30.7738 5.16465 31.4104 5.95991C31.8942 6.56424 32.5221 7.46968 33.2153 8.56236C34.1327 10.0083 34.7563 10.8855 35.7775 12.1661C36.3186 12.8446 36.8246 13.4877 36.9019 13.5951C36.9792 13.7025 37.1795 13.9673 37.3469 14.1836C37.5144 14.3999 37.6515 14.6156 37.6515 14.6631C37.6515 14.7106 37.799 14.9412 37.9794 15.1756C38.1598 15.4099 38.3074 15.6386 38.3074 15.6838C38.3074 15.7289 38.4691 15.9246 38.6667 16.1186C38.8644 16.3126 39.1806 16.7227 39.3695 17.0299C39.5583 17.3371 39.8672 17.8398 40.0559 18.147C40.2446 18.4542 40.6346 19.0067 40.9226 19.3748C41.2107 19.7428 41.4988 20.1392 41.563 20.2556C41.6272 20.372 41.8486 20.6596 42.055 20.8946C42.2613 21.1297 42.4302 21.3616 42.4302 21.4101C42.4302 21.4585 42.6526 21.8148 42.9244 22.202C43.6882 23.2898 43.8223 23.6149 43.9377 24.6575C44.1272 26.3704 43.8471 27.8179 43.2831 28.0407C43.137 28.0984 42.9614 28.2454 42.893 28.3673C42.7401 28.6398 41.3052 29.9504 41.234 29.8826C41.2058 29.8556 40.9829 30.0041 40.7388 30.2125C40.4947 30.4209 39.9699 30.8099 39.5725 31.0769C39.1751 31.3439 38.8055 31.6556 38.751 31.7695C38.6966 31.8834 38.5897 31.9767 38.5134 31.9767C38.3789 31.9767 38.2348 32.0841 37.0424 33.0739C36.7332 33.3306 36.0375 33.7895 35.4964 34.0936C34.5243 34.64 33.6689 35.2678 33.3199 35.6911C33.2211 35.8108 33.0573 35.9088 32.9559 35.9088C32.6674 35.9088 32.0742 36.2326 31.9011 36.4846C31.8147 36.6103 31.6792 36.7131 31.5999 36.7131C31.4597 36.7131 30.995 36.9015 29.816 37.436C29.3119 37.6646 29.1415 37.6956 28.4105 37.6911C27.953 37.6881 27.4522 37.6366 27.2976 37.5762ZM38.8696 31.8032C38.8696 31.7569 38.9117 31.6942 38.9633 31.6639C39.0148 31.6335 39.057 31.6713 39.057 31.748C39.057 31.8246 39.0148 31.8873 38.9633 31.8873C38.9117 31.8873 38.8696 31.8494 38.8696 31.8032Z" fill="black"/>
</svg>
