<svg width="48" height="52" viewBox="0 0 48 52" fill="none" xmlns="http://www.w3.org/2000/svg">
<path d="M24.0633 51.2547C24.0456 51.224 23.7006 51.0289 23.2967 50.8213C22.8927 50.6137 22.3191 50.3171 22.022 50.1623C21.7249 50.0074 21.1054 49.6001 20.6453 49.2573C20.1851 48.9144 19.5937 48.5561 19.331 48.4611C19.0682 48.3661 18.7242 48.1504 18.5665 47.9817C18.4087 47.813 18.0237 47.5047 17.7109 47.2967C17.3981 47.0887 16.6757 46.595 16.1057 46.1996C15.5356 45.8042 14.7927 45.2932 14.4547 45.064C14.1168 44.8348 13.7148 44.5519 13.5615 44.4353C13.4082 44.3188 13.0878 44.1076 12.8496 43.9661C12.6115 43.8245 12.3375 43.6222 12.2408 43.5165C12.1441 43.4108 11.6656 43.0354 11.1775 42.6824C10.6894 42.3294 10.0802 41.8847 9.82372 41.6943C8.70644 40.8647 5.71312 38.8268 5.55441 38.7877C5.48272 38.7701 5.20627 38.5757 4.94008 38.3558C4.14147 37.6961 3.37977 37.1317 2.67491 36.6773C2.30837 36.4411 1.86121 36.1401 1.68124 36.0086C1.50126 35.8771 1.14861 35.6597 0.897569 35.5255C0.368005 35.2424 0.308807 35.0326 0.642433 34.6212C0.774412 34.4584 0.900166 34.2531 0.921889 34.165C0.943613 34.0768 1.203 33.7145 1.4983 33.3599C2.20719 32.5086 2.54347 32.005 2.74895 31.4872C2.84197 31.2528 3.06928 30.8078 3.25408 30.4983C3.43889 30.1889 3.6623 29.7846 3.75055 29.5999C3.83881 29.4152 4.11194 29.0097 4.35752 28.6987C4.6031 28.3877 5.03248 27.7685 5.31171 27.3226C5.831 26.4933 6.66839 25.4215 6.84576 25.359C6.90017 25.3399 7.01709 25.1727 7.10558 24.9876C7.19406 24.8024 7.52194 24.2932 7.83419 23.856C8.14645 23.4187 8.42288 22.976 8.44849 22.872C8.51582 22.5987 8.41375 20.4487 8.30607 19.8719C8.25571 19.6021 8.22218 19.2254 8.23157 19.0347C8.24096 18.844 8.23492 18.5793 8.21817 18.4465C8.2014 18.3137 8.13371 17.1652 8.06774 15.8944C8.00177 14.6235 7.93489 13.5332 7.91911 13.4714C7.90334 13.4097 7.91689 13.192 7.94926 12.9878C7.98163 12.7835 7.97563 12.4609 7.93594 12.2709C7.89625 12.0808 7.86801 11.5687 7.87319 11.1328L7.88259 10.3403L8.40624 9.65389C8.99392 8.88349 9.81803 8.32596 10.3589 8.33288C10.5483 8.3353 10.7413 8.29805 10.7877 8.2501C10.9459 8.08673 11.2261 8.24961 11.6632 8.75902C12.2138 9.40079 12.5541 10.4139 12.5115 11.2846C12.4937 11.649 12.5157 11.9865 12.5604 12.0346C12.6052 12.0827 12.6116 12.2446 12.5747 12.3942C12.4281 12.9892 12.5434 15.9588 12.7159 16.0302C12.7654 16.0507 12.9069 15.9082 13.0304 15.7134C13.1539 15.5187 13.422 15.1373 13.6261 14.8659C13.8302 14.5945 14.0216 14.3206 14.0514 14.2572C14.0812 14.1938 14.3334 13.8443 14.6118 13.4805C14.8902 13.1167 15.1339 12.7609 15.1533 12.6897C15.1727 12.6186 15.2792 12.4827 15.3898 12.3878C15.5004 12.2929 15.7285 11.9806 15.8968 11.6939C16.2728 11.0529 16.6657 10.5431 16.9651 10.3076C17.4336 9.93906 19.1075 7.84967 20.0566 6.44864C20.5982 5.64918 21.1195 4.9354 21.2151 4.86245C21.4358 4.69412 22.7089 3.15189 23.9634 1.5331C24.9494 0.260795 25.164 0.113828 25.408 0.54379C25.4852 0.679864 25.5565 0.669073 25.7651 0.489698C26.0118 0.277663 26.0513 0.278665 26.4993 0.508351C27.0517 0.791529 28.8383 2.02542 29.5556 2.61911C29.8287 2.84513 30.3757 3.22802 30.7712 3.46998C31.1667 3.71194 31.6146 4.00965 31.7666 4.13155C32.4708 4.69628 33.0791 5.09583 33.6443 5.36488C33.9892 5.52903 34.6145 5.98497 35.0684 6.40316C35.5135 6.81324 36.2611 7.38811 36.7298 7.68065C37.1984 7.97318 37.6639 8.30061 37.7641 8.40828C37.8643 8.51594 38.1821 8.75513 38.4704 8.93982C39.5374 9.6235 40.4196 10.2209 40.5033 10.3164C40.5506 10.3704 40.8019 10.5597 41.0616 10.737C41.3213 10.9143 41.7928 11.2764 42.1095 11.5418C42.4261 11.8071 42.7093 12.0301 42.7389 12.0374C42.7685 12.0447 43.0065 12.2281 43.2679 12.445C43.5292 12.662 43.9204 12.9676 44.1371 13.1242C44.6223 13.4748 45.368 14.0726 45.546 14.2537C45.6188 14.3277 46.0047 14.6686 46.4035 15.0112C48.1818 16.5386 48.0526 16.3664 47.943 17.0629C47.8504 17.6519 47.492 18.3795 47.0574 18.861C46.9749 18.9524 46.8822 19.1296 46.8513 19.2549C46.8205 19.3801 46.4931 19.9028 46.1238 20.4165C45.7545 20.9302 45.4232 21.4644 45.3875 21.6036C45.352 21.7429 45.2006 21.9583 45.0514 22.0824C44.9021 22.2065 44.7579 22.3932 44.7309 22.4975C44.704 22.6017 44.5405 22.8773 44.3679 23.1099C44.1953 23.3425 43.7872 23.8905 43.461 24.3277C43.1349 24.7649 42.8419 25.2286 42.81 25.358C42.7781 25.4875 42.6622 25.6513 42.5525 25.7221C42.4428 25.7929 42.2157 26.096 42.0479 26.3957C41.1549 27.9904 40.7723 28.5487 39.2908 30.4194C39.167 30.5757 39.052 30.758 39.0352 30.8244C39.0186 30.8908 38.9011 31.0686 38.7743 31.2195C38.6476 31.3704 38.3468 31.7963 38.1059 32.1661C37.476 33.1329 36.7999 34.1128 36.6292 34.3062C36.5482 34.398 36.4632 34.5492 36.4403 34.6422C36.4174 34.7352 36.2353 34.9769 36.0358 35.1792C35.8362 35.3815 35.5589 35.7727 35.4195 36.0486C35.2802 36.3244 34.9653 36.7901 34.7199 37.0835C34.4744 37.3769 34.2423 37.7433 34.2041 37.8978C34.1659 38.0523 33.8873 38.4776 33.5849 38.8428C33.2825 39.208 33.0155 39.5871 32.9915 39.6853C32.9675 39.7835 32.8066 40.0396 32.634 40.2544C32.4615 40.4692 32.049 41.0256 31.7175 41.4908C29.6607 43.9632 28.0929 46.6602 26.1737 49.269C25.9452 49.5774 25.606 50.1255 25.42 50.487C25.0618 51.1828 24.7139 51.463 24.3267 51.3676C24.1995 51.3363 24.081 51.2855 24.0633 51.2547ZM24.97 49.5667C25.1282 49.3001 25.3648 48.8715 25.4958 48.6142C25.7465 48.1218 25.9142 47.8813 26.7834 46.7674C33.6013 38.0308 23.0562 51.3641 31.0817 40.6908C31.3266 40.3651 31.708 39.8274 31.9293 39.4959C32.1506 39.1644 32.6587 38.421 33.0584 37.8439C33.458 37.2669 33.9071 36.5644 34.0562 36.2829C34.2053 36.0015 34.4944 35.5597 34.6986 35.3013C34.9027 35.0428 35.0818 34.7825 35.0965 34.7229C35.1112 34.6633 35.3007 34.3808 35.5177 34.095C36.1427 33.2721 36.8071 32.334 37.23 31.6776C37.9927 30.4937 39.0755 28.9731 39.3194 28.7433C39.6709 28.4122 40.0008 27.9532 40.6502 26.892C40.962 26.3824 41.2891 25.8577 41.3771 25.7258C41.465 25.594 41.6867 25.2335 41.8696 24.9248C42.0525 24.616 42.4015 24.0966 42.6451 23.7706C42.8887 23.4446 43.4648 22.6127 43.9254 21.9219C44.3859 21.2312 44.8255 20.5762 44.9023 20.4665C44.9791 20.3567 45.1466 20.0821 45.2745 19.8563C45.4024 19.6305 45.5598 19.4087 45.6243 19.3634C45.6888 19.3182 45.7587 19.2118 45.7796 19.1269C45.8005 19.0421 45.9203 18.8321 46.0457 18.6603C46.1712 18.4884 46.3902 18.1396 46.5324 17.8852C46.6746 17.6307 46.8515 17.3703 46.9256 17.3066C46.9997 17.2429 47.0448 17.175 47.0257 17.1558C47.0066 17.1365 46.9121 17.0379 46.8157 16.9365C46.3554 16.4523 44.8101 15.0274 44.4783 14.781C44.2731 14.6287 43.8784 14.3164 43.6012 14.0871C42.5134 13.1871 39.7159 11.0745 38.9502 10.5747C38.5058 10.2847 37.8723 9.83367 37.5422 9.57236C37.2122 9.31104 36.5355 8.83327 36.0386 8.51063C35.5416 8.188 34.9691 7.75543 34.7663 7.54937C34.5636 7.3433 34.3395 7.16037 34.2684 7.14284C34.1973 7.12532 34.0805 7.01839 34.0088 6.90522C33.9371 6.79204 33.5513 6.52047 33.1515 6.30171C32.7516 6.08295 32.2809 5.78909 32.1056 5.64867C31.6289 5.26703 31.118 4.90293 30.3262 4.38051C29.1853 3.62782 28.512 3.14538 28.1231 2.80193C27.6515 2.3855 26.931 1.8845 26.38 1.58994C25.5244 1.13257 25.5976 1.11184 24.9271 2.00119C24.5891 2.44952 24.3002 2.86634 24.2852 2.92747C24.2701 2.9886 24.2224 3.02989 24.1791 3.01923C24.1358 3.00856 23.9995 3.17238 23.8762 3.38327C23.7529 3.59415 23.3624 4.09014 23.0084 4.48546C22.167 5.42527 20.8372 7.07032 20.8013 7.21586C20.7858 7.27877 20.7106 7.40624 20.6341 7.49912C20.5577 7.59201 20.3156 7.93959 20.096 8.27153C19.8765 8.60347 19.6297 8.93104 19.5475 8.99947C19.4653 9.0679 19.1984 9.39374 18.9543 9.72355C18.7103 10.0534 18.2612 10.5116 17.9564 10.7419C17.6516 10.9721 17.3869 11.2223 17.3684 11.2977C17.2732 11.6841 16.3269 13.0321 15.5562 13.8792C15.2932 14.1683 15.0019 14.5689 14.9089 14.7694C14.8159 14.97 14.595 15.284 14.4181 15.4673C14.2411 15.6506 13.98 16.0088 13.8377 16.2632C13.6954 16.5177 13.4322 16.9003 13.2527 17.1134C12.8127 17.6358 12.5204 18.8702 12.669 19.5784C13.037 21.3319 12.3673 26.0876 11.4769 28.0435C11.2188 28.6104 11.1845 28.781 11.208 29.381C11.2434 30.2893 11.3299 30.6903 11.6355 31.3637C11.9207 31.9921 12.3749 32.364 12.7338 32.2629C13.1194 32.1543 13.7817 31.6017 14.0134 31.1952C14.1349 30.9821 14.5235 29.7999 14.8769 28.5681C15.4542 26.5559 15.5662 26.2566 15.9794 25.6228C16.6074 24.6592 16.8776 24.4404 17.3079 24.5464C17.6081 24.6204 17.7025 24.7439 18.0235 25.4831C18.6784 26.9913 19.3254 28.1694 19.6305 28.4091C20.0988 28.7771 21.1362 28.9847 21.8401 28.8514C22.1731 28.7884 22.4605 28.6801 22.4786 28.6109C22.4966 28.5416 22.3411 28.3341 22.1329 28.1498C21.691 27.7585 21.0246 26.4338 20.8567 25.6131C20.6518 24.6111 20.9976 21.2832 21.4108 20.2804C21.7912 19.357 22.8387 18.7237 23.7686 18.8548C24.0859 18.8995 24.302 18.9821 24.3273 19.0683C24.3501 19.1457 24.4498 19.2289 24.5489 19.2533C24.788 19.3122 25.3006 20.2878 25.5021 21.0674C25.9285 22.7169 25.9283 22.7333 25.4604 24.5253C25.2246 25.4284 24.9863 26.1833 24.931 26.2027C24.8756 26.2222 24.8029 26.3468 24.7694 26.4795C24.7361 26.6122 24.538 27.0125 24.3296 27.369C24.1212 27.7254 23.9395 28.0623 23.9259 28.1176C23.8771 28.3159 24.384 28.3248 25.1343 28.1389C26.171 27.8821 26.5657 27.4313 27.1298 25.8604C27.6034 24.5411 27.6379 24.227 27.4286 23.1378C27.251 22.2134 26.1648 19.3103 25.7585 18.674C25.6128 18.4459 25.5635 17.7667 25.6799 17.5924C25.7751 17.45 25.7125 17.4208 25.1716 17.3556C23.6152 17.1678 23.291 16.9514 22.8086 15.7783C22.551 15.1517 22.5329 14.9987 22.656 14.4833C22.8212 13.7914 23.2418 13.2314 23.7946 12.9674C24.0037 12.8675 24.4134 12.6677 24.705 12.5233C25.6807 12.0403 26.2359 12.1115 27.4395 12.8741C28.2961 13.4169 28.5731 13.5259 28.7173 13.377C29.0928 12.9893 30.5684 13.0743 31.0997 13.5142C31.2983 13.6786 31.4523 13.6739 32.2445 13.479C33.0623 13.2777 33.2624 13.274 34.1228 13.4439C35.0221 13.6216 35.1175 13.6641 35.5644 14.0861C35.8419 14.3482 36.3554 15.0946 36.7868 15.863C37.3048 16.7856 37.6035 17.2047 37.7706 17.2433C38.1236 17.3249 38.6317 16.993 38.9991 16.441C39.3769 15.8735 39.9053 15.4334 40.1396 15.4912C40.3848 15.5516 40.6028 15.9575 40.5358 16.2292C40.5034 16.3606 40.2632 16.6306 40.0018 16.8293C39.7405 17.0279 39.5125 17.248 39.4952 17.3182C39.4424 17.5326 38.7589 18.0579 38.3417 18.2048C37.5055 18.4992 36.7606 17.979 36.313 16.7879C36.1209 16.2766 35.7961 15.7331 35.3991 15.2585C34.832 14.5807 34.735 14.5105 34.1755 14.3726C33.5122 14.2092 32.4227 14.2305 32.379 14.4078C32.3639 14.469 32.4783 14.6399 32.6332 14.7876C33.075 15.2092 33.404 15.9065 33.7532 17.161C33.9306 17.7983 34.1141 18.3611 34.1611 18.4117C34.2958 18.5565 34.4833 19.705 34.4466 20.1599C34.4282 20.3869 34.4153 20.8362 34.4179 21.1586C34.4237 21.9007 34.0561 24.6165 33.8203 25.5737C33.614 26.4108 33.4099 26.6932 32.6843 27.1449C31.8955 27.6359 30.652 27.5223 29.8849 26.889C29.4343 26.517 28.7631 25.4649 28.5805 24.8444C28.5109 24.6079 28.4285 24.4309 28.3974 24.451C28.3662 24.4711 28.2002 25.0109 28.0285 25.6505C27.8304 26.3883 27.6577 26.8513 27.556 26.9169C27.4679 26.9737 27.3614 27.1598 27.3194 27.3303C27.131 28.0948 26.1475 28.9031 25.2443 29.0357C25.0869 29.0588 24.8046 29.1156 24.617 29.1619C24.4294 29.2083 24.0358 29.187 23.7422 29.1147C23.2662 28.9974 23.1814 29.0124 22.9568 29.2535C22.8159 29.4048 22.3772 29.6161 21.9597 29.7336C21.2776 29.9256 21.1393 29.9245 20.3314 29.7208C19.6104 29.5391 19.3562 29.4209 18.9455 29.0765C18.3947 28.6147 17.7452 27.5031 17.3946 26.4222C17.2778 26.0622 17.1204 25.7767 17.0447 25.7878C16.9017 25.8086 16.6406 26.2606 16.1935 27.2614C16.0496 27.5835 15.7696 28.5409 15.5713 29.3892C15.1821 31.0537 14.8917 31.7394 14.3401 32.2961C13.7399 32.9018 12.6595 33.4014 12.1953 33.2879C11.8991 33.2156 10.9648 32.3832 10.8087 32.0529C10.666 31.7509 10.1708 29.7629 10.2044 29.6267C10.2177 29.5726 10.1818 29.5168 10.1246 29.5027C10.0674 29.4886 10.0755 29.2542 10.1426 28.9818C10.2352 28.6059 10.2227 28.4409 10.0906 28.2974C9.99483 28.1935 9.9373 28.0239 9.96275 27.9207C10.033 27.6357 9.79937 26.8615 9.40422 26.0697C9.20907 25.6786 9.06463 25.2969 9.08324 25.2214C9.10185 25.1458 9.02593 24.934 8.91453 24.7506C8.71611 24.4238 8.70791 24.4207 8.5116 24.5948C8.4014 24.6925 8.2936 24.844 8.27207 24.9314C8.25053 25.0188 7.77019 25.6585 7.20465 26.353C6.63912 27.0475 6.1641 27.6657 6.14905 27.7267C6.13401 27.7878 6.01983 27.9785 5.89531 28.1505C5.54051 28.6408 5.00095 29.4191 4.67272 29.9141C4.5077 30.163 4.30944 30.4424 4.23216 30.5351C4.15487 30.6278 4.06369 30.8159 4.02953 30.9531C3.90017 31.473 2.49077 33.705 1.92498 34.2862C1.53467 34.6871 1.56856 34.8014 2.1766 35.1352C3.07155 35.6265 3.27882 35.7541 4.04082 36.2831C4.48126 36.5889 5.13368 37.0643 5.49062 37.3395C5.84757 37.6147 6.35467 37.9746 6.61751 38.1392C8.35866 39.2297 10.6443 40.8389 10.8088 41.0901C10.8784 41.1964 11.0639 41.315 11.2211 41.3537C11.3783 41.3925 11.8479 41.6872 12.2647 42.0087C13.1874 42.7206 14.2957 43.5332 14.4302 43.5963C14.4846 43.6219 14.6726 43.7655 14.848 43.9155C15.0234 44.0654 15.6608 44.5012 16.2644 44.8837C16.8679 45.2663 17.4447 45.6457 17.5461 45.7267C18.0238 46.1088 19.2424 46.8991 20.1621 47.4235C20.7207 47.742 21.3091 48.1208 21.4696 48.2652C21.6301 48.4097 22.2732 48.8096 22.8986 49.1539C23.5241 49.4982 24.0524 49.8093 24.0727 49.8451C24.093 49.881 24.2384 49.9421 24.3959 49.9809C24.6459 50.0425 24.7188 49.9899 24.97 49.5667ZM11.4103 25.6278C11.4486 25.4726 11.3491 25.3723 11.1813 25.3967C11.0934 25.4095 11.0364 25.4708 11.0547 25.5329C11.0966 25.6754 11.38 25.751 11.4103 25.6278ZM23.4596 27.2377C23.6604 26.9365 23.9577 26.3912 24.1203 26.026C24.4426 25.3019 24.9117 23.5314 24.9699 22.8197C25.0156 22.26 24.6751 21.0487 24.2492 20.2566C23.9582 19.7153 23.8881 19.652 23.5683 19.6416C23.1008 19.6263 22.5789 19.9571 22.3018 20.4445C21.7226 21.4633 21.4188 24.6438 21.792 25.7808C22.0727 26.6358 22.6935 27.665 22.9804 27.7511C23.0432 27.7699 23.2588 27.5389 23.4596 27.2377ZM32.2654 26.511C32.8024 26.251 32.9833 25.8358 33.2562 24.2371C33.773 21.2096 33.8332 20.0293 33.5182 19.0953C33.3939 18.7264 33.1874 18.0231 33.0594 17.5323C32.8047 16.5557 32.2778 15.6319 31.6456 15.0538L31.2389 14.6818L30.5492 14.9561C30.1698 15.107 29.8497 15.2697 29.8379 15.3177C29.8261 15.3657 29.8644 15.6133 29.923 15.8678C29.9817 16.1223 30.0105 16.4082 29.9871 16.5032C29.9638 16.5981 29.9878 16.7522 30.0406 16.8457C30.1124 16.9727 29.9635 17.7187 29.4519 19.7948C28.6429 23.0785 28.6415 23.0165 29.561 24.9067C30.0665 25.9457 30.1744 26.0913 30.5947 26.3016C31.2192 26.614 31.8813 26.697 32.2654 26.511ZM28.6316 19.6448C29.2772 17.1302 29.3732 16.3444 29.0852 15.9303C28.9401 15.7216 28.3303 15.907 27.3367 16.4619L26.5879 16.8801L26.5044 17.5077C26.4125 18.1985 26.5202 18.6408 27.1272 20.0641C27.3418 20.5673 27.6035 21.2229 27.7088 21.5209C27.8141 21.8189 27.9234 22.0694 27.9517 22.0775C27.98 22.0858 28.286 20.991 28.6316 19.6448ZM25.6181 16.3243C26.1055 16.2059 26.1598 16.1589 26.3237 15.7134C26.4213 15.4479 26.7302 14.9497 27.0102 14.6063C27.2901 14.2629 27.527 13.9502 27.5366 13.9113C27.5599 13.8167 26.4997 13.3002 26.0595 13.1917C25.2996 13.0045 23.9678 13.5984 23.5921 14.2922C23.4164 14.6167 23.4115 14.7297 23.5535 15.1889C23.844 16.1285 23.873 16.1628 24.5069 16.3137C24.8902 16.4048 25.271 16.4086 25.6181 16.3243ZM28.546 14.964C28.5637 14.8922 28.4862 14.7684 28.3738 14.689C28.1676 14.5432 27.9363 14.6824 27.6498 15.1246C27.5509 15.2772 27.5872 15.2839 28.0271 15.194C28.2948 15.1393 28.5283 15.0358 28.546 14.964ZM29.9707 14.3309L30.2829 14.1154L29.8744 14.0164C29.3803 13.897 29.1204 13.9744 29.1478 14.2332C29.1785 14.5222 29.6179 14.5744 29.9707 14.3309ZM19.4192 5.51174C19.3427 5.37652 19.426 5.1235 19.538 5.15108C19.5916 5.1643 19.604 5.27263 19.5655 5.39182C19.4864 5.63672 19.4887 5.63478 19.4192 5.51174Z" fill="black"/>
</svg>
