<svg width="246" height="186" viewBox="0 0 246 186" fill="none" xmlns="http://www.w3.org/2000/svg">
<path d="M46.6957 160.047C46.3811 159.773 46.0151 159.215 45.8824 158.807C45.6814 158.189 45.7173 158.018 46.0979 157.784C46.5099 157.53 46.6746 157.599 47.7806 158.486C49.3545 159.747 52.6016 161.344 54.1128 161.6C54.7598 161.709 55.9983 161.779 56.865 161.756C57.7317 161.732 58.6759 161.708 58.9634 161.702C59.2508 161.696 60.389 161.472 61.4929 161.204C62.5968 160.937 64.0923 160.589 64.8162 160.431C68.777 159.569 73.5972 157.769 75.8351 156.316C76.3888 155.957 77.1042 155.569 77.4251 155.455C78.1694 155.191 80.8604 152.959 84.2714 149.778C86.428 147.767 89.9084 142.883 89.6474 142.235C89.5206 141.919 90.0233 141.25 90.3359 141.318C90.7289 141.405 91.5354 139.921 92.6665 137.032C94.0228 133.567 94.8459 130.11 94.8149 128.01C94.7832 125.851 94.7905 125.415 94.8906 123.519C94.9414 122.556 94.8041 121.704 94.5046 121.125C94.249 120.631 93.9714 119.883 93.8876 119.465C93.741 118.731 93.5898 118.485 92.5262 117.255C92.0701 116.728 91.9776 116.723 91.1009 117.185C89.6648 117.941 88.0274 118.16 85.1292 117.981C82.9273 117.845 82.1729 117.679 80.6334 116.992C79.6158 116.539 78.2276 115.945 77.5481 115.674C76.8688 115.403 75.3998 114.612 74.2839 113.915C73.1678 113.219 72.1665 112.647 72.0583 112.644C71.9502 112.641 71.9172 112.897 71.9837 113.211C72.1531 114.006 71.5518 115.325 67.6804 122.655C64.1388 129.361 63.1724 131.129 62.9995 131.222C62.8928 131.28 62.4403 132.06 61.9931 132.955C61.0145 134.915 57.5661 140.502 51.4449 150.043C46.7024 157.436 46.3106 157.932 45.9431 156.972C45.8162 156.64 46.664 155.24 52.3837 146.336C56.0066 140.696 59.4179 135.315 59.9645 134.378C63.5775 128.186 65.753 124.363 65.7673 124.18C65.7834 123.976 66.3578 122.839 68.8303 118.115C69.4611 116.909 70.1245 115.434 70.3045 114.835C70.4844 114.237 70.8262 113.449 71.0639 113.084C71.5786 112.294 71.4464 112.032 70.0883 111.147C68.4565 110.083 65.3123 107.049 63.0207 104.327C61.8925 102.986 60.8333 101.016 60.7449 100.094C60.7101 99.7301 60.5766 99.3641 60.4483 99.2805C60.32 99.1969 60.2741 98.626 60.3463 98.012C60.4721 96.9416 60.4452 96.8818 59.6965 96.5667C58.845 96.2084 56.1509 96.0292 54.4994 96.2211C53.0594 96.3885 50.176 97.5763 48.3924 98.7369C47.5716 99.271 45.8227 100.62 44.506 101.734C40.2089 105.372 37.0448 109.673 34.9653 114.706C33.4495 118.374 33.0929 119.4 32.5081 121.774C31.7845 124.712 30.9634 127.806 30.5858 129.019C30.422 129.545 30.3429 130.552 30.4101 131.256C30.4773 131.959 30.5121 132.985 30.4875 133.535C30.4233 134.969 31.2296 139.717 31.8303 141.442C32.9413 144.633 35.2208 148.128 37.9934 150.89C38.772 151.666 39.976 152.864 40.6688 153.552C42.0683 154.943 43.1402 155.688 44.4626 156.188C45.493 156.578 45.7836 157.151 45.2225 157.685C44.8788 158.012 44.7081 157.936 42.4616 156.454C39.5668 154.544 37.6417 152.683 34.5512 148.807C31.8058 145.364 30.0519 141.586 29.5218 137.972C29.3499 136.8 29.2276 136.518 28.9606 136.676C28.439 136.984 22.9589 137.712 20.3039 137.825C14.9947 138.052 13.1807 137.818 11.4476 136.685C10.496 136.063 10.2124 134.863 10.7809 133.866C11.5434 132.53 14.2389 131.097 17.9747 130.043C21.8581 128.947 24.0815 128.669 27.0972 128.899C28.7305 129.024 29.2829 128.97 29.3455 128.677C29.3912 128.464 29.5848 127.73 29.7759 127.047C29.9672 126.363 30.3265 124.878 30.5746 123.747C31.1105 121.304 32.3034 117.558 33.3644 114.985C34.224 112.901 34.3249 112.691 35.5983 110.343C36.1003 109.417 36.4525 108.622 36.3811 108.575C36.3096 108.529 35.7399 108.616 35.1151 108.77C34.0999 109.019 24.6607 108.578 24.1702 108.258C24.0679 108.192 22.5895 108.105 20.8847 108.066C16.5505 107.966 15.2659 107.255 15.9433 105.331C16.4233 103.967 18.2061 103.052 22.0929 102.172C25.9588 101.297 27.0601 101.185 30.6501 101.301C32.2057 101.351 33.6707 101.319 33.9058 101.231C34.1409 101.142 34.4192 101.125 34.5242 101.194C34.6295 101.262 34.933 101.27 35.1993 101.21C35.6068 101.119 39.6154 102.161 40.1186 102.489C40.2077 102.547 40.1611 102.778 40.0149 103.002C39.662 103.544 38.7612 103.552 37.6275 103.024C36.5445 102.52 35.2237 102.351 33.8322 102.536C33.2852 102.61 31.7013 102.621 30.3126 102.563C27.2411 102.433 26.7724 102.472 23.7326 103.112C18.8554 104.138 17.0739 104.874 17.1268 105.84C17.143 106.136 17.3544 106.332 17.8343 106.494C18.528 106.729 21.9764 106.911 23.321 106.784C23.7247 106.745 24.1591 106.782 24.2862 106.865C24.4135 106.948 25.4173 107.081 26.5172 107.162C27.6171 107.243 29.3401 107.395 30.3462 107.501C31.3523 107.608 32.8125 107.641 33.5911 107.575C34.3696 107.509 35.5102 107.493 36.1258 107.54C37.3328 107.632 37.2266 107.71 39.2207 105.283C39.7396 104.652 40.2413 103.987 40.3351 103.805C40.8755 102.763 46.8465 97.6878 48.4258 96.9292C51.0002 95.6925 53.2259 94.875 54.4834 94.7044C56.5702 94.4212 59.8716 94.7039 60.3061 95.203C60.7189 95.6775 61.0197 95.3712 61.01 94.4864C61.0064 94.1419 61.308 93.4397 61.7642 92.7321C62.6012 91.4322 63.5622 89.2609 63.3579 89.1277C63.2864 89.0811 63.1586 88.7994 63.0739 88.5017C62.7773 87.4599 61.4602 84.0705 61.3151 83.9757C61.2346 83.9231 61.0581 83.3452 60.9231 82.6916C60.788 82.038 60.6151 81.4625 60.5388 81.4128C60.4623 81.3629 60.4363 80.9493 60.4806 80.4933C60.525 80.0373 60.4724 79.6063 60.3639 79.5356C60.2554 79.4648 60.2061 78.9073 60.2544 78.2966C60.3027 77.6858 60.2881 77.1474 60.2221 77.1C60.0941 77.0077 58.3091 77.8575 57.3563 78.4642C57.0398 78.6659 56.4122 78.852 55.962 78.878C55.5117 78.9039 54.9391 79.0826 54.6894 79.2751C54.0741 79.7498 53.0423 79.7811 52.1025 79.3537C51.3938 79.0314 51.3261 78.9124 51.3483 78.0276C51.3617 77.4929 51.3247 76.934 51.2659 76.7854C51.0721 76.2952 50.1314 72.5875 49.8113 71.0516C49.32 68.6948 48.8435 66.7391 48.6012 66.0848C48.4601 65.7039 48.5092 65.2887 48.7362 64.9441C49.0919 64.4028 49.7875 64.1355 56.7103 61.8726C58.1143 61.4137 59.8897 60.7854 60.6557 60.4765C62.7478 59.6325 65.6306 58.8407 67.4531 58.6094C69.0208 58.4105 69.1083 58.43 69.9447 59.1653C71.34 60.3919 71.4329 60.7305 73.207 71.0557C73.4959 72.7372 73.4839 73.1425 73.1385 73.3621C72.908 73.5086 72.6827 73.7618 72.6376 73.9246C72.4392 74.6418 68.2849 76.1722 66.9265 76.0285C65.9635 75.9267 65.5078 76.1286 65.9904 76.4432C66.2669 76.6234 67.4648 80.8784 67.5632 82.0299C67.5963 82.417 67.7469 83.3093 67.8979 84.0128C68.1724 85.2918 68.1725 85.2918 68.8713 85.1069C71.2327 84.4821 74.4414 84.2635 75.6613 84.6444C76.1103 84.7846 76.295 84.7223 76.3974 84.3964C76.4726 84.157 76.9548 83.6601 77.4688 83.292C77.9829 82.9239 78.7375 82.3775 79.1457 82.0779C80.1294 81.3556 84.549 79.6756 85.3929 79.7031C86.1127 79.7266 86.3061 79.5708 86.272 78.9953C86.1189 76.4165 86.7008 74.4221 88.0891 72.7671C89.2986 71.3251 89.9925 71.0183 91.1308 71.4216C92.2289 71.8108 92.5194 72.1922 92.4952 73.2127C92.4756 74.0342 91.9075 74.901 91.0184 75.463C90.6333 75.707 89.9677 76.3577 89.5392 76.9089C88.8267 77.8256 88.7712 77.999 88.8906 78.9438C89.021 79.9766 89.021 79.9766 90.3817 80.1312C91.6312 80.2732 91.9722 80.4338 94.5521 82.0942C97.3105 83.8695 97.3667 83.9197 97.6345 84.8486C97.9073 85.7948 97.9073 85.7948 98.8531 85.5894C99.6728 85.4115 99.9052 85.2341 100.595 84.2605C101.034 83.6427 101.661 82.6 101.988 81.9426C102.315 81.2857 102.777 80.5935 103.014 80.4047C103.68 79.8718 104.503 80.2612 105.169 81.4239C105.663 82.287 105.7 82.5958 105.424 83.5862C105.004 85.0971 104.596 85.6879 103.653 86.1473C103.227 86.3547 102.557 86.7581 102.165 87.0437C101.772 87.3292 100.824 87.7962 100.059 88.0813C98.7178 88.5812 98.6712 88.6207 98.7508 89.1898C98.7962 89.5144 98.7652 90.2428 98.682 90.8085C98.5986 91.3742 98.5981 91.9427 98.6807 92.0718C98.7633 92.2009 98.6296 92.827 98.3837 93.4632C98.1377 94.0993 97.9768 94.7199 98.026 94.8422C98.075 94.9643 97.9267 95.2641 97.6958 95.5078C97.4651 95.7516 97.0886 96.1497 96.8588 96.3922C96.4941 96.7777 96.5206 96.9781 97.0694 97.9795C97.7699 99.2579 98.4567 103.745 98.2131 105.452C98.1341 106.006 98.1236 106.495 98.19 106.538C98.2565 106.582 98.7366 106.333 99.2573 105.985C100.505 105.152 104.726 103.732 106.647 103.499C107.487 103.398 108.405 103.274 108.689 103.226C108.972 103.177 109.364 103.241 109.56 103.369C109.755 103.496 110.286 103.631 110.738 103.668C111.477 103.729 111.608 103.812 112.014 104.472C112.853 105.838 111.551 107.726 108.784 109.155C106.692 110.235 105.929 110.48 102.87 111.055C101.569 111.299 99.7517 111.693 98.8313 111.931C97.4094 112.298 97.0947 112.295 96.738 111.912C96.3183 111.461 96.3182 111.461 95.0748 113.089C94.3908 113.985 93.6611 114.888 93.453 115.096C93.1361 115.412 93.1626 115.562 93.6223 116.023C94.2017 116.604 95.1679 118.453 95.9135 120.408C96.3964 121.674 96.5778 123.695 96.2532 124.193C96.1433 124.362 96.1434 124.83 96.253 125.234C96.7506 127.064 95.9689 132.326 94.7384 135.429C94.2326 136.705 94.2327 136.705 95.1819 137.211C96.155 137.729 97.027 138.312 101.676 141.549C104.184 143.296 104.407 143.505 105.218 144.872C107.779 149.186 108.16 151.149 106.773 152.884C106.38 153.375 105.944 153.808 105.805 153.847C105.245 154.001 102.88 153.088 101.5 152.186C100.158 151.308 93.4018 145.979 91.6201 144.394C90.9011 143.754 90.838 143.744 90.3808 144.192C90.1158 144.452 89.7517 145 89.5732 145.411C89.0931 146.505 86.2057 149.882 84.3911 151.472C84.0736 151.75 83.3615 152.41 82.8083 152.939C81.5592 154.132 79.3892 155.824 78.3172 156.441C77.8725 156.697 77.5218 156.938 77.5378 156.977C77.7322 157.453 78.7889 158.859 79.5235 159.619C80.9001 161.045 81.353 161.668 81.3808 162.177C81.4027 162.574 82.9886 165.696 83.5104 166.369C83.8273 166.778 84.7204 171.63 84.6025 172.302C84.5167 172.792 84.2858 173.137 83.5971 173.803C82.4119 174.954 81.2356 174.947 79.4664 173.779C78.4031 173.076 78.1605 172.773 77.3982 171.18C76.9234 170.188 76.4721 169.015 76.3954 168.574C76.3187 168.132 76.1104 167.676 75.9325 167.56C75.7545 167.444 75.2616 166.676 74.8369 165.853C74.4122 165.029 73.851 164.126 73.5896 163.845C73.3282 163.564 73.1043 163.151 73.0921 162.927C73.0798 162.703 72.779 162.153 72.4236 161.705C72.0681 161.257 71.7683 160.722 71.757 160.516C71.7418 160.238 70.8288 160.399 68.1888 161.146C66.2375 161.697 63.8116 162.33 62.7979 162.552C61.7841 162.774 60.8621 163.024 60.749 163.108C60.556 163.252 58.7392 163.452 57.6863 163.446C57.4271 163.444 56.5935 163.444 55.8341 163.446C54.0239 163.45 52.4317 163.02 50.1394 161.908C49.1094 161.408 48.0417 160.897 47.7666 160.772C47.4914 160.646 47.0103 160.321 46.6957 160.047ZM16.6198 136.639C20.2326 136.656 26.2568 136.171 27.7275 135.745C29.1311 135.338 29.1311 135.338 29.1527 133.788C29.1802 131.81 29.0504 130.541 28.8041 130.381C28.4051 130.121 25.5854 130.01 23.478 130.17C21.2087 130.342 15.9745 131.694 14.4646 132.497C13.9865 132.751 13.1881 133.252 12.6902 133.611C11.9183 134.167 11.789 134.337 11.8124 134.765C11.8351 135.18 12.0707 135.384 13.1721 135.948C14.2719 136.51 14.8731 136.631 16.6198 136.639ZM81.0474 173.061C81.8145 173.379 82.5574 173.077 83.1152 172.221C83.5045 171.624 82.8965 168.351 82.108 166.8C80.2528 163.149 79.9261 162.547 79.7208 162.401C79.5987 162.315 79.5522 162.162 79.6173 162.063C79.8092 161.768 79.1226 160.878 77.5092 159.331C76.5562 158.417 75.9234 157.94 75.8025 158.043C75.6969 158.133 75.1463 158.393 74.5793 158.621C73.3904 159.097 73.0965 159.432 73.4527 159.902C73.5916 160.086 74.1748 161.205 74.7486 162.389C75.3225 163.573 76.1719 165.066 76.6362 165.706C77.1006 166.346 77.7365 167.7 78.0494 168.716C78.9629 171.68 79.4637 172.406 81.0474 173.061ZM104.623 152.257C105.232 152.512 105.326 152.472 105.783 151.771C106.151 151.206 106.242 150.781 106.132 150.14C105.95 149.078 104.03 145.205 103.3 144.426C102.805 143.899 96.4093 139.325 95.34 138.733C95.0788 138.587 94.637 138.34 94.3605 138.181C93.8013 137.86 93.8876 137.735 92.4205 140.98C91.7543 142.453 91.7543 142.453 92.5581 143.206C96.0171 146.447 102.678 151.444 104.623 152.257ZM77.9357 114.483C78.6572 114.799 79.9108 115.349 80.7213 115.707C82.1715 116.345 83.1184 116.521 85.3949 116.573C86.0276 116.587 86.6314 116.646 86.7366 116.703C86.841 116.762 87.6345 116.709 88.498 116.588C90.1493 116.357 91.9781 115.401 92.2161 114.643C92.2897 114.408 92.574 114.078 92.8479 113.91C93.2187 113.682 93.3316 113.51 93.2907 113.235C93.2512 112.966 93.1616 112.905 92.9586 113.011C92.5666 113.215 87.3255 114.93 85.7864 115.357C85.0821 115.553 84.1044 115.754 83.6135 115.804C82.7925 115.887 82.73 115.859 82.8336 115.455C82.9115 115.151 83.2178 114.96 83.8297 114.834C84.3156 114.734 85.6959 114.302 86.8972 113.872C91.5643 112.204 93.2907 111.72 93.6783 111.973C94.0323 112.204 94.1527 112.101 95.0933 110.765C95.9196 109.591 96.0689 109.27 95.8553 109.131C95.709 109.035 94.136 109.432 92.3599 110.012C90.5837 110.592 88.4122 111.267 87.5342 111.512C86.6562 111.757 84.427 112.519 82.5804 113.206C79.3451 114.409 78.4255 114.516 78.6439 113.664C78.6957 113.462 79.3119 113.14 80.0825 112.912C80.8239 112.693 81.9165 112.301 82.5104 112.042C83.1043 111.782 85.4044 111.027 87.6218 110.364C89.8391 109.701 92.7586 108.784 94.1095 108.327C96.3592 107.566 96.5762 107.443 96.6908 106.863C96.8521 106.048 96.6458 105.933 95.71 106.317C95.2917 106.489 92.1982 107.416 88.8355 108.377C85.4728 109.338 82.2683 110.358 81.7144 110.643C81.1605 110.927 80.2231 111.415 79.6313 111.727C78.9335 112.094 78.4621 112.199 78.2902 112.025C77.8165 111.547 78.4214 110.886 79.9244 110.239C82.3453 109.197 82.9789 108.981 87.2094 107.757C92.0418 106.359 95.5372 105.244 96.2946 104.861C96.7898 104.61 96.8388 104.498 96.7852 103.745C96.7253 102.908 96.7253 102.908 94.1508 103.67C84.5492 106.511 82.2709 107.264 76.9129 109.368C73.7647 110.604 72.619 111.134 72.6012 111.361C72.5822 111.604 76.2117 113.727 77.9357 114.483ZM72.0904 110.713C72.1581 110.609 72.1376 110.42 72.0451 110.294C71.9382 110.148 72.3068 109.908 73.0552 109.639C73.7035 109.406 76.0132 108.545 78.1879 107.726C80.3625 106.907 84.027 105.676 86.3313 104.991C88.6355 104.305 91.5809 103.342 92.8765 102.851C94.1721 102.359 95.4932 101.933 95.8121 101.903C96.3922 101.849 96.3921 101.849 96.2896 100.831C96.1132 99.08 95.6262 97.8167 94.9575 97.3754C94.7443 97.235 94.2578 96.7193 93.8763 96.23C92.8975 94.9746 91.4893 94.084 91.1956 94.5346C91.0725 94.7235 90.1321 95.1364 89.1059 95.4521C84.6875 96.8112 76.6196 99.8366 73.9126 101.149C73.2016 101.494 71.2288 102.192 69.5286 102.7C66.8295 103.507 65.5065 104.095 65.1468 104.647C65.0245 104.835 66.3625 106.256 68.1257 107.812C68.8442 108.446 69.4426 109.036 69.4553 109.122C69.4982 109.414 71.9659 110.904 72.0904 110.713ZM67.5107 105.928C67.1212 105.337 67.7263 104.795 68.9636 104.627C69.4963 104.555 70.8764 104.055 72.0305 103.516C75.0617 102.102 78.6085 100.755 81.6407 99.8673C83.0955 99.4416 84.8584 98.8713 85.5583 98.6C86.2582 98.3288 86.9906 98.0788 87.1859 98.0444C87.3812 98.0101 87.9473 97.7839 88.4439 97.5418C89.9036 96.8301 90.9819 96.551 91.3485 96.7899C91.6207 96.9672 91.6022 97.0909 91.2587 97.392C90.5932 97.9758 88.4213 98.6822 88.0343 98.4407C87.7669 98.2739 87.6939 98.3175 87.7114 98.6334C87.729 98.9529 86.8387 99.3131 83.6078 100.294C78.4933 101.846 72.8716 103.941 72.5675 104.408C72.4897 104.527 69.1571 105.898 67.986 106.293C67.8805 106.329 67.6665 106.164 67.5107 105.928ZM71.1552 107.238C71.0605 106.593 71.9576 106.102 75.5283 104.847C76.6561 104.451 78.847 103.63 80.397 103.024C81.947 102.418 83.9454 101.737 84.8379 101.51C85.7304 101.284 87.6237 100.666 89.0452 100.138C95.0725 97.8976 95.0948 97.8926 95.1432 98.7751C95.1605 99.0933 94.7054 99.3191 93.0808 99.7989C91.9342 100.137 90.9463 100.491 90.8855 100.584C90.8246 100.677 88.789 101.36 86.3618 102.101C82.1658 103.381 76.5281 105.476 74.0752 106.665C72.0725 107.636 71.2376 107.8 71.1552 107.238ZM64.4937 103.495C64.5686 103.203 65.5581 102.808 67.9208 102.128C69.7478 101.603 72.7421 100.55 74.5747 99.7884C78.7229 98.0653 86.4296 95.235 89.0934 94.4564C90.1959 94.1341 91.0859 93.7885 91.0712 93.6882C91.0288 93.4001 87.2151 90.9404 86.0281 90.4357C85.4375 90.1845 84.5524 89.8028 84.0612 89.5874C83.1166 89.1731 82.9985 89.1954 77.7964 90.7702C73.3128 92.1275 64.3671 95.6025 62.4129 96.7459C61.8987 97.0469 61.8143 97.1752 61.8115 97.6584C61.8091 98.2033 61.8397 98.2137 62.7715 97.9849C64.1868 97.6374 68.9833 95.7702 71.8985 94.4319C75.5157 92.7714 76.8257 92.2938 82.3815 90.61C83.5307 90.2617 84.3274 90.4304 84.2818 91.0123C84.2698 91.1679 83.42 91.5067 82.3937 91.7654C78.4371 92.763 74.0883 94.3415 71.6478 95.6659C70.9154 96.0633 63.4123 99.0173 62.77 99.1611C62.1659 99.2963 62.1414 99.3285 62.1975 99.9124C62.2821 100.794 63.5671 103.227 64.2432 103.786C64.3235 103.851 64.4358 103.721 64.4937 103.495ZM64.8483 99.93C65.0367 99.6409 65.5174 99.3261 65.9169 99.2305C66.3163 99.1348 67.4962 98.6868 68.5391 98.2351C73.5569 96.0614 86.249 91.997 86.8322 92.3771C86.9562 92.4579 86.9179 92.7385 86.7471 93.0005C86.5309 93.3324 85.4481 93.7421 83.1811 94.35C81.3906 94.8302 79.8318 95.1619 79.7171 95.0871C79.6024 95.0123 79.4305 95.0657 79.335 95.2055C79.2406 95.3459 78.0914 95.7849 76.7834 96.1824C75.4755 96.5798 73.5182 97.288 72.434 97.756C67.9749 99.6809 65.89 100.62 65.6408 100.816C65.4957 100.93 65.1812 100.896 64.9415 100.739C64.5959 100.514 64.5768 100.347 64.8483 99.93ZM69.0751 92.8536C71.6644 91.8742 74.9354 90.6998 76.344 90.2439C77.7526 89.788 79.3517 89.2432 79.8976 89.0332C80.4434 88.8232 80.9717 88.6606 81.0715 88.6717C82.342 88.8136 78.0474 86.5585 76.4746 86.258C76.0355 86.1741 75.5243 86.2387 75.3385 86.4016C75.1528 86.5645 74.6182 86.7689 74.1505 86.8559C73.6828 86.9428 72.3545 87.3662 71.1987 87.7966C70.0429 88.2271 68.8843 88.5992 68.624 88.6235C68.3638 88.6478 67.4801 89.103 66.6603 89.6351C65.8405 90.1671 65.064 90.5335 64.9348 90.4492C64.6373 90.2554 63.6983 91.3351 63.4967 92.1026C63.4128 92.4221 63.1022 93.055 62.8064 93.5088C62.5106 93.9627 62.2325 94.5972 62.1884 94.9188C62.1102 95.4907 62.1334 95.4939 63.2377 95.0691C63.859 94.8301 66.4858 93.8331 69.0751 92.8536ZM64.036 92.9722C64.0865 92.7753 64.3688 92.4658 64.6633 92.2845C65.2586 91.918 70.7419 89.73 70.9983 89.7567C71.0877 89.7659 72.1392 89.3932 73.3349 88.9284C76.2452 87.7969 78.0731 87.2564 78.359 87.4427C78.8206 87.7436 77.9651 88.528 76.7666 88.903C76.0963 89.1126 74.9772 89.5074 74.2799 89.7803C73.5825 90.0531 72.1181 90.5535 71.0258 90.8923C69.9335 91.231 68.0142 91.997 66.7608 92.5944C64.5714 93.638 63.8393 93.7396 64.036 92.9722ZM97.8867 110.144C98.0302 109.924 98.0657 109.69 97.9654 109.625C97.8652 109.559 97.6284 109.744 97.4392 110.034C97.2441 110.333 97.2101 110.558 97.3605 110.553C97.5062 110.548 97.7432 110.364 97.8867 110.144ZM65.7454 87.009C66.693 86.063 66.7373 85.9794 66.6402 85.3172C66.5839 84.934 66.4831 84.6435 66.416 84.6716C66.3489 84.6998 65.7068 84.9557 64.9892 85.2404C63.6844 85.7582 63.6844 85.7582 64.0704 86.8745C64.2828 87.4886 64.5223 87.9939 64.6025 87.9976C64.6828 88.0011 65.1971 87.5563 65.7454 87.009ZM102.556 109.782C104.253 109.508 104.614 109.343 106.668 107.906C107.906 107.039 109.167 106.129 109.471 105.882C109.775 105.636 110.156 105.52 110.317 105.625C110.478 105.73 110.649 105.676 110.698 105.506C110.914 104.75 108.965 104.604 108.279 105.326C107.734 105.899 106.834 106.52 104.607 107.862C103.863 108.31 103.172 108.802 103.072 108.956C102.807 109.362 102.049 109.441 101.816 109.088C101.667 108.863 101.723 108.719 102.031 108.534C102.259 108.396 103.065 107.828 103.823 107.271C104.58 106.714 105.718 105.962 106.352 105.6C107.92 104.704 107.991 104.48 106.639 104.69C105.798 104.82 105.335 105.049 104.888 105.556C104.045 106.512 103.115 107.264 100.582 109.034C98.9966 110.142 98.841 110.401 99.8675 110.224C100.323 110.146 101.533 109.947 102.556 109.782ZM67.5401 87.9451C68.3023 87.601 69.8764 87.0308 71.0381 86.6781C74.3828 85.6623 73.5208 85.3389 69.9305 86.2625C68.1416 86.7226 67.238 87.1555 66.2726 88.0148C65.5715 88.6387 66.0636 88.6117 67.5401 87.9451ZM100.238 108.341C100.773 107.867 101.33 107.391 101.475 107.283C101.62 107.175 101.652 107.031 101.549 106.964C101.446 106.897 101 107.102 100.56 107.421C100.119 107.74 99.5783 108.114 99.3582 108.251C99.1381 108.388 98.7934 108.758 98.5922 109.074C98.2466 109.62 98.2527 109.636 98.7454 109.426C99.0308 109.304 99.7025 108.816 100.238 108.341ZM64.8209 84.2832C66.1794 83.6212 66.3568 83.1664 66.0286 81.1872C65.8684 80.2216 65.6859 79.4489 65.6229 79.4701C64.9832 79.6845 63.4599 80.9379 62.9118 81.701C61.8974 83.1131 62.4375 83.2363 64.0086 81.9512C65.491 80.7386 65.6728 80.6579 65.6473 81.2239C65.623 81.7623 64.8218 82.7019 63.7887 83.4033C62.985 83.949 62.9801 83.9588 63.172 84.6196C63.3398 85.1971 63.4015 85.2488 63.6351 85.0078C63.7833 84.8547 64.3171 84.5288 64.8209 84.2832ZM55.0311 77.6028C56.0734 77.1911 57.5636 76.6506 58.3426 76.4017C59.4703 76.0413 59.7738 75.8498 59.8322 75.4622C59.8726 75.1945 60.0803 74.5834 60.2939 74.1042C60.6506 73.3044 60.7761 73.21 61.8274 72.9518C62.8878 72.6914 63.037 72.7219 63.8437 73.3649C64.323 73.7468 64.808 74.2145 64.9217 74.4042C65.1819 74.8382 70.2429 73.4623 71.1419 72.7131C71.6907 72.2559 71.7267 72.113 71.5801 70.9785C70.8852 65.603 69.4973 60.8018 68.439 60.1121C68.1234 59.9064 67.5549 59.9406 66.6846 60.2177C65.9765 60.4432 64.939 60.6884 64.379 60.7626C62.6087 60.9974 61.3794 61.4235 61.2459 61.8485C61.166 62.1025 60.5156 62.4455 59.4661 62.787C58.5564 63.0831 57.2857 63.5571 56.6422 63.8405C55.9987 64.1239 54.4144 64.725 53.1213 65.1764C50.1567 66.2112 49.9461 66.3163 50.1746 66.6472C50.2727 66.7893 50.5227 67.6598 50.7301 68.5815C50.9375 69.5032 51.4185 71.4816 51.7989 72.9778C52.1794 74.4741 52.5778 76.2575 52.6844 76.9408C52.7909 77.6242 52.936 78.2211 53.0069 78.2673C53.0777 78.3135 53.9887 78.0145 55.0311 77.6028ZM64.7278 71.9865C64.3023 71.141 63.1088 66.8215 62.66 64.5024C62.4813 63.5792 62.4813 63.5792 63.4592 62.8191C63.9972 62.4013 64.6756 61.7778 64.9672 61.434C65.2894 61.0539 65.747 60.7936 66.1344 60.77C66.7231 60.7341 66.7882 60.7896 66.9904 61.5006C67.1107 61.9238 67.7792 63.8139 68.4758 65.7008C69.1724 67.5878 69.8544 69.7383 69.9914 70.4796C70.2404 71.8275 70.2404 71.8275 69.5637 72.1311C69.1913 72.298 68.7799 72.369 68.649 72.2888C68.5182 72.208 68.0485 72.3471 67.6055 72.5967C66.9469 72.9677 66.1175 73.0926 65.3133 72.942C65.2497 72.93 64.9863 72.5001 64.7278 71.9865ZM67.1702 71.0404C67.6427 70.7018 68.1121 70.4787 68.2134 70.5447C68.3146 70.6107 68.4263 70.5608 68.4614 70.4337C68.5631 70.0674 67.0138 65.1343 66.4718 64.0982C66.2017 63.582 66.0359 63.0751 66.1032 62.9718C66.3491 62.5945 65.9054 62.5948 65.3662 62.9723C64.2818 63.7315 64.0233 64.4384 64.4262 65.5423C64.6307 66.1027 64.8757 66.936 64.9706 67.394C65.429 69.6064 65.9239 71.4037 66.1075 71.5234C66.2194 71.5963 66.6977 71.379 67.1702 71.0404ZM62.7246 80.2966C64.5705 78.9227 65.247 78.2521 65.2233 77.8195C65.1883 77.1823 64.7613 77.014 64.562 77.5589C64.4601 77.8373 63.8898 78.2963 63.1466 78.6981C62.462 79.0682 61.8622 79.4319 61.8137 79.5064C61.7216 79.6476 61.7916 80.7598 61.8969 80.8284C61.9302 80.85 62.3025 80.6106 62.7246 80.2966ZM62.5839 77.9905C63.1034 77.815 63.6687 77.4561 63.8403 77.1929C64.0118 76.9297 64.2031 76.6517 64.2638 76.5741C64.3246 76.4965 64.3086 76.3429 64.2273 76.2319C64.1461 76.1212 64.0037 76.147 63.911 76.2893C63.8182 76.4316 63.5388 76.6241 63.2896 76.717C62.7889 76.9038 61.373 78.1359 61.5366 78.2425C61.5933 78.2795 62.0644 78.1659 62.5839 77.9905ZM62.6149 76.2921C63.6819 75.6081 63.8277 75.4249 63.218 75.5339C62.702 75.6262 61.569 76.2991 61.3412 76.6485C61.0787 77.0513 61.703 76.8769 62.6149 76.2921ZM62.0948 75.2148C62.8653 74.8688 62.9796 74.4709 62.3612 74.2866C62.0537 74.195 61.8138 74.3308 61.5393 74.752C61.0671 75.4766 61.2226 75.6063 62.0948 75.2148ZM95.0613 93.6012C96.9413 93.1224 97.8722 90.7167 96.6515 89.4921C95.5878 88.4251 92.8324 87.9766 91.7705 88.6976C90.917 89.2771 90.2599 90.2027 90.5621 90.3996C90.6794 90.4761 90.8274 90.8013 90.8909 91.1223C91.0201 91.7752 92.3437 93.0363 93.4111 93.5236C93.8189 93.7098 94.5075 93.7422 95.0613 93.6012ZM92.6012 91.7337C92.2843 91.2327 92.6881 90.144 93.3147 89.8103C93.7689 89.5683 94.7277 89.5878 95.1256 89.8471C95.2536 89.9306 95.4004 90.3628 95.4517 90.8075C95.5291 91.4786 95.4682 91.6515 95.0937 91.8232C94.8456 91.9371 94.4267 92.1872 94.1629 92.379C93.6581 92.7459 93.0943 92.513 92.6012 91.7337ZM85.0563 87.4087C85.5883 87.4373 86.0684 87.5723 86.1232 87.7086C86.1799 87.8496 86.234 87.8165 86.2485 87.6317C86.2625 87.4529 86.4266 87.3324 86.6151 87.3646C87.0863 87.4443 88.3128 85.9708 88.4802 85.124C88.6888 84.0686 87.9818 83.2933 86.3452 82.783C85.2805 82.451 84.7571 82.4402 83.9017 82.7324C82.9615 83.0536 82.7638 83.215 82.4503 83.9169C81.9723 84.9875 81.971 85.084 82.4241 85.8482C82.9756 86.7782 83.9373 87.3483 85.0563 87.4087ZM83.8495 85.3521C83.5408 84.3594 85.2918 83.4383 86.2728 84.0776C87.3923 84.8072 87.155 86.5056 85.9174 86.6212C85.1725 86.6908 84.0519 86.0031 83.8495 85.3521ZM60.6328 62.2176C61.2977 61.9667 61.1058 61.7127 60.4219 61.9385C60.0918 62.0476 59.9062 62.192 60.0096 62.2594C60.1132 62.3269 60.3935 62.308 60.6328 62.2176Z" fill="black"/>
<path d="M52.6611 76.4569C52.368 74.9767 51.2087 70.1138 50.5247 67.4958C50.1823 66.1855 49.9724 66.3786 52.8527 65.3544C53.9797 64.9536 55.5603 64.3584 56.3652 64.0316C57.1702 63.7048 58.3591 63.2524 59.0073 63.0261C60.5339 62.4933 61.0886 62.2212 61.2955 61.9038C61.5652 61.4899 62.3317 61.2452 65.3067 60.6228C68.3828 59.9793 68.4152 59.9817 68.9523 60.8984C69.6764 62.1342 70.6189 65.492 71.147 68.7175C71.6393 71.725 71.6538 72.1083 71.2889 72.4899C70.7412 73.0627 66.8953 74.3325 65.602 74.3676C65.0905 74.3815 64.9909 74.3426 64.6575 73.9995C63.9948 73.3174 63.0471 72.7305 62.6104 72.7315C62.1111 72.7328 61.0197 73.0757 60.7124 73.3279C60.4665 73.5297 59.8527 74.8819 59.8085 75.3191C59.7943 75.4593 59.6912 75.6574 59.5793 75.7594C59.3297 75.987 53.3496 78.1646 53.1341 78.1064C53.049 78.0834 52.8362 77.3412 52.6611 76.4569ZM65.7189 73.0584C66.2182 73.1104 67.0938 72.9125 67.8404 72.579C68.228 72.4059 68.6152 72.31 68.7009 72.3658C68.8778 72.4811 69.9873 72.0928 70.1368 71.8633C70.3 71.613 70.1469 70.5986 69.7421 69.2467C69.1331 67.2133 66.834 60.8294 66.6728 60.7244C66.4249 60.5628 65.578 60.8153 65.1854 61.1677C64.9805 61.3518 64.3993 61.8631 63.8939 62.3041C62.2674 63.723 62.3475 63.4542 62.8674 65.7511C63.7297 69.5599 64.7215 72.5734 65.2197 72.8981C65.3284 72.969 65.5531 73.0411 65.7189 73.0584Z" fill="#FFD42A"/>
<path fill-rule="evenodd" clip-rule="evenodd" d="M231.072 64.8748C242.553 57.56 245 49.9719 245 38.2878C245 11.2012 215.433 1 190.937 1C154.243 1 125.725 14.7927 127.044 40.6145C127.887 57.1152 131.555 61.472 143.206 68.5055C144.846 69.4956 146.618 70.3913 148.502 71.1956C142.835 77.9653 135.87 85.2382 127.639 92.2573C128.609 91.4302 130.012 90.8804 132.048 90.0832C136.712 88.2558 144.695 85.1283 158.383 74.3819C181.834 79.9237 214.339 75.5355 231.072 64.8748Z" fill="white"/>
<path d="M231.072 64.8748L231.34 65.2965L231.072 64.8748ZM190.937 1V0.5V1ZM127.044 40.6145L127.543 40.5889L127.044 40.6145ZM143.206 68.5055L142.948 68.9336L143.206 68.5055ZM148.502 71.1956L148.885 71.5165C148.987 71.3952 149.025 71.233 148.988 71.0791C148.951 70.9252 148.844 70.7979 148.698 70.7358L148.502 71.1956ZM127.315 91.8769C127.105 92.0561 127.08 92.3717 127.259 92.5818C127.438 92.7919 127.754 92.8169 127.964 92.6378L127.315 91.8769ZM132.048 90.0832L132.23 90.5487H132.23L132.048 90.0832ZM158.383 74.3819L158.498 73.8953C158.35 73.8603 158.194 73.8947 158.074 73.9886L158.383 74.3819ZM244.5 38.2878C244.5 44.1009 243.89 48.8311 241.89 53.0037C239.895 57.1685 236.49 60.8302 230.803 64.4531L231.34 65.2965C237.135 61.6046 240.694 57.8148 242.792 53.4359C244.887 49.0648 245.5 44.1588 245.5 38.2878H244.5ZM190.937 1.5C203.128 1.5 216.551 4.04037 226.908 9.92122C237.245 15.7915 244.5 24.9666 244.5 38.2878H245.5C245.5 24.5224 237.971 15.0536 227.401 9.05164C216.85 3.06024 203.242 0.5 190.937 0.5V1.5ZM127.543 40.5889C126.895 27.9089 133.555 18.1628 144.986 11.557C156.435 4.94017 172.642 1.5 190.937 1.5V0.5C172.539 0.500002 156.139 3.95617 144.485 10.6912C132.813 17.4371 125.873 27.4983 126.545 40.64L127.543 40.5889ZM143.465 68.0775C137.645 64.5647 133.909 61.769 131.498 57.8483C129.087 53.9274 127.964 48.8173 127.543 40.5889L126.545 40.64C126.967 48.9124 128.1 54.231 130.646 58.3721C133.193 62.5134 137.115 65.4128 142.948 68.9336L143.465 68.0775ZM148.698 70.7358C146.834 69.9396 145.083 69.0543 143.465 68.0775L142.948 68.9336C144.61 69.937 146.403 70.8431 148.305 71.6554L148.698 70.7358ZM127.964 92.6378C136.217 85.5986 143.203 78.3053 148.885 71.5165L148.118 70.8747C142.468 77.6252 135.522 84.8777 127.315 91.8769L127.964 92.6378ZM131.865 89.6176C129.861 90.4026 128.363 90.9827 127.315 91.8769L127.964 92.6378C128.855 91.8777 130.164 91.3582 132.23 90.5487L131.865 89.6176ZM158.074 73.9886C144.433 84.698 136.496 87.8035 131.865 89.6176L132.23 90.5487C136.928 88.7082 144.956 85.5586 158.692 74.7752L158.074 73.9886ZM230.803 64.4531C222.521 69.73 210.29 73.477 197.181 75.2086C184.078 76.9394 170.152 76.6493 158.498 73.8953L158.268 74.8685C170.065 77.6563 184.117 77.943 197.312 76.2C210.502 74.4577 222.89 70.6802 231.34 65.2965L230.803 64.4531Z" fill="black"/>
<path d="M164.993 23.3735C164.993 24.2044 164.835 24.9052 164.519 25.4758C164.209 26.0414 163.766 26.4719 163.191 26.7672C162.615 27.0576 161.934 27.2027 161.148 27.2027C160.372 27.2027 159.697 27.0576 159.121 26.7672C158.55 26.4719 158.107 26.0414 157.792 25.4758C157.482 24.9052 157.327 24.2044 157.327 23.3735V16.7661L157.424 16.6685H158.07C158.42 16.6685 158.67 16.7586 158.821 16.9388C158.971 17.114 159.046 17.3918 159.046 17.7723V23.3735C159.046 24.1744 159.221 24.7825 159.571 25.198C159.927 25.6085 160.457 25.8137 161.163 25.8137C161.864 25.8137 162.39 25.6085 162.74 25.198C163.095 24.7825 163.273 24.1744 163.273 23.3735V16.7436C163.408 16.7186 163.548 16.7011 163.694 16.6911C163.844 16.681 163.981 16.676 164.107 16.676C164.237 16.676 164.382 16.681 164.542 16.6911C164.707 16.7011 164.857 16.7186 164.993 16.7436V23.3735ZM168.055 19.4992C168.395 19.4992 168.635 19.6068 168.776 19.822C168.921 20.0323 168.993 20.3226 168.993 20.693V27C168.758 27.0451 168.483 27.0676 168.167 27.0676C167.852 27.0676 167.572 27.0451 167.326 27V19.5968L167.424 19.4992H168.055ZM173.318 25.3707C173.318 25.636 173.338 25.8888 173.378 26.129C173.418 26.3643 173.488 26.5695 173.588 26.7447C173.463 26.8498 173.308 26.9349 173.123 27C172.938 27.0701 172.745 27.1051 172.545 27.1051C172.214 27.1051 171.982 27.015 171.846 26.8348C171.716 26.6546 171.651 26.3918 171.651 26.0464V22.3148C171.651 21.8343 171.591 21.4864 171.471 21.2711C171.351 21.0509 171.113 20.9408 170.758 20.9408C170.522 20.9408 170.265 20.9983 169.984 21.1135C169.704 21.2286 169.439 21.3938 169.189 21.609C168.938 21.8243 168.733 22.0845 168.573 22.3899V20.8206C168.913 20.4402 169.319 20.1149 169.789 19.8446C170.265 19.5743 170.773 19.4391 171.313 19.4391C171.779 19.4391 172.159 19.5492 172.455 19.7695C172.75 19.9897 172.968 20.2875 173.108 20.663C173.248 21.0384 173.318 21.4614 173.318 21.9319V25.3707ZM180.813 27.1952C180.813 27.8109 180.746 28.3215 180.611 28.7269C180.48 29.1374 180.25 29.4652 179.92 29.7105C179.594 29.9608 179.131 30.156 178.531 30.2962C178.421 30.191 178.321 30.0459 178.23 29.8607C178.14 29.6755 178.083 29.4778 178.058 29.2675C178.343 29.1324 178.566 28.9922 178.726 28.8471C178.886 28.7019 178.999 28.5192 179.064 28.2989C179.129 28.0787 179.161 27.7859 179.161 27.4205V21.5715C179.161 21.3112 179.114 21.116 179.019 20.9858C178.924 20.8507 178.751 20.7831 178.501 20.7831H178.193C178.143 20.5929 178.118 20.3977 178.118 20.1974C178.118 20.1023 178.123 20.0047 178.133 19.9046C178.148 19.7995 178.168 19.6944 178.193 19.5893C178.403 19.5642 178.616 19.5467 178.831 19.5367C179.046 19.5267 179.219 19.5217 179.349 19.5217H179.567C179.952 19.5217 180.255 19.6468 180.475 19.8971C180.701 20.1474 180.813 20.4903 180.813 20.9258V27.1952ZM178.658 17.5545C178.658 17.2942 178.706 17.0615 178.801 16.8562C178.901 16.8012 179.031 16.7561 179.191 16.7211C179.357 16.681 179.517 16.661 179.672 16.661C179.817 16.661 179.977 16.681 180.153 16.7211C180.328 16.7561 180.458 16.8012 180.543 16.8562C180.583 16.9513 180.616 17.064 180.641 17.1941C180.671 17.3243 180.686 17.4444 180.686 17.5545C180.686 17.8148 180.638 18.0501 180.543 18.2603C180.463 18.3154 180.333 18.3604 180.153 18.3954C179.977 18.4305 179.817 18.448 179.672 18.448C179.517 18.448 179.354 18.4305 179.184 18.3954C179.019 18.3604 178.891 18.3154 178.801 18.2603C178.706 18.0501 178.658 17.8148 178.658 17.5545ZM183.588 23.8165V22.6226H187.124V22.4274C187.124 22.0971 187.076 21.7942 186.981 21.5189C186.891 21.2386 186.741 21.0159 186.531 20.8507C186.321 20.6805 186.045 20.5954 185.705 20.5954C185.214 20.5954 184.849 20.8031 184.609 21.2186C184.373 21.629 184.256 22.1997 184.256 22.9305V23.441C184.256 23.8966 184.301 24.307 184.391 24.6724C184.486 25.0378 184.654 25.3281 184.894 25.5434C185.134 25.7536 185.48 25.8587 185.93 25.8587C186.306 25.8587 186.666 25.8062 187.011 25.7011C187.357 25.5909 187.69 25.4583 188.01 25.3031C188.14 25.4333 188.248 25.5984 188.333 25.7987C188.423 25.9989 188.481 26.1841 188.506 26.3543C188.145 26.6096 187.715 26.8148 187.214 26.97C186.714 27.1251 186.203 27.2027 185.682 27.2027C185.077 27.2027 184.571 27.0976 184.166 26.8874C183.76 26.6721 183.44 26.3818 183.205 26.0164C182.969 25.646 182.799 25.228 182.694 24.7625C182.594 24.297 182.544 23.8115 182.544 23.3059C182.544 22.5551 182.659 21.8843 182.889 21.2937C183.125 20.703 183.475 20.235 183.941 19.8896C184.411 19.5442 185.002 19.3715 185.712 19.3715C186.363 19.3715 186.911 19.5142 187.357 19.7995C187.802 20.0848 188.14 20.4703 188.37 20.9558C188.601 21.4363 188.716 21.9769 188.716 22.5776C188.716 22.8329 188.706 23.0506 188.686 23.2308C188.671 23.406 188.638 23.6012 188.588 23.8165H183.588ZM196.487 24.8977C196.487 25.178 196.517 25.4433 196.577 25.6935C196.642 25.9388 196.752 26.129 196.907 26.2642C196.867 26.4143 196.79 26.572 196.675 26.7372C196.56 26.9024 196.437 27.0275 196.307 27.1126C195.791 27.0275 195.413 26.7948 195.173 26.4143C194.938 26.0289 194.82 25.5834 194.82 25.0779V19.5743C195.055 19.5292 195.333 19.5067 195.653 19.5067C195.964 19.5067 196.242 19.5292 196.487 19.5743V24.8977ZM190.488 21.2036C190.488 20.9383 190.47 20.688 190.435 20.4527C190.4 20.2125 190.33 20.0047 190.225 19.8295C190.345 19.7244 190.498 19.6393 190.683 19.5743C190.873 19.5092 191.071 19.4766 191.276 19.4766C191.602 19.4766 191.829 19.5667 191.959 19.7469C192.09 19.9221 192.155 20.1824 192.155 20.5278V24.2595C192.155 24.735 192.217 25.0829 192.342 25.3031C192.467 25.5234 192.703 25.6335 193.048 25.6335C193.288 25.6335 193.546 25.5759 193.821 25.4608C194.102 25.3457 194.37 25.1805 194.625 24.9652C194.88 24.745 195.085 24.4847 195.241 24.1844V25.7536C194.905 26.134 194.5 26.4594 194.024 26.7297C193.549 27 193.041 27.1352 192.5 27.1352C192.034 27.1352 191.654 27.025 191.359 26.8048C191.063 26.5845 190.843 26.2867 190.698 25.9113C190.558 25.5309 190.488 25.1079 190.488 24.6424V21.2036ZM207.766 24.8826C207.766 25.163 207.796 25.4283 207.856 25.6785C207.921 25.9238 208.031 26.1165 208.186 26.2567C208.146 26.4068 208.068 26.567 207.953 26.7372C207.838 26.9024 207.716 27.0275 207.585 27.1126C207.075 27.0275 206.704 26.7948 206.474 26.4143C206.249 26.0339 206.136 25.5934 206.136 25.0929V16.0528L206.234 15.9552H206.865C207.215 15.9552 207.453 16.0378 207.578 16.203C207.703 16.3682 207.766 16.636 207.766 17.0064V24.8826ZM201.586 23.381C201.586 22.49 201.724 21.7542 201.999 21.1735C202.28 20.5879 202.64 20.1549 203.08 19.8746C203.526 19.5893 203.994 19.4466 204.484 19.4466C204.97 19.4466 205.413 19.5467 205.813 19.7469C206.214 19.9472 206.587 20.1699 206.932 20.4152L206.729 21.6991C206.439 21.4739 206.121 21.2611 205.776 21.0609C205.431 20.8557 205.08 20.7531 204.725 20.7531C204.449 20.7531 204.202 20.8507 203.981 21.0459C203.766 21.2361 203.596 21.5264 203.471 21.9169C203.346 22.3073 203.283 22.7953 203.283 23.381C203.283 23.9566 203.343 24.4246 203.463 24.785C203.583 25.1404 203.741 25.4032 203.936 25.5734C204.132 25.7386 204.344 25.8212 204.575 25.8212C204.815 25.8212 205.068 25.7561 205.333 25.626C205.598 25.4958 205.846 25.2906 206.076 25.0103C206.306 24.725 206.487 24.3496 206.617 23.884L206.962 25.0628C206.877 25.4082 206.704 25.7461 206.444 26.0765C206.184 26.4018 205.861 26.6721 205.476 26.8874C205.09 27.0976 204.66 27.2027 204.184 27.2027C203.609 27.2027 203.128 27.0425 202.743 26.7222C202.357 26.3968 202.067 25.9463 201.872 25.3707C201.681 24.7951 201.586 24.1318 201.586 23.381ZM210.6 23.8165V22.6226H214.136V22.4274C214.136 22.0971 214.089 21.7942 213.994 21.5189C213.904 21.2386 213.754 21.0159 213.543 20.8507C213.333 20.6805 213.058 20.5954 212.717 20.5954C212.227 20.5954 211.861 20.8031 211.621 21.2186C211.386 21.629 211.268 22.1997 211.268 22.9305V23.441C211.268 23.8966 211.313 24.307 211.403 24.6724C211.499 25.0378 211.666 25.3281 211.906 25.5434C212.147 25.7536 212.492 25.8587 212.943 25.8587C213.318 25.8587 213.678 25.8062 214.024 25.7011C214.369 25.5909 214.702 25.4583 215.022 25.3031C215.153 25.4333 215.26 25.5984 215.345 25.7987C215.435 25.9989 215.493 26.1841 215.518 26.3543C215.158 26.6096 214.727 26.8148 214.227 26.97C213.726 27.1251 213.215 27.2027 212.695 27.2027C212.089 27.2027 211.584 27.0976 211.178 26.8874C210.773 26.6721 210.452 26.3818 210.217 26.0164C209.982 25.646 209.812 25.228 209.707 24.7625C209.606 24.297 209.556 23.8115 209.556 23.3059C209.556 22.5551 209.671 21.8843 209.902 21.2937C210.137 20.703 210.487 20.235 210.953 19.8896C211.423 19.5442 212.014 19.3715 212.725 19.3715C213.376 19.3715 213.924 19.5142 214.369 19.7995C214.815 20.0848 215.153 20.4703 215.383 20.9558C215.613 21.4363 215.728 21.9769 215.728 22.5776C215.728 22.8329 215.718 23.0506 215.698 23.2308C215.683 23.406 215.651 23.6012 215.601 23.8165H210.6ZM163.739 44.4594C163.749 44.2692 163.807 44.0615 163.912 43.8362C164.017 43.606 164.137 43.4258 164.272 43.2956C164.593 43.4658 164.933 43.6185 165.293 43.7536C165.654 43.8888 166.017 43.9563 166.382 43.9563C166.773 43.9563 167.08 43.8737 167.306 43.7086C167.536 43.5434 167.651 43.3331 167.651 43.0779C167.651 42.8776 167.576 42.6949 167.426 42.5298C167.276 42.3596 167.05 42.2194 166.75 42.1093L165.879 41.7864C165.534 41.6613 165.216 41.5036 164.926 41.3134C164.64 41.1232 164.41 40.8904 164.235 40.6151C164.065 40.3398 163.979 40.012 163.979 39.6315C163.979 39.166 164.095 38.7656 164.325 38.4302C164.56 38.0898 164.88 37.8295 165.286 37.6493C165.696 37.4641 166.159 37.3715 166.675 37.3715C167.09 37.3715 167.531 37.4291 167.996 37.5442C168.467 37.6543 168.857 37.782 169.168 37.9271C169.178 38.1324 169.135 38.3551 169.04 38.5954C168.95 38.8357 168.832 39.0159 168.687 39.136C168.417 39.0159 168.104 38.9032 167.749 38.7981C167.398 38.688 167.038 38.6329 166.667 38.6329C166.362 38.6329 166.117 38.708 165.932 38.8582C165.746 39.0083 165.654 39.2061 165.654 39.4513C165.654 39.6466 165.726 39.8117 165.872 39.9469C166.017 40.077 166.237 40.1972 166.532 40.3073L167.456 40.6527C168.021 40.8529 168.482 41.1357 168.837 41.5011C169.198 41.8665 169.378 42.3446 169.378 42.9352C169.378 43.636 169.105 44.1891 168.56 44.5945C168.014 45 167.291 45.2027 166.39 45.2027C165.859 45.2027 165.366 45.1276 164.911 44.9775C164.46 44.8273 164.07 44.6546 163.739 44.4594ZM177.074 41.2909C177.074 42.0617 176.949 42.7425 176.698 43.3331C176.453 43.9188 176.085 44.3768 175.595 44.7072C175.109 45.0375 174.508 45.2027 173.793 45.2027C173.072 45.2027 172.469 45.035 171.983 44.6997C171.497 44.3643 171.132 43.9038 170.887 43.3181C170.642 42.7275 170.519 42.0517 170.519 41.2909C170.519 40.52 170.642 39.8418 170.887 39.2561C171.137 38.6655 171.505 38.205 171.991 37.8746C172.476 37.5392 173.077 37.3715 173.793 37.3715C174.513 37.3715 175.116 37.5392 175.602 37.8746C176.093 38.21 176.46 38.673 176.706 39.2636C176.951 39.8493 177.074 40.525 177.074 41.2909ZM172.238 41.2909C172.238 41.7464 172.281 42.1769 172.366 42.5823C172.456 42.9828 172.614 43.3081 172.839 43.5584C173.064 43.8037 173.385 43.9263 173.8 43.9263C174.21 43.9263 174.526 43.8037 174.746 43.5584C174.971 43.3081 175.129 42.9828 175.219 42.5823C175.309 42.1769 175.354 41.7464 175.354 41.2909C175.354 40.8354 175.309 40.4049 175.219 39.9995C175.129 39.594 174.971 39.2661 174.746 39.0159C174.526 38.7656 174.21 38.6404 173.8 38.6404C173.385 38.6404 173.064 38.7656 172.839 39.0159C172.614 39.2661 172.456 39.594 172.366 39.9995C172.281 40.4049 172.238 40.8354 172.238 41.2909ZM182.728 40.51C182.743 40.1746 182.718 39.8668 182.652 39.5865C182.587 39.3012 182.462 39.0734 182.277 38.9032C182.092 38.733 181.824 38.6479 181.474 38.6479C181.018 38.6479 180.668 38.8707 180.422 39.3162C180.177 39.7567 180.055 40.4274 180.055 41.3284C180.055 42.2094 180.197 42.8501 180.483 43.2506C180.773 43.651 181.176 43.8512 181.691 43.8512C182.032 43.8512 182.352 43.7736 182.652 43.6185C182.958 43.4633 183.238 43.2931 183.493 43.1079C183.639 43.193 183.779 43.3331 183.914 43.5284C184.054 43.7186 184.144 43.9038 184.184 44.084C183.844 44.4194 183.436 44.6897 182.96 44.8949C182.485 45.1001 181.979 45.2027 181.444 45.2027C180.903 45.2027 180.435 45.1026 180.04 44.9024C179.649 44.6972 179.329 44.4169 179.079 44.0615C178.828 43.7061 178.641 43.2956 178.515 42.8301C178.395 42.3596 178.335 41.859 178.335 41.3284C178.335 40.3924 178.488 39.634 178.793 39.0534C179.104 38.4728 179.501 38.0473 179.987 37.777C180.473 37.5067 180.981 37.3715 181.511 37.3715C181.962 37.3715 182.36 37.4391 182.705 37.5743C183.05 37.7094 183.338 37.8896 183.568 38.1149C183.799 38.3351 183.971 38.5804 184.087 38.8507C184.202 39.121 184.259 39.3963 184.259 39.6766C184.259 39.9569 184.189 40.1771 184.049 40.3373C183.914 40.4925 183.704 40.5701 183.418 40.5701C183.283 40.5701 183.163 40.5651 183.058 40.5551C182.953 40.5451 182.843 40.53 182.728 40.51ZM187.96 45C187.72 45.0451 187.442 45.0676 187.127 45.0676C186.811 45.0676 186.533 45.0451 186.293 45V39.5715C186.293 39.3112 186.246 39.116 186.151 38.9858C186.055 38.8507 185.883 38.7831 185.632 38.7831H185.452C185.407 38.5929 185.385 38.3977 185.385 38.1974C185.385 38.1023 185.39 38.0047 185.4 37.9046C185.41 37.7995 185.427 37.6944 185.452 37.5893C185.647 37.5642 185.835 37.5467 186.015 37.5367C186.196 37.5267 186.343 37.5217 186.458 37.5217H186.684C187.079 37.5217 187.389 37.6468 187.615 37.8971C187.845 38.1474 187.96 38.4903 187.96 38.9258V45ZM185.828 35.5545C185.828 35.2942 185.875 35.0615 185.97 34.8562C186.07 34.8012 186.201 34.7561 186.361 34.7211C186.526 34.681 186.686 34.661 186.841 34.661C186.986 34.661 187.147 34.681 187.322 34.7211C187.497 34.7561 187.627 34.8012 187.712 34.8562C187.752 34.9513 187.785 35.064 187.81 35.1941C187.84 35.3243 187.855 35.4444 187.855 35.5545C187.855 35.8148 187.807 36.0501 187.712 36.2603C187.632 36.3154 187.502 36.3604 187.322 36.3954C187.147 36.4305 186.986 36.448 186.841 36.448C186.686 36.448 186.523 36.4305 186.353 36.3954C186.188 36.3604 186.06 36.3154 185.97 36.2603C185.875 36.0501 185.828 35.8148 185.828 35.5545ZM190.744 41.8165V40.6226H194.28V40.4274C194.28 40.0971 194.233 39.7942 194.138 39.5189C194.048 39.2386 193.897 39.0159 193.687 38.8507C193.477 38.6805 193.202 38.5954 192.861 38.5954C192.371 38.5954 192.005 38.8031 191.765 39.2186C191.53 39.629 191.412 40.1997 191.412 40.9305V41.441C191.412 41.8966 191.457 42.307 191.547 42.6724C191.642 43.0378 191.81 43.3281 192.05 43.5434C192.291 43.7536 192.636 43.8587 193.087 43.8587C193.462 43.8587 193.822 43.8062 194.168 43.7011C194.513 43.5909 194.846 43.4583 195.166 43.3031C195.297 43.4333 195.404 43.5984 195.489 43.7987C195.579 43.9989 195.637 44.1841 195.662 44.3543C195.302 44.6096 194.871 44.8148 194.371 44.97C193.87 45.1251 193.359 45.2027 192.839 45.2027C192.233 45.2027 191.728 45.0976 191.322 44.8874C190.917 44.6721 190.596 44.3818 190.361 44.0164C190.126 43.646 189.956 43.228 189.85 42.7625C189.75 42.297 189.7 41.8115 189.7 41.3059C189.7 40.5551 189.815 39.8843 190.046 39.2937C190.281 38.703 190.631 38.235 191.097 37.8896C191.567 37.5442 192.158 37.3715 192.869 37.3715C193.52 37.3715 194.068 37.5142 194.513 37.7995C194.959 38.0848 195.297 38.4703 195.527 38.9558C195.757 39.4363 195.872 39.9769 195.872 40.5776C195.872 40.8329 195.862 41.0506 195.842 41.2308C195.827 41.406 195.795 41.6012 195.745 41.8165H190.744ZM193.92 33.8351C194.15 33.9102 194.376 34.0503 194.596 34.2556C194.816 34.4558 194.969 34.6735 195.054 34.9088L192.456 36.921C192.311 36.876 192.168 36.7909 192.028 36.6658C191.893 36.5406 191.795 36.403 191.735 36.2528L193.92 33.8351ZM197.99 36.3354C197.99 35.96 198.052 35.6922 198.177 35.532C198.307 35.3668 198.545 35.2842 198.891 35.2842H199.529L199.619 35.3743V43.1004C199.619 43.3006 199.666 43.4608 199.761 43.5809C199.862 43.6961 200.024 43.7536 200.25 43.7536H201.256C201.346 44.0089 201.391 44.2867 201.391 44.587C201.391 44.6471 201.388 44.7097 201.383 44.7747C201.383 44.8398 201.373 44.8974 201.353 44.9474C201.103 44.9825 200.828 45.01 200.527 45.03C200.232 45.0551 199.937 45.0676 199.641 45.0676C199.106 45.0676 198.695 44.9324 198.41 44.6621C198.13 44.3918 197.99 43.9864 197.99 43.4458V36.3354ZM201.473 37.5592C201.518 37.7695 201.541 37.9722 201.541 38.1674C201.541 38.3776 201.518 38.5829 201.473 38.7831L198.966 38.7456L196.886 38.7831C196.836 38.5829 196.811 38.3776 196.811 38.1674C196.811 37.9722 196.836 37.7695 196.886 37.5592L198.988 37.5968L201.473 37.5592ZM203.429 41.8165V40.6226H206.965V40.4274C206.965 40.0971 206.918 39.7942 206.823 39.5189C206.733 39.2386 206.582 39.0159 206.372 38.8507C206.162 38.6805 205.887 38.5954 205.546 38.5954C205.056 38.5954 204.69 38.8031 204.45 39.2186C204.215 39.629 204.097 40.1997 204.097 40.9305V41.441C204.097 41.8966 204.142 42.307 204.232 42.6724C204.327 43.0378 204.495 43.3281 204.735 43.5434C204.976 43.7536 205.321 43.8587 205.772 43.8587C206.147 43.8587 206.507 43.8062 206.853 43.7011C207.198 43.5909 207.531 43.4583 207.851 43.3031C207.982 43.4333 208.089 43.5984 208.174 43.7987C208.264 43.9989 208.322 44.1841 208.347 44.3543C207.987 44.6096 207.556 44.8148 207.055 44.97C206.555 45.1251 206.044 45.2027 205.524 45.2027C204.918 45.2027 204.413 45.0976 204.007 44.8874C203.602 44.6721 203.281 44.3818 203.046 44.0164C202.811 43.646 202.641 43.228 202.535 42.7625C202.435 42.297 202.385 41.8115 202.385 41.3059C202.385 40.5551 202.5 39.8843 202.731 39.2937C202.966 38.703 203.316 38.235 203.782 37.8896C204.252 37.5442 204.843 37.3715 205.554 37.3715C206.205 37.3715 206.753 37.5142 207.198 37.7995C207.644 38.0848 207.982 38.4703 208.212 38.9558C208.442 39.4363 208.557 39.9769 208.557 40.5776C208.557 40.8329 208.547 41.0506 208.527 41.2308C208.512 41.406 208.48 41.6012 208.43 41.8165H203.429ZM206.605 33.8351C206.835 33.9102 207.06 34.0503 207.281 34.2556C207.501 34.4558 207.654 34.6735 207.739 34.9088L205.141 36.921C204.996 36.876 204.853 36.7909 204.713 36.6658C204.578 36.5406 204.48 36.403 204.42 36.2528L206.605 33.8351ZM157.726 59.8165V58.6226H161.263V58.4274C161.263 58.0971 161.215 57.7942 161.12 57.5189C161.03 57.2386 160.88 57.0159 160.67 56.8507C160.459 56.6805 160.184 56.5954 159.844 56.5954C159.353 56.5954 158.988 56.8031 158.748 57.2186C158.512 57.629 158.395 58.1997 158.395 58.9305V59.441C158.395 59.8966 158.44 60.307 158.53 60.6724C158.625 61.0378 158.793 61.3281 159.033 61.5434C159.273 61.7536 159.618 61.8587 160.069 61.8587C160.444 61.8587 160.805 61.8062 161.15 61.7011C161.496 61.5909 161.828 61.4583 162.149 61.3031C162.279 61.4333 162.387 61.5984 162.472 61.7987C162.562 61.9989 162.619 62.1841 162.644 62.3543C162.284 62.6096 161.853 62.8148 161.353 62.97C160.852 63.1251 160.342 63.2027 159.821 63.2027C159.216 63.2027 158.71 63.0976 158.305 62.8874C157.899 62.6721 157.579 62.3818 157.343 62.0164C157.108 61.646 156.938 61.228 156.833 60.7625C156.733 60.297 156.683 59.8115 156.683 59.3059C156.683 58.5551 156.798 57.8843 157.028 57.2937C157.263 56.703 157.614 56.235 158.079 55.8896C158.55 55.5442 159.14 55.3715 159.851 55.3715C160.502 55.3715 161.05 55.5142 161.496 55.7995C161.941 56.0848 162.279 56.4703 162.509 56.9558C162.739 57.4363 162.855 57.9769 162.855 58.5776C162.855 58.8329 162.845 59.0506 162.825 59.2308C162.81 59.406 162.777 59.6012 162.727 59.8165H157.726ZM160.902 51.8351C161.133 51.9102 161.358 52.0503 161.578 52.2556C161.798 52.4558 161.951 52.6735 162.036 52.9088L159.438 54.921C159.293 54.876 159.15 54.7909 159.01 54.6658C158.875 54.5406 158.778 54.403 158.717 54.2528L160.902 51.8351ZM170.378 60.8826C170.378 61.163 170.408 61.4283 170.468 61.6785C170.533 61.9238 170.643 62.1165 170.798 62.2567C170.758 62.4068 170.681 62.567 170.566 62.7372C170.451 62.9024 170.328 63.0275 170.198 63.1126C169.687 63.0275 169.317 62.7948 169.086 62.4143C168.861 62.0339 168.749 61.5934 168.749 61.0929V52.0528L168.846 51.9552H169.477C169.827 51.9552 170.065 52.0378 170.19 52.203C170.315 52.3682 170.378 52.636 170.378 53.0064V60.8826ZM164.199 59.381C164.199 58.49 164.336 57.7542 164.612 57.1735C164.892 56.5879 165.252 56.1549 165.693 55.8746C166.138 55.5893 166.606 55.4466 167.097 55.4466C167.582 55.4466 168.025 55.5467 168.426 55.7469C168.826 55.9472 169.199 56.1699 169.545 56.4152L169.342 57.6991C169.051 57.4739 168.734 57.2611 168.388 57.0609C168.043 56.8557 167.692 56.7531 167.337 56.7531C167.062 56.7531 166.814 56.8507 166.594 57.0459C166.378 57.2361 166.208 57.5264 166.083 57.9169C165.958 58.3073 165.895 58.7953 165.895 59.381C165.895 59.9566 165.956 60.4246 166.076 60.785C166.196 61.1404 166.353 61.4032 166.549 61.5734C166.744 61.7386 166.957 61.8212 167.187 61.8212C167.427 61.8212 167.68 61.7561 167.945 61.626C168.211 61.4958 168.458 61.2906 168.689 61.0103C168.919 60.725 169.099 60.3496 169.229 59.884L169.575 61.0628C169.489 61.4082 169.317 61.7461 169.056 62.0765C168.796 62.4018 168.473 62.6721 168.088 62.8874C167.702 63.0976 167.272 63.2027 166.796 63.2027C166.221 63.2027 165.74 63.0425 165.355 62.7222C164.969 62.3968 164.679 61.9463 164.484 61.3707C164.294 60.7951 164.199 60.1318 164.199 59.381ZM178.603 60.8977C178.603 61.178 178.633 61.4433 178.693 61.6935C178.758 61.9388 178.869 62.129 179.024 62.2642C178.984 62.4143 178.906 62.572 178.791 62.7372C178.676 62.9024 178.553 63.0275 178.423 63.1126C177.908 63.0275 177.53 62.7948 177.289 62.4143C177.054 62.0289 176.936 61.5834 176.936 61.0779V55.5743C177.172 55.5292 177.45 55.5067 177.77 55.5067C178.08 55.5067 178.358 55.5292 178.603 55.5743V60.8977ZM172.604 57.2036C172.604 56.9383 172.587 56.688 172.552 56.4527C172.517 56.2125 172.446 56.0047 172.341 55.8295C172.461 55.7244 172.614 55.6393 172.799 55.5743C172.99 55.5092 173.187 55.4766 173.393 55.4766C173.718 55.4766 173.946 55.5667 174.076 55.7469C174.206 55.9221 174.271 56.1824 174.271 56.5278V60.2595C174.271 60.735 174.334 61.0829 174.459 61.3031C174.584 61.5234 174.819 61.6335 175.164 61.6335C175.405 61.6335 175.663 61.5759 175.938 61.4608C176.218 61.3457 176.486 61.1805 176.741 60.9652C176.997 60.745 177.202 60.4847 177.357 60.1844V61.7536C177.022 62.134 176.616 62.4594 176.141 62.7297C175.665 63 175.157 63.1352 174.616 63.1352C174.151 63.1352 173.77 63.025 173.475 62.8048C173.18 62.5845 172.96 62.2867 172.814 61.9113C172.674 61.5309 172.604 61.1079 172.604 60.6424V57.2036ZM184.744 58.51C184.759 58.1746 184.734 57.8668 184.669 57.5865C184.604 57.3012 184.479 57.0734 184.293 56.9032C184.108 56.733 183.84 56.6479 183.49 56.6479C183.035 56.6479 182.684 56.8707 182.439 57.3162C182.194 57.7567 182.071 58.4274 182.071 59.3284C182.071 60.2094 182.214 60.8501 182.499 61.2506C182.789 61.651 183.192 61.8512 183.708 61.8512C184.048 61.8512 184.369 61.7736 184.669 61.6185C184.974 61.4633 185.255 61.2931 185.51 61.1079C185.655 61.193 185.795 61.3331 185.93 61.5284C186.07 61.7186 186.161 61.9038 186.201 62.084C185.86 62.4194 185.452 62.6897 184.977 62.8949C184.501 63.1001 183.996 63.2027 183.46 63.2027C182.919 63.2027 182.451 63.1026 182.056 62.9024C181.666 62.6972 181.345 62.4169 181.095 62.0615C180.845 61.7061 180.657 61.2956 180.532 60.8301C180.412 60.3596 180.352 59.859 180.352 59.3284C180.352 58.3924 180.504 57.634 180.81 57.0534C181.12 56.4728 181.518 56.0473 182.003 55.777C182.489 55.5067 182.997 55.3715 183.528 55.3715C183.978 55.3715 184.376 55.4391 184.721 55.5743C185.067 55.7094 185.355 55.8896 185.585 56.1149C185.815 56.3351 185.988 56.5804 186.103 56.8507C186.218 57.121 186.276 57.3963 186.276 57.6766C186.276 57.9569 186.206 58.1771 186.065 58.3373C185.93 58.4925 185.72 58.5701 185.435 58.5701C185.3 58.5701 185.179 58.5651 185.074 58.5551C184.969 58.5451 184.859 58.53 184.744 58.51ZM187.427 60.9727C187.427 60.4021 187.555 59.9316 187.81 59.5612C188.07 59.1908 188.418 58.918 188.854 58.7428C189.289 58.5626 189.777 58.4725 190.318 58.4725C190.588 58.4725 190.898 58.485 191.249 58.51C191.604 58.53 191.932 58.5751 192.232 58.6452V59.7489C191.972 59.6888 191.677 59.6513 191.346 59.6363C191.016 59.6162 190.711 59.6062 190.43 59.6062C189.995 59.6062 189.66 59.7189 189.424 59.9441C189.194 60.1694 189.079 60.4747 189.079 60.8601C189.079 61.1504 189.162 61.3982 189.327 61.6034C189.492 61.8037 189.73 61.9038 190.04 61.9038C190.395 61.9038 190.768 61.7786 191.159 61.5284C191.554 61.2781 191.887 60.9152 192.157 60.4397L192.405 61.671C192.225 61.8863 192.002 62.1115 191.737 62.3468C191.477 62.582 191.171 62.7848 190.821 62.955C190.476 63.1201 190.085 63.2027 189.65 63.2027C189.149 63.2027 188.734 63.0926 188.403 62.8724C188.078 62.6471 187.833 62.3643 187.667 62.0239C187.507 61.6835 187.427 61.3331 187.427 60.9727ZM193.772 62.2567C193.732 62.4068 193.654 62.567 193.539 62.7372C193.424 62.9024 193.301 63.0275 193.171 63.1126C192.836 63.0576 192.563 62.9424 192.353 62.7672C192.147 62.592 191.992 62.3843 191.887 62.144C191.787 61.8988 191.727 61.6435 191.707 61.3782V58.022C191.707 57.5715 191.602 57.2486 191.392 57.0534C191.186 56.8532 190.893 56.7531 190.513 56.7531C190.143 56.7531 189.757 56.8081 189.357 56.9182C188.961 57.0284 188.566 57.1585 188.17 57.3087C188.04 57.1735 187.933 56.9908 187.848 56.7606C187.762 56.5303 187.715 56.3101 187.705 56.0998C187.99 55.9747 188.313 55.8621 188.674 55.762C189.039 55.6568 189.412 55.5743 189.792 55.5142C190.173 55.4491 190.531 55.4166 190.866 55.4166C191.351 55.4166 191.779 55.5067 192.15 55.6869C192.525 55.8621 192.818 56.1349 193.028 56.5053C193.244 56.8757 193.351 57.3537 193.351 57.9394V61.0103C193.351 61.2856 193.379 61.5259 193.434 61.7311C193.494 61.9313 193.606 62.1065 193.772 62.2567ZM195.695 54.3354C195.695 53.96 195.757 53.6922 195.882 53.532C196.012 53.3668 196.25 53.2842 196.596 53.2842H197.234L197.324 53.3743V61.1004C197.324 61.3006 197.371 61.4608 197.466 61.5809C197.567 61.6961 197.729 61.7536 197.955 61.7536H198.961C199.051 62.0089 199.096 62.2867 199.096 62.587C199.096 62.6471 199.093 62.7097 199.088 62.7747C199.088 62.8398 199.078 62.8974 199.058 62.9474C198.808 62.9825 198.533 63.01 198.232 63.03C197.937 63.0551 197.642 63.0676 197.346 63.0676C196.811 63.0676 196.4 62.9324 196.115 62.6621C195.835 62.3918 195.695 61.9864 195.695 61.4458V54.3354ZM199.178 55.5592C199.223 55.7695 199.246 55.9722 199.246 56.1674C199.246 56.3776 199.223 56.5829 199.178 56.7831L196.671 56.7456L194.591 56.7831C194.541 56.5829 194.516 56.3776 194.516 56.1674C194.516 55.9722 194.541 55.7695 194.591 55.5592L196.693 55.5968L199.178 55.5592ZM202.72 63C202.48 63.0451 202.202 63.0676 201.887 63.0676C201.571 63.0676 201.293 63.0451 201.053 63V57.5715C201.053 57.3112 201.006 57.116 200.911 56.9858C200.815 56.8507 200.643 56.7831 200.392 56.7831H200.212C200.167 56.5929 200.145 56.3977 200.145 56.1974C200.145 56.1023 200.15 56.0047 200.16 55.9046C200.17 55.7995 200.187 55.6944 200.212 55.5893C200.408 55.5642 200.595 55.5467 200.775 55.5367C200.956 55.5267 201.103 55.5217 201.218 55.5217H201.444C201.839 55.5217 202.149 55.6468 202.375 55.8971C202.605 56.1474 202.72 56.4903 202.72 56.9258V63ZM200.588 53.5545C200.588 53.2942 200.635 53.0615 200.73 52.8562C200.83 52.8012 200.961 52.7561 201.121 52.7211C201.286 52.681 201.446 52.661 201.601 52.661C201.746 52.661 201.907 52.681 202.082 52.7211C202.257 52.7561 202.387 52.8012 202.472 52.8562C202.512 52.9513 202.545 53.064 202.57 53.1941C202.6 53.3243 202.615 53.4444 202.615 53.5545C202.615 53.8148 202.567 54.0501 202.472 54.2603C202.392 54.3154 202.262 54.3604 202.082 54.3954C201.907 54.4305 201.746 54.448 201.601 54.448C201.446 54.448 201.283 54.4305 201.113 54.3954C200.948 54.3604 200.82 54.3154 200.73 54.2603C200.635 54.0501 200.588 53.8148 200.588 53.5545ZM206.039 55.5893L208.854 55.5592C208.875 55.6594 208.89 55.7595 208.9 55.8596C208.91 55.9597 208.915 56.0623 208.915 56.1674C208.915 56.2675 208.91 56.3701 208.9 56.4753C208.89 56.5804 208.875 56.683 208.854 56.7831L206.031 56.7456L203.952 56.7831C203.907 56.5779 203.884 56.3726 203.884 56.1674C203.884 55.9722 203.907 55.7695 203.952 55.5592L206.039 55.5893ZM205.243 56.2875C205.213 55.9322 205.175 55.5868 205.13 55.2514C205.09 54.911 205.07 54.5857 205.07 54.2753C205.07 53.8248 205.163 53.4219 205.348 53.0665C205.538 52.7061 205.809 52.4208 206.159 52.2105C206.514 52.0003 206.94 51.8952 207.435 51.8952C207.791 51.8952 208.149 51.9327 208.509 52.0078C208.875 52.0829 209.175 52.1655 209.41 52.2556C209.41 52.4508 209.375 52.656 209.305 52.8713C209.24 53.0815 209.147 53.2492 209.027 53.3743C208.842 53.3193 208.637 53.2692 208.412 53.2241C208.186 53.1791 207.969 53.1566 207.758 53.1566C207.413 53.1566 207.143 53.2617 206.947 53.4719C206.752 53.6822 206.655 53.985 206.655 54.3804C206.655 54.6708 206.68 54.9836 206.73 55.319C206.78 55.6493 206.827 55.9797 206.872 56.3101V63C206.612 63.0451 206.337 63.0676 206.046 63.0676C205.771 63.0676 205.503 63.0451 205.243 63V56.2875ZM213.646 60.0492C213.586 59.0531 213.524 58.062 213.459 57.0759C213.393 56.0898 213.361 55.0987 213.361 54.1026V52.7511C213.516 52.7061 213.711 52.6785 213.947 52.6685C214.182 52.6535 214.417 52.6535 214.652 52.6685C214.888 52.6835 215.083 52.7136 215.238 52.7586V54.1101C215.238 55.1012 215.2 56.0923 215.125 57.0834C215.055 58.0695 214.99 59.0581 214.93 60.0492C214.825 60.0793 214.717 60.1018 214.607 60.1168C214.497 60.1268 214.395 60.1318 214.299 60.1318C214.209 60.1318 214.104 60.1268 213.984 60.1168C213.864 60.1018 213.751 60.0793 213.646 60.0492ZM214.299 61.2881C214.455 61.2881 214.612 61.3056 214.772 61.3407C214.938 61.3757 215.073 61.4232 215.178 61.4833C215.218 61.5534 215.251 61.666 215.276 61.8212C215.301 61.9764 215.313 62.109 215.313 62.2191C215.313 62.3242 215.301 62.4544 215.276 62.6096C215.251 62.7597 215.218 62.8699 215.178 62.9399C215.073 63.005 214.938 63.0526 214.772 63.0826C214.612 63.1176 214.455 63.1352 214.299 63.1352C213.934 63.1352 213.636 63.0701 213.406 62.9399C213.366 62.8699 213.333 62.7597 213.308 62.6096C213.288 62.4544 213.278 62.3242 213.278 62.2191C213.278 62.109 213.288 61.9764 213.308 61.8212C213.333 61.666 213.366 61.5534 213.406 61.4833C213.641 61.3532 213.939 61.2881 214.299 61.2881Z" fill="black"/>
</svg>
