<svg width="55" height="46" viewBox="0 0 55 46" fill="none" xmlns="http://www.w3.org/2000/svg">
<path d="M16.4312 45.0662C16.2633 45.0468 16.0825 44.9858 16.0293 44.9308C15.9762 44.8758 15.7701 44.8306 15.5715 44.8302C15.3728 44.8299 15.05 44.7871 14.8542 44.7351C14.6583 44.6831 14.2348 44.5781 13.913 44.5017C13.5913 44.4254 13.328 44.3277 13.328 44.2845C13.328 44.2414 13.2479 44.1782 13.15 44.1441C13.052 44.11 12.7761 43.9581 12.5367 43.8065C12.2974 43.6549 12.055 43.5309 11.9981 43.5309C11.8138 43.5309 10.1739 41.7696 10.1739 41.5717C10.1739 41.4662 10.2475 41.3016 10.3374 41.2059C10.4662 41.0687 10.4789 40.9696 10.397 40.7378C10.1337 39.992 9.97835 37.1951 9.9401 32.5091C9.9288 31.124 9.89601 29.9907 9.86724 29.9906C9.80984 29.9904 9.04956 30.2951 8.21533 30.6526C7.92154 30.7786 7.47513 30.9528 7.22332 31.0398C6.9715 31.1269 6.68596 31.2432 6.58879 31.2983C6.49162 31.3535 6.23667 31.3986 6.02223 31.3986C5.80778 31.3986 5.38365 31.4789 5.07971 31.577C4.39933 31.7966 1.79739 31.8396 1.60471 31.6345C1.53882 31.5643 1.41395 31.5048 1.32721 31.5021C1.24047 31.4993 0.957195 31.2922 0.697709 31.0417C0.144031 30.5071 -0.000915685 29.9894 4.34399e-06 28.5498C0.000869575 27.2491 0.122772 26.8941 0.798042 26.2262C1.11426 25.9134 1.42133 25.6575 1.48041 25.6575C1.53948 25.6575 1.74552 25.5322 1.93826 25.3791C3.04994 24.4961 5.06103 24.0043 7.6303 23.987C8.92433 23.9783 9.15609 24.0387 10.1813 24.6529C10.2133 24.672 10.319 24.1138 10.4161 23.4123C10.5132 22.7108 10.659 21.7226 10.7401 21.2161C10.8211 20.7097 10.8891 20.1735 10.891 20.0246C10.8961 19.6356 11.4192 19.0644 12.4123 18.3633C12.888 18.0275 13.4832 17.582 13.735 17.3732C14.1408 17.0367 14.6866 16.718 15.312 16.4522C15.4239 16.4046 15.7902 16.2418 16.126 16.0903C16.4617 15.9388 17.3313 15.6615 18.0584 15.4739C18.7854 15.2864 19.4264 15.0932 19.4828 15.0447C19.5392 14.9963 19.7913 14.9355 20.0432 14.9097C20.295 14.884 20.8444 14.7586 21.2641 14.6313C22.6532 14.2096 23.4412 14.0662 24.3673 14.0663C24.8709 14.0663 25.924 13.9919 26.7074 13.901C27.4909 13.8101 28.7008 13.7122 29.3961 13.6836C30.0914 13.655 30.6663 13.6198 30.6737 13.6054C30.6811 13.5911 30.8291 13.3829 31.0026 13.143C31.1761 12.903 31.5017 12.3355 31.7261 11.8819C31.9505 11.4282 32.292 10.7958 32.485 10.4766C32.678 10.1574 33.1681 9.26255 33.5741 8.48803C33.9801 7.71352 34.444 6.89988 34.6051 6.67996C34.7661 6.46003 34.8979 6.25203 34.8979 6.21773C34.8979 6.07512 35.8628 4.45489 36.1262 4.15507C36.2833 3.97633 36.5702 3.48887 36.7637 3.07182C37.2833 1.95227 38.1925 0.682972 38.7029 0.364513C38.9415 0.21561 39.3438 0.0635658 39.5969 0.0266386C39.9946 -0.0313959 40.0878 -0.00573521 40.2841 0.215766C40.4089 0.356719 40.5751 0.601896 40.6532 0.760603C40.8435 1.14708 40.9567 2.21824 40.8257 2.39305C40.7692 2.46848 40.692 2.75831 40.6541 3.03712C40.6163 3.31592 40.496 3.66483 40.3869 3.81248C40.2779 3.96012 40.187 4.14634 40.185 4.22631C40.18 4.42954 39.9909 4.75944 39.5978 5.25093C39.4127 5.4823 39.1151 5.89976 38.9364 6.17862C37.9604 7.70201 37.7475 8.01062 37.1936 8.70468C36.8608 9.12173 36.3767 9.68272 36.1178 9.95133C35.8588 10.2199 35.5602 10.5855 35.4541 10.7638C35.348 10.942 35.0266 11.3803 34.7398 11.7378C34.0936 12.5433 33.3403 13.6361 33.3928 13.692C33.4143 13.7149 34.14 13.7539 35.0054 13.7786C36.2484 13.8141 36.7176 13.8716 37.2391 14.0527C37.6023 14.1788 38.3572 14.4335 38.9168 14.6188C39.4764 14.804 40.4118 15.2065 40.9955 15.5132L42.0568 16.0707L42.313 16.7207C42.4539 17.0781 42.6273 17.4087 42.6984 17.4553C42.8333 17.5438 43.034 17.973 43.2413 18.6164C43.3084 18.8249 43.4015 19.8657 43.4481 20.9292C43.4947 21.9927 43.5615 22.8934 43.5965 22.9306C43.6315 22.9679 43.8062 22.8213 43.9847 22.6049C44.3452 22.1678 45.1862 21.5832 45.8863 21.2831C47.1235 20.7528 48.0104 20.4346 48.3791 20.3887C48.6029 20.3609 49.0335 20.287 49.3359 20.2244C49.6786 20.1535 50.3861 20.1402 51.2137 20.1892L52.5416 20.2679L53.0676 20.6907C53.8287 21.3025 54.2217 22.1879 54.2706 23.4011C54.3155 24.5163 54.1106 25.1773 53.4539 26.0356C52.5177 27.2592 50.5085 28.6344 49.6 28.6734C49.3762 28.683 48.8954 28.7446 48.5317 28.8102C47.6529 28.9688 46.7128 28.8906 44.4619 28.4716C43.2828 28.252 43.4015 28.116 43.3725 29.7196C43.3135 32.9771 42.8627 36.8701 42.4666 37.5422C42.3889 37.6742 42.3253 37.9092 42.3253 38.0645C42.3253 38.5063 41.8559 39.2632 41.4827 39.4234C41.3026 39.5007 40.9648 39.7375 40.7321 39.9496C40.4995 40.1618 39.9958 40.506 39.6129 40.7145C39.2301 40.923 38.8252 41.1752 38.7133 41.2748C38.495 41.4692 36.9217 42.231 36.7387 42.231C36.678 42.231 36.3649 42.3243 36.0429 42.4384C35.7209 42.5524 34.8394 42.8553 34.0839 43.1115C33.3285 43.3678 32.696 43.6129 32.6784 43.6564C32.6608 43.6999 32.5849 43.7103 32.5098 43.6796C32.4347 43.6489 32.1744 43.6942 31.9313 43.7802C31.6883 43.8662 31.0337 43.9709 30.4766 44.0127C29.9196 44.0546 29.2786 44.1622 29.0522 44.2517C28.4431 44.4927 27.8892 44.6295 27.3179 44.68C27.0381 44.7048 26.214 44.7793 25.4865 44.8457C24.759 44.912 23.6373 44.9864 22.9938 45.0109C21.4083 45.0714 16.8099 45.1102 16.4312 45.0662ZM24.8851 42.3812C26.555 42.332 27.5007 42.2138 29.5403 41.7994C29.8114 41.7443 30.315 41.5939 30.6595 41.4651C31.0041 41.3363 31.6065 41.1425 31.9982 41.0345C32.808 40.8113 33.9471 40.4183 34.2097 40.2716C34.3069 40.2173 34.4929 40.1729 34.6231 40.1729C34.7533 40.1729 35.094 40.0526 35.3802 39.9056C35.6664 39.7586 36.1214 39.5811 36.3912 39.5111C36.6611 39.4411 36.9964 39.3197 37.1363 39.2412C37.6819 38.935 39.0442 38.295 39.5417 38.1112C40.0144 37.9364 40.3979 37.6972 41.5196 36.8769C41.8795 36.6137 41.8854 36.597 42.0081 35.494C42.0764 34.8799 42.1977 34.0363 42.2777 33.6193C42.3584 33.1987 42.4691 31.5827 42.5264 29.9904C42.5832 28.4116 42.6538 26.4617 42.6833 25.6574C42.7596 23.5782 42.593 19.1002 42.4317 18.8932C42.321 18.7512 42.2657 18.7715 42.0041 19.05C41.5485 19.535 40.8913 20.0846 40.4939 20.3128C40.298 20.4253 40.0233 20.5989 39.8834 20.6986C39.7435 20.7982 39.039 21.1285 38.3178 21.4325C37.5967 21.7364 36.8338 22.079 36.6227 22.1937C36.2675 22.3866 35.9263 22.4985 34.9996 22.7261C34.8038 22.7741 34.2895 22.9172 33.8569 23.0439C33.4242 23.1706 32.9533 23.2743 32.8104 23.2743C32.6675 23.2743 32.4492 23.341 32.3253 23.4225C32.2013 23.5041 31.5505 23.6283 30.879 23.6985C28.9373 23.9017 27.8454 24.0509 27.6131 24.145C27.2461 24.2935 25.9925 24.3618 23.4516 24.3718C21.5008 24.3794 20.9092 24.3473 20.5097 24.2122C20.2346 24.1191 19.5707 24.012 19.0344 23.9741C18.498 23.9363 17.7844 23.8407 17.4487 23.7618C17.1129 23.6829 16.4948 23.5372 16.0751 23.438C15.6554 23.3389 15.0699 23.164 14.774 23.0494C14.4782 22.9348 14.1752 22.841 14.1007 22.841C13.9047 22.841 12.6315 21.9538 12.173 21.4977C11.4885 20.8167 11.3949 20.9443 11.3949 22.5574C11.3949 23.2187 11.3497 23.7123 11.2828 23.7836C11.2212 23.8492 11.1316 24.4561 11.0838 25.1322C11.0359 25.8083 10.9486 26.8003 10.8897 27.3365C10.6148 29.8389 10.873 39.4962 11.2394 40.4166C11.2809 40.5209 11.4015 40.6062 11.5075 40.6062C11.6134 40.6062 11.7219 40.6074 11.7486 40.6086C11.7754 40.6099 11.9071 40.7281 12.0414 40.8711C12.1758 41.0142 12.4859 41.1929 12.7305 41.2684C12.9752 41.3438 13.3048 41.5182 13.463 41.6558C13.8602 42.0014 14.225 42.0788 16.2277 42.2419C16.9552 42.3011 17.8938 42.3928 18.3135 42.4456C19.0213 42.5347 19.993 42.5252 24.8851 42.3812ZM5.29016 30.6331C6.29254 30.4566 8.64891 29.6271 9.63436 29.1037C9.86774 28.9798 10.006 28.7312 9.92207 28.5865C9.87098 28.4985 9.75816 28.5179 8.08815 28.9011C6.63869 29.2337 5.47982 29.4395 4.42534 29.5514C3.60776 29.6382 3.47621 29.6267 3.19771 29.4439C2.63276 29.073 2.52843 28.8802 2.6076 28.353C2.71352 27.6477 3.37367 26.9868 4.47621 26.4821C5.30025 26.1049 5.40342 26.0845 6.66372 26.05C8.14945 26.0092 9.73005 26.1399 9.93435 26.3205C10.0372 26.4114 10.0867 26.3932 10.1401 26.2448C10.1815 26.1301 10.161 26.032 10.0905 26.007C10.0244 25.9835 9.97042 25.9035 9.97042 25.8292C9.97042 25.7549 9.85596 25.6288 9.71606 25.5491C9.57616 25.4694 9.4617 25.3657 9.4617 25.3187C9.4617 25.2718 9.12976 25.1277 8.72405 24.9986C7.85837 24.7231 6.97302 24.7522 5.0099 25.1207C3.8019 25.3474 3.49979 25.4629 2.36679 26.1313C0.972357 26.9538 0.805278 27.2573 0.878811 28.8342L0.930203 29.9362L1.33601 30.3361C1.56799 30.5647 1.88072 30.7575 2.06612 30.7862C2.59064 30.8674 4.46491 30.7784 5.29016 30.6331ZM5.26053 28.6881C5.71695 28.6271 6.44776 28.4565 6.88454 28.3089C7.32133 28.1613 7.83548 28.0406 8.0271 28.0406C8.21872 28.0406 8.63134 27.9619 8.94404 27.8657C10.0952 27.5115 10.1477 27.4431 9.53156 27.1005C9.26297 26.9511 8.91522 26.9229 7.50472 26.9358C5.98409 26.9497 5.71817 26.9806 5.01699 27.2244C4.45771 27.4189 4.12071 27.613 3.84533 27.8993C3.06183 28.7138 3.44938 28.9298 5.26053 28.6881ZM50.5157 27.3772C51.4653 26.8662 52.6157 25.8181 52.6525 25.4305C52.6661 25.2872 52.686 25.0725 52.6967 24.9533C52.7148 24.7513 52.7223 24.7531 52.8081 24.9804C52.8588 25.1145 52.9388 25.2241 52.9859 25.2241C53.1305 25.2241 53.3071 24.2281 53.2694 23.6256C53.2498 23.3124 53.2717 23.0312 53.3178 23.0008C53.4947 22.8844 53.0859 21.9691 52.6999 21.6174C52.3325 21.2825 52.2381 21.2536 51.1268 21.1354C50.2459 21.0416 49.8746 21.0408 49.6705 21.132C49.5198 21.1993 49.2004 21.2412 48.9607 21.2252C48.7059 21.2081 48.4305 21.2618 48.2978 21.3544C48.173 21.4415 47.9113 21.5474 47.7162 21.5898C47.1832 21.7056 46.3148 22.055 45.6439 22.4235C44.9342 22.8133 44.3596 23.3892 44.117 23.9538C44.0204 24.1787 43.9034 24.3376 43.8571 24.3071C43.7232 24.219 43.5273 24.5402 43.5638 24.788C43.602 25.0473 43.4815 25.1008 45.225 24.0496C45.7286 23.7459 46.5756 23.2703 47.1073 22.9926C48.1751 22.4349 48.7652 22.3295 49.9522 22.4844C50.5472 22.5621 50.6318 22.6051 50.8425 22.9383C51.3461 23.7344 50.9988 24.515 49.6723 25.5682C48.9068 26.176 48.2223 26.3135 45.6828 26.3694L43.5971 26.4154V26.9301V27.4448L44.411 27.5226C44.8587 27.5655 45.5226 27.6714 45.8863 27.758C46.3712 27.8735 46.9684 27.9021 48.1247 27.8654L49.7018 27.8153L50.5157 27.3772ZM47.5797 25.4515C48.5573 25.3203 48.81 25.1895 49.6439 24.3828C50.144 23.8991 50.2817 23.7036 50.2278 23.554C50.1646 23.3787 50.047 23.3625 49.1079 23.3995C47.9983 23.4432 47.9186 23.4723 46.2933 24.4281C46.0415 24.5761 45.6095 24.828 45.3334 24.9878C45.0573 25.1476 44.8171 25.327 44.7996 25.3866C44.7548 25.5396 46.6022 25.5827 47.5797 25.4515ZM23.8603 23.4672C23.874 23.4505 23.8617 22.7213 23.8327 21.8469L23.7802 20.257L23.2154 19.8429C22.7131 19.4746 22.5824 19.4288 22.0337 19.4288C21.2775 19.4288 20.5277 19.7807 19.7982 20.4778L19.2989 20.955L19.4796 21.2486C19.6285 21.4906 19.6373 21.5716 19.5297 21.7096C19.4573 21.8026 19.2823 21.8626 19.1362 21.8445C18.9211 21.8179 18.8638 21.7427 18.8222 21.4328C18.7797 21.116 18.7254 21.048 18.4918 21.0194C18.338 21.0005 17.9717 20.8122 17.6778 20.6008C17.168 20.2341 17.113 20.2191 16.4821 20.2755C15.6338 20.3513 15.2899 20.5155 14.8242 21.0668C14.366 21.6093 14.3066 22.0827 14.6968 22.0827C14.883 22.0827 14.9902 21.9844 15.119 21.6955C15.3706 21.131 15.6007 21.0222 16.4821 21.0514C17.4613 21.0838 17.3978 21.0582 17.3978 21.4201C17.3978 21.6634 17.2972 21.8131 16.9431 22.0972C16.693 22.2977 16.487 22.4965 16.4852 22.5389C16.4814 22.6329 17.0013 22.77 17.9847 22.9342C19.1016 23.1207 19.3001 23.1002 19.4982 22.7782C19.6436 22.542 19.7216 22.509 20.0022 22.565C20.3076 22.626 20.3368 22.6072 20.3668 22.33C20.3901 22.1131 20.4914 21.983 20.7277 21.8661C20.9707 21.7459 21.0568 21.6317 21.0584 21.4275C21.0601 21.214 21.1373 21.1218 21.3985 21.0212C21.5843 20.9497 21.7789 20.8912 21.8309 20.8913C21.8829 20.8913 21.9254 21.2203 21.9254 21.6224V22.3535L21.6202 22.3191C21.4523 22.3002 21.2728 22.2406 21.2212 22.1868C21.1648 22.1279 21.0825 22.1846 21.0148 22.3293C20.9528 22.4616 20.7564 22.6674 20.5783 22.7866C20.4002 22.9059 20.2527 23.0307 20.2506 23.0639C20.2418 23.199 21.0547 23.4909 21.4399 23.4909C21.7946 23.4909 21.8614 23.4531 21.916 23.2215C22.0087 22.8285 22.638 22.5149 23.179 22.5922C23.7074 22.6676 23.7252 22.8613 23.2289 23.1355C22.6295 23.4666 22.6588 23.646 23.299 23.5653C23.594 23.5281 23.8465 23.484 23.8603 23.4672ZM21.3167 20.5861C21.1715 20.4315 21.2904 20.1169 21.5308 20.0196C21.8573 19.8874 22.1022 20.0616 22.0575 20.3942C22.0343 20.5674 21.9502 20.6229 21.6982 20.6312C21.5173 20.6371 21.3456 20.6168 21.3167 20.5861ZM26.0512 23.0279C25.8592 22.703 25.8877 21.2483 26.0942 20.8266C26.179 20.6536 26.2486 20.3839 26.249 20.2274C26.2492 20.0709 26.3183 19.8821 26.4022 19.8079C26.4861 19.7338 26.5548 19.6074 26.5548 19.5272C26.5548 19.329 26.9081 18.6281 27.1896 18.2677C27.5032 17.8663 28.5668 17.2081 28.9019 17.2081C29.5039 17.2081 29.5082 17.8737 28.9071 18.0017C28.4738 18.094 27.4645 19.2265 27.2343 19.8786C27.1324 20.1674 26.9836 20.5638 26.9037 20.7594C26.7068 21.2411 26.7154 22.4994 26.9184 22.9327C27.1247 23.373 27.3427 23.368 28.0188 22.9075C28.9982 22.2405 29.7338 20.7193 29.7271 19.3746C29.7239 18.7302 29.6531 18.0562 29.5479 17.6685C29.4895 17.4537 29.5184 17.4248 29.7914 17.4248C30.5224 17.4248 30.7574 18.5375 30.4129 20.3672C30.1782 21.6136 30.1142 21.7802 29.6832 22.2651C29.2542 22.748 29.3542 22.9946 29.938 22.8932C30.4987 22.7958 30.7763 22.5128 31.1579 21.6494C31.6084 20.6302 31.6847 20.2886 31.678 19.3204C31.6728 18.5496 31.6323 18.37 31.3116 17.6956C31.0106 17.0624 30.9511 16.8229 30.951 16.244C30.9509 15.6171 30.9791 15.5231 31.2457 15.2639C31.4078 15.1063 31.7435 14.6266 31.9917 14.198C32.2399 13.7694 32.5824 13.2355 32.7528 13.0115C32.9231 12.7876 33.3267 12.2287 33.6495 11.7697C34.323 10.812 35.9686 8.7444 36.6941 7.94428C36.9653 7.64522 37.3932 7.09326 37.645 6.71771C37.8968 6.34215 38.2512 5.83127 38.4325 5.58242C38.6138 5.33357 38.7626 5.06903 38.7632 4.99456C38.7638 4.92009 38.8127 4.85916 38.8719 4.85916C38.9312 4.85916 38.9491 4.80652 38.9118 4.74218C38.8744 4.67784 38.9359 4.55657 39.0484 4.47269C39.4071 4.20514 39.9056 2.74535 39.9208 1.91741C39.9283 1.51027 39.8846 1.1353 39.8218 1.06799C39.3937 0.609348 38.1297 1.97268 37.3916 3.68894C37.2481 4.02283 37.0587 4.35956 36.9708 4.43723C36.8057 4.5831 36.0448 5.78941 35.8164 6.26737C35.7452 6.41632 35.5824 6.66005 35.4547 6.80899C35.2108 7.09323 35.1406 7.21926 34.1564 9.13797C33.8203 9.79333 33.3763 10.5976 33.1697 10.9253C32.9632 11.253 32.7436 11.679 32.6817 11.8719C32.6198 12.0648 32.4292 12.4392 32.2582 12.7038C32.0872 12.9685 31.9473 13.2219 31.9473 13.2671C31.9473 13.3122 31.7476 13.6203 31.5034 13.9517C31.2593 14.283 30.9363 14.8137 30.7857 15.1309C30.4668 15.8024 30.1055 16.0165 29.2089 16.0653C28.3821 16.1102 27.3599 16.5123 26.6365 17.077C25.9634 17.6025 25.1479 18.9081 25.0132 19.6762C24.9655 19.9481 24.8528 20.2572 24.7627 20.3631C24.6242 20.5261 24.6102 20.7215 24.6715 21.6335C24.7646 23.0191 24.9329 23.3552 25.5576 23.4032C26.1065 23.4454 26.2386 23.3449 26.0512 23.0279ZM32.8121 22.346C33.0919 22.2645 33.504 22.1664 33.7278 22.128C34.0894 22.0661 34.1093 22.048 33.9059 21.9657C33.658 21.8654 33.6076 21.5566 33.7823 21.209C33.913 20.9489 34.0977 20.943 34.3841 21.19C34.6214 21.3945 34.5851 21.7578 34.3274 21.7578C34.0889 21.7578 34.1702 21.9272 34.4146 21.9394C34.6968 21.9535 35.5388 21.6857 36.0171 21.4297C36.2129 21.3249 36.6937 21.1057 37.0854 20.9428C37.4771 20.7798 37.9808 20.5603 38.2046 20.4551C38.4284 20.3498 38.9092 20.1321 39.2729 19.9713C39.6367 19.8104 40.0288 19.586 40.1443 19.4726C40.2598 19.3591 40.4076 19.2663 40.4726 19.2663C40.5377 19.2663 40.6636 19.1482 40.7525 19.0037C40.8977 18.7678 40.8984 18.709 40.76 18.424C40.5438 17.9788 40.1669 17.7493 39.6581 17.7528C39.2845 17.7556 39.152 17.8252 38.7324 18.2403C38.4631 18.5067 38.1705 18.7247 38.0823 18.7247C37.8941 18.7247 37.6529 18.4191 37.6482 18.1749C37.6465 18.081 37.5311 17.8903 37.392 17.7511C37.1576 17.5166 37.1083 17.5077 36.7233 17.6306C36.4947 17.7035 36.1087 17.9248 35.8657 18.1223C35.3252 18.5616 34.9564 18.5362 34.7069 18.0425C34.3171 17.2713 33.9746 17.1504 33.2674 17.5345C32.6953 17.8452 32.5185 18.1765 32.6033 18.7786C32.6411 19.0469 32.6907 19.2663 32.7135 19.2663C32.7364 19.2663 32.9181 19.1688 33.1174 19.0497C33.5443 18.7944 33.7581 18.7824 34.0267 18.9986C34.1802 19.1223 34.2183 19.2696 34.199 19.666C34.1779 20.1004 34.1194 20.2262 33.7984 20.5284C33.364 20.9373 33.0723 20.9805 32.8121 20.6745C32.7108 20.5554 32.5931 20.4579 32.5505 20.4579C32.5078 20.4579 32.3757 20.7926 32.2568 21.2016C32.1378 21.6107 31.9752 22.0372 31.8954 22.1495C31.8156 22.2617 31.7488 22.4154 31.7471 22.491C31.7436 22.6371 31.8738 22.6194 32.8121 22.346ZM37.2635 20.1695C37.05 20.0778 37.1204 19.8414 37.4489 19.5471C37.6982 19.3238 37.8012 19.2897 37.9576 19.3788C38.2131 19.5244 38.2126 19.9834 37.957 20.1291C37.7512 20.2464 37.4793 20.2622 37.2635 20.1695ZM35.2031 19.3995C35.2031 19.0248 35.2423 18.9503 35.499 18.8371C35.7469 18.7278 35.8377 18.7365 36.0586 18.8906C36.4617 19.1718 36.4036 19.5433 35.9412 19.6414C35.843 19.6622 35.6368 19.7135 35.4829 19.7553C35.2125 19.8289 35.2031 19.8169 35.2031 19.3995ZM39.1966 19.4112C39.0116 19.3317 39.038 18.7607 39.2304 18.6821C39.4725 18.5832 39.6223 18.6018 39.8196 18.7554C39.9883 18.8867 39.9861 18.9108 39.7808 19.1887C39.5678 19.477 39.4522 19.521 39.1966 19.4112ZM16.1194 21.7464C16.0306 21.5935 15.8716 21.6333 15.8716 21.8085C15.8716 21.9052 15.9313 21.9432 16.0237 21.9055C16.1073 21.8713 16.1504 21.7997 16.1194 21.7464ZM14.0642 20.7401C14.3034 20.3585 14.9032 19.7947 15.2396 19.6352C15.6651 19.4334 17.4435 19.2994 17.6235 19.4555C17.8451 19.6478 18.7025 20.1329 18.8207 20.1329C18.9512 20.1329 19.0162 20.0821 19.6628 19.4748C19.943 19.2116 20.3935 18.9297 20.7311 18.8062C21.4271 18.5517 22.8304 18.4225 22.9353 18.6033C22.9741 18.67 23.0789 18.7247 23.1682 18.7247C23.2576 18.7247 23.4807 18.8465 23.6641 18.9955C24.0006 19.2687 24.2147 19.3399 24.2147 19.1786C24.2147 19.1304 24.4292 18.6872 24.6914 18.1937C25.0516 17.5157 25.3509 17.1267 25.9156 16.6023C26.3267 16.2206 26.7266 15.9082 26.8042 15.9082C26.8818 15.9082 27.0749 15.8386 27.2334 15.7536C27.3918 15.6685 27.8042 15.5156 28.1499 15.4139C28.7153 15.2474 28.8164 15.245 29.1581 15.3901C29.5353 15.5503 29.5399 15.549 29.8269 15.201C30.2063 14.7409 30.2099 14.4903 29.8361 14.5507C29.6822 14.5756 28.8695 14.6495 28.0301 14.715C27.1907 14.7806 26.2979 14.8592 26.0461 14.8897C25.7943 14.9202 24.9701 14.9862 24.2147 15.0363C22.9859 15.1179 21.15 15.4485 20.6028 15.6867C20.4908 15.7354 19.6438 15.9783 18.7205 16.2265C17.7971 16.4747 16.7652 16.8215 16.4272 16.9971C16.0892 17.1728 15.7458 17.3168 15.6641 17.3172C15.5824 17.3175 15.3782 17.4147 15.2103 17.5331C15.0424 17.6515 14.8184 17.7487 14.7125 17.7491C14.6066 17.7494 14.2736 17.9739 13.9725 18.2477C13.6714 18.5216 13.1514 18.8868 12.8169 19.0593C12.2656 19.3436 12.0341 19.5913 12.3195 19.5913C12.3894 19.5913 12.4097 19.7408 12.3747 19.9975C12.3216 20.3859 12.3464 20.4287 12.9406 20.9744L13.562 21.545L13.7488 21.2452C13.8515 21.0803 13.9934 20.853 14.0642 20.7401ZM41.6454 17.6144C41.61 17.4207 41.5486 17.2379 41.509 17.2081C41.4694 17.1784 41.4057 17.0472 41.3675 16.9166C41.3211 16.7586 41.0019 16.5177 40.4119 16.1957C39.5864 15.7451 39.11 15.5661 37.7822 15.2077C37.4939 15.1298 37.0361 14.9919 36.7648 14.9011C36.4934 14.8103 35.6805 14.7079 34.9582 14.6736C33.9585 14.626 33.602 14.5697 33.4651 14.4378C33.2401 14.221 32.9523 14.2727 32.8113 14.5552C32.4934 15.1921 32.0059 15.9252 31.8358 16.0221C31.5947 16.1595 31.5899 16.4377 31.8201 16.9302C32.0387 17.3978 32.2478 17.4147 32.7418 17.0049C33.1799 16.6414 33.6682 16.4499 34.1567 16.4499C34.636 16.4499 34.8728 16.6096 35.0455 17.0496C35.1884 17.4138 35.4303 17.5386 35.5601 17.3149C35.7249 17.031 36.4375 16.7748 37.0623 16.7748C37.6477 16.7748 37.7363 16.8055 38.0011 17.0998C38.1619 17.2786 38.3338 17.4248 38.383 17.4248C38.4323 17.4248 38.6226 17.3029 38.806 17.154C39.0459 16.9592 39.2653 16.8835 39.5877 16.8842C40.1154 16.8855 40.9462 17.2722 41.3001 17.6813C41.6273 18.0595 41.7233 18.0409 41.6454 17.6144Z" fill="black"/>
</svg>
